<?xml version="1.0" encoding="UTF-8"?>
<svg id="Layer_1" xmlns="http://www.w3.org/2000/svg" xmlns:xlink="http://www.w3.org/1999/xlink" version="1.1" viewBox="0 0 1280 768">
  <!-- Generator: Adobe Illustrator 30.0.0, SVG Export Plug-In . SVG Version: 2.1.1 Build 123)  -->
  <defs>
    <style>
      .st0 {
        filter: url(#drop-shadow-3);
      }

      .st1, .st2, .st3, .st4 {
        fill: #2b388f;
      }

      .st2 {
        font-size: 23.91px;
      }

      .st2, .st3, .st5, .st6, .st7 {
        font-family: MyriadPro-Bold, 'Myriad Pro';
        font-weight: 700;
      }

      .st8 {
        fill: url(#radial-gradient);
      }

      .st9 {
        fill: url(#linear-gradient);
      }

      .st10 {
        fill: #c23b33;
      }

      .st10, .st5 {
        font-size: 30px;
      }

      .st11 {
        stroke: #fff;
        stroke-width: 3.95px;
      }

      .st11, .st12, .st7, .st13 {
        fill: #243a78;
      }

      .st11, .st14, .st15, .st16, .st17 {
        stroke-miterlimit: 10;
      }

      .st3 {
        font-size: 22.71px;
      }

      .st18 {
        filter: url(#drop-shadow-26);
      }

      .st12, .st7 {
        font-size: 25px;
      }

      .st19, .st14, .st5, .st15, .st16, .st20, .st21 {
        fill: #fff;
      }

      .st22 {
        fill: #000b8c;
      }

      .st14 {
        stroke-width: 1.59px;
      }

      .st14, .st15, .st16 {
        stroke: #2b388f;
      }

      .st4 {
        font-family: MyriadPro-Regular, 'Myriad Pro';
        font-size: 23.76px;
      }

      .st15, .st16 {
        stroke-width: 2.63px;
      }

      .st15, .st16, .st20, .st21 {
        font-family: BerkshireSwash-Regular, 'Berkshire Swash';
      }

      .st15, .st20 {
        font-size: 34.66px;
      }

      .st23 {
        fill: #262261;
      }

      .st16, .st21 {
        font-size: 27.67px;
      }

      .st17 {
        fill: url(#radial-gradient1);
        stroke: #000b8c;
        stroke-width: 1.6px;
      }
    </style>
    <radialGradient id="radial-gradient" cx="639.33" cy="384" fx="639.33" fy="384" r="527.76" gradientUnits="userSpaceOnUse">
      <stop offset="0" stop-color="#fff"/>
      <stop offset="1" stop-color="#edffff"/>
    </radialGradient>
    <filter id="drop-shadow-3" x="34.29" y="676.63" width="153.04" height="81.56" filterUnits="userSpaceOnUse">
      <feOffset dx="3.73" dy="3.73"/>
      <feGaussianBlur result="blur" stdDeviation="3.73"/>
      <feFlood flood-color="#231f20" flood-opacity=".4"/>
      <feComposite in2="blur" operator="in"/>
      <feComposite in="SourceGraphic"/>
    </filter>
    <linearGradient id="linear-gradient" x1="1746.61" y1="130.88" x2="583.07" y2="126.21" gradientUnits="userSpaceOnUse">
      <stop offset="0" stop-color="#fff" stop-opacity="0"/>
      <stop offset=".68" stop-color="#2b388f"/>
    </linearGradient>
    <filter id="drop-shadow-26" x="1214.08" y="704.75" width="40.65" height="40.65" filterUnits="userSpaceOnUse">
      <feOffset dx="5.59" dy="5.59"/>
      <feGaussianBlur result="blur1" stdDeviation="3.99"/>
      <feFlood flood-color="#000" flood-opacity=".75"/>
      <feComposite in2="blur1" operator="in"/>
      <feComposite in="SourceGraphic"/>
    </filter>
    <radialGradient id="radial-gradient1" cx="1234.41" cy="725.08" fx="1234.41" fy="725.08" r="19.53" gradientUnits="userSpaceOnUse">
      <stop offset="0" stop-color="#fff"/>
      <stop offset="1" stop-color="#f1f1f1"/>
    </radialGradient>
  </defs>
  <g>
    <rect class="st8" x="-.67" width="1280" height="768"/>
    <g class="st0">
      <text class="st15" transform="translate(67.52 711.56) rotate(-.27)"><tspan x="0" y="0">Eternal </tspan></text>
      <g>
        <g>
          <path class="st11" d="M64.3,714.95c-.11.14-.15.32-.11.5l2.71,12.04c.06.27.3.46.58.46h.57c.9-2.06,1.4-4.34,1.39-6.73-.01-2.31-.5-4.51-1.36-6.51l-3.32.02c-.18,0-.35.08-.46.22Z"/>
          <path class="st11" d="M38.87,728.11l2.6-12.07c.04-.17,0-.36-.12-.5-.11-.14-.28-.22-.46-.22l-3.52.02c-.72,1.87-1.11,3.9-1.1,6.03.01,2.58.61,5.03,1.68,7.2h.35c.28,0,.52-.2.57-.47Z"/>
          <path class="st11" d="M65.04,724.41l-2.02-8.85c-.12-.54-.61-.92-1.16-.92-.02,0-.05,0-.07,0l-7.09.47c-.27.02-.52.13-.72.31l-.29.26-.31-.28c-.22-.2-.5-.3-.79-.3h-2.94s-5.96.04-5.96.04c-.55,0-1.03.39-1.15.93l-2.05,9.38c-.08.38.02.77.28,1.05.23.25.54.38.87.38.05,0,.1,0,.15-.01l2.8-.37,7.52,5.81.78.72c.23.21.52.31.81.31.08,0,.15,0,.23-.02.26-.02.51-.13.71-.32l5.35-5.04,2.64-2.44.93.27c.11.03.22.05.33.05.3,0,.58-.11.81-.32.3-.29.43-.71.34-1.12ZM60.41,725.96s-.04-.04-.06-.06l-5.08-4.65c-.24-.22-.61-.2-.83.04-.22.24-.2.61.04.83l5.08,4.64-.37.35-.83.78s0,0,0-.01c-.03-.04-.06-.08-.1-.11l-4.22-3.72c-.24-.22-.62-.19-.83.05-.22.24-.19.62.05.83l4.22,3.72s.02.01.02.02c0,0,.01,0,.02.01l-1.22,1.15s-.01-.02-.02-.04c-.03-.05-.07-.1-.12-.15l-3.46-3.05c-.24-.22-.62-.19-.83.05-.22.24-.19.62.05.83l3.46,3.05s.04.03.05.04c.02.01.03.02.05.03l-.56.52s-.02-.04-.03-.06c-.04-.08-.09-.16-.17-.22l-.84-.67c-.25-.2-.63-.16-.83.09l-.6.75-.03.04-.5-.39.07-.08.59-.74c.2-.26.16-.63-.09-.83l-.84-.67c-.26-.2-.63-.16-.83.09l-.48.61-.19.24-.5-.39.22-.28.6-.76c.2-.26.16-.63-.09-.83l-.84-.67c-.25-.2-.63-.16-.83.09l-.5.63-.35.44-.31-.24-.19-.15s.01,0,.02-.01c.05-.03.09-.07.13-.11l.26-.33.62-.78c.2-.26.16-.63-.09-.83l-.84-.67c-.26-.2-.63-.16-.83.09l-.51.65-.37.46s0,0,0,0c-.05.06-.08.13-.1.2l-.71-.55-.33.04-2.96.39,2.05-9.38,5.96-.03h2.94s.23.19.23.19l.1.09-1.84,2.31-.75.95s-.35.39-.32.84c.01.16.07.32.22.48.68.74,2.23.16,2.23.16l1.92-2.31s.25-.33.69-.5l6.79,6.1-1.44,1.36Z"/>
        </g>
        <path class="st11" d="M54.1,755.22l1.79-19.93c.03-.29-.06-.58-.24-.79-.18-.21-.43-.32-.68-.3l-3.96.49c-.72,3.13-.96,6.48-.62,9.93.41,4.19.68,8.08,2.49,11.47l.48-.05c.39-.04.69-.38.73-.83Z"/>
      </g>
      <text class="st16" transform="translate(65.32 747.4) rotate(-.27)"><tspan x="0" y="0">rust</tspan></text>
      <text class="st20" transform="translate(67.52 711.56) rotate(-.27)"><tspan x="0" y="0">Eternal </tspan></text>
      <g>
        <g>
          <path class="st13" d="M64.3,714.95c-.11.14-.15.32-.11.5l2.71,12.04c.06.27.3.46.58.46h.57c.9-2.06,1.4-4.34,1.39-6.73-.01-2.31-.5-4.51-1.36-6.51l-3.32.02c-.18,0-.35.08-.46.22Z"/>
          <path class="st13" d="M38.87,728.11l2.6-12.07c.04-.17,0-.36-.12-.5-.11-.14-.28-.22-.46-.22l-3.52.02c-.72,1.87-1.11,3.9-1.1,6.03.01,2.58.61,5.03,1.68,7.2h.35c.28,0,.52-.2.57-.47Z"/>
          <path class="st13" d="M65.04,724.41l-2.02-8.85c-.12-.54-.61-.92-1.16-.92-.02,0-.05,0-.07,0l-7.09.47c-.27.02-.52.13-.72.31l-.29.26-.31-.28c-.22-.2-.5-.3-.79-.3h-2.94s-5.96.04-5.96.04c-.55,0-1.03.39-1.15.93l-2.05,9.38c-.08.38.02.77.28,1.05.23.25.54.38.87.38.05,0,.1,0,.15-.01l2.8-.37,7.52,5.81.78.72c.23.21.52.31.81.31.08,0,.15,0,.23-.02.26-.02.51-.13.71-.32l5.35-5.04,2.64-2.44.93.27c.11.03.22.05.33.05.3,0,.58-.11.81-.32.3-.29.43-.71.34-1.12ZM60.41,725.96s-.04-.04-.06-.06l-5.08-4.65c-.24-.22-.61-.2-.83.04-.22.24-.2.61.04.83l5.08,4.64-.37.35-.83.78s0,0,0-.01c-.03-.04-.06-.08-.1-.11l-4.22-3.72c-.24-.22-.62-.19-.83.05-.22.24-.19.62.05.83l4.22,3.72s.02.01.02.02c0,0,.01,0,.02.01l-1.22,1.15s-.01-.02-.02-.04c-.03-.05-.07-.1-.12-.15l-3.46-3.05c-.24-.22-.62-.19-.83.05-.22.24-.19.62.05.83l3.46,3.05s.04.03.05.04c.02.01.03.02.05.03l-.56.52s-.02-.04-.03-.06c-.04-.08-.09-.16-.17-.22l-.84-.67c-.25-.2-.63-.16-.83.09l-.6.75-.03.04-.5-.39.07-.08.59-.74c.2-.26.16-.63-.09-.83l-.84-.67c-.26-.2-.63-.16-.83.09l-.48.61-.19.24-.5-.39.22-.28.6-.76c.2-.26.16-.63-.09-.83l-.84-.67c-.25-.2-.63-.16-.83.09l-.5.63-.35.44-.31-.24-.19-.15s.01,0,.02-.01c.05-.03.09-.07.13-.11l.26-.33.62-.78c.2-.26.16-.63-.09-.83l-.84-.67c-.26-.2-.63-.16-.83.09l-.51.65-.37.46s0,0,0,0c-.05.06-.08.13-.1.2l-.71-.55-.33.04-2.96.39,2.05-9.38,5.96-.03h2.94s.23.19.23.19l.1.09-1.84,2.31-.75.95s-.35.39-.32.84c.01.16.07.32.22.48.68.74,2.23.16,2.23.16l1.92-2.31s.25-.33.69-.5l6.79,6.1-1.44,1.36Z"/>
        </g>
        <path class="st13" d="M54.1,755.22l1.79-19.93c.03-.29-.06-.58-.24-.79-.18-.21-.43-.32-.68-.3l-3.96.49c-.72,3.13-.96,6.48-.62,9.93.41,4.19.68,8.08,2.49,11.47l.48-.05c.39-.04.69-.38.73-.83Z"/>
      </g>
      <text class="st21" transform="translate(65.32 747.4) rotate(-.27)"><tspan x="0" y="0">rust</tspan></text>
    </g>
    <g>
      <path class="st1" d="M1278.71,723.58H291.39c-13.32,0-26.65-.17-39.97,0-.58,0-1.17,0-1.75,0-1.93,0-1.93,3,0,3h987.31c13.32,0,26.65.17,39.97,0,.58,0,1.17,0,1.75,0,1.93,0,1.93-3,0-3h0Z"/>
      <circle class="st1" cx="237.92" cy="725.53" r="4.9"/>
      <circle class="st1" cx="223.97" cy="725.53" r="4.9"/>
      <circle class="st1" cx="210.01" cy="725.53" r="4.9"/>
    </g>
    <g>
      <path class="st1" d="M-.67,55.81h994.39c13.43,0,26.88.17,40.31,0,.59,0,1.18,0,1.76,0,1.93,0,1.93-3,0-3H41.4c-13.43,0-26.88-.17-40.31,0-.59,0-1.18,0-1.76,0-1.93,0-1.93,3,0,3h0Z"/>
      <circle class="st1" cx="1047.55" cy="53.86" r="4.9"/>
      <circle class="st1" cx="1061.5" cy="53.86" r="4.9"/>
      <circle class="st1" cx="1075.46" cy="53.86" r="4.9"/>
    </g>
    <g>
      <path class="st13" d="M1153.71,56.45c-.16-4.27-.32-9.38-.32-14.6h-.11c-1.16,4.53-2.64,9.6-4.01,13.76l-4.32,13.87h-6.27l-3.79-13.71c-1.16-4.22-2.32-9.23-3.22-13.92h-.1c-.16,4.8-.37,10.28-.58,14.71l-.69,13.5h-7.44l2.27-35.53h10.7l3.48,11.92c1.16,4.06,2.21,8.49,3,12.65h.21c.95-4.11,2.16-8.75,3.37-12.76l3.74-11.81h10.54l1.9,35.53h-7.8l-.58-13.6Z"/>
      <path class="st13" d="M1170.16,40.9c-2.69,0-4.43-1.9-4.43-4.27s1.79-4.27,4.53-4.27,4.43,1.85,4.48,4.27c0,2.37-1.74,4.27-4.53,4.27h-.05ZM1166.21,44.27h8.01v25.78h-8.01v-25.78Z"/>
      <path class="st13" d="M1184.71,44.27l2.53,4.32c.74,1.32,1.42,2.58,2.11,3.85h.11c.69-1.42,1.32-2.69,2-4.01l2.27-4.16h8.7l-8.49,12.28,8.59,13.5h-9.07l-2.58-4.64c-.74-1.27-1.42-2.58-2-3.9h-.16c-.63,1.37-1.32,2.64-1.95,3.9l-2.42,4.64h-8.81l8.75-13.13-8.54-12.65h8.96Z"/>
      <path class="st13" d="M1207.81,40.9c-2.69,0-4.43-1.9-4.43-4.27s1.79-4.27,4.53-4.27,4.43,1.85,4.48,4.27c0,2.37-1.74,4.27-4.53,4.27h-.05ZM1203.86,44.27h8.01v25.78h-8.01v-25.78Z"/>
      <path class="st13" d="M1217.19,70.05v-19.87h-3.43v-5.9h3.43v-1c0-3.11.95-6.54,3.22-8.65,2.05-1.9,4.8-2.58,7.17-2.58,1.74,0,3.11.26,4.22.53l-.32,6.17c-.69-.21-1.53-.37-2.58-.37-2.64,0-3.74,2.06-3.74,4.59v1.32h5.17v5.9h-5.11v19.87h-8.01Z"/>
      <path class="st13" d="M1186.33,80.91c-.37.19-1.13.38-2.1.38-2.25,0-3.93-1.42-3.93-4.04s1.69-4.19,4.16-4.19c.98,0,1.62.21,1.89.35l-.26.84c-.38-.19-.94-.33-1.6-.33-1.87,0-3.11,1.2-3.11,3.29,0,1.96,1.12,3.21,3.05,3.21.64,0,1.28-.13,1.69-.33l.2.83Z"/>
      <path class="st13" d="M1188.64,78.47c.02,1.41.91,1.99,1.95,1.99.75,0,1.21-.13,1.59-.29l.19.73c-.37.16-1,.37-1.92.37-1.75,0-2.81-1.17-2.81-2.88s1.03-3.1,2.7-3.1c1.87,0,2.35,1.64,2.35,2.7,0,.21,0,.38-.03.5h-4.01ZM1191.68,77.73c0-.65-.27-1.69-1.43-1.69-1.06,0-1.51.97-1.6,1.69h3.03Z"/>
      <path class="st13" d="M1194.66,81.16v-4.93h-.79v-.79h.79v-.27c0-.8.19-1.54.68-2,.39-.38.91-.53,1.38-.53.38,0,.69.08.89.16l-.13.81c-.17-.07-.37-.13-.67-.13-.88,0-1.11.78-1.11,1.66v.31h1.38v.79h-1.37v4.93h-1.04Z"/>
      <path class="st13" d="M1199.1,74.38c-.39,0-.65-.31-.65-.67s.27-.66.67-.66.66.3.66.66-.26.67-.67.67h-.01ZM1198.61,75.43h1.04v5.72h-1.04v-5.72Z"/>
      <path class="st13" d="M1202.44,75.43l.82,1.22c.21.33.39.62.58.94h.03c.19-.33.38-.63.58-.94l.79-1.22h1.14l-1.95,2.77,2,2.96h-1.18l-.84-1.29c-.22-.33-.41-.65-.61-.99h-.02c-.19.34-.39.65-.6.99l-.83,1.29h-1.15l2.03-2.92-1.94-2.8h1.16Z"/>
      <path class="st13" d="M1208.52,74.38c-.39,0-.65-.31-.65-.67s.27-.66.68-.66.66.3.66.66-.26.67-.68.67h-.01ZM1208.02,75.43h1.04v5.72h-1.04v-5.72Z"/>
      <path class="st13" d="M1211.37,76.98c0-.6-.02-1.07-.05-1.55h.91l.05.92h.03c.32-.54.85-1.05,1.81-1.05.77,0,1.36.47,1.61,1.15h.02c.18-.33.41-.57.65-.74.34-.26.71-.4,1.25-.4.77,0,1.89.5,1.89,2.48v3.37h-1.02v-3.24c0-1.11-.42-1.76-1.24-1.76-.6,0-1.05.44-1.24.93-.05.15-.08.35-.08.52v3.55h-1.02v-3.43c0-.92-.4-1.57-1.2-1.57-.64,0-1.12.52-1.29,1.04-.06.15-.08.33-.08.51v3.45h-1.02v-4.18Z"/>
      <path class="st13" d="M1222.41,78.47c.02,1.41.91,1.99,1.95,1.99.74,0,1.21-.13,1.58-.29l.19.73c-.37.16-1,.37-1.92.37-1.75,0-2.81-1.17-2.81-2.88s1.03-3.1,2.7-3.1c1.87,0,2.36,1.64,2.36,2.7,0,.21-.01.38-.04.5h-4.01ZM1225.45,77.73c0-.65-.27-1.69-1.43-1.69-1.06,0-1.51.97-1.6,1.69h3.03Z"/>
      <path class="st13" d="M1240.67,32.72c2.32,0,4.17,1.89,4.17,4.21s-1.85,4.23-4.19,4.23-4.21-1.87-4.21-4.23,1.89-4.21,4.21-4.21h.02ZM1240.63,33.56c-1.76,0-3.18,1.52-3.18,3.39s1.42,3.37,3.2,3.37c1.78.02,3.22-1.48,3.22-3.37s-1.44-3.39-3.22-3.39h-.02ZM1239.92,39.38h-.99v-4.68c.37-.06.79-.13,1.5-.13.8,0,1.29.13,1.61.37.26.21.41.52.41,1.01,0,.56-.39.95-.9,1.09v.04c.41.07.67.45.75,1.14.09.73.19,1.01.26,1.16h-1.03c-.11-.17-.19-.58-.28-1.22-.07-.51-.37-.71-.88-.71h-.45v1.93ZM1239.92,36.69h.47c.58,0,1.03-.19,1.03-.67,0-.39-.28-.69-.95-.69-.24,0-.41,0-.54.02v1.35Z"/>
    </g>
  </g>
  <rect class="st9" x=".29" y="97.49" width="1280.38" height="57.91"/>
  <g>
    <text class="st5" transform="translate(116.41 134.98)"><tspan x="0" y="0">Cefixime has high susceptibility among key pathogens causing Urinary Tract Infection</tspan></text>
    <text class="st5" transform="translate(1257.97 124.99) scale(.58)"><tspan x="0" y="0">12</tspan></text>
  </g>
  <g>
    <path class="st19" d="M52.17,128.26c-.1-2.8-.21-6.16-.21-9.59h-.07c-.76,2.98-1.73,6.3-2.63,9.03l-2.84,9.1h-4.12l-2.49-9c-.76-2.77-1.52-6.06-2.11-9.14h-.07c-.1,3.15-.24,6.75-.38,9.66l-.45,8.86h-4.88l1.49-23.33h7.03l2.28,7.82c.76,2.66,1.45,5.57,1.97,8.31h.14c.62-2.7,1.42-5.75,2.21-8.38l2.46-7.75h6.92l1.25,23.33h-5.12l-.38-8.93Z"/>
    <path class="st19" d="M62.97,118.05c-1.77,0-2.91-1.25-2.91-2.8s1.18-2.8,2.98-2.8,2.91,1.21,2.94,2.8c0,1.56-1.14,2.8-2.98,2.8h-.03ZM60.38,120.26h5.26v16.92h-5.26v-16.92Z"/>
    <path class="st19" d="M72.53,120.26l1.66,2.84c.48.87.94,1.7,1.38,2.53h.07c.45-.93.87-1.77,1.31-2.63l1.49-2.73h5.71l-5.57,8.06,5.64,8.86h-5.95l-1.7-3.05c-.48-.83-.93-1.7-1.32-2.56h-.1c-.42.9-.86,1.73-1.28,2.56l-1.59,3.05h-5.78l5.75-8.62-5.61-8.31h5.88Z"/>
    <path class="st19" d="M87.69,118.05c-1.76,0-2.91-1.25-2.91-2.8s1.18-2.8,2.98-2.8,2.91,1.21,2.94,2.8c0,1.56-1.14,2.8-2.98,2.8h-.04ZM85.09,120.26h5.26v16.92h-5.26v-16.92Z"/>
    <path class="st19" d="M93.85,137.18v-13.05h-2.25v-3.88h2.25v-.66c0-2.04.62-4.29,2.11-5.68,1.35-1.25,3.15-1.7,4.71-1.7,1.14,0,2.04.17,2.77.35l-.21,4.05c-.45-.14-1-.24-1.7-.24-1.73,0-2.46,1.35-2.46,3.01v.87h3.39v3.88h-3.36v13.05h-5.26Z"/>
    <path class="st19" d="M73.59,144.31c-.24.12-.74.25-1.38.25-1.47,0-2.58-.93-2.58-2.65s1.11-2.75,2.73-2.75c.64,0,1.06.14,1.24.23l-.17.55c-.25-.13-.61-.22-1.05-.22-1.23,0-2.04.79-2.04,2.16,0,1.29.74,2.1,2,2.1.42,0,.84-.09,1.11-.22l.13.54Z"/>
    <path class="st19" d="M75.1,142.71c.02.92.6,1.31,1.28,1.31.49,0,.79-.09,1.04-.19l.12.48c-.24.11-.66.24-1.26.24-1.15,0-1.85-.77-1.85-1.89s.68-2.03,1.77-2.03c1.23,0,1.54,1.08,1.54,1.77,0,.14,0,.25-.02.33h-2.63ZM77.1,142.22c0-.43-.18-1.11-.94-1.11-.7,0-.99.64-1.05,1.11h1.99Z"/>
    <path class="st19" d="M79.05,144.48v-3.24h-.52v-.52h.52v-.18c0-.53.12-1.01.44-1.31.26-.25.6-.35.91-.35.25,0,.45.05.58.11l-.09.53c-.11-.05-.24-.09-.44-.09-.57,0-.73.51-.73,1.09v.2h.91v.52h-.9v3.24h-.68Z"/>
    <path class="st19" d="M81.97,140.03c-.26,0-.43-.2-.43-.44s.18-.43.44-.43.43.19.43.43-.17.44-.44.44h0ZM81.65,140.72h.68v3.76h-.68v-3.76Z"/>
    <path class="st19" d="M84.16,140.72l.54.8c.14.22.26.4.38.61h.02c.12-.22.25-.41.38-.61l.52-.8h.75l-1.28,1.82,1.31,1.94h-.78l-.55-.85c-.15-.22-.27-.43-.4-.65h-.02c-.12.22-.26.43-.4.65l-.54.85h-.75l1.34-1.92-1.27-1.84h.76Z"/>
    <path class="st19" d="M88.15,140.03c-.26,0-.43-.2-.43-.44s.18-.43.44-.43.43.19.43.43-.17.44-.44.44h0ZM87.83,140.72h.68v3.76h-.68v-3.76Z"/>
    <path class="st19" d="M90.02,141.73c0-.4-.02-.71-.03-1.02h.6l.03.61h.02c.21-.36.56-.69,1.19-.69.51,0,.89.31,1.06.75h.02c.12-.22.27-.37.43-.49.23-.17.46-.26.82-.26.5,0,1.24.33,1.24,1.63v2.21h-.67v-2.13c0-.73-.27-1.16-.82-1.16-.4,0-.69.29-.81.61-.03.1-.05.23-.05.34v2.33h-.67v-2.25c0-.61-.26-1.03-.79-1.03-.42,0-.74.34-.84.68-.04.1-.05.22-.05.33v2.27h-.67v-2.74Z"/>
    <path class="st19" d="M97.27,142.71c.02.92.6,1.31,1.28,1.31.49,0,.79-.09,1.04-.19l.12.48c-.24.11-.66.24-1.26.24-1.15,0-1.85-.77-1.85-1.89s.68-2.03,1.77-2.03c1.23,0,1.55,1.08,1.55,1.77,0,.14,0,.25-.02.33h-2.63ZM99.27,142.22c0-.43-.18-1.11-.94-1.11-.7,0-.99.64-1.05,1.11h1.99Z"/>
    <path class="st19" d="M109.26,112.68c1.52,0,2.74,1.24,2.74,2.76s-1.22,2.78-2.75,2.78-2.76-1.23-2.76-2.78,1.24-2.76,2.76-2.76h.01ZM109.23,113.23c-1.16,0-2.09.99-2.09,2.22s.93,2.21,2.1,2.21c1.17.01,2.11-.97,2.11-2.21s-.95-2.22-2.11-2.22h-.01ZM108.77,117.05h-.65v-3.07c.24-.04.52-.09.98-.09.53,0,.85.09,1.06.25.17.14.27.34.27.66,0,.37-.26.63-.59.71v.02c.27.05.44.3.49.75.06.48.12.66.17.76h-.68c-.07-.11-.12-.38-.18-.8-.05-.33-.25-.47-.58-.47h-.29v1.27ZM108.77,115.28h.31c.38,0,.68-.12.68-.44,0-.26-.18-.45-.63-.45-.16,0-.27,0-.36.01v.88Z"/>
  </g>
  <g>
    <text class="st7" transform="translate(66.53 229.5)"><tspan x="0" y="0">Mixif® (Cefixime) indicated in the treatment of the following infections caused by susceptible strains </tspan><tspan x="0" y="30">of the designated microorganisms:</tspan></text>
    <text class="st7" transform="translate(453.7 251.17) scale(.58)"><tspan x="0" y="0">1 </tspan></text>
  </g>
  <g>
    <text class="st6" transform="translate(86.53 311.35)"><tspan class="st12" x="0" y="0">Cefixime has approximately </tspan><tspan class="st10" x="315.03" y="0">50%</tspan><tspan class="st12" x="374.72" y="0" xml:space="preserve"> of the absorbed dose is excreted unchanged in the urine in 24 hours</tspan></text>
    <text class="st7" transform="translate(1217.63 303.02) scale(.58)"><tspan x="0" y="0">2</tspan></text>
    <text class="st7" transform="translate(1225.72 311.35)"><tspan x="0" y="0"> </tspan></text>
  </g>
  <circle class="st1" cx="75.36" cy="299.21" r="8.16"/>
  <g>
    <g>
      <rect class="st14" x="693.46" y="412.15" width="375.23" height="119.72" rx="15.08" ry="15.08"/>
      <g>
        <path class="st1" d="M860.93,411.1l23.8-21.47c.14-.13.31-.19.49-.19s.35.06.49.19l23.8,21.47"/>
        <path class="st1" d="M908.98,412.47c-.12-.03-.22-.09-.31-.17l-23.45-21.15-23.45,21.15c-.09.08-.2.14-.31.17"/>
      </g>
    </g>
    <g>
      <text class="st4" transform="translate(722.56 448.72)"><tspan x="0" y="0">Escherichia coli</tspan></text>
      <text class="st4" transform="translate(873.45 440.81) scale(.58)"><tspan x="0" y="0">12,13</tspan></text>
      <text class="st4" transform="translate(722.56 477.23)"><tspan x="0" y="0">Proteus mirabilis</tspan></text>
      <text class="st4" transform="translate(887.56 469.32) scale(.58)"><tspan x="0" y="0">12,13</tspan></text>
      <text class="st4" transform="translate(722.56 505.74)"><tspan x="0" y="0">Klebsiella species</tspan></text>
      <text class="st4" transform="translate(893.38 497.83) scale(.58)"><tspan x="0" y="0">12,13</tspan></text>
    </g>
  </g>
  <text class="st3" transform="translate(831.04 377.3)"><tspan x="0" y="0">Caused by:</tspan></text>
  <g>
    <text class="st3" transform="translate(248.24 601.3)"><tspan x="0" y="0">Urinary tract</tspan></text>
    <text class="st3" transform="translate(376.48 593.74) scale(.58)"><tspan x="0" y="0">1,13</tspan></text>
  </g>
  <g>
    <path class="st23" d="M318.14,500.69c6.88-1.19,13.51-1.25,20.11-.17,1.13-1.82.92-3.75,1.12-5.57.45-3.99.8-8,1.08-12.01.38-5.47.7-10.95.97-16.42.3-5.93.1-11.85-.17-17.78-.21-4.55-.32-9.12-.08-13.66.41-7.48.32-15,1.58-22.42.8-4.69,1.84-9.33,3.53-13.8.9-2.37,1.76-4.78,2.93-7.03,2.3-4.43,5.69-7.87,10.04-10.36.55-.31,1.02-.75,1.6-1.18-.75-.8-1.44-1.36-1.9-2.07-.68-1.05-1.44-2.15-1.73-3.33-1.35-5.49-1.1-10.87,1.62-15.97,1.54-2.9,3.83-5.11,6.38-7.13,1.95-1.54,4.33-1.9,6.55-2.73.54-.2,1.18-.19,1.78-.18,2.54.03,5.08.04,7.62.19,1.24.08,2.57.23,3.67.75,3.48,1.64,6.44,4.06,9.15,6.76,1.98,1.98,3.21,4.47,4.08,7.08,1.85,5.56,2.79,11.32,2.84,17.17.04,5.04-.72,10-2.24,14.83-1.14,3.63-2.08,7.33-3.43,10.87-1.17,3.05-2.59,5.97-4.89,8.48-2.03,2.23-4.17,4.29-6.43,6.26-1.75,1.52-3.93,1.93-6.01,2.45-2.19.54-4.49.63-6.75.83-.71.06-1.52,0-2.14-.29-2.98-1.38-6.01-2.88-8.11-5.42-2.43-2.95-4.48-6.27-4.16-10.36.13-1.71.72-3.38,1.1-5.05-.97.1-1.6.54-1.82,1.72-.12.63-.76,1.18-1.19,1.75-1.76,2.38-2.34,5.28-3.02,8.01-1.47,5.95-1.98,12.06-1.91,18.21.04,3.01-.19,6.02-.22,9.03-.03,3.19.05,6.38.03,9.58,0,2.61-.13,5.21-.11,7.82.02,3.28.22,6.57.17,9.85-.05,3.79-.06,7.61-.51,11.37-.79,6.61-1.89,13.19-2.9,19.78-.18,1.15-.58,2.27-.84,3.27.26.3.33.44.43.49,2.11.9,3.19,2.8,4.44,4.53.7.97,1.39,1.95,2.15,2.86,1.47,1.75,1.95,3.82,2.01,6.02.05,1.72.22,3.48-.03,5.17-.4,2.66-.95,5.32-1.73,7.89-.78,2.55-1.78,5.06-2.93,7.46-1.78,3.72-3.67,7.41-5.72,10.98-1.83,3.18-3.98,6.16-6.86,8.54-1.16.95-2.19,2.05-3.42,3.2-.1,2.03-.29,4.36-.32,6.69-.03,2.76-1.88,4.31-3.75,5.82-.42.34-1.34.3-1.94.12-1.56-.46-2.92-1.25-3.52-2.94-.78-2.18-1.12-4.4-1.03-6.71.04-1.13,0-2.26,0-3.48-3.04-.64-5.4-2.46-7.45-4.54-1.71-1.73-3.06-3.84-4.43-5.88-2.84-4.24-5.09-8.8-6.95-13.54-.66-1.68-1.44-3.32-2.15-4.98-1.57-3.67-1.57-7.52-1.5-11.42.08-4.58,1.82-8.48,4.56-11.94,1.39-1.75,3.28-3.1,5.11-4.79-.27-3.83-.51-7.96-.85-12.08-.16-1.93-.6-3.83-.72-5.76-.22-3.72-.39-7.46-.42-11.19-.08-7.89-.11-15.79-.04-23.69.03-3.6.59-7.17.4-10.79-.33-6.54-.4-13.09-.72-19.63-.11-2.26-.66-4.5-.99-6.75-.22-1.52-.25-3.07-.6-4.56-.71-3.06-2.77-5.18-5.45-7.21.3,1.27.6,2.21.74,3.18.51,3.45.24,6.76-1.71,9.8-.65,1.01-1.05,2.19-1.79,3.11-2.44,3.08-5.39,5.42-9.33,6.39-1.02.25-1.85.06-2.72-.22-2.55-.8-5.13-1.53-7.6-2.52-3.78-1.5-7.1-3.75-9.54-7.06-2.17-2.95-4.09-5.99-5.07-9.65-1.25-4.67-2.14-9.39-2.53-14.17-.25-3.05.22-6.15.28-9.23.12-5.92,2.25-11.21,4.98-16.32,1.8-3.36,3.55-6.78,6.32-9.46,2.59-2.51,5.47-4.71,8.98-5.88,1.83-.6,3.62-1.36,5.49-1.8,1.11-.26,2.39-.26,3.5.02,1.61.39,3.13,1.13,4.69,1.73.56.22,1.07.56,1.64.72,1.66.48,3.03,1.34,4.13,2.7.45.56,1.11.94,1.37,1.16.48,1.06.72,1.86,1.17,2.52,1.34,1.91,2.23,4.05,2.37,6.31.11,1.75-.36,3.57-.76,5.32-.42,1.82-.84,3.7-1.66,5.35-.84,1.69-1.42,3.58-2.82,4.97-.18.18-.24.47-.24.47,1.58,1.7,3.15,3.23,4.53,4.91,1.48,1.8,2.95,3.64,4.12,5.64,1.62,2.76,3.18,5.59,4.35,8.56.93,2.36,1.34,4.96,1.77,7.48.48,2.81.93,5.66,1.03,8.51.18,5.2.12,10.41.09,15.62-.02,3.18-.23,6.36-.26,9.55-.07,10.82-.12,21.65-.12,32.47,0,2.98.22,5.97.35,8.95.18,4.34.31,8.69.56,13.03.13,2.19.47,4.37.74,6.8ZM271.32,380.12c-.09.67-.17,1.33-.26,2-.75-.61-.59-2.01-2.15-2.31.16,1.18-.03,2.43.49,3.17,1.22,1.75,1.98,3.69,2.91,5.57-1.2-1.62-2.41-3.23-3.53-4.74-.34,1.31-.36,1.32.32,2.5,1.18,2.04,2.38,4.08,3.58,6.12-.49-.42-1.06-.79-1.44-1.29-.75-.97-1.39-2.03-2.1-3.07-1.05,1.25-1.16,1.42-.51,2.33,1.27,1.76,2.62,3.46,3.98,5.15.15.18.58.14.88.2.19.57.37,1.14.56,1.71-.32-.07-.64-.14-.96-.2-.31-.73-.48-1.68-1.66-1.09-.13-1.69-.47-2.03-1.8-1.8.73-1.68-1-2.12-1.56-3.14-.03,1.33.68,2.27,1.62,3.08.24.51.47,1.02.71,1.53.25.54.65.5,1.1.27-.02.88.07,1.7,1.06,2.13.21-.38.39-.73.58-1.07-.06.52-.15,1.04-.17,1.56-.02.62.25,1.01.93.97.38.59.7,1.24,1.15,1.77.7.84,1.49,1.6,2.25,2.39-.09.09-.18.19-.27.28-1.37-1.3-2.74-2.59-4.11-3.89-.33.22-.64.43-.94.63.93-1.36-.33-2.28-.69-3.37-.57-.48-1.14-.96-1.83-1.55-.32,1.24.37,1.75.92,2.4.36-.34.64-.6.91-.86-.82,1.34.16,2.32.69,3.39.24.3.48.61.72.91-.36.23-.72.45-1.09.68.48-1.02.1-1.66-.84-2.11-.77,1.22.84,1.3.85,2.11.19.1.37.25.57.3.3.08.61.11.92.16-.28.86.25,1.31.81,1.83,1.1,1,2.14,2.06,3.2,3.1-.6-.41-1.2-.81-1.81-1.21-.82-.66-1.64-1.32-2.47-1.98-.25.47-.44.81-.62,1.15.05-.39.11-.78.15-1.17.06-.71-.33-.92-.97-.84.05-.79-.24-1.35-1.08-1.66-.44,1-.36,1.84.45,2.64.27-.4.48-.72.69-1.04-.03.52-.09,1.05-.1,1.57,0,.76.43.67.91.44.1.51.2,1.02.31,1.54q-1.2,1.13.27,2.13c1.1-.91-.41-1.43-.33-2.19,1.6.65,1.74.62,2.77-.61-.19.65-.37,1.31-.57,2,.82.71,1.66,1.41,2.47,2.15.17.15.21.45.3.68-.31.19-.61.37-.92.56.07-.96-.5-1.42-1.32-1.73-.66.62-.48,1.11.07,1.68.5.51.87.36,1.31-.02.29.66.59,1.33.88,1.99-.32.08-.63.15-.95.23-.03.14-.05.27-.08.41,1.63.71,2.85,2.19,5.06,2.49-.72-.68-1.21-1.15-1.71-1.62.54.11,1.07.22,1.67.35.32-.66.7-1.23-.42-1.63-.49-.18-.85-.74-1.27-1.13.53.17,1.05.38,1.59.51.33.08.69.02,1.03.02.17.32.34.64.51.97.13.24.25.49.38.73l.04-.05c-.31-.08-.61-.17-1.03-.28-.06.61-.11,1.11-.16,1.55.83.43,1.52.79,2.21,1.15-.92.26-1.52-.75-2.74-.09.96.48,1.68.85,2.4,1.21-.15.5-.28.96-.48,1.64,1.54.34,2.95.65,4.38.97.35-.58.67-1.12.98-1.64.43.14.79.25,1.19.37.17-.64.3-1.16.44-1.69.14-.03.29-.07.43-.1.34.6.68,1.2,1.12,1.99.13-.75.23-1.33.37-2.17.38.57.58.87.79,1.19.32-.25.6-.47.94-.74-.29-.67-.57-1.31-.85-1.96h0c1.2-.06.74,1.48,1.69,1.72.41-.84.83-1.6-.2-2.41-.24-.19-.04-.94-.04-1.44.05,0,.1.01.15.02.12.46.24.92.35,1.38.12,0,.24,0,.35,0,.21-.71.42-1.41.64-2.12.35.31.35.55.39.8.04.3.1.59.17,1.01,1.39-1.9,1.37-2.46-.12-3.06.28-.86.56-1.73.85-2.61.13.78-.34,1.71.71,2.42.27-2.31,1.26-4.42.56-6.91-.73.71-.25,2.09-1.8,1.76.89,1,1.23,1.84.48,2.79v-1.68c-.6-.04-.95-.06-1.23-.07-.53-1.72,1.47-2.09,1.49-3.58.02-1.36-.57-2.44-.67-3.76-.61.4-1.04.68-1.48.96-.17-.18-.3-.26-.33-.37-.07-.25-.17-.53-.13-.77.5-3.14.26-6.16-1.35-8.99-.62-1.09.25-2.35-.35-3.47-.05-.09.26-.48.48-.59,2.39-1.25,2.72-3.71,3.24-5.92.31-1.31.06-2.77-.09-4.15-.11-1.06-.84-1.71-1.93-1.96.17-.5.31-.95.48-1.47,1.26.71,2.48,1.39,3.9,2.18.18-1.67,1.98-2.48,2.17-4.33.16-1.63.52-3.31,1.14-4.82.69-1.7.39-3.27.14-4.95-.58.46.24,1.48-.81,1.64l.04.04c-.12-.84-.25-1.68-.37-2.52-.1.02-.2.04-.3.06-.43,1.36-.86,2.72-1.3,4.08l.04.05c.16-1.32.08-2.74.54-3.95.82-2.19-.58-3.2-1.84-4.62-.98,1.49-.28,3.08-.85,4.38-.2-2.07-.4-4.15-.61-6.39-.69.35-1.18.59-1.7.85-.41-.39-.84-.79-1.32-1.25.66-.61.83-1.31-.02-1.77-.72-.4-1.39-.19-1.61.97-.5-.75-.89-1.33-1.39-2.07-.9,1.55.16,3.19-.82,4.54-.1-1.34-.2-2.6-.3-3.9-1.12-.19-1.64.44-2,1.51-.25-.88-.41-1.46-.57-2.03-.1.02-.2.04-.29.06-.05.76-.1,1.51-.15,2.27-.09,0-.18.02-.28.03-.13-.94-.26-1.88-.42-3.07-1.52,1.03-.38,2.8-1.46,3.65-.06-.39-.14-.82-.21-1.25-.12,0-.23-.02-.35-.03-.18.94-.35,1.87-.53,2.81-.11-.01-.22-.03-.32-.04v-3.63c-1.11-.14-1.28.76-1.45,1.61-.32,1.62-1.2,3.14-.86,4.9.07.37-.25.81-.54,1.65v-7.91c-2.47,1.5-1.29,3.9-1.89,6.27-.23-1.61-.39-2.75-.59-4.22-1.8,1.79-.57,3.9-1.33,5.77-.08-1.35-.15-2.52-.23-3.8-1.21.4-1.53,1.22-1.52,2.21.02,1.33.1,2.66.16,3.99l.04-.03c-.79-.33-.7-1.04-.71-1.7-.01-.7,0-1.4,0-2.42-.49.43-.77.59-.94.84-1.52,2.16-3.05,4.33-4.52,6.53-.22.34-.31.91-.19,1.29.12.4.56.71.88,1.07q-.47,1.82.87,2.66c-.03.14-.06.28-.09.43,0,.8-.02,1.61-.05,2.43h.03c-.84.56-.82-.59-1.63-1.09.55,1.89.9,3.34,1.39,4.75.66,1.89,1.41,3.74,2.13,5.61-.27-.14-.53-.28-1.12-.59.36.84.59,1.36.82,1.89-1.04-.58-1.35-1.59-1.58-2.65.23.05.47.09.77.16-.15-.71-.3-1.4-.44-2.09-.3-.4-.61-.79-.96-1.25-.32,1,.11,1.29.96,1.25ZM336.67,503.22c-.7.37-1.4.74-2.1,1.11-1.22.53-2.44,1.06-3.66,1.58-.04-.08-.07-.16-.11-.24,2.11-1.26,4.21-2.53,6.65-3.99-1.79-.38-2.91.04-4.02.74-.76.47-1.62.78-2.44,1.16l.04.04c1-.77,2-1.54,3.03-2.33-.92-.19-1.79-.55-2.63-.5-.83.05-1.64.52-2.62.87.17-.49.25-.69.35-.99-2.5.2-4.15,2.11-6.4,2.63.86-.65,1.72-1.3,2.59-1.96-.07-.13-.14-.27-.21-.4-.84.33-1.7.63-2.53,1.01-.84.38-1.65.85-2.47,1.27q-.63-1-1.4-.5c.22.16.43.31.64.46-.72.24-1.43.48-2.15.71-.04-.24-.08-.46-.15-.85-1.87.91-3.8,1.54-5.16,3.2-.67.82-1.32,1.88-2.21,2.22-1,.38-1.54,2.11-3.04,1.2-.08-.05-.39.31-.6.47-1.34,1.1-1.83,3.01-1.2,4.98-1.52-.28-1.21.73-1.21,1.63.33-.18.61-.33,1.01-.55.03,1.4.09,2.58-.73,3.63-.21.27-.16.75-.24,1.13-.62-.19-.83.13-.9.68-.11.86.22,1.76-.73,2.5-.41.32-.3,1.37.59,1.72-.38.9-.55,1.73,1.12,2.31-.5-1.01-.82-1.65-1.14-2.3.02-.33-.03-.69.07-.99.1-.31.46-.55.51-.86.19-1.03.29-2.07.42-3.11.22-.11.59-.18.64-.34.68-2.1,1.77-3.88,3.71-5.05.12-.07.15-.29.23-.45-.25-.1-.43-.18-.61-.25l.04.04c2.04-.96,4-2.14,6.12-2.82,2.71-.86,5.55-1.33,8.34-1.93.48-.1,1.01-.01,1.81-.01-.54.27-.79.4-1.34.68.94.17,1.62.44,2.28.4,2.18-.14,4.34-.49,6.52-.57,1.24-.05,2.5.24,3.75.44.85.13,1.68.46,2.53.54,3.58.36,6.84,1.62,9.92,3.41.18.08.36.16.54.24.42.29.82.62,1.27.86.08.04.34-.26.52-.4,1.69-.43,1.36,1.44,2.32,2.04-.07-.41-.14-.73-.19-1.05-.35-2.11-1.37-4-2.42-5.77-1.27-2.14-3.19-3.68-5.96-3.77.02-.2.05-.5.08-.86-.38-.1-.75-.2-1.11-.3l.04.04c1.53-1.93,2.39.59,3.63.55-1.67-2.21-2.01-2.35-4.33-1.43-.94.37-1.8.95-2.73,1.46-.17-.4-.39-.9-.61-1.4.89-.62,2.12-.74,2.49-1.99-.83.22-1.59.56-2.32.96-.73.41-1.43.88-2.14,1.32-.06-.12-.12-.23-.19-.35,1.14-.8,2.27-1.6,3.41-2.39-.06-.1-.11-.19-.17-.29-.51.11-1.01.23-1.52.34.11-.23.21-.46.42-.91-.86.37-1.69.36-1.97,1.3ZM365.46,388.11l-.05-.04c.15.41.52,1.11.42,1.18-.86.63-.21,1.11.07,1.65.21.4.36.82.53,1.23l.04-.04c-.76-.61-1.52-1.23-2.36-1.9-.04.43-.08.79-.12,1.16l.04-.04c-.41-.05-.83-.11-1.24-.16,0,.37-.03.75.04,1.11.07.37.24.72.37,1.08l.04-.03c-.47-.36-.93-.73-1.4-1.09.63,2.76,2.41,4.92,3.33,7.35-.91-.79-1.88-1.63-2.85-2.48.11-1.17.13-2.31-1.23-3.03-.4,1.42.37,2.23,1.27,2.98,1.17,2.1,2.34,4.2,3.58,6.41-1.41.25-1.23,1.04-.65,1.96-1.1-.46-1.7-2-3.26-1.61,0,.49,0,.87,0,1.24-.85-.22-1.05.09-.71.86-.14.17-.43.44-.4.5.63.95,1.3,1.87,1.96,2.8.11-.07.22-.14.33-.22-.36-.76-.72-1.52-1.08-2.28.23.2.45.39.68.59.06-.06.13-.12.19-.17-.35-.71-.69-1.43-1.04-2.14,1.18.59,1.8,1.58,2.02,2.86-.55,0-.75.31-.46.75.45.7.97,1.34,1.54,2.11.25-.42.41-.68.56-.94-.25.78.05,1.33.53,1.98.7.95,1.89,1.27,2.54,2.23.37.55.77,1.29,1.31,1.47,1.04.35,1.68,1.01,2.25,2.14-.03-1.26.07-1.36-1.42-2.93-1.63-1.72-3.48-3.24-5.23-4.84-.57-.68-1.14-1.36-1.71-2.04.45.24.96.4,1.32.72,1.79,1.59,3.54,3.23,5.29,4.86.55.52,1.09,1.02,1.83.76-.4-.7-.8-1.4-1.21-2.11,2.13,1.87,4.27,3.75,6.38,5.61.09-.16.24-.41.43-.75.57,1.66,1.11,3.2,1.64,4.74.1-.04.2-.08.31-.12-.62-2.39-1.23-4.78-1.85-7.17h1.08c-.34-.83-.62-1.51-.9-2.19h-.02c.87-.06,1.34.53,1.83,1.1-.24.13-.69.28-.68.37.09.67.27,1.34.43,2,.13-.02.25-.05.38-.07-.06-.78-.11-1.56-.17-2.34.36.11.72.21,1.11.33.93,1.99.19,4.48,1.87,6.31-.15-.29-.3-.57-.45-.86h-.02c.49.05.99.1,1.59.16-.41-1.85-.81-3.67-1.21-5.49,1.33,1.37.67,3.53,2.62,4.91-.38-1.35-.69-2.41-.97-3.49-.54-2.05-.55-2.25-.15-3.01.57,2.95.98,3.98,2.09,5.16-.2-2.1-1.6-3.82-1.37-5.91.48,1.27.96,2.53,1.44,3.8.15-.03.3-.07.45-.1-.06-.68-.12-1.37-.18-2.05.58.07,1.16.13,1.73.2-.27.49-1.26.79-.33,1.82.13-.75.23-1.29.32-1.83-.88-.77-.31-2.37-1.67-2.97v2.82c-.23-.74-.71-1.51-.65-2.23.18-2.1-1.06-3.56-2.14-5.01-1.66-2.25-2.69-4.79-3.89-7.26-.25-.51-.4-1.05-.75-1.97.72.59,1.1.89,1.48,1.2.19,2.01,1.63,3.41,2.52,5.08.06.11.48.03.74.04.16,1.34,2.05,5.17,3.05,6.17.1-.63.2-1.24.3-1.85.36.62.28,1.26.49,1.79.45,1.16,1.04,2.25.78,3.58-.05.25.33.58.52.88.14-.03.28-.07.42-.1-.06-.61-.15-1.22-.19-1.84-.08-1.52-.14-3.04-.21-4.56.36.51.72,1.02,1.08,1.54.15-.11.29-.21.44-.32.03-.57.05-1.15.09-1.72.04-.51.1-1.02.15-1.53.06,0,.12,0,.17.01.08.7.17,1.4.25,2.11.46-.41.78-.93.67-1.34-.31-1.2-.8-2.35-1.21-3.52.2.14.41.28.68.47.25-.89.46-1.65.72-2.59.37,1.57-.14,3.03.69,4.32.29-.89,1.71-1.6.35-2.69-.11-.08-.02-.48.06-.71.42-1.22-.24-1.85-1.27-2.4-.39.46-.77.91-1.15,1.36.41-1.11.96-2.21.31-3.41.22.14.45.27.85.51.4-.91.77-1.75,1.15-2.59.14.06.28.11.42.17-.14.44-.24.91-.43,1.33-.21.49-.57.92-.73,1.41-.18.53-.11,1.03.72,1.03.07-.4.15-.8.23-1.25.21.52.38.96.71,1.8,1.47-4,2.66-7.6,3.36-11.35-.12-.04-.25-.08-.37-.12-.38,1.27-.76,2.53-1.14,3.8-.23-.41-.17-.72-.1-1.04.43-2.15,1.29-4.23,1.01-6.49,1.27-2.81,1.28-5.76,1.06-8.74-.44,2.27-.8,4.54-1.09,6.83-.08.64.05,1.31.08,1.96-.4.46-.8.93-1.21,1.41.03-1.16.72-2.4-.14-3.54.25.02.51.04.8.06.23-3.49,1.61-6.94-.38-10.17-.25,2.06-.55,4.14-.74,6.23-.09,1.04,0,2.09.01,3.14-.28-.19-.68-.33-.82-.59-.23-.44-.29-.97-.42-1.46.99-.95,1.23-3.16.51-4.76.65,0,.77-.49.72-.95-.12-1.17-.31-2.34-.48-3.51-.65,1.54-1.27,3.04-.18,4.51-1.28,0-.78,1.18-1.17,1.76-.65-.96.76-2.38-.72-3.27-.41.67-.77,1.26-1.13,1.86.25-.88.37-1.82.78-2.62,1.06-2.04.26-3.61-1.07-5.1.06-.41.26-.86.16-1.22-.43-1.46-.96-2.89-1.45-4.33-.3-.89-.8-1.61-2-2.34.4.97.52,1.65.9,2.12.58.71.53,1.42.37,2.2-.83-1.38-1.65-2.75-2.47-4.13-.06-.1-.02-.26-.03-.39.09-.07.27-.16.26-.19-.41-1.41-1.2-2.55-2.53-3.35.51.96,1.02,1.91,1.53,2.87-.13.12-.37.26-.36.36.16,1.17.45,2.26,1.33,3.18.65.69,1.06,1.61,1.57,2.43-.87-.8-1.74-1.61-2.61-2.41.07-1.03-.63-1.38-1.18-1.49.12-.7.44-1.34.28-1.84-.36-1.17-.91-2.3-1.47-3.4-.31-.61-.81-1.12-1.22-1.68-.1.06-.2.11-.3.17.26.99.53,1.97.88,3.3-.77-.63-1.25-1.02-1.74-1.42.18-.07.51-.18.51-.22-.13-.62-.17-1.32-.49-1.83-.37-.58-1.05-.6-1.88-.26.71.88,1.32,1.63,1.93,2.38-.25-.01-.51-.03-.84-.04v1.91c-.92-1.24-.36-3.5-2.97-3.52.09,1.05.18,2.06.26,3.07-.11.02-.23.04-.34.06-.23-1.06-.47-2.11-.72-3.24h-1.59c.13,1.19.25,2.22.36,3.24-.51-.7-.65-1.47-.86-2.22-.2-.73-.32-1.65-1.5-1.21,0,.59.02,1.12,0,1.64-.02.52-.07,1.03-.14,1.95q-.72-3.47-1.59-3.64c-1.29,1.61-.13,3.48-.81,5.38-.48-.67-.97-1.35-1.49-2.08-.31.48-.43.66-.56.87-.36-.57.06-1.5-1.25-1.66.14,2.17-.02,4.26.99,6.54-.82-.72-1.35-1.2-1.92-1.7-.27.3-.47.53-.64.71-1.63-.57.12-2.44-1.26-3.17-1.59,2.04.24,4.26-.43,6.73-.21-1.08-.34-1.79-.49-2.49-.15-.69.13-1.59-.88-2.02-.6.94-.19,1.81-.17,2.64.02.86.13,1.72.19,2.58l.04-.04c-.29-.04-.58-.09-1.23-.19.81,1.9.49,3.61.25,5.32l.03-.06c-.15-.37-.3-.73-.45-1.11-.34.29-.66.56-.99.84,1.3,1.08,1.29,1.08.47,2.45-.09.15-.02.39-.03.58-.44-.92-.89-1.84-1.33-2.77-.12.05-.23.11-.35.16.75,2.25,1.5,4.5,2.29,6.85.76-.58.57-1.06.22-1.74-.42-.79-.59-1.7-.87-2.57.87.65.61,2.19,1.99,2.58.06-.52.1-.94.16-1.46.63.74,1.17,1.31,1.6,1.94.14.21.14.75-.01.86-.2.15-.6.04-.77.04-1.19,1.67-.15,2.83.88,3.99.56.64,1.12,1.27,1.87,2.12-1.89-.26-2.42-1.84-3.66-2.7-1.06,1.96,1.32,2.35,1.56,3.72-.43-.16-.76-.28-1.14-.42.73,1.19,1.41,2.3,2.09,3.4-.05.19-.1.39-.15.58-.53-.48-1.06-.96-1.61-1.47.32,1.82.5,1.97,1.82,1.56ZM352.84,390.58c.23.32.47.64.7.96.08.16.27.35.23.48-.23.88-.51,1.74-.76,2.61-.28.98-.55,1.97-.82,2.95l.03.05q.23-1.25-.2-2.37c-.33.58-.63,1.13-.94,1.67l.04.03c.06-.59.07-1.19.18-1.77.1-.53,1.05-.88.2-1.77-.29.69-.55,1.28-.77,1.88-.3.81-.53,1.65-.86,2.44-.5,1.21-1.15,2.36-1.55,3.59-.45,1.38-.75,2.83-1,4.26-.08.45-.7,1.3.48,1.39-.07.29-.13.83-.2.83-1.04.02-.85.85-.99,1.44-.19.77-.11,1.78-.58,2.26-.91.91-.85,2.05-1.24,3.08-.13.34-.21.69-.4,1.34-.98-1.4-.21-2.74-.64-3.87.58.51,1,.27,1.14-.36.11-.49.06-1.04.03-1.56-.08-1.46.1-2.85.93-4.09v-2.4c-.59,1.09-.81,1.8.05,2.41-.73-.25-.99.28-1.1.78-.38,1.75-.68,3.51-1.02,5.26-.47,3.75-.97,7.49-1.37,11.25-.11,1.03.08,2.1.13,3.15l-.02-.05c.03.33.1.66.09.99-.1,2.79-.31,5.57-.31,8.35,0,1.98.32,3.96.44,5.95.06,1-.01,2,.02,3,.26,7.45.61,14.89-.39,22.33-.33,2.43-.27,4.9-.38,7.36,0,.12.13.25.44.81.47-3.62.87-6.77,1.28-9.91,0,2.81-.28,5.59-.53,8.37-.35,3.9-1.24,7.72-1.4,11.65-.09,2.19-.57,4.35-.82,6.53-.1.9.07,1.84-.09,2.72-.29,1.55-.35,1.53.13,2.91,1.21-.36,1.18-1.51,1.61-2.42v3.93c-.4.08-.77.15-1.16.23.02.25.09.46.04.64-.19.83.63.84.96,1.24-.03-.68.87-.56,1-1.35.28-1.71,1-3.34,1.42-5.03.4-1.61.81-3.25.91-4.89.07-1.18.04-2.31.35-3.49.23-.86.93-1.9.02-2.84.36-1.91-.74-4.14,1.28-5.72.28-.22.24-.84.37-1.35-.4.14-.68.24-.98.35-.18-2.07-.17-2.13.5-3.15.11.31.21.59.37,1.03.06-.32.12-.49.13-.66.04-1.07,0-2.15.14-3.21.12-.85.66-1.67.69-2.51.07-2.2-.04-4.41-.1-6.62,0-.08-.17-.17-.35-.33,0,.24.02.4,0,.56-.03.2-.08.4-.16.81-.82-1.6-.87-2.59-.26-4.24.14.58.24,1.02.34,1.45.3-1.75.48-3.51.38-5.26-.07-1.26-.47-2.48.26-3.68.1-.16-.04-.48-.1-.72-.12-.5-.46-1.05-.35-1.48.37-1.46-.94-3.06.41-4.42.12-.12-.04-.51-.04-.78,0-.7.04-1.4-.04-2.09-.02-.2-.43-.35-.81-.63.89-.37,1-1,.97-1.91-.12-3.72-.06-7.45-.1-11.17-.04-3,.53-5.93,1.13-8.84.69-3.39,1.53-6.74,2.29-10.12.01-.06-.11-.15-.16-.23-.23.18-.43.35-.92.75,1.55-4.4,4.6-7.68,5.61-11.89-.5-.36-.97-.71-1.42-1.06.52-1.16,2.04-1.83,1.85-3.52-1.53,1.02-1.6,1.15-1.84,3.52-.35.47-.7.94-1.06,1.4h0c.18-1.54-.04-3.13.67-4.6.05-.11.02-.26.04-.4q.14-1.27-1.34-1.33c.7-.5,1.78-.55,1.97-1.65-.43-.56-.73.89-1.28.1-.05-.08-.9.39-1.37.63.29.83-1.12,1.44-.33,2.45.56-.85.75-1.62.3-2.47ZM368.12,415.98c-.21-.1-.43-.19-.7-.31.49,1.93.66,2.18,2.33,3.06-.7-1.17-1.19-1.98-1.67-2.79q.39-1.22-1.14-2c.42.73.81,1.38,1.19,2.04ZM304.44,388.14c-.6,1.69.4,2.77,1.55,3.79-.11-.69-.32-1.36-.61-1.98-.3-.64-.67-1.25-1.01-1.88.19.26.38.52.56.79.18.03.48-.01.53.09,1.13,1.94,2.23,3.9,3.33,5.85-.58-.66-1.16-1.31-1.74-1.97-.09.04-.17.08-.26.13.38,1.08.77,2.15,1.27,3.56-.96-.75-1.61-1.26-2.28-1.78.24,1.28.47,2.56.78,4.23-1.58-2.51-1.07-5.47-3.23-7.28-.05.61.09,1.16.27,1.69.1.31.44.64.37.88-.45,1.61.47,3.01.62,4.51-.58-.15-.61-1.32-1.67-.78.46,1.34,1.09,2.51,2.38,3.24-.03-.47-.2-.87-.35-1.28-.15-.4-.27-.81-.41-1.22.98-.01.78.9,1.08,1.41.34.57.5,1.31.96,1.74.76.73-.41,1.43.02,1.88.93.97-.25.9-.51,1.28.05.12.07.29.16.35.92.63,1.46,1.28,1.25,2.6-.13.8.55,1.72.86,2.6.33.93.85,1.85.93,2.81.21,2.46.24,4.93.31,7.4.05,1.8,0,3.6.04,5.4.09,5.27.4,10.54.23,15.79-.13,3.99.36,7.98-.19,11.98-.3,2.21.02,4.51.07,6.77.11,4.19.22,8.38.36,12.58.04,1.14.27,2.26.3,3.4.07,2.55-.38,5.14.66,7.61.14.34.01.79.02,1.19.03.92,0,1.86.12,2.77.4,2.97.84,5.94,1.3,8.9.07.46.27.9.41,1.35.08-.03.16-.05.24-.08-.26-2.5-.51-5-.77-7.5.1-.01.2-.02.31-.04.24,1.36.48,2.71.72,4.07.1-.02.2-.03.3-.05-.15-1.5-.29-3-.44-4.5,1.31,2.35.45,5.17,1.82,7.5-.02-1.27-.12-2.53-.27-3.78-.13-1.15-.71-2.27-.24-3.87.34,1.2.56,1.98.79,2.75-.06-1.22-.37-2.4.07-3.65.14.38.28.75.41,1.13-.18-1.76.23-3.56-.67-5.22-.24-.43-.04-1.12,0-1.68.06-.91.16-1.82.23-2.73.19-2.52-.89-5.02-.05-7.55.05-.15.02-.4-.08-.51-.93-1.02-.48-2.18-.1-3.15.43-1.11.54-2.16.46-3.31-.07-1.13,0-2.27-.03-3.41-.08-3.99-.3-7.98-.22-11.96.03-1.54-1.13-2.76-.73-4.31.18-.69.42-1.47.26-2.12-.54-2.24-.3-4.45-.03-6.88.22.28.32.41.42.54.04.05.08.11.13.15.02.01.08-.04.13-.06v-4.58c-.05,0-.1,0-.15,0-.09.56-.18,1.12-.27,1.68-.34-.6-.36-1.17-.33-1.74.15-3.47.38-6.94.44-10.42.04-2.31-.33-4.63-.19-6.93.13-2.11-.38-4.08-.69-6.11-.26-1.65-.57-3.3-.85-4.95h0c-.28-1.42-.55-2.84-.89-4.58-.19.51-.28.74-.37.97-.83-2-.36-4.15-2-5.67-.18.37-.31.63-.6,1.22-.42-1.05-.7-1.77-.98-2.49.23.16.46.33,1,.71-.68-2.74-2.18-4.6-3.58-6.49-.16-.22-.82-.08-1.23-.11.38-1.54.36-1.58-1.12-2.2.19.46.4.98.61,1.49ZM365.89,415.37c-.18.06-.52.15-.52.17.26,1.27.54,2.53,1.65,3.66.35-1.68-.77-2.66-1.18-3.88.42-1.16-.01-1.94-1.32-2.32.46.79.91,1.58,1.37,2.37ZM265.93,376.8c-.11-.33-.22-.65-.39-1.16-.16.46-.26.75-.38,1.11h.84c-.29,1.8.07,3.46,1,5.22.84-1.23.42-2.2-.02-3.15-.32-.69-.69-1.35-1.05-2.02ZM395.11,397.87c.3-.18.77-.29.88-.55,1.04-2.52,1.82-5.11,1.96-7.87-.93,2.81-1.87,5.63-2.78,8.47-.36.99-.72,1.98-1.08,2.97,1.08-.81,1.52-1.79,1.03-3.01ZM267.02,385.8c.14.7-.21,1.52.7,2.09v-3.09c-.39.56-.57.81-.74,1.06.24-1.84-.16-3.47-1.61-4.74-.09-.56-.19-1.12-.28-1.68-.34.86-.36,1.69-.31,2.52,0,.08.41.14.63.21-1.03,1.69,1.12,2.59.8,4.26.42-.32.61-.47.81-.63ZM302.31,396.04c.36.28.71.57,1.07.85-.41-1.17.48-2.7-1.2-3.45.08.44.13.68.18.93-.96-.31-.64-1.22-.87-1.87-.32-.91-.78-1.16-1.64-.37.84,1.02,1.76,1.94,1.35,3.48-.13.48.56,1.18.87,1.77.11-.03.21-.06.32-.09-.02-.42-.05-.84-.07-1.26ZM318.93,556.74c-.22-.47-.34-1.02-.67-1.4-.92-1.06-1.89-2.07-2.89-3.05-.44-.43-1-.74-1.5-1.11.91,1.68,1.96,3.2,3.18,4.58.44.49,1.27.63,1.92.94,2.39,2.6,5.33,3.6,8.81,3.03-1.42-.57-2.95-.79-4.41-1.24-1.52-.47-2.97-1.15-4.45-1.74ZM393.72,367.05c.11-.2.35-.45.29-.58-.94-2.35-1.89-4.69-2.89-7.01-.09-.22-.48-.31-1.16-.71,1.15,2.97,1.42,5.77,3.3,7.95-.21.1-.61.25-.6.28.23.73.51,1.45.78,2.17.14-.03.29-.06.43-.08-.05-.67-.1-1.34-.14-2.02ZM330.13,558.71c.68-.14,1.96-.05,2.72-.63,1.79-1.38,3.35-3.06,4.94-4.68.49-.5.66-1.36,1.19-1.78.65-.52,1.15-.95,1.33-1.85.09-.43,1.01-.63,1.36-1.09,1.03-1.38,2.08-2.78,2.92-4.29,1.6-2.87,3.07-5.81,4.59-8.72.12-.24.22-.49.29-.75.67-2.45,1.38-4.89,2-7.36.77-3.06.67-4.13-.44-7.21-.11-.31-.28-.61-.48-.87-1.55-1.96-3.48-3.39-5.68-4.59-2.21-1.2-4.64-1.62-6.98-2.3-2.69-.78-5.47-1.33-8.32-1-.92.11-1.83.3-2.75.46-2.28.4-4.57.27-6.89.84-3.45.84-6.81,1.78-9.98,3.38-2.18,1.1-3.71,2.9-4.68,5.05-1.17,2.61-.8,5.45-.41,8.16.38,2.61,1.78,4.95,2.59,7.44,1.08,3.3,2.83,6.17,4.6,9.08,1.81,2.96,3.73,5.87,6.25,8.27,1.68,1.6,3.52,3.19,5.88,3.71,1.82.4,3.7.47,5.93.74ZM324.34,560.72c-.02,2.33-.16,4.39.12,6.53.28,2.24,1.54,3.55,3.05,4.83.86.73,1.3.6,2.22-.18,1.51-1.28,2.47-2.88,2.63-4.81.16-1.96.03-3.95.03-6.01-.4.06-.83.13-1.41.22,0,1.05,0,2.03,0,3-.01,2.04.25,4.15-1.65,5.7-.6-.11-1.23-.23-2.17-.41-.44-2.59-.9-5.26-1.41-8.24-.18-.08-.69-.31-1.41-.63ZM301.62,522.62c.12,0,.24,0,.35.01.19-1.25.38-2.49.55-3.59h1.16c0-.37.02-1.05-.02-1.05-1.33-.12-.55-1.39-1.3-2.39-.28,2.63-.51,4.83-.74,7.02ZM328.75,569.03c1.74-2.04,1.01-4.06.83-6.01-.3.85-.49,1.75-.35,2.6.18,1.13.04,1.93-1.31,2.23.28.4.49.69.83,1.18ZM342.49,549.83c-1.72.73-2.51,2.21-3.13,3.82,1.6-.8,2.23-2.42,3.13-3.82ZM311.66,505.97c-3.34,1.2-4.07,1.85-4.15,3.46,1.48-1.23,2.81-2.34,4.15-3.46ZM368.42,354.56c.65.68,1.22,1.28,2.14,2.24-.34-1.69-.58-2.9-.9-4.56-.56,1.06-.89,1.66-1.24,2.32ZM376.33,422.59c-1.01-1.72-.78-3.97-2.43-5.42.76,1.83,1.03,3.86,2.43,5.42ZM366.67,356.44c-1.42,1.28-1.24,2.19.71,3.82-.25-1.36-.47-2.5-.71-3.82ZM298.92,413.09c1.07-1.36,1.36-2.8.97-4.32-.36,1.59-.67,2.95-.97,4.32ZM397.12,372.48c.15-.04.31-.08.46-.13-.45-1.57-.9-3.14-1.34-4.71-.07,1.37.22,2.66.54,3.93.08.31.23.61.34.91ZM267.84,378.37v-3.47c-.05,1.07-1.81,2.05,0,3.47ZM389.73,409.1c.19.87.38,1.74.58,2.61q.75-1.65-.58-2.61ZM282.93,419.99c.47-1.34-.59-1.68-.88-1.47-.74.54-1.11-.56-2.04-.21,1.12.64,1.95,1.12,2.93,1.68ZM309.17,544.35c.16-.08.33-.16.49-.24-.93-1.25-.92-2.98-2.46-3.92.66,1.39,1.31,2.77,1.97,4.16ZM370.4,418.91c.82,1.03.77,2.21,2.05,2.41-.21-1-.37-1.97-2.05-2.41ZM273.45,358.82c-1.85.26-1.15,1.83-1.68,2.67.68-.73,1.75-1.18,1.68-2.67ZM321.53,511.37c.02-.14.04-.27.06-.41-1.45-.25-2.67.47-3.92,1.1,1.29-.23,2.57-.46,3.86-.69ZM274.97,414.24c-.13.16-.26.31-.4.47.9.63,1.8,1.27,2.71,1.9.11-.15.21-.29.32-.44-.88-.64-1.75-1.29-2.63-1.93ZM301.36,386.37c.71.97,1.15,1.58,1.6,2.2q0-2.02-1.6-2.2ZM363.24,415.26c.13-.03.27-.07.4-.1-.19-1.14.01-2.38-1.26-3.24.29,1.11.57,2.23.86,3.34ZM373.3,421.84c.19-.03.37-.07.56-.1-.34-1.06-.69-2.11-1.03-3.17-.14.04-.27.08-.41.12.29,1.05.59,2.1.88,3.15ZM298.8,356.89c.41-.58.82-.91.78-1.15-.11-.65-.63-.77-1.35-.48.15.42.29.83.57,1.63ZM371.73,418.84c-.24-1.43-.72-2.15-1.86-2.59.05,1.25.65,1.91,1.86,2.59ZM271.84,410.03c-.13,1.19.74,1.41,1.59,1.65-.14-.89-.77-1.35-1.59-1.65ZM279.05,419.53c.14-.17.27-.34.41-.51-.33-.61-.83-.98-1.56-1.02-.1.12-.19.25-.29.37.48.39.96.78,1.44,1.17ZM274.94,412.28q.08,1.22,1.48,1.43c-.66-.64-1.07-1.03-1.48-1.43ZM278.27,416.64c-.12.13-.24.25-.35.38.59.36,1.18.73,2.06,1.27-.19-1.52-1.08-1.39-1.71-1.65ZM375.12,416.65c-.54-.59-1.08-1.19-1.75-1.92-.04,1.37.79,1.73,1.75,1.92ZM265.37,395.03c-.15,0-.31,0-.46,0,.12.9.23,1.81.35,2.71.13-.02.25-.03.38-.05-.09-.89-.18-1.78-.26-2.67ZM269.27,370.21c-.14-.92-.24-1.55-.37-2.45-.75,1.03-.8,1.68.37,2.45ZM360.19,368.31c.2.02.41.04.61.06-.35-.73.73-1.36-.23-2.35-.15.9-.26,1.59-.38,2.29ZM268.67,380.74c.05-.62.09-1.24.16-2.1q-.9.98-.16,2.1ZM298.3,385.26c-.06.07-.13.15-.19.22.57.53,1.14,1.07,1.71,1.6.09-.11.18-.21.27-.32-.6-.5-1.19-1.01-1.79-1.51ZM269.17,398.12c-.03,1.05,0,1.71.91,2.01.38-.95-.24-1.35-.91-2.01ZM268.24,382.09c-.15-.03-.3-.06-.45-.08-.06.48-.13.96-.15,1.45,0,.08.27.16.5.29.04-.62.07-1.14.1-1.66ZM263.07,390.46c-.13.03-.25.06-.38.08.12.53.25,1.06.37,1.59.11-.02.22-.05.33-.07-.11-.53-.22-1.07-.33-1.6ZM268.69,394.34q-.28,1.07.76,1.37c-.31-.55-.54-.96-.76-1.37ZM377.97,418.74c-.19.06-.38.13-.57.19.26.62.52,1.23.78,1.85.13-.05.26-.09.38-.14-.2-.63-.4-1.26-.59-1.9ZM275.06,357.32c-.18-.12-.36-.24-.53-.36-.24.5-.49,1-.73,1.5.11.06.22.12.34.18.31-.44.62-.88.93-1.33ZM341.68,477.62c.28.11.35.15.4.14.05,0,.12-.08.12-.12,0-.39,0-.77,0-1.16-.14,0-.28,0-.42-.01-.04.4-.07.81-.1,1.15ZM275.88,356.74c.51-.56.84-.92,1.17-1.28-.64.06-1.46-.06-1.17,1.28ZM304.64,534.43c.1-.08.2-.17.31-.25-.22-.47-.44-.93-.65-1.4-.1.04-.2.09-.29.13.21.51.43,1.01.64,1.52ZM290.5,351.19c-.14-1.04-.53-1.3-1.15-1.21-.14.02-.26.21-.52.42.57.27,1,.47,1.67.79ZM295.75,353.1c-.05.23-.11.46-.16.7.5.11,1,.22,1.49.33.05-.17.09-.35.14-.52-.49-.17-.98-.33-1.47-.5ZM265.13,390.95c-.16,0-.32.01-.48.02.11.51.21,1.03.32,1.54.12-.02.24-.04.36-.06-.07-.5-.13-1-.2-1.5ZM267.34,398.26c-.1.04-.2.07-.29.11.06.62.12,1.24.18,1.86.04,0,.07-.01.11-.02v-1.96ZM302.94,389.39c-.1.12-.21.24-.31.36.39.35.78.7,1.18,1.05.07-.08.15-.16.22-.23-.36-.39-.72-.78-1.08-1.18ZM302.12,390.88c-.11.05-.22.09-.33.14.15.44.29.88.44,1.33.06-.02.13-.04.19-.06-.1-.47-.19-.93-.29-1.4ZM296.02,417.42c.1.04.21.07.31.11.14-.21.36-.41.39-.63.03-.23-.13-.48-.2-.72-.1.01-.21.03-.31.04-.06.4-.13.8-.19,1.21ZM369.34,419.29c-.39.79-.19,1.23.75,1.24-.25-.41-.5-.83-.75-1.24ZM297.94,353.22c.13,1.21.44,1.56,1.64,1.37-.61-.51-.96-.81-1.64-1.37ZM315.2,440.66c.16,0,.32.02.48.02-.02-.3-.03-.6-.05-.91-.08,0-.17-.02-.25-.03-.06.3-.12.6-.18.91ZM341.67,504.03c.02.09.04.18.05.28.25.03.52.14.74.07.22-.07.38-.31.57-.47-.04-.1-.09-.19-.13-.29-.41.14-.83.27-1.24.41ZM275.86,416.99l.21-.3c-.38-.27-.76-.55-1.14-.82-.07.09-.13.19-.2.28.38.28.75.56,1.13.84ZM361.47,411.28c.19-.21.38-.32.39-.45.01-.15-.13-.32-.21-.47-.13.1-.33.19-.36.31-.03.15.09.33.18.61ZM360.67,410.11c-.11.03-.23.06-.34.09.06.4.13.81.19,1.21.09-.01.17-.02.26-.03-.03-.42-.07-.85-.1-1.27ZM278.02,354c.12,0,.24,0,.37.01.02-.32.04-.64.06-.96-.14,0-.28-.01-.42-.02v.96ZM395.15,402.84c.12.04.24.08.37.13.08-.38.16-.76.24-1.14-.09-.02-.19-.04-.28-.07-.11.36-.22.72-.33,1.08ZM269.85,401.54c-.15-.19-.25-.32-.36-.45-.11.12-.3.24-.3.35,0,.15.16.29.26.44.12-.1.24-.2.4-.34ZM361.04,397.77c-.09.05-.19.09-.28.14.16.36.33.71.49,1.07.11-.06.23-.11.34-.17-.18-.35-.37-.69-.55-1.04ZM266.7,395.7c.13-.02.26-.04.38-.06-.04-.48-.08-.96-.12-1.44-.09,0-.18.01-.27.02v1.48ZM378.7,352.84c.02-.15.04-.31.07-.46-.33-.03-.66-.06-.99-.09-.01.1-.03.2-.04.3.32.08.64.17.96.25ZM303.43,530.39c.09-.04.18-.08.27-.12-.12-.32-.24-.64-.36-.97-.15.08-.3.16-.45.24.18.28.36.56.54.85ZM265.95,388.5c.16-.02.31-.05.47-.07-.08-.34-.16-.68-.23-1.02-.08.01-.16.03-.23.04v1.05ZM262.62,387.05c.11,0,.22-.02.34-.02-.03-.42-.06-.84-.09-1.25-.12,0-.23.02-.35.03l.1,1.25ZM332.24,559.86c-.01-.1-.03-.21-.04-.31-.48.04-.96.08-1.45.12,0,.06.01.13.02.19h1.47Z"/>
    <path class="st23" d="M347.61,515.01c-.05-.31-.24-.69-.12-.92.14-.28.53-.45.89-.73.48.67,1,1.39,1.52,2.12-.58-.08-1.16-.15-1.75-.23-.18-.08-.36-.16-.54-.24Z"/>
    <path class="st23" d="M271.68,369.47c.02.69.06,1.38.02,2.06,0,.08-.45.13-.69.19.03-.14.06-.29.09-.43-.54-1.39-.52-1.44.61-1.8l-.02-.03Z"/>
    <path class="st23" d="M365.4,387.43c.71.53,1.42,1.05,2.12,1.58-.07.1-.14.2-.21.3-.64-.41-1.27-.83-1.91-1.24,0,0,.05.04.05.04l-.15.04-.06-.14c.05-.19.1-.39.15-.58Z"/>
    <path class="st23" d="M298.86,364.59c.34-1.84.68-3.69,1.02-5.53.3,1.95-.05,3.79-1.02,5.53Z"/>
    <path class="st23" d="M273.05,403.03c-.14-.42-.27-.84-.41-1.26.2-.01.49-.12.57-.03,1.11,1.26,2.19,2.54,3.18,4-.38-.26-.78-.48-1.13-.77-.75-.63-1.47-1.29-2.21-1.94Z"/>
    <path class="st23" d="M295.68,404.3c-.2,1.7-.18,3.43-.91,5.03-.01-1.73-.14-3.48.95-4.99l-.04-.04Z"/>
    <path class="st23" d="M279.11,366.1v-5.13c.07,1.59,1.18,3.2,0,5.13Z"/>
    <path class="st23" d="M285.97,416.29c1.08-.36,1.57.71,2.83.9-.99.17-1.53.26-2.1.36-.22-.41-.45-.86-.68-1.31l-.05.05Z"/>
    <path class="st23" d="M302.27,363.8c.51,1.63-.33,3-1.08,4.37.38-1.44.76-2.88,1.14-4.32,0,0-.05-.05-.05-.05Z"/>
    <path class="st23" d="M273.46,395.8c-.13-.89-.27-1.78-.4-2.68,1.2.18,1.28,1.18,1.5,1.94-.39.26-.74.5-1.09.74Z"/>
    <path class="st23" d="M286.02,416.24c-1.11.25-1.76-.62-2.6-1.05,0,0-.05.05-.06.06.48-.06.97-.13,1.49-.2.38.42.74.83,1.11,1.24,0,0,.05-.05.05-.05Z"/>
    <path class="st23" d="M271.7,369.5c.11-.8.21-1.6.32-2.39.11.01.22.02.32.03.07.61.15,1.22.21,1.75-.32.2-.6.38-.88.57,0,.01.03.04.03.04Z"/>
    <path class="st23" d="M274.54,389.3c.59-.18.66-.56.46-1.08-.14-.37-.22-.76-.33-1.14.44.63.88,1.26,1.31,1.87-.34.68-.62,1.25-.9,1.81-.18-.49-.36-.97-.54-1.46Z"/>
    <path class="st23" d="M291.14,373.41c.28-.93.57-1.87.85-2.8.1.03.21.06.31.08-.28.94-.56,1.88-.84,2.82-.11-.03-.22-.07-.33-.1Z"/>
    <path class="st23" d="M289.06,407.27c-.11,1.19-.23,2.38-.38,4.01-.68-1.73.05-2.85.38-4.01Z"/>
    <path class="st23" d="M287.48,374.34c-.25.8-.49,1.6-.74,2.41-.09-.03-.19-.06-.28-.08.24-.86.49-1.71.73-2.57.1.08.19.17.29.25Z"/>
    <path class="st23" d="M293.4,416.59c-.05-.24-.1-.47-.16-.79-.51.26-.91.47-1.31.68-.07-.13-.14-.25-.21-.38.52-.34,1.04-.67,1.81-1.17-.06.78-.09,1.23-.12,1.67,0,0,0,0,0,0Z"/>
    <path class="st23" d="M289.95,377.69c.18-.6.35-1.2.53-1.8.1.03.2.05.3.08-.17.64-.35,1.27-.52,1.91-.1-.06-.21-.12-.31-.19Z"/>
    <path class="st23" d="M289.6,393.26l-.58,2.45c-.08-.01-.17-.03-.25-.04.17-.87.34-1.75.51-2.62.11.07.21.14.32.22Z"/>
    <path class="st23" d="M272.24,388.48c1.13.44,1.31,1.58,1.81,2.49-1.3-.32-1.42-1.5-1.81-2.49Z"/>
    <path class="st23" d="M275.65,363.06c.06.9.13,1.81.19,2.71-.11,0-.21,0-.32,0,.05-.91.1-1.83.16-2.75,0,0-.04.02-.04.02Z"/>
    <path class="st23" d="M297.97,368.11c-.3.59-.6,1.18-1.01,1.99-.07-1.01.13-1.64.62-2.16.13.06.26.11.39.17Z"/>
    <path class="st23" d="M286.6,405.6c.1-.5.2-1.01.36-1.83.6.99.33,1.45-.36,1.83Z"/>
    <path class="st23" d="M297.26,364.54c.16-.6.33-1.2.49-1.8.1.03.2.06.3.09-.18.6-.36,1.19-.54,1.79-.08-.02-.17-.05-.25-.07Z"/>
    <path class="st23" d="M279.34,409.46c-1.1-.09-1.84-.66-2.28-1.66.76.55,1.52,1.1,2.28,1.66Z"/>
    <path class="st23" d="M271.46,377.22c-.44-.98-1.21-1.9-.49-3.07,0,0-.02,0-.01,0,.15,1.04.3,2.08.44,3.13l.06-.05Z"/>
    <path class="st23" d="M276.62,372.35c.13-.62.26-1.24.39-1.87.14.03.29.06.43.09-.14.6-.29,1.21-.43,1.81-.13,0-.26-.02-.39-.03Z"/>
    <path class="st23" d="M282.34,411.48c-.75-.41-1.5-.83-2.25-1.24.75.41,1.5.83,2.25,1.24Z"/>
    <path class="st23" d="M300.35,365.46c-.04.61-.09,1.23-.13,1.84-.11-.02-.22-.04-.33-.06.17-.58.34-1.16.51-1.74,0,0-.05-.05-.05-.05Z"/>
    <path class="st23" d="M292.55,369.36c-.03-.28-.08-.42-.04-.52.14-.36.32-.7.49-1.05.03.05.08.12.07.16-.09.37-.19.75-.29,1.12-.02.06-.08.1-.23.29Z"/>
    <path class="st23" d="M275.03,378.25c.05-.45.1-.9.15-1.35.08,0,.16.01.24.02-.05.45-.09.9-.14,1.35-.08,0-.17-.01-.25-.02Z"/>
    <path class="st23" d="M271.4,377.27c.34.55.67,1.11,1.01,1.66-.17.07-.33.14-.5.2-.15-.64-.3-1.28-.45-1.92,0,0-.06.05-.06.05Z"/>
    <path class="st23" d="M286.95,420.4c-.24-.22-.46-.43-.67-.64q.84-.19.67.64Z"/>
    <path class="st23" d="M278.34,407.41c-.36-.3-.71-.6-1.07-.89.05-.07.1-.15.15-.22.4.25.81.51,1.21.76-.1.12-.2.23-.3.35Z"/>
    <path class="st23" d="M295.72,404.34c.07-.55.14-1.1.21-1.65.14.04.27.07.41.11-.22.5-.44,1-.66,1.5,0,0,.04.04.04.04Z"/>
    <path class="st23" d="M275.44,396c.27.34.53.67.8,1.01-.07.06-.15.13-.22.19-.29-.32-.57-.65-.86-.97.09-.07.19-.15.28-.22Z"/>
    <path class="st23" d="M276.2,385.93c-.04.23-.07.47-.11.7-.15-.06-.44-.15-.44-.18.03-.21.14-.41.22-.61.11.03.22.06.32.09Z"/>
    <path class="st23" d="M279.48,376.6c-.16.33-.33.65-.49.98-.05-.02-.11-.04-.16-.06.14-.36.28-.71.42-1.07.08.05.15.1.23.15Z"/>
    <path class="st23" d="M379.28,404.67c-2.38-1.68-3.72-4.06-4.51-6.79,1.17,1.03,1.85,2.37,2.49,3.83,1.66,0,2.1,1.18,2.31,2.55-.1.14-.2.28-.3.42Z"/>
    <path class="st23" d="M381.18,406.24c2.09,2.14,2.56,2.96,2.45,4.47-1.59-1.32-2.86-2.69-3.49-4.57-.03-.09.1-.23.16-.35.3.15.59.3.89.45Z"/>
    <path class="st23" d="M386.36,384.32c.05.6.1,1.19.15,1.79,0,0,.06-.03.06-.03-.24-.08-.48-.16-.95-.31,0,1.55-.7,2.77-1.52,3.93l.06.03c-.11-1.03-.14-1.12.96-3.54.38-.84.48-1.61.23-2.46.35.21.7.42,1.04.62,0,0-.04-.04-.04-.04Z"/>
    <path class="st23" d="M371.09,411.87c-1.57-.57-3.07-2.14-3.46-3.59-.08-.31-.28-.58-.42-.87.93,1.01,1.88,2.01,2.79,3.04.4.45.73.95,1.09,1.43Z"/>
    <path class="st23" d="M370.17,406.71c1.26,1.18,2.53,2.36,3.79,3.54-1.7-.7-2.76-2.11-4.11-3.2.1-.11.21-.23.31-.34Z"/>
    <path class="st23" d="M362.79,365.61c1.03.4,2.05.8,2.02,2.28-.53-.24-1.05-.48-1.99-.91,0-.18,0-.79,0-1.41l-.04.04Z"/>
    <path class="st23" d="M382.27,374.02c.04-.77-.05-1.59.17-2.3.21-.68.74-1.27,1.34-1.83-.45,1.39-.9,2.79-1.34,4.18-.06-.02-.11-.03-.17-.05Z"/>
    <path class="st23" d="M361.85,370.7c.17-.21.3-.47.51-.61.24-.17.63-.4.81-.31.76.4-.18.48-.17.72.02.58.11,1.16-.17,1.88-.31-.59-.62-1.18-.94-1.76,0,0-.04.07-.04.07Z"/>
    <path class="st23" d="M388.18,367.96c-.55,1.77-1.11,3.55-1.66,5.32.55-1.77,1.11-3.55,1.66-5.32Z"/>
    <path class="st23" d="M382.9,392.97c-.13-.76-.27-1.52-.4-2.27.15.21.31.42.54.75.45-.69.78-1.2,1.12-1.71l-.06-.03c-.13.95-.27,1.9-.4,2.85l.04-.05c-.28.16-.56.31-.85.47Z"/>
    <path class="st23" d="M378.25,412.13c-.55-.7-1.1-1.39-1.65-2.09-.38-.48-1.06-.84-.7-1.64l-.03.04c.66.79,1.36,1.54,1.96,2.38.25.36.28.87.4,1.32,0,0,.02,0,.02,0Z"/>
    <path class="st23" d="M384.95,377.83c-.13.58-.31,1.16-.36,1.75-.07.84-.03,1.69-.04,2.54-.89-.53-1.07-1.29-.66-2.19.32-.71.71-1.4,1.07-2.1Z"/>
    <path class="st23" d="M381.18,406.24c-.3-.15-.59-.3-.89-.45-.87.11-.87-.57-1.01-1.12.1-.14.2-.28.3-.42.84.41,1.51.97,1.61,1.99Z"/>
    <path class="st23" d="M364,391.35c.79.83,1.57,1.67,2.36,2.5-1.42-.3-2.19-1.14-2.32-2.54l-.04.04Z"/>
    <path class="st23" d="M382.53,418.98c-.13-1.26-.26-2.53-.4-3.79.4,1.24,1.63,2.43.38,3.79,0,0,.01,0,.01,0Z"/>
    <path class="st23" d="M370.72,392.38c.44.67.89,1.34,1.33,2-.54-.56-1.09-1.13-1.64-1.69.1-.1.2-.21.31-.31Z"/>
    <path class="st23" d="M386.17,361.52c.16.69.33,1.39.49,2.08-.41-.02-.81-.05-1.32-.08.36-.61-.24-1.6.83-2Z"/>
    <path class="st23" d="M374.27,406.83c-1.34.26-1.58-1.01-2.16-1.79.71.6,1.42,1.21,2.12,1.82,0,0,.04-.03.04-.03Z"/>
    <path class="st23" d="M378.24,408.69c.47.37,1.02.79,1.56,1.21l-.21.21c-.47-.5-.94-.99-1.34-1.43Z"/>
    <path class="st23" d="M377.21,359.91c-.42-.52-.84-1.04-1.26-1.56.12-.1.24-.19.35-.29.43.52.85,1.04,1.28,1.55-.12.1-.25.19-.37.29Z"/>
    <path class="st23" d="M388.13,365.91c.34.36.67.72,1.09,1.18-.44.39-.77.67-1.09.96,0-.71,0-1.42,0-2.13Z"/>
    <path class="st23" d="M366.08,368.97c.37.48.73.95,1.1,1.43-.05.05-.11.1-.16.15-.37-.5-.74-.99-1.11-1.49.06-.03.12-.06.17-.09Z"/>
    <path class="st23" d="M374.05,362.16c.52.02.82.04,1.16.05v1.02c-.37-.34-.7-.65-1.16-1.07Z"/>
    <path class="st23" d="M367.26,407.46c-.62-.69-1.24-1.38-1.87-2.06,1.18.18,1.34,1.29,1.87,2.06Z"/>
    <path class="st23" d="M373.22,361.28c-.31-.39-.62-.78-.94-1.17.05-.05.1-.1.15-.15.36.34.72.69,1.08,1.03-.1.1-.2.19-.3.29Z"/>
    <path class="st23" d="M378.99,374.29c.07-.67.12-1.08.17-1.49.1-.01.21-.02.31-.03.06.25.2.52.15.75-.04.21-.29.38-.63.77Z"/>
    <path class="st23" d="M380.52,390.49c.27.75.54,1.5.82,2.26-.33-.41-.75-.77-.97-1.24-.12-.26.09-.68.15-1.02Z"/>
    <path class="st23" d="M366.43,392.13c.62.47,1.24.94,1.86,1.41-.11.11-.22.22-.33.33-1.12-.46-1.11-.47-1.49-1.78,0,0-.04.04-.04.04Z"/>
    <path class="st23" d="M382.1,393.53c.28-.2.56-.41.84-.61-.05.46-.04.95-.19,1.38-.11.31-.43.55-.66.82,0-.53,0-1.06.01-1.59Z"/>
    <path class="st23" d="M381.71,395.77c.03.45.07.9.1,1.36-.31.23-.62.46-.93.69.28-.68.55-1.36.83-2.05Z"/>
    <path class="st23" d="M367.76,380.41c-.28-.26-.55-.52-.83-.78.08-.1.16-.2.25-.3.16.1.34.19.46.32.15.16.24.37.36.55-.08.07-.16.13-.24.2Z"/>
    <path class="st23" d="M382.36,390.55c-.62.21-1.26-.76-1.87.02.04-.25.08-.5.16-1.06.63.38,1.17.7,1.71,1.03Z"/>
    <path class="st23" d="M363.2,393.34c.42.48.85.95,1.27,1.43-.14.1-.29.19-.43.29-.27-.58-.54-1.17-.81-1.75,0,0-.04.03-.04.03Z"/>
    <path class="st23" d="M369.66,399.84c-.26-.32-.52-.64-.78-.96.06-.05.12-.1.18-.15.28.3.57.6.85.9-.08.07-.17.14-.25.21Z"/>
    <path class="st23" d="M375.9,408.4c-1.12.05-1.52-.33-1.64-1.56,0,0-.04.04-.03.03.55.53,1.09,1.06,1.63,1.58,0,0,.04-.05.04-.05Z"/>
    <path class="st23" d="M367.22,365c.25.4.49.81.74,1.21-.11.07-.22.13-.33.2-.24-.41-.49-.81-.73-1.22.11-.07.21-.13.32-.2Z"/>
    <path class="st23" d="M377.8,366.96c-.36-.69-.55-1.06-.83-1.58q.74.38.83,1.58Z"/>
    <path class="st23" d="M386.57,373.18c-.28.9-.56,1.8-.84,2.69.28-.9.56-1.79.84-2.69Z"/>
    <path class="st23" d="M382.9,384.21c-.12.46-.23.92-.35,1.38-.11-.03-.22-.06-.33-.09.15-.45.29-.9.44-1.35.08.02.16.04.24.06Z"/>
    <path class="st23" d="M378.92,362.15c-.24-.33-.48-.66-.72-.99.06-.06.13-.11.19-.17.27.29.53.59.8.88-.09.09-.18.18-.27.28Z"/>
    <path class="st23" d="M382.18,363.07c.09-.41.18-.81.28-1.22.09.02.17.04.26.06-.11.4-.23.8-.34,1.2-.06-.01-.12-.03-.19-.04Z"/>
    <path class="st23" d="M374.07,366.73c-.21.27-.43.53-.64.8-.23-.21-.64-.4-.06-.69.18-.09.33-.22.49-.33.07.08.14.15.21.23Z"/>
    <path class="st23" d="M364.56,371.42c-.21.11-.43.23-.82.43.08-.31.13-.54.19-.77.2.13.39.26.59.39l.04-.05Z"/>
    <path class="st23" d="M364.52,371.47c.37.44.74.89,1.11,1.34-.8-.15-1.19-.59-1.08-1.38,0,0-.03.05-.03.05Z"/>
    <path class="st23" d="M314.76,456.89c.23,2.66.44,4.87.6,7.09.04.58-.11,1.17-.18,1.87-.72-1.25-.9-5.01-.42-8.96Z"/>
    <path class="st23" d="M313.22,406.51c.17,1.43.35,2.86.52,4.29-.08.01-.16.02-.24.04-.1-.72-.2-1.44-.3-2.15-.11-.71-.22-1.42-.33-2.12.12-.02.24-.03.36-.05Z"/>
    <path class="st23" d="M313.59,405.29c-1.25-.41-1.25-.42-1.2-2.22.4.74.8,1.48,1.2,2.23,0,0,0,0,0,0Z"/>
    <path class="st23" d="M310.96,411.08c.18.7.37,1.4.55,2.11-.13.04-.26.08-.4.11-.21-.68-.42-1.35-.63-2.03.16-.06.32-.13.47-.19Z"/>
    <path class="st23" d="M313.9,414.24c-.06-.6-.12-1.2-.19-1.8.11-.01.21-.02.32-.03v1.82s-.09,0-.13.01Z"/>
    <path class="st23" d="M308.98,409.46c-.17-.54-.34-1.07-.51-1.61.11-.04.21-.07.32-.11.18.52.36,1.05.54,1.57-.12.05-.23.1-.35.14Z"/>
    <path class="st23" d="M314.67,451.75v-1.28s.06,0,.08,0v1.28h-.08Z"/>
    <path class="st23" d="M313.42,443.99c.03-.33.06-.66.09-.99.04.33.09.66.13.99-.08,0-.15,0-.23,0Z"/>
    <path class="st23" d="M312.3,485.32c-.04-.34-.09-.68-.13-1.02.07,0,.14-.02.21-.03.05.34.1.68.15,1.02-.08.01-.16.02-.23.03Z"/>
    <path class="st23" d="M343.62,435.23c.26,6.32,1.54,12.59.45,18.89h-.45v-18.89Z"/>
    <path class="st23" d="M344.91,484.03c.07-.85.15-1.7.21-2.55.05-.76.09-1.52.14-2.28.15,0,.3.01.45.02-.08,1.43-.15,2.87-.25,4.3-.1,1.42-.2,2.84-.33,4.25-.14,1.49-.31,2.99-.81,4.45.21-2.74.42-5.47.63-8.21l-.02.02Z"/>
    <path class="st23" d="M343.55,481.38c-.17,2.01-.35,4.01-.56,6.47-.4-2.68-.3-2.65-.12-3.41.23-1.01.29-2.05.43-3.08.09,0,.17.02.26.02Z"/>
    <path class="st23" d="M347.42,465.54v6c-.07,0-.14,0-.21,0v-6h.21Z"/>
    <path class="st23" d="M343.61,421.14c.18-1.37.35-2.73.53-4.1.14.01.27.03.41.04-.15,1.36-.3,2.71-.45,4.07-.16,0-.33,0-.49,0Z"/>
    <path class="st23" d="M343.47,425.69c-1.05-.38-.83-1.17-.64-2.09.34.08.85.11.87.22.08.53.63,1.29-.47,1.45-.02,0-.06.14-.04.17.08.09.18.16.26.25,0,0,.02,0,.02,0Z"/>
    <path class="st23" d="M348.25,464.3v3.51c-.06,0-.12,0-.18,0v-3.51c.06,0,.12,0,.18,0Z"/>
    <path class="st23" d="M342.27,491.9c-.04-.79-.09-1.57-.13-2.36.14,0,.28,0,.43.01.03.77.49,1.57-.34,2.3l.05.04Z"/>
    <path class="st23" d="M344.93,484.02c-1.11.52-.23,1.72-1.01,2.62.2-1.08-.69-2.25.98-2.59,0,0,.03-.03.03-.03Z"/>
    <path class="st23" d="M342.55,426.51c.3-.27.61-.55.91-.82,0,0-.02,0-.01,0,0,.74,0,1.48,0,2.36-.36-.62-.64-1.09-.93-1.58,0,0,.01.05.01.05Z"/>
    <path class="st23" d="M348.03,437.23v-2.26c.07,0,.14,0,.22,0v2.26c-.07,0-.14,0-.22,0Z"/>
    <path class="st23" d="M344.61,480.52v2.06c-.09,0-.18,0-.27,0,.04-.69.07-1.37.11-2.06h.17Z"/>
    <path class="st23" d="M351.1,396.93c-.02.66-.04,1.32-.06,1.99q-.68-.89.11-1.95s-.04-.04-.04-.04Z"/>
    <path class="st23" d="M354.18,397.85v2.45c-.17-.01-.34-.02-.52-.03.17-.8.34-1.61.51-2.41,0,0,0,0,0,0Z"/>
    <path class="st23" d="M352.2,397.58v2.33c-.08,0-.15-.01-.23-.02.09-.75.18-1.5.27-2.26,0,0-.04-.05-.04-.05Z"/>
    <path class="st23" d="M342.22,491.86c.13.63.26,1.27.4,1.95q-.89-.88-.34-1.9s-.05-.05-.05-.05Z"/>
    <path class="st23" d="M346.88,444.28v.95c-.06,0-.13-.02-.19-.02.06-.29.12-.57.19-.92Z"/>
    <path class="st23" d="M346.45,436.63v-1.43c.05,0,.1,0,.16,0v1.43c-.05,0-.1,0-.16,0Z"/>
    <path class="st23" d="M346.85,413.18v-1.12c.06,0,.13,0,.19,0-.02.37-.04.74-.07,1.12-.04,0-.08,0-.12,0Z"/>
    <path class="st23" d="M350.44,401.92c-.08.59-.16,1.19-.25,1.78-.1-.03-.2-.05-.3-.08.2-.55.39-1.1.59-1.66l-.03-.04Z"/>
    <path class="st23" d="M350.47,401.96c-.03-.64-.07-1.28-.1-1.93.11,0,.22,0,.32.01-.09.62-.18,1.24-.26,1.87,0,0,.04.05.04.05Z"/>
    <path class="st23" d="M334.7,504.48c.64-.43,1.29-.87,1.93-1.3.55-.14,1.11-.27,1.66-.41-1.34,1.65-3.28,2.32-5.18,3.07.53-.45,1.06-.9,1.59-1.35Z"/>
    <path class="st23" d="M331.53,509.97h-5.12c0-.07,0-.14,0-.2h5.1c0,.07.02.14.03.2Z"/>
    <path class="st23" d="M318.59,506.45c.75-.68,1.5-1.37,2.25-2.05.1.12.19.24.29.36-.78.66-1.37,1.56-2.58,1.65,0,0,.04.04.04.04Z"/>
    <path class="st23" d="M325.46,503.3c.8-.48,1.6-.95,2.4-1.43.08.14.17.29.25.43-.79.48-1.58.96-2.37,1.44-.09-.15-.19-.3-.28-.45Z"/>
    <path class="st23" d="M307.65,514.84c-.34.87-1.12,1.11-1.97,1.5q.4-1.11,2.01-1.46s-.04-.04-.04-.04Z"/>
    <path class="st23" d="M316.55,508.05c-.51.48-1.02.95-1.58,1.48q.51-1.05,1.62-1.44l-.04-.04Z"/>
    <path class="st23" d="M316.59,508.09c.26-1.03,1.19-1.26,2-1.64,0,0-.04-.04-.04-.04-.67.55-1.34,1.09-2,1.64,0,0,.04.04.04.04Z"/>
    <path class="st23" d="M331.01,503.59c-.49.41-.98.82-1.47,1.23-.09-.15-.18-.3-.27-.45.59-.25,1.18-.5,1.78-.74,0,0-.04-.04-.04-.04Z"/>
    <path class="st23" d="M320.94,506.02c.41-.26.83-.52,1.32-.83,0,.22.03.36,0,.39-.39.24-.79.47-1.19.7-.04-.09-.08-.17-.12-.26Z"/>
    <path class="st23" d="M342.66,506c-.22.39-.44.78-.67,1.17q-.2-.86.71-1.13l-.04-.04Z"/>
    <path class="st23" d="M319.33,503.18c.29,0,.57,0,.86-.01-.42.43-.84.87-1.26,1.3-.08-.06-.16-.12-.24-.18.21-.37.42-.74.63-1.1Z"/>
    <path class="st23" d="M315.77,506.46c.32-.37.63-.75,1.06-1.24.07,1.03-.53,1.1-1.09,1.21l.04.04Z"/>
    <path class="st23" d="M313.54,506.5c.34-.28.68-.55,1.02-.83.07.07.14.14.21.21-.19.18-.36.39-.57.55-.16.12-.35.19-.53.29-.04-.07-.09-.15-.13-.22Z"/>
    <path class="st23" d="M315.74,506.42c-.37.41-.75.83-1.12,1.24-.09-.1-.19-.2-.28-.3.36-.44.68-.93,1.44-.9,0,0-.03-.04-.03-.04Z"/>
    <path class="st23" d="M331.08,556.4c.18.27.27.41.45.68-1.63.21-3.2.41-4.7.6-1.37-.68-2.76-1.3-4.08-2.04-2.11-1.17-3.3-3.29-4.94-4.95-.44-.45-.94-.84-1.46-1.31-.07-.51-.04-1.25-.3-1.86-.39-.91-.95-1.76-1.52-2.58-1.53-2.22-2.77-4.56-3.64-7.13-.31-.92-.96-1.71-1.42-2.59-.28-.52-.58-1.06-.71-1.63-.82-3.49-.92-6.98-.17-10.51.54-2.53,2.42-3.9,4.33-5.26.92-.66,1.8-1.38,2.77-1.94.74-.43,1.58-.8,2.41-.94,3.16-.54,6.34-1.28,9.52-1.36,3.17-.08,6.4.33,9.53.9,2.34.43,4.6,1.39,6.84,2.24.84.32,1.49,1.34,2.32,1.49,1.99.34,1.9,1.91,2.29,3.24.82,2.75.6,5.41.07,8.25-.51,2.78-1.99,5.05-2.79,7.64-1.51,4.86-4.62,8.79-7.59,12.78-1.19,1.6-2.61,3.03-3.99,4.47-.44.46-1.1.7-1.68,1.02-.5.28-1.03.52-1.55.79ZM315.66,530.01c.36.06.73.12,1.09.18.06-.1.12-.21.18-.31-.41-.34-.82-.68-1.58-1.31.18.83.25,1.13.31,1.43-.55-.31-1.1-.63-1.77-1.01.33,1.04,1.04,1.04,1.77,1.01ZM322.88,535.24c.62-.1,1.25.67,1.96.05q-1.21-.82-1.95-.05c-.56-.23-1.12-.47-1.82-.76.39,1.27,1.24.58,1.82.76ZM340.98,517.78c-.67-.22-1.28-.95-2.2-.2.85.7,1.41,1.71,2.73,1.76-.21-.61-.4-1.13-.58-1.65.36.22.72.43,1.08.65.05-.16.1-.32.15-.48-.39-.03-.79-.06-1.18-.08ZM322.92,530.08q-1.96-1.11-3.18-.73c1.12,1.43,1.78,1.57,3.12.67.43.21.86.43,1.29.64-.15-.82-.38-1.46-1.29-1.26.03.3.04.49.06.68ZM325.26,532.52c.54.27,1.07.54,1.61.82-.44-.99-.77-2.05-2.11-1.89.13.38.21.63.3.89q-1.88-1.41-3.49-1.03c.44.47.77,1.01,1.26,1.31.78.48,1.66.83,2.44-.1ZM345.36,526.19c.7-.4,1.4-.8,2.21-1.27-.25-.59-.09-1.51-1.33-1.08-.34.12-.82-.17-1.24-.25-.5-.1-1.03-.33-1.5-.25-.74.13-.47.62-.17,1.03-.58-.43-1.2-.82-1.74-1.29-2.59-2.21-5.15-4.44-7.75-6.64-.25-.22-.65-.26-.99-.38.37.82.97,1.3,1.52,1.84,2.11,2.04,4.21,4.1,6.32,6.16-.6-.41-1.25-.76-1.79-1.23-2.55-2.26-5.08-4.54-7.6-6.83-.79-.72-1.64-.96-2.76-.58,4.5,4.37,8.9,8.63,13.29,12.9-1.14-.9-2.34-1.73-3.42-2.71-2.38-2.16-4.67-4.42-7.03-6.6-1.18-1.09-2.42-2.12-3.64-3.17-.51-.44-1.04-.59-1.57.1,4.99,4.37,9.87,8.82,14.23,13.8-2.91-2.57-5.7-5.27-8.55-7.91-1.97-1.82-3.99-3.57-6.03-5.31-.42-.35-.9-1.09-1.78-.24,5.17,4.93,10.46,9.61,15.12,14.92-.65-.38-1.21-.86-1.74-1.36-4.46-4.25-8.92-8.51-13.38-12.77-.29-.28-.58-.61-.94-.74-.28-.11-.66.05-1.21.11.72.98,1.28,1.74,1.84,2.51l.04-.04h-1.77c5.3,5.41,10.36,10.56,15.41,15.72-1.07-.61-1.98-1.37-2.81-2.2-3.55-3.54-7.08-7.1-10.62-10.65-.54-.54-1.04-1.3-2.13-.66,3.17,3.33,6.31,6.62,9.74,10.21-.78-.19-1.08-.26-1.39-.33-2.31-2.27-4.61-4.57-6.97-6.8-.28-.27-.86-.22-1.3-.32-.04.12-.08.23-.12.35,1.44,1.52,2.87,3.04,4.31,4.56-.79-.58-1.62-1.11-2.37-1.74-.64-.53-1.23-1.01-2.2-.56,1.15,1.61,2.3,3.02,4.57,2.3.46.49.92.99,1.37,1.48-.92-.2-1.61-1.44-2.8-.64.43,1.05,1.25,1.36,2.25,1.27.18-.02.32-.45.49-.7.89.43,1.65,1.32,2.81.75-.51.26-1.12.43-1.03,1.21-.72-.56-1.44-1.14-2.59-.52.48.5.82,1.01,1.29,1.33.74.5,1.56.87,2.2-.2.71.29,1.42.58,2.1.86-.07.08-.19.22-.31.35.3.29.6.58.9.86-.09.11-.18.22-.27.32-.51-.34-.98-.77-1.54-1.01-.5-.22-1.08-.23-1.62-.34,1.12.29,1.01,1.22,1.18,1.94-1.5-1.16-3.17-1.32-4.99-.72.37.36.79.68,1.23.71,1.25.07,2.51.01,3.77,0,2.09.02,4.19-.07,6.27.11,2.02.17,3.66-.57,5.14-1.73,1.23-.96,2.56-1.06,3.99-.98.18.01.36-.05.7-.11-.25-.59-.47-1.1-.69-1.62-1.09.17-2.03.31-3.32.51.58-.54.86-.8,1.22-1.14-.41-.47-.8-.92-1.18-1.36,1.14.84,2.11,2.21,4.14,1.11-.67-.62-1.15-1.29-1.79-1.59-.69-.32-.77-.8-.84-1.39.46.2.92.51,1.4.56.57.06,1.04-.19.55-.89q1.17.14,1.12-1.27c-.66-.14-1.35-.51-1.92.25ZM331.56,552.38c.1.09.2.19.31.28.96-.81,1.92-1.61,2.87-2.43.76-.65,1.42-1.45,2.63-.97.25.1.76-.18,1-.43.46-.47.87-1.01,1.21-1.58,1.62-2.77,3.26-5.53,4.8-8.34.59-1.08.93-2.3,1.38-3.45-.11-.1-.21-.2-.32-.3-.64.29-1.29.57-1.93.87-1.88.87-3.72,1.81-5.82,2.05-.99.11-1.98.49-2.96.46-2.89-.08-5.78.57-8.67-.36-1.88-.61-3.91-.75-5.82-1.28-1.93-.53-3.88.07-5.84-.35-1.56-.34-1.97.35-1.43,1.84.24.68.62,1.31.97,1.95.63,1.19.94,2.45,1.25,3.76.25,1.07,1.17,1.98,1.79,2.96,1.56-.72,1.63.97,2.4,1.52.31.22.58.59.73.94,1.29,2.97,4.43,3.19,6.91,4.52-.5-.89-1-1.79-1.5-2.68l.31-.2c1.01.96,2.01,1.92,3.02,2.88,1.44-1.34,2.67-2.49,3.89-3.63.08.07.15.14.23.22-.46.59-.93,1.18-1.39,1.77ZM334.48,515.62c-.02.15-.05.31-.07.46,2.5,2.12,5.09,4.14,7.42,6.47.36.36,1.08.34,1.64.5-2.44-2.62-4.97-4.92-7.56-7.15-.32-.27-.94-.19-1.43-.27ZM320.39,528.38c-1.72-2.33-1.77-2.36-3.46-1.84,1.02.95,1.57,2.55,3.46,1.84ZM319.49,517.18c-.61.31-1.15.59-1.69.88.01.14.02.27.03.41.92.15,1.83.31,3.2.54-.72-.85-1.09-1.29-1.54-1.82ZM318.92,521.49q1.71,1.98,3.12,1.46c-1.13-.42-1.4-2.13-3.12-1.46ZM314.51,526.2q1.56,2.14,3.09,1.98c-1.04-.76-1.39-2.3-3.09-1.98ZM319.77,523.12c-1.27-.54-1.55-2.06-3.37-1.43,1.07.73,1.37,2.13,3.37,1.43ZM315.12,523.22q-1.09-1.66-2.68-1.24c.67.92,1.31,1.82,2.68,1.24ZM319.28,524.26c.64,1.05,1.33,1.85,2.82,1.34-.8-.87-1.35-1.92-2.82-1.34ZM321.74,532.69q-1.18-1.72-2.71-1.48c.72.9,1.34,1.79,2.71,1.48ZM314.91,524.32c.67,1.05,1.38,1.53,2.6,1.11-.59-1.07-1.3-1.56-2.6-1.11ZM320.15,526.14c.73,2.01.99,2.21,2.32,2.15-.83-.77-1.57-1.46-2.32-2.15ZM330.56,536.64c-1.09-.43-2.17-.59-3.24-.11.83.19,1.66.25,2.5.28.25,0,.5-.11.75-.17ZM322.64,518.44q-1.56-1.82-2.45-1.24c.67.59,1.1,1.52,2.45,1.24ZM346.07,522.76c-.74-.62-1.18-1.48-2.53-1.09.81.63,1.21,1.57,2.53,1.09ZM317.58,528.84c.09,1.21.65,1.63,2.04,1.23-.88-.53-1.46-.88-2.04-1.23ZM332.16,537.55v.15h3.83c0-.12,0-.24,0-.37-1.27.07-2.55.14-3.82.21ZM317.48,519.59c.13,1.38.8,1.39,1.72.78-.57-.26-1.15-.52-1.72-.78ZM319.44,532.43c-.88-.49-1.05-1.64-2.45-1.37.76.75,1.11,1.61,2.45,1.37ZM322.66,520.42c-.82-.63-1.1-1.5-2.09-.85.3.89.91,1.03,2.09.85ZM341.97,519.68c.19,1.02.6,1.55,1.87.91-.79-.38-1.33-.65-1.87-.91ZM314.54,525.32c-.51-.81-.96-1.38-2.03-1.02.46.74.92,1.3,2.03,1.02ZM315.33,532.32c.09-.15.18-.3.28-.45-.45-.52-.79-1.24-2.14-.84.81.56,1.34.92,1.86,1.29ZM327.84,534.09v-.29h-3.35v.29h3.35ZM314.93,520.38c.55.76,1.13.61,1.95.34-.66-.65-1.14-1.05-1.95-.34ZM315.06,528.06c-.83-.78-1.15-1.86-2.5-1.78.66.66,1.2,1.23,1.77,1.77.06.06.24,0,.73,0ZM321.65,533.4c-.02.14-.04.28-.05.42.48.07.97.13,1.45.2.02-.15.04-.29.06-.44-.49-.06-.97-.12-1.46-.18ZM310.2,526.62q.04,1.37,1.41,1.28c-.5-.46-.9-.82-1.41-1.28ZM316.65,523.38c.09-.11.19-.22.28-.34-.53-.44-.77-1.23-1.86-1,.53.45,1.05.89,1.58,1.34ZM313.7,529.93c-.48-.33-.84-.58-1.43-.98.13,1.11.57,1.23,1.43.98ZM318.92,525.7q-.5-1.25-1.51-1.31c.57.5,1.04.9,1.51,1.31ZM317.71,519.1c-.71-.8-1.1-.8-1.67,0h1.67ZM311.3,524.45c-.1.13-.19.27-.29.4.33.24.66.48,1,.72.09-.13.19-.26.28-.39-.33-.24-.66-.49-.99-.73ZM312.05,526.95c-.09.11-.18.22-.27.33.38.28.75.55,1.13.83.06-.08.13-.16.19-.25-.35-.3-.69-.61-1.04-.91ZM318.59,548.7c-.11.05-.22.1-.33.15.17.28.35.57.52.86.07-.04.14-.07.21-.11-.14-.3-.27-.6-.41-.9ZM321.79,553.89c.14-.09.28-.17.41-.26-.19-.27-.39-.54-.58-.82-.1.07-.2.13-.3.2.16.29.31.59.47.88Z"/>
    <path class="st23" d="M309.27,539.02c-.3-.92-.6-1.84-.9-2.76,1.14,1.19,1.19,1.33.9,2.76Z"/>
    <path class="st23" d="M306.75,528.03c.16,1.18.27,2.08.41,3.1q-.8-1.49-.41-3.1Z"/>
    <path class="st23" d="M307.65,532.49c.15.58.3,1.15.46,1.73-.14.04-.27.07-.41.11-.16-.57-.32-1.15-.48-1.72.14-.04.28-.08.43-.11Z"/>
    <path class="st23" d="M310.45,539.24c-.07.33-.06.9-.22.95-.68.23-.39-.18-.24-.48.08-.17.14-.35.2-.53.08.02.17.04.25.06Z"/>
    <path class="st23" d="M312.55,543.08c.16.31.32.62.49.93-.07.05-.15.1-.22.15-.21-.28-.42-.55-.63-.83.12-.08.24-.17.37-.25Z"/>
    <path class="st23" d="M391.77,383.12c.45-1.89.91-3.77,1.41-5.88.42.66.73,1.15,1.04,1.64-.61-.1-.76.3-.95.77-.47,1.17-1,2.31-1.5,3.47Z"/>
    <path class="st23" d="M387.74,393.98c.42-2.44,1.3-4.72,2.44-6.9-.31,2.48-1.46,4.66-2.44,6.9Z"/>
    <path class="st23" d="M391.78,391.31c.26-.98.53-1.95.79-2.93.16.06.33.12.49.18-.45.9-.89,1.8-1.34,2.7,0,0,.05.04.05.04Z"/>
    <path class="st23" d="M390.57,394.55c.41-1.08.81-2.16,1.21-3.24,0,0-.05-.04-.05-.05.08,1.26-.44,2.3-1.2,3.25,0,0,.04.03.04.03Z"/>
    <path class="st23" d="M385.76,400.6c-.28.16-.56.31-.84.47.24-.78-.23-1.82.84-2.31,0,.61,0,1.23,0,1.84Z"/>
    <path class="st23" d="M391.2,396.19c-.8-.54-1.05.22-1.45.61.27-.75.55-1.5.82-2.25,0,0-.04-.03-.04-.03.22.56.45,1.11.67,1.67Z"/>
    <path class="st23" d="M387.99,404.23c-1.05-.22-1.18-.97-1.05-1.85.28-.27.55-.55.83-.82.16.88-.71,1.85.22,2.67Z"/>
    <path class="st23" d="M389.37,397.54c-.28.83-.55,1.65-.83,2.48.28-.83.55-1.65.83-2.48Z"/>
    <path class="st23" d="M385.92,397.8c.35-.75.7-1.51,1.04-2.26-.13.85.04,1.85-1.04,2.26Z"/>
    <path class="st23" d="M394.25,385.34c-.19.44-.37.89-.56,1.33-.09-.03-.18-.06-.27-.09.15-.5.31-.99.46-1.49.12.08.25.17.37.25Z"/>
    <path class="st23" d="M390.56,386.34c.28-.83.55-1.65.83-2.48-.28.83-.55,1.65-.83,2.48Z"/>
    <path class="st23" d="M388.16,385.07c.1,1.26-.99,2.55.05,3.83-.22-.11-.43-.22-.8-.41-.42,1.08-.81,2.17-1.28,3.22-.19.44-.55.8-.83,1.2l.06.07c.13-.98.38-1.87.84-2.8.62-1.22,1.25-2.64.37-4.08,0,0-.06.03-.06.03.62.57,1.11.61,1.36-.34.07-.25.19-.47.29-.71Z"/>
    <path class="st23" d="M386.91,381.63c.7-2.11,1.4-4.23,2.1-6.34l-.04-.03c-.29,2.25-.9,4.39-2.1,6.33l.04.04Z"/>
    <path class="st23" d="M390.19,379.23c.01,1.43-.56,2.68-1.24,3.89.13-1.39.19-2.8,1.24-3.89Z"/>
    <path class="st23" d="M389.01,375.29c.22-1.14.45-2.27.67-3.41.13.03.26.06.38.1-.2,1.14-.38,2.29-1.09,3.28,0,0,.04.03.04.03Z"/>
    <path class="st23" d="M388.73,363.97c.21-.28.42-.57.62-.85.28.89.55,1.78.83,2.67-.48-.61-.97-1.21-1.45-1.82Z"/>
    <path class="st23" d="M390,371.14c.43-1.25.73-2.08,1.02-2.92.24,1.01.17,1.92-1.02,2.92Z"/>
    <path class="st23" d="M391.8,374.39c-.28.84-.57,1.67-.85,2.51.28-.84.57-1.67.85-2.51Z"/>
    <path class="st23" d="M391,376.81c-.28.84-.57,1.67-.85,2.51.07-.91.02-1.86.85-2.51Z"/>
    <path class="st23" d="M386.86,381.59c-.17.9-.35,1.81-.51,2.72,0,.01.04.04.05.05-.55-1.04-.01-1.88.51-2.73,0,0-.04-.04-.04-.04Z"/>
    <path class="st23" d="M385.3,392.9c-.08.5-.16,1-.31,1.88-.54-.99-.89-1.63-1.24-2.27l-.04.05c.56.08.86,1.27,1.66.4l-.06-.07Z"/>
    <path class="st23" d="M383.24,395.57c1.29.48,1.49.94.71,1.93-.24-.66-.41-1.11-.71-1.93Z"/>
    <path class="st23" d="M390.98,399.95c0,.76,0,1.51.01,2.27-.71.03-.98-.38-.78-.98.15-.46.51-.86.77-1.29Z"/>
    <path class="st23" d="M277.46,413.86c1.09-.81.48-1.62,0-2.43,1.16.06,1.98.65,2.49,1.67-.37-.1-.74-.19-1.15-.3-.46.56-.71,1.08.06,1.64.41.3.73.71,1.09,1.07-1.02-.26-2.07-.49-2.49-1.66Z"/>
    <path class="st23" d="M324.22,550.59c-.49-.22-1.09-.37-.59-1.48.4.48.67.81.95,1.14-.12.11-.24.23-.36.34Z"/>
    <path class="st23" d="M330.18,549.89c.32,0,.64,0,.96.01.02,0,.02.22.03.33-.32.02-.64.05-.96.07-.01-.14-.02-.28-.03-.42Z"/>
    <path class="st23" d="M323.74,518.92c.45.24.98.38,1.33.72,3.16,3.09,6.27,6.22,9.42,9.32.95.94,1.96,1.82,2.94,2.73-.11.13-.22.27-.33.4-.5-.42-1.04-.8-1.5-1.26-3.09-3.07-6.16-6.15-9.23-9.24-.88-.89-1.73-1.81-2.6-2.71,0,0-.04.04-.04.04Z"/>
    <path class="st23" d="M340.9,532.78c-.29-.25-.59-.51-.88-.76.05-.07.11-.14.16-.21.32.21.64.43.96.64-.08.11-.16.22-.24.32Z"/>
    <path class="st23" d="M340.85,524.51c1.21.52,2.39,1.07,2.87,2.45-1.41-.28-2.03-1.49-2.87-2.45Z"/>
  </g>
  <g>
    <text class="st2" transform="translate(267.48 673.03)"><tspan x="0" y="0">Escherichia coli bacteria, cause approximately </tspan><tspan x="492.72" y="0">%</tspan><tspan x="513.76" y="0">80</tspan><tspan x="540.3" y="0" xml:space="preserve"> of urinary tract infections</tspan></text>
    <text class="st2" transform="translate(1082.55 665.07) scale(.58)"><tspan x="0" y="0">12,13</tspan></text>
  </g>
  <g class="st18">
    <rect class="st17" x="1214.88" y="705.55" width="39.06" height="39.06" rx="8.38" ry="8.38"/>
    <path class="st22" d="M1248.89,722.61l-4.97-4.97v-6.89c0-.24-.19-.43-.43-.43h-3.07c-.24,0-.43.19-.43.43v2.96l-4.53-4.53c-.58-.57-1.51-.57-2.08,0l-13.45,13.44c-.87.87-.35,2.36.87,2.5l2.17.25v14.55c0,.81.66,1.47,1.47,1.47h6.34v-10.56c0-.71.57-1.28,1.28-1.28h4.7c.71,0,1.28.57,1.28,1.28v10.56h6.34c.81,0,1.47-.66,1.47-1.47v-14.56l2.17-.26c1.22-.14,1.74-1.64.87-2.5Z"/>
  </g>
</svg>