<?xml version="1.0" encoding="UTF-8"?>
<svg id="Layer_1" xmlns="http://www.w3.org/2000/svg" xmlns:xlink="http://www.w3.org/1999/xlink" version="1.1" viewBox="0 0 1280 768">
  <!-- Generator: Adobe Illustrator 30.0.0, SVG Export Plug-In . SVG Version: 2.1.1 Build 123)  -->
  <defs>
    <style>
      .st0 {
        filter: url(#drop-shadow-6);
      }

      .st1 {
        fill: url(#linear-gradient1);
      }

      .st2 {
        fill: url(#linear-gradient6);
      }

      .st3 {
        fill: url(#linear-gradient7);
      }

      .st4 {
        fill: url(#linear-gradient9);
      }

      .st4, .st5, .st6, .st7, .st8, .st9, .st10, .st11 {
        opacity: .7;
      }

      .st5 {
        fill: url(#linear-gradient8);
      }

      .st6 {
        fill: url(#linear-gradient3);
      }

      .st7 {
        fill: url(#linear-gradient4);
      }

      .st8 {
        fill: url(#linear-gradient5);
      }

      .st9 {
        fill: url(#linear-gradient2);
      }

      .st9, .st12 {
        fill-rule: evenodd;
      }

      .st13 {
        fill: #2b388f;
      }

      .st14 {
        fill: url(#radial-gradient);
      }

      .st15 {
        fill: url(#linear-gradient);
      }

      .st16 {
        stroke-width: 3.95px;
      }

      .st16, .st17, .st18, .st19 {
        stroke: #fff;
      }

      .st16, .st20, .st21, .st22 {
        stroke-miterlimit: 10;
      }

      .st16, .st23, .st24 {
        fill: #243a78;
      }

      .st17 {
        stroke-width: 1.45px;
      }

      .st17, .st18, .st19 {
        fill: none;
        stroke-linejoin: round;
      }

      .st18 {
        stroke-width: 1.74px;
      }

      .st25, .st26, .st27, .st20, .st21, .st28, .st29, .st30, .st31, .st32 {
        fill: #fff;
      }

      .st25, .st26, .st27, .st23, .st33, .st30 {
        font-weight: 700;
      }

      .st25, .st26, .st33, .st30 {
        font-family: Arial-BoldMT, Arial;
      }

      .st25, .st31 {
        font-size: 19.23px;
      }

      .st26 {
        font-size: 19.27px;
      }

      .st34 {
        filter: url(#drop-shadow-30);
      }

      .st10 {
        fill: url(#linear-gradient11);
      }

      .st11 {
        fill: url(#linear-gradient10);
      }

      .st35, .st36 {
        fill: #000b8c;
      }

      .st27 {
        font-size: 30px;
      }

      .st27, .st23 {
        font-family: MyriadPro-Bold, 'Myriad Pro';
      }

      .st12 {
        fill: #233b78;
      }

      .st20, .st21 {
        stroke: #2b388f;
        stroke-width: 2.63px;
      }

      .st20, .st21, .st28, .st29 {
        font-family: BerkshireSwash-Regular, 'Berkshire Swash';
      }

      .st20, .st28 {
        font-size: 34.66px;
      }

      .st21, .st29 {
        font-size: 27.67px;
      }

      .st23 {
        font-size: 25px;
      }

      .st37 {
        letter-spacing: -.07em;
      }

      .st36 {
        font-family: GloriolaSemiBold-Regular, Gloriola;
        font-size: 20.34px;
      }

      .st22 {
        fill: url(#radial-gradient1);
        stroke: #000b8c;
        stroke-width: 1.6px;
      }

      .st33 {
        fill: #414141;
        font-size: 24.1px;
      }

      .st30, .st32 {
        font-size: 15.98px;
      }

      .st19 {
        stroke-width: 2.96px;
      }

      .st31, .st32 {
        font-family: ArialMT, Arial;
      }
    </style>
    <radialGradient id="radial-gradient" cx="639.31" cy="384" fx="639.31" fy="384" r="527.76" gradientUnits="userSpaceOnUse">
      <stop offset="0" stop-color="#fff"/>
      <stop offset="1" stop-color="#edffff"/>
    </radialGradient>
    <filter id="drop-shadow-6" x="34.27" y="676.63" width="153.04" height="81.56" filterUnits="userSpaceOnUse">
      <feOffset dx="3.73" dy="3.73"/>
      <feGaussianBlur result="blur" stdDeviation="3.73"/>
      <feFlood flood-color="#231f20" flood-opacity=".4"/>
      <feComposite in2="blur" operator="in"/>
      <feComposite in="SourceGraphic"/>
    </filter>
    <linearGradient id="linear-gradient" x1="1746.68" y1="144.85" x2="583.05" y2="140.19" gradientUnits="userSpaceOnUse">
      <stop offset="0" stop-color="#fff" stop-opacity="0"/>
      <stop offset=".68" stop-color="#2b388f"/>
    </linearGradient>
    <linearGradient id="linear-gradient1" x1="922.3" y1="363.8" x2="990.24" y2="363.8" gradientUnits="userSpaceOnUse">
      <stop offset="0" stop-color="#1b75bb"/>
      <stop offset=".63" stop-color="#00a4e6"/>
      <stop offset=".81" stop-color="#0e8ace"/>
      <stop offset="1" stop-color="#1b75bb"/>
    </linearGradient>
    <linearGradient id="linear-gradient2" x1="854.35" y1="385.28" x2="985.47" y2="385.28" gradientUnits="userSpaceOnUse">
      <stop offset="0" stop-color="#ee5b98"/>
      <stop offset="1" stop-color="#7b5ba5"/>
    </linearGradient>
    <linearGradient id="linear-gradient3" x1="261.15" y1="610.57" x2="577.67" y2="610.57" gradientTransform="translate(244.15) scale(.95 1)" xlink:href="#linear-gradient2"/>
    <linearGradient id="linear-gradient4" x1="261.15" y1="650.09" x2="577.67" y2="650.09" gradientTransform="translate(244.15) scale(.95 1)" gradientUnits="userSpaceOnUse">
      <stop offset="0" stop-color="#00adee"/>
      <stop offset="1" stop-color="#2e3191"/>
    </linearGradient>
    <linearGradient id="linear-gradient5" x1="261.15" y1="691.21" x2="577.67" y2="691.21" gradientTransform="translate(244.15) scale(.95 1)" xlink:href="#linear-gradient2"/>
    <linearGradient id="linear-gradient6" x1="488.58" y1="568.29" x2="796.3" y2="568.29" xlink:href="#linear-gradient1"/>
    <linearGradient id="linear-gradient7" x1="139.64" y1="322.26" x2="394.78" y2="322.26" xlink:href="#linear-gradient1"/>
    <linearGradient id="linear-gradient8" x1="144.74" y1="357.97" x2="394.2" y2="357.97" xlink:href="#linear-gradient2"/>
    <linearGradient id="linear-gradient9" x1="142.41" y1="390.97" x2="391.87" y2="390.97" gradientTransform="matrix(1,0,0,1,0,0)" xlink:href="#linear-gradient4"/>
    <linearGradient id="linear-gradient10" x1="142.41" y1="425.15" x2="391.87" y2="425.15" xlink:href="#linear-gradient2"/>
    <linearGradient id="linear-gradient11" x1="-107.22" y1="459.05" x2="155.87" y2="459.05" xlink:href="#linear-gradient4"/>
    <filter id="drop-shadow-30" x="1214.08" y="704.75" width="40.65" height="40.65" filterUnits="userSpaceOnUse">
      <feOffset dx="5.59" dy="5.59"/>
      <feGaussianBlur result="blur1" stdDeviation="3.99"/>
      <feFlood flood-color="#000" flood-opacity=".75"/>
      <feComposite in2="blur1" operator="in"/>
      <feComposite in="SourceGraphic"/>
    </filter>
    <radialGradient id="radial-gradient1" cx="1234.41" cy="725.08" fx="1234.41" fy="725.08" r="19.53" gradientUnits="userSpaceOnUse">
      <stop offset="0" stop-color="#fff"/>
      <stop offset="1" stop-color="#f1f1f1"/>
    </radialGradient>
  </defs>
  <g>
    <rect class="st14" x="-.69" width="1280" height="768"/>
    <g class="st0">
      <text class="st20" transform="translate(67.5 711.56) rotate(-.27)"><tspan x="0" y="0">Eternal </tspan></text>
      <g>
        <g>
          <path class="st16" d="M64.28,714.95c-.11.14-.15.32-.11.5l2.71,12.04c.06.27.3.46.58.46h.57c.9-2.06,1.4-4.34,1.39-6.73-.01-2.31-.5-4.51-1.36-6.51l-3.32.02c-.18,0-.35.08-.46.22Z"/>
          <path class="st16" d="M38.85,728.11l2.6-12.07c.04-.17,0-.36-.12-.5-.11-.14-.28-.22-.46-.22l-3.52.02c-.72,1.87-1.11,3.9-1.1,6.03.01,2.58.61,5.03,1.68,7.2h.35c.28,0,.52-.2.57-.47Z"/>
          <path class="st16" d="M65.02,724.41l-2.02-8.85c-.12-.54-.61-.92-1.16-.92-.02,0-.05,0-.07,0l-7.09.47c-.27.02-.52.13-.72.31l-.29.26-.31-.28c-.22-.2-.5-.3-.79-.3h-2.94s-5.96.04-5.96.04c-.55,0-1.03.39-1.15.93l-2.05,9.38c-.08.38.02.77.28,1.05.23.25.54.38.87.38.05,0,.1,0,.15-.01l2.8-.37,7.52,5.81.78.72c.23.21.52.31.81.31.08,0,.15,0,.23-.02.26-.02.51-.13.71-.32l5.35-5.04,2.64-2.44.93.27c.11.03.22.05.33.05.3,0,.58-.11.81-.32.3-.29.43-.71.34-1.12ZM60.39,725.96s-.04-.04-.06-.06l-5.08-4.65c-.24-.22-.61-.2-.83.04-.22.24-.2.61.04.83l5.08,4.64-.37.35-.83.78s0,0,0-.01c-.03-.04-.06-.08-.1-.11l-4.22-3.72c-.24-.22-.62-.19-.83.05-.22.24-.19.62.05.83l4.22,3.72s.02.01.02.02c0,0,.01,0,.02.01l-1.22,1.15s-.01-.02-.02-.04c-.03-.05-.07-.1-.12-.15l-3.46-3.05c-.24-.22-.62-.19-.83.05-.22.24-.19.62.05.83l3.46,3.05s.04.03.05.04c.02.01.03.02.05.03l-.56.52s-.02-.04-.03-.06c-.04-.08-.09-.16-.17-.22l-.84-.67c-.25-.2-.63-.16-.83.09l-.6.75-.03.04-.5-.39.07-.08.59-.74c.2-.26.16-.63-.09-.83l-.84-.67c-.26-.2-.63-.16-.83.09l-.48.61-.19.24-.5-.39.22-.28.6-.76c.2-.26.16-.63-.09-.83l-.84-.67c-.25-.2-.63-.16-.83.09l-.5.63-.35.44-.31-.24-.19-.15s.01,0,.02-.01c.05-.03.09-.07.13-.11l.26-.33.62-.78c.2-.26.16-.63-.09-.83l-.84-.67c-.26-.2-.63-.16-.83.09l-.51.65-.37.46s0,0,0,0c-.05.06-.08.13-.1.2l-.71-.55-.33.04-2.96.39,2.05-9.38,5.96-.03h2.94s.23.19.23.19l.1.09-1.84,2.31-.75.95s-.35.39-.32.84c.01.16.07.32.22.48.68.74,2.23.16,2.23.16l1.92-2.31s.25-.33.69-.5l6.79,6.1-1.44,1.36Z"/>
        </g>
        <path class="st16" d="M54.08,755.22l1.79-19.93c.03-.29-.06-.58-.24-.79-.18-.21-.43-.32-.68-.3l-3.96.49c-.72,3.13-.96,6.48-.62,9.93.41,4.19.68,8.08,2.49,11.47l.48-.05c.39-.04.69-.38.73-.83Z"/>
      </g>
      <text class="st21" transform="translate(65.3 747.4) rotate(-.27)"><tspan x="0" y="0">rust</tspan></text>
      <text class="st28" transform="translate(67.5 711.56) rotate(-.27)"><tspan x="0" y="0">Eternal </tspan></text>
      <g>
        <g>
          <path class="st24" d="M64.28,714.95c-.11.14-.15.32-.11.5l2.71,12.04c.06.27.3.46.58.46h.57c.9-2.06,1.4-4.34,1.39-6.73-.01-2.31-.5-4.51-1.36-6.51l-3.32.02c-.18,0-.35.08-.46.22Z"/>
          <path class="st24" d="M38.85,728.11l2.6-12.07c.04-.17,0-.36-.12-.5-.11-.14-.28-.22-.46-.22l-3.52.02c-.72,1.87-1.11,3.9-1.1,6.03.01,2.58.61,5.03,1.68,7.2h.35c.28,0,.52-.2.57-.47Z"/>
          <path class="st24" d="M65.02,724.41l-2.02-8.85c-.12-.54-.61-.92-1.16-.92-.02,0-.05,0-.07,0l-7.09.47c-.27.02-.52.13-.72.31l-.29.26-.31-.28c-.22-.2-.5-.3-.79-.3h-2.94s-5.96.04-5.96.04c-.55,0-1.03.39-1.15.93l-2.05,9.38c-.08.38.02.77.28,1.05.23.25.54.38.87.38.05,0,.1,0,.15-.01l2.8-.37,7.52,5.81.78.72c.23.21.52.31.81.31.08,0,.15,0,.23-.02.26-.02.51-.13.71-.32l5.35-5.04,2.64-2.44.93.27c.11.03.22.05.33.05.3,0,.58-.11.81-.32.3-.29.43-.71.34-1.12ZM60.39,725.96s-.04-.04-.06-.06l-5.08-4.65c-.24-.22-.61-.2-.83.04-.22.24-.2.61.04.83l5.08,4.64-.37.35-.83.78s0,0,0-.01c-.03-.04-.06-.08-.1-.11l-4.22-3.72c-.24-.22-.62-.19-.83.05-.22.24-.19.62.05.83l4.22,3.72s.02.01.02.02c0,0,.01,0,.02.01l-1.22,1.15s-.01-.02-.02-.04c-.03-.05-.07-.1-.12-.15l-3.46-3.05c-.24-.22-.62-.19-.83.05-.22.24-.19.62.05.83l3.46,3.05s.04.03.05.04c.02.01.03.02.05.03l-.56.52s-.02-.04-.03-.06c-.04-.08-.09-.16-.17-.22l-.84-.67c-.25-.2-.63-.16-.83.09l-.6.75-.03.04-.5-.39.07-.08.59-.74c.2-.26.16-.63-.09-.83l-.84-.67c-.26-.2-.63-.16-.83.09l-.48.61-.19.24-.5-.39.22-.28.6-.76c.2-.26.16-.63-.09-.83l-.84-.67c-.25-.2-.63-.16-.83.09l-.5.63-.35.44-.31-.24-.19-.15s.01,0,.02-.01c.05-.03.09-.07.13-.11l.26-.33.62-.78c.2-.26.16-.63-.09-.83l-.84-.67c-.26-.2-.63-.16-.83.09l-.51.65-.37.46s0,0,0,0c-.05.06-.08.13-.1.2l-.71-.55-.33.04-2.96.39,2.05-9.38,5.96-.03h2.94s.23.19.23.19l.1.09-1.84,2.31-.75.95s-.35.39-.32.84c.01.16.07.32.22.48.68.74,2.23.16,2.23.16l1.92-2.31s.25-.33.69-.5l6.79,6.1-1.44,1.36Z"/>
        </g>
        <path class="st24" d="M54.08,755.22l1.79-19.93c.03-.29-.06-.58-.24-.79-.18-.21-.43-.32-.68-.3l-3.96.49c-.72,3.13-.96,6.48-.62,9.93.41,4.19.68,8.08,2.49,11.47l.48-.05c.39-.04.69-.38.73-.83Z"/>
      </g>
      <text class="st29" transform="translate(65.3 747.4) rotate(-.27)"><tspan x="0" y="0">rust</tspan></text>
    </g>
    <g>
      <path class="st13" d="M1278.69,723.58H249.65c-1.93,0-1.93,3,0,3h1029.03c1.93,0,1.93-3,0-3h0Z"/>
      <circle class="st13" cx="237.9" cy="725.53" r="4.9"/>
      <circle class="st13" cx="223.95" cy="725.53" r="4.9"/>
      <circle class="st13" cx="209.99" cy="725.53" r="4.9"/>
    </g>
    <g>
      <path class="st13" d="M-.69,55.81h1036.47c1.93,0,1.93-3,0-3H-.69c-1.93,0-1.93,3,0,3h0Z"/>
      <circle class="st13" cx="1047.53" cy="53.86" r="4.9"/>
      <circle class="st13" cx="1061.48" cy="53.86" r="4.9"/>
      <circle class="st13" cx="1075.44" cy="53.86" r="4.9"/>
    </g>
    <g>
      <path class="st24" d="M1153.69,56.45c-.16-4.27-.32-9.38-.32-14.6h-.11c-1.16,4.53-2.64,9.6-4.01,13.76l-4.32,13.87h-6.27l-3.79-13.71c-1.16-4.22-2.32-9.23-3.22-13.92h-.1c-.16,4.8-.37,10.28-.58,14.71l-.69,13.5h-7.44l2.27-35.53h10.7l3.48,11.92c1.16,4.06,2.21,8.49,3,12.65h.21c.95-4.11,2.16-8.75,3.37-12.76l3.74-11.81h10.54l1.9,35.53h-7.8l-.58-13.6Z"/>
      <path class="st24" d="M1170.14,40.9c-2.69,0-4.43-1.9-4.43-4.27s1.79-4.27,4.53-4.27,4.43,1.85,4.48,4.27c0,2.37-1.74,4.27-4.53,4.27h-.05ZM1166.19,44.27h8.01v25.78h-8.01v-25.78Z"/>
      <path class="st24" d="M1184.69,44.27l2.53,4.32c.74,1.32,1.42,2.58,2.11,3.85h.11c.69-1.42,1.32-2.69,2-4.01l2.27-4.16h8.7l-8.49,12.28,8.59,13.5h-9.07l-2.58-4.64c-.74-1.27-1.42-2.58-2-3.9h-.16c-.63,1.37-1.32,2.64-1.95,3.9l-2.42,4.64h-8.81l8.75-13.13-8.54-12.65h8.96Z"/>
      <path class="st24" d="M1207.79,40.9c-2.69,0-4.43-1.9-4.43-4.27s1.79-4.27,4.53-4.27,4.43,1.85,4.48,4.27c0,2.37-1.74,4.27-4.53,4.27h-.05ZM1203.83,44.27h8.01v25.78h-8.01v-25.78Z"/>
      <path class="st24" d="M1217.17,70.05v-19.87h-3.43v-5.9h3.43v-1c0-3.11.95-6.54,3.22-8.65,2.05-1.9,4.8-2.58,7.17-2.58,1.74,0,3.11.26,4.22.53l-.32,6.17c-.69-.21-1.53-.37-2.58-.37-2.64,0-3.74,2.06-3.74,4.59v1.32h5.17v5.9h-5.11v19.87h-8.01Z"/>
      <path class="st24" d="M1186.31,80.91c-.37.19-1.13.38-2.1.38-2.25,0-3.93-1.42-3.93-4.04s1.69-4.19,4.16-4.19c.98,0,1.62.21,1.89.35l-.26.84c-.38-.19-.94-.33-1.6-.33-1.87,0-3.11,1.2-3.11,3.29,0,1.96,1.12,3.21,3.05,3.21.64,0,1.28-.13,1.69-.33l.2.83Z"/>
      <path class="st24" d="M1188.62,78.47c.02,1.41.91,1.99,1.95,1.99.75,0,1.21-.13,1.59-.29l.19.73c-.37.16-1,.37-1.92.37-1.75,0-2.81-1.17-2.81-2.88s1.03-3.1,2.7-3.1c1.87,0,2.35,1.64,2.35,2.7,0,.21,0,.38-.03.5h-4.01ZM1191.66,77.73c0-.65-.27-1.69-1.43-1.69-1.06,0-1.51.97-1.6,1.69h3.03Z"/>
      <path class="st24" d="M1194.64,81.16v-4.93h-.79v-.79h.79v-.27c0-.8.19-1.54.68-2,.39-.38.91-.53,1.38-.53.38,0,.69.08.89.16l-.13.81c-.17-.07-.37-.13-.67-.13-.88,0-1.11.78-1.11,1.66v.31h1.38v.79h-1.37v4.93h-1.04Z"/>
      <path class="st24" d="M1199.08,74.38c-.39,0-.65-.31-.65-.67s.27-.66.67-.66.66.3.66.66-.26.67-.67.67h-.01ZM1198.59,75.43h1.04v5.72h-1.04v-5.72Z"/>
      <path class="st24" d="M1202.42,75.43l.82,1.22c.21.33.39.62.58.94h.03c.19-.33.38-.63.58-.94l.79-1.22h1.14l-1.95,2.77,2,2.96h-1.18l-.84-1.29c-.22-.33-.41-.65-.61-.99h-.02c-.19.34-.39.65-.6.99l-.83,1.29h-1.15l2.03-2.92-1.94-2.8h1.16Z"/>
      <path class="st24" d="M1208.49,74.38c-.39,0-.65-.31-.65-.67s.27-.66.68-.66.66.3.66.66-.26.67-.68.67h-.01ZM1208,75.43h1.04v5.72h-1.04v-5.72Z"/>
      <path class="st24" d="M1211.35,76.98c0-.6-.02-1.07-.05-1.55h.91l.05.92h.03c.32-.54.85-1.05,1.81-1.05.77,0,1.36.47,1.61,1.15h.02c.18-.33.41-.57.65-.74.34-.26.71-.4,1.25-.4.77,0,1.89.5,1.89,2.48v3.37h-1.02v-3.24c0-1.11-.42-1.76-1.24-1.76-.6,0-1.05.44-1.24.93-.05.15-.08.35-.08.52v3.55h-1.02v-3.43c0-.92-.4-1.57-1.2-1.57-.64,0-1.12.52-1.29,1.04-.06.15-.08.33-.08.51v3.45h-1.02v-4.18Z"/>
      <path class="st24" d="M1222.39,78.47c.02,1.41.91,1.99,1.95,1.99.74,0,1.21-.13,1.58-.29l.19.73c-.37.16-1,.37-1.92.37-1.75,0-2.81-1.17-2.81-2.88s1.03-3.1,2.7-3.1c1.87,0,2.36,1.64,2.36,2.7,0,.21-.01.38-.04.5h-4.01ZM1225.43,77.73c0-.65-.27-1.69-1.43-1.69-1.06,0-1.51.97-1.6,1.69h3.03Z"/>
      <path class="st24" d="M1240.65,32.72c2.32,0,4.17,1.89,4.17,4.21s-1.85,4.23-4.19,4.23-4.21-1.87-4.21-4.23,1.89-4.21,4.21-4.21h.02ZM1240.61,33.56c-1.76,0-3.18,1.52-3.18,3.39s1.42,3.37,3.2,3.37c1.78.02,3.22-1.48,3.22-3.37s-1.44-3.39-3.22-3.39h-.02ZM1239.9,39.38h-.99v-4.68c.37-.06.79-.13,1.5-.13.8,0,1.29.13,1.61.37.26.21.41.52.41,1.01,0,.56-.39.95-.9,1.09v.04c.41.07.67.45.75,1.14.09.73.19,1.01.26,1.16h-1.03c-.11-.17-.19-.58-.28-1.22-.07-.51-.37-.71-.88-.71h-.45v1.93ZM1239.9,36.69h.47c.58,0,1.03-.19,1.03-.67,0-.39-.28-.69-.95-.69-.24,0-.41,0-.54.02v1.35Z"/>
    </g>
  </g>
  <rect class="st15" x=".27" y="97.49" width="1280.38" height="85.86"/>
  <g>
    <text class="st27" transform="translate(74.54 134.98)"><tspan x="0" y="0">Cefixime is effective against most frequently identified pathogen in Bacterial </tspan><tspan x="0" y="36">Gastroenteritis</tspan></text>
    <text class="st27" transform="translate(275.72 160.99) scale(.58)"><tspan x="0" y="0">1</tspan></text>
  </g>
  <g>
    <text class="st23" transform="translate(96.34 229.5)"><tspan x="0" y="0">Global estimates for the prevalence of specific </tspan><tspan x="0" y="30">types of bacterial diarrhea among all diarrheal </tspan><tspan x="0" y="60">causes</tspan></text>
    <text class="st23" transform="translate(170.29 281.17) scale(.58)"><tspan x="0" y="0">16</tspan></text>
  </g>
  <circle class="st13" cx="82.7" cy="221.41" r="8.16"/>
  <g>
    <text class="st23" transform="translate(96.34 526.61)"><tspan x="0" y="0">The proportion of bacterial pathogens resulting in foodborne diarrheal illness in the U.S.</tspan></text>
    <text class="st23" transform="translate(1077.14 518.29) scale(.58)"><tspan x="0" y="0">16</tspan></text>
  </g>
  <circle class="st13" cx="82.7" cy="518.53" r="8.16"/>
  <circle class="st13" cx="662.01" cy="221.41" r="8.16"/>
  <g>
    <text class="st23" transform="translate(682.57 229.57)"><tspan x="0" y="0">Bacterial diarrhea in the U.S was estimated to be </tspan><tspan x="0" y="30">approximately </tspan><tspan x="168.92" y="30">%</tspan><tspan x="190.92" y="30">31</tspan><tspan x="218.67" y="30" xml:space="preserve"> of all diarrheas</tspan></text>
    <text class="st23" transform="translate(1072.15 251.25) scale(.58)"><tspan x="0" y="0">16</tspan></text>
  </g>
  <g>
    <text class="st36" transform="translate(835.84 310.18)"><tspan x="0" y="0">Bacterial diarrhea</tspan></text>
    <text class="st36" transform="translate(839.04 475.77)"><tspan x="0" y="0">Bacterial diarrhea</tspan></text>
    <path class="st12" d="M922.3,317.33c37.52,0,67.94,30.42,67.94,67.94,0,8.56-1.62,17.05-4.77,25.01l-15.79-6.25c10.36-26.16-2.45-55.77-28.62-66.13-5.97-2.36-12.34-3.58-18.76-3.58v-16.99Z"/>
    <path class="st1" d="M922.3,317.33c37.52,0,67.94,30.42,67.94,67.94,0,8.56-1.62,17.05-4.77,25.01l-15.79-6.25c10.36-26.16-2.45-55.77-28.62-66.13-5.97-2.36-12.34-3.58-18.76-3.58v-16.99Z"/>
    <path class="st9" d="M985.47,410.28c-13.81,34.88-53.29,51.97-88.18,38.16-34.89-13.82-51.97-53.29-38.16-88.18,10.26-25.91,35.3-42.93,63.17-42.93v16.99c-28.14,0-50.95,22.81-50.95,50.95s22.81,50.96,50.95,50.96c20.9,0,39.68-12.76,47.38-32.2l15.79,6.25Z"/>
    <path class="st19" d="M985.47,410.28c-13.81,34.88-53.29,51.97-88.18,38.16-34.89-13.81-51.97-53.29-38.16-88.18,10.26-25.91,35.3-42.93,63.17-42.93v16.99c-28.14,0-50.95,22.81-50.95,50.95s22.81,50.96,50.95,50.96c20.9,0,39.68-12.76,47.38-32.2l15.79,6.25Z"/>
    <text class="st33" transform="translate(903.09 395.22)"><tspan x="0" y="0">31%</tspan></text>
  </g>
  <g>
    <path class="st6" d="M779.74,627.15h-275.81c-6.68,0-12.15-5.77-12.15-12.82v-7.52c0-7.05,5.47-12.82,12.15-12.82h275.81c6.68,0,12.15,5.77,12.15,12.82v7.52c0,7.05-5.47,12.82-12.15,12.82Z"/>
    <path class="st7" d="M779.74,666.66h-275.81c-6.68,0-12.15-5.77-12.15-12.82v-7.52c0-7.05,5.47-12.82,12.15-12.82h275.81c6.68,0,12.15,5.77,12.15,12.82v7.52c0,7.05-5.47,12.82-12.15,12.82Z"/>
    <path class="st8" d="M779.74,707.79h-275.81c-6.68,0-12.15-5.77-12.15-12.82v-7.52c0-7.05,5.47-12.82,12.15-12.82h275.81c6.68,0,12.15,5.77,12.15,12.82v7.52c0,7.05-5.47,12.82-12.15,12.82Z"/>
    <text class="st31" transform="translate(522.23 615.98)"><tspan x="0" y="0">Salmonella </tspan></text>
    <text class="st31" transform="translate(502.68 655.39)"><tspan x="0" y="0">Campylobacter</tspan></text>
    <text class="st31" transform="translate(523.39 698.21)"><tspan x="0" y="0">Shigella </tspan></text>
    <text class="st31" transform="translate(690.26 616.19)"><tspan x="0" y="0">15.4% </tspan></text>
    <text class="st31" transform="translate(691.91 655.15)"><tspan class="st37" x="0" y="0">1</tspan><tspan x="9.27" y="0">1.8% </tspan></text>
    <text class="st31" transform="translate(694.17 696.87)"><tspan x="0" y="0" xml:space="preserve">4.6%  </tspan></text>
    <line class="st18" x1="641.83" y1="593.62" x2="641.83" y2="627.15"/>
    <line class="st18" x1="641.83" y1="632.63" x2="641.83" y2="666.66"/>
    <line class="st18" x1="641.83" y1="673.89" x2="641.83" y2="707.79"/>
    <path class="st2" d="M498.79,548.63h287.3c5.63,0,10.21,4.57,10.21,10.21v18.9c0,5.63-4.57,10.21-10.21,10.21h-287.31c-5.63,0-10.21-4.57-10.21-10.21v-18.9c0-5.63,4.57-10.21,10.21-10.21Z"/>
    <text class="st26" transform="translate(501.56 574.85)"><tspan x="0" y="0">Pathogen </tspan></text>
    <text class="st25" transform="translate(651.35 574.82)"><tspan x="0" y="0">Proportion </tspan></text>
    <line class="st18" x1="642.36" y1="546.89" x2="642.36" y2="587.95"/>
  </g>
  <path class="st13" d="M129.76,488.93h996.79c6.41,0,6.42-3,0-3H129.76c-6.41,0-6.42,3,0,3"/>
  <g>
    <path class="st13" d="M1144.91,486.98c0,2.71-2.2,4.9-4.9,4.9s-4.9-2.2-4.9-4.9,2.2-4.9,4.9-4.9,4.9,2.2,4.9,4.9"/>
    <path class="st13" d="M1158.87,486.98c0,2.71-2.2,4.9-4.9,4.9s-4.9-2.2-4.9-4.9,2.2-4.9,4.9-4.9,4.9,2.2,4.9,4.9"/>
    <path class="st13" d="M1172.82,486.98c0,2.71-2.2,4.9-4.9,4.9s-4.9-2.2-4.9-4.9,2.2-4.9,4.9-4.9,4.9,2.2,4.9,4.9"/>
  </g>
  <g>
    <path class="st13" d="M641.21,191.23v31.47s0,161.68,0,161.68v37.04c0,1.93-3,1.93-3,0v-101.47s0-91.68,0-91.68v-37.04c0-1.93,3-1.93,3,0"/>
    <path class="st13" d="M639.26,438.08c2.71,0,4.9-2.2,4.9-4.9s-2.2-4.9-4.9-4.9c-2.71,0-4.9,2.2-4.9,4.9,0,2.71,2.2,4.9,4.9,4.9"/>
    <path class="st13" d="M639.26,452.04c2.71,0,4.9-2.2,4.9-4.9s-2.2-4.9-4.9-4.9c-2.71,0-4.9,2.2-4.9,4.9,0,2.71,2.2,4.9,4.9,4.9"/>
    <path class="st13" d="M639.26,465.99c2.71,0,4.9-2.2,4.9-4.9s-2.2-4.9-4.9-4.9c-2.71,0-4.9,2.2-4.9,4.9s2.2,4.9,4.9,4.9"/>
  </g>
  <g>
    <path class="st3" d="M148.1,305.96h238.21c4.67,0,8.46,3.79,8.46,8.46v15.67c0,4.67-3.79,8.46-8.46,8.46h-238.21c-4.67,0-8.46-3.79-8.46-8.46v-15.67c0-4.67,3.79-8.46,8.46-8.46Z"/>
    <text class="st30" transform="translate(151.58 327.7)"><tspan x="0" y="0">Pathogen </tspan></text>
    <text class="st30" transform="translate(274.59 327.7)"><tspan x="0" y="0">Prevalence % </tspan></text>
    <path class="st5" d="M384.09,371.75h-229.26c-5.56,0-10.1-4.79-10.1-10.65v-6.26c0-5.86,4.54-10.65,10.1-10.65h229.26c5.56,0,10.1,4.8,10.1,10.65v6.26c0,5.86-4.55,10.65-10.1,10.65Z"/>
    <path class="st4" d="M381.77,404.75h-229.26c-5.56,0-10.1-4.79-10.1-10.65v-6.25c0-5.86,4.54-10.65,10.1-10.65h229.26c5.56,0,10.1,4.79,10.1,10.65v6.25c0,5.86-4.55,10.65-10.1,10.65Z"/>
    <path class="st11" d="M381.77,438.93h-229.26c-5.56,0-10.1-4.8-10.1-10.65v-6.25c0-5.86,4.54-10.65,10.1-10.65h229.26c5.56,0,10.1,4.79,10.1,10.65v6.25c0,5.86-4.55,10.65-10.1,10.65Z"/>
    <path class="st10" d="M381.84,472.83h-229.26c-5.56,0-10.1-4.79-10.1-10.65v-6.25c0-5.86,4.55-10.65,10.1-10.65h229.26c5.56,0,10.1,4.8,10.1,10.65v6.25c0,5.86-4.55,10.65-10.1,10.65Z"/>
    <text class="st32" transform="translate(183.07 364.4)"><tspan x="0" y="0">E.coli </tspan></text>
    <text class="st32" transform="translate(175.74 395.3)"><tspan x="0" y="0" xml:space="preserve">Shigella  </tspan></text>
    <text class="st32" transform="translate(163.5 429.47)"><tspan x="0" y="0" xml:space="preserve">Salmonella  </tspan></text>
    <text class="st32" transform="translate(287.9 363.09)"><tspan x="0" y="0">10% - 25% </tspan></text>
    <text class="st32" transform="translate(310.99 395.11)"><tspan x="0" y="0">10% </tspan></text>
    <text class="st32" transform="translate(315.43 431.29)"><tspan x="0" y="0" xml:space="preserve">3%  </tspan></text>
    <text class="st32" transform="translate(296.78 464.98)"><tspan x="0" y="0">3% - 6% </tspan></text>
    <line class="st17" x1="267.14" y1="304.51" x2="267.14" y2="338.56"/>
    <line class="st17" x1="267.14" y1="344.03" x2="267.14" y2="371.9"/>
    <line class="st17" x1="267.14" y1="376.46" x2="267.14" y2="404.75"/>
    <line class="st17" x1="267.14" y1="410.76" x2="267.14" y2="438.93"/>
    <line class="st17" x1="267.14" y1="444.66" x2="267.14" y2="472.83"/>
    <text class="st32" transform="translate(149.3 464.24)"><tspan x="0" y="0" xml:space="preserve">Campylobacter  </tspan></text>
  </g>
  <g class="st34">
    <rect class="st22" x="1214.88" y="705.55" width="39.06" height="39.06" rx="8.38" ry="8.38"/>
    <path class="st35" d="M1248.89,722.61l-4.97-4.97v-6.89c0-.24-.19-.43-.43-.43h-3.07c-.24,0-.43.19-.43.43v2.96l-4.53-4.53c-.58-.57-1.51-.57-2.08,0l-13.45,13.44c-.87.87-.35,2.36.87,2.5l2.17.25v14.55c0,.81.66,1.47,1.47,1.47h6.34v-10.56c0-.71.57-1.28,1.28-1.28h4.7c.71,0,1.28.57,1.28,1.28v10.56h6.34c.81,0,1.47-.66,1.47-1.47v-14.56l2.17-.26c1.22-.14,1.74-1.64.87-2.5Z"/>
  </g>
</svg>