<?xml version="1.0" encoding="UTF-8"?>
<svg id="Layer_1" xmlns="http://www.w3.org/2000/svg" xmlns:xlink="http://www.w3.org/1999/xlink" version="1.1" viewBox="0 0 1280 768">
  <!-- Generator: Adobe Illustrator 30.0.0, SVG Export Plug-In . SVG Version: 2.1.1 Build 123)  -->
  <defs>
    <style>
      .st0 {
        filter: url(#drop-shadow-18);
      }

      .st0, .st1, .st2, .st3, .st4, .st5 {
        fill: #f1f1f2;
        stroke-width: .43px;
      }

      .st0, .st1, .st2, .st3, .st4, .st5, .st6, .st7, .st8, .st9, .st10, .st11, .st12, .st13, .st14 {
        stroke-miterlimit: 10;
      }

      .st0, .st1, .st2, .st3, .st4, .st5, .st7 {
        stroke: #231f20;
      }

      .st1 {
        filter: url(#drop-shadow-16);
      }

      .st2 {
        filter: url(#drop-shadow-13);
      }

      .st3 {
        filter: url(#drop-shadow-14);
      }

      .st4 {
        filter: url(#drop-shadow-17);
      }

      .st5 {
        filter: url(#drop-shadow-15);
      }

      .st15 {
        filter: url(#drop-shadow-1);
      }

      .st16 {
        fill: url(#linear-gradient1);
      }

      .st17 {
        fill: url(#linear-gradient3);
      }

      .st18 {
        fill: url(#linear-gradient6);
      }

      .st19 {
        fill: url(#linear-gradient8);
      }

      .st20 {
        fill: url(#linear-gradient7);
      }

      .st21 {
        fill: url(#linear-gradient5);
      }

      .st22 {
        fill: url(#linear-gradient4);
      }

      .st23 {
        font-size: 10.15px;
      }

      .st23, .st24, .st25, .st26, .st27 {
        font-family: MyriadPro-Bold, 'Myriad Pro';
        font-weight: 700;
      }

      .st23, .st24, .st26, .st28, .st27, .st29, .st30 {
        fill: #231f20;
      }

      .st31 {
        fill: #2b388f;
      }

      .st32 {
        fill: url(#linear-gradient13);
      }

      .st33 {
        fill: url(#linear-gradient12);
      }

      .st34 {
        fill: url(#linear-gradient15);
      }

      .st35 {
        fill: url(#linear-gradient11);
      }

      .st36 {
        fill: url(#linear-gradient10);
      }

      .st37 {
        fill: url(#linear-gradient14);
      }

      .st38 {
        fill: url(#radial-gradient);
      }

      .st24 {
        font-size: 10.91px;
      }

      .st6 {
        stroke: #fff;
        stroke-width: 3.95px;
      }

      .st6, .st39 {
        fill: #243a78;
      }

      .st7 {
        fill: none;
        stroke-width: 1.73px;
      }

      .st40 {
        filter: url(#drop-shadow-24);
      }

      .st41 {
        fill: #000b8c;
      }

      .st8 {
        stroke: url(#linear-gradient2);
      }

      .st8, .st9 {
        stroke-width: 5.19px;
      }

      .st8, .st9, .st10, .st25, .st11, .st12, .st13, .st42, .st43 {
        fill: #fff;
      }

      .st9 {
        stroke: url(#linear-gradient9);
      }

      .st10 {
        stroke: url(#linear-gradient16);
      }

      .st10, .st12 {
        stroke-width: 2.55px;
      }

      .st25 {
        font-size: 30px;
      }

      .st11, .st13 {
        stroke: #2b388f;
        stroke-width: 2.63px;
      }

      .st11, .st13, .st42, .st43 {
        font-family: BerkshireSwash-Regular, 'Berkshire Swash';
      }

      .st11, .st42 {
        font-size: 34.66px;
      }

      .st26 {
        font-size: 14.13px;
      }

      .st12 {
        stroke: url(#linear-gradient);
      }

      .st13, .st43 {
        font-size: 27.67px;
      }

      .st28 {
        font-family: MyriadPro-Semibold, 'Myriad Pro';
        font-size: 20.21px;
        font-weight: 600;
      }

      .st14 {
        fill: url(#radial-gradient1);
        stroke: #000b8c;
        stroke-width: 1.6px;
      }

      .st27 {
        font-size: 16px;
      }

      .st29 {
        font-size: 19px;
      }

      .st29, .st30 {
        font-family: MyriadPro-Regular, 'Myriad Pro';
      }

      .st30 {
        font-size: 19.69px;
      }
    </style>
    <radialGradient id="radial-gradient" cx="641.15" cy="384" fx="641.15" fy="384" r="527.76" gradientUnits="userSpaceOnUse">
      <stop offset="0" stop-color="#fff"/>
      <stop offset="1" stop-color="#edffff"/>
    </radialGradient>
    <filter id="drop-shadow-1" x="36.11" y="676.63" width="153.04" height="81.56" filterUnits="userSpaceOnUse">
      <feOffset dx="3.73" dy="3.73"/>
      <feGaussianBlur result="blur" stdDeviation="3.73"/>
      <feFlood flood-color="#231f20" flood-opacity=".4"/>
      <feComposite in2="blur" operator="in"/>
      <feComposite in="SourceGraphic"/>
    </filter>
    <linearGradient id="linear-gradient" x1="965.81" y1="423.02" x2="1198.55" y2="423.02" gradientUnits="userSpaceOnUse">
      <stop offset="0" stop-color="#00b4bd"/>
      <stop offset="1" stop-color="#8bc53f"/>
    </linearGradient>
    <linearGradient id="linear-gradient1" x1="1747.28" y1="130.88" x2="583.74" y2="126.21" gradientUnits="userSpaceOnUse">
      <stop offset="0" stop-color="#fff" stop-opacity="0"/>
      <stop offset=".68" stop-color="#2b388f"/>
    </linearGradient>
    <linearGradient id="linear-gradient2" x1="129.27" y1="429.1" x2="510.98" y2="429.1" xlink:href="#linear-gradient"/>
    <filter id="drop-shadow-13" x="370.82" y="315.06" width="62.88" height="299.04" filterUnits="userSpaceOnUse">
      <feOffset dx="3.46" dy="3.46"/>
      <feGaussianBlur result="blur1" stdDeviation="5.19"/>
      <feFlood flood-color="#000" flood-opacity=".75"/>
      <feComposite in2="blur1" operator="in"/>
      <feComposite in="SourceGraphic"/>
    </filter>
    <linearGradient id="linear-gradient3" x1="384.73" y1="461.16" x2="413" y2="461.16" xlink:href="#linear-gradient"/>
    <filter id="drop-shadow-14" x="237.62" y="302.58" width="62.88" height="311.04" filterUnits="userSpaceOnUse">
      <feOffset dx="3.46" dy="3.46"/>
      <feGaussianBlur result="blur2" stdDeviation="5.19"/>
      <feFlood flood-color="#000" flood-opacity=".75"/>
      <feComposite in2="blur2" operator="in"/>
      <feComposite in="SourceGraphic"/>
    </filter>
    <linearGradient id="linear-gradient4" x1="251.59" y1="454.68" x2="279.86" y2="454.68" gradientUnits="userSpaceOnUse">
      <stop offset="0" stop-color="#6f58a4"/>
      <stop offset="1" stop-color="#2b388f"/>
    </linearGradient>
    <filter id="drop-shadow-15" x="304.34" y="553.38" width="62.88" height="60.24" filterUnits="userSpaceOnUse">
      <feOffset dx="3.46" dy="3.46"/>
      <feGaussianBlur result="blur3" stdDeviation="5.19"/>
      <feFlood flood-color="#000" flood-opacity=".75"/>
      <feComposite in2="blur3" operator="in"/>
      <feComposite in="SourceGraphic"/>
    </filter>
    <linearGradient id="linear-gradient5" x1="318.14" y1="580.11" x2="346.41" y2="580.11" gradientUnits="userSpaceOnUse">
      <stop offset="0" stop-color="#00b4bd"/>
      <stop offset="1" stop-color="#4c81c2"/>
    </linearGradient>
    <linearGradient id="linear-gradient6" x1="156.3" y1="636.57" x2="166.14" y2="636.57" gradientUnits="userSpaceOnUse">
      <stop offset="0" stop-color="#fbb357"/>
      <stop offset=".99" stop-color="#f16f8c"/>
      <stop offset="1" stop-color="#f16f8c"/>
    </linearGradient>
    <linearGradient id="linear-gradient7" x1="295.08" y1="636.57" x2="304.92" y2="636.57" xlink:href="#linear-gradient5"/>
    <linearGradient id="linear-gradient8" x1="361.6" y1="636.57" x2="371.43" y2="636.57" gradientUnits="userSpaceOnUse">
      <stop offset="0" stop-color="#ee5b98"/>
      <stop offset="1" stop-color="#7b5ba5"/>
    </linearGradient>
    <linearGradient id="linear-gradient9" x1="550.79" y1="429.1" x2="932.5" y2="429.1" xlink:href="#linear-gradient"/>
    <filter id="drop-shadow-16" x="792.26" y="298.5" width="63.12" height="315.6" filterUnits="userSpaceOnUse">
      <feOffset dx="3.46" dy="3.46"/>
      <feGaussianBlur result="blur4" stdDeviation="5.19"/>
      <feFlood flood-color="#000" flood-opacity=".75"/>
      <feComposite in2="blur4" operator="in"/>
      <feComposite in="SourceGraphic"/>
    </filter>
    <linearGradient id="linear-gradient10" x1="806.25" y1="452.98" x2="834.52" y2="452.98" xlink:href="#linear-gradient"/>
    <filter id="drop-shadow-17" x="659.3" y="287.94" width="62.88" height="325.68" filterUnits="userSpaceOnUse">
      <feOffset dx="3.46" dy="3.46"/>
      <feGaussianBlur result="blur5" stdDeviation="5.19"/>
      <feFlood flood-color="#000" flood-opacity=".75"/>
      <feComposite in2="blur5" operator="in"/>
      <feComposite in="SourceGraphic"/>
    </filter>
    <linearGradient id="linear-gradient11" x1="673.11" y1="447.41" x2="701.38" y2="447.41" xlink:href="#linear-gradient4"/>
    <filter id="drop-shadow-18" x="725.78" y="560.58" width="62.88" height="53.04" filterUnits="userSpaceOnUse">
      <feOffset dx="3.46" dy="3.46"/>
      <feGaussianBlur result="blur6" stdDeviation="5.19"/>
      <feFlood flood-color="#000" flood-opacity=".75"/>
      <feComposite in2="blur6" operator="in"/>
      <feComposite in="SourceGraphic"/>
    </filter>
    <linearGradient id="linear-gradient12" x1="739.65" y1="583.75" x2="767.93" y2="583.75" xlink:href="#linear-gradient5"/>
    <linearGradient id="linear-gradient13" x1="577.82" x2="587.65" xlink:href="#linear-gradient6"/>
    <linearGradient id="linear-gradient14" x1="716.6" y1="636.57" x2="726.43" y2="636.57" xlink:href="#linear-gradient5"/>
    <linearGradient id="linear-gradient15" x1="783.11" x2="792.95" xlink:href="#linear-gradient8"/>
    <linearGradient id="linear-gradient16" x1="495.19" y1="299.1" x2="565.68" y2="299.1" xlink:href="#linear-gradient"/>
    <filter id="drop-shadow-24" x="1214.08" y="704.75" width="40.65" height="40.65" filterUnits="userSpaceOnUse">
      <feOffset dx="5.59" dy="5.59"/>
      <feGaussianBlur result="blur7" stdDeviation="3.99"/>
      <feFlood flood-color="#000" flood-opacity=".75"/>
      <feComposite in2="blur7" operator="in"/>
      <feComposite in="SourceGraphic"/>
    </filter>
    <radialGradient id="radial-gradient1" cx="1234.41" cy="725.08" fx="1234.41" fy="725.08" r="19.53" gradientUnits="userSpaceOnUse">
      <stop offset="0" stop-color="#fff"/>
      <stop offset="1" stop-color="#f1f1f1"/>
    </radialGradient>
  </defs>
  <g>
    <rect class="st38" x="1.15" width="1280" height="768"/>
    <g class="st15">
      <text class="st11" transform="translate(69.34 711.56) rotate(-.27)"><tspan x="0" y="0">Eternal </tspan></text>
      <g>
        <g>
          <path class="st6" d="M66.12,714.95c-.11.14-.15.32-.11.5l2.71,12.04c.06.27.3.46.58.46h.57c.9-2.06,1.4-4.34,1.39-6.73-.01-2.31-.5-4.51-1.36-6.51l-3.32.02c-.18,0-.35.08-.46.22Z"/>
          <path class="st6" d="M40.69,728.11l2.6-12.07c.04-.17,0-.36-.12-.5-.11-.14-.28-.22-.46-.22l-3.52.02c-.72,1.87-1.11,3.9-1.1,6.03.01,2.58.61,5.03,1.68,7.2h.35c.28,0,.52-.2.57-.47Z"/>
          <path class="st6" d="M66.86,724.41l-2.02-8.85c-.12-.54-.61-.92-1.16-.92-.02,0-.05,0-.07,0l-7.09.47c-.27.02-.52.13-.72.31l-.29.26-.31-.28c-.22-.2-.5-.3-.79-.3h-2.94s-5.96.04-5.96.04c-.55,0-1.03.39-1.15.93l-2.05,9.38c-.08.38.02.77.28,1.05.23.25.54.38.87.38.05,0,.1,0,.15-.01l2.8-.37,7.52,5.81.78.72c.23.21.52.31.81.31.08,0,.15,0,.23-.02.26-.02.51-.13.71-.32l5.35-5.04,2.64-2.44.93.27c.11.03.22.05.33.05.3,0,.58-.11.81-.32.3-.29.43-.71.34-1.12ZM62.23,725.96s-.04-.04-.06-.06l-5.08-4.65c-.24-.22-.61-.2-.83.04-.22.24-.2.61.04.83l5.08,4.64-.37.35-.83.78s0,0,0-.01c-.03-.04-.06-.08-.1-.11l-4.22-3.72c-.24-.22-.62-.19-.83.05-.22.24-.19.62.05.83l4.22,3.72s.02.01.02.02c0,0,.01,0,.02.01l-1.22,1.15s-.01-.02-.02-.04c-.03-.05-.07-.1-.12-.15l-3.46-3.05c-.24-.22-.62-.19-.83.05-.22.24-.19.62.05.83l3.46,3.05s.04.03.05.04c.02.01.03.02.05.03l-.56.52s-.02-.04-.03-.06c-.04-.08-.09-.16-.17-.22l-.84-.67c-.25-.2-.63-.16-.83.09l-.6.75-.03.04-.5-.39.07-.08.59-.74c.2-.26.16-.63-.09-.83l-.84-.67c-.26-.2-.63-.16-.83.09l-.48.61-.19.24-.5-.39.22-.28.6-.76c.2-.26.16-.63-.09-.83l-.84-.67c-.25-.2-.63-.16-.83.09l-.5.63-.35.44-.31-.24-.19-.15s.01,0,.02-.01c.05-.03.09-.07.13-.11l.26-.33.62-.78c.2-.26.16-.63-.09-.83l-.84-.67c-.26-.2-.63-.16-.83.09l-.51.65-.37.46s0,0,0,0c-.05.06-.08.13-.1.2l-.71-.55-.33.04-2.96.39,2.05-9.38,5.96-.03h2.94s.23.19.23.19l.1.09-1.84,2.31-.75.95s-.35.39-.32.84c.01.16.07.32.22.48.68.74,2.23.16,2.23.16l1.92-2.31s.25-.33.69-.5l6.79,6.1-1.44,1.36Z"/>
        </g>
        <path class="st6" d="M55.92,755.22l1.79-19.93c.03-.29-.06-.58-.24-.79-.18-.21-.43-.32-.68-.3l-3.96.49c-.72,3.13-.96,6.48-.62,9.93.41,4.19.68,8.08,2.49,11.47l.48-.05c.39-.04.69-.38.73-.83Z"/>
      </g>
      <text class="st13" transform="translate(67.14 747.4) rotate(-.27)"><tspan x="0" y="0">rust</tspan></text>
      <text class="st42" transform="translate(69.34 711.56) rotate(-.27)"><tspan x="0" y="0">Eternal </tspan></text>
      <g>
        <g>
          <path class="st39" d="M66.12,714.95c-.11.14-.15.32-.11.5l2.71,12.04c.06.27.3.46.58.46h.57c.9-2.06,1.4-4.34,1.39-6.73-.01-2.31-.5-4.51-1.36-6.51l-3.32.02c-.18,0-.35.08-.46.22Z"/>
          <path class="st39" d="M40.69,728.11l2.6-12.07c.04-.17,0-.36-.12-.5-.11-.14-.28-.22-.46-.22l-3.52.02c-.72,1.87-1.11,3.9-1.1,6.03.01,2.58.61,5.03,1.68,7.2h.35c.28,0,.52-.2.57-.47Z"/>
          <path class="st39" d="M66.86,724.41l-2.02-8.85c-.12-.54-.61-.92-1.16-.92-.02,0-.05,0-.07,0l-7.09.47c-.27.02-.52.13-.72.31l-.29.26-.31-.28c-.22-.2-.5-.3-.79-.3h-2.94s-5.96.04-5.96.04c-.55,0-1.03.39-1.15.93l-2.05,9.38c-.08.38.02.77.28,1.05.23.25.54.38.87.38.05,0,.1,0,.15-.01l2.8-.37,7.52,5.81.78.72c.23.21.52.31.81.31.08,0,.15,0,.23-.02.26-.02.51-.13.71-.32l5.35-5.04,2.64-2.44.93.27c.11.03.22.05.33.05.3,0,.58-.11.81-.32.3-.29.43-.71.34-1.12ZM62.23,725.96s-.04-.04-.06-.06l-5.08-4.65c-.24-.22-.61-.2-.83.04-.22.24-.2.61.04.83l5.08,4.64-.37.35-.83.78s0,0,0-.01c-.03-.04-.06-.08-.1-.11l-4.22-3.72c-.24-.22-.62-.19-.83.05-.22.24-.19.62.05.83l4.22,3.72s.02.01.02.02c0,0,.01,0,.02.01l-1.22,1.15s-.01-.02-.02-.04c-.03-.05-.07-.1-.12-.15l-3.46-3.05c-.24-.22-.62-.19-.83.05-.22.24-.19.62.05.83l3.46,3.05s.04.03.05.04c.02.01.03.02.05.03l-.56.52s-.02-.04-.03-.06c-.04-.08-.09-.16-.17-.22l-.84-.67c-.25-.2-.63-.16-.83.09l-.6.75-.03.04-.5-.39.07-.08.59-.74c.2-.26.16-.63-.09-.83l-.84-.67c-.26-.2-.63-.16-.83.09l-.48.61-.19.24-.5-.39.22-.28.6-.76c.2-.26.16-.63-.09-.83l-.84-.67c-.25-.2-.63-.16-.83.09l-.5.63-.35.44-.31-.24-.19-.15s.01,0,.02-.01c.05-.03.09-.07.13-.11l.26-.33.62-.78c.2-.26.16-.63-.09-.83l-.84-.67c-.26-.2-.63-.16-.83.09l-.51.65-.37.46s0,0,0,0c-.05.06-.08.13-.1.2l-.71-.55-.33.04-2.96.39,2.05-9.38,5.96-.03h2.94s.23.19.23.19l.1.09-1.84,2.31-.75.95s-.35.39-.32.84c.01.16.07.32.22.48.68.74,2.23.16,2.23.16l1.92-2.31s.25-.33.69-.5l6.79,6.1-1.44,1.36Z"/>
        </g>
        <path class="st39" d="M55.92,755.22l1.79-19.93c.03-.29-.06-.58-.24-.79-.18-.21-.43-.32-.68-.3l-3.96.49c-.72,3.13-.96,6.48-.62,9.93.41,4.19.68,8.08,2.49,11.47l.48-.05c.39-.04.69-.38.73-.83Z"/>
      </g>
      <text class="st43" transform="translate(67.14 747.4) rotate(-.27)"><tspan x="0" y="0">rust</tspan></text>
    </g>
    <g>
      <path class="st31" d="M1280.53,723.58H293.27c-13.34,0-26.69-.17-40.02,0-.58,0-1.17,0-1.75,0-1.93,0-1.93,3,0,3h987.26c13.34,0,26.69.17,40.02,0,.58,0,1.17,0,1.75,0,1.93,0,1.93-3,0-3h0Z"/>
      <circle class="st31" cx="239.74" cy="725.53" r="4.9"/>
      <circle class="st31" cx="225.79" cy="725.53" r="4.9"/>
      <circle class="st31" cx="211.83" cy="725.53" r="4.9"/>
    </g>
    <g>
      <path class="st31" d="M1.15,55.81h994.39c13.43,0,26.88.17,40.31,0,.59,0,1.18,0,1.76,0,1.93,0,1.93-3,0-3H43.22c-13.43,0-26.88-.17-40.31,0-.59,0-1.18,0-1.76,0-1.93,0-1.93,3,0,3h0Z"/>
      <circle class="st31" cx="1049.37" cy="53.86" r="4.9"/>
      <circle class="st31" cx="1063.33" cy="53.86" r="4.9"/>
      <circle class="st31" cx="1077.28" cy="53.86" r="4.9"/>
    </g>
    <g>
      <path class="st39" d="M1155.53,56.45c-.16-4.27-.32-9.38-.32-14.6h-.11c-1.16,4.53-2.64,9.6-4.01,13.76l-4.32,13.87h-6.27l-3.79-13.71c-1.16-4.22-2.32-9.23-3.22-13.92h-.1c-.16,4.8-.37,10.28-.58,14.71l-.69,13.5h-7.44l2.27-35.53h10.7l3.48,11.92c1.16,4.06,2.21,8.49,3,12.65h.21c.95-4.11,2.16-8.75,3.37-12.76l3.74-11.81h10.54l1.9,35.53h-7.8l-.58-13.6Z"/>
      <path class="st39" d="M1171.98,40.9c-2.69,0-4.43-1.9-4.43-4.27s1.79-4.27,4.53-4.27,4.43,1.85,4.48,4.27c0,2.37-1.74,4.27-4.53,4.27h-.05ZM1168.03,44.27h8.01v25.78h-8.01v-25.78Z"/>
      <path class="st39" d="M1186.53,44.27l2.53,4.32c.74,1.32,1.42,2.58,2.11,3.85h.11c.69-1.42,1.32-2.69,2-4.01l2.27-4.16h8.7l-8.49,12.28,8.59,13.5h-9.07l-2.58-4.64c-.74-1.27-1.42-2.58-2-3.9h-.16c-.63,1.37-1.32,2.64-1.95,3.9l-2.42,4.64h-8.81l8.75-13.13-8.54-12.65h8.96Z"/>
      <path class="st39" d="M1209.63,40.9c-2.69,0-4.43-1.9-4.43-4.27s1.79-4.27,4.53-4.27,4.43,1.85,4.48,4.27c0,2.37-1.74,4.27-4.53,4.27h-.05ZM1205.68,44.27h8.01v25.78h-8.01v-25.78Z"/>
      <path class="st39" d="M1219.01,70.05v-19.87h-3.43v-5.9h3.43v-1c0-3.11.95-6.54,3.22-8.65,2.05-1.9,4.8-2.58,7.17-2.58,1.74,0,3.11.26,4.22.53l-.32,6.17c-.69-.21-1.53-.37-2.58-.37-2.64,0-3.74,2.06-3.74,4.59v1.32h5.17v5.9h-5.11v19.87h-8.01Z"/>
      <path class="st39" d="M1188.16,80.91c-.37.19-1.13.38-2.1.38-2.25,0-3.93-1.42-3.93-4.04s1.69-4.19,4.16-4.19c.98,0,1.62.21,1.89.35l-.26.84c-.38-.19-.94-.33-1.6-.33-1.87,0-3.11,1.2-3.11,3.29,0,1.96,1.12,3.21,3.05,3.21.64,0,1.28-.13,1.69-.33l.2.83Z"/>
      <path class="st39" d="M1190.46,78.47c.02,1.41.91,1.99,1.95,1.99.75,0,1.21-.13,1.59-.29l.19.73c-.37.16-1,.37-1.92.37-1.75,0-2.81-1.17-2.81-2.88s1.03-3.1,2.7-3.1c1.87,0,2.35,1.64,2.35,2.7,0,.21,0,.38-.03.5h-4.01ZM1193.5,77.73c0-.65-.27-1.69-1.43-1.69-1.06,0-1.51.97-1.6,1.69h3.03Z"/>
      <path class="st39" d="M1196.48,81.16v-4.93h-.79v-.79h.79v-.27c0-.8.19-1.54.68-2,.39-.38.91-.53,1.38-.53.38,0,.69.08.89.16l-.13.81c-.17-.07-.37-.13-.67-.13-.88,0-1.11.78-1.11,1.66v.31h1.38v.79h-1.37v4.93h-1.04Z"/>
      <path class="st39" d="M1200.92,74.38c-.39,0-.65-.31-.65-.67s.27-.66.67-.66.66.3.66.66-.26.67-.67.67h-.01ZM1200.43,75.43h1.04v5.72h-1.04v-5.72Z"/>
      <path class="st39" d="M1204.26,75.43l.82,1.22c.21.33.39.62.58.94h.03c.19-.33.38-.63.58-.94l.79-1.22h1.14l-1.95,2.77,2,2.96h-1.18l-.84-1.29c-.22-.33-.41-.65-.61-.99h-.02c-.19.34-.39.65-.6.99l-.83,1.29h-1.15l2.03-2.92-1.94-2.8h1.16Z"/>
      <path class="st39" d="M1210.34,74.38c-.39,0-.65-.31-.65-.67s.27-.66.68-.66.66.3.66.66-.26.67-.68.67h-.01ZM1209.84,75.43h1.04v5.72h-1.04v-5.72Z"/>
      <path class="st39" d="M1213.19,76.98c0-.6-.02-1.07-.05-1.55h.91l.05.92h.03c.32-.54.85-1.05,1.81-1.05.77,0,1.36.47,1.61,1.15h.02c.18-.33.41-.57.65-.74.34-.26.71-.4,1.25-.4.77,0,1.89.5,1.89,2.48v3.37h-1.02v-3.24c0-1.11-.42-1.76-1.24-1.76-.6,0-1.05.44-1.24.93-.05.15-.08.35-.08.52v3.55h-1.02v-3.43c0-.92-.4-1.57-1.2-1.57-.64,0-1.12.52-1.29,1.04-.06.15-.08.33-.08.51v3.45h-1.02v-4.18Z"/>
      <path class="st39" d="M1224.23,78.47c.02,1.41.91,1.99,1.95,1.99.74,0,1.21-.13,1.58-.29l.19.73c-.37.16-1,.37-1.92.37-1.75,0-2.81-1.17-2.81-2.88s1.03-3.1,2.7-3.1c1.87,0,2.36,1.64,2.36,2.7,0,.21-.01.38-.04.5h-4.01ZM1227.27,77.73c0-.65-.27-1.69-1.43-1.69-1.06,0-1.51.97-1.6,1.69h3.03Z"/>
      <path class="st39" d="M1242.49,32.72c2.32,0,4.17,1.89,4.17,4.21s-1.85,4.23-4.19,4.23-4.21-1.87-4.21-4.23,1.89-4.21,4.21-4.21h.02ZM1242.45,33.56c-1.76,0-3.18,1.52-3.18,3.39s1.42,3.37,3.2,3.37c1.78.02,3.22-1.48,3.22-3.37s-1.44-3.39-3.22-3.39h-.02ZM1241.74,39.38h-.99v-4.68c.37-.06.79-.13,1.5-.13.8,0,1.29.13,1.61.37.26.21.41.52.41,1.01,0,.56-.39.95-.9,1.09v.04c.41.07.67.45.75,1.14.09.73.19,1.01.26,1.16h-1.03c-.11-.17-.19-.58-.28-1.22-.07-.51-.37-.71-.88-.71h-.45v1.93ZM1241.74,36.69h.47c.58,0,1.03-.19,1.03-.67,0-.39-.28-.69-.95-.69-.24,0-.41,0-.54.02v1.35Z"/>
    </g>
  </g>
  <rect class="st12" x="967.09" y="328.02" width="230.19" height="190" rx="12" ry="12"/>
  <rect class="st16" x=".96" y="97.49" width="1280.38" height="57.91"/>
  <text class="st25" transform="translate(34.23 136.98)"><tspan x="0" y="0">Cefixime is as effective as penicillin V in the treatment of Pharyngitis and Tonsillitis</tspan><tspan x="1100.37" y="0">6</tspan></text>
  <text class="st30" transform="translate(980.25 365.38)"><tspan x="0" y="0">A 5-day treatment of </tspan><tspan x="0" y="23.63">bacterial pharyngitis and </tspan><tspan x="0" y="47.26">tonsillitis with cefixime </tspan><tspan x="0" y="70.89">was as effective as a </tspan><tspan x="0" y="94.52">ten-day treatment with </tspan><tspan x="0" y="118.15">penicillin V.</tspan></text>
  <g>
    <g>
      <rect class="st8" x="131.87" y="204.26" width="376.52" height="449.69" rx="12" ry="12"/>
      <g>
        <path class="st2" d="M385.7,327.41h26.24c1.32,0,2.4,1.08,2.4,2.4v264.92h-31.04v-264.92c0-1.32,1.08-2.4,2.4-2.4Z"/>
        <path class="st17" d="M387.13,329.4h23.47c1.32,0,2.4,1.08,2.4,2.4v261.12h-28.27v-261.12c0-1.32,1.08-2.4,2.4-2.4Z"/>
      </g>
      <g>
        <path class="st3" d="M252.56,314.91h26.24c1.32,0,2.4,1.08,2.4,2.4v276.95h-31.04v-276.95c0-1.32,1.08-2.4,2.4-2.4Z"/>
        <path class="st22" d="M279.86,592.46h-28.27v-271.14c0-2.44,1.98-4.41,4.41-4.41h19.45c2.44,0,4.41,1.98,4.41,4.41v271.14Z"/>
      </g>
      <g>
        <path class="st5" d="M319.1,565.78h26.24c1.32,0,2.4,1.08,2.4,2.4v26.09h-31.04v-26.09c0-1.32,1.08-2.4,2.4-2.4Z"/>
        <path class="st21" d="M346.41,592.46h-28.27v-20.27c0-2.44,1.98-4.41,4.41-4.41h19.45c2.44,0,4.41,1.98,4.41,4.41v20.27Z"/>
      </g>
      <line class="st7" x1="198.24" y1="593.86" x2="186.54" y2="593.86"/>
      <text class="st26" transform="translate(154.54 597.48)"><tspan x="0" y="0">0%</tspan></text>
      <text class="st23" transform="translate(170.78 639.69)"><tspan x="0" y="0">Significant Improvement</tspan></text>
      <text class="st26" transform="translate(154.54 566.2)"><tspan x="0" y="0">10%</tspan></text>
      <text class="st26" transform="translate(154.54 534.92)"><tspan x="0" y="0">20%</tspan></text>
      <text class="st26" transform="translate(154.54 500.75)"><tspan x="0" y="0">30%</tspan></text>
      <text class="st26" transform="translate(154.54 469.47)"><tspan x="0" y="0">40%</tspan></text>
      <text class="st26" transform="translate(154.54 435.29)"><tspan x="0" y="0">50%</tspan></text>
      <text class="st26" transform="translate(154.54 404.01)"><tspan x="0" y="0">60%</tspan></text>
      <text class="st26" transform="translate(154.54 372.2)"><tspan x="0" y="0">70%</tspan></text>
      <text class="st26" transform="translate(154.54 340.92)"><tspan x="0" y="0">80%</tspan></text>
      <text class="st26" transform="translate(154.54 308.58)"><tspan x="0" y="0">90%</tspan></text>
      <text class="st26" transform="translate(147.32 272.56)"><tspan x="0" y="0">100%</tspan></text>
      <text class="st28" transform="translate(290.31 237.37)"><tspan x="0" y="0">Cefixime </tspan></text>
      <line class="st7" x1="198.24" y1="561.62" x2="186.54" y2="561.62"/>
      <line class="st7" x1="198.24" y1="529.37" x2="186.54" y2="529.37"/>
      <line class="st7" x1="198.24" y1="497.13" x2="186.54" y2="497.13"/>
      <line class="st7" x1="198.24" y1="464.88" x2="186.54" y2="464.88"/>
      <line class="st7" x1="198.24" y1="432.64" x2="186.54" y2="432.64"/>
      <line class="st7" x1="198.24" y1="400.39" x2="186.54" y2="400.39"/>
      <line class="st7" x1="198.24" y1="368.15" x2="186.54" y2="368.15"/>
      <line class="st7" x1="198.24" y1="335.9" x2="186.54" y2="335.9"/>
      <line class="st7" x1="198.24" y1="303.66" x2="186.54" y2="303.66"/>
      <line class="st7" x1="198.24" y1="269.05" x2="186.54" y2="269.05"/>
      <polyline class="st7" points="197.62 261.97 197.62 593.87 487.35 593.87"/>
      <rect class="st18" x="156.3" y="631.65" width="9.84" height="9.84"/>
      <text class="st23" transform="translate(309.56 639.69)"><tspan x="0" y="0">Cure rate</tspan></text>
      <rect class="st20" x="295.08" y="631.65" width="9.84" height="9.84"/>
      <text class="st23" transform="translate(376.07 639.69)"><tspan x="0" y="0">Pathogen eradication</tspan></text>
      <rect class="st19" x="361.6" y="631.65" width="9.84" height="9.84"/>
    </g>
    <g>
      <rect class="st9" x="553.39" y="204.26" width="376.52" height="449.69" rx="12" ry="12"/>
      <g>
        <path class="st1" d="M807.21,311.05h26.24c1.32,0,2.4,1.08,2.4,2.4v281.28h-31.04v-281.28c0-1.32,1.08-2.4,2.4-2.4Z"/>
        <path class="st36" d="M808.65,313.04h23.47c1.32,0,2.4,1.08,2.4,2.4v277.48h-28.27v-277.48c0-1.32,1.08-2.4,2.4-2.4Z"/>
      </g>
      <g>
        <path class="st4" d="M674.07,300.37h26.24c1.32,0,2.4,1.08,2.4,2.4v291.5h-31.04v-291.5c0-1.32,1.08-2.4,2.4-2.4Z"/>
        <path class="st35" d="M701.38,592.46h-28.27v-285.68c0-2.44,1.98-4.41,4.41-4.41h19.45c2.44,0,4.41,1.98,4.41,4.41v285.68Z"/>
      </g>
      <g>
        <path class="st0" d="M740.62,573.05h26.24c1.32,0,2.4,1.08,2.4,2.4v18.82h-31.04v-18.82c0-1.32,1.08-2.4,2.4-2.4Z"/>
        <path class="st33" d="M767.93,592.46h-28.27v-13c0-2.44,1.98-4.41,4.41-4.41h19.45c2.44,0,4.41,1.98,4.41,4.41v13Z"/>
      </g>
      <line class="st7" x1="619.76" y1="593.86" x2="608.05" y2="593.86"/>
      <text class="st26" transform="translate(576.06 597.48)"><tspan x="0" y="0">0%</tspan></text>
      <text class="st23" transform="translate(592.3 639.69)"><tspan x="0" y="0">Significant Improvement</tspan></text>
      <text class="st26" transform="translate(576.06 566.2)"><tspan x="0" y="0">10%</tspan></text>
      <text class="st26" transform="translate(576.06 534.92)"><tspan x="0" y="0">20%</tspan></text>
      <text class="st26" transform="translate(576.06 500.75)"><tspan x="0" y="0">30%</tspan></text>
      <text class="st26" transform="translate(576.06 469.47)"><tspan x="0" y="0">40%</tspan></text>
      <text class="st26" transform="translate(576.06 435.29)"><tspan x="0" y="0">50%</tspan></text>
      <text class="st26" transform="translate(576.06 404.01)"><tspan x="0" y="0">60%</tspan></text>
      <text class="st26" transform="translate(576.06 372.2)"><tspan x="0" y="0">70%</tspan></text>
      <text class="st26" transform="translate(576.06 340.92)"><tspan x="0" y="0">80%</tspan></text>
      <text class="st26" transform="translate(576.06 308.58)"><tspan x="0" y="0">90%</tspan></text>
      <text class="st26" transform="translate(568.84 272.56)"><tspan x="0" y="0">100%</tspan></text>
      <text class="st28" transform="translate(704 237.37)"><tspan x="0" y="0">Penicillin V</tspan></text>
      <line class="st7" x1="619.76" y1="561.62" x2="608.05" y2="561.62"/>
      <line class="st7" x1="619.76" y1="529.37" x2="608.05" y2="529.37"/>
      <line class="st7" x1="619.76" y1="497.13" x2="608.05" y2="497.13"/>
      <line class="st7" x1="619.76" y1="464.88" x2="608.05" y2="464.88"/>
      <line class="st7" x1="619.76" y1="432.64" x2="608.05" y2="432.64"/>
      <line class="st7" x1="619.76" y1="400.39" x2="608.05" y2="400.39"/>
      <line class="st7" x1="619.76" y1="368.15" x2="608.05" y2="368.15"/>
      <line class="st7" x1="619.76" y1="335.9" x2="608.05" y2="335.9"/>
      <line class="st7" x1="619.76" y1="303.66" x2="608.05" y2="303.66"/>
      <line class="st7" x1="619.76" y1="269.05" x2="608.05" y2="269.05"/>
      <polyline class="st7" points="619.14 261.97 619.14 593.87 908.86 593.87"/>
      <rect class="st32" x="577.82" y="631.65" width="9.84" height="9.84"/>
      <text class="st23" transform="translate(731.08 639.69)"><tspan x="0" y="0">Cure rate</tspan></text>
      <rect class="st37" x="716.6" y="631.65" width="9.84" height="9.84"/>
      <text class="st23" transform="translate(797.59 639.69)"><tspan x="0" y="0">Pathogen eradication</tspan></text>
      <rect class="st34" x="783.11" y="631.65" width="9.84" height="9.84"/>
    </g>
    <text class="st24" transform="translate(251.59 306.31)"><tspan x="0" y="0">86.7%</tspan></text>
    <text class="st24" transform="translate(319.22 556.86)"><tspan x="0" y="0">09.3%</tspan></text>
    <text class="st24" transform="translate(388.02 318.12)"><tspan x="0" y="0">82.6%</tspan></text>
    <text class="st24" transform="translate(673.11 292.57)"><tspan x="0" y="0">90.8%</tspan></text>
    <text class="st24" transform="translate(738.76 564.52)"><tspan x="0" y="0">06.6%</tspan></text>
    <text class="st24" transform="translate(807.55 302.36)"><tspan x="0" y="0">88.2%</tspan></text>
  </g>
  <text class="st29" transform="translate(254.18 711.28)"><tspan x="0" y="0">Open, controlled and randomized multicenter study</tspan></text>
  <rect class="st10" x="496.46" y="271.06" width="67.94" height="56.08" rx="12" ry="12"/>
  <text class="st27" transform="translate(506.39 303.66)"><tspan x="0" y="0">N=151</tspan></text>
  <g class="st40">
    <rect class="st14" x="1214.88" y="705.55" width="39.06" height="39.06" rx="8.38" ry="8.38"/>
    <path class="st41" d="M1248.89,722.61l-4.97-4.97v-6.89c0-.24-.19-.43-.43-.43h-3.07c-.24,0-.43.19-.43.43v2.96l-4.53-4.53c-.58-.57-1.51-.57-2.08,0l-13.45,13.44c-.87.87-.35,2.36.87,2.5l2.17.25v14.55c0,.81.66,1.47,1.47,1.47h6.34v-10.56c0-.71.57-1.28,1.28-1.28h4.7c.71,0,1.28.57,1.28,1.28v10.56h6.34c.81,0,1.47-.66,1.47-1.47v-14.56l2.17-.26c1.22-.14,1.74-1.64.87-2.5Z"/>
  </g>
</svg>