<?xml version="1.0" encoding="UTF-8"?>
<svg id="Layer_1" xmlns="http://www.w3.org/2000/svg" xmlns:xlink="http://www.w3.org/1999/xlink" version="1.1" viewBox="0 0 1280 768">
  <!-- Generator: Adobe Illustrator 30.0.0, SVG Export Plug-In . SVG Version: 2.1.1 Build 123)  -->
  <defs>
    <style>
      .st0 {
        filter: url(#drop-shadow-6);
      }

      .st1, .st2, .st3, .st4 {
        fill: #2b388f;
      }

      .st5 {
        fill: #231f20;
        font-family: MyriadPro-Regular, 'Myriad Pro';
        font-size: 9px;
      }

      .st6 {
        fill: url(#radial-gradient);
      }

      .st7 {
        fill: url(#linear-gradient);
      }

      .st8 {
        stroke: #fff;
        stroke-width: 3.95px;
      }

      .st8, .st9, .st10, .st11, .st12 {
        stroke-miterlimit: 10;
      }

      .st8, .st13, .st14 {
        fill: #243a78;
      }

      .st2 {
        font-size: 22.68px;
      }

      .st2, .st15, .st3, .st13, .st4 {
        font-family: MyriadPro-Bold, 'Myriad Pro';
        font-weight: 700;
      }

      .st16 {
        filter: url(#drop-shadow-23);
      }

      .st17 {
        fill: #000b8c;
      }

      .st9 {
        stroke-width: 1.08px;
      }

      .st9, .st15, .st10, .st11, .st18, .st19 {
        fill: #fff;
      }

      .st9, .st10, .st11 {
        stroke: #2b388f;
      }

      .st15 {
        font-size: 30px;
      }

      .st10, .st11 {
        stroke-width: 2.63px;
      }

      .st10, .st11, .st18, .st19 {
        font-family: BerkshireSwash-Regular, 'Berkshire Swash';
      }

      .st10, .st18 {
        font-size: 34.66px;
      }

      .st20 {
        fill: #262261;
      }

      .st3 {
        font-size: 28.66px;
      }

      .st11, .st19 {
        font-size: 27.67px;
      }

      .st13 {
        font-size: 25px;
      }

      .st4 {
        font-size: 16.24px;
      }

      .st12 {
        fill: url(#radial-gradient1);
        stroke: #000b8c;
        stroke-width: 1.6px;
      }
    </style>
    <radialGradient id="radial-gradient" cx="639.31" cy="384" fx="639.31" fy="384" r="527.76" gradientUnits="userSpaceOnUse">
      <stop offset="0" stop-color="#fff"/>
      <stop offset="1" stop-color="#edffff"/>
    </radialGradient>
    <filter id="drop-shadow-6" x="34.27" y="676.63" width="153.04" height="81.56" filterUnits="userSpaceOnUse">
      <feOffset dx="3.73" dy="3.73"/>
      <feGaussianBlur result="blur" stdDeviation="3.73"/>
      <feFlood flood-color="#231f20" flood-opacity=".4"/>
      <feComposite in2="blur" operator="in"/>
      <feComposite in="SourceGraphic"/>
    </filter>
    <linearGradient id="linear-gradient" x1="1746.68" y1="144.85" x2="583.05" y2="140.19" gradientUnits="userSpaceOnUse">
      <stop offset="0" stop-color="#fff" stop-opacity="0"/>
      <stop offset=".68" stop-color="#2b388f"/>
    </linearGradient>
    <filter id="drop-shadow-23" x="1214.08" y="704.75" width="40.65" height="40.65" filterUnits="userSpaceOnUse">
      <feOffset dx="5.59" dy="5.59"/>
      <feGaussianBlur result="blur1" stdDeviation="3.99"/>
      <feFlood flood-color="#000" flood-opacity=".75"/>
      <feComposite in2="blur1" operator="in"/>
      <feComposite in="SourceGraphic"/>
    </filter>
    <radialGradient id="radial-gradient1" cx="1234.41" cy="725.08" fx="1234.41" fy="725.08" r="19.53" gradientUnits="userSpaceOnUse">
      <stop offset="0" stop-color="#fff"/>
      <stop offset="1" stop-color="#f1f1f1"/>
    </radialGradient>
  </defs>
  <g>
    <rect class="st6" x="-.69" width="1280" height="768"/>
    <g class="st0">
      <text class="st10" transform="translate(67.5 711.56) rotate(-.27)"><tspan x="0" y="0">Eternal </tspan></text>
      <g>
        <g>
          <path class="st8" d="M64.28,714.95c-.11.14-.15.32-.11.5l2.71,12.04c.06.27.3.46.58.46h.57c.9-2.06,1.4-4.34,1.39-6.73-.01-2.31-.5-4.51-1.36-6.51l-3.32.02c-.18,0-.35.08-.46.22Z"/>
          <path class="st8" d="M38.85,728.11l2.6-12.07c.04-.17,0-.36-.12-.5-.11-.14-.28-.22-.46-.22l-3.52.02c-.72,1.87-1.11,3.9-1.1,6.03.01,2.58.61,5.03,1.68,7.2h.35c.28,0,.52-.2.57-.47Z"/>
          <path class="st8" d="M65.02,724.41l-2.02-8.85c-.12-.54-.61-.92-1.16-.92-.02,0-.05,0-.07,0l-7.09.47c-.27.02-.52.13-.72.31l-.29.26-.31-.28c-.22-.2-.5-.3-.79-.3h-2.94s-5.96.04-5.96.04c-.55,0-1.03.39-1.15.93l-2.05,9.38c-.08.38.02.77.28,1.05.23.25.54.38.87.38.05,0,.1,0,.15-.01l2.8-.37,7.52,5.81.78.72c.23.21.52.31.81.31.08,0,.15,0,.23-.02.26-.02.51-.13.71-.32l5.35-5.04,2.64-2.44.93.27c.11.03.22.05.33.05.3,0,.58-.11.81-.32.3-.29.43-.71.34-1.12ZM60.39,725.96s-.04-.04-.06-.06l-5.08-4.65c-.24-.22-.61-.2-.83.04-.22.24-.2.61.04.83l5.08,4.64-.37.35-.83.78s0,0,0-.01c-.03-.04-.06-.08-.1-.11l-4.22-3.72c-.24-.22-.62-.19-.83.05-.22.24-.19.62.05.83l4.22,3.72s.02.01.02.02c0,0,.01,0,.02.01l-1.22,1.15s-.01-.02-.02-.04c-.03-.05-.07-.1-.12-.15l-3.46-3.05c-.24-.22-.62-.19-.83.05-.22.24-.19.62.05.83l3.46,3.05s.04.03.05.04c.02.01.03.02.05.03l-.56.52s-.02-.04-.03-.06c-.04-.08-.09-.16-.17-.22l-.84-.67c-.25-.2-.63-.16-.83.09l-.6.75-.03.04-.5-.39.07-.08.59-.74c.2-.26.16-.63-.09-.83l-.84-.67c-.26-.2-.63-.16-.83.09l-.48.61-.19.24-.5-.39.22-.28.6-.76c.2-.26.16-.63-.09-.83l-.84-.67c-.25-.2-.63-.16-.83.09l-.5.63-.35.44-.31-.24-.19-.15s.01,0,.02-.01c.05-.03.09-.07.13-.11l.26-.33.62-.78c.2-.26.16-.63-.09-.83l-.84-.67c-.26-.2-.63-.16-.83.09l-.51.65-.37.46s0,0,0,0c-.05.06-.08.13-.1.2l-.71-.55-.33.04-2.96.39,2.05-9.38,5.96-.03h2.94s.23.19.23.19l.1.09-1.84,2.31-.75.95s-.35.39-.32.84c.01.16.07.32.22.48.68.74,2.23.16,2.23.16l1.92-2.31s.25-.33.69-.5l6.79,6.1-1.44,1.36Z"/>
        </g>
        <path class="st8" d="M54.08,755.22l1.79-19.93c.03-.29-.06-.58-.24-.79-.18-.21-.43-.32-.68-.3l-3.96.49c-.72,3.13-.96,6.48-.62,9.93.41,4.19.68,8.08,2.49,11.47l.48-.05c.39-.04.69-.38.73-.83Z"/>
      </g>
      <text class="st11" transform="translate(65.3 747.4) rotate(-.27)"><tspan x="0" y="0">rust</tspan></text>
      <text class="st18" transform="translate(67.5 711.56) rotate(-.27)"><tspan x="0" y="0">Eternal </tspan></text>
      <g>
        <g>
          <path class="st14" d="M64.28,714.95c-.11.14-.15.32-.11.5l2.71,12.04c.06.27.3.46.58.46h.57c.9-2.06,1.4-4.34,1.39-6.73-.01-2.31-.5-4.51-1.36-6.51l-3.32.02c-.18,0-.35.08-.46.22Z"/>
          <path class="st14" d="M38.85,728.11l2.6-12.07c.04-.17,0-.36-.12-.5-.11-.14-.28-.22-.46-.22l-3.52.02c-.72,1.87-1.11,3.9-1.1,6.03.01,2.58.61,5.03,1.68,7.2h.35c.28,0,.52-.2.57-.47Z"/>
          <path class="st14" d="M65.02,724.41l-2.02-8.85c-.12-.54-.61-.92-1.16-.92-.02,0-.05,0-.07,0l-7.09.47c-.27.02-.52.13-.72.31l-.29.26-.31-.28c-.22-.2-.5-.3-.79-.3h-2.94s-5.96.04-5.96.04c-.55,0-1.03.39-1.15.93l-2.05,9.38c-.08.38.02.77.28,1.05.23.25.54.38.87.38.05,0,.1,0,.15-.01l2.8-.37,7.52,5.81.78.72c.23.21.52.31.81.31.08,0,.15,0,.23-.02.26-.02.51-.13.71-.32l5.35-5.04,2.64-2.44.93.27c.11.03.22.05.33.05.3,0,.58-.11.81-.32.3-.29.43-.71.34-1.12ZM60.39,725.96s-.04-.04-.06-.06l-5.08-4.65c-.24-.22-.61-.2-.83.04-.22.24-.2.61.04.83l5.08,4.64-.37.35-.83.78s0,0,0-.01c-.03-.04-.06-.08-.1-.11l-4.22-3.72c-.24-.22-.62-.19-.83.05-.22.24-.19.62.05.83l4.22,3.72s.02.01.02.02c0,0,.01,0,.02.01l-1.22,1.15s-.01-.02-.02-.04c-.03-.05-.07-.1-.12-.15l-3.46-3.05c-.24-.22-.62-.19-.83.05-.22.24-.19.62.05.83l3.46,3.05s.04.03.05.04c.02.01.03.02.05.03l-.56.52s-.02-.04-.03-.06c-.04-.08-.09-.16-.17-.22l-.84-.67c-.25-.2-.63-.16-.83.09l-.6.75-.03.04-.5-.39.07-.08.59-.74c.2-.26.16-.63-.09-.83l-.84-.67c-.26-.2-.63-.16-.83.09l-.48.61-.19.24-.5-.39.22-.28.6-.76c.2-.26.16-.63-.09-.83l-.84-.67c-.25-.2-.63-.16-.83.09l-.5.63-.35.44-.31-.24-.19-.15s.01,0,.02-.01c.05-.03.09-.07.13-.11l.26-.33.62-.78c.2-.26.16-.63-.09-.83l-.84-.67c-.26-.2-.63-.16-.83.09l-.51.65-.37.46s0,0,0,0c-.05.06-.08.13-.1.2l-.71-.55-.33.04-2.96.39,2.05-9.38,5.96-.03h2.94s.23.19.23.19l.1.09-1.84,2.31-.75.95s-.35.39-.32.84c.01.16.07.32.22.48.68.74,2.23.16,2.23.16l1.92-2.31s.25-.33.69-.5l6.79,6.1-1.44,1.36Z"/>
        </g>
        <path class="st14" d="M54.08,755.22l1.79-19.93c.03-.29-.06-.58-.24-.79-.18-.21-.43-.32-.68-.3l-3.96.49c-.72,3.13-.96,6.48-.62,9.93.41,4.19.68,8.08,2.49,11.47l.48-.05c.39-.04.69-.38.73-.83Z"/>
      </g>
      <text class="st19" transform="translate(65.3 747.4) rotate(-.27)"><tspan x="0" y="0">rust</tspan></text>
    </g>
    <g>
      <path class="st1" d="M1278.69,723.58H249.65c-1.93,0-1.93,3,0,3h1029.03c1.93,0,1.93-3,0-3h0Z"/>
      <circle class="st1" cx="237.9" cy="725.53" r="4.9"/>
      <circle class="st1" cx="223.95" cy="725.53" r="4.9"/>
      <circle class="st1" cx="209.99" cy="725.53" r="4.9"/>
    </g>
    <g>
      <path class="st1" d="M-.69,55.81h1036.47c1.93,0,1.93-3,0-3H-.69c-1.93,0-1.93,3,0,3h0Z"/>
      <circle class="st1" cx="1047.53" cy="53.86" r="4.9"/>
      <circle class="st1" cx="1061.48" cy="53.86" r="4.9"/>
      <circle class="st1" cx="1075.44" cy="53.86" r="4.9"/>
    </g>
    <g>
      <path class="st14" d="M1153.69,56.45c-.16-4.27-.32-9.38-.32-14.6h-.11c-1.16,4.53-2.64,9.6-4.01,13.76l-4.32,13.87h-6.27l-3.79-13.71c-1.16-4.22-2.32-9.23-3.22-13.92h-.1c-.16,4.8-.37,10.28-.58,14.71l-.69,13.5h-7.44l2.27-35.53h10.7l3.48,11.92c1.16,4.06,2.21,8.49,3,12.65h.21c.95-4.11,2.16-8.75,3.37-12.76l3.74-11.81h10.54l1.9,35.53h-7.8l-.58-13.6Z"/>
      <path class="st14" d="M1170.14,40.9c-2.69,0-4.43-1.9-4.43-4.27s1.79-4.27,4.53-4.27,4.43,1.85,4.48,4.27c0,2.37-1.74,4.27-4.53,4.27h-.05ZM1166.19,44.27h8.01v25.78h-8.01v-25.78Z"/>
      <path class="st14" d="M1184.69,44.27l2.53,4.32c.74,1.32,1.42,2.58,2.11,3.85h.11c.69-1.42,1.32-2.69,2-4.01l2.27-4.16h8.7l-8.49,12.28,8.59,13.5h-9.07l-2.58-4.64c-.74-1.27-1.42-2.58-2-3.9h-.16c-.63,1.37-1.32,2.64-1.95,3.9l-2.42,4.64h-8.81l8.75-13.13-8.54-12.65h8.96Z"/>
      <path class="st14" d="M1207.79,40.9c-2.69,0-4.43-1.9-4.43-4.27s1.79-4.27,4.53-4.27,4.43,1.85,4.48,4.27c0,2.37-1.74,4.27-4.53,4.27h-.05ZM1203.83,44.27h8.01v25.78h-8.01v-25.78Z"/>
      <path class="st14" d="M1217.17,70.05v-19.87h-3.43v-5.9h3.43v-1c0-3.11.95-6.54,3.22-8.65,2.05-1.9,4.8-2.58,7.17-2.58,1.74,0,3.11.26,4.22.53l-.32,6.17c-.69-.21-1.53-.37-2.58-.37-2.64,0-3.74,2.06-3.74,4.59v1.32h5.17v5.9h-5.11v19.87h-8.01Z"/>
      <path class="st14" d="M1186.31,80.91c-.37.19-1.13.38-2.1.38-2.25,0-3.93-1.42-3.93-4.04s1.69-4.19,4.16-4.19c.98,0,1.62.21,1.89.35l-.26.84c-.38-.19-.94-.33-1.6-.33-1.87,0-3.11,1.2-3.11,3.29,0,1.96,1.12,3.21,3.05,3.21.64,0,1.28-.13,1.69-.33l.2.83Z"/>
      <path class="st14" d="M1188.62,78.47c.02,1.41.91,1.99,1.95,1.99.75,0,1.21-.13,1.59-.29l.19.73c-.37.16-1,.37-1.92.37-1.75,0-2.81-1.17-2.81-2.88s1.03-3.1,2.7-3.1c1.87,0,2.35,1.64,2.35,2.7,0,.21,0,.38-.03.5h-4.01ZM1191.66,77.73c0-.65-.27-1.69-1.43-1.69-1.06,0-1.51.97-1.6,1.69h3.03Z"/>
      <path class="st14" d="M1194.64,81.16v-4.93h-.79v-.79h.79v-.27c0-.8.19-1.54.68-2,.39-.38.91-.53,1.38-.53.38,0,.69.08.89.16l-.13.81c-.17-.07-.37-.13-.67-.13-.88,0-1.11.78-1.11,1.66v.31h1.38v.79h-1.37v4.93h-1.04Z"/>
      <path class="st14" d="M1199.08,74.38c-.39,0-.65-.31-.65-.67s.27-.66.67-.66.66.3.66.66-.26.67-.67.67h-.01ZM1198.59,75.43h1.04v5.72h-1.04v-5.72Z"/>
      <path class="st14" d="M1202.42,75.43l.82,1.22c.21.33.39.62.58.94h.03c.19-.33.38-.63.58-.94l.79-1.22h1.14l-1.95,2.77,2,2.96h-1.18l-.84-1.29c-.22-.33-.41-.65-.61-.99h-.02c-.19.34-.39.65-.6.99l-.83,1.29h-1.15l2.03-2.92-1.94-2.8h1.16Z"/>
      <path class="st14" d="M1208.49,74.38c-.39,0-.65-.31-.65-.67s.27-.66.68-.66.66.3.66.66-.26.67-.68.67h-.01ZM1208,75.43h1.04v5.72h-1.04v-5.72Z"/>
      <path class="st14" d="M1211.35,76.98c0-.6-.02-1.07-.05-1.55h.91l.05.92h.03c.32-.54.85-1.05,1.81-1.05.77,0,1.36.47,1.61,1.15h.02c.18-.33.41-.57.65-.74.34-.26.71-.4,1.25-.4.77,0,1.89.5,1.89,2.48v3.37h-1.02v-3.24c0-1.11-.42-1.76-1.24-1.76-.6,0-1.05.44-1.24.93-.05.15-.08.35-.08.52v3.55h-1.02v-3.43c0-.92-.4-1.57-1.2-1.57-.64,0-1.12.52-1.29,1.04-.06.15-.08.33-.08.51v3.45h-1.02v-4.18Z"/>
      <path class="st14" d="M1222.39,78.47c.02,1.41.91,1.99,1.95,1.99.74,0,1.21-.13,1.58-.29l.19.73c-.37.16-1,.37-1.92.37-1.75,0-2.81-1.17-2.81-2.88s1.03-3.1,2.7-3.1c1.87,0,2.36,1.64,2.36,2.7,0,.21-.01.38-.04.5h-4.01ZM1225.43,77.73c0-.65-.27-1.69-1.43-1.69-1.06,0-1.51.97-1.6,1.69h3.03Z"/>
      <path class="st14" d="M1240.65,32.72c2.32,0,4.17,1.89,4.17,4.21s-1.85,4.23-4.19,4.23-4.21-1.87-4.21-4.23,1.89-4.21,4.21-4.21h.02ZM1240.61,33.56c-1.76,0-3.18,1.52-3.18,3.39s1.42,3.37,3.2,3.37c1.78.02,3.22-1.48,3.22-3.37s-1.44-3.39-3.22-3.39h-.02ZM1239.9,39.38h-.99v-4.68c.37-.06.79-.13,1.5-.13.8,0,1.29.13,1.61.37.26.21.41.52.41,1.01,0,.56-.39.95-.9,1.09v.04c.41.07.67.45.75,1.14.09.73.19,1.01.26,1.16h-1.03c-.11-.17-.19-.58-.28-1.22-.07-.51-.37-.71-.88-.71h-.45v1.93ZM1239.9,36.69h.47c.58,0,1.03-.19,1.03-.67,0-.39-.28-.69-.95-.69-.24,0-.41,0-.54.02v1.35Z"/>
    </g>
  </g>
  <rect class="st7" x=".27" y="97.49" width="1280.38" height="85.86"/>
  <g>
    <text class="st15" transform="translate(74.54 134.98)"><tspan x="0" y="0">A </tspan><tspan x="25.74" y="0">400</tspan><tspan x="75.69" y="0" xml:space="preserve"> mg oral dose of cefixime is recommended as an alternative regimen to ceftriaxone </tspan><tspan x="0" y="36">on Gonococcal Urethritis</tspan></text>
    <text class="st15" transform="translate(404.36 160.99) scale(.58)"><tspan x="0" y="0">15</tspan></text>
  </g>
  <g>
    <text class="st15" transform="translate(-1220.57 134.98)"><tspan x="0" y="0">Cefixime shows significantly lower incidence of side effects in pregnant women</tspan></text>
    <text class="st15" transform="translate(-170.51 124.99) scale(.58)"><tspan x="0" y="0">14</tspan></text>
  </g>
  <g>
    <text class="st13" transform="translate(96.34 229.5)"><tspan x="0" y="0">(Cefixime) indicated in the treatment of the following infections caused by susceptible strains of the </tspan><tspan x="0" y="30">designated microorganisms:</tspan></text>
    <text class="st13" transform="translate(413.44 251.17) scale(.58)"><tspan x="0" y="0">1</tspan></text>
  </g>
  <circle class="st1" cx="82.7" cy="221.41" r="8.16"/>
  <g>
    <g>
      <rect class="st9" x="632.74" y="407.37" width="374.73" height="119.56" rx="15.08" ry="15.08"/>
      <g>
        <path class="st1" d="M797.8,406.34l23.77-21.44c.14-.13.31-.19.49-.19s.35.06.49.19l23.77,21.44"/>
        <path class="st1" d="M845.78,407.7c-.12-.03-.22-.09-.31-.17l-23.42-21.12-23.42,21.12c-.09.08-.19.14-.31.17"/>
      </g>
    </g>
    <text class="st3" transform="translate(661.81 474.45)"><tspan x="0" y="0">Neisseria gonorrhoeae</tspan><tspan x="289.53" y="0">1</tspan></text>
  </g>
  <text class="st2" transform="translate(765.15 375.4)"><tspan x="0" y="0">Caused by:</tspan></text>
  <g>
    <text class="st4" transform="translate(431.71 289.39)"><tspan x="0" y="0">Urinary tract</tspan></text>
    <text class="st4" transform="translate(523.44 283.98) scale(.58)"><tspan x="0" y="0">1,6</tspan></text>
  </g>
  <text class="st4" transform="translate(394.17 661.75)"><tspan x="0" y="0">Uncomplicated urethral </tspan><tspan x="8.11" y="19.49">or cervical gonorrhea</tspan><tspan x="162.48" y="19.49">1</tspan></text>
  <g>
    <path class="st20" d="M465.95,526.82c9.81-1.7,19.27-1.79,28.68-.24,1.61-2.59,1.31-5.35,1.6-7.95.65-5.69,1.14-11.41,1.54-17.13.54-7.8,1-15.62,1.39-23.43.42-8.46.14-16.91-.24-25.37-.3-6.48-.46-13.01-.11-19.48.58-10.67.45-21.4,2.26-31.98,1.14-6.69,2.62-13.32,5.04-19.68,1.29-3.38,2.52-6.82,4.18-10.03,3.28-6.32,8.12-11.23,14.32-14.78.78-.45,1.46-1.07,2.28-1.68-1.07-1.14-2.05-1.94-2.71-2.95-.97-1.5-2.06-3.06-2.48-4.75-1.92-7.83-1.56-15.51,2.31-22.78,2.2-4.13,5.46-7.3,9.1-10.17,2.78-2.19,6.18-2.72,9.34-3.9.77-.29,1.69-.27,2.54-.26,3.62.05,7.25.05,10.86.27,1.77.11,3.67.33,5.24,1.07,4.96,2.34,9.19,5.79,13.05,9.64,2.82,2.82,4.58,6.38,5.82,10.1,2.64,7.93,3.98,16.14,4.05,24.49.06,7.18-1.03,14.27-3.2,21.15-1.63,5.17-2.96,10.46-4.9,15.51-1.66,4.34-3.7,8.51-6.98,12.1-2.9,3.18-5.95,6.12-9.18,8.94-2.49,2.17-5.61,2.76-8.58,3.49-3.12.77-6.41.9-9.64,1.18-1.01.09-2.16,0-3.06-.42-4.26-1.97-8.57-4.1-11.57-7.73-3.47-4.2-6.39-8.95-5.93-14.78.19-2.43,1.03-4.82,1.56-7.21-1.39.14-2.29.77-2.59,2.45-.17.91-1.09,1.68-1.69,2.5-2.51,3.4-3.34,7.53-4.31,11.43-2.1,8.49-2.83,17.2-2.72,25.97.05,4.29-.27,8.59-.32,12.88-.05,4.55.07,9.11.05,13.66-.01,3.72-.18,7.44-.16,11.16.03,4.68.32,9.37.25,14.05-.08,5.41-.08,10.86-.73,16.22-1.13,9.44-2.69,18.82-4.14,28.22-.25,1.65-.83,3.24-1.2,4.66.37.43.46.63.62.7,3.01,1.28,4.54,4,6.33,6.47,1,1.38,1.98,2.77,3.07,4.08,2.09,2.5,2.79,5.45,2.87,8.59.07,2.46.31,4.97-.05,7.37-.57,3.8-1.35,7.59-2.47,11.26-1.11,3.64-2.54,7.21-4.18,10.65-2.55,5.31-5.24,10.56-8.16,15.67-2.6,4.54-5.67,8.79-9.78,12.18-1.65,1.36-3.13,2.92-4.88,4.57-.15,2.9-.42,6.22-.45,9.54-.04,3.94-2.69,6.15-5.35,8.3-.6.48-1.91.43-2.77.18-2.23-.66-4.16-1.78-5.02-4.2-1.11-3.11-1.6-6.28-1.47-9.57.06-1.61.01-3.23.01-4.96-4.33-.91-7.7-3.51-10.63-6.47-2.44-2.47-4.37-5.48-6.32-8.39-4.05-6.05-7.25-12.55-9.92-19.32-.94-2.4-2.05-4.73-3.06-7.11-2.24-5.23-2.24-10.73-2.14-16.3.11-6.53,2.6-12.1,6.5-17.03,1.98-2.5,4.67-4.42,7.29-6.83-.38-5.47-.73-11.35-1.22-17.23-.23-2.75-.86-5.47-1.02-8.22-.32-5.31-.56-10.64-.61-15.96-.11-11.26-.16-22.53-.06-33.79.05-5.13.84-10.23.57-15.4-.47-9.33-.57-18.67-1.03-28-.16-3.23-.95-6.42-1.41-9.63-.31-2.16-.36-4.38-.85-6.5-1.02-4.37-3.95-7.38-7.78-10.29.43,1.81.86,3.16,1.06,4.53.73,4.92.34,9.65-2.43,13.98-.92,1.44-1.5,3.12-2.55,4.44-3.48,4.4-7.69,7.74-13.31,9.12-1.45.36-2.63.08-3.88-.31-3.63-1.14-7.31-2.19-10.85-3.59-5.39-2.14-10.12-5.35-13.61-10.08-3.1-4.21-5.83-8.55-7.23-13.77-1.78-6.66-3.05-13.4-3.61-20.22-.35-4.35.31-8.77.4-13.16.18-8.44,3.21-15.99,7.11-23.28,2.56-4.79,5.07-9.68,9.01-13.5,3.7-3.58,7.8-6.72,12.82-8.38,2.61-.86,5.17-1.95,7.83-2.57,1.59-.37,3.41-.36,5,.02,2.29.56,4.47,1.61,6.69,2.47.8.31,1.53.79,2.35,1.03,2.37.68,4.33,1.91,5.89,3.85.64.79,1.58,1.35,1.95,1.65.69,1.51,1.02,2.66,1.67,3.59,1.91,2.73,3.18,5.78,3.38,9.01.16,2.5-.51,5.1-1.08,7.59-.59,2.6-1.2,5.28-2.37,7.64-1.2,2.41-2.03,5.1-4.02,7.09-.25.25-.34.67-.34.67,2.25,2.42,4.49,4.6,6.46,7,2.11,2.56,4.2,5.19,5.88,8.04,2.31,3.93,4.54,7.97,6.2,12.21,1.32,3.37,1.91,7.07,2.52,10.67.69,4.02,1.33,8.08,1.47,12.14.25,7.42.17,14.85.13,22.28-.03,4.54-.34,9.08-.37,13.62-.1,15.44-.18,30.88-.17,46.32,0,4.26.32,8.51.49,12.77.25,6.2.44,12.4.79,18.59.18,3.12.66,6.23,1.05,9.71ZM399.17,354.83c-.12.95-.24,1.9-.37,2.85-1.08-.87-.84-2.87-3.07-3.3.22,1.69-.04,3.46.7,4.53,1.74,2.5,2.82,5.27,4.15,7.94-1.72-2.3-3.43-4.61-5.04-6.77-.49,1.88-.51,1.89.46,3.57,1.69,2.92,3.4,5.82,5.1,8.72-.69-.61-1.51-1.12-2.06-1.84-1.07-1.39-1.99-2.9-2.99-4.38-1.49,1.78-1.65,2.03-.72,3.32,1.81,2.51,3.74,4.93,5.68,7.34.21.26.83.2,1.26.28.27.81.53,1.62.8,2.43-.45-.1-.91-.2-1.37-.29-.44-1.04-.68-2.39-2.36-1.55-.19-2.41-.67-2.89-2.57-2.57,1.04-2.4-1.42-3.02-2.23-4.48-.04,1.89.98,3.23,2.31,4.4.34.73.67,1.45,1.01,2.18.36.78.93.71,1.56.39-.03,1.25.09,2.42,1.51,3.04.3-.55.56-1.04.82-1.52-.08.74-.21,1.49-.24,2.23-.03.88.35,1.44,1.33,1.39.54.85.99,1.76,1.63,2.52,1,1.19,2.13,2.28,3.21,3.42-.13.14-.26.27-.39.41-1.95-1.85-3.91-3.7-5.86-5.56-.47.31-.91.61-1.34.89,1.32-1.94-.47-3.25-.99-4.81-.81-.69-1.62-1.37-2.62-2.21-.46,1.77.53,2.5,1.32,3.43.52-.49.91-.85,1.3-1.22-1.17,1.92.23,3.31.99,4.83.34.43.68.87,1.02,1.3-.52.32-1.03.65-1.55.97.69-1.46.15-2.36-1.2-3.01-1.1,1.74,1.2,1.86,1.21,3.01.27.15.53.35.82.43.43.12.88.15,1.32.22-.4,1.22.35,1.87,1.16,2.61,1.57,1.42,3.05,2.94,4.56,4.42-.86-.58-1.72-1.16-2.58-1.72-1.17-.94-2.34-1.88-3.52-2.82-.36.67-.62,1.15-.88,1.64.07-.56.16-1.11.21-1.67.09-1.02-.46-1.32-1.38-1.19.07-1.12-.34-1.93-1.55-2.36-.63,1.42-.51,2.62.65,3.76.38-.57.68-1.02.98-1.48-.05.75-.13,1.49-.14,2.24-.01,1.08.61.95,1.3.62.14.72.29,1.45.45,2.19q-1.71,1.61.39,3.03c1.58-1.3-.58-2.05-.46-3.13,2.28.93,2.48.89,3.95-.87-.26.93-.53,1.87-.81,2.85,1.17,1.01,2.37,2.01,3.52,3.07.24.22.29.64.44.96-.44.27-.87.53-1.31.8.1-1.37-.72-2.03-1.89-2.47-.95.89-.69,1.59.11,2.4.71.73,1.25.52,1.86-.04.42.95.84,1.89,1.26,2.84-.45.11-.9.22-1.36.33-.04.19-.07.39-.11.58,2.33,1.01,4.07,3.12,7.21,3.55-1.02-.97-1.73-1.64-2.43-2.31.76.16,1.53.32,2.39.5.46-.94,1-1.76-.6-2.33-.7-.25-1.21-1.06-1.8-1.62.75.25,1.49.55,2.26.73.47.11.98.03,1.47.03.24.46.49.92.73,1.38.18.35.35.7.54,1.03l.06-.07c-.44-.12-.87-.24-1.47-.4-.09.87-.16,1.58-.23,2.21,1.18.61,2.17,1.13,3.16,1.64-1.31.37-2.17-1.07-3.91-.13,1.37.69,2.4,1.21,3.42,1.72-.21.71-.4,1.36-.69,2.33,2.2.49,4.21.93,6.25,1.38.5-.83.96-1.59,1.4-2.34.62.19,1.13.35,1.7.53.24-.91.43-1.66.63-2.41.2-.05.41-.1.61-.15.48.86.96,1.71,1.6,2.85.18-1.07.32-1.9.53-3.1.54.81.83,1.25,1.13,1.7.45-.35.85-.67,1.34-1.05-.41-.95-.81-1.87-1.21-2.8h.01c1.71-.08,1.05,2.1,2.41,2.45.58-1.2,1.18-2.28-.28-3.44-.34-.27-.05-1.35-.05-2.05.07,0,.14.02.21.02.17.65.34,1.31.51,1.96.17,0,.34,0,.5,0,.3-1.01.61-2.01.91-3.02.5.44.51.79.55,1.13.05.42.14.84.24,1.44,1.98-2.71,1.95-3.51-.17-4.37.4-1.23.8-2.47,1.21-3.72.18,1.11-.49,2.45,1.01,3.45.39-3.29,1.8-6.3.8-9.85-1.05,1.01-.35,2.99-2.57,2.52,1.26,1.42,1.76,2.62.68,3.99v-2.4c-.86-.05-1.36-.08-1.75-.1-.75-2.45,2.1-2.99,2.13-5.11.03-1.94-.81-3.47-.95-5.37-.87.57-1.49.97-2.11,1.38-.24-.26-.43-.37-.47-.53-.1-.36-.24-.75-.18-1.1.72-4.48.37-8.79-1.92-12.83-.88-1.55.36-3.36-.5-4.95-.07-.13.37-.69.68-.85,3.41-1.79,3.88-5.29,4.63-8.44.44-1.86.08-3.96-.12-5.93-.15-1.51-1.2-2.44-2.75-2.8.24-.72.44-1.35.69-2.1,1.8,1.01,3.53,1.98,5.56,3.11.26-2.39,2.83-3.54,3.09-6.18.23-2.33.75-4.72,1.63-6.88.99-2.42.56-4.66.21-7.06-.82.66.34,2.11-1.16,2.34l.06.06c-.18-1.2-.35-2.4-.53-3.6-.14.03-.28.05-.42.08-.62,1.94-1.23,3.88-1.85,5.82l.06.07c.23-1.89.12-3.9.77-5.63,1.17-3.13-.83-4.56-2.62-6.58-1.4,2.13-.4,4.39-1.22,6.24-.28-2.95-.57-5.92-.87-9.11-.99.5-1.68.84-2.42,1.22-.58-.55-1.19-1.13-1.88-1.78.94-.88,1.18-1.87-.02-2.53-1.03-.57-1.98-.27-2.29,1.39-.71-1.06-1.27-1.89-1.98-2.95-1.29,2.21.22,4.55-1.17,6.48-.15-1.91-.28-3.71-.42-5.56-1.6-.28-2.34.62-2.85,2.16-.36-1.26-.59-2.08-.82-2.89-.14.03-.28.05-.42.08-.07,1.08-.14,2.16-.21,3.23-.13.01-.26.03-.39.04-.19-1.34-.37-2.69-.61-4.37-2.17,1.46-.54,3.99-2.09,5.21-.09-.56-.19-1.17-.29-1.78-.16-.01-.33-.03-.49-.04-.25,1.34-.51,2.67-.76,4.01-.15-.02-.31-.04-.46-.06v-5.18c-1.58-.2-1.82,1.09-2.06,2.3-.46,2.32-1.71,4.48-1.23,6.99.1.53-.36,1.16-.77,2.36v-11.29c-3.52,2.14-1.84,5.57-2.69,8.94-.32-2.3-.55-3.92-.84-6.02-2.57,2.55-.81,5.57-1.9,8.23-.12-1.93-.22-3.59-.33-5.43-1.73.57-2.19,1.74-2.16,3.15.03,1.9.15,3.79.23,5.69l.06-.04c-1.13-.48-.99-1.49-1.01-2.43-.02-1,0-2,0-3.46-.69.61-1.09.85-1.33,1.19-2.17,3.09-4.35,6.18-6.44,9.32-.32.48-.44,1.3-.27,1.84.17.57.81,1.01,1.25,1.52q-.67,2.6,1.24,3.8c-.04.2-.09.41-.13.61-.01,1.15-.03,2.29-.07,3.46l.05-.02c-1.2.82-1.17-.82-2.32-1.54.78,2.7,1.28,4.77,1.98,6.78.93,2.69,2.02,5.33,3.04,8-.38-.2-.76-.4-1.59-.85.52,1.2.85,1.94,1.17,2.69-1.48-.83-1.92-2.27-2.26-3.78.33.07.66.13,1.1.22-.22-1.02-.42-2-.63-2.98-.43-.57-.87-1.13-1.36-1.78-.46,1.43.16,1.85,1.37,1.78ZM492.39,530.44c-1,.53-2,1.06-3,1.59-1.74.75-3.48,1.51-5.21,2.26-.05-.11-.11-.23-.16-.34,3-1.8,6.01-3.6,9.49-5.69-2.56-.54-4.15.06-5.73,1.05-1.08.68-2.31,1.11-3.47,1.65l.05.06c1.43-1.1,2.85-2.19,4.32-3.32-1.31-.27-2.55-.79-3.75-.71-1.19.07-2.34.75-3.74,1.24.25-.69.35-.99.5-1.41-3.57.28-5.92,3.02-9.14,3.75,1.23-.93,2.46-1.86,3.69-2.79-.1-.19-.2-.38-.3-.57-1.2.48-2.43.9-3.6,1.44-1.2.55-2.35,1.21-3.52,1.82q-.89-1.43-1.99-.72c.32.23.62.45.92.66-1.02.34-2.05.68-3.07,1.02-.06-.34-.12-.65-.22-1.21-2.67,1.3-5.42,2.2-7.36,4.57-.95,1.17-1.88,2.68-3.15,3.17-1.43.55-2.19,3.01-4.34,1.71-.11-.07-.56.44-.85.68-1.91,1.57-2.6,4.29-1.71,7.11-2.17-.4-1.73,1.05-1.72,2.32.47-.26.87-.47,1.44-.79.05,2,.13,3.68-1.04,5.17-.3.39-.23,1.07-.34,1.62-.88-.27-1.19.19-1.29.97-.16,1.23.31,2.51-1.05,3.57-.59.46-.43,1.95.85,2.45-.55,1.29-.79,2.46,1.6,3.29-.71-1.44-1.17-2.36-1.62-3.28.02-.47-.05-.98.09-1.41.14-.44.65-.79.73-1.23.27-1.47.41-2.96.61-4.44.31-.16.84-.25.91-.49.97-3,2.53-5.53,5.29-7.2.17-.1.22-.41.33-.64-.36-.15-.61-.25-.87-.36l.06.06c2.9-1.37,5.71-3.05,8.74-4.02,3.87-1.23,7.91-1.9,11.89-2.76.69-.15,1.43-.02,2.59-.02-.76.38-1.13.57-1.92.96,1.34.25,2.3.63,3.25.57,3.1-.2,6.19-.7,9.3-.81,1.77-.06,3.57.35,5.34.63,1.22.19,2.4.65,3.61.78,5.11.52,9.76,2.31,14.16,4.86.26.12.52.23.78.35.6.42,1.17.88,1.81,1.22.11.06.49-.37.74-.58,2.42-.61,1.94,2.05,3.31,2.91-.11-.59-.19-1.04-.27-1.5-.5-3.01-1.95-5.7-3.45-8.23-1.81-3.05-4.55-5.25-8.5-5.38.03-.29.06-.71.11-1.22-.54-.14-1.06-.28-1.59-.42l.06.06c2.18-2.76,3.4.84,5.18.78-2.39-3.15-2.87-3.36-6.18-2.04-1.34.53-2.56,1.36-3.9,2.09-.25-.57-.56-1.29-.87-2,1.27-.89,3.02-1.06,3.55-2.84-1.19.31-2.28.8-3.31,1.37-1.04.58-2.04,1.25-3.05,1.88-.09-.17-.18-.33-.27-.5,1.62-1.14,3.24-2.28,4.87-3.41-.08-.14-.16-.27-.24-.41-.72.16-1.45.33-2.17.49.15-.33.31-.65.61-1.3-1.22.53-2.41.52-2.81,1.85ZM533.45,366.22l-.07-.06c.22.58.74,1.58.6,1.68-1.23.9-.31,1.58.09,2.35.29.56.51,1.17.76,1.76l.06-.05c-1.09-.88-2.17-1.75-3.36-2.71-.06.61-.12,1.13-.17,1.65l.06-.05c-.59-.07-1.18-.15-1.77-.22.01.53-.04,1.07.05,1.58.1.53.34,1.03.52,1.54l.05-.05c-.66-.52-1.33-1.04-1.99-1.56.9,3.94,3.44,7.01,4.75,10.49-1.3-1.13-2.68-2.33-4.06-3.54.15-1.67.18-3.29-1.75-4.33-.57,2.02.53,3.18,1.81,4.26,1.67,3,3.34,5.99,5.1,9.14-2.01.35-1.76,1.49-.93,2.79-1.56-.66-2.43-2.85-4.66-2.29,0,.7,0,1.24,0,1.77-1.21-.32-1.5.13-1.01,1.22-.2.24-.62.63-.57.71.9,1.35,1.85,2.67,2.8,4,.15-.1.31-.21.46-.31-.52-1.08-1.03-2.17-1.55-3.25.32.28.65.56.97.84.09-.08.18-.17.27-.25-.49-1.02-.99-2.04-1.48-3.06,1.69.85,2.57,2.26,2.88,4.08-.79.01-1.06.44-.66,1.08.64.99,1.39,1.91,2.2,3,.36-.6.58-.97.8-1.33-.35,1.11.08,1.9.76,2.83,1,1.36,2.69,1.81,3.63,3.19.53.78,1.1,1.83,1.87,2.09,1.48.5,2.39,1.44,3.21,3.06-.05-1.8.1-1.94-2.02-4.19-2.33-2.46-4.96-4.62-7.46-6.91-.81-.97-1.63-1.94-2.44-2.91.64.34,1.37.56,1.89,1.03,2.55,2.27,5.05,4.6,7.55,6.93.79.74,1.55,1.45,2.62,1.09-.57-.99-1.14-2-1.72-3.01,3.04,2.67,6.09,5.35,9.11,8,.13-.22.34-.59.62-1.07.82,2.36,1.58,4.56,2.34,6.77.15-.05.29-.11.44-.16-.88-3.41-1.76-6.82-2.64-10.23h1.54c-.49-1.19-.88-2.15-1.28-3.12l-.04.02c1.24-.1,1.91.73,2.61,1.55-.34.18-.99.4-.97.53.13.96.39,1.9.61,2.85.18-.03.36-.07.54-.1-.08-1.11-.16-2.22-.24-3.33.51.15,1.03.3,1.58.47,1.33,2.84.28,6.39,2.67,9-.22-.41-.43-.82-.65-1.22h-.02c.7.07,1.41.14,2.27.23-.58-2.64-1.16-5.23-1.73-7.82,1.89,1.96.95,5.04,3.73,7.01-.54-1.92-.98-3.44-1.39-4.97-.78-2.93-.78-3.21-.21-4.29.81,4.21,1.4,5.68,2.99,7.36-.28-2.99-2.28-5.45-1.95-8.43.68,1.81,1.37,3.61,2.05,5.42.21-.05.43-.1.64-.14-.09-.98-.18-1.95-.26-2.92.83.1,1.65.19,2.46.29-.38.7-1.79,1.13-.46,2.6.19-1.07.32-1.84.46-2.61-1.25-1.09-.44-3.38-2.38-4.24v4.03c-.33-1.06-1.01-2.15-.93-3.17.25-2.99-1.52-5.08-3.05-7.15-2.37-3.21-3.84-6.83-5.55-10.36-.35-.72-.58-1.5-1.07-2.81,1.03.84,1.57,1.27,2.11,1.71.27,2.87,2.33,4.86,3.59,7.25.08.16.69.04,1.05.05.23,1.91,2.92,7.37,4.35,8.8.15-.9.29-1.77.43-2.64.52.88.4,1.8.7,2.56.64,1.66,1.49,3.21,1.11,5.11-.07.35.48.83.74,1.26.2-.05.4-.1.59-.15-.09-.87-.22-1.75-.26-2.62-.12-2.17-.21-4.34-.31-6.51.51.73,1.02,1.46,1.54,2.19.21-.15.42-.3.63-.46.04-.82.07-1.64.12-2.46.05-.73.14-1.45.21-2.18.08,0,.17.01.25.02.12,1,.24,2,.35,3,.66-.59,1.11-1.33.96-1.91-.45-1.71-1.14-3.35-1.73-5.02.29.2.58.4.97.67.35-1.27.65-2.35,1.02-3.7.52,2.24-.2,4.33.98,6.16.42-1.26,2.44-2.28.5-3.84-.15-.12-.03-.69.08-1.01.61-1.74-.35-2.64-1.82-3.42-.56.66-1.1,1.3-1.63,1.93.59-1.58,1.37-3.15.45-4.87.32.19.64.39,1.21.73.57-1.3,1.1-2.5,1.64-3.7.2.08.4.16.6.24-.2.63-.34,1.29-.61,1.9-.3.69-.81,1.31-1.05,2.02-.26.75-.15,1.47,1.03,1.46.1-.57.21-1.14.33-1.79.29.74.54,1.37,1.01,2.57,2.1-5.71,3.79-10.85,4.79-16.18-.18-.06-.36-.11-.53-.17-.54,1.81-1.09,3.61-1.63,5.42-.33-.58-.24-1.03-.15-1.49.61-3.06,1.84-6.03,1.44-9.26,1.81-4.01,1.82-8.22,1.52-12.47-.63,3.23-1.14,6.48-1.55,9.74-.11.91.07,1.87.12,2.8-.57.66-1.14,1.33-1.73,2.01.04-1.66,1.03-3.42-.21-5.05.36.03.72.06,1.14.09.33-4.97,2.29-9.9-.54-14.5-.36,2.94-.78,5.91-1.05,8.89-.14,1.48,0,2.98.01,4.47-.4-.28-.97-.46-1.17-.85-.32-.63-.41-1.38-.6-2.09,1.41-1.36,1.76-4.51.73-6.79.93,0,1.09-.69,1.03-1.35-.17-1.68-.44-3.34-.68-5.01-.93,2.2-1.81,4.34-.26,6.43-1.83-.01-1.11,1.68-1.67,2.51-.93-1.37,1.08-3.4-1.02-4.66-.58.95-1.09,1.8-1.61,2.65.36-1.25.53-2.6,1.12-3.73,1.51-2.91.37-5.14-1.53-7.27.09-.58.37-1.23.22-1.74-.62-2.08-1.37-4.12-2.07-6.17-.43-1.26-1.14-2.3-2.86-3.34.57,1.38.74,2.36,1.29,3.02.83,1.01.76,2.02.53,3.14-1.18-1.96-2.36-3.92-3.52-5.89-.09-.15-.03-.37-.05-.56.13-.09.39-.22.38-.27-.58-2.01-1.71-3.63-3.61-4.77.73,1.36,1.46,2.73,2.19,4.09-.18.17-.53.37-.51.51.23,1.67.64,3.22,1.89,4.54.93.98,1.51,2.29,2.25,3.46-1.24-1.15-2.48-2.3-3.73-3.44.11-1.47-.89-1.97-1.68-2.12.18-.99.63-1.91.41-2.62-.52-1.68-1.29-3.29-2.09-4.86-.44-.87-1.15-1.6-1.74-2.4-.14.08-.29.16-.43.24.37,1.41.75,2.81,1.26,4.71-1.1-.89-1.78-1.45-2.48-2.03.25-.11.73-.26.72-.31-.18-.89-.24-1.89-.71-2.62-.53-.82-1.5-.85-2.68-.37,1.02,1.26,1.89,2.32,2.76,3.39-.36-.02-.73-.04-1.19-.06v2.73c-1.31-1.77-.51-4.99-4.24-5.02.13,1.49.25,2.93.38,4.37-.16.03-.33.06-.49.08-.33-1.51-.67-3.02-1.02-4.62h-2.27c.19,1.7.36,3.16.52,4.63-.73-1-.93-2.1-1.22-3.16-.29-1.05-.46-2.35-2.14-1.73,0,.84.02,1.6,0,2.35-.03.74-.11,1.47-.2,2.78q-1.02-4.95-2.27-5.2c-1.84,2.29-.18,4.96-1.16,7.68-.69-.96-1.38-1.92-2.13-2.96-.44.69-.61.95-.8,1.25-.51-.81.08-2.14-1.78-2.36.2,3.1-.02,6.07,1.41,9.33-1.16-1.03-1.93-1.72-2.74-2.43-.38.42-.68.75-.91,1.02-2.33-.82.18-3.48-1.8-4.52-2.27,2.92.34,6.08-.62,9.61-.3-1.55-.49-2.55-.7-3.55-.21-.98.19-2.27-1.25-2.87-.86,1.35-.28,2.58-.25,3.76.03,1.23.18,2.45.28,3.68l.06-.06c-.41-.06-.82-.13-1.75-.27,1.16,2.72.69,5.15.35,7.59l.04-.09c-.21-.52-.42-1.04-.64-1.58-.48.41-.94.8-1.41,1.2,1.85,1.54,1.84,1.54.67,3.49-.13.21-.03.56-.04.83-.63-1.32-1.26-2.63-1.9-3.95-.17.07-.33.15-.5.23,1.07,3.21,2.15,6.42,3.27,9.78,1.09-.82.82-1.51.31-2.48-.59-1.13-.84-2.43-1.24-3.66,1.25.93.87,3.13,2.84,3.69.08-.74.15-1.34.23-2.08.89,1.06,1.66,1.87,2.29,2.77.2.29.19,1.07-.02,1.23-.28.22-.86.05-1.1.05-1.69,2.38-.21,4.03,1.25,5.69.8.91,1.6,1.82,2.66,3.02-2.69-.37-3.46-2.62-5.22-3.85-1.52,2.79,1.89,3.35,2.22,5.31-.62-.23-1.08-.4-1.63-.6,1.05,1.7,2.01,3.27,2.98,4.85-.07.28-.15.56-.22.83-.75-.68-1.51-1.37-2.3-2.09.46,2.6.72,2.82,2.6,2.23ZM515.45,369.74c.33.46.67.91,1,1.37.12.23.38.5.33.69-.32,1.25-.72,2.48-1.08,3.73-.4,1.4-.78,2.81-1.17,4.21l.05.07q.33-1.78-.28-3.38c-.47.83-.9,1.61-1.34,2.39l.06.05c.08-.84.1-1.7.26-2.53.14-.76,1.5-1.25.29-2.52-.41.99-.78,1.83-1.1,2.69-.43,1.16-.76,2.35-1.23,3.49-.71,1.72-1.64,3.37-2.21,5.13-.64,1.97-1.07,4.03-1.43,6.08-.11.64-1,1.85.69,1.98-.1.41-.19,1.18-.29,1.18-1.48.03-1.21,1.21-1.42,2.06-.27,1.09-.16,2.54-.83,3.22-1.29,1.29-1.22,2.93-1.76,4.39-.18.48-.3.99-.57,1.92-1.4-1.99-.31-3.91-.91-5.52.83.73,1.42.38,1.63-.52.16-.71.08-1.48.04-2.22-.12-2.08.14-4.06,1.32-5.84v-3.43c-.84,1.55-1.16,2.57.07,3.44-1.04-.36-1.41.4-1.56,1.11-.54,2.49-.98,5-1.45,7.51-.66,5.35-1.38,10.69-1.96,16.04-.16,1.48.11,3,.18,4.5l-.03-.08c.04.47.14.94.12,1.41-.15,3.97-.45,7.95-.44,11.92,0,2.83.45,5.66.63,8.49.09,1.42-.02,2.86.03,4.28.38,10.63.87,21.25-.55,31.85-.46,3.46-.39,6.99-.54,10.49,0,.18.19.36.62,1.16.66-5.16,1.24-9.65,1.82-14.14.01,4.01-.4,7.98-.76,11.94-.5,5.56-1.77,11.02-2,16.62-.13,3.12-.82,6.21-1.17,9.32-.14,1.28.1,2.62-.13,3.87-.41,2.21-.51,2.19.18,4.16,1.73-.51,1.68-2.16,2.3-3.45v5.6c-.57.11-1.11.22-1.66.33.03.36.12.66.06.92-.28,1.18.9,1.19,1.37,1.77-.04-.97,1.24-.8,1.42-1.93.39-2.44,1.43-4.76,2.03-7.17.57-2.29,1.16-4.63,1.29-6.97.1-1.68.06-3.29.5-4.97.32-1.23,1.32-2.71.03-4.05.52-2.73-1.06-5.91,1.83-8.16.4-.31.35-1.2.53-1.93-.57.2-.96.34-1.4.5-.25-2.96-.24-3.03.71-4.5.16.44.31.85.53,1.47.09-.45.17-.69.18-.93.06-1.53,0-3.07.2-4.58.17-1.22.94-2.38.98-3.58.1-3.14-.06-6.29-.14-9.44,0-.12-.24-.24-.5-.47,0,.34.02.57,0,.79-.04.29-.11.57-.23,1.15-1.16-2.28-1.24-3.69-.38-6.05.19.83.34,1.45.48,2.07.43-2.5.68-5.01.54-7.51-.1-1.79-.67-3.54.37-5.25.14-.23-.06-.69-.15-1.03-.17-.71-.66-1.49-.5-2.11.53-2.08-1.34-4.36.59-6.31.18-.18-.05-.73-.06-1.11-.01-1,.06-2-.06-2.99-.03-.28-.62-.5-1.15-.89,1.27-.53,1.43-1.42,1.39-2.72-.17-5.31-.08-10.62-.15-15.93-.05-4.28.76-8.46,1.61-12.61.99-4.83,2.18-9.62,3.26-14.43.02-.09-.15-.21-.23-.32-.32.26-.62.5-1.32,1.07,2.22-6.28,6.56-10.96,8-16.96-.71-.52-1.38-1.01-2.03-1.52.74-1.66,2.92-2.61,2.64-5.02-2.19,1.46-2.28,1.64-2.63,5.02-.5.67-1,1.33-1.51,2h0c.26-2.19-.05-4.47.95-6.56.08-.16.04-.38.06-.56q.2-1.81-1.91-1.89c1-.71,2.54-.79,2.81-2.36-.62-.79-1.05,1.26-1.82.14-.08-.11-1.29.56-1.95.89.42,1.18-1.6,2.05-.47,3.5.8-1.22,1.08-2.32.43-3.52ZM537.25,405.98c-.31-.14-.61-.27-1-.44.7,2.76.94,3.11,3.33,4.36-1-1.67-1.69-2.82-2.39-3.98q.55-1.74-1.63-2.85c.6,1.04,1.15,1.97,1.69,2.91ZM446.41,366.26c-.86,2.41.57,3.95,2.21,5.41-.15-.99-.45-1.94-.86-2.83-.42-.92-.96-1.79-1.44-2.68.27.37.54.75.81,1.12.26.04.68-.02.76.12,1.61,2.77,3.18,5.56,4.75,8.35-.83-.94-1.65-1.87-2.48-2.81-.12.06-.25.12-.37.18.55,1.54,1.1,3.07,1.81,5.08-1.37-1.07-2.3-1.8-3.25-2.54.34,1.83.68,3.65,1.12,6.03-2.25-3.58-1.53-7.8-4.61-10.39-.07.88.13,1.65.38,2.42.15.44.62.92.53,1.26-.64,2.3.67,4.29.88,6.43-.82-.22-.87-1.88-2.38-1.12.66,1.91,1.55,3.58,3.4,4.63-.04-.68-.28-1.25-.5-1.83-.21-.57-.39-1.16-.58-1.74,1.4-.02,1.11,1.29,1.54,2.01.49.81.71,1.86,1.36,2.49,1.08,1.03-.59,2.04.03,2.68,1.33,1.38-.36,1.28-.73,1.82.07.17.1.41.23.5,1.31.9,2.09,1.83,1.79,3.71-.18,1.14.79,2.46,1.23,3.7.47,1.33,1.21,2.65,1.33,4.01.3,3.51.35,7.04.44,10.56.06,2.57,0,5.14.05,7.7.13,7.51.57,15.03.33,22.53-.19,5.7.51,11.38-.27,17.1-.43,3.15.02,6.43.11,9.65.16,5.98.31,11.96.51,17.94.06,1.62.39,3.23.43,4.85.1,3.64-.54,7.33.94,10.86.2.49.02,1.13.03,1.7.04,1.32,0,2.65.17,3.95.57,4.24,1.2,8.47,1.85,12.7.1.65.39,1.28.59,1.92.11-.04.23-.07.34-.11-.37-3.56-.73-7.13-1.1-10.69.15-.02.29-.03.44-.05.34,1.94.69,3.87,1.03,5.81.14-.02.29-.05.43-.07-.21-2.14-.42-4.28-.63-6.41,1.87,3.36.65,7.37,2.6,10.7-.03-1.81-.18-3.6-.38-5.39-.19-1.64-1.01-3.25-.34-5.52.49,1.71.8,2.82,1.12,3.92-.09-1.75-.52-3.42.1-5.21.2.54.39,1.07.59,1.61-.26-2.5.33-5.08-.96-7.45-.34-.62-.06-1.59,0-2.4.09-1.3.23-2.6.33-3.89.28-3.59-1.28-7.17-.08-10.77.07-.21.03-.57-.11-.72-1.33-1.46-.69-3.1-.14-4.49.62-1.58.77-3.09.66-4.72-.1-1.62,0-3.24-.04-4.87-.12-5.69-.43-11.38-.31-17.06.05-2.19-1.61-3.94-1.05-6.15.25-.99.59-2.1.37-3.03-.77-3.2-.43-6.34-.04-9.81.31.4.45.59.6.77.06.07.11.16.19.21.03.02.12-.05.18-.09v-6.54c-.07,0-.14,0-.22,0-.13.8-.25,1.6-.38,2.4-.48-.86-.51-1.67-.47-2.48.21-4.95.54-9.9.62-14.86.06-3.3-.47-6.61-.27-9.89.19-3.01-.54-5.83-.99-8.71-.37-2.36-.81-4.7-1.22-7.06h0c-.39-2.02-.78-4.05-1.27-6.54-.27.72-.4,1.06-.53,1.39-1.18-2.85-.51-5.92-2.85-8.09-.26.53-.44.9-.85,1.75-.59-1.5-1-2.53-1.4-3.55.33.23.66.47,1.43,1.02-.98-3.91-3.11-6.56-5.1-9.27-.23-.32-1.17-.11-1.75-.16.55-2.19.52-2.25-1.59-3.14.27.66.57,1.4.87,2.13ZM534.07,405.1c-.26.08-.74.21-.74.24.37,1.81.77,3.61,2.35,5.22.5-2.4-1.1-3.79-1.68-5.53.6-1.65-.02-2.77-1.89-3.32.65,1.13,1.3,2.26,1.96,3.38ZM391.47,350.08c-.16-.47-.32-.93-.56-1.65-.23.66-.37,1.07-.54,1.59h1.2c-.42,2.57.1,4.94,1.43,7.45,1.2-1.75.6-3.14-.03-4.5-.45-.98-.99-1.93-1.5-2.88ZM575.76,380.15c.43-.26,1.1-.42,1.25-.79,1.48-3.59,2.59-7.29,2.79-11.23-1.33,4.02-2.67,8.03-3.97,12.08-.51,1.41-1.03,2.82-1.54,4.23,1.55-1.15,2.17-2.56,1.47-4.29ZM393.03,362.92c.19,1-.3,2.17,1,2.99v-4.41c-.56.8-.81,1.16-1.06,1.52.34-2.63-.23-4.95-2.29-6.77-.13-.8-.27-1.6-.4-2.4-.49,1.23-.51,2.41-.45,3.59,0,.12.59.2.9.3-1.47,2.41,1.59,3.7,1.14,6.07.6-.46.87-.67,1.15-.89ZM443.37,377.53c.51.4,1.02.81,1.52,1.21-.59-1.67.68-3.85-1.71-4.92.12.62.19.97.26,1.32-1.36-.45-.91-1.74-1.24-2.67-.46-1.3-1.12-1.65-2.34-.52,1.2,1.46,2.51,2.77,1.92,4.97-.18.69.79,1.68,1.24,2.53.15-.04.3-.09.45-.13-.04-.6-.07-1.19-.11-1.79ZM467.09,606.78c-.31-.67-.49-1.46-.95-1.99-1.31-1.51-2.7-2.95-4.12-4.35-.63-.62-1.42-1.06-2.14-1.59,1.29,2.4,2.8,4.57,4.54,6.53.62.7,1.81.9,2.74,1.33,3.41,3.7,7.61,5.14,12.57,4.32-2.03-.81-4.21-1.13-6.29-1.77-2.17-.67-4.24-1.65-6.35-2.49ZM573.77,336.18c.15-.28.5-.64.42-.83-1.33-3.35-2.7-6.69-4.13-10-.13-.31-.69-.44-1.66-1.01,1.64,4.24,2.03,8.23,4.7,11.34-.3.14-.87.36-.85.4.33,1.05.72,2.07,1.11,3.1.2-.04.41-.08.61-.12-.07-.96-.14-1.92-.21-2.88ZM483.05,609.59c.97-.2,2.8-.07,3.88-.91,2.55-1.97,4.78-4.36,7.05-6.67.7-.72.94-1.94,1.69-2.55.92-.75,1.65-1.35,1.9-2.64.12-.62,1.45-.9,1.93-1.55,1.48-1.98,2.96-3.97,4.16-6.12,2.29-4.09,4.38-8.28,6.55-12.44.18-.34.31-.7.41-1.07.96-3.5,1.97-6.98,2.85-10.5,1.09-4.36.96-5.89-.62-10.28-.16-.44-.39-.88-.68-1.24-2.21-2.79-4.96-4.84-8.1-6.55-3.15-1.72-6.62-2.31-9.96-3.28-3.83-1.11-7.8-1.9-11.86-1.43-1.31.15-2.61.43-3.92.66-3.25.57-6.52.39-9.83,1.2-4.93,1.2-9.71,2.55-14.24,4.83-3.12,1.57-5.29,4.14-6.67,7.21-1.68,3.72-1.14,7.77-.58,11.64.54,3.72,2.54,7.07,3.7,10.61,1.54,4.71,4.03,8.81,6.56,12.95,2.58,4.23,5.33,8.37,8.92,11.8,2.4,2.29,5.02,4.56,8.39,5.29,2.59.57,5.28.67,8.46,1.05ZM474.8,612.45c-.03,3.33-.22,6.27.16,9.32.41,3.19,2.2,5.06,4.35,6.89,1.23,1.05,1.85.85,3.16-.26,2.15-1.82,3.52-4.1,3.75-6.86.23-2.8.05-5.63.05-8.58-.57.09-1.19.18-2.01.31,0,1.5,0,2.89,0,4.28-.02,2.91.36,5.93-2.35,8.13-.86-.16-1.76-.33-3.09-.58-.63-3.69-1.28-7.5-2.01-11.75-.25-.11-.99-.44-2.01-.9ZM442.38,558.11c.17,0,.34.01.5.02.27-1.78.54-3.56.78-5.13h1.66c0-.52.03-1.5-.03-1.5-1.9-.18-.78-1.98-1.85-3.41-.4,3.76-.73,6.89-1.06,10.02ZM481.09,624.32c2.49-2.92,1.45-5.79,1.18-8.57-.43,1.22-.69,2.5-.5,3.71.26,1.61.06,2.75-1.86,3.18.4.57.69.98,1.18,1.68ZM500.69,596.93c-2.45,1.04-3.58,3.15-4.46,5.45,2.28-1.15,3.18-3.45,4.46-5.45ZM456.71,534.36c-4.77,1.71-5.81,2.64-5.92,4.93,2.11-1.76,4.01-3.34,5.92-4.93ZM537.68,318.36c.92.97,1.74,1.82,3.05,3.2-.48-2.41-.82-4.14-1.29-6.5-.8,1.51-1.27,2.37-1.76,3.3ZM548.96,415.4c-1.44-2.46-1.12-5.66-3.47-7.73,1.09,2.61,1.47,5.51,3.47,7.73ZM535.19,321.04c-2.02,1.82-1.77,3.12,1.02,5.46-.36-1.94-.66-3.56-1.02-5.46ZM438.53,401.85c1.53-1.93,1.94-3.99,1.39-6.16-.51,2.27-.95,4.21-1.39,6.16ZM578.63,343.92c.22-.06.44-.12.66-.18-.64-2.24-1.28-4.48-1.92-6.73-.1,1.96.32,3.79.77,5.61.11.45.32.86.49,1.3ZM394.2,352.32v-4.95c-.07,1.53-2.58,2.93,0,4.95ZM568.08,396.16c.27,1.24.55,2.48.82,3.73q1.07-2.35-.82-3.73ZM415.73,411.7c.67-1.91-.84-2.39-1.26-2.09-1.06.77-1.58-.8-2.91-.3,1.59.91,2.78,1.59,4.18,2.39ZM453.16,589.1c.24-.11.47-.23.71-.34-1.32-1.78-1.32-4.25-3.51-5.59.94,1.98,1.87,3.95,2.81,5.93ZM540.5,410.15c1.18,1.46,1.09,3.15,2.93,3.44-.3-1.43-.53-2.82-2.93-3.44ZM402.2,324.43c-2.64.37-1.64,2.6-2.4,3.8.97-1.04,2.5-1.68,2.4-3.8ZM470.79,542.06c.03-.19.05-.39.08-.58-2.06-.36-3.8.68-5.59,1.57,1.84-.33,3.67-.66,5.51-.99ZM404.37,403.49c-.19.22-.38.45-.56.67,1.29.9,2.57,1.81,3.86,2.71.15-.21.3-.42.45-.62-1.25-.92-2.5-1.84-3.75-2.76ZM442.02,363.73c1.01,1.38,1.65,2.26,2.29,3.13q.01-2.88-2.29-3.13ZM530.29,404.96c.19-.05.38-.1.57-.15-.27-1.63.02-3.4-1.79-4.62.41,1.59.81,3.18,1.22,4.77ZM544.65,414.34c.26-.05.53-.1.79-.14-.49-1.51-.98-3.01-1.48-4.52-.19.06-.39.12-.58.17.42,1.5.84,2.99,1.26,4.49ZM438.37,321.68c.58-.83,1.18-1.29,1.11-1.65-.16-.92-.89-1.09-1.93-.69.21.6.41,1.18.82,2.33ZM542.4,410.06c-.34-2.04-1.03-3.06-2.65-3.7.07,1.78.92,2.72,2.65,3.7ZM399.91,397.48c-.19,1.7,1.05,2.01,2.27,2.36-.21-1.27-1.1-1.93-2.27-2.36ZM410.19,411.04c.19-.24.39-.49.58-.73-.47-.87-1.18-1.4-2.22-1.46-.14.18-.28.35-.41.53.69.56,1.37,1.11,2.05,1.67ZM404.33,400.7q.12,1.74,2.12,2.04c-.94-.91-1.53-1.47-2.12-2.04ZM409.07,406.92c-.17.18-.34.36-.5.54.84.52,1.68,1.03,2.94,1.81-.27-2.17-1.54-1.99-2.44-2.35ZM547.24,406.94c-.77-.85-1.54-1.69-2.49-2.73-.06,1.95,1.12,2.47,2.49,2.73ZM390.68,376.09c-.22,0-.44,0-.66,0,.17,1.29.33,2.58.5,3.87.18-.02.36-.04.54-.06-.13-1.27-.25-2.53-.38-3.8ZM396.24,340.68c-.2-1.31-.34-2.21-.53-3.49-1.07,1.47-1.14,2.39.53,3.49ZM525.94,337.97c.29.03.58.06.87.09-.5-1.05,1.04-1.94-.33-3.35-.21,1.29-.38,2.27-.54,3.26ZM395.38,355.7c.07-.88.13-1.76.22-3q-1.29,1.4-.22,3ZM437.65,362.16c-.09.11-.18.21-.28.32.81.76,1.62,1.52,2.43,2.28.13-.15.26-.3.39-.45-.85-.72-1.7-1.43-2.55-2.15ZM396.09,380.5c-.05,1.49,0,2.43,1.3,2.87.54-1.36-.34-1.92-1.3-2.87ZM394.77,357.63c-.21-.04-.42-.08-.64-.12-.08.69-.19,1.37-.21,2.06,0,.11.39.24.71.42.05-.88.1-1.62.14-2.36ZM387.39,369.56c-.18.04-.36.08-.54.12.18.76.36,1.51.53,2.27.16-.04.32-.07.48-.11-.16-.76-.32-1.52-.48-2.28ZM395.41,375.11q-.4,1.52,1.09,1.95c-.44-.78-.76-1.37-1.09-1.95ZM551.31,409.92c-.27.09-.54.18-.81.27.37.88.74,1.76,1.11,2.64.18-.07.36-.13.55-.2-.28-.9-.56-1.8-.85-2.71ZM404.5,322.29c-.25-.17-.51-.34-.76-.51-.35.71-.7,1.43-1.04,2.14.16.09.32.17.48.26.44-.63.88-1.26,1.33-1.89ZM499.53,493.92c.4.15.49.22.57.21.07-.01.16-.11.17-.17.01-.55,0-1.1,0-1.66-.2,0-.4-.01-.59-.02-.05.58-.11,1.15-.15,1.64ZM405.67,321.47c.73-.8,1.2-1.31,1.67-1.82-.91.09-2.08-.09-1.67,1.82ZM446.7,574.95c.15-.12.29-.24.44-.36-.31-.67-.62-1.33-.93-2-.14.06-.28.12-.42.19.31.72.61,1.45.92,2.17ZM426.52,313.55c-.19-1.48-.76-1.85-1.64-1.73-.2.03-.38.29-.74.6.81.38,1.43.68,2.38,1.13ZM434.02,316.27c-.08.33-.15.66-.23.99.71.15,1.42.31,2.13.46.06-.25.13-.5.19-.74-.7-.24-1.4-.48-2.09-.71ZM390.33,370.28c-.23,0-.45.02-.68.03.15.73.3,1.47.45,2.2.17-.03.34-.06.51-.09-.09-.71-.19-1.43-.28-2.14ZM393.48,380.7c-.14.05-.28.11-.42.16.09.89.17,1.77.26,2.66.05,0,.11-.02.16-.03v-2.79ZM444.27,368.04c-.15.17-.3.34-.44.51.56.5,1.12,1,1.68,1.5.1-.11.21-.22.31-.33-.52-.56-1.03-1.12-1.55-1.68ZM443.1,370.18c-.16.06-.32.13-.48.19.21.63.42,1.26.62,1.89.09-.03.18-.06.27-.09-.14-.66-.28-1.33-.42-1.99ZM434.4,408.03c.15.05.3.11.44.16.2-.3.52-.58.56-.9.04-.33-.18-.69-.29-1.03-.15.02-.3.04-.44.05-.09.57-.18,1.15-.27,1.72ZM539,410.7c-.56,1.13-.26,1.76,1.07,1.77-.36-.59-.71-1.18-1.07-1.77ZM437.14,316.44c.18,1.72.63,2.23,2.34,1.96-.87-.73-1.37-1.15-2.34-1.96ZM461.76,441.18c.23.01.46.02.69.04-.02-.43-.05-.86-.07-1.29-.12-.01-.24-.02-.36-.04-.09.43-.17.86-.26,1.29ZM499.52,531.58c.03.13.05.26.08.4.36.04.75.2,1.06.1.31-.09.55-.44.82-.67-.06-.14-.12-.27-.18-.41-.59.19-1.18.39-1.77.58ZM405.63,407.42l.3-.42c-.54-.39-1.08-.78-1.63-1.17-.1.13-.19.26-.29.4.54.4,1.07.8,1.61,1.2ZM527.77,399.28c.27-.29.54-.46.56-.64.02-.22-.19-.45-.3-.68-.18.15-.47.27-.51.44-.05.21.12.47.25.87ZM526.63,397.6c-.16.04-.33.09-.49.13.09.58.18,1.16.27,1.73.12-.02.24-.03.37-.05-.05-.61-.1-1.21-.14-1.82ZM408.72,317.56c.17,0,.35.01.52.02.03-.46.05-.91.08-1.37-.2,0-.4-.02-.6-.03v1.38ZM575.82,387.24c.17.06.35.12.52.18.12-.54.23-1.09.35-1.63-.13-.03-.27-.06-.4-.09-.16.51-.31,1.03-.47,1.54ZM397.07,385.37c-.21-.27-.36-.45-.51-.64-.15.17-.43.34-.42.51,0,.21.23.41.37.62.17-.15.34-.29.57-.49ZM527.16,380c-.13.07-.27.13-.4.2.23.51.47,1.02.7,1.53.16-.08.32-.16.49-.24-.26-.49-.52-.99-.79-1.48ZM392.57,377.05c.18-.03.37-.06.55-.09-.06-.68-.11-1.37-.17-2.05-.13.01-.25.02-.38.03v2.11ZM552.35,315.9c.03-.22.06-.44.09-.65-.47-.04-.94-.09-1.41-.13-.02.14-.04.29-.05.43.46.12.91.24,1.37.35ZM444.97,569.2c.13-.06.26-.11.39-.17-.17-.46-.34-.92-.52-1.38-.21.11-.42.23-.64.34.25.4.51.81.76,1.21ZM391.5,366.78c.22-.03.44-.07.67-.1-.11-.48-.22-.97-.33-1.45-.11.02-.22.04-.33.06v1.5ZM386.76,364.7c.16-.01.32-.02.48-.03-.04-.6-.08-1.19-.12-1.79-.16.01-.33.02-.49.04.05.6.09,1.19.14,1.79ZM486.08,611.24c-.02-.15-.04-.29-.05-.44-.69.06-1.38.11-2.06.17,0,.09.02.18.03.27h2.09Z"/>
    <path class="st20" d="M508,547.25c-.07-.44-.34-.98-.17-1.31.2-.4.75-.64,1.28-1.04.68.95,1.42,1.99,2.17,3.03-.83-.11-1.66-.22-2.49-.33-.26-.12-.52-.23-.78-.35Z"/>
    <path class="st20" d="M399.67,339.63c.02.98.08,1.97.02,2.94,0,.11-.64.19-.99.28.04-.21.09-.41.13-.61-.77-1.98-.74-2.06.87-2.57l-.03-.04Z"/>
    <path class="st20" d="M533.37,365.25c1.01.75,2.02,1.5,3.03,2.25-.1.14-.2.29-.3.43-.91-.59-1.81-1.18-2.72-1.77,0,0,.07.06.07.06l-.21.06-.09-.2c.07-.28.15-.56.22-.83Z"/>
    <path class="st20" d="M438.45,332.67c.49-2.63.97-5.26,1.46-7.89.43,2.78-.08,5.41-1.46,7.89Z"/>
    <path class="st20" d="M401.63,387.5c-.2-.6-.39-1.2-.59-1.8.28-.02.7-.17.82-.04,1.58,1.79,3.12,3.62,4.53,5.71-.54-.37-1.11-.69-1.61-1.11-1.07-.9-2.1-1.84-3.15-2.76Z"/>
    <path class="st20" d="M433.91,389.31c-.28,2.42-.26,4.9-1.3,7.18-.02-2.46-.2-4.96,1.36-7.12l-.06-.06Z"/>
    <path class="st20" d="M410.27,334.82v-7.31c.1,2.27,1.68,4.56,0,7.31Z"/>
    <path class="st20" d="M420.06,406.43c1.54-.52,2.23,1.01,4.04,1.28-1.41.24-2.18.37-3,.51-.31-.59-.64-1.23-.97-1.86l-.07.08Z"/>
    <path class="st20" d="M443.32,331.54c.73,2.33-.46,4.28-1.55,6.24.54-2.05,1.09-4.11,1.62-6.17,0,0-.07-.07-.07-.07Z"/>
    <path class="st20" d="M402.21,377.18c-.19-1.27-.38-2.54-.57-3.82,1.71.25,1.83,1.68,2.13,2.76-.55.37-1.06.72-1.56,1.06Z"/>
    <path class="st20" d="M420.13,406.35c-1.58.36-2.52-.88-3.71-1.5,0,0-.07.08-.08.09.69-.09,1.39-.18,2.13-.28.54.6,1.06,1.18,1.59,1.77,0,0,.07-.08.07-.08Z"/>
    <path class="st20" d="M399.7,339.67c.15-1.14.3-2.28.45-3.41.15.02.31.03.46.05.11.87.21,1.75.3,2.5-.45.28-.86.54-1.26.81.01.02.04.06.04.06Z"/>
    <path class="st20" d="M403.75,367.92c.85-.25.94-.8.65-1.55-.2-.53-.32-1.08-.47-1.62.63.9,1.26,1.8,1.86,2.66-.48.97-.88,1.78-1.28,2.59-.26-.69-.51-1.39-.77-2.08Z"/>
    <path class="st20" d="M427.44,345.24c.41-1.33.81-2.66,1.22-4,.15.04.3.08.45.12-.4,1.34-.8,2.68-1.19,4.02-.16-.05-.32-.1-.47-.15Z"/>
    <path class="st20" d="M424.47,393.56c-.16,1.69-.32,3.39-.55,5.73-.97-2.47.08-4.06.55-5.73Z"/>
    <path class="st20" d="M422.22,346.57c-.35,1.14-.7,2.29-1.05,3.43-.13-.04-.27-.08-.4-.12.35-1.22.69-2.45,1.04-3.67.14.12.28.24.41.36Z"/>
    <path class="st20" d="M430.66,406.84c-.07-.34-.14-.67-.23-1.13-.73.38-1.3.67-1.87.97-.1-.18-.2-.36-.3-.54.74-.48,1.49-.96,2.58-1.66-.08,1.12-.12,1.75-.17,2.38,0,0-.01,0-.01,0Z"/>
    <path class="st20" d="M425.74,351.36c.25-.86.5-1.72.76-2.57.14.04.29.08.43.11-.25.91-.49,1.82-.74,2.72-.15-.09-.3-.18-.44-.26Z"/>
    <path class="st20" d="M425.24,373.57c-.28,1.16-.56,2.33-.83,3.49-.12-.02-.24-.04-.36-.06.24-1.25.49-2.49.73-3.74.15.1.31.21.46.31Z"/>
    <path class="st20" d="M400.47,366.74c1.61.63,1.86,2.26,2.58,3.55-1.86-.46-2.02-2.15-2.58-3.55Z"/>
    <path class="st20" d="M405.34,330.48c.09,1.29.18,2.58.28,3.87-.15,0-.3,0-.45,0,.07-1.3.15-2.61.23-3.92,0,0-.06.04-.06.04Z"/>
    <path class="st20" d="M437.18,337.69c-.43.84-.86,1.69-1.45,2.84-.1-1.43.19-2.34.88-3.08.19.08.37.16.56.25Z"/>
    <path class="st20" d="M420.96,391.16c.14-.72.28-1.44.51-2.61.86,1.41.46,2.07-.51,2.61Z"/>
    <path class="st20" d="M436.17,332.59c.24-.86.47-1.71.71-2.57.14.04.29.08.43.12-.26.85-.52,1.7-.77,2.55-.12-.03-.24-.07-.36-.1Z"/>
    <path class="st20" d="M410.6,396.67c-1.57-.12-2.63-.95-3.26-2.36,1.09.79,2.17,1.58,3.26,2.36Z"/>
    <path class="st20" d="M399.37,350.68c-.63-1.39-1.73-2.71-.7-4.38.01,0-.03,0-.02,0,.22,1.48.43,2.97.63,4.46l.09-.08Z"/>
    <path class="st20" d="M406.72,343.74c.18-.89.37-1.78.55-2.66.21.04.41.08.62.12-.21.86-.41,1.72-.61,2.58-.18-.01-.37-.03-.55-.04Z"/>
    <path class="st20" d="M414.88,399.56c-1.07-.59-2.14-1.18-3.22-1.77,1.07.59,2.14,1.18,3.22,1.77Z"/>
    <path class="st20" d="M440.58,333.91c-.06.88-.12,1.75-.19,2.63-.16-.03-.31-.06-.47-.08.24-.82.48-1.65.72-2.48,0,0-.06-.07-.06-.07Z"/>
    <path class="st20" d="M429.45,339.47c-.04-.4-.12-.6-.06-.75.21-.51.46-1,.7-1.49.04.08.12.17.1.23-.13.53-.27,1.07-.42,1.6-.02.08-.11.14-.32.42Z"/>
    <path class="st20" d="M404.45,352.16c.07-.64.14-1.28.21-1.92.12,0,.23.02.35.03-.07.64-.13,1.28-.2,1.92-.12,0-.24-.02-.36-.03Z"/>
    <path class="st20" d="M399.28,350.76c.48.79.96,1.58,1.44,2.37-.24.1-.47.19-.71.29-.22-.91-.43-1.82-.65-2.73,0,0-.09.08-.09.08Z"/>
    <path class="st20" d="M421.46,412.29c-.34-.32-.65-.62-.96-.91q1.2-.27.96.91Z"/>
    <path class="st20" d="M409.17,393.75c-.51-.42-1.02-.85-1.53-1.27.07-.11.15-.21.22-.32.58.36,1.15.73,1.73,1.09-.14.17-.28.34-.42.5Z"/>
    <path class="st20" d="M433.97,389.37c.1-.79.2-1.57.3-2.36.19.05.39.11.58.16-.32.71-.63,1.42-.94,2.14,0,0,.06.06.06.06Z"/>
    <path class="st20" d="M405.04,377.47c.38.48.76.96,1.14,1.43-.11.09-.21.18-.32.27-.41-.46-.81-.93-1.22-1.39.13-.1.27-.21.4-.31Z"/>
    <path class="st20" d="M406.12,363.1c-.05.33-.1.67-.15,1-.22-.09-.63-.21-.62-.26.05-.3.2-.58.31-.87.15.04.31.08.46.12Z"/>
    <path class="st20" d="M410.8,349.8c-.23.46-.47.93-.7,1.39-.07-.03-.15-.06-.22-.09.2-.51.4-1.02.6-1.53.11.07.21.14.32.22Z"/>
    <path class="st20" d="M553.17,389.84c-3.4-2.4-5.3-5.79-6.44-9.69,1.66,1.46,2.64,3.38,3.56,5.46,2.36,0,2.99,1.68,3.3,3.64-.14.2-.28.4-.42.59Z"/>
    <path class="st20" d="M555.88,392.08c2.98,3.06,3.66,4.23,3.49,6.38-2.26-1.89-4.08-3.84-4.98-6.53-.04-.13.14-.33.22-.5.42.21.84.43,1.27.64Z"/>
    <path class="st20" d="M563.28,360.82c.07.85.14,1.7.21,2.55,0,0,.09-.05.09-.05-.34-.11-.69-.22-1.35-.44.01,2.21-1,3.95-2.17,5.61l.08.05c-.16-1.48-.2-1.6,1.37-5.05.54-1.2.68-2.3.33-3.51.5.3,1,.6,1.49.88-.01-.01-.06-.05-.06-.05Z"/>
    <path class="st20" d="M541.49,400.12c-2.24-.82-4.37-3.06-4.94-5.12-.12-.44-.39-.83-.6-1.24,1.33,1.44,2.68,2.87,3.98,4.33.57.64,1.04,1.36,1.55,2.04Z"/>
    <path class="st20" d="M540.17,392.76c1.8,1.68,3.61,3.37,5.41,5.05-2.43-.99-3.93-3.01-5.86-4.56.15-.16.3-.33.45-.49Z"/>
    <path class="st20" d="M529.65,334.12c1.47.57,2.92,1.15,2.89,3.25-.76-.35-1.5-.69-2.83-1.3,0-.25,0-1.13,0-2.01l-.06.06Z"/>
    <path class="st20" d="M557.44,346.12c.06-1.1-.07-2.26.24-3.29.3-.97,1.06-1.81,1.91-2.61-.64,1.99-1.28,3.98-1.92,5.97-.08-.02-.16-.05-.24-.07Z"/>
    <path class="st20" d="M528.31,341.38c.24-.3.42-.67.72-.87.34-.24.9-.57,1.15-.44,1.09.56-.25.68-.24,1.03.02.83.16,1.65-.24,2.69-.44-.84-.89-1.68-1.34-2.51,0,.01-.05.1-.05.1Z"/>
    <path class="st20" d="M565.87,337.47c-.79,2.53-1.58,5.06-2.37,7.59.79-2.53,1.58-5.06,2.37-7.59Z"/>
    <path class="st20" d="M558.35,373.16c-.19-1.08-.38-2.16-.57-3.24.22.3.44.61.77,1.07.64-.98,1.12-1.71,1.59-2.44l-.08-.05c-.19,1.36-.38,2.71-.57,4.07l.06-.08c-.4.22-.8.44-1.21.67Z"/>
    <path class="st20" d="M551.71,400.49c-.78-.99-1.57-1.99-2.35-2.98-.54-.69-1.51-1.2-1-2.34l-.04.06c.94,1.12,1.94,2.2,2.79,3.39.36.51.4,1.25.58,1.89,0,0,.03-.01.03-.01Z"/>
    <path class="st20" d="M561.26,351.55c-.18.83-.45,1.65-.52,2.49-.1,1.2-.05,2.41-.06,3.62-1.27-.75-1.52-1.84-.94-3.12.46-1.02,1.01-1.99,1.53-2.99Z"/>
    <path class="st20" d="M555.88,392.08c-.42-.21-.85-.43-1.27-.64-1.25.16-1.24-.82-1.44-1.6.14-.2.28-.4.42-.59,1.2.59,2.16,1.38,2.29,2.83Z"/>
    <path class="st20" d="M531.37,370.84c1.12,1.19,2.24,2.38,3.37,3.56-2.03-.42-3.13-1.63-3.31-3.62l-.06.05Z"/>
    <path class="st20" d="M557.82,410.26c-.19-1.8-.38-3.61-.56-5.41.57,1.77,2.33,3.47.55,5.4,0,0,.02,0,.02,0Z"/>
    <path class="st20" d="M540.97,372.31c.63.95,1.27,1.91,1.9,2.86-.77-.8-1.56-1.61-2.34-2.42.15-.15.29-.3.44-.44Z"/>
    <path class="st20" d="M563.01,328.28c.23.99.47,1.98.7,2.97-.58-.03-1.16-.07-1.88-.11.51-.87-.34-2.28,1.18-2.86Z"/>
    <path class="st20" d="M546.03,392.93c-1.91.37-2.25-1.44-3.08-2.55,1.01.86,2.03,1.72,3.03,2.6-.01.01.05-.05.05-.05Z"/>
    <path class="st20" d="M551.69,395.58c.68.53,1.45,1.13,2.22,1.73l-.31.31c-.67-.71-1.34-1.42-1.92-2.03Z"/>
    <path class="st20" d="M550.23,325.99c-.6-.74-1.2-1.48-1.8-2.22.17-.14.34-.27.5-.41.61.74,1.22,1.48,1.83,2.22-.18.14-.35.27-.53.41Z"/>
    <path class="st20" d="M565.8,334.54c.48.52.96,1.03,1.56,1.68-.63.55-1.09.96-1.56,1.37,0-1.02,0-2.03,0-3.05Z"/>
    <path class="st20" d="M534.35,338.92c.52.68,1.04,1.36,1.57,2.04-.08.07-.16.14-.23.21-.53-.71-1.05-1.41-1.58-2.12.08-.04.17-.08.25-.13Z"/>
    <path class="st20" d="M545.71,329.19c.75.03,1.17.05,1.66.07v1.45c-.53-.49-1-.92-1.66-1.52Z"/>
    <path class="st20" d="M536.02,393.83c-.89-.98-1.77-1.96-2.66-2.94,1.69.25,1.91,1.84,2.66,2.94Z"/>
    <path class="st20" d="M544.53,327.95c-.45-.56-.89-1.11-1.34-1.67.07-.07.14-.14.21-.22.52.49,1.03.98,1.55,1.47-.14.14-.28.28-.42.42Z"/>
    <path class="st20" d="M552.76,346.5c.11-.95.17-1.54.24-2.12.15-.02.3-.03.45-.05.08.36.29.74.22,1.07-.06.3-.42.54-.9,1.1Z"/>
    <path class="st20" d="M554.95,369.62c.39,1.07.78,2.15,1.16,3.22-.48-.58-1.07-1.11-1.38-1.76-.17-.37.13-.96.21-1.46Z"/>
    <path class="st20" d="M534.84,371.95c.88.67,1.77,1.34,2.65,2.01-.16.16-.32.31-.47.47-1.6-.66-1.59-.67-2.12-2.53,0,0-.06.05-.06.05Z"/>
    <path class="st20" d="M557.2,373.95c.4-.29.8-.58,1.2-.87-.08.66-.05,1.36-.27,1.97-.15.45-.62.78-.95,1.17,0-.75.01-1.51.02-2.26Z"/>
    <path class="st20" d="M556.64,377.14c.05.65.1,1.29.15,1.94-.44.33-.89.66-1.33.98.4-.97.79-1.95,1.19-2.92Z"/>
    <path class="st20" d="M536.75,355.24c-.39-.37-.79-.74-1.18-1.11.12-.14.23-.28.35-.42.22.15.49.27.66.46.21.23.35.52.51.79-.12.1-.23.19-.35.29Z"/>
    <path class="st20" d="M557.56,369.7c-.89.29-1.79-1.09-2.67.04.06-.36.11-.72.23-1.51.89.54,1.67,1,2.44,1.47Z"/>
    <path class="st20" d="M530.24,373.69c.61.68,1.21,1.36,1.82,2.04-.2.14-.41.27-.61.41-.38-.83-.77-1.66-1.15-2.5,0,0-.05.05-.05.05Z"/>
    <path class="st20" d="M539.45,382.96c-.37-.45-.74-.91-1.11-1.36.08-.07.17-.15.25-.22.41.43.81.86,1.22,1.29-.12.1-.24.2-.36.29Z"/>
    <path class="st20" d="M548.36,395.16c-1.59.08-2.17-.47-2.34-2.23,0,0-.06.05-.05.04.78.75,1.55,1.51,2.33,2.26.01-.01.06-.07.06-.07Z"/>
    <path class="st20" d="M535.97,333.25c.35.58.7,1.15,1.05,1.73-.15.1-.31.19-.46.29-.35-.58-.7-1.16-1.05-1.73.15-.09.31-.19.46-.28Z"/>
    <path class="st20" d="M551.07,336.05c-.52-.98-.79-1.51-1.18-2.26q1.06.54,1.18,2.26Z"/>
    <path class="st20" d="M563.58,344.92c-.4,1.28-.8,2.56-1.2,3.84.4-1.28.8-2.56,1.2-3.84Z"/>
    <path class="st20" d="M558.33,360.66c-.17.66-.33,1.32-.5,1.97-.16-.04-.31-.09-.47-.13.21-.64.42-1.29.63-1.93.11.03.23.06.34.09Z"/>
    <path class="st20" d="M552.66,329.18c-.34-.47-.69-.94-1.03-1.41.09-.08.19-.16.28-.24.38.42.76.84,1.14,1.26-.13.13-.26.26-.38.4Z"/>
    <path class="st20" d="M557.31,330.5c.13-.58.26-1.16.39-1.74.12.03.24.06.36.09-.16.57-.33,1.14-.49,1.71-.09-.02-.18-.04-.27-.06Z"/>
    <path class="st20" d="M545.75,335.72c-.3.38-.61.76-.91,1.14-.33-.3-.91-.57-.09-.99.25-.13.47-.32.7-.48.1.11.2.22.3.33Z"/>
    <path class="st20" d="M532.17,342.41c-.31.16-.61.33-1.17.62.11-.44.19-.77.27-1.1.28.18.56.37.84.55l.05-.07Z"/>
    <path class="st20" d="M532.12,342.49c.53.63,1.06,1.27,1.58,1.9-1.15-.21-1.7-.84-1.54-1.97,0,0-.05.07-.05.07Z"/>
    <path class="st20" d="M461.13,464.33c.33,3.8.63,6.95.85,10.11.06.83-.15,1.67-.26,2.67-1.03-1.78-1.29-7.15-.59-12.78Z"/>
    <path class="st20" d="M458.94,392.47c.25,2.04.5,4.08.75,6.11-.12.02-.23.04-.35.05-.14-1.02-.28-2.05-.43-3.07-.15-1.01-.32-2.02-.47-3.03.17-.02.34-.05.51-.07Z"/>
    <path class="st20" d="M459.46,390.73c-1.78-.58-1.79-.6-1.71-3.17.57,1.06,1.14,2.12,1.72,3.17,0,0,0,0,0,0Z"/>
    <path class="st20" d="M455.71,398.99c.26,1,.53,2,.79,3.01-.19.05-.38.11-.56.16-.3-.96-.6-1.93-.9-2.89.23-.09.45-.18.68-.28Z"/>
    <path class="st20" d="M459.9,403.49c-.09-.86-.18-1.71-.26-2.57.15-.01.3-.03.45-.04v2.59c-.06,0-.12.01-.19.02Z"/>
    <path class="st20" d="M452.89,396.68c-.24-.76-.49-1.53-.73-2.29.15-.05.3-.1.46-.15.26.75.52,1.49.78,2.24-.17.07-.33.14-.5.21Z"/>
    <path class="st20" d="M461.01,457.01v-1.82s.08,0,.12,0v1.83h-.12Z"/>
    <path class="st20" d="M459.22,445.93c.05-.47.09-.95.14-1.42.06.47.12.94.19,1.41-.11,0-.22,0-.32,0Z"/>
    <path class="st20" d="M457.62,504.89c-.06-.49-.12-.97-.19-1.46.1-.01.2-.03.31-.04.07.49.14.97.21,1.46-.11.01-.22.03-.33.04Z"/>
    <path class="st20" d="M502.31,433.44c.37,9.01,2.19,17.97.64,26.95h-.64v-26.95Z"/>
    <path class="st20" d="M504.14,503.06c.1-1.21.21-2.43.29-3.64.08-1.08.13-2.17.19-3.26.21,0,.43.02.64.03-.12,2.05-.21,4.09-.35,6.14-.14,2.02-.29,4.05-.48,6.07-.2,2.13-.44,4.26-1.16,6.35.3-3.9.59-7.81.89-11.71l-.04.03Z"/>
    <path class="st20" d="M502.2,499.28c-.25,2.86-.5,5.73-.8,9.23-.57-3.82-.43-3.78-.17-4.87.33-1.43.42-2.93.61-4.4.12.01.25.02.37.03Z"/>
    <path class="st20" d="M507.73,476.67v8.56c-.1,0-.2,0-.3,0v-8.56h.3Z"/>
    <path class="st20" d="M502.3,413.34c.25-1.95.5-3.9.75-5.85.2.02.39.04.59.05-.22,1.93-.43,3.87-.65,5.8-.23,0-.46,0-.7-.01Z"/>
    <path class="st20" d="M502.09,419.83c-1.5-.55-1.18-1.67-.92-2.98.48.11,1.21.16,1.24.31.11.75.91,1.84-.67,2.07-.03,0-.09.2-.05.24.11.13.25.23.38.35-.01,0,.02,0,.02,0Z"/>
    <path class="st20" d="M508.91,474.91v5c-.09,0-.18,0-.26,0v-5c.09,0,.18,0,.26,0Z"/>
    <path class="st20" d="M500.38,514.29c-.06-1.12-.13-2.24-.19-3.36.2,0,.41.01.61.02.04,1.1.69,2.24-.49,3.28l.07.06Z"/>
    <path class="st20" d="M504.18,503.04c-1.58.74-.33,2.45-1.44,3.74.28-1.54-.99-3.22,1.4-3.7.01-.01.05-.04.05-.04Z"/>
    <path class="st20" d="M500.78,421c.43-.39.86-.78,1.3-1.17,0,0-.02,0-.01,0,.01,1.06.01,2.11.01,3.37-.52-.88-.92-1.56-1.32-2.25,0-.01.02.06.02.06Z"/>
    <path class="st20" d="M508.59,436.29v-3.22c.1,0,.21,0,.31,0v3.23c-.1,0-.21,0-.31,0Z"/>
    <path class="st20" d="M503.72,498.05v2.94c-.13,0-.26,0-.39,0,.05-.98.1-1.96.15-2.93h.24Z"/>
    <path class="st20" d="M512.97,378.8c-.03.94-.06,1.89-.09,2.83q-.97-1.27.15-2.78s-.06-.05-.06-.05Z"/>
    <path class="st20" d="M517.36,380.11v3.49c-.25-.01-.49-.03-.74-.04.24-1.15.49-2.29.73-3.44,0,0,0,0,0,0Z"/>
    <path class="st20" d="M514.54,379.73v3.32c-.11,0-.22-.02-.33-.02.13-1.07.26-2.14.38-3.23,0,0-.05-.07-.05-.07Z"/>
    <path class="st20" d="M500.31,514.22c.18.9.37,1.81.56,2.78q-1.27-1.26-.49-2.72s-.07-.07-.07-.07Z"/>
    <path class="st20" d="M506.96,446.36v1.35c-.09-.01-.18-.02-.28-.03.09-.41.17-.82.28-1.32Z"/>
    <path class="st20" d="M506.34,435.44v-2.03c.07,0,.15,0,.22,0v2.03c-.07,0-.15,0-.22,0Z"/>
    <path class="st20" d="M506.91,401.98v-1.6c.09,0,.18,0,.27.01-.03.53-.06,1.06-.09,1.59-.06,0-.12,0-.17,0Z"/>
    <path class="st20" d="M512.03,385.92c-.12.85-.23,1.69-.35,2.54-.14-.04-.29-.08-.43-.11.28-.79.56-1.58.83-2.36l-.05-.06Z"/>
    <path class="st20" d="M512.08,385.98c-.05-.92-.1-1.83-.15-2.75.15,0,.31.01.46.02-.13.89-.25,1.77-.37,2.66,0,0,.06.07.06.07Z"/>
    <path class="st20" d="M489.58,532.23c.92-.62,1.84-1.24,2.76-1.86.79-.2,1.58-.39,2.37-.59-1.92,2.36-4.68,3.32-7.39,4.38.75-.64,1.51-1.28,2.26-1.93Z"/>
    <path class="st20" d="M485.05,540.06h-7.31c0-.1,0-.19,0-.29h7.27c.01.1.02.19.04.29Z"/>
    <path class="st20" d="M466.6,535.04c1.07-.97,2.14-1.95,3.21-2.92.14.17.28.34.42.52-1.11.94-1.96,2.23-3.68,2.35,0,0,.06.06.06.06Z"/>
    <path class="st20" d="M476.4,530.54c1.14-.68,2.28-1.36,3.42-2.03.12.21.24.41.36.62-1.13.69-2.25,1.37-3.38,2.06-.13-.21-.27-.43-.4-.64Z"/>
    <path class="st20" d="M450.98,547c-.48,1.24-1.59,1.58-2.82,2.14q.58-1.59,2.87-2.08s-.06-.06-.06-.06Z"/>
    <path class="st20" d="M463.68,537.32c-.72.68-1.45,1.36-2.25,2.11q.73-1.5,2.31-2.05l-.06-.06Z"/>
    <path class="st20" d="M463.75,537.38c.38-1.48,1.7-1.8,2.85-2.34,0,0-.06-.06-.06-.06-.95.78-1.91,1.56-2.86,2.34,0,0,.06.06.06.06Z"/>
    <path class="st20" d="M484.31,530.96c-.7.59-1.4,1.17-2.1,1.76-.13-.21-.26-.42-.39-.64.84-.35,1.69-.71,2.53-1.06,0,0-.05-.06-.05-.06Z"/>
    <path class="st20" d="M469.95,534.43c.59-.37,1.18-.74,1.88-1.18,0,.31.05.51,0,.55-.56.35-1.13.67-1.7,1-.06-.12-.11-.25-.17-.37Z"/>
    <path class="st20" d="M500.94,534.4c-.32.56-.63,1.11-.95,1.67q-.29-1.23,1.01-1.61l-.06-.06Z"/>
    <path class="st20" d="M467.65,530.38c.41,0,.82-.01,1.23-.02-.6.62-1.2,1.24-1.8,1.85-.11-.09-.22-.18-.34-.26.3-.52.6-1.05.91-1.57Z"/>
    <path class="st20" d="M462.57,535.05c.45-.53.9-1.06,1.51-1.78.1,1.47-.75,1.57-1.56,1.72l.05.06Z"/>
    <path class="st20" d="M459.39,535.1c.48-.39.97-.79,1.45-1.18.1.1.2.2.31.3-.27.26-.52.55-.81.78-.22.18-.5.28-.76.41-.06-.11-.12-.21-.19-.32Z"/>
    <path class="st20" d="M462.52,534.99c-.53.59-1.07,1.18-1.6,1.77-.13-.14-.27-.29-.4-.43.51-.63.97-1.33,2.05-1.28,0,0-.05-.06-.05-.06Z"/>
    <path class="st20" d="M484.41,606.3c.25.38.39.59.64.96-2.33.3-4.57.58-6.7.85-1.96-.97-3.93-1.85-5.82-2.9-3.01-1.67-4.71-4.69-7.05-7.05-.63-.64-1.33-1.2-2.09-1.87-.1-.73-.05-1.79-.43-2.65-.56-1.3-1.36-2.51-2.17-3.69-2.18-3.16-3.96-6.51-5.19-10.17-.44-1.31-1.37-2.45-2.03-3.69-.4-.75-.83-1.52-1.02-2.33-1.17-4.97-1.32-9.96-.25-14.99.77-3.61,3.45-5.56,6.17-7.51,1.31-.94,2.56-1.96,3.95-2.76,1.06-.61,2.25-1.14,3.44-1.34,4.51-.77,9.04-1.82,13.59-1.94,4.52-.12,9.12.47,13.59,1.29,3.34.61,6.56,1.98,9.76,3.2,1.2.46,2.13,1.92,3.31,2.12,2.85.49,2.71,2.73,3.27,4.62,1.18,3.92.85,7.72.1,11.77-.73,3.96-2.84,7.21-3.98,10.9-2.15,6.94-6.59,12.54-10.82,18.23-1.69,2.28-3.72,4.32-5.7,6.38-.63.65-1.57,1-2.39,1.46-.72.4-1.46.74-2.22,1.12ZM462.42,568.65c.52.09,1.04.17,1.56.26.09-.15.17-.3.26-.45-.58-.48-1.17-.96-2.25-1.86.26,1.19.35,1.62.44,2.04-.79-.45-1.57-.9-2.53-1.44.47,1.49,1.49,1.48,2.52,1.44ZM472.71,576.11c.89-.14,1.78.95,2.79.07q-1.73-1.18-2.79-.07c-.8-.33-1.6-.67-2.6-1.09.55,1.81,1.77.82,2.6,1.08ZM498.53,551.2c-.96-.31-1.82-1.36-3.14-.28,1.21,1,2.01,2.43,3.9,2.51-.31-.87-.57-1.61-.83-2.35.51.31,1.03.62,1.54.92.07-.23.15-.46.22-.68-.56-.04-1.13-.08-1.69-.12ZM472.77,568.75q-2.8-1.58-4.53-1.04c1.6,2.04,2.53,2.24,4.45.95.61.3,1.23.61,1.84.91-.21-1.16-.54-2.08-1.84-1.8.04.43.06.7.08.97ZM476.11,572.23c.77.39,1.53.78,2.3,1.17-.63-1.41-1.1-2.93-3.01-2.69.18.54.3.9.43,1.27q-2.68-2.01-4.98-1.47c.63.67,1.1,1.44,1.79,1.87,1.12.69,2.37,1.18,3.48-.14ZM504.78,563.19c1-.57,2-1.14,3.16-1.81-.36-.84-.13-2.15-1.9-1.54-.49.17-1.17-.24-1.77-.36-.71-.15-1.46-.47-2.14-.35-1.06.18-.67.88-.25,1.46-.83-.61-1.71-1.17-2.49-1.84-3.69-3.15-7.35-6.34-11.05-9.48-.36-.31-.93-.37-1.41-.55.52,1.18,1.38,1.86,2.17,2.62,3.02,2.91,6.01,5.85,9.01,8.78-.85-.58-1.78-1.08-2.55-1.76-3.64-3.22-7.24-6.47-10.84-9.74-1.13-1.03-2.33-1.37-3.94-.83,6.43,6.23,12.69,12.32,18.96,18.4-1.63-1.28-3.35-2.47-4.87-3.86-3.39-3.09-6.66-6.3-10.03-9.42-1.68-1.56-3.45-3.03-5.19-4.52-.73-.63-1.48-.84-2.24.14,7.12,6.23,14.07,12.59,20.3,19.69-4.15-3.67-8.13-7.52-12.2-11.28-2.8-2.6-5.7-5.1-8.61-7.58-.59-.5-1.28-1.55-2.54-.35,7.37,7.03,14.92,13.71,21.57,21.28-.93-.54-1.72-1.23-2.48-1.95-6.37-6.07-12.73-12.14-19.09-18.21-.41-.39-.83-.86-1.34-1.05-.4-.15-.95.07-1.73.16,1.02,1.39,1.83,2.49,2.63,3.58l.05-.06h-2.52c7.57,7.72,14.78,15.07,21.99,22.42-1.52-.87-2.82-1.95-4.01-3.14-5.07-5.05-10.1-10.13-15.15-15.19-.77-.77-1.48-1.85-3.04-.94,4.53,4.75,9,9.44,13.89,14.56-1.11-.27-1.55-.37-1.98-.48-3.3-3.24-6.58-6.51-9.94-9.7-.4-.38-1.23-.31-1.86-.45-.06.17-.11.33-.17.5,2.05,2.17,4.1,4.34,6.15,6.51-1.13-.82-2.31-1.59-3.38-2.49-.91-.76-1.75-1.44-3.14-.79,1.64,2.29,3.29,4.32,6.52,3.28.66.7,1.31,1.41,1.96,2.11-1.31-.29-2.3-2.05-3.99-.91.61,1.5,1.79,1.95,3.21,1.81.26-.02.46-.65.69-.99,1.27.61,2.36,1.89,4.01,1.06-.73.37-1.6.62-1.47,1.72-1.03-.79-2.05-1.62-3.69-.75.68.72,1.16,1.45,1.83,1.9,1.05.71,2.23,1.24,3.14-.29,1.01.41,2.02.83,3,1.23-.1.11-.27.31-.44.5.43.41.86.82,1.28,1.23-.13.15-.26.31-.39.46-.73-.49-1.4-1.1-2.19-1.44-.71-.31-1.54-.33-2.31-.48,1.6.41,1.44,1.74,1.69,2.77-2.15-1.66-4.52-1.89-7.12-1.02.53.52,1.13.97,1.75,1.01,1.79.09,3.58.02,5.37,0,2.98.04,5.98-.1,8.95.15,2.87.24,5.22-.82,7.33-2.47,1.75-1.37,3.65-1.52,5.69-1.4.25.01.51-.08,1.01-.16-.36-.85-.67-1.57-.98-2.31-1.55.24-2.9.45-4.73.73.82-.77,1.22-1.14,1.74-1.62-.59-.67-1.14-1.31-1.69-1.94,1.62,1.2,3.01,3.15,5.9,1.58-.96-.89-1.64-1.84-2.55-2.27-.98-.46-1.1-1.14-1.2-1.98.66.28,1.31.73,1.99.8.82.08,1.48-.27.78-1.26q1.66.21,1.6-1.81c-.95-.2-1.93-.73-2.73.35ZM485.09,600.57c.15.13.29.27.44.4,1.36-1.15,2.74-2.3,4.09-3.46,1.08-.93,2.02-2.07,3.75-1.38.35.14,1.08-.26,1.42-.61.66-.67,1.25-1.44,1.73-2.26,2.32-3.95,4.65-7.89,6.84-11.9.84-1.54,1.32-3.28,1.97-4.92-.15-.14-.3-.28-.45-.42-.92.41-1.84.81-2.75,1.24-2.67,1.24-5.3,2.59-8.3,2.93-1.42.16-2.82.69-4.22.66-4.12-.11-8.25.81-12.36-.52-2.68-.87-5.58-1.08-8.31-1.82-2.76-.75-5.54.1-8.33-.5-2.23-.48-2.81.5-2.04,2.62.35.97.89,1.86,1.38,2.78.9,1.69,1.34,3.5,1.79,5.36.36,1.52,1.66,2.82,2.55,4.22,2.23-1.02,2.33,1.38,3.43,2.17.45.32.82.84,1.04,1.35,1.84,4.24,6.31,4.55,9.85,6.45-.71-1.28-1.43-2.55-2.14-3.83l.44-.29c1.44,1.37,2.87,2.74,4.31,4.1,2.05-1.91,3.8-3.55,5.55-5.18.11.1.22.21.33.31-.66.84-1.32,1.68-1.99,2.52ZM489.27,548.12c-.03.22-.07.44-.1.65,3.57,3.03,7.27,5.91,10.58,9.23.51.51,1.55.49,2.34.71-3.48-3.73-7.09-7.02-10.79-10.2-.45-.39-1.35-.27-2.04-.39ZM469.16,566.32c-2.45-3.32-2.52-3.36-4.94-2.63,1.45,1.35,2.24,3.64,4.94,2.63ZM467.88,550.35c-.86.45-1.64.85-2.41,1.25.01.19.03.39.04.58,1.31.22,2.61.44,4.56.77-1.02-1.21-1.56-1.85-2.19-2.6ZM467.06,556.5q2.44,2.83,4.45,2.09c-1.61-.6-1.99-3.04-4.45-2.09ZM460.78,563.22q2.23,3.05,4.41,2.82c-1.48-1.09-1.98-3.28-4.41-2.82ZM468.29,558.82c-1.81-.78-2.22-2.93-4.81-2.04,1.53,1.05,1.95,3.04,4.81,2.04ZM461.65,558.97q-1.56-2.36-3.82-1.77c.96,1.32,1.87,2.59,3.82,1.77ZM467.59,560.44c.92,1.5,1.89,2.64,4.02,1.91-1.14-1.24-1.93-2.74-4.02-1.91ZM471.1,572.47q-1.68-2.45-3.87-2.11c1.02,1.28,1.91,2.55,3.87,2.11ZM461.35,560.54c.96,1.5,1.97,2.19,3.71,1.58-.84-1.53-1.86-2.22-3.71-1.58ZM468.82,563.13c1.04,2.87,1.41,3.16,3.3,3.07-1.18-1.1-2.24-2.08-3.3-3.07ZM483.68,578.11c-1.55-.61-3.1-.84-4.63-.16,1.18.27,2.37.36,3.56.4.35.01.71-.16,1.07-.24ZM472.37,552.15q-2.23-2.6-3.49-1.77c.95.85,1.56,2.17,3.49,1.77ZM505.8,558.31c-1.05-.89-1.68-2.11-3.61-1.56,1.16.89,1.72,2.25,3.61,1.56ZM465.15,566.98c.13,1.73.92,2.33,2.91,1.76-1.26-.76-2.08-1.26-2.91-1.76ZM485.96,579.41v.22h5.46c0-.17,0-.35-.01-.52-1.82.1-3.63.2-5.45.31ZM465.01,553.79c.18,1.97,1.15,1.98,2.46,1.12-.82-.37-1.64-.75-2.46-1.12ZM467.8,572.1c-1.26-.7-1.5-2.34-3.5-1.95,1.08,1.07,1.58,2.3,3.5,1.95ZM472.4,554.97c-1.17-.9-1.57-2.14-2.98-1.21.43,1.27,1.3,1.47,2.98,1.21ZM499.95,553.92c.27,1.45.86,2.21,2.67,1.31-1.13-.55-1.9-.93-2.67-1.31ZM460.82,561.96c-.72-1.15-1.37-1.96-2.89-1.46.65,1.05,1.31,1.86,2.89,1.46ZM461.95,571.95c.13-.21.26-.43.39-.64-.64-.74-1.13-1.77-3.05-1.19,1.16.8,1.91,1.32,2.66,1.84ZM479.79,574.47v-.41h-4.78v.41h4.78ZM461.38,554.91c.79,1.09,1.62.87,2.79.48-.94-.92-1.63-1.5-2.79-.48ZM461.56,565.87c-1.19-1.11-1.65-2.66-3.57-2.54.94.95,1.72,1.75,2.53,2.53.09.09.34.01,1.04.01ZM470.96,573.49c-.03.2-.05.4-.08.6.69.1,1.38.19,2.07.29.03-.21.05-.42.08-.62-.69-.09-1.38-.17-2.08-.26ZM454.63,563.82q.06,1.96,2,1.83c-.71-.65-1.28-1.17-2-1.83ZM463.82,559.19c.13-.16.27-.32.4-.48-.76-.63-1.1-1.75-2.65-1.43.75.64,1.5,1.28,2.25,1.91ZM459.62,568.54c-.68-.47-1.2-.82-2.04-1.4.18,1.58.81,1.76,2.04,1.4ZM467.07,562.5q-.72-1.78-2.16-1.87c.82.71,1.49,1.29,2.16,1.87ZM465.34,553.09c-1.02-1.14-1.57-1.14-2.38,0h2.38ZM456.19,560.72c-.14.19-.28.38-.41.58.47.34.95.69,1.42,1.03.13-.19.27-.37.4-.56-.47-.35-.94-.7-1.41-1.04ZM457.27,564.29c-.13.16-.26.31-.39.47.54.39,1.07.79,1.61,1.18.09-.12.18-.23.27-.35-.5-.43-.99-.86-1.49-1.3ZM466.6,595.31c-.15.07-.31.14-.46.21.25.41.49.81.74,1.22.1-.05.2-.1.3-.16-.19-.43-.39-.85-.58-1.28ZM471.15,602.72c.2-.12.39-.25.59-.37-.28-.39-.55-.78-.83-1.16-.14.09-.29.19-.43.28.22.42.45.84.67,1.26Z"/>
    <path class="st20" d="M453.3,581.5c-.43-1.31-.85-2.62-1.28-3.93,1.62,1.7,1.69,1.9,1.28,3.93Z"/>
    <path class="st20" d="M449.7,565.83c.22,1.68.39,2.96.58,4.43q-1.14-2.12-.58-4.43Z"/>
    <path class="st20" d="M450.99,572.19c.22.82.43,1.64.65,2.46-.19.05-.39.1-.58.16-.23-.82-.45-1.64-.68-2.45.2-.05.4-.11.61-.16Z"/>
    <path class="st20" d="M454.99,581.81c-.1.47-.08,1.28-.31,1.36-.97.33-.56-.26-.34-.68.12-.24.2-.51.29-.76.12.03.24.06.36.08Z"/>
    <path class="st20" d="M457.98,587.29c.23.44.46.89.69,1.33-.1.07-.21.14-.31.21-.3-.39-.6-.79-.9-1.18.17-.12.35-.24.52-.36Z"/>
    <path class="st20" d="M570.99,359.1c.65-2.69,1.3-5.38,2.02-8.38.6.95,1.05,1.64,1.49,2.33-.87-.14-1.09.43-1.36,1.1-.67,1.67-1.43,3.3-2.15,4.95Z"/>
    <path class="st20" d="M565.24,374.6c.6-3.48,1.86-6.73,3.48-9.85-.45,3.54-2.08,6.65-3.48,9.85Z"/>
    <path class="st20" d="M571.01,370.79c.38-1.39.75-2.79,1.13-4.18.23.09.47.17.7.26-.64,1.28-1.27,2.57-1.91,3.86,0,0,.07.06.07.06Z"/>
    <path class="st20" d="M569.28,375.41c.58-1.54,1.16-3.08,1.73-4.62,0,0-.07-.06-.07-.07.12,1.8-.62,3.28-1.72,4.64,0,0,.06.05.06.05Z"/>
    <path class="st20" d="M562.41,384.03c-.4.22-.79.45-1.19.67.34-1.12-.33-2.6,1.19-3.3,0,.88,0,1.75,0,2.63Z"/>
    <path class="st20" d="M570.18,377.74c-1.14-.78-1.49.31-2.07.87.39-1.07.78-2.14,1.17-3.21,0,0-.06-.05-.06-.05.32.79.64,1.59.96,2.38Z"/>
    <path class="st20" d="M565.59,389.22c-1.5-.31-1.68-1.38-1.5-2.64.39-.39.79-.78,1.18-1.17.23,1.26-1.02,2.64.32,3.81Z"/>
    <path class="st20" d="M567.58,379.67c-.4,1.18-.79,2.36-1.19,3.53.4-1.18.79-2.36,1.19-3.53Z"/>
    <path class="st20" d="M562.64,380.04c.5-1.08.99-2.15,1.49-3.23-.19,1.22.05,2.64-1.49,3.23Z"/>
    <path class="st20" d="M574.53,362.26c-.27.63-.53,1.27-.8,1.9-.13-.05-.26-.09-.39-.13.22-.71.44-1.41.66-2.12.18.12.35.24.53.35Z"/>
    <path class="st20" d="M569.27,363.69c.4-1.18.79-2.35,1.19-3.53-.4,1.18-.79,2.35-1.19,3.53Z"/>
    <path class="st20" d="M565.85,361.88c.14,1.8-1.41,3.63.07,5.46-.31-.16-.62-.32-1.14-.58-.6,1.54-1.16,3.09-1.82,4.59-.28.62-.79,1.14-1.19,1.71l.09.1c.19-1.4.54-2.67,1.2-3.99.88-1.74,1.79-3.76.52-5.82,0,0-.09.05-.09.05.89.81,1.58.87,1.94-.48.09-.35.28-.68.42-1.01Z"/>
    <path class="st20" d="M564.05,356.97c1-3.01,2-6.03,3-9.04l-.05-.04c-.41,3.21-1.28,6.26-3,9.04l.06.05Z"/>
    <path class="st20" d="M568.74,353.55c.02,2.05-.8,3.82-1.78,5.55.19-1.98.28-3.99,1.78-5.55Z"/>
    <path class="st20" d="M567.05,347.93c.32-1.62.64-3.24.95-4.86.18.05.36.09.55.14-.28,1.63-.55,3.26-1.55,4.68,0,0,.05.04.06.04Z"/>
    <path class="st20" d="M566.66,331.78c.3-.4.59-.81.89-1.21.39,1.27.79,2.54,1.18,3.81-.69-.87-1.38-1.73-2.07-2.6Z"/>
    <path class="st20" d="M568.47,342.01c.62-1.78,1.04-2.97,1.45-4.16.34,1.44.24,2.74-1.45,4.16Z"/>
    <path class="st20" d="M571.04,346.65c-.4,1.19-.81,2.39-1.21,3.58.4-1.19.81-2.39,1.21-3.58Z"/>
    <path class="st20" d="M569.9,350.09c-.41,1.19-.81,2.38-1.22,3.57.09-1.3.03-2.65,1.22-3.57Z"/>
    <path class="st20" d="M564,356.92c-.25,1.29-.5,2.58-.73,3.88.01.02.06.06.07.07-.79-1.48-.02-2.68.72-3.9,0,0-.06-.05-.06-.05Z"/>
    <path class="st20" d="M561.77,373.05c-.12.71-.23,1.42-.44,2.68-.78-1.41-1.28-2.33-1.78-3.24l-.06.08c.81.12,1.23,1.81,2.37.57l-.09-.1Z"/>
    <path class="st20" d="M558.82,376.86c1.84.69,2.13,1.34,1.01,2.75-.34-.94-.58-1.59-1.01-2.75Z"/>
    <path class="st20" d="M569.87,383.11c0,1.08.01,2.16.02,3.24-1.02.05-1.39-.55-1.12-1.4.21-.66.72-1.23,1.1-1.84Z"/>
    <path class="st20" d="M407.93,402.95c1.56-1.16.68-2.31,0-3.47,1.66.09,2.82.92,3.55,2.39-.53-.14-1.06-.27-1.64-.42-.66.8-1.01,1.54.09,2.34.58.42,1.04,1.01,1.56,1.53-1.46-.38-2.95-.71-3.55-2.37Z"/>
    <path class="st20" d="M474.63,598c-.7-.31-1.55-.52-.84-2.12.57.68.96,1.15,1.35,1.62-.17.16-.34.33-.51.49Z"/>
    <path class="st20" d="M483.13,597.01c.46,0,.92,0,1.37.02.03,0,.03.31.05.47-.46.04-.91.07-1.37.11-.02-.2-.03-.4-.05-.6Z"/>
    <path class="st20" d="M473.95,552.83c.64.34,1.4.55,1.9,1.03,4.5,4.41,8.95,8.88,13.44,13.3,1.36,1.34,2.8,2.6,4.2,3.89-.16.19-.31.38-.47.57-.72-.6-1.48-1.15-2.14-1.8-4.4-4.38-8.79-8.78-13.16-13.18-1.26-1.27-2.47-2.58-3.7-3.87,0,0-.05.06-.05.06Z"/>
    <path class="st20" d="M498.42,572.6c-.42-.36-.84-.72-1.26-1.08.07-.1.15-.2.22-.3.46.31.91.61,1.37.92-.11.15-.22.31-.34.46Z"/>
    <path class="st20" d="M498.36,560.8c1.72.75,3.41,1.53,4.09,3.5-2.02-.4-2.9-2.13-4.09-3.5Z"/>
  </g>
  <g>
    <text class="st5" transform="translate(252.18 711.28)"><tspan x="0" y="0">Ceftriaxone with azithromycin should be used as first-line treatment.</tspan></text>
    <text class="st5" transform="translate(508.1 708.28) scale(.58)"><tspan x="0" y="0">15</tspan></text>
    <text class="st5" transform="translate(513.49 711.28)"><tspan x="0" y="0"> </tspan></text>
  </g>
  <g class="st16">
    <rect class="st12" x="1214.88" y="705.55" width="39.06" height="39.06" rx="8.38" ry="8.38"/>
    <path class="st17" d="M1248.89,722.61l-4.97-4.97v-6.89c0-.24-.19-.43-.43-.43h-3.07c-.24,0-.43.19-.43.43v2.96l-4.53-4.53c-.58-.57-1.51-.57-2.08,0l-13.45,13.44c-.87.87-.35,2.36.87,2.5l2.17.25v14.55c0,.81.66,1.47,1.47,1.47h6.34v-10.56c0-.71.57-1.28,1.28-1.28h4.7c.71,0,1.28.57,1.28,1.28v10.56h6.34c.81,0,1.47-.66,1.47-1.47v-14.56l2.17-.26c1.22-.14,1.74-1.64.87-2.5Z"/>
  </g>
</svg>