<?xml version="1.0" encoding="UTF-8"?>
<svg id="Layer_1" xmlns="http://www.w3.org/2000/svg" xmlns:xlink="http://www.w3.org/1999/xlink" version="1.1" viewBox="0 0 1280 768">
  <!-- Generator: Adobe Illustrator 30.0.0, SVG Export Plug-In . SVG Version: 2.1.1 Build 123)  -->
  <defs>
    <style>
      .st0 {
        filter: url(#drop-shadow-3);
      }

      .st1 {
        fill: url(#linear-gradient2);
      }

      .st2 {
        fill: url(#linear-gradient3);
      }

      .st3 {
        fill: url(#linear-gradient6);
      }

      .st4 {
        fill: url(#linear-gradient5);
      }

      .st5 {
        fill: url(#linear-gradient4);
      }

      .st6 {
        fill: #2b388f;
      }

      .st7 {
        fill: url(#radial-gradient);
      }

      .st8 {
        fill: url(#linear-gradient);
      }

      .st9 {
        font-size: 18px;
      }

      .st9, .st10 {
        font-family: MyriadPro-Regular, 'Myriad Pro';
      }

      .st11 {
        stroke: #fff;
        stroke-width: 3.95px;
      }

      .st11, .st12, .st13, .st14, .st15, .st16, .st17, .st18, .st19, .st20, .st21 {
        stroke-miterlimit: 10;
      }

      .st11, .st22, .st23 {
        fill: #243a78;
      }

      .st12 {
        fill: none;
        stroke-width: 1.66px;
      }

      .st12, .st14, .st15, .st16, .st17, .st18 {
        stroke: #231f20;
      }

      .st24 {
        filter: url(#drop-shadow-30);
      }

      .st25 {
        fill: #000b8c;
      }

      .st13 {
        stroke: url(#linear-gradient1);
        stroke-width: 4.97px;
      }

      .st13, .st26, .st19, .st20, .st27, .st28 {
        fill: #fff;
      }

      .st14 {
        filter: url(#drop-shadow-8);
      }

      .st14, .st15, .st16, .st17, .st18 {
        fill: #f1f1f2;
        stroke-width: .41px;
      }

      .st15 {
        filter: url(#drop-shadow-6);
      }

      .st16 {
        filter: url(#drop-shadow-5);
      }

      .st17 {
        filter: url(#drop-shadow-4);
      }

      .st18 {
        filter: url(#drop-shadow-7);
      }

      .st29, .st26, .st22 {
        font-family: MyriadPro-Bold, 'Myriad Pro';
        font-weight: 700;
      }

      .st29, .st10 {
        fill: #231f20;
        font-size: 13.31px;
      }

      .st26 {
        font-size: 30px;
      }

      .st19, .st20 {
        stroke: #2b388f;
        stroke-width: 2.63px;
      }

      .st19, .st20, .st27, .st28 {
        font-family: BerkshireSwash-Regular, 'Berkshire Swash';
      }

      .st19, .st27 {
        font-size: 34.66px;
      }

      .st20, .st28 {
        font-size: 27.67px;
      }

      .st22 {
        font-size: 25px;
      }

      .st21 {
        fill: url(#radial-gradient1);
        stroke: #000b8c;
        stroke-width: 1.6px;
      }
    </style>
    <radialGradient id="radial-gradient" cx="640" cy="384" fx="640" fy="384" r="527.76" gradientUnits="userSpaceOnUse">
      <stop offset="0" stop-color="#fff"/>
      <stop offset="1" stop-color="#edffff"/>
    </radialGradient>
    <filter id="drop-shadow-3" x="34.96" y="676.63" width="153.04" height="81.56" filterUnits="userSpaceOnUse">
      <feOffset dx="3.73" dy="3.73"/>
      <feGaussianBlur result="blur" stdDeviation="3.73"/>
      <feFlood flood-color="#231f20" flood-opacity=".4"/>
      <feComposite in2="blur" operator="in"/>
      <feComposite in="SourceGraphic"/>
    </filter>
    <linearGradient id="linear-gradient" x1="1747.28" y1="130.88" x2="583.74" y2="126.21" gradientUnits="userSpaceOnUse">
      <stop offset="0" stop-color="#fff" stop-opacity="0"/>
      <stop offset=".68" stop-color="#2b388f"/>
    </linearGradient>
    <linearGradient id="linear-gradient1" x1="238.21" y1="465.75" x2="955.97" y2="465.75" gradientUnits="userSpaceOnUse">
      <stop offset="0" stop-color="#00b4bd"/>
      <stop offset="1" stop-color="#8bc53f"/>
    </linearGradient>
    <filter id="drop-shadow-4" x="379.17" y="307.09" width="59.76" height="322.32" filterUnits="userSpaceOnUse">
      <feOffset dx="3.31" dy="3.31"/>
      <feGaussianBlur result="blur1" stdDeviation="4.97"/>
      <feFlood flood-color="#000" flood-opacity=".75"/>
      <feComposite in2="blur1" operator="in"/>
      <feComposite in="SourceGraphic"/>
    </filter>
    <linearGradient id="linear-gradient2" x1="392.4" y1="464.92" x2="419.04" y2="464.92" gradientUnits="userSpaceOnUse">
      <stop offset="0" stop-color="#000b8c"/>
      <stop offset="1" stop-color="#7963b9"/>
    </linearGradient>
    <filter id="drop-shadow-5" x="492.21" y="317.65" width="59.76" height="311.76" filterUnits="userSpaceOnUse">
      <feOffset dx="3.31" dy="3.31"/>
      <feGaussianBlur result="blur2" stdDeviation="4.97"/>
      <feFlood flood-color="#000" flood-opacity=".75"/>
      <feComposite in2="blur2" operator="in"/>
      <feComposite in="SourceGraphic"/>
    </filter>
    <linearGradient id="linear-gradient3" x1="505.38" y1="470.21" x2="532.02" y2="470.21" gradientUnits="userSpaceOnUse">
      <stop offset="0" stop-color="#7ac943"/>
      <stop offset=".62" stop-color="#bcd638"/>
    </linearGradient>
    <filter id="drop-shadow-6" x="605.01" y="317.65" width="60" height="311.76" filterUnits="userSpaceOnUse">
      <feOffset dx="3.31" dy="3.31"/>
      <feGaussianBlur result="blur3" stdDeviation="4.97"/>
      <feFlood flood-color="#000" flood-opacity=".75"/>
      <feComposite in2="blur3" operator="in"/>
      <feComposite in="SourceGraphic"/>
    </filter>
    <linearGradient id="linear-gradient4" x1="618.36" y1="470.21" x2="645" y2="470.21" gradientUnits="userSpaceOnUse">
      <stop offset="0" stop-color="#ff1d25"/>
      <stop offset=".62" stop-color="#f26b70"/>
    </linearGradient>
    <filter id="drop-shadow-7" x="718.05" y="317.65" width="60" height="311.76" filterUnits="userSpaceOnUse">
      <feOffset dx="3.31" dy="3.31"/>
      <feGaussianBlur result="blur4" stdDeviation="4.97"/>
      <feFlood flood-color="#000" flood-opacity=".75"/>
      <feComposite in2="blur4" operator="in"/>
      <feComposite in="SourceGraphic"/>
    </filter>
    <linearGradient id="linear-gradient5" x1="731.34" y1="470.21" x2="757.97" y2="470.21" gradientUnits="userSpaceOnUse">
      <stop offset="0" stop-color="#bdccd4"/>
      <stop offset=".62" stop-color="#f5ead8"/>
    </linearGradient>
    <filter id="drop-shadow-8" x="830.61" y="321.97" width="60" height="307.44" filterUnits="userSpaceOnUse">
      <feOffset dx="3.31" dy="3.31"/>
      <feGaussianBlur result="blur5" stdDeviation="4.97"/>
      <feFlood flood-color="#000" flood-opacity=".75"/>
      <feComposite in2="blur5" operator="in"/>
      <feComposite in="SourceGraphic"/>
    </filter>
    <linearGradient id="linear-gradient6" x1="843.93" y1="472.32" x2="870.57" y2="472.32" gradientUnits="userSpaceOnUse">
      <stop offset="0" stop-color="#be1e2d"/>
      <stop offset=".62" stop-color="#f05a28"/>
    </linearGradient>
    <filter id="drop-shadow-30" x="1214.08" y="704.75" width="40.65" height="40.65" filterUnits="userSpaceOnUse">
      <feOffset dx="5.59" dy="5.59"/>
      <feGaussianBlur result="blur6" stdDeviation="3.99"/>
      <feFlood flood-color="#000" flood-opacity=".75"/>
      <feComposite in2="blur6" operator="in"/>
      <feComposite in="SourceGraphic"/>
    </filter>
    <radialGradient id="radial-gradient1" cx="1234.41" cy="725.08" fx="1234.41" fy="725.08" r="19.53" gradientUnits="userSpaceOnUse">
      <stop offset="0" stop-color="#fff"/>
      <stop offset="1" stop-color="#f1f1f1"/>
    </radialGradient>
  </defs>
  <g>
    <text class="st26" transform="translate(-1183.59 134.98)"><tspan x="0" y="0">Cefixime has high susceptibility among key pathogens causing Urinary Tract Infection</tspan></text>
    <text class="st26" transform="translate(-42.03 124.99) scale(.58)"><tspan x="0" y="0">12</tspan></text>
  </g>
  <g>
    <rect class="st7" width="1280" height="768"/>
    <g class="st0">
      <text class="st19" transform="translate(68.19 711.56) rotate(-.27)"><tspan x="0" y="0">Eternal </tspan></text>
      <g>
        <g>
          <path class="st11" d="M64.97,714.95c-.11.14-.15.32-.11.5l2.71,12.04c.06.27.3.46.58.46h.57c.9-2.06,1.4-4.34,1.39-6.73-.01-2.31-.5-4.51-1.36-6.51l-3.32.02c-.18,0-.35.08-.46.22Z"/>
          <path class="st11" d="M39.54,728.11l2.6-12.07c.04-.17,0-.36-.12-.5-.11-.14-.28-.22-.46-.22l-3.52.02c-.72,1.87-1.11,3.9-1.1,6.03.01,2.58.61,5.03,1.68,7.2h.35c.28,0,.52-.2.57-.47Z"/>
          <path class="st11" d="M65.71,724.41l-2.02-8.85c-.12-.54-.61-.92-1.16-.92-.02,0-.05,0-.07,0l-7.09.47c-.27.02-.52.13-.72.31l-.29.26-.31-.28c-.22-.2-.5-.3-.79-.3h-2.94s-5.96.04-5.96.04c-.55,0-1.03.39-1.15.93l-2.05,9.38c-.08.38.02.77.28,1.05.23.25.54.38.87.38.05,0,.1,0,.15-.01l2.8-.37,7.52,5.81.78.72c.23.21.52.31.81.31.08,0,.15,0,.23-.02.26-.02.51-.13.71-.32l5.35-5.04,2.64-2.44.93.27c.11.03.22.05.33.05.3,0,.58-.11.81-.32.3-.29.43-.71.34-1.12ZM61.08,725.96s-.04-.04-.06-.06l-5.08-4.65c-.24-.22-.61-.2-.83.04-.22.24-.2.61.04.83l5.08,4.64-.37.35-.83.78s0,0,0-.01c-.03-.04-.06-.08-.1-.11l-4.22-3.72c-.24-.22-.62-.19-.83.05-.22.24-.19.62.05.83l4.22,3.72s.02.01.02.02c0,0,.01,0,.02.01l-1.22,1.15s-.01-.02-.02-.04c-.03-.05-.07-.1-.12-.15l-3.46-3.05c-.24-.22-.62-.19-.83.05-.22.24-.19.62.05.83l3.46,3.05s.04.03.05.04c.02.01.03.02.05.03l-.56.52s-.02-.04-.03-.06c-.04-.08-.09-.16-.17-.22l-.84-.67c-.25-.2-.63-.16-.83.09l-.6.75-.03.04-.5-.39.07-.08.59-.74c.2-.26.16-.63-.09-.83l-.84-.67c-.26-.2-.63-.16-.83.09l-.48.61-.19.24-.5-.39.22-.28.6-.76c.2-.26.16-.63-.09-.83l-.84-.67c-.25-.2-.63-.16-.83.09l-.5.63-.35.44-.31-.24-.19-.15s.01,0,.02-.01c.05-.03.09-.07.13-.11l.26-.33.62-.78c.2-.26.16-.63-.09-.83l-.84-.67c-.26-.2-.63-.16-.83.09l-.51.65-.37.46s0,0,0,0c-.05.06-.08.13-.1.2l-.71-.55-.33.04-2.96.39,2.05-9.38,5.96-.03h2.94s.23.19.23.19l.1.09-1.84,2.31-.75.95s-.35.39-.32.84c.01.16.07.32.22.48.68.74,2.23.16,2.23.16l1.92-2.31s.25-.33.69-.5l6.79,6.1-1.44,1.36Z"/>
        </g>
        <path class="st11" d="M54.77,755.22l1.79-19.93c.03-.29-.06-.58-.24-.79-.18-.21-.43-.32-.68-.3l-3.96.49c-.72,3.13-.96,6.48-.62,9.93.41,4.19.68,8.08,2.49,11.47l.48-.05c.39-.04.69-.38.73-.83Z"/>
      </g>
      <text class="st20" transform="translate(65.99 747.4) rotate(-.27)"><tspan x="0" y="0">rust</tspan></text>
      <text class="st27" transform="translate(68.19 711.56) rotate(-.27)"><tspan x="0" y="0">Eternal </tspan></text>
      <g>
        <g>
          <path class="st23" d="M64.97,714.95c-.11.14-.15.32-.11.5l2.71,12.04c.06.27.3.46.58.46h.57c.9-2.06,1.4-4.34,1.39-6.73-.01-2.31-.5-4.51-1.36-6.51l-3.32.02c-.18,0-.35.08-.46.22Z"/>
          <path class="st23" d="M39.54,728.11l2.6-12.07c.04-.17,0-.36-.12-.5-.11-.14-.28-.22-.46-.22l-3.52.02c-.72,1.87-1.11,3.9-1.1,6.03.01,2.58.61,5.03,1.68,7.2h.35c.28,0,.52-.2.57-.47Z"/>
          <path class="st23" d="M65.71,724.41l-2.02-8.85c-.12-.54-.61-.92-1.16-.92-.02,0-.05,0-.07,0l-7.09.47c-.27.02-.52.13-.72.31l-.29.26-.31-.28c-.22-.2-.5-.3-.79-.3h-2.94s-5.96.04-5.96.04c-.55,0-1.03.39-1.15.93l-2.05,9.38c-.08.38.02.77.28,1.05.23.25.54.38.87.38.05,0,.1,0,.15-.01l2.8-.37,7.52,5.81.78.72c.23.21.52.31.81.31.08,0,.15,0,.23-.02.26-.02.51-.13.71-.32l5.35-5.04,2.64-2.44.93.27c.11.03.22.05.33.05.3,0,.58-.11.81-.32.3-.29.43-.71.34-1.12ZM61.08,725.96s-.04-.04-.06-.06l-5.08-4.65c-.24-.22-.61-.2-.83.04-.22.24-.2.61.04.83l5.08,4.64-.37.35-.83.78s0,0,0-.01c-.03-.04-.06-.08-.1-.11l-4.22-3.72c-.24-.22-.62-.19-.83.05-.22.24-.19.62.05.83l4.22,3.72s.02.01.02.02c0,0,.01,0,.02.01l-1.22,1.15s-.01-.02-.02-.04c-.03-.05-.07-.1-.12-.15l-3.46-3.05c-.24-.22-.62-.19-.83.05-.22.24-.19.62.05.83l3.46,3.05s.04.03.05.04c.02.01.03.02.05.03l-.56.52s-.02-.04-.03-.06c-.04-.08-.09-.16-.17-.22l-.84-.67c-.25-.2-.63-.16-.83.09l-.6.75-.03.04-.5-.39.07-.08.59-.74c.2-.26.16-.63-.09-.83l-.84-.67c-.26-.2-.63-.16-.83.09l-.48.61-.19.24-.5-.39.22-.28.6-.76c.2-.26.16-.63-.09-.83l-.84-.67c-.25-.2-.63-.16-.83.09l-.5.63-.35.44-.31-.24-.19-.15s.01,0,.02-.01c.05-.03.09-.07.13-.11l.26-.33.62-.78c.2-.26.16-.63-.09-.83l-.84-.67c-.26-.2-.63-.16-.83.09l-.51.65-.37.46s0,0,0,0c-.05.06-.08.13-.1.2l-.71-.55-.33.04-2.96.39,2.05-9.38,5.96-.03h2.94s.23.19.23.19l.1.09-1.84,2.31-.75.95s-.35.39-.32.84c.01.16.07.32.22.48.68.74,2.23.16,2.23.16l1.92-2.31s.25-.33.69-.5l6.79,6.1-1.44,1.36Z"/>
        </g>
        <path class="st23" d="M54.77,755.22l1.79-19.93c.03-.29-.06-.58-.24-.79-.18-.21-.43-.32-.68-.3l-3.96.49c-.72,3.13-.96,6.48-.62,9.93.41,4.19.68,8.08,2.49,11.47l.48-.05c.39-.04.69-.38.73-.83Z"/>
      </g>
      <text class="st28" transform="translate(65.99 747.4) rotate(-.27)"><tspan x="0" y="0">rust</tspan></text>
    </g>
    <g>
      <path class="st6" d="M1279.38,723.58H292.06c-13.32,0-26.65-.17-39.97,0-.58,0-1.17,0-1.75,0-1.93,0-1.93,3,0,3h987.31c13.32,0,26.65.17,39.97,0,.58,0,1.17,0,1.75,0,1.93,0,1.93-3,0-3h0Z"/>
      <circle class="st6" cx="238.59" cy="725.53" r="4.9"/>
      <circle class="st6" cx="224.64" cy="725.53" r="4.9"/>
      <circle class="st6" cx="210.68" cy="725.53" r="4.9"/>
    </g>
    <g>
      <path class="st6" d="M0,55.81h994.39c13.43,0,26.88.17,40.31,0,.59,0,1.18,0,1.76,0,1.93,0,1.93-3,0-3H42.07c-13.43,0-26.88-.17-40.31,0-.59,0-1.18,0-1.76,0-1.93,0-1.93,3,0,3h0Z"/>
      <circle class="st6" cx="1048.22" cy="53.86" r="4.9"/>
      <circle class="st6" cx="1062.18" cy="53.86" r="4.9"/>
      <circle class="st6" cx="1076.13" cy="53.86" r="4.9"/>
    </g>
    <g>
      <path class="st23" d="M1154.38,56.45c-.16-4.27-.32-9.38-.32-14.6h-.11c-1.16,4.53-2.64,9.6-4.01,13.76l-4.32,13.87h-6.27l-3.79-13.71c-1.16-4.22-2.32-9.23-3.22-13.92h-.1c-.16,4.8-.37,10.28-.58,14.71l-.69,13.5h-7.44l2.27-35.53h10.7l3.48,11.92c1.16,4.06,2.21,8.49,3,12.65h.21c.95-4.11,2.16-8.75,3.37-12.76l3.74-11.81h10.54l1.9,35.53h-7.8l-.58-13.6Z"/>
      <path class="st23" d="M1170.83,40.9c-2.69,0-4.43-1.9-4.43-4.27s1.79-4.27,4.53-4.27,4.43,1.85,4.48,4.27c0,2.37-1.74,4.27-4.53,4.27h-.05ZM1166.88,44.27h8.01v25.78h-8.01v-25.78Z"/>
      <path class="st23" d="M1185.38,44.27l2.53,4.32c.74,1.32,1.42,2.58,2.11,3.85h.11c.69-1.42,1.32-2.69,2-4.01l2.27-4.16h8.7l-8.49,12.28,8.59,13.5h-9.07l-2.58-4.64c-.74-1.27-1.42-2.58-2-3.9h-.16c-.63,1.37-1.32,2.64-1.95,3.9l-2.42,4.64h-8.81l8.75-13.13-8.54-12.65h8.96Z"/>
      <path class="st23" d="M1208.48,40.9c-2.69,0-4.43-1.9-4.43-4.27s1.79-4.27,4.53-4.27,4.43,1.85,4.48,4.27c0,2.37-1.74,4.27-4.53,4.27h-.05ZM1204.53,44.27h8.01v25.78h-8.01v-25.78Z"/>
      <path class="st23" d="M1217.86,70.05v-19.87h-3.43v-5.9h3.43v-1c0-3.11.95-6.54,3.22-8.65,2.05-1.9,4.8-2.58,7.17-2.58,1.74,0,3.11.26,4.22.53l-.32,6.17c-.69-.21-1.53-.37-2.58-.37-2.64,0-3.74,2.06-3.74,4.59v1.32h5.17v5.9h-5.11v19.87h-8.01Z"/>
      <path class="st23" d="M1187.01,80.91c-.37.19-1.13.38-2.1.38-2.25,0-3.93-1.42-3.93-4.04s1.69-4.19,4.16-4.19c.98,0,1.62.21,1.89.35l-.26.84c-.38-.19-.94-.33-1.6-.33-1.87,0-3.11,1.2-3.11,3.29,0,1.96,1.12,3.21,3.05,3.21.64,0,1.28-.13,1.69-.33l.2.83Z"/>
      <path class="st23" d="M1189.31,78.47c.02,1.41.91,1.99,1.95,1.99.75,0,1.21-.13,1.59-.29l.19.73c-.37.16-1,.37-1.92.37-1.75,0-2.81-1.17-2.81-2.88s1.03-3.1,2.7-3.1c1.87,0,2.35,1.64,2.35,2.7,0,.21,0,.38-.03.5h-4.01ZM1192.35,77.73c0-.65-.27-1.69-1.43-1.69-1.06,0-1.51.97-1.6,1.69h3.03Z"/>
      <path class="st23" d="M1195.33,81.16v-4.93h-.79v-.79h.79v-.27c0-.8.19-1.54.68-2,.39-.38.91-.53,1.38-.53.38,0,.69.08.89.16l-.13.81c-.17-.07-.37-.13-.67-.13-.88,0-1.11.78-1.11,1.66v.31h1.38v.79h-1.37v4.93h-1.04Z"/>
      <path class="st23" d="M1199.77,74.38c-.39,0-.65-.31-.65-.67s.27-.66.67-.66.66.3.66.66-.26.67-.67.67h-.01ZM1199.28,75.43h1.04v5.72h-1.04v-5.72Z"/>
      <path class="st23" d="M1203.11,75.43l.82,1.22c.21.33.39.62.58.94h.03c.19-.33.38-.63.58-.94l.79-1.22h1.14l-1.95,2.77,2,2.96h-1.18l-.84-1.29c-.22-.33-.41-.65-.61-.99h-.02c-.19.34-.39.65-.6.99l-.83,1.29h-1.15l2.03-2.92-1.94-2.8h1.16Z"/>
      <path class="st23" d="M1209.19,74.38c-.39,0-.65-.31-.65-.67s.27-.66.68-.66.66.3.66.66-.26.67-.68.67h-.01ZM1208.69,75.43h1.04v5.72h-1.04v-5.72Z"/>
      <path class="st23" d="M1212.04,76.98c0-.6-.02-1.07-.05-1.55h.91l.05.92h.03c.32-.54.85-1.05,1.81-1.05.77,0,1.36.47,1.61,1.15h.02c.18-.33.41-.57.65-.74.34-.26.71-.4,1.25-.4.77,0,1.89.5,1.89,2.48v3.37h-1.02v-3.24c0-1.11-.42-1.76-1.24-1.76-.6,0-1.05.44-1.24.93-.05.15-.08.35-.08.52v3.55h-1.02v-3.43c0-.92-.4-1.57-1.2-1.57-.64,0-1.12.52-1.29,1.04-.06.15-.08.33-.08.51v3.45h-1.02v-4.18Z"/>
      <path class="st23" d="M1223.08,78.47c.02,1.41.91,1.99,1.95,1.99.74,0,1.21-.13,1.58-.29l.19.73c-.37.16-1,.37-1.92.37-1.75,0-2.81-1.17-2.81-2.88s1.03-3.1,2.7-3.1c1.87,0,2.36,1.64,2.36,2.7,0,.21-.01.38-.04.5h-4.01ZM1226.12,77.73c0-.65-.27-1.69-1.43-1.69-1.06,0-1.51.97-1.6,1.69h3.03Z"/>
      <path class="st23" d="M1241.34,32.72c2.32,0,4.17,1.89,4.17,4.21s-1.85,4.23-4.19,4.23-4.21-1.87-4.21-4.23,1.89-4.21,4.21-4.21h.02ZM1241.3,33.56c-1.76,0-3.18,1.52-3.18,3.39s1.42,3.37,3.2,3.37c1.78.02,3.22-1.48,3.22-3.37s-1.44-3.39-3.22-3.39h-.02ZM1240.59,39.38h-.99v-4.68c.37-.06.79-.13,1.5-.13.8,0,1.29.13,1.61.37.26.21.41.52.41,1.01,0,.56-.39.95-.9,1.09v.04c.41.07.67.45.75,1.14.09.73.19,1.01.26,1.16h-1.03c-.11-.17-.19-.58-.28-1.22-.07-.51-.37-.71-.88-.71h-.45v1.93ZM1240.59,36.69h.47c.58,0,1.03-.19,1.03-.67,0-.39-.28-.69-.95-.69-.24,0-.41,0-.54.02v1.35Z"/>
    </g>
  </g>
  <rect class="st8" x=".96" y="97.49" width="1280.38" height="57.91"/>
  <g>
    <text class="st26" transform="translate(75.24 134.98)"><tspan x="0" y="0">Cefixime has high susceptibility among key pathogens causing Urinary Tract Infection</tspan></text>
    <text class="st26" transform="translate(1216.8 124.99) scale(.58)"><tspan x="0" y="0">12</tspan></text>
  </g>
  <g>
    <text class="st22" transform="translate(101.66 229.5)"><tspan x="0" y="0">Antimicrobial susceptibility profiles for the antimicrobial agents tested against Gram-negative </tspan><tspan x="0" y="30">bacilli UTI pathogens</tspan></text>
    <text class="st22" transform="translate(336.24 251.17) scale(.58)"><tspan x="0" y="0">12</tspan><tspan x="27.75" y="0">	</tspan></text>
  </g>
  <g>
    <rect class="st13" x="240.69" y="279.78" width="712.79" height="371.95" rx="12" ry="12"/>
    <g>
      <g>
        <path class="st17" d="M393.45,319.09h24.45c1.32,0,2.4,1.08,2.4,2.4v289.09h-29.25v-289.09c0-1.32,1.08-2.4,2.4-2.4Z"/>
        <path class="st1" d="M419.04,608.87h-26.64v-283.75c0-2.3,1.86-4.16,4.16-4.16h18.32c2.3,0,4.16,1.86,4.16,4.16v283.75Z"/>
      </g>
      <g>
        <path class="st16" d="M506.43,329.67h24.45c1.32,0,2.4,1.08,2.4,2.4v278.51h-29.25v-278.51c0-1.32,1.08-2.4,2.4-2.4Z"/>
        <path class="st2" d="M532.02,608.87h-26.64v-273.17c0-2.3,1.86-4.16,4.16-4.16h18.32c2.3,0,4.16,1.86,4.16,4.16v273.17Z"/>
      </g>
      <g>
        <path class="st15" d="M619.41,329.67h24.45c1.32,0,2.4,1.08,2.4,2.4v278.51h-29.25v-278.51c0-1.32,1.08-2.4,2.4-2.4Z"/>
        <path class="st5" d="M645,608.87h-26.64v-273.17c0-2.3,1.86-4.16,4.16-4.16h18.32c2.3,0,4.16,1.86,4.16,4.16v273.17Z"/>
      </g>
      <g>
        <path class="st18" d="M732.38,329.67h24.45c1.32,0,2.4,1.08,2.4,2.4v278.51h-29.25v-278.51c0-1.32,1.08-2.4,2.4-2.4Z"/>
        <path class="st4" d="M757.97,608.87h-26.64v-273.17c0-2.3,1.86-4.16,4.16-4.16h18.32c2.3,0,4.16,1.86,4.16,4.16v273.17Z"/>
      </g>
      <g>
        <path class="st14" d="M844.98,333.9h24.45c1.32,0,2.4,1.08,2.4,2.4v274.28h-29.25v-274.28c0-1.32,1.08-2.4,2.4-2.4Z"/>
        <path class="st3" d="M870.57,608.87h-26.64v-268.94c0-2.3,1.86-4.16,4.16-4.16h18.32c2.3,0,4.16,1.86,4.16,4.16v268.94Z"/>
      </g>
      <line class="st12" x1="328.88" y1="611.18" x2="317.86" y2="611.18"/>
      <text class="st29" transform="translate(295.44 614.59)"><tspan x="0" y="0">0%</tspan></text>
      <text class="st29" transform="translate(376.48 633.22)"><tspan x="0" y="0">Cefixime*</tspan></text>
      <text class="st29" transform="translate(477.45 633.22)"><tspan x="0" y="0">Ciprofloxacin</tspan></text>
      <text class="st29" transform="translate(594.67 633.22)"><tspan x="0" y="0">Levofloxacin</tspan></text>
      <text class="st29" transform="translate(709.82 633.22)"><tspan x="0" y="0">Norfloxacin</tspan></text>
      <text class="st29" transform="translate(823.85 633.22)"><tspan x="0" y="0">Cefuroxime</tspan></text>
      <text class="st29" transform="translate(288.05 585.11)"><tspan x="0" y="0">10%</tspan></text>
      <text class="st29" transform="translate(288.05 555.64)"><tspan x="0" y="0">20%</tspan></text>
      <text class="st29" transform="translate(288.05 523.44)"><tspan x="0" y="0">30%</tspan></text>
      <text class="st29" transform="translate(288.05 493.97)"><tspan x="0" y="0">40%</tspan></text>
      <text class="st29" transform="translate(288.05 461.77)"><tspan x="0" y="0">50%</tspan></text>
      <text class="st29" transform="translate(288.05 432.3)"><tspan x="0" y="0">60%</tspan></text>
      <text class="st29" transform="translate(288.05 402.32)"><tspan x="0" y="0">70%</tspan></text>
      <text class="st29" transform="translate(288.05 372.85)"><tspan x="0" y="0">80%</tspan></text>
      <text class="st29" transform="translate(288.05 342.38)"><tspan x="0" y="0">90%</tspan></text>
      <text class="st29" transform="translate(280.67 308.45)"><tspan x="0" y="0">100%</tspan></text>
      <text class="st29" transform="translate(428.36 369.93)"><tspan x="0" y="0">n = 172</tspan></text>
      <text class="st29" transform="translate(275.98 528.38) rotate(-90)"><tspan x="0" y="0">Susceptibility% (95% CI)</tspan></text>
      <text class="st10" transform="translate(389.58 313.06)"><tspan x="0" y="0">95.0%</tspan></text>
      <text class="st10" transform="translate(502.17 323.64)"><tspan x="0" y="0">93.9%</tspan></text>
      <text class="st10" transform="translate(615.53 323.64)"><tspan x="0" y="0">93.9%</tspan></text>
      <text class="st10" transform="translate(726.97 323.64)"><tspan x="0" y="0">93.9%</tspan></text>
      <text class="st10" transform="translate(841.49 329.99)"><tspan x="0" y="0">93.4%</tspan></text>
      <text class="st29" transform="translate(541.33 369.93)"><tspan x="0" y="0">n = 170</tspan></text>
      <text class="st29" transform="translate(654.31 369.93)"><tspan x="0" y="0">n = 170</tspan></text>
      <text class="st29" transform="translate(767.29 369.93)"><tspan x="0" y="0">n = 170</tspan></text>
      <text class="st29" transform="translate(880.27 369.93)"><tspan x="0" y="0">n = 169</tspan></text>
      <line class="st12" x1="328.88" y1="580.79" x2="317.86" y2="580.79"/>
      <line class="st12" x1="328.88" y1="550.41" x2="317.86" y2="550.41"/>
      <line class="st12" x1="328.88" y1="520.03" x2="317.86" y2="520.03"/>
      <line class="st12" x1="328.88" y1="489.65" x2="317.86" y2="489.65"/>
      <line class="st12" x1="328.88" y1="459.27" x2="317.86" y2="459.27"/>
      <line class="st12" x1="328.88" y1="428.89" x2="317.86" y2="428.89"/>
      <line class="st12" x1="328.88" y1="398.51" x2="317.86" y2="398.51"/>
      <line class="st12" x1="328.88" y1="368.13" x2="317.86" y2="368.13"/>
      <line class="st12" x1="328.88" y1="337.75" x2="317.86" y2="337.75"/>
      <line class="st12" x1="328.88" y1="305.13" x2="317.86" y2="305.13"/>
      <polyline class="st12" points="328.3 298.46 328.3 611.18 927.72 611.18"/>
    </g>
  </g>
  <circle class="st6" cx="88.03" cy="221.41" r="8.16"/>
  <text class="st9" transform="translate(240.51 673)"><tspan x="0" y="0">multi-centre cross-sectional study to determine the prevalence and antimicrobial-resistance </tspan><tspan x="0" y="21.6" xml:space="preserve">profile of  bacteria causing community-acquired UTIs in women</tspan></text>
  <g>
    <path d="M1064.97,702.16l-1.33,1.75v.03l2.12-.28v.95l-2.12-.27v.04l1.34,1.68-.88.5-.85-1.96h-.03l-.9,1.98-.8-.5,1.33-1.71v-.04l-2.07.28v-.95l2.06.27v-.03l-1.32-1.72.85-.49.87,1.96h.03l.85-1.98.84.49Z"/>
    <path d="M1083.09,704.72c0,1.92-1,2.87-2.17,2.87s-2.12-.91-2.13-2.73c0-1.82.98-2.84,2.21-2.84s2.09.98,2.09,2.7ZM1079.75,704.8c-.03,1.16.42,2.04,1.19,2.04.81,0,1.18-.87,1.18-2.06,0-1.12-.32-2.03-1.19-2.03-.76,0-1.18.91-1.18,2.04ZM1080.82,711.44l5.37-9.44h.78l-5.37,9.44h-.78ZM1089.03,708.5c0,1.92-1,2.87-2.17,2.87s-2.12-.91-2.13-2.75c0-1.82.98-2.84,2.21-2.84s2.09.98,2.09,2.72ZM1085.69,708.59c-.03,1.16.42,2.04,1.19,2.04.81,0,1.18-.87,1.18-2.07,0-1.11-.32-2.03-1.19-2.03-.76,0-1.18.91-1.18,2.06Z"/>
    <path d="M1096.1,701.55c-1.02,1.39-1.75,3.19-1.75,5.74s.77,4.27,1.75,5.67h-.95c-.88-1.16-1.83-2.96-1.83-5.69.01-2.75.95-4.55,1.83-5.73h.95Z"/>
    <path d="M1097.74,710.41c.27.03.57,0,.99-.04.71-.1,1.39-.38,1.91-.88.6-.55,1.04-1.34,1.21-2.41h-.04c-.5.62-1.23.97-2.16.97-1.62,0-2.68-1.23-2.68-2.79,0-1.72,1.25-3.24,3.11-3.24s3.01,1.5,3.01,3.85c0,1.99-.67,3.39-1.57,4.26-.7.69-1.67,1.11-2.65,1.22-.45.07-.84.08-1.13.07v-1.01ZM1098.19,705.18c0,1.13.69,1.93,1.75,1.93.83,0,1.47-.41,1.79-.95.07-.13.11-.25.11-.46,0-1.55-.57-2.75-1.88-2.75-1.04,0-1.78.92-1.78,2.23Z"/>
    <path d="M1109.64,703.21h-3.47l-.35,2.34c.21-.03.41-.04.74-.04.71,0,1.4.14,1.96.49.71.39,1.3,1.19,1.3,2.33,0,1.78-1.41,3.11-3.39,3.11-.99,0-1.82-.28-2.27-.56l.31-.94c.38.22,1.12.5,1.96.5,1.15,0,2.16-.76,2.14-1.97,0-1.18-.8-2-2.61-2-.53,0-.94.04-1.27.08l.59-4.37h4.36v1.04Z"/>
    <path d="M1115.48,704.72c0,1.92-1,2.87-2.17,2.87s-2.12-.91-2.13-2.73c0-1.82.98-2.84,2.21-2.84s2.09.98,2.09,2.7ZM1112.15,704.8c-.03,1.16.42,2.04,1.19,2.04.81,0,1.18-.87,1.18-2.06,0-1.12-.32-2.03-1.19-2.03-.76,0-1.18.91-1.18,2.04ZM1113.21,711.44l5.37-9.44h.78l-5.37,9.44h-.78ZM1121.42,708.5c0,1.92-1,2.87-2.17,2.87s-2.12-.91-2.13-2.75c0-1.82.98-2.84,2.21-2.84s2.09.98,2.09,2.72ZM1118.09,708.59c-.03,1.16.42,2.04,1.19,2.04.81,0,1.18-.87,1.18-2.07,0-1.11-.32-2.03-1.19-2.03-.76,0-1.18.91-1.18,2.06Z"/>
    <path d="M1132.47,710.98c-.43.22-1.34.45-2.49.45-2.66,0-4.65-1.68-4.65-4.79s2-4.96,4.93-4.96c1.16,0,1.92.25,2.24.42l-.31.99c-.45-.22-1.11-.39-1.89-.39-2.21,0-3.68,1.41-3.68,3.89,0,2.33,1.33,3.8,3.61,3.8.76,0,1.51-.15,2-.39l.24.98Z"/>
    <path d="M1135.22,701.83v9.44h-1.23v-9.44h1.23Z"/>
    <path d="M1136.56,712.97c.98-1.39,1.75-3.19,1.75-5.72s-.76-4.3-1.75-5.7h.95c.88,1.15,1.83,2.96,1.83,5.7-.01,2.75-.95,4.54-1.83,5.72h-.95Z"/>
    <path d="M1143.79,706.56v-.84h7.23v.84h-7.23ZM1143.79,709.3v-.84h7.23v.84h-7.23Z"/>
    <path d="M1155.88,710.41c.27.03.57,0,.99-.04.71-.1,1.39-.38,1.91-.88.6-.55,1.04-1.34,1.21-2.41h-.04c-.5.62-1.23.97-2.16.97-1.62,0-2.68-1.23-2.68-2.79,0-1.72,1.25-3.24,3.11-3.24s3.01,1.5,3.01,3.85c0,1.99-.67,3.39-1.57,4.26-.7.69-1.67,1.11-2.65,1.22-.45.07-.84.08-1.13.07v-1.01ZM1156.33,705.18c0,1.13.69,1.93,1.75,1.93.83,0,1.47-.41,1.79-.95.07-.13.11-.25.11-.46,0-1.55-.57-2.75-1.88-2.75-1.04,0-1.78.92-1.78,2.23Z"/>
    <path d="M1167.79,703.21h-3.47l-.35,2.34c.21-.03.41-.04.74-.04.71,0,1.4.14,1.96.49.71.39,1.3,1.19,1.3,2.33,0,1.78-1.41,3.11-3.39,3.11-.99,0-1.82-.28-2.27-.56l.31-.94c.38.22,1.12.5,1.96.5,1.15,0,2.16-.76,2.14-1.97,0-1.18-.8-2-2.61-2-.53,0-.94.04-1.27.08l.59-4.37h4.36v1.04Z"/>
    <path d="M1169.63,710.55c0-.5.35-.88.84-.88s.83.36.83.88-.34.88-.85.88c-.48,0-.81-.38-.81-.88Z"/>
    <path d="M1178.5,706.63c0,3.1-1.16,4.8-3.17,4.8-1.78,0-3-1.67-3.03-4.68,0-3.07,1.33-4.73,3.18-4.73s3.01,1.71,3.01,4.61ZM1173.55,706.77c0,2.37.73,3.71,1.85,3.71,1.25,0,1.85-1.47,1.85-3.8s-.56-3.71-1.85-3.71c-1.06,0-1.85,1.32-1.85,3.8Z"/>
    <path d="M1185.63,701.55c-1.02,1.39-1.75,3.19-1.75,5.74s.77,4.27,1.75,5.67h-.95c-.88-1.16-1.83-2.96-1.83-5.69.01-2.75.95-4.55,1.83-5.73h.95Z"/>
    <path d="M1187.27,710.41c.27.03.57,0,.99-.04.71-.1,1.39-.38,1.91-.88.6-.55,1.04-1.34,1.21-2.41h-.04c-.5.62-1.23.97-2.16.97-1.62,0-2.68-1.23-2.68-2.79,0-1.72,1.25-3.24,3.11-3.24s3.01,1.5,3.01,3.85c0,1.99-.67,3.39-1.57,4.26-.7.69-1.67,1.11-2.65,1.22-.45.07-.84.08-1.13.07v-1.01ZM1187.72,705.18c0,1.13.69,1.93,1.75,1.93.83,0,1.47-.41,1.79-.95.07-.13.11-.25.11-.46,0-1.55-.57-2.75-1.88-2.75-1.04,0-1.78.92-1.78,2.23Z"/>
    <path d="M1196.42,703.32h-.03l-1.58.85-.24-.94,1.99-1.06h1.05v9.1h-1.19v-7.96Z"/>
    <path d="M1201.02,710.55c0-.5.35-.88.84-.88s.83.36.83.88-.34.88-.85.88c-.48,0-.81-.38-.81-.88Z"/>
    <path d="M1205.5,706.49c-1.02-.48-1.46-1.26-1.46-2.04,0-1.44,1.22-2.42,2.83-2.42,1.77,0,2.66,1.09,2.66,2.24,0,.77-.39,1.61-1.51,2.13v.04c1.13.45,1.83,1.26,1.83,2.35,0,1.6-1.36,2.65-3.1,2.65-1.91,0-3.05-1.12-3.05-2.45,0-1.15.69-1.98,1.81-2.45v-.04ZM1208.61,708.91c0-1.09-.77-1.64-2-1.99-1.06.31-1.64,1.02-1.64,1.89-.04.91.66,1.72,1.82,1.72s1.82-.69,1.82-1.62ZM1205.22,704.36c-.01.91.69,1.4,1.74,1.68.79-.27,1.39-.83,1.39-1.65,0-.73-.43-1.49-1.54-1.49-1.02,0-1.58.67-1.58,1.46Z"/>
    <path d="M1217.22,707.05v.9h-3.46v-.9h3.46Z"/>
    <path d="M1221.95,710.41c.27.03.57,0,.99-.04.71-.1,1.39-.38,1.91-.88.6-.55,1.04-1.34,1.21-2.41h-.04c-.5.62-1.23.97-2.16.97-1.62,0-2.68-1.23-2.68-2.79,0-1.72,1.25-3.24,3.11-3.24s3.01,1.5,3.01,3.85c0,1.99-.67,3.39-1.57,4.26-.7.69-1.67,1.11-2.65,1.22-.45.07-.84.08-1.13.07v-1.01ZM1222.4,705.18c0,1.13.69,1.93,1.75,1.93.83,0,1.47-.41,1.79-.95.07-.13.11-.25.11-.46,0-1.55-.57-2.75-1.88-2.75-1.04,0-1.78.92-1.78,2.23Z"/>
    <path d="M1230.1,706.49c-1.02-.48-1.46-1.26-1.46-2.04,0-1.44,1.22-2.42,2.83-2.42,1.77,0,2.66,1.09,2.66,2.24,0,.77-.39,1.61-1.51,2.13v.04c1.13.45,1.83,1.26,1.83,2.35,0,1.6-1.36,2.65-3.1,2.65-1.91,0-3.05-1.12-3.05-2.45,0-1.15.69-1.98,1.81-2.45v-.04ZM1233.21,708.91c0-1.09-.77-1.64-2-1.99-1.06.31-1.64,1.02-1.64,1.89-.04.91.66,1.72,1.82,1.72s1.82-.69,1.82-1.62ZM1229.82,704.36c-.01.91.69,1.4,1.74,1.68.79-.27,1.39-.83,1.39-1.65,0-.73-.43-1.49-1.54-1.49-1.02,0-1.58.67-1.58,1.46Z"/>
    <path d="M1235.7,710.55c0-.5.35-.88.84-.88s.83.36.83.88-.34.88-.85.88c-.48,0-.81-.38-.81-.88Z"/>
    <path d="M1238.5,711.28v-.76l.97-.94c2.33-2.21,3.39-3.39,3.39-4.76,0-.92-.43-1.78-1.79-1.78-.83,0-1.51.42-1.93.77l-.39-.87c.62-.52,1.53-.92,2.56-.92,1.96,0,2.79,1.34,2.79,2.65,0,1.68-1.22,3.04-3.14,4.89l-.71.67v.03h4.08v1.02h-5.81Z"/>
    <path d="M1245.33,712.97c.98-1.39,1.75-3.19,1.75-5.72s-.76-4.3-1.75-5.7h.95c.88,1.15,1.83,2.96,1.83,5.7-.01,2.75-.95,4.54-1.83,5.72h-.95Z"/>
  </g>
  <g class="st24">
    <rect class="st21" x="1214.88" y="705.55" width="39.06" height="39.06" rx="8.38" ry="8.38"/>
    <path class="st25" d="M1248.89,722.61l-4.97-4.97v-6.89c0-.24-.19-.43-.43-.43h-3.07c-.24,0-.43.19-.43.43v2.96l-4.53-4.53c-.58-.57-1.51-.57-2.08,0l-13.45,13.44c-.87.87-.35,2.36.87,2.5l2.17.25v14.55c0,.81.66,1.47,1.47,1.47h6.34v-10.56c0-.71.57-1.28,1.28-1.28h4.7c.71,0,1.28.57,1.28,1.28v10.56h6.34c.81,0,1.47-.66,1.47-1.47v-14.56l2.17-.26c1.22-.14,1.74-1.64.87-2.5Z"/>
  </g>
</svg>