<?xml version="1.0" encoding="UTF-8"?>
<svg id="Layer_1" xmlns="http://www.w3.org/2000/svg" xmlns:xlink="http://www.w3.org/1999/xlink" version="1.1" viewBox="0 0 1280 768">
  <!-- Generator: Adobe Illustrator 30.0.0, SVG Export Plug-In . SVG Version: 2.1.1 Build 123)  -->
  <defs>
    <style>
      .st0 {
        filter: url(#drop-shadow-1);
      }

      .st1 {
        fill: url(#linear-gradient8);
      }

      .st2 {
        fill: url(#linear-gradient4);
      }

      .st3 {
        fill: url(#linear-gradient1);
      }

      .st3, .st4, .st5, .st6, .st7, .st8 {
        opacity: .7;
      }

      .st4 {
        fill: url(#linear-gradient2);
      }

      .st5 {
        fill: url(#linear-gradient7);
      }

      .st6 {
        fill: url(#linear-gradient3);
      }

      .st7 {
        fill: url(#linear-gradient6);
      }

      .st8 {
        fill: url(#linear-gradient5);
      }

      .st9 {
        fill: #2b388f;
      }

      .st10 {
        fill: url(#radial-gradient);
      }

      .st11 {
        fill: url(#linear-gradient);
      }

      .st12 {
        font-size: 25px;
      }

      .st12, .st13, .st14, .st15, .st16, .st17, .st18, .st19 {
        fill: #fff;
      }

      .st12, .st19 {
        font-family: MyriadPro-Bold, 'Myriad Pro';
        font-weight: 700;
      }

      .st20 {
        stroke: #fff;
        stroke-width: 3.95px;
      }

      .st20, .st15, .st16, .st21 {
        stroke-miterlimit: 10;
      }

      .st20, .st22 {
        fill: #243a78;
      }

      .st23 {
        filter: url(#drop-shadow-13);
      }

      .st24 {
        fill: #000b8c;
      }

      .st14 {
        font-family: MyriadPro-Semibold, 'Myriad Pro';
        font-size: 34.53px;
        font-weight: 600;
      }

      .st15, .st16 {
        stroke: #2b388f;
        stroke-width: 2.63px;
      }

      .st15, .st16, .st17, .st18 {
        font-family: BerkshireSwash-Regular, 'Berkshire Swash';
      }

      .st15, .st17 {
        font-size: 34.66px;
      }

      .st16, .st18 {
        font-size: 27.67px;
      }

      .st21 {
        fill: url(#radial-gradient1);
        stroke: #000b8c;
        stroke-width: 1.6px;
      }

      .st19 {
        font-size: 38.37px;
      }
    </style>
    <radialGradient id="radial-gradient" cx="640" cy="384" fx="640" fy="384" r="527.76" gradientUnits="userSpaceOnUse">
      <stop offset="0" stop-color="#fff"/>
      <stop offset="1" stop-color="#edffff"/>
    </radialGradient>
    <filter id="drop-shadow-1" x="34.96" y="676.63" width="153.04" height="81.56" filterUnits="userSpaceOnUse">
      <feOffset dx="3.73" dy="3.73"/>
      <feGaussianBlur result="blur" stdDeviation="3.73"/>
      <feFlood flood-color="#231f20" flood-opacity=".4"/>
      <feComposite in2="blur" operator="in"/>
      <feComposite in="SourceGraphic"/>
    </filter>
    <linearGradient id="linear-gradient" x1="1745.93" y1="130.8" x2="582.4" y2="126.14" gradientUnits="userSpaceOnUse">
      <stop offset="0" stop-color="#fff" stop-opacity="0"/>
      <stop offset=".68" stop-color="#2b388f"/>
    </linearGradient>
    <linearGradient id="linear-gradient1" x1="-214.47" y1="332.41" x2="392.79" y2="332.41" gradientTransform="translate(244.15) scale(.95 1)" gradientUnits="userSpaceOnUse">
      <stop offset="0" stop-color="#ee5b98"/>
      <stop offset="1" stop-color="#7b5ba5"/>
    </linearGradient>
    <linearGradient id="linear-gradient2" x1="-214.47" y1="408.22" x2="392.79" y2="408.22" gradientTransform="translate(244.15) scale(.95 1)" gradientUnits="userSpaceOnUse">
      <stop offset="0" stop-color="#00adee"/>
      <stop offset="1" stop-color="#2e3191"/>
    </linearGradient>
    <linearGradient id="linear-gradient3" y1="487.12" y2="487.12" xlink:href="#linear-gradient1"/>
    <linearGradient id="linear-gradient4" x1="34.67" y1="251.29" x2="625.06" y2="251.29" gradientUnits="userSpaceOnUse">
      <stop offset="0" stop-color="#1b75bb"/>
      <stop offset=".63" stop-color="#00a4e6"/>
      <stop offset=".81" stop-color="#0e8ace"/>
      <stop offset="1" stop-color="#1b75bb"/>
    </linearGradient>
    <linearGradient id="linear-gradient5" x1="443.9" y1="332.41" x2="1051.16" y2="332.41" xlink:href="#linear-gradient2"/>
    <linearGradient id="linear-gradient6" x1="443.9" y1="408.22" x2="1051.16" y2="408.22" xlink:href="#linear-gradient1"/>
    <linearGradient id="linear-gradient7" x1="443.9" y1="487.12" x2="1051.16" y2="487.12" xlink:href="#linear-gradient2"/>
    <linearGradient id="linear-gradient8" x1="658.94" y1="251.29" x2="1249.32" y2="251.29" gradientTransform="matrix(1,0,0,1,0,0)" xlink:href="#linear-gradient1"/>
    <filter id="drop-shadow-13" x="1214.08" y="704.75" width="40.65" height="40.65" filterUnits="userSpaceOnUse">
      <feOffset dx="5.59" dy="5.59"/>
      <feGaussianBlur result="blur1" stdDeviation="3.99"/>
      <feFlood flood-color="#000" flood-opacity=".75"/>
      <feComposite in2="blur1" operator="in"/>
      <feComposite in="SourceGraphic"/>
    </filter>
    <radialGradient id="radial-gradient1" cx="1234.41" cy="725.08" fx="1234.41" fy="725.08" r="19.53" gradientUnits="userSpaceOnUse">
      <stop offset="0" stop-color="#fff"/>
      <stop offset="1" stop-color="#f1f1f1"/>
    </radialGradient>
  </defs>
  <g>
    <rect class="st10" width="1280" height="768"/>
    <g class="st0">
      <text class="st15" transform="translate(68.19 711.56) rotate(-.27)"><tspan x="0" y="0">Eternal </tspan></text>
      <g>
        <g>
          <path class="st20" d="M64.97,714.95c-.11.14-.15.32-.11.5l2.71,12.04c.06.27.3.46.58.46h.57c.9-2.06,1.4-4.34,1.39-6.73-.01-2.31-.5-4.51-1.36-6.51l-3.32.02c-.18,0-.35.08-.46.22Z"/>
          <path class="st20" d="M39.54,728.11l2.6-12.07c.04-.17,0-.36-.12-.5-.11-.14-.28-.22-.46-.22l-3.52.02c-.72,1.87-1.11,3.9-1.1,6.03.01,2.58.61,5.03,1.68,7.2h.35c.28,0,.52-.2.57-.47Z"/>
          <path class="st20" d="M65.71,724.41l-2.02-8.85c-.12-.54-.61-.92-1.16-.92-.02,0-.05,0-.07,0l-7.09.47c-.27.02-.52.13-.72.31l-.29.26-.31-.28c-.22-.2-.5-.3-.79-.3h-2.94s-5.96.04-5.96.04c-.55,0-1.03.39-1.15.93l-2.05,9.38c-.08.38.02.77.28,1.05.23.25.54.38.87.38.05,0,.1,0,.15-.01l2.8-.37,7.52,5.81.78.72c.23.21.52.31.81.31.08,0,.15,0,.23-.02.26-.02.51-.13.71-.32l5.35-5.04,2.64-2.44.93.27c.11.03.22.05.33.05.3,0,.58-.11.81-.32.3-.29.43-.71.34-1.12ZM61.08,725.96s-.04-.04-.06-.06l-5.08-4.65c-.24-.22-.61-.2-.83.04-.22.24-.2.61.04.83l5.08,4.64-.37.35-.83.78s0,0,0-.01c-.03-.04-.06-.08-.1-.11l-4.22-3.72c-.24-.22-.62-.19-.83.05-.22.24-.19.62.05.83l4.22,3.72s.02.01.02.02c0,0,.01,0,.02.01l-1.22,1.15s-.01-.02-.02-.04c-.03-.05-.07-.1-.12-.15l-3.46-3.05c-.24-.22-.62-.19-.83.05-.22.24-.19.62.05.83l3.46,3.05s.04.03.05.04c.02.01.03.02.05.03l-.56.52s-.02-.04-.03-.06c-.04-.08-.09-.16-.17-.22l-.84-.67c-.25-.2-.63-.16-.83.09l-.6.75-.03.04-.5-.39.07-.08.59-.74c.2-.26.16-.63-.09-.83l-.84-.67c-.26-.2-.63-.16-.83.09l-.48.61-.19.24-.5-.39.22-.28.6-.76c.2-.26.16-.63-.09-.83l-.84-.67c-.25-.2-.63-.16-.83.09l-.5.63-.35.44-.31-.24-.19-.15s.01,0,.02-.01c.05-.03.09-.07.13-.11l.26-.33.62-.78c.2-.26.16-.63-.09-.83l-.84-.67c-.26-.2-.63-.16-.83.09l-.51.65-.37.46s0,0,0,0c-.05.06-.08.13-.1.2l-.71-.55-.33.04-2.96.39,2.05-9.38,5.96-.03h2.94s.23.19.23.19l.1.09-1.84,2.31-.75.95s-.35.39-.32.84c.01.16.07.32.22.48.68.74,2.23.16,2.23.16l1.92-2.31s.25-.33.69-.5l6.79,6.1-1.44,1.36Z"/>
        </g>
        <path class="st20" d="M54.77,755.22l1.79-19.93c.03-.29-.06-.58-.24-.79-.18-.21-.43-.32-.68-.3l-3.96.49c-.72,3.13-.96,6.48-.62,9.93.41,4.19.68,8.08,2.49,11.47l.48-.05c.39-.04.69-.38.73-.83Z"/>
      </g>
      <text class="st16" transform="translate(65.99 747.4) rotate(-.27)"><tspan x="0" y="0">rust</tspan></text>
      <text class="st17" transform="translate(68.19 711.56) rotate(-.27)"><tspan x="0" y="0">Eternal </tspan></text>
      <g>
        <g>
          <path class="st22" d="M64.97,714.95c-.11.14-.15.32-.11.5l2.71,12.04c.06.27.3.46.58.46h.57c.9-2.06,1.4-4.34,1.39-6.73-.01-2.31-.5-4.51-1.36-6.51l-3.32.02c-.18,0-.35.08-.46.22Z"/>
          <path class="st22" d="M39.54,728.11l2.6-12.07c.04-.17,0-.36-.12-.5-.11-.14-.28-.22-.46-.22l-3.52.02c-.72,1.87-1.11,3.9-1.1,6.03.01,2.58.61,5.03,1.68,7.2h.35c.28,0,.52-.2.57-.47Z"/>
          <path class="st22" d="M65.71,724.41l-2.02-8.85c-.12-.54-.61-.92-1.16-.92-.02,0-.05,0-.07,0l-7.09.47c-.27.02-.52.13-.72.31l-.29.26-.31-.28c-.22-.2-.5-.3-.79-.3h-2.94s-5.96.04-5.96.04c-.55,0-1.03.39-1.15.93l-2.05,9.38c-.08.38.02.77.28,1.05.23.25.54.38.87.38.05,0,.1,0,.15-.01l2.8-.37,7.52,5.81.78.72c.23.21.52.31.81.31.08,0,.15,0,.23-.02.26-.02.51-.13.71-.32l5.35-5.04,2.64-2.44.93.27c.11.03.22.05.33.05.3,0,.58-.11.81-.32.3-.29.43-.71.34-1.12ZM61.08,725.96s-.04-.04-.06-.06l-5.08-4.65c-.24-.22-.61-.2-.83.04-.22.24-.2.61.04.83l5.08,4.64-.37.35-.83.78s0,0,0-.01c-.03-.04-.06-.08-.1-.11l-4.22-3.72c-.24-.22-.62-.19-.83.05-.22.24-.19.62.05.83l4.22,3.72s.02.01.02.02c0,0,.01,0,.02.01l-1.22,1.15s-.01-.02-.02-.04c-.03-.05-.07-.1-.12-.15l-3.46-3.05c-.24-.22-.62-.19-.83.05-.22.24-.19.62.05.83l3.46,3.05s.04.03.05.04c.02.01.03.02.05.03l-.56.52s-.02-.04-.03-.06c-.04-.08-.09-.16-.17-.22l-.84-.67c-.25-.2-.63-.16-.83.09l-.6.75-.03.04-.5-.39.07-.08.59-.74c.2-.26.16-.63-.09-.83l-.84-.67c-.26-.2-.63-.16-.83.09l-.48.61-.19.24-.5-.39.22-.28.6-.76c.2-.26.16-.63-.09-.83l-.84-.67c-.25-.2-.63-.16-.83.09l-.5.63-.35.44-.31-.24-.19-.15s.01,0,.02-.01c.05-.03.09-.07.13-.11l.26-.33.62-.78c.2-.26.16-.63-.09-.83l-.84-.67c-.26-.2-.63-.16-.83.09l-.51.65-.37.46s0,0,0,0c-.05.06-.08.13-.1.2l-.71-.55-.33.04-2.96.39,2.05-9.38,5.96-.03h2.94s.23.19.23.19l.1.09-1.84,2.31-.75.95s-.35.39-.32.84c.01.16.07.32.22.48.68.74,2.23.16,2.23.16l1.92-2.31s.25-.33.69-.5l6.79,6.1-1.44,1.36Z"/>
        </g>
        <path class="st22" d="M54.77,755.22l1.79-19.93c.03-.29-.06-.58-.24-.79-.18-.21-.43-.32-.68-.3l-3.96.49c-.72,3.13-.96,6.48-.62,9.93.41,4.19.68,8.08,2.49,11.47l.48-.05c.39-.04.69-.38.73-.83Z"/>
      </g>
      <text class="st18" transform="translate(65.99 747.4) rotate(-.27)"><tspan x="0" y="0">rust</tspan></text>
    </g>
    <g>
      <path class="st9" d="M1279.38,723.58H250.35c-1.93,0-1.93,3,0,3h1029.03c1.93,0,1.93-3,0-3h0Z"/>
      <circle class="st9" cx="238.59" cy="725.53" r="4.9"/>
      <circle class="st9" cx="224.64" cy="725.53" r="4.9"/>
      <circle class="st9" cx="210.68" cy="725.53" r="4.9"/>
    </g>
    <g>
      <path class="st9" d="M0,55.81h1036.47c1.93,0,1.93-3,0-3H0c-1.93,0-1.93,3,0,3h0Z"/>
      <circle class="st9" cx="1048.22" cy="53.86" r="4.9"/>
      <circle class="st9" cx="1062.18" cy="53.86" r="4.9"/>
      <circle class="st9" cx="1076.13" cy="53.86" r="4.9"/>
    </g>
    <g>
      <path class="st22" d="M1154.38,56.45c-.16-4.27-.32-9.38-.32-14.6h-.11c-1.16,4.53-2.64,9.6-4.01,13.76l-4.32,13.87h-6.27l-3.79-13.71c-1.16-4.22-2.32-9.23-3.22-13.92h-.1c-.16,4.8-.37,10.28-.58,14.71l-.69,13.5h-7.44l2.27-35.53h10.7l3.48,11.92c1.16,4.06,2.21,8.49,3,12.65h.21c.95-4.11,2.16-8.75,3.37-12.76l3.74-11.81h10.54l1.9,35.53h-7.8l-.58-13.6Z"/>
      <path class="st22" d="M1170.83,40.9c-2.69,0-4.43-1.9-4.43-4.27s1.79-4.27,4.53-4.27,4.43,1.85,4.48,4.27c0,2.37-1.74,4.27-4.53,4.27h-.05ZM1166.88,44.27h8.01v25.78h-8.01v-25.78Z"/>
      <path class="st22" d="M1185.38,44.27l2.53,4.32c.74,1.32,1.42,2.58,2.11,3.85h.11c.69-1.42,1.32-2.69,2-4.01l2.27-4.16h8.7l-8.49,12.28,8.59,13.5h-9.07l-2.58-4.64c-.74-1.27-1.42-2.58-2-3.9h-.16c-.63,1.37-1.32,2.64-1.95,3.9l-2.42,4.64h-8.81l8.75-13.13-8.54-12.65h8.96Z"/>
      <path class="st22" d="M1208.48,40.9c-2.69,0-4.43-1.9-4.43-4.27s1.79-4.27,4.53-4.27,4.43,1.85,4.48,4.27c0,2.37-1.74,4.27-4.53,4.27h-.05ZM1204.53,44.27h8.01v25.78h-8.01v-25.78Z"/>
      <path class="st22" d="M1217.86,70.05v-19.87h-3.43v-5.9h3.43v-1c0-3.11.95-6.54,3.22-8.65,2.05-1.9,4.8-2.58,7.17-2.58,1.74,0,3.11.26,4.22.53l-.32,6.17c-.69-.21-1.53-.37-2.58-.37-2.64,0-3.74,2.06-3.74,4.59v1.32h5.17v5.9h-5.11v19.87h-8.01Z"/>
      <path class="st22" d="M1187.01,80.91c-.37.19-1.13.38-2.1.38-2.25,0-3.93-1.42-3.93-4.04s1.69-4.19,4.16-4.19c.98,0,1.62.21,1.89.35l-.26.84c-.38-.19-.94-.33-1.6-.33-1.87,0-3.11,1.2-3.11,3.29,0,1.96,1.12,3.21,3.05,3.21.64,0,1.28-.13,1.69-.33l.2.83Z"/>
      <path class="st22" d="M1189.31,78.47c.02,1.41.91,1.99,1.95,1.99.75,0,1.21-.13,1.59-.29l.19.73c-.37.16-1,.37-1.92.37-1.75,0-2.81-1.17-2.81-2.88s1.03-3.1,2.7-3.1c1.87,0,2.35,1.64,2.35,2.7,0,.21,0,.38-.03.5h-4.01ZM1192.35,77.73c0-.65-.27-1.69-1.43-1.69-1.06,0-1.51.97-1.6,1.69h3.03Z"/>
      <path class="st22" d="M1195.33,81.16v-4.93h-.79v-.79h.79v-.27c0-.8.19-1.54.68-2,.39-.38.91-.53,1.38-.53.38,0,.69.08.89.16l-.13.81c-.17-.07-.37-.13-.67-.13-.88,0-1.11.78-1.11,1.66v.31h1.38v.79h-1.37v4.93h-1.04Z"/>
      <path class="st22" d="M1199.77,74.38c-.39,0-.65-.31-.65-.67s.27-.66.67-.66.66.3.66.66-.26.67-.67.67h-.01ZM1199.28,75.43h1.04v5.72h-1.04v-5.72Z"/>
      <path class="st22" d="M1203.11,75.43l.82,1.22c.21.33.39.62.58.94h.03c.19-.33.38-.63.58-.94l.79-1.22h1.14l-1.95,2.77,2,2.96h-1.18l-.84-1.29c-.22-.33-.41-.65-.61-.99h-.02c-.19.34-.39.65-.6.99l-.83,1.29h-1.15l2.03-2.92-1.94-2.8h1.16Z"/>
      <path class="st22" d="M1209.19,74.38c-.39,0-.65-.31-.65-.67s.27-.66.68-.66.66.3.66.66-.26.67-.68.67h-.01ZM1208.69,75.43h1.04v5.72h-1.04v-5.72Z"/>
      <path class="st22" d="M1212.04,76.98c0-.6-.02-1.07-.05-1.55h.91l.05.92h.03c.32-.54.85-1.05,1.81-1.05.77,0,1.36.47,1.61,1.15h.02c.18-.33.41-.57.65-.74.34-.26.71-.4,1.25-.4.77,0,1.89.5,1.89,2.48v3.37h-1.02v-3.24c0-1.11-.42-1.76-1.24-1.76-.6,0-1.05.44-1.24.93-.05.15-.08.35-.08.52v3.55h-1.02v-3.43c0-.92-.4-1.57-1.2-1.57-.64,0-1.12.52-1.29,1.04-.06.15-.08.33-.08.51v3.45h-1.02v-4.18Z"/>
      <path class="st22" d="M1223.08,78.47c.02,1.41.91,1.99,1.95,1.99.74,0,1.21-.13,1.58-.29l.19.73c-.37.16-1,.37-1.92.37-1.75,0-2.81-1.17-2.81-2.88s1.03-3.1,2.7-3.1c1.87,0,2.36,1.64,2.36,2.7,0,.21-.01.38-.04.5h-4.01ZM1226.12,77.73c0-.65-.27-1.69-1.43-1.69-1.06,0-1.51.97-1.6,1.69h3.03Z"/>
      <path class="st22" d="M1241.34,32.72c2.32,0,4.17,1.89,4.17,4.21s-1.85,4.23-4.19,4.23-4.21-1.87-4.21-4.23,1.89-4.21,4.21-4.21h.02ZM1241.3,33.56c-1.76,0-3.18,1.52-3.18,3.39s1.42,3.37,3.2,3.37c1.78.02,3.22-1.48,3.22-3.37s-1.44-3.39-3.22-3.39h-.02ZM1240.59,39.38h-.99v-4.68c.37-.06.79-.13,1.5-.13.8,0,1.29.13,1.61.37.26.21.41.52.41,1.01,0,.56-.39.95-.9,1.09v.04c.41.07.67.45.75,1.14.09.73.19,1.01.26,1.16h-1.03c-.11-.17-.19-.58-.28-1.22-.07-.51-.37-.71-.88-.71h-.45v1.93ZM1240.59,36.69h.47c.58,0,1.03-.19,1.03-.67,0-.39-.28-.69-.95-.69-.24,0-.41,0-.54.02v1.35Z"/>
    </g>
  </g>
  <rect class="st11" x="-.38" y="97.49" width="1280.38" height="57.76"/>
  <g>
    <path class="st13" d="M40.76,126.04c-.1-2.8-.21-6.16-.21-9.59h-.07c-.76,2.98-1.73,6.3-2.63,9.03l-2.84,9.1h-4.12l-2.49-9c-.76-2.77-1.52-6.06-2.11-9.14h-.07c-.1,3.15-.24,6.75-.38,9.66l-.45,8.86h-4.88l1.49-23.33h7.03l2.28,7.82c.76,2.66,1.45,5.57,1.97,8.31h.14c.62-2.7,1.42-5.75,2.21-8.38l2.46-7.75h6.92l1.25,23.33h-5.12l-.38-8.93Z"/>
    <path class="st13" d="M51.56,115.84c-1.77,0-2.91-1.25-2.91-2.8s1.18-2.8,2.98-2.8,2.91,1.21,2.94,2.8c0,1.56-1.14,2.8-2.98,2.8h-.03ZM48.97,118.05h5.26v16.92h-5.26v-16.92Z"/>
    <path class="st13" d="M61.11,118.05l1.66,2.84c.48.87.94,1.7,1.38,2.53h.07c.45-.93.87-1.77,1.31-2.63l1.49-2.73h5.71l-5.57,8.06,5.64,8.86h-5.95l-1.7-3.05c-.48-.83-.93-1.7-1.32-2.56h-.1c-.42.9-.86,1.73-1.28,2.56l-1.59,3.05h-5.78l5.75-8.62-5.61-8.31h5.88Z"/>
    <path class="st13" d="M76.27,115.84c-1.76,0-2.91-1.25-2.91-2.8s1.18-2.8,2.98-2.8,2.91,1.21,2.94,2.8c0,1.56-1.14,2.8-2.98,2.8h-.04ZM73.68,118.05h5.26v16.92h-5.26v-16.92Z"/>
    <path class="st13" d="M82.43,134.97v-13.05h-2.25v-3.88h2.25v-.66c0-2.04.62-4.29,2.11-5.68,1.35-1.25,3.15-1.7,4.71-1.7,1.14,0,2.04.17,2.77.35l-.21,4.05c-.45-.14-1-.24-1.7-.24-1.73,0-2.46,1.35-2.46,3.01v.87h3.39v3.88h-3.36v13.05h-5.26Z"/>
    <path class="st13" d="M62.18,142.1c-.24.12-.74.25-1.38.25-1.47,0-2.58-.93-2.58-2.65s1.11-2.75,2.73-2.75c.64,0,1.06.14,1.24.23l-.17.55c-.25-.13-.61-.22-1.05-.22-1.23,0-2.04.79-2.04,2.16,0,1.29.74,2.1,2,2.1.42,0,.84-.09,1.11-.22l.13.54Z"/>
    <path class="st13" d="M63.69,140.5c.02.92.6,1.31,1.28,1.31.49,0,.79-.09,1.04-.19l.12.48c-.24.11-.66.24-1.26.24-1.15,0-1.85-.77-1.85-1.89s.68-2.03,1.77-2.03c1.23,0,1.54,1.08,1.54,1.77,0,.14,0,.25-.02.33h-2.63ZM65.69,140.01c0-.43-.18-1.11-.94-1.11-.7,0-.99.64-1.05,1.11h1.99Z"/>
    <path class="st13" d="M67.64,142.26v-3.24h-.52v-.52h.52v-.18c0-.53.12-1.01.44-1.31.26-.25.6-.35.91-.35.25,0,.45.05.58.11l-.09.53c-.11-.05-.24-.09-.44-.09-.57,0-.73.51-.73,1.09v.2h.91v.52h-.9v3.24h-.68Z"/>
    <path class="st13" d="M70.56,137.82c-.26,0-.43-.2-.43-.44s.18-.43.44-.43.43.19.43.43-.17.44-.44.44h0ZM70.23,138.51h.68v3.76h-.68v-3.76Z"/>
    <path class="st13" d="M72.75,138.51l.54.8c.14.22.26.4.38.61h.02c.12-.22.25-.41.38-.61l.52-.8h.75l-1.28,1.82,1.31,1.94h-.78l-.55-.85c-.15-.22-.27-.43-.4-.65h-.02c-.12.22-.26.43-.4.65l-.54.85h-.75l1.34-1.92-1.27-1.84h.76Z"/>
    <path class="st13" d="M76.74,137.82c-.26,0-.43-.2-.43-.44s.18-.43.44-.43.43.19.43.43-.17.44-.44.44h0ZM76.41,138.51h.68v3.76h-.68v-3.76Z"/>
    <path class="st13" d="M78.61,139.52c0-.4-.02-.71-.03-1.02h.6l.03.61h.02c.21-.36.56-.69,1.19-.69.51,0,.89.31,1.06.75h.02c.12-.22.27-.37.43-.49.23-.17.46-.26.82-.26.5,0,1.24.33,1.24,1.63v2.21h-.67v-2.13c0-.73-.27-1.16-.82-1.16-.4,0-.69.29-.81.61-.03.1-.05.23-.05.34v2.33h-.67v-2.25c0-.61-.26-1.03-.79-1.03-.42,0-.74.34-.84.68-.04.1-.05.22-.05.33v2.27h-.67v-2.74Z"/>
    <path class="st13" d="M85.86,140.5c.02.92.6,1.31,1.28,1.31.49,0,.79-.09,1.04-.19l.12.48c-.24.11-.66.24-1.26.24-1.15,0-1.85-.77-1.85-1.89s.68-2.03,1.77-2.03c1.23,0,1.55,1.08,1.55,1.77,0,.14,0,.25-.02.33h-2.63ZM87.85,140.01c0-.43-.18-1.11-.94-1.11-.7,0-.99.64-1.05,1.11h1.99Z"/>
    <path class="st13" d="M97.84,110.47c1.52,0,2.74,1.24,2.74,2.76s-1.22,2.78-2.75,2.78-2.76-1.23-2.76-2.78,1.24-2.76,2.76-2.76h.01ZM97.82,111.02c-1.16,0-2.09.99-2.09,2.22s.93,2.21,2.1,2.21c1.17.01,2.11-.97,2.11-2.21s-.95-2.22-2.11-2.22h-.01ZM97.35,114.84h-.65v-3.07c.24-.04.52-.09.98-.09.53,0,.85.09,1.06.25.17.14.27.34.27.66,0,.37-.26.63-.59.71v.02c.27.05.44.3.49.75.06.48.12.66.17.76h-.68c-.07-.11-.12-.38-.18-.8-.05-.33-.25-.47-.58-.47h-.29v1.27ZM97.35,113.07h.31c.38,0,.68-.12.68-.44,0-.26-.18-.45-.63-.45-.16,0-.27,0-.36.01v.88Z"/>
  </g>
  <g>
    <text class="st12" transform="translate(112.17 133.43)"><tspan x="0" y="0">is active against most strains of the following Gram-positive and Gram-negative organisms</tspan></text>
    <text class="st12" transform="translate(1117.65 125.11) scale(.58)"><tspan x="0" y="0">1</tspan></text>
  </g>
  <g>
    <path class="st3" d="M593.28,364.22H64.11c-12.82,0-23.32-11.07-23.32-24.59v-14.43c0-13.53,10.5-24.59,23.32-24.59h529.17c12.82,0,23.32,11.07,23.32,24.59v14.43c0,13.52-10.49,24.59-23.32,24.59Z"/>
    <path class="st4" d="M593.28,440.03H64.11c-12.82,0-23.32-11.06-23.32-24.59v-14.43c0-13.52,10.5-24.59,23.32-24.59h529.17c12.82,0,23.32,11.07,23.32,24.59v14.43c0,13.52-10.49,24.59-23.32,24.59Z"/>
    <path class="st6" d="M593.28,518.92H64.11c-12.82,0-23.32-11.06-23.32-24.59v-14.43c0-13.52,10.5-24.59,23.32-24.59h529.17c12.82,0,23.32,11.07,23.32,24.59v14.43c0,13.53-10.49,24.59-23.32,24.59Z"/>
    <path class="st2" d="M54.26,213.58h551.22c10.81,0,19.58,8.77,19.58,19.58v36.27c0,10.81-8.77,19.58-19.58,19.58H54.25c-10.81,0-19.58-8.77-19.58-19.58v-36.27c0-10.81,8.77-19.58,19.58-19.58Z"/>
    <text class="st19" transform="translate(185.23 264.65)"><tspan x="0" y="0">Gram-negative</tspan></text>
  </g>
  <text class="st14" transform="translate(199.81 342.38)"><tspan x="0" y="0">Escherichia coli</tspan><tspan x="-67.16" y="78.82">Haemophilus influenzae</tspan><tspan x="-42.01" y="157.64">Moraxella catarrhalis</tspan></text>
  <path class="st8" d="M1217.55,364.22h-529.17c-12.82,0-23.32-11.07-23.32-24.59v-14.43c0-13.53,10.5-24.59,23.32-24.59h529.17c12.82,0,23.32,11.07,23.32,24.59v14.43c0,13.52-10.49,24.59-23.32,24.59Z"/>
  <path class="st7" d="M1217.55,440.03h-529.17c-12.82,0-23.32-11.06-23.32-24.59v-14.43c0-13.52,10.5-24.59,23.32-24.59h529.17c12.82,0,23.32,11.07,23.32,24.59v14.43c0,13.52-10.49,24.59-23.32,24.59Z"/>
  <path class="st5" d="M1217.55,518.92h-529.17c-12.82,0-23.32-11.06-23.32-24.59v-14.43c0-13.52,10.5-24.59,23.32-24.59h529.17c12.82,0,23.32,11.07,23.32,24.59v14.43c0,13.53-10.49,24.59-23.32,24.59Z"/>
  <rect class="st1" x="658.94" y="213.58" width="590.38" height="75.43" rx="19.58" ry="19.58"/>
  <text class="st19" transform="translate(816.1 264.65)"><tspan x="0" y="0">Gram-positive</tspan></text>
  <text class="st14" transform="translate(740.53 340.79)"><tspan x="0" y="0">Streptococcus pneumoniae</tspan><tspan x="21.81" y="78.82">Streptococcus pyogenes</tspan><tspan x="18.51" y="157.64">Streptococcus agalactiae</tspan></text>
  <g class="st23">
    <rect class="st21" x="1214.88" y="705.55" width="39.06" height="39.06" rx="8.38" ry="8.38"/>
    <path class="st24" d="M1248.89,722.61l-4.97-4.97v-6.89c0-.24-.19-.43-.43-.43h-3.07c-.24,0-.43.19-.43.43v2.96l-4.53-4.53c-.58-.57-1.51-.57-2.08,0l-13.45,13.44c-.87.87-.35,2.36.87,2.5l2.17.25v14.55c0,.81.66,1.47,1.47,1.47h6.34v-10.56c0-.71.57-1.28,1.28-1.28h4.7c.71,0,1.28.57,1.28,1.28v10.56h6.34c.81,0,1.47-.66,1.47-1.47v-14.56l2.17-.26c1.22-.14,1.74-1.64.87-2.5Z"/>
  </g>
</svg>