<?xml version="1.0" encoding="UTF-8"?>
<svg id="Layer_1" xmlns="http://www.w3.org/2000/svg" xmlns:xlink="http://www.w3.org/1999/xlink" version="1.1" viewBox="0 0 1280 768">
  <!-- Generator: Adobe Illustrator 30.0.0, SVG Export Plug-In . SVG Version: 2.1.1 Build 123)  -->
  <defs>
    <style>
      .st0, .st1, .st2 {
        fill: none;
      }

      .st3 {
        letter-spacing: 0em;
      }

      .st3, .st4, .st5, .st6, .st7, .st8, .st9, .st10 {
        font-weight: 700;
      }

      .st3, .st5, .st6, .st7, .st8, .st9, .st10 {
        font-family: MyriadPro-Bold, 'Myriad Pro';
      }

      .st3, .st6, .st10 {
        fill: #00adee;
        font-size: 14.55px;
      }

      .st11 {
        filter: url(#drop-shadow-6);
      }

      .st4 {
        fill: #231f20;
        font-family: Arial-BoldMT, Arial;
        font-size: 9px;
      }

      .st5 {
        fill: #f05a28;
        font-size: 29.61px;
        letter-spacing: 0em;
      }

      .st12 {
        fill: url(#linear-gradient9);
      }

      .st13 {
        fill: url(#linear-gradient3);
      }

      .st14 {
        fill: url(#linear-gradient6);
      }

      .st15 {
        fill: url(#linear-gradient8);
      }

      .st16 {
        fill: url(#linear-gradient7);
      }

      .st17 {
        fill: url(#linear-gradient5);
      }

      .st18 {
        fill: url(#linear-gradient4);
      }

      .st19 {
        fill: #2b388f;
      }

      .st20 {
        fill: url(#linear-gradient18);
      }

      .st21 {
        fill: url(#linear-gradient13);
      }

      .st22 {
        fill: url(#linear-gradient12);
      }

      .st23 {
        fill: url(#linear-gradient15);
      }

      .st24 {
        fill: url(#linear-gradient16);
      }

      .st25 {
        fill: url(#linear-gradient11);
      }

      .st26 {
        fill: url(#linear-gradient10);
      }

      .st27 {
        fill: url(#linear-gradient17);
      }

      .st28 {
        fill: url(#linear-gradient14);
      }

      .st29 {
        fill: url(#linear-gradient19);
      }

      .st30 {
        fill: url(#linear-gradient20);
      }

      .st31 {
        fill: url(#radial-gradient);
      }

      .st32 {
        fill: url(#linear-gradient);
      }

      .st33 {
        stroke: #fff;
        stroke-width: 3.95px;
      }

      .st33, .st1, .st34, .st35, .st36, .st37 {
        stroke-miterlimit: 10;
      }

      .st33, .st38 {
        fill: #243a78;
      }

      .st7, .st8 {
        fill: #ec297b;
        font-size: 24.99px;
      }

      .st39 {
        clip-path: url(#clippath-11);
      }

      .st40 {
        clip-path: url(#clippath-10);
      }

      .st1 {
        stroke: url(#linear-gradient2);
      }

      .st1, .st34, .st2 {
        stroke-width: 4.95px;
      }

      .st41 {
        filter: url(#drop-shadow-31);
      }

      .st42 {
        clip-path: url(#clippath-1);
      }

      .st43 {
        clip-path: url(#clippath-3);
      }

      .st44 {
        clip-path: url(#clippath-4);
      }

      .st45 {
        clip-path: url(#clippath-2);
      }

      .st46 {
        clip-path: url(#clippath-7);
      }

      .st47 {
        clip-path: url(#clippath-6);
      }

      .st48 {
        clip-path: url(#clippath-9);
      }

      .st49 {
        clip-path: url(#clippath-8);
      }

      .st50 {
        clip-path: url(#clippath-5);
      }

      .st51 {
        fill: #000b8c;
      }

      .st34 {
        stroke: url(#linear-gradient1);
      }

      .st34, .st9, .st35, .st36, .st52, .st53 {
        fill: #fff;
      }

      .st8 {
        letter-spacing: 0em;
      }

      .st9 {
        font-size: 30px;
      }

      .st35, .st36 {
        stroke: #2b388f;
        stroke-width: 2.63px;
      }

      .st35, .st36, .st52, .st53 {
        font-family: BerkshireSwash-Regular, 'Berkshire Swash';
      }

      .st35, .st52 {
        font-size: 34.66px;
      }

      .st2 {
        stroke: #ec297b;
        stroke-linejoin: round;
      }

      .st36, .st53 {
        font-size: 27.67px;
      }

      .st10 {
        letter-spacing: 0em;
      }

      .st37 {
        fill: url(#radial-gradient1);
        stroke: #000b8c;
        stroke-width: 1.6px;
      }

      .st54 {
        clip-path: url(#clippath);
      }
    </style>
    <radialGradient id="radial-gradient" cx="639.9" cy="384" fx="639.9" fy="384" r="527.76" gradientUnits="userSpaceOnUse">
      <stop offset="0" stop-color="#fff"/>
      <stop offset="1" stop-color="#edffff"/>
    </radialGradient>
    <filter id="drop-shadow-6" x="34.86" y="676.63" width="153.04" height="81.56" filterUnits="userSpaceOnUse">
      <feOffset dx="3.73" dy="3.73"/>
      <feGaussianBlur result="blur" stdDeviation="3.73"/>
      <feFlood flood-color="#231f20" flood-opacity=".4"/>
      <feComposite in2="blur" operator="in"/>
      <feComposite in="SourceGraphic"/>
    </filter>
    <linearGradient id="linear-gradient" x1="1747.18" y1="132.42" x2="583.64" y2="127.75" gradientUnits="userSpaceOnUse">
      <stop offset="0" stop-color="#fff" stop-opacity="0"/>
      <stop offset=".68" stop-color="#2b388f"/>
    </linearGradient>
    <linearGradient id="linear-gradient1" x1="525.85" y1="391.2" x2="530.8" y2="391.2" gradientUnits="userSpaceOnUse">
      <stop offset="0" stop-color="#1b75bb"/>
      <stop offset=".63" stop-color="#00a4e6"/>
      <stop offset=".81" stop-color="#0e8ace"/>
      <stop offset="1" stop-color="#1b75bb"/>
    </linearGradient>
    <linearGradient id="linear-gradient2" x1="416.33" y1="298.17" x2="644.04" y2="298.17" gradientUnits="userSpaceOnUse">
      <stop offset="0" stop-color="#00b4bd"/>
      <stop offset="1" stop-color="#4c81c2"/>
    </linearGradient>
    <clipPath id="clippath">
      <path class="st0" d="M563.96,211.82c-16.94,0-30.72,13.78-30.72,30.72s13.78,30.72,30.72,30.72h150.09c16.94,0,30.72-13.78,30.72-30.72s-13.78-30.72-30.72-30.72h-150.09Z"/>
    </clipPath>
    <linearGradient id="linear-gradient3" x1="1012.91" y1="-1.06" x2="1014.72" y2="-1.06" gradientTransform="translate(677.36 -36269.74) rotate(90) scale(36.01 -36.01)" xlink:href="#linear-gradient2"/>
    <clipPath id="clippath-1">
      <path class="st0" d="M563.96,215.46c-14.96,0-27.09,12.13-27.09,27.08s12.13,27.08,27.09,27.08h150.09c14.96,0,27.08-12.13,27.08-27.08s-12.12-27.08-27.08-27.08h-150.09Z"/>
    </clipPath>
    <linearGradient id="linear-gradient4" x1="1015.33" y1="-3.33" x2="1017.15" y2="-3.33" gradientTransform="translate(745.44 -32279.94) rotate(90) scale(32 -32)" gradientUnits="userSpaceOnUse">
      <stop offset="0" stop-color="#fff"/>
      <stop offset="1" stop-color="#e8ebf6"/>
    </linearGradient>
    <clipPath id="clippath-2">
      <path class="st0" d="M786.15,211.82c-16.94,0-30.72,13.78-30.72,30.72s13.78,30.72,30.72,30.72h150.09c16.94,0,30.72-13.78,30.72-30.72s-13.78-30.72-30.72-30.72h-150.09Z"/>
    </clipPath>
    <linearGradient id="linear-gradient5" x1="1012.91" y1="-.99" x2="1014.72" y2="-.99" gradientTransform="translate(896.96 -36269.74) rotate(90) scale(36.01 -36.01)" xlink:href="#linear-gradient2"/>
    <clipPath id="clippath-3">
      <path class="st0" d="M786.15,215.46c-14.96,0-27.08,12.13-27.08,27.08s12.12,27.08,27.08,27.08h150.09c14.96,0,27.08-12.13,27.08-27.08s-12.12-27.08-27.08-27.08h-150.09Z"/>
    </clipPath>
    <linearGradient id="linear-gradient6" y1="-3.24" y2="-3.24" gradientTransform="translate(965.03 -32279.94) rotate(90) scale(32 -32)" xlink:href="#linear-gradient4"/>
    <clipPath id="clippath-4">
      <path class="st0" d="M343.75,211.82c-16.94,0-30.72,13.78-30.72,30.72s13.78,30.72,30.72,30.72h150.1c16.94,0,30.72-13.78,30.72-30.72s-13.78-30.72-30.72-30.72h-150.1Z"/>
    </clipPath>
    <linearGradient id="linear-gradient7" x1="1012.91" y1="-1.11" x2="1014.72" y2="-1.11" gradientTransform="translate(458.89 -36269.74) rotate(90) scale(36.01 -36.01)" xlink:href="#linear-gradient2"/>
    <clipPath id="clippath-5">
      <path class="st0" d="M343.75,215.46c-14.96,0-27.08,12.13-27.08,27.08s12.12,27.08,27.08,27.08h150.1c14.96,0,27.08-12.13,27.08-27.08s-12.13-27.08-27.08-27.08h-150.1Z"/>
    </clipPath>
    <linearGradient id="linear-gradient8" y1="-3.38" y2="-3.38" gradientTransform="translate(526.97 -32279.94) rotate(90) scale(32 -32)" xlink:href="#linear-gradient4"/>
    <clipPath id="clippath-6">
      <path class="st0" d="M479.55,373.82c-30.39,0-55.12,24.73-55.12,55.12s24.73,55.13,55.12,55.13h333.46c30.39,0,55.12-24.73,55.12-55.13s-24.73-55.12-55.12-55.12h-333.46Z"/>
    </clipPath>
    <linearGradient id="linear-gradient9" x1="1015.89" y1="1.56" x2="1019.15" y2="1.56" gradientTransform="translate(592.37 -34734.53) rotate(90) scale(34.56 -34.56)" gradientUnits="userSpaceOnUse">
      <stop offset="0" stop-color="#fbb357"/>
      <stop offset=".99" stop-color="#f16f8c"/>
      <stop offset="1" stop-color="#f16f8c"/>
    </linearGradient>
    <clipPath id="clippath-7">
      <path class="st0" d="M479.55,380.35c-26.84,0-48.6,21.76-48.6,48.59s21.76,48.6,48.6,48.6h333.46c26.83,0,48.59-21.76,48.59-48.6s-21.76-48.59-48.59-48.59h-333.46Z"/>
    </clipPath>
    <linearGradient id="linear-gradient10" x1="1017.68" y1=".31" x2="1020.95" y2=".31" gradientTransform="translate(636.25 -32192.5) rotate(90) scale(32 -32)" xlink:href="#linear-gradient4"/>
    <clipPath id="clippath-8">
      <path class="st0" d="M432.3,592.27c-21.38,0-38.78,17.4-38.78,38.77s17.4,38.77,38.78,38.77h189.47c21.39,0,38.78-17.39,38.78-38.77s-17.4-38.77-38.78-38.77h-189.47Z"/>
    </clipPath>
    <linearGradient id="linear-gradient11" x1="1022.43" y1="-7.13" x2="1024.73" y2="-7.13" gradientTransform="translate(752.43 -31715.02) rotate(90) scale(31.6 -31.6)" gradientUnits="userSpaceOnUse">
      <stop offset="0" stop-color="#ee5b98"/>
      <stop offset="1" stop-color="#7b5ba5"/>
    </linearGradient>
    <clipPath id="clippath-9">
      <path class="st0" d="M432.3,596.86c-18.88,0-34.18,15.3-34.18,34.18s15.31,34.19,34.18,34.19h189.47c18.88,0,34.19-15.31,34.19-34.19s-15.31-34.18-34.19-34.18h-189.47Z"/>
    </clipPath>
    <linearGradient id="linear-gradient12" x1="1024.23" y1="-8.62" x2="1026.53" y2="-8.62" gradientTransform="translate(783.68 -29908.32) rotate(90) scale(29.78 -29.78)" xlink:href="#linear-gradient4"/>
    <clipPath id="clippath-10">
      <path class="st0" d="M703.34,592.27c-21.38,0-38.78,17.4-38.78,38.77s17.4,38.77,38.78,38.77h189.46c21.39,0,38.78-17.39,38.78-38.77s-17.39-38.77-38.78-38.77h-189.46Z"/>
    </clipPath>
    <linearGradient id="linear-gradient13" y1="-5.46" y2="-5.46" gradientTransform="translate(970.55 -31715.02) rotate(90) scale(31.6 -31.6)" xlink:href="#linear-gradient11"/>
    <clipPath id="clippath-11">
      <path class="st0" d="M703.34,596.86c-18.88,0-34.19,15.3-34.19,34.18s15.31,34.19,34.19,34.19h189.46c18.89,0,34.19-15.31,34.19-34.19s-15.3-34.18-34.19-34.18h-189.46Z"/>
    </clipPath>
    <linearGradient id="linear-gradient14" x1="1024.23" y1="-6.84" x2="1026.53" y2="-6.84" gradientTransform="translate(1001.68 -29908.32) rotate(90) scale(29.78 -29.78)" xlink:href="#linear-gradient4"/>
    <linearGradient id="linear-gradient15" x1="409.8" y1="269.7" x2="427.84" y2="269.7" xlink:href="#linear-gradient2"/>
    <linearGradient id="linear-gradient16" x1="518.66" y1="320.74" x2="536.7" y2="320.74" xlink:href="#linear-gradient2"/>
    <linearGradient id="linear-gradient17" x1="852.18" y1="269.7" x2="870.22" y2="269.7" xlink:href="#linear-gradient2"/>
    <linearGradient id="linear-gradient18" x1="632.54" y1="269.7" x2="650.58" y2="269.7" xlink:href="#linear-gradient2"/>
    <linearGradient id="linear-gradient19" x1="518.66" y1="593.38" x2="536.7" y2="593.38" gradientTransform="matrix(1,0,0,1,0,0)" xlink:href="#linear-gradient11"/>
    <linearGradient id="linear-gradient20" x1="788.92" y1="593.38" x2="806.96" y2="593.38" gradientTransform="matrix(1,0,0,1,0,0)" xlink:href="#linear-gradient11"/>
    <filter id="drop-shadow-31" x="1214.08" y="704.75" width="40.65" height="40.65" filterUnits="userSpaceOnUse">
      <feOffset dx="5.59" dy="5.59"/>
      <feGaussianBlur result="blur1" stdDeviation="3.99"/>
      <feFlood flood-color="#000" flood-opacity=".75"/>
      <feComposite in2="blur1" operator="in"/>
      <feComposite in="SourceGraphic"/>
    </filter>
    <radialGradient id="radial-gradient1" cx="1234.41" cy="725.08" fx="1234.41" fy="725.08" r="19.53" gradientUnits="userSpaceOnUse">
      <stop offset="0" stop-color="#fff"/>
      <stop offset="1" stop-color="#f1f1f1"/>
    </radialGradient>
  </defs>
  <g>
    <rect class="st31" x="-.1" width="1280" height="768"/>
    <g class="st11">
      <text class="st35" transform="translate(68.08 711.56) rotate(-.27)"><tspan x="0" y="0">Eternal </tspan></text>
      <g>
        <g>
          <path class="st33" d="M64.87,714.95c-.11.14-.15.32-.11.5l2.71,12.04c.06.27.3.46.58.46h.57c.9-2.06,1.4-4.34,1.39-6.73-.01-2.31-.5-4.51-1.36-6.51l-3.32.02c-.18,0-.35.08-.46.22Z"/>
          <path class="st33" d="M39.43,728.11l2.6-12.07c.04-.17,0-.36-.12-.5-.11-.14-.28-.22-.46-.22l-3.52.02c-.72,1.87-1.11,3.9-1.1,6.03.01,2.58.61,5.03,1.68,7.2h.35c.28,0,.52-.2.57-.47Z"/>
          <path class="st33" d="M65.61,724.41l-2.02-8.85c-.12-.54-.61-.92-1.16-.92-.02,0-.05,0-.07,0l-7.09.47c-.27.02-.52.13-.72.31l-.29.26-.31-.28c-.22-.2-.5-.3-.79-.3h-2.94s-5.96.04-5.96.04c-.55,0-1.03.39-1.15.93l-2.05,9.38c-.08.38.02.77.28,1.05.23.25.54.38.87.38.05,0,.1,0,.15-.01l2.8-.37,7.52,5.81.78.72c.23.21.52.31.81.31.08,0,.15,0,.23-.02.26-.02.51-.13.71-.32l5.35-5.04,2.64-2.44.93.27c.11.03.22.05.33.05.3,0,.58-.11.81-.32.3-.29.43-.71.34-1.12ZM60.98,725.96s-.04-.04-.06-.06l-5.08-4.65c-.24-.22-.61-.2-.83.04-.22.24-.2.61.04.83l5.08,4.64-.37.35-.83.78s0,0,0-.01c-.03-.04-.06-.08-.1-.11l-4.22-3.72c-.24-.22-.62-.19-.83.05-.22.24-.19.62.05.83l4.22,3.72s.02.01.02.02c0,0,.01,0,.02.01l-1.22,1.15s-.01-.02-.02-.04c-.03-.05-.07-.1-.12-.15l-3.46-3.05c-.24-.22-.62-.19-.83.05-.22.24-.19.62.05.83l3.46,3.05s.04.03.05.04c.02.01.03.02.05.03l-.56.52s-.02-.04-.03-.06c-.04-.08-.09-.16-.17-.22l-.84-.67c-.25-.2-.63-.16-.83.09l-.6.75-.03.04-.5-.39.07-.08.59-.74c.2-.26.16-.63-.09-.83l-.84-.67c-.26-.2-.63-.16-.83.09l-.48.61-.19.24-.5-.39.22-.28.6-.76c.2-.26.16-.63-.09-.83l-.84-.67c-.25-.2-.63-.16-.83.09l-.5.63-.35.44-.31-.24-.19-.15s.01,0,.02-.01c.05-.03.09-.07.13-.11l.26-.33.62-.78c.2-.26.16-.63-.09-.83l-.84-.67c-.26-.2-.63-.16-.83.09l-.51.65-.37.46s0,0,0,0c-.05.06-.08.13-.1.2l-.71-.55-.33.04-2.96.39,2.05-9.38,5.96-.03h2.94s.23.19.23.19l.1.09-1.84,2.31-.75.95s-.35.39-.32.84c.01.16.07.32.22.48.68.74,2.23.16,2.23.16l1.92-2.31s.25-.33.69-.5l6.79,6.1-1.44,1.36Z"/>
        </g>
        <path class="st33" d="M54.67,755.22l1.79-19.93c.03-.29-.06-.58-.24-.79-.18-.21-.43-.32-.68-.3l-3.96.49c-.72,3.13-.96,6.48-.62,9.93.41,4.19.68,8.08,2.49,11.47l.48-.05c.39-.04.69-.38.73-.83Z"/>
      </g>
      <text class="st36" transform="translate(65.89 747.4) rotate(-.27)"><tspan x="0" y="0">rust</tspan></text>
      <text class="st52" transform="translate(68.08 711.56) rotate(-.27)"><tspan x="0" y="0">Eternal </tspan></text>
      <g>
        <g>
          <path class="st38" d="M64.87,714.95c-.11.14-.15.32-.11.5l2.71,12.04c.06.27.3.46.58.46h.57c.9-2.06,1.4-4.34,1.39-6.73-.01-2.31-.5-4.51-1.36-6.51l-3.32.02c-.18,0-.35.08-.46.22Z"/>
          <path class="st38" d="M39.43,728.11l2.6-12.07c.04-.17,0-.36-.12-.5-.11-.14-.28-.22-.46-.22l-3.52.02c-.72,1.87-1.11,3.9-1.1,6.03.01,2.58.61,5.03,1.68,7.2h.35c.28,0,.52-.2.57-.47Z"/>
          <path class="st38" d="M65.61,724.41l-2.02-8.85c-.12-.54-.61-.92-1.16-.92-.02,0-.05,0-.07,0l-7.09.47c-.27.02-.52.13-.72.31l-.29.26-.31-.28c-.22-.2-.5-.3-.79-.3h-2.94s-5.96.04-5.96.04c-.55,0-1.03.39-1.15.93l-2.05,9.38c-.08.38.02.77.28,1.05.23.25.54.38.87.38.05,0,.1,0,.15-.01l2.8-.37,7.52,5.81.78.72c.23.21.52.31.81.31.08,0,.15,0,.23-.02.26-.02.51-.13.71-.32l5.35-5.04,2.64-2.44.93.27c.11.03.22.05.33.05.3,0,.58-.11.81-.32.3-.29.43-.71.34-1.12ZM60.98,725.96s-.04-.04-.06-.06l-5.08-4.65c-.24-.22-.61-.2-.83.04-.22.24-.2.61.04.83l5.08,4.64-.37.35-.83.78s0,0,0-.01c-.03-.04-.06-.08-.1-.11l-4.22-3.72c-.24-.22-.62-.19-.83.05-.22.24-.19.62.05.83l4.22,3.72s.02.01.02.02c0,0,.01,0,.02.01l-1.22,1.15s-.01-.02-.02-.04c-.03-.05-.07-.1-.12-.15l-3.46-3.05c-.24-.22-.62-.19-.83.05-.22.24-.19.62.05.83l3.46,3.05s.04.03.05.04c.02.01.03.02.05.03l-.56.52s-.02-.04-.03-.06c-.04-.08-.09-.16-.17-.22l-.84-.67c-.25-.2-.63-.16-.83.09l-.6.75-.03.04-.5-.39.07-.08.59-.74c.2-.26.16-.63-.09-.83l-.84-.67c-.26-.2-.63-.16-.83.09l-.48.61-.19.24-.5-.39.22-.28.6-.76c.2-.26.16-.63-.09-.83l-.84-.67c-.25-.2-.63-.16-.83.09l-.5.63-.35.44-.31-.24-.19-.15s.01,0,.02-.01c.05-.03.09-.07.13-.11l.26-.33.62-.78c.2-.26.16-.63-.09-.83l-.84-.67c-.26-.2-.63-.16-.83.09l-.51.65-.37.46s0,0,0,0c-.05.06-.08.13-.1.2l-.71-.55-.33.04-2.96.39,2.05-9.38,5.96-.03h2.94s.23.19.23.19l.1.09-1.84,2.31-.75.95s-.35.39-.32.84c.01.16.07.32.22.48.68.74,2.23.16,2.23.16l1.92-2.31s.25-.33.69-.5l6.79,6.1-1.44,1.36Z"/>
        </g>
        <path class="st38" d="M54.67,755.22l1.79-19.93c.03-.29-.06-.58-.24-.79-.18-.21-.43-.32-.68-.3l-3.96.49c-.72,3.13-.96,6.48-.62,9.93.41,4.19.68,8.08,2.49,11.47l.48-.05c.39-.04.69-.38.73-.83Z"/>
      </g>
      <text class="st53" transform="translate(65.89 747.4) rotate(-.27)"><tspan x="0" y="0">rust</tspan></text>
    </g>
    <g>
      <path class="st19" d="M1279.27,723.58H250.24c-1.93,0-1.93,3,0,3h1029.03c1.93,0,1.93-3,0-3h0Z"/>
      <circle class="st19" cx="238.49" cy="725.53" r="4.9"/>
      <circle class="st19" cx="224.53" cy="725.53" r="4.9"/>
      <circle class="st19" cx="210.58" cy="725.53" r="4.9"/>
    </g>
    <g>
      <path class="st19" d="M-.1,55.81h1036.47c1.93,0,1.93-3,0-3H-.1c-1.93,0-1.93,3,0,3H-.1Z"/>
      <circle class="st19" cx="1048.12" cy="53.86" r="4.9"/>
      <circle class="st19" cx="1062.07" cy="53.86" r="4.9"/>
      <circle class="st19" cx="1076.03" cy="53.86" r="4.9"/>
    </g>
    <g>
      <path class="st38" d="M1154.28,56.45c-.16-4.27-.32-9.38-.32-14.6h-.11c-1.16,4.53-2.64,9.6-4.01,13.76l-4.32,13.87h-6.27l-3.79-13.71c-1.16-4.22-2.32-9.23-3.22-13.92h-.1c-.16,4.8-.37,10.28-.58,14.71l-.69,13.5h-7.44l2.27-35.53h10.7l3.48,11.92c1.16,4.06,2.21,8.49,3,12.65h.21c.95-4.11,2.16-8.75,3.37-12.76l3.74-11.81h10.54l1.9,35.53h-7.8l-.58-13.6Z"/>
      <path class="st38" d="M1170.73,40.9c-2.69,0-4.43-1.9-4.43-4.27s1.79-4.27,4.53-4.27,4.43,1.85,4.48,4.27c0,2.37-1.74,4.27-4.53,4.27h-.05ZM1166.78,44.27h8.01v25.78h-8.01v-25.78Z"/>
      <path class="st38" d="M1185.28,44.27l2.53,4.32c.74,1.32,1.42,2.58,2.11,3.85h.11c.69-1.42,1.32-2.69,2-4.01l2.27-4.16h8.7l-8.49,12.28,8.59,13.5h-9.07l-2.58-4.64c-.74-1.27-1.42-2.58-2-3.9h-.16c-.63,1.37-1.32,2.64-1.95,3.9l-2.42,4.64h-8.81l8.75-13.13-8.54-12.65h8.96Z"/>
      <path class="st38" d="M1208.38,40.9c-2.69,0-4.43-1.9-4.43-4.27s1.79-4.27,4.53-4.27,4.43,1.85,4.48,4.27c0,2.37-1.74,4.27-4.53,4.27h-.05ZM1204.42,44.27h8.01v25.78h-8.01v-25.78Z"/>
      <path class="st38" d="M1217.76,70.05v-19.87h-3.43v-5.9h3.43v-1c0-3.11.95-6.54,3.22-8.65,2.05-1.9,4.8-2.58,7.17-2.58,1.74,0,3.11.26,4.22.53l-.32,6.17c-.69-.21-1.53-.37-2.58-.37-2.64,0-3.74,2.06-3.74,4.59v1.32h5.17v5.9h-5.11v19.87h-8.01Z"/>
      <path class="st38" d="M1186.9,80.91c-.37.19-1.13.38-2.1.38-2.25,0-3.93-1.42-3.93-4.04s1.69-4.19,4.16-4.19c.98,0,1.62.21,1.89.35l-.26.84c-.38-.19-.94-.33-1.6-.33-1.87,0-3.11,1.2-3.11,3.29,0,1.96,1.12,3.21,3.05,3.21.64,0,1.28-.13,1.69-.33l.2.83Z"/>
      <path class="st38" d="M1189.21,78.47c.02,1.41.91,1.99,1.95,1.99.75,0,1.21-.13,1.59-.29l.19.73c-.37.16-1,.37-1.92.37-1.75,0-2.81-1.17-2.81-2.88s1.03-3.1,2.7-3.1c1.87,0,2.35,1.64,2.35,2.7,0,.21,0,.38-.03.5h-4.01ZM1192.25,77.73c0-.65-.27-1.69-1.43-1.69-1.06,0-1.51.97-1.6,1.69h3.03Z"/>
      <path class="st38" d="M1195.23,81.16v-4.93h-.79v-.79h.79v-.27c0-.8.19-1.54.68-2,.39-.38.91-.53,1.38-.53.38,0,.69.08.89.16l-.13.81c-.17-.07-.37-.13-.67-.13-.88,0-1.11.78-1.11,1.66v.31h1.38v.79h-1.37v4.93h-1.04Z"/>
      <path class="st38" d="M1199.67,74.38c-.39,0-.65-.31-.65-.67s.27-.66.67-.66.66.3.66.66-.26.67-.67.67h-.01ZM1199.18,75.43h1.04v5.72h-1.04v-5.72Z"/>
      <path class="st38" d="M1203.01,75.43l.82,1.22c.21.33.39.62.58.94h.03c.19-.33.38-.63.58-.94l.79-1.22h1.14l-1.95,2.77,2,2.96h-1.18l-.84-1.29c-.22-.33-.41-.65-.61-.99h-.02c-.19.34-.39.65-.6.99l-.83,1.29h-1.15l2.03-2.92-1.94-2.8h1.16Z"/>
      <path class="st38" d="M1209.08,74.38c-.39,0-.65-.31-.65-.67s.27-.66.68-.66.66.3.66.66-.26.67-.68.67h-.01ZM1208.59,75.43h1.04v5.72h-1.04v-5.72Z"/>
      <path class="st38" d="M1211.93,76.98c0-.6-.02-1.07-.05-1.55h.91l.05.92h.03c.32-.54.85-1.05,1.81-1.05.77,0,1.36.47,1.61,1.15h.02c.18-.33.41-.57.65-.74.34-.26.71-.4,1.25-.4.77,0,1.89.5,1.89,2.48v3.37h-1.02v-3.24c0-1.11-.42-1.76-1.24-1.76-.6,0-1.05.44-1.24.93-.05.15-.08.35-.08.52v3.55h-1.02v-3.43c0-.92-.4-1.57-1.2-1.57-.64,0-1.12.52-1.29,1.04-.06.15-.08.33-.08.51v3.45h-1.02v-4.18Z"/>
      <path class="st38" d="M1222.98,78.47c.02,1.41.91,1.99,1.95,1.99.74,0,1.21-.13,1.58-.29l.19.73c-.37.16-1,.37-1.92.37-1.75,0-2.81-1.17-2.81-2.88s1.03-3.1,2.7-3.1c1.87,0,2.36,1.64,2.36,2.7,0,.21-.01.38-.04.5h-4.01ZM1226.02,77.73c0-.65-.27-1.69-1.43-1.69-1.06,0-1.51.97-1.6,1.69h3.03Z"/>
      <path class="st38" d="M1241.24,32.72c2.32,0,4.17,1.89,4.17,4.21s-1.85,4.23-4.19,4.23-4.21-1.87-4.21-4.23,1.89-4.21,4.21-4.21h.02ZM1241.2,33.56c-1.76,0-3.18,1.52-3.18,3.39s1.42,3.37,3.2,3.37c1.78.02,3.22-1.48,3.22-3.37s-1.44-3.39-3.22-3.39h-.02ZM1240.49,39.38h-.99v-4.68c.37-.06.79-.13,1.5-.13.8,0,1.29.13,1.61.37.26.21.41.52.41,1.01,0,.56-.39.95-.9,1.09v.04c.41.07.67.45.75,1.14.09.73.19,1.01.26,1.16h-1.03c-.11-.17-.19-.58-.28-1.22-.07-.51-.37-.71-.88-.71h-.45v1.93ZM1240.49,36.69h.47c.58,0,1.03-.19,1.03-.67,0-.39-.28-.69-.95-.69-.24,0-.41,0-.54.02v1.35Z"/>
    </g>
  </g>
  <rect class="st32" x=".86" y="97.49" width="1280.38" height="60.99"/>
  <g>
    <text class="st9" transform="translate(75.13 134.98)"><tspan x="0" y="0">Cefixime is effective against acute Infectious Diarrhea in adults</tspan></text>
    <text class="st9" transform="translate(909.13 124.99) scale(.58)"><tspan x="0" y="0">17</tspan></text>
  </g>
  <g>
    <polyline class="st2" points="798.59 593.38 798.59 320.74 861.2 320.74 861.2 269.7"/>
    <line class="st2" x1="528.33" y1="465.13" x2="528.33" y2="593.38"/>
    <line class="st34" x1="528.33" y1="327.07" x2="528.33" y2="455.32"/>
    <polyline class="st1" points="418.8 273.12 418.8 320.74 641.56 320.74 641.56 273.12"/>
    <g class="st54">
      <rect class="st13" x="533.24" y="211.82" width="211.54" height="61.44"/>
    </g>
    <g class="st42">
      <rect class="st18" x="536.88" y="215.46" width="204.26" height="54.17"/>
    </g>
    <g class="st45">
      <rect class="st17" x="755.43" y="211.82" width="211.53" height="61.44"/>
    </g>
    <g class="st43">
      <rect class="st14" x="759.07" y="215.46" width="204.26" height="54.17"/>
    </g>
    <g class="st44">
      <rect class="st16" x="313.03" y="211.82" width="211.53" height="61.44"/>
    </g>
    <g class="st50">
      <rect class="st15" x="316.67" y="215.46" width="204.26" height="54.17"/>
    </g>
    <g class="st47">
      <rect class="st12" x="424.43" y="373.82" width="443.7" height="110.25"/>
    </g>
    <g class="st46">
      <rect class="st26" x="430.95" y="380.35" width="430.65" height="97.19"/>
    </g>
    <g class="st49">
      <rect class="st25" x="393.52" y="592.27" width="267.02" height="77.55"/>
    </g>
    <g class="st48">
      <rect class="st22" x="398.11" y="596.86" width="257.84" height="68.37"/>
    </g>
    <g class="st40">
      <rect class="st21" x="664.56" y="592.27" width="267.02" height="77.55"/>
    </g>
    <g class="st39">
      <rect class="st28" x="669.15" y="596.86" width="257.84" height="68.37"/>
    </g>
    <text class="st3" transform="translate(797.94 238.76)"><tspan x="0" y="0">Salmonella enterica</tspan><tspan x="0" y="17.46">or Typhi or Paratyphi*</tspan></text>
    <text class="st6" transform="translate(611.3 247.49)"><tspan x="0" y="0">Shigella**</tspan></text>
    <text class="st10" transform="translate(328.11 247.49)"><tspan x="0" y="0">Non-Typhoidal Salmonella* </tspan></text>
    <text class="st5" transform="translate(486.82 435.65)"><tspan x="0" y="0">Cefixime 400 mg per day</tspan></text>
    <text class="st7" transform="translate(471.99 636.01)"><tspan x="0" y="0">For 5 days</tspan></text>
    <text class="st8" transform="translate(747.39 636.01)"><tspan x="0" y="0">For 7 days </tspan></text>
    <path class="st23" d="M427.84,269.7c0,4.98-4.04,9.02-9.02,9.02s-9.02-4.04-9.02-9.02,4.04-9.02,9.02-9.02,9.02,4.04,9.02,9.02Z"/>
    <path class="st24" d="M536.7,320.74c0,4.98-4.04,9.02-9.02,9.02s-9.02-4.04-9.02-9.02,4.04-9.02,9.02-9.02,9.02,4.04,9.02,9.02Z"/>
    <path class="st27" d="M870.22,269.7c0,4.98-4.04,9.02-9.02,9.02s-9.02-4.04-9.02-9.02,4.04-9.02,9.02-9.02,9.02,4.04,9.02,9.02Z"/>
    <path class="st20" d="M650.58,269.7c0,4.98-4.04,9.02-9.02,9.02s-9.02-4.04-9.02-9.02,4.04-9.02,9.02-9.02,9.02,4.04,9.02,9.02Z"/>
    <path class="st29" d="M536.7,593.38c0,4.98-4.04,9.02-9.02,9.02s-9.02-4.04-9.02-9.02,4.04-9.02,9.02-9.02,9.02,4.04,9.02,9.02Z"/>
    <path class="st30" d="M806.96,593.38c0,4.98-4.04,9.02-9.02,9.02s-9.02-4.04-9.02-9.02,4.04-9.02,9.02-9.02,9.02,4.04,9.02,9.02Z"/>
  </g>
  <text class="st4" transform="translate(251.04 704.01)"><tspan x="0" y="0">*Alternative choice</tspan><tspan x="0" y="10.8">**Second line if fluoroquinolone allergy</tspan></text>
  <g class="st41">
    <rect class="st37" x="1214.88" y="705.55" width="39.06" height="39.06" rx="8.38" ry="8.38"/>
    <path class="st51" d="M1248.89,722.61l-4.97-4.97v-6.89c0-.24-.19-.43-.43-.43h-3.07c-.24,0-.43.19-.43.43v2.96l-4.53-4.53c-.58-.57-1.51-.57-2.08,0l-13.45,13.44c-.87.87-.35,2.36.87,2.5l2.17.25v14.55c0,.81.66,1.47,1.47,1.47h6.34v-10.56c0-.71.57-1.28,1.28-1.28h4.7c.71,0,1.28.57,1.28,1.28v10.56h6.34c.81,0,1.47-.66,1.47-1.47v-14.56l2.17-.26c1.22-.14,1.74-1.64.87-2.5Z"/>
  </g>
</svg>