<?xml version="1.0" encoding="UTF-8"?>
<svg id="Layer_1" xmlns="http://www.w3.org/2000/svg" xmlns:xlink="http://www.w3.org/1999/xlink" version="1.1" viewBox="0 0 1280 768">
  <!-- Generator: Adobe Illustrator 30.0.0, SVG Export Plug-In . SVG Version: 2.1.1 Build 123)  -->
  <defs>
    <style>
      .st0 {
        filter: url(#drop-shadow-6);
      }

      .st1 {
        fill: url(#linear-gradient2);
      }

      .st2 {
        fill: url(#linear-gradient1);
      }

      .st3 {
        fill: url(#linear-gradient3);
      }

      .st4 {
        fill: url(#linear-gradient6);
      }

      .st5 {
        fill: url(#linear-gradient5);
      }

      .st6 {
        fill: url(#linear-gradient4);
      }

      .st7 {
        fill: url(#linear-gradient9);
      }

      .st7, .st8, .st9 {
        opacity: .7;
      }

      .st8 {
        fill: url(#linear-gradient8);
      }

      .st9 {
        fill: url(#linear-gradient7);
      }

      .st10 {
        fill: #2b388f;
      }

      .st11 {
        font-size: 13.97px;
      }

      .st11, .st12, .st13, .st14, .st15, .st16, .st17, .st18, .st19, .st20 {
        fill: #fff;
      }

      .st11, .st13, .st14 {
        font-family: Arial-BoldMT, Arial;
      }

      .st11, .st13, .st14, .st15 {
        font-weight: 700;
      }

      .st21 {
        fill: url(#radial-gradient);
      }

      .st22 {
        fill: url(#linear-gradient);
      }

      .st23 {
        stroke-width: 3.95px;
      }

      .st23, .st24 {
        stroke: #fff;
      }

      .st23, .st16, .st17, .st25 {
        stroke-miterlimit: 10;
      }

      .st23, .st26 {
        fill: #243a78;
      }

      .st24 {
        fill: none;
        stroke-linejoin: round;
        stroke-width: 1.55px;
      }

      .st27 {
        filter: url(#drop-shadow-32);
      }

      .st28 {
        fill: #000b8c;
      }

      .st13 {
        font-size: 17.77px;
      }

      .st14 {
        font-size: 17.77px;
      }

      .st15 {
        font-family: MyriadPro-Bold, 'Myriad Pro';
        font-size: 30px;
      }

      .st16, .st17 {
        stroke: #2b388f;
        stroke-width: 2.63px;
      }

      .st16, .st17, .st18, .st19 {
        font-family: BerkshireSwash-Regular, 'Berkshire Swash';
      }

      .st16, .st18 {
        font-size: 34.66px;
      }

      .st17, .st19 {
        font-size: 27.67px;
      }

      .st29 {
        letter-spacing: -.02em;
      }

      .st30 {
        letter-spacing: -.06em;
      }

      .st25 {
        fill: url(#radial-gradient1);
        stroke: #000b8c;
        stroke-width: 1.6px;
      }

      .st20 {
        font-family: ArialMT, Arial;
        font-size: 15.41px;
      }

      .st31 {
        letter-spacing: .04em;
      }
    </style>
    <radialGradient id="radial-gradient" cx="639.33" cy="384" fx="639.33" fy="384" r="527.76" gradientUnits="userSpaceOnUse">
      <stop offset="0" stop-color="#fff"/>
      <stop offset="1" stop-color="#edffff"/>
    </radialGradient>
    <filter id="drop-shadow-6" x="34.29" y="676.63" width="153.04" height="81.56" filterUnits="userSpaceOnUse">
      <feOffset dx="3.73" dy="3.73"/>
      <feGaussianBlur result="blur" stdDeviation="3.73"/>
      <feFlood flood-color="#231f20" flood-opacity=".4"/>
      <feComposite in2="blur" operator="in"/>
      <feComposite in="SourceGraphic"/>
    </filter>
    <linearGradient id="linear-gradient" x1="1746.62" y1="132.42" x2="583.07" y2="127.75" gradientUnits="userSpaceOnUse">
      <stop offset="0" stop-color="#fff" stop-opacity="0"/>
      <stop offset=".68" stop-color="#2b388f"/>
    </linearGradient>
    <linearGradient id="linear-gradient1" x1="-303.06" y1="13.94" x2="-301.95" y2="13.94" gradientTransform="translate(67154.44 3234.28) scale(219.5 -219.5)" gradientUnits="userSpaceOnUse">
      <stop offset="0" stop-color="#6f58a4"/>
      <stop offset="1" stop-color="#2b388f"/>
    </linearGradient>
    <linearGradient id="linear-gradient2" x1="-308.94" y1="20.07" x2="-307.83" y2="20.07" gradientTransform="translate(-67022.94 -4220.03) rotate(-180) scale(219 -218.99)" xlink:href="#linear-gradient1"/>
    <linearGradient id="linear-gradient3" x1="331.75" y1="197.35" x2="948.25" y2="197.35" gradientUnits="userSpaceOnUse">
      <stop offset="0" stop-color="#1b75bb"/>
      <stop offset=".63" stop-color="#00a4e6"/>
      <stop offset=".81" stop-color="#0e8ace"/>
      <stop offset="1" stop-color="#1b75bb"/>
    </linearGradient>
    <linearGradient id="linear-gradient4" y1="362.89" y2="362.89" xlink:href="#linear-gradient3"/>
    <linearGradient id="linear-gradient5" y1="502.24" y2="502.24" xlink:href="#linear-gradient3"/>
    <linearGradient id="linear-gradient6" y1="649.1" y2="649.1" xlink:href="#linear-gradient3"/>
    <linearGradient id="linear-gradient7" x1="331.75" y1="274.42" x2="948.25" y2="274.42" gradientUnits="userSpaceOnUse">
      <stop offset="0" stop-color="#ee5b98"/>
      <stop offset="1" stop-color="#7b5ba5"/>
    </linearGradient>
    <linearGradient id="linear-gradient8" y1="433.72" y2="433.72" xlink:href="#linear-gradient7"/>
    <linearGradient id="linear-gradient9" y1="572.55" y2="572.55" xlink:href="#linear-gradient7"/>
    <filter id="drop-shadow-32" x="1214.08" y="704.75" width="40.65" height="40.65" filterUnits="userSpaceOnUse">
      <feOffset dx="5.59" dy="5.59"/>
      <feGaussianBlur result="blur1" stdDeviation="3.99"/>
      <feFlood flood-color="#000" flood-opacity=".75"/>
      <feComposite in2="blur1" operator="in"/>
      <feComposite in="SourceGraphic"/>
    </filter>
    <radialGradient id="radial-gradient1" cx="1234.41" cy="725.08" fx="1234.41" fy="725.08" r="19.53" gradientUnits="userSpaceOnUse">
      <stop offset="0" stop-color="#fff"/>
      <stop offset="1" stop-color="#f1f1f1"/>
    </radialGradient>
  </defs>
  <g>
    <rect class="st21" x="-.67" width="1280" height="768"/>
    <g class="st0">
      <text class="st16" transform="translate(67.52 711.56) rotate(-.27)"><tspan x="0" y="0">Eternal </tspan></text>
      <g>
        <g>
          <path class="st23" d="M64.3,714.95c-.11.14-.15.32-.11.5l2.71,12.04c.06.27.3.46.58.46h.57c.9-2.06,1.4-4.34,1.39-6.73-.01-2.31-.5-4.51-1.36-6.51l-3.32.02c-.18,0-.35.08-.46.22Z"/>
          <path class="st23" d="M38.87,728.11l2.6-12.07c.04-.17,0-.36-.12-.5-.11-.14-.28-.22-.46-.22l-3.52.02c-.72,1.87-1.11,3.9-1.1,6.03.01,2.58.61,5.03,1.68,7.2h.35c.28,0,.52-.2.57-.47Z"/>
          <path class="st23" d="M65.04,724.41l-2.02-8.85c-.12-.54-.61-.92-1.16-.92-.02,0-.05,0-.07,0l-7.09.47c-.27.02-.52.13-.72.31l-.29.26-.31-.28c-.22-.2-.5-.3-.79-.3h-2.94s-5.96.04-5.96.04c-.55,0-1.03.39-1.15.93l-2.05,9.38c-.08.38.02.77.28,1.05.23.25.54.38.87.38.05,0,.1,0,.15-.01l2.8-.37,7.52,5.81.78.72c.23.21.52.31.81.31.08,0,.15,0,.23-.02.26-.02.51-.13.71-.32l5.35-5.04,2.64-2.44.93.27c.11.03.22.05.33.05.3,0,.58-.11.81-.32.3-.29.43-.71.34-1.12ZM60.41,725.96s-.04-.04-.06-.06l-5.08-4.65c-.24-.22-.61-.2-.83.04-.22.24-.2.61.04.83l5.08,4.64-.37.35-.83.78s0,0,0-.01c-.03-.04-.06-.08-.1-.11l-4.22-3.72c-.24-.22-.62-.19-.83.05-.22.24-.19.62.05.83l4.22,3.72s.02.01.02.02c0,0,.01,0,.02.01l-1.22,1.15s-.01-.02-.02-.04c-.03-.05-.07-.1-.12-.15l-3.46-3.05c-.24-.22-.62-.19-.83.05-.22.24-.19.62.05.83l3.46,3.05s.04.03.05.04c.02.01.03.02.05.03l-.56.52s-.02-.04-.03-.06c-.04-.08-.09-.16-.17-.22l-.84-.67c-.25-.2-.63-.16-.83.09l-.6.75-.03.04-.5-.39.07-.08.59-.74c.2-.26.16-.63-.09-.83l-.84-.67c-.26-.2-.63-.16-.83.09l-.48.61-.19.24-.5-.39.22-.28.6-.76c.2-.26.16-.63-.09-.83l-.84-.67c-.25-.2-.63-.16-.83.09l-.5.63-.35.44-.31-.24-.19-.15s.01,0,.02-.01c.05-.03.09-.07.13-.11l.26-.33.62-.78c.2-.26.16-.63-.09-.83l-.84-.67c-.26-.2-.63-.16-.83.09l-.51.65-.37.46s0,0,0,0c-.05.06-.08.13-.1.2l-.71-.55-.33.04-2.96.39,2.05-9.38,5.96-.03h2.94s.23.19.23.19l.1.09-1.84,2.31-.75.95s-.35.39-.32.84c.01.16.07.32.22.48.68.74,2.23.16,2.23.16l1.92-2.31s.25-.33.69-.5l6.79,6.1-1.44,1.36Z"/>
        </g>
        <path class="st23" d="M54.1,755.22l1.79-19.93c.03-.29-.06-.58-.24-.79-.18-.21-.43-.32-.68-.3l-3.96.49c-.72,3.13-.96,6.48-.62,9.93.41,4.19.68,8.08,2.49,11.47l.48-.05c.39-.04.69-.38.73-.83Z"/>
      </g>
      <text class="st17" transform="translate(65.32 747.4) rotate(-.27)"><tspan x="0" y="0">rust</tspan></text>
      <text class="st18" transform="translate(67.52 711.56) rotate(-.27)"><tspan x="0" y="0">Eternal </tspan></text>
      <g>
        <g>
          <path class="st26" d="M64.3,714.95c-.11.14-.15.32-.11.5l2.71,12.04c.06.27.3.46.58.46h.57c.9-2.06,1.4-4.34,1.39-6.73-.01-2.31-.5-4.51-1.36-6.51l-3.32.02c-.18,0-.35.08-.46.22Z"/>
          <path class="st26" d="M38.87,728.11l2.6-12.07c.04-.17,0-.36-.12-.5-.11-.14-.28-.22-.46-.22l-3.52.02c-.72,1.87-1.11,3.9-1.1,6.03.01,2.58.61,5.03,1.68,7.2h.35c.28,0,.52-.2.57-.47Z"/>
          <path class="st26" d="M65.04,724.41l-2.02-8.85c-.12-.54-.61-.92-1.16-.92-.02,0-.05,0-.07,0l-7.09.47c-.27.02-.52.13-.72.31l-.29.26-.31-.28c-.22-.2-.5-.3-.79-.3h-2.94s-5.96.04-5.96.04c-.55,0-1.03.39-1.15.93l-2.05,9.38c-.08.38.02.77.28,1.05.23.25.54.38.87.38.05,0,.1,0,.15-.01l2.8-.37,7.52,5.81.78.72c.23.21.52.31.81.31.08,0,.15,0,.23-.02.26-.02.51-.13.71-.32l5.35-5.04,2.64-2.44.93.27c.11.03.22.05.33.05.3,0,.58-.11.81-.32.3-.29.43-.71.34-1.12ZM60.41,725.96s-.04-.04-.06-.06l-5.08-4.65c-.24-.22-.61-.2-.83.04-.22.24-.2.61.04.83l5.08,4.64-.37.35-.83.78s0,0,0-.01c-.03-.04-.06-.08-.1-.11l-4.22-3.72c-.24-.22-.62-.19-.83.05-.22.24-.19.62.05.83l4.22,3.72s.02.01.02.02c0,0,.01,0,.02.01l-1.22,1.15s-.01-.02-.02-.04c-.03-.05-.07-.1-.12-.15l-3.46-3.05c-.24-.22-.62-.19-.83.05-.22.24-.19.62.05.83l3.46,3.05s.04.03.05.04c.02.01.03.02.05.03l-.56.52s-.02-.04-.03-.06c-.04-.08-.09-.16-.17-.22l-.84-.67c-.25-.2-.63-.16-.83.09l-.6.75-.03.04-.5-.39.07-.08.59-.74c.2-.26.16-.63-.09-.83l-.84-.67c-.26-.2-.63-.16-.83.09l-.48.61-.19.24-.5-.39.22-.28.6-.76c.2-.26.16-.63-.09-.83l-.84-.67c-.25-.2-.63-.16-.83.09l-.5.63-.35.44-.31-.24-.19-.15s.01,0,.02-.01c.05-.03.09-.07.13-.11l.26-.33.62-.78c.2-.26.16-.63-.09-.83l-.84-.67c-.26-.2-.63-.16-.83.09l-.51.65-.37.46s0,0,0,0c-.05.06-.08.13-.1.2l-.71-.55-.33.04-2.96.39,2.05-9.38,5.96-.03h2.94s.23.19.23.19l.1.09-1.84,2.31-.75.95s-.35.39-.32.84c.01.16.07.32.22.48.68.74,2.23.16,2.23.16l1.92-2.31s.25-.33.69-.5l6.79,6.1-1.44,1.36Z"/>
        </g>
        <path class="st26" d="M54.1,755.22l1.79-19.93c.03-.29-.06-.58-.24-.79-.18-.21-.43-.32-.68-.3l-3.96.49c-.72,3.13-.96,6.48-.62,9.93.41,4.19.68,8.08,2.49,11.47l.48-.05c.39-.04.69-.38.73-.83Z"/>
      </g>
      <text class="st19" transform="translate(65.32 747.4) rotate(-.27)"><tspan x="0" y="0">rust</tspan></text>
    </g>
    <g>
      <path class="st10" d="M1278.71,723.58H249.68c-1.93,0-1.93,3,0,3h1029.03c1.93,0,1.93-3,0-3h0Z"/>
      <circle class="st10" cx="237.92" cy="725.53" r="4.9"/>
      <circle class="st10" cx="223.97" cy="725.53" r="4.9"/>
      <circle class="st10" cx="210.01" cy="725.53" r="4.9"/>
    </g>
    <g>
      <path class="st10" d="M-.67,55.81h1036.47c1.93,0,1.93-3,0-3H-.67c-1.93,0-1.93,3,0,3h0Z"/>
      <circle class="st10" cx="1047.55" cy="53.86" r="4.9"/>
      <circle class="st10" cx="1061.5" cy="53.86" r="4.9"/>
      <circle class="st10" cx="1075.46" cy="53.86" r="4.9"/>
    </g>
    <g>
      <path class="st26" d="M1153.71,56.45c-.16-4.27-.32-9.38-.32-14.6h-.11c-1.16,4.53-2.64,9.6-4.01,13.76l-4.32,13.87h-6.27l-3.79-13.71c-1.16-4.22-2.32-9.23-3.22-13.92h-.1c-.16,4.8-.37,10.28-.58,14.71l-.69,13.5h-7.44l2.27-35.53h10.7l3.48,11.92c1.16,4.06,2.21,8.49,3,12.65h.21c.95-4.11,2.16-8.75,3.37-12.76l3.74-11.81h10.54l1.9,35.53h-7.8l-.58-13.6Z"/>
      <path class="st26" d="M1170.16,40.9c-2.69,0-4.43-1.9-4.43-4.27s1.79-4.27,4.53-4.27,4.43,1.85,4.48,4.27c0,2.37-1.74,4.27-4.53,4.27h-.05ZM1166.21,44.27h8.01v25.78h-8.01v-25.78Z"/>
      <path class="st26" d="M1184.71,44.27l2.53,4.32c.74,1.32,1.42,2.58,2.11,3.85h.11c.69-1.42,1.32-2.69,2-4.01l2.27-4.16h8.7l-8.49,12.28,8.59,13.5h-9.07l-2.58-4.64c-.74-1.27-1.42-2.58-2-3.9h-.16c-.63,1.37-1.32,2.64-1.95,3.9l-2.42,4.64h-8.81l8.75-13.13-8.54-12.65h8.96Z"/>
      <path class="st26" d="M1207.81,40.9c-2.69,0-4.43-1.9-4.43-4.27s1.79-4.27,4.53-4.27,4.43,1.85,4.48,4.27c0,2.37-1.74,4.27-4.53,4.27h-.05ZM1203.86,44.27h8.01v25.78h-8.01v-25.78Z"/>
      <path class="st26" d="M1217.19,70.05v-19.87h-3.43v-5.9h3.43v-1c0-3.11.95-6.54,3.22-8.65,2.05-1.9,4.8-2.58,7.17-2.58,1.74,0,3.11.26,4.22.53l-.32,6.17c-.69-.21-1.53-.37-2.58-.37-2.64,0-3.74,2.06-3.74,4.59v1.32h5.17v5.9h-5.11v19.87h-8.01Z"/>
      <path class="st26" d="M1186.33,80.91c-.37.19-1.13.38-2.1.38-2.25,0-3.93-1.42-3.93-4.04s1.69-4.19,4.16-4.19c.98,0,1.62.21,1.89.35l-.26.84c-.38-.19-.94-.33-1.6-.33-1.87,0-3.11,1.2-3.11,3.29,0,1.96,1.12,3.21,3.05,3.21.64,0,1.28-.13,1.69-.33l.2.83Z"/>
      <path class="st26" d="M1188.64,78.47c.02,1.41.91,1.99,1.95,1.99.75,0,1.21-.13,1.59-.29l.19.73c-.37.16-1,.37-1.92.37-1.75,0-2.81-1.17-2.81-2.88s1.03-3.1,2.7-3.1c1.87,0,2.35,1.64,2.35,2.7,0,.21,0,.38-.03.5h-4.01ZM1191.68,77.73c0-.65-.27-1.69-1.43-1.69-1.06,0-1.51.97-1.6,1.69h3.03Z"/>
      <path class="st26" d="M1194.66,81.16v-4.93h-.79v-.79h.79v-.27c0-.8.19-1.54.68-2,.39-.38.91-.53,1.38-.53.38,0,.69.08.89.16l-.13.81c-.17-.07-.37-.13-.67-.13-.88,0-1.11.78-1.11,1.66v.31h1.38v.79h-1.37v4.93h-1.04Z"/>
      <path class="st26" d="M1199.1,74.38c-.39,0-.65-.31-.65-.67s.27-.66.67-.66.66.3.66.66-.26.67-.67.67h-.01ZM1198.61,75.43h1.04v5.72h-1.04v-5.72Z"/>
      <path class="st26" d="M1202.44,75.43l.82,1.22c.21.33.39.62.58.94h.03c.19-.33.38-.63.58-.94l.79-1.22h1.14l-1.95,2.77,2,2.96h-1.18l-.84-1.29c-.22-.33-.41-.65-.61-.99h-.02c-.19.34-.39.65-.6.99l-.83,1.29h-1.15l2.03-2.92-1.94-2.8h1.16Z"/>
      <path class="st26" d="M1208.52,74.38c-.39,0-.65-.31-.65-.67s.27-.66.68-.66.66.3.66.66-.26.67-.68.67h-.01ZM1208.02,75.43h1.04v5.72h-1.04v-5.72Z"/>
      <path class="st26" d="M1211.37,76.98c0-.6-.02-1.07-.05-1.55h.91l.05.92h.03c.32-.54.85-1.05,1.81-1.05.77,0,1.36.47,1.61,1.15h.02c.18-.33.41-.57.65-.74.34-.26.71-.4,1.25-.4.77,0,1.89.5,1.89,2.48v3.37h-1.02v-3.24c0-1.11-.42-1.76-1.24-1.76-.6,0-1.05.44-1.24.93-.05.15-.08.35-.08.52v3.55h-1.02v-3.43c0-.92-.4-1.57-1.2-1.57-.64,0-1.12.52-1.29,1.04-.06.15-.08.33-.08.51v3.45h-1.02v-4.18Z"/>
      <path class="st26" d="M1222.41,78.47c.02,1.41.91,1.99,1.95,1.99.74,0,1.21-.13,1.58-.29l.19.73c-.37.16-1,.37-1.92.37-1.75,0-2.81-1.17-2.81-2.88s1.03-3.1,2.7-3.1c1.87,0,2.36,1.64,2.36,2.7,0,.21-.01.38-.04.5h-4.01ZM1225.45,77.73c0-.65-.27-1.69-1.43-1.69-1.06,0-1.51.97-1.6,1.69h3.03Z"/>
      <path class="st26" d="M1240.67,32.72c2.32,0,4.17,1.89,4.17,4.21s-1.85,4.23-4.19,4.23-4.21-1.87-4.21-4.23,1.89-4.21,4.21-4.21h.02ZM1240.63,33.56c-1.76,0-3.18,1.52-3.18,3.39s1.42,3.37,3.2,3.37c1.78.02,3.22-1.48,3.22-3.37s-1.44-3.39-3.22-3.39h-.02ZM1239.92,39.38h-.99v-4.68c.37-.06.79-.13,1.5-.13.8,0,1.29.13,1.61.37.26.21.41.52.41,1.01,0,.56-.39.95-.9,1.09v.04c.41.07.67.45.75,1.14.09.73.19,1.01.26,1.16h-1.03c-.11-.17-.19-.58-.28-1.22-.07-.51-.37-.71-.88-.71h-.45v1.93ZM1239.92,36.69h.47c.58,0,1.03-.19,1.03-.67,0-.39-.28-.69-.95-.69-.24,0-.41,0-.54.02v1.35Z"/>
    </g>
  </g>
  <rect class="st22" x=".29" y="97.49" width="1280.38" height="60.99"/>
  <g>
    <text class="st15" transform="translate(74.57 134.98)"><tspan x="0" y="0">Cefixime is effective in Gastrointestinal Infections in children</tspan></text>
    <text class="st15" transform="translate(881.03 124.99) scale(.58)"><tspan x="0" y="0">18</tspan></text>
  </g>
  <g>
    <polygon class="st2" points="876.1 174.24 877.77 174.24 877.77 175.91 877.77 175.91 877.77 174.24 876.1 174.24 876.1 174.24"/>
    <polygon class="st1" points="392.09 174.24 390.42 174.24 390.42 175.91 390.42 175.91 390.42 174.24 392.09 174.24 392.09 174.24"/>
    <rect class="st3" x="331.75" y="181.48" width="616.5" height="31.74" rx="8.42" ry="8.42"/>
    <rect class="st6" x="331.75" y="335.38" width="616.5" height="55.02" rx="8.42" ry="8.42"/>
    <rect class="st5" x="331.75" y="474.73" width="616.5" height="55.02" rx="8.42" ry="8.42"/>
    <rect class="st4" x="331.75" y="621.59" width="616.5" height="55.02" rx="8.42" ry="8.42"/>
    <rect class="st9" x="331.75" y="230.61" width="616.5" height="87.61" rx="8.42" ry="8.42"/>
    <rect class="st8" x="331.75" y="405.43" width="616.5" height="56.57" rx="8.42" ry="8.42"/>
    <rect class="st7" x="331.75" y="544.27" width="616.5" height="56.57" rx="8.42" ry="8.42"/>
    <line class="st24" x1="764.2" y1="229.06" x2="764.2" y2="319.48"/>
    <line class="st24" x1="584" y1="229.06" x2="584" y2="319.48"/>
    <line class="st24" x1="764.2" y1="335.38" x2="764.2" y2="390.32"/>
    <line class="st24" x1="584" y1="335.38" x2="584" y2="390.32"/>
    <line class="st24" x1="764.2" y1="181.48" x2="764.2" y2="213.22"/>
    <line class="st24" x1="584" y1="181.48" x2="584" y2="213.22"/>
    <g>
      <path class="st12" d="M357.58,251.74v-10h7.41v1.69h-5.39v2.22h5.02v1.68h-5.02v2.72h5.58v1.68h-7.6Z"/>
      <path class="st12" d="M366.74,244.49h1.77v.99c.63-.77,1.38-1.15,2.26-1.15.46,0,.87.09,1.21.29.34.19.62.48.84.87.32-.39.66-.68,1.03-.87.37-.19.76-.29,1.18-.29.53,0,.98.11,1.35.32.37.22.64.53.83.95.13.31.2.81.2,1.5v4.63h-1.92v-4.14c0-.72-.07-1.18-.2-1.39-.18-.27-.45-.41-.82-.41-.27,0-.52.08-.76.25-.24.16-.41.4-.51.72-.11.32-.16.82-.16,1.5v3.48h-1.92v-3.97c0-.7-.03-1.16-.1-1.36-.07-.21-.17-.36-.32-.46-.14-.1-.34-.15-.58-.15-.3,0-.56.08-.8.24s-.41.39-.51.69c-.1.3-.15.8-.15,1.49v3.52h-1.92v-7.24Z"/>
      <path class="st12" d="M379.25,244.49h1.79v1.06c.23-.36.55-.66.94-.89s.83-.34,1.32-.34c.84,0,1.55.33,2.14.99s.88,1.58.88,2.76-.3,2.15-.89,2.82c-.59.67-1.31,1.01-2.15,1.01-.4,0-.76-.08-1.09-.24s-.67-.43-1.03-.82v3.65h-1.92v-10ZM381.15,247.99c0,.81.16,1.42.48,1.8s.72.58,1.18.58.82-.18,1.11-.54c.29-.36.44-.94.44-1.76,0-.76-.15-1.32-.46-1.69s-.68-.55-1.13-.55-.86.18-1.17.54-.46.9-.46,1.61Z"/>
      <path class="st12" d="M387.84,243.51v-1.77h1.92v1.77h-1.92ZM387.84,251.74v-7.24h1.92v7.24h-1.92Z"/>
      <path class="st12" d="M393.55,251.74h-1.92v-7.24h1.78v1.03c.3-.49.58-.81.82-.96s.52-.23.83-.23c.44,0,.86.12,1.26.36l-.59,1.67c-.32-.21-.62-.31-.9-.31s-.5.07-.68.22c-.19.15-.33.41-.44.8-.11.39-.16,1.2-.16,2.43v2.24Z"/>
      <path class="st12" d="M397.15,243.51v-1.77h1.92v1.77h-1.92ZM397.15,251.74v-7.24h1.92v7.24h-1.92Z"/>
      <path class="st12" d="M407.35,246.63l-1.89.34c-.06-.38-.21-.66-.43-.85-.23-.19-.52-.29-.88-.29-.48,0-.86.17-1.14.49-.28.33-.43.88-.43,1.65,0,.86.14,1.47.43,1.82.29.35.68.53,1.16.53.36,0,.66-.1.89-.31.23-.21.4-.56.49-1.07l1.88.32c-.2.86-.57,1.52-1.12,1.96-.55.44-1.3.66-2.23.66-1.06,0-1.9-.33-2.53-1s-.94-1.59-.94-2.78.32-2.13.95-2.79,1.49-1,2.56-1c.88,0,1.58.19,2.1.57s.89.96,1.12,1.74Z"/>
      <path class="st12" d="M416,244.49v1.53h-1.31v2.92c0,.59.01.94.04,1.03.03.1.08.18.17.24.09.06.2.09.32.09.18,0,.43-.06.77-.18l.16,1.49c-.45.19-.95.29-1.51.29-.35,0-.66-.06-.93-.17-.28-.12-.48-.27-.61-.45-.13-.18-.22-.43-.27-.75-.04-.22-.06-.67-.06-1.35v-3.16h-.88v-1.53h.88v-1.44l1.92-1.12v2.56h1.31Z"/>
      <path class="st12" d="M419.24,241.74v3.68c.62-.72,1.36-1.08,2.22-1.08.44,0,.84.08,1.19.25s.62.37.8.63c.18.25.3.54.37.85.07.31.1.79.1,1.44v4.25h-1.92v-3.83c0-.76-.04-1.24-.11-1.45-.07-.21-.2-.37-.39-.49-.18-.12-.42-.18-.69-.18-.32,0-.6.08-.85.23-.25.15-.43.39-.55.7-.12.31-.17.77-.17,1.38v3.63h-1.92v-10h1.92Z"/>
      <path class="st12" d="M430.06,249.43l1.91.32c-.25.7-.63,1.23-1.16,1.6-.53.37-1.19.55-1.99.55-1.26,0-2.19-.41-2.8-1.23-.48-.66-.72-1.49-.72-2.5,0-1.2.31-2.14.94-2.82.63-.68,1.42-1.02,2.38-1.02,1.08,0,1.93.36,2.55,1.07.62.71.92,1.8.89,3.27h-4.8c.01.57.17,1.01.46,1.33.3.32.66.47,1.11.47.3,0,.55-.08.76-.25.2-.16.36-.43.46-.79ZM430.17,247.49c-.01-.55-.16-.98-.43-1.26-.27-.29-.6-.43-1-.43-.42,0-.76.15-1.04.46-.27.3-.41.72-.4,1.24h2.86Z"/>
      <path class="st12" d="M435.47,251.74h-1.92v-7.24h1.78v1.03c.3-.49.58-.81.82-.96s.52-.23.83-.23c.44,0,.86.12,1.26.36l-.59,1.67c-.32-.21-.62-.31-.9-.31s-.5.07-.68.22c-.19.15-.33.41-.44.8-.11.39-.16,1.2-.16,2.43v2.24Z"/>
      <path class="st12" d="M440.5,246.7l-1.74-.31c.2-.7.53-1.22,1.01-1.56.48-.34,1.19-.5,2.13-.5.85,0,1.49.1,1.91.3.42.2.71.46.88.77.17.31.26.88.26,1.71l-.02,2.24c0,.64.03,1.11.09,1.41.06.3.18.63.34.97h-1.9c-.05-.13-.11-.32-.18-.57-.03-.11-.05-.19-.07-.22-.33.32-.68.56-1.05.72s-.77.24-1.19.24c-.75,0-1.33-.2-1.76-.61s-.64-.92-.64-1.53c0-.41.1-.77.29-1.09s.47-.57.82-.74c.35-.17.86-.32,1.52-.45.9-.17,1.52-.33,1.86-.47v-.19c0-.37-.09-.63-.27-.79-.18-.16-.53-.24-1.03-.24-.34,0-.61.07-.8.2-.19.13-.35.37-.46.71ZM443.07,248.26c-.25.08-.63.18-1.17.29-.53.11-.88.22-1.04.33-.25.18-.38.4-.38.67s.1.5.3.7c.2.2.45.29.76.29.34,0,.67-.11.99-.34.23-.17.38-.38.46-.63.05-.16.08-.47.08-.93v-.38Z"/>
      <path class="st12" d="M446.78,244.49h1.79v1.06c.23-.36.55-.66.94-.89s.83-.34,1.32-.34c.84,0,1.55.33,2.14.99s.88,1.58.88,2.76-.3,2.15-.89,2.82c-.59.67-1.31,1.01-2.15,1.01-.4,0-.76-.08-1.09-.24s-.67-.43-1.03-.82v3.65h-1.92v-10ZM448.68,247.99c0,.81.16,1.42.48,1.8s.72.58,1.18.58.82-.18,1.11-.54c.29-.36.44-.94.44-1.76,0-.76-.15-1.32-.46-1.69s-.68-.55-1.13-.55-.86.18-1.17.54-.46.9-.46,1.61Z"/>
      <path class="st12" d="M454.46,244.49h2.04l1.73,5.14,1.69-5.14h1.98l-2.56,6.97-.46,1.26c-.17.42-.33.75-.48.97s-.33.4-.53.54c-.2.14-.44.25-.73.32-.29.08-.62.12-.98.12s-.73-.04-1.08-.12l-.17-1.5c.3.06.57.09.81.09.45,0,.77-.13.99-.39s.38-.59.49-1l-2.75-7.26Z"/>
      <path class="st12" d="M466.58,248.01c0-.64.16-1.25.47-1.85.31-.6.76-1.05,1.33-1.36.58-.31,1.22-.47,1.93-.47,1.1,0,1.99.36,2.69,1.07.7.71,1.05,1.61,1.05,2.7s-.35,2-1.06,2.72-1.6,1.08-2.67,1.08c-.66,0-1.3-.15-1.9-.45-.6-.3-1.06-.74-1.37-1.32-.31-.58-.47-1.29-.47-2.12ZM468.54,248.11c0,.72.17,1.27.51,1.65s.76.57,1.26.57.92-.19,1.26-.57.51-.94.51-1.66-.17-1.25-.51-1.64c-.34-.38-.76-.57-1.26-.57s-.92.19-1.26.57c-.34.38-.51.93-.51,1.65Z"/>
      <path class="st12" d="M474.71,244.49h1.06v-.54c0-.61.06-1.06.19-1.36s.37-.54.72-.73c.35-.19.79-.28,1.32-.28s1.08.08,1.6.25l-.26,1.34c-.3-.07-.6-.11-.88-.11s-.48.06-.6.19c-.12.13-.18.38-.18.75v.51h1.43v1.51h-1.43v5.74h-1.92v-5.74h-1.06v-1.51Z"/>
      <path class="st12" d="M490.4,246.63l-1.89.34c-.06-.38-.21-.66-.43-.85-.23-.19-.52-.29-.88-.29-.48,0-.86.17-1.14.49-.28.33-.43.88-.43,1.65,0,.86.14,1.47.43,1.82.29.35.68.53,1.16.53.36,0,.66-.1.89-.31.23-.21.4-.56.49-1.07l1.88.32c-.2.86-.57,1.52-1.12,1.96-.55.44-1.3.66-2.23.66-1.06,0-1.9-.33-2.53-1s-.94-1.59-.94-2.78.32-2.13.95-2.79,1.49-1,2.56-1c.88,0,1.58.19,2.1.57s.89.96,1.12,1.74Z"/>
      <path class="st12" d="M491.41,248.01c0-.64.16-1.25.47-1.85.31-.6.76-1.05,1.33-1.36.58-.31,1.22-.47,1.93-.47,1.1,0,1.99.36,2.69,1.07.7.71,1.05,1.61,1.05,2.7s-.35,2-1.06,2.72-1.6,1.08-2.67,1.08c-.66,0-1.3-.15-1.9-.45-.6-.3-1.06-.74-1.37-1.32-.31-.58-.47-1.29-.47-2.12ZM493.37,248.11c0,.72.17,1.27.51,1.65s.76.57,1.26.57.92-.19,1.26-.57.51-.94.51-1.66-.17-1.25-.51-1.64c-.34-.38-.76-.57-1.26-.57s-.92.19-1.26.57c-.34.38-.51.93-.51,1.65Z"/>
      <path class="st12" d="M500.24,244.49h1.77v.99c.63-.77,1.38-1.15,2.26-1.15.46,0,.87.09,1.21.29.34.19.62.48.84.87.32-.39.66-.68,1.03-.87.37-.19.76-.29,1.18-.29.53,0,.98.11,1.35.32.37.22.64.53.83.95.13.31.2.81.2,1.5v4.63h-1.92v-4.14c0-.72-.07-1.18-.2-1.39-.18-.27-.45-.41-.82-.41-.27,0-.52.08-.76.25-.24.16-.41.4-.51.72-.11.32-.16.82-.16,1.5v3.48h-1.92v-3.97c0-.7-.03-1.16-.1-1.36-.07-.21-.17-.36-.32-.46-.14-.1-.34-.15-.58-.15-.3,0-.56.08-.8.24s-.41.39-.51.69c-.1.3-.15.8-.15,1.49v3.52h-1.92v-7.24Z"/>
      <path class="st12" d="M512.66,244.49h1.77v.99c.63-.77,1.38-1.15,2.26-1.15.46,0,.87.09,1.21.29.34.19.62.48.84.87.32-.39.66-.68,1.03-.87.37-.19.76-.29,1.18-.29.53,0,.98.11,1.35.32.37.22.64.53.83.95.13.31.2.81.2,1.5v4.63h-1.92v-4.14c0-.72-.07-1.18-.2-1.39-.18-.27-.45-.41-.82-.41-.27,0-.52.08-.76.25-.24.16-.41.4-.51.72-.11.32-.16.82-.16,1.5v3.48h-1.92v-3.97c0-.7-.03-1.16-.1-1.36-.07-.21-.17-.36-.32-.46-.14-.1-.34-.15-.58-.15-.3,0-.56.08-.8.24s-.41.39-.51.69c-.1.3-.15.8-.15,1.49v3.52h-1.92v-7.24Z"/>
      <path class="st12" d="M529.99,251.74v-1.08c-.26.39-.61.69-1.04.91s-.88.33-1.36.33-.92-.11-1.31-.32c-.39-.21-.67-.51-.84-.9-.17-.39-.26-.92-.26-1.6v-4.58h1.92v3.33c0,1.02.04,1.64.11,1.87.07.23.2.41.39.55s.42.2.71.2c.33,0,.62-.09.88-.27.26-.18.44-.4.53-.67.1-.27.14-.92.14-1.95v-3.06h1.92v7.24h-1.78Z"/>
      <path class="st12" d="M540.34,251.74h-1.92v-3.7c0-.78-.04-1.29-.12-1.52s-.21-.41-.4-.54c-.18-.13-.41-.19-.67-.19-.33,0-.63.09-.89.27-.26.18-.44.42-.54.72-.1.3-.15.85-.15,1.66v3.28h-1.92v-7.24h1.78v1.06c.63-.82,1.43-1.23,2.39-1.23.42,0,.81.08,1.16.23.35.15.62.35.79.58.18.24.3.5.38.8.07.3.11.73.11,1.29v4.5Z"/>
      <path class="st12" d="M542.29,243.51v-1.77h1.92v1.77h-1.92ZM542.29,251.74v-7.24h1.92v7.24h-1.92Z"/>
      <path class="st12" d="M549.49,244.49v1.53h-1.31v2.92c0,.59.01.94.04,1.03.03.1.08.18.17.24.09.06.2.09.32.09.18,0,.43-.06.77-.18l.16,1.49c-.45.19-.95.29-1.51.29-.35,0-.66-.06-.93-.17-.28-.12-.48-.27-.61-.45-.13-.18-.22-.43-.27-.75-.04-.22-.06-.67-.06-1.35v-3.16h-.88v-1.53h.88v-1.44l1.92-1.12v2.56h1.31Z"/>
      <path class="st12" d="M549.91,244.49h2.04l1.73,5.14,1.69-5.14h1.98l-2.56,6.97-.46,1.26c-.17.42-.33.75-.48.97s-.33.4-.53.54c-.2.14-.44.25-.73.32-.29.08-.62.12-.98.12s-.73-.04-1.08-.12l-.17-1.5c.3.06.57.09.81.09.45,0,.77-.13.99-.39s.38-.59.49-1l-2.75-7.26Z"/>
      <path class="st12" d="M352.38,263.46l-1.74-.31c.2-.7.53-1.22,1.01-1.56.48-.34,1.19-.5,2.13-.5.85,0,1.49.1,1.91.3.42.2.71.46.88.77.17.31.26.88.26,1.71l-.02,2.24c0,.64.03,1.11.09,1.41.06.3.18.63.34.97h-1.9c-.05-.13-.11-.32-.18-.57-.03-.11-.05-.19-.07-.22-.33.32-.68.56-1.05.72s-.77.24-1.19.24c-.75,0-1.33-.2-1.76-.61s-.64-.92-.64-1.53c0-.41.1-.77.29-1.09s.47-.57.82-.74c.35-.17.86-.32,1.52-.45.9-.17,1.52-.33,1.86-.47v-.19c0-.37-.09-.63-.27-.79-.18-.16-.53-.24-1.03-.24-.34,0-.61.07-.8.2-.19.13-.35.37-.46.71ZM354.95,265.02c-.25.08-.63.18-1.17.29-.53.11-.88.22-1.04.33-.25.18-.38.4-.38.67s.1.5.3.7c.2.2.45.29.76.29.34,0,.67-.11.99-.34.23-.17.38-.38.46-.63.05-.16.08-.47.08-.93v-.38Z"/>
      <path class="st12" d="M358.04,266.43l1.92-.29c.08.37.25.66.5.85s.6.29,1.05.29c.5,0,.87-.09,1.12-.27.17-.13.25-.3.25-.51,0-.15-.05-.27-.14-.36-.1-.09-.31-.18-.64-.25-1.55-.34-2.53-.65-2.94-.93-.57-.39-.86-.93-.86-1.63,0-.63.25-1.15.74-1.58.5-.43,1.26-.64,2.3-.64s1.73.16,2.21.48c.48.32.81.8,1,1.43l-1.81.33c-.08-.28-.22-.5-.44-.65-.22-.15-.52-.23-.92-.23-.5,0-.87.07-1.08.21-.15.1-.22.23-.22.39,0,.14.06.25.19.35.17.13.77.31,1.79.54,1.02.23,1.73.52,2.14.85.4.34.6.82.6,1.42,0,.66-.28,1.23-.83,1.71s-1.38.72-2.46.72c-.99,0-1.77-.2-2.34-.6s-.95-.94-1.13-1.63Z"/>
      <path class="st12" d="M365.81,266.43l1.92-.29c.08.37.25.66.5.85s.6.29,1.05.29c.5,0,.87-.09,1.12-.27.17-.13.25-.3.25-.51,0-.15-.05-.27-.14-.36-.1-.09-.31-.18-.64-.25-1.55-.34-2.53-.65-2.94-.93-.57-.39-.86-.93-.86-1.63,0-.63.25-1.15.74-1.58.5-.43,1.26-.64,2.3-.64s1.73.16,2.21.48c.48.32.81.8,1,1.43l-1.81.33c-.08-.28-.22-.5-.44-.65-.22-.15-.52-.23-.92-.23-.5,0-.87.07-1.08.21-.15.1-.22.23-.22.39,0,.14.06.25.19.35.17.13.77.31,1.79.54,1.02.23,1.73.52,2.14.85.4.34.6.82.6,1.42,0,.66-.28,1.23-.83,1.71s-1.38.72-2.46.72c-.99,0-1.77-.2-2.34-.6s-.95-.94-1.13-1.63Z"/>
      <path class="st12" d="M373.81,264.77c0-.64.16-1.25.47-1.85.31-.6.76-1.05,1.33-1.36.58-.31,1.22-.47,1.93-.47,1.1,0,1.99.36,2.69,1.07.7.71,1.05,1.61,1.05,2.7s-.35,2-1.06,2.72-1.6,1.08-2.67,1.08c-.66,0-1.3-.15-1.9-.45-.6-.3-1.06-.74-1.37-1.32-.31-.58-.47-1.29-.47-2.12ZM375.77,264.88c0,.72.17,1.27.51,1.65s.76.57,1.26.57.92-.19,1.26-.57.51-.94.51-1.66-.17-1.25-.51-1.64c-.34-.38-.76-.57-1.26-.57s-.92.19-1.26.57c-.34.38-.51.93-.51,1.65Z"/>
      <path class="st12" d="M389.1,263.39l-1.89.34c-.06-.38-.21-.66-.43-.85-.23-.19-.52-.29-.88-.29-.48,0-.86.17-1.14.49-.28.33-.43.88-.43,1.65,0,.86.14,1.47.43,1.82.29.35.68.53,1.16.53.36,0,.66-.1.89-.31.23-.21.4-.56.49-1.07l1.88.32c-.2.86-.57,1.52-1.12,1.96-.55.44-1.3.66-2.23.66-1.06,0-1.9-.33-2.53-1s-.94-1.59-.94-2.78.32-2.13.95-2.79,1.49-1,2.56-1c.88,0,1.58.19,2.1.57s.89.96,1.12,1.74Z"/>
      <path class="st12" d="M390.55,260.27v-1.77h1.92v1.77h-1.92ZM390.55,268.5v-7.24h1.92v7.24h-1.92Z"/>
      <path class="st12" d="M395.87,263.46l-1.74-.31c.2-.7.53-1.22,1.01-1.56.48-.34,1.19-.5,2.13-.5.85,0,1.49.1,1.91.3.42.2.71.46.88.77.17.31.26.88.26,1.71l-.02,2.24c0,.64.03,1.11.09,1.41.06.3.18.63.34.97h-1.9c-.05-.13-.11-.32-.18-.57-.03-.11-.05-.19-.07-.22-.33.32-.68.56-1.05.72s-.77.24-1.19.24c-.75,0-1.33-.2-1.76-.61s-.64-.92-.64-1.53c0-.41.1-.77.29-1.09s.47-.57.82-.74c.35-.17.86-.32,1.52-.45.9-.17,1.52-.33,1.86-.47v-.19c0-.37-.09-.63-.27-.79-.18-.16-.53-.24-1.03-.24-.34,0-.61.07-.8.2-.19.13-.35.37-.46.71ZM398.43,265.02c-.25.08-.63.18-1.17.29-.53.11-.88.22-1.04.33-.25.18-.38.4-.38.67s.1.5.3.7c.2.2.45.29.76.29.34,0,.67-.11.99-.34.23-.17.38-.38.46-.63.05-.16.08-.47.08-.93v-.38Z"/>
      <path class="st12" d="M405.52,261.25v1.53h-1.31v2.92c0,.59.01.94.04,1.03.03.1.08.18.17.24.09.06.2.09.32.09.18,0,.43-.06.77-.18l.16,1.49c-.45.19-.95.29-1.51.29-.35,0-.66-.06-.93-.17-.28-.12-.48-.27-.61-.45-.13-.18-.22-.43-.27-.75-.04-.22-.06-.67-.06-1.35v-3.16h-.88v-1.53h.88v-1.44l1.92-1.12v2.56h1.31Z"/>
      <path class="st12" d="M411.05,266.19l1.91.32c-.25.7-.63,1.23-1.16,1.6-.53.37-1.19.55-1.99.55-1.26,0-2.19-.41-2.8-1.23-.48-.66-.72-1.49-.72-2.5,0-1.2.31-2.14.94-2.82.63-.68,1.42-1.02,2.38-1.02,1.08,0,1.93.36,2.55,1.07.62.71.92,1.8.89,3.27h-4.8c.01.57.17,1.01.46,1.33.3.32.66.47,1.11.47.3,0,.55-.08.76-.25.2-.16.36-.43.46-.79ZM411.16,264.25c-.01-.55-.16-.98-.43-1.26-.27-.29-.6-.43-1-.43-.42,0-.76.15-1.04.46-.27.3-.41.72-.4,1.24h2.86Z"/>
      <path class="st12" d="M421.26,268.5h-1.78v-1.06c-.3.41-.64.72-1.05.92s-.81.3-1.22.3c-.83,0-1.54-.34-2.14-1.01-.59-.67-.89-1.61-.89-2.81s.29-2.16.87-2.8c.58-.64,1.31-.96,2.19-.96.81,0,1.51.34,2.1,1.01v-3.6h1.92v10ZM416.15,264.72c0,.77.11,1.33.32,1.68.31.5.74.75,1.3.75.44,0,.82-.19,1.12-.56.31-.38.46-.94.46-1.68,0-.83-.15-1.43-.45-1.8-.3-.37-.68-.55-1.15-.55s-.83.18-1.14.54c-.31.36-.46.9-.46,1.62Z"/>
      <path class="st12" d="M433.68,268.5h-1.78v-1.06c-.3.41-.64.72-1.05.92s-.81.3-1.22.3c-.83,0-1.54-.34-2.14-1.01-.59-.67-.89-1.61-.89-2.81s.29-2.16.87-2.8c.58-.64,1.31-.96,2.19-.96.81,0,1.51.34,2.1,1.01v-3.6h1.92v10ZM428.56,264.72c0,.77.11,1.33.32,1.68.31.5.74.75,1.3.75.44,0,.82-.19,1.12-.56.31-.38.46-.94.46-1.68,0-.83-.15-1.43-.45-1.8-.3-.37-.68-.55-1.15-.55s-.83.18-1.14.54c-.31.36-.46.9-.46,1.62Z"/>
      <path class="st12" d="M435.57,260.27v-1.77h1.92v1.77h-1.92ZM435.57,268.5v-7.24h1.92v7.24h-1.92Z"/>
      <path class="st12" d="M440.88,263.46l-1.74-.31c.2-.7.53-1.22,1.01-1.56.48-.34,1.19-.5,2.13-.5.85,0,1.49.1,1.91.3.42.2.71.46.88.77.17.31.26.88.26,1.71l-.02,2.24c0,.64.03,1.11.09,1.41.06.3.18.63.34.97h-1.9c-.05-.13-.11-.32-.18-.57-.03-.11-.05-.19-.07-.22-.33.32-.68.56-1.05.72s-.77.24-1.19.24c-.75,0-1.33-.2-1.76-.61s-.64-.92-.64-1.53c0-.41.1-.77.29-1.09s.47-.57.82-.74c.35-.17.86-.32,1.52-.45.9-.17,1.52-.33,1.86-.47v-.19c0-.37-.09-.63-.27-.79-.18-.16-.53-.24-1.03-.24-.34,0-.61.07-.8.2-.19.13-.35.37-.46.71ZM443.44,265.02c-.25.08-.63.18-1.17.29-.53.11-.88.22-1.04.33-.25.18-.38.4-.38.67s.1.5.3.7c.2.2.45.29.76.29.34,0,.67-.11.99-.34.23-.17.38-.38.46-.63.05-.16.08-.47.08-.93v-.38Z"/>
      <path class="st12" d="M449.05,268.5h-1.92v-7.24h1.78v1.03c.3-.49.58-.81.82-.96s.52-.23.83-.23c.44,0,.86.12,1.26.36l-.59,1.67c-.32-.21-.62-.31-.9-.31s-.5.07-.68.22c-.19.15-.33.41-.44.8-.11.39-.16,1.2-.16,2.43v2.24Z"/>
      <path class="st12" d="M454.49,268.5h-1.92v-7.24h1.78v1.03c.3-.49.58-.81.82-.96s.52-.23.83-.23c.44,0,.86.12,1.26.36l-.59,1.67c-.32-.21-.62-.31-.9-.31s-.5.07-.68.22c-.19.15-.33.41-.44.8-.11.39-.16,1.2-.16,2.43v2.24Z"/>
      <path class="st12" d="M460,258.5v3.68c.62-.72,1.36-1.08,2.22-1.08.44,0,.84.08,1.19.25s.62.37.8.63c.18.25.3.54.37.85.07.31.1.79.1,1.44v4.25h-1.92v-3.83c0-.76-.04-1.24-.11-1.45-.07-.21-.2-.37-.39-.49-.18-.12-.42-.18-.69-.18-.32,0-.6.08-.85.23-.25.15-.43.39-.55.7-.12.31-.17.77-.17,1.38v3.63h-1.92v-10h1.92Z"/>
      <path class="st12" d="M470.81,266.19l1.91.32c-.25.7-.63,1.23-1.16,1.6-.53.37-1.19.55-1.99.55-1.26,0-2.19-.41-2.8-1.23-.48-.66-.72-1.49-.72-2.5,0-1.2.31-2.14.94-2.82.63-.68,1.42-1.02,2.38-1.02,1.08,0,1.93.36,2.55,1.07.62.71.92,1.8.89,3.27h-4.8c.01.57.17,1.01.46,1.33.3.32.66.47,1.11.47.3,0,.55-.08.76-.25.2-.16.36-.43.46-.79ZM470.92,264.25c-.01-.55-.16-.98-.43-1.26-.27-.29-.6-.43-1-.43-.42,0-.76.15-1.04.46-.27.3-.41.72-.4,1.24h2.86Z"/>
      <path class="st12" d="M475.82,263.46l-1.74-.31c.2-.7.53-1.22,1.01-1.56.48-.34,1.19-.5,2.13-.5.85,0,1.49.1,1.91.3.42.2.71.46.88.77.17.31.26.88.26,1.71l-.02,2.24c0,.64.03,1.11.09,1.41.06.3.18.63.34.97h-1.9c-.05-.13-.11-.32-.18-.57-.03-.11-.05-.19-.07-.22-.33.32-.68.56-1.05.72s-.77.24-1.19.24c-.75,0-1.33-.2-1.76-.61s-.64-.92-.64-1.53c0-.41.1-.77.29-1.09s.47-.57.82-.74c.35-.17.86-.32,1.52-.45.9-.17,1.52-.33,1.86-.47v-.19c0-.37-.09-.63-.27-.79-.18-.16-.53-.24-1.03-.24-.34,0-.61.07-.8.2-.19.13-.35.37-.46.71ZM478.38,265.02c-.25.08-.63.18-1.17.29-.53.11-.88.22-1.04.33-.25.18-.38.4-.38.67s.1.5.3.7c.2.2.45.29.76.29.34,0,.67-.11.99-.34.23-.17.38-.38.46-.63.05-.16.08-.47.08-.93v-.38Z"/>
      <path class="st12" d="M489.21,271.44h-1.32c-.7-1.05-1.23-2.14-1.59-3.27-.36-1.13-.55-2.23-.55-3.29,0-1.31.23-2.56.68-3.73.39-1.02.89-1.96,1.49-2.82h1.31c-.62,1.38-1.05,2.55-1.29,3.52-.23.97-.35,1.99-.35,3.07,0,.75.07,1.51.21,2.29s.33,1.53.57,2.23c.16.46.44,1.13.84,2Z"/>
      <path class="st12" d="M490.7,268.5v-10h7.41v1.69h-5.39v2.22h5.02v1.68h-5.02v2.72h5.58v1.68h-7.6Z"/>
      <path class="st12" d="M500,268.5v-1.92h1.92v1.92h-1.92Z"/>
      <path class="st12" d="M514.08,263.39l-1.89.34c-.06-.38-.21-.66-.43-.85-.23-.19-.52-.29-.88-.29-.48,0-.86.17-1.14.49-.28.33-.43.88-.43,1.65,0,.86.14,1.47.43,1.82.29.35.68.53,1.16.53.36,0,.66-.1.89-.31.23-.21.4-.56.49-1.07l1.88.32c-.2.86-.57,1.52-1.12,1.96-.55.44-1.3.66-2.23.66-1.06,0-1.9-.33-2.53-1s-.94-1.59-.94-2.78.32-2.13.95-2.79,1.49-1,2.56-1c.88,0,1.58.19,2.1.57s.89.96,1.12,1.74Z"/>
      <path class="st12" d="M515.09,264.77c0-.64.16-1.25.47-1.85.31-.6.76-1.05,1.33-1.36.58-.31,1.22-.47,1.93-.47,1.1,0,1.99.36,2.69,1.07.7.71,1.05,1.61,1.05,2.7s-.35,2-1.06,2.72-1.6,1.08-2.67,1.08c-.66,0-1.3-.15-1.9-.45-.6-.3-1.06-.74-1.37-1.32-.31-.58-.47-1.29-.47-2.12ZM517.05,264.88c0,.72.17,1.27.51,1.65s.76.57,1.26.57.92-.19,1.26-.57.51-.94.51-1.66-.17-1.25-.51-1.64c-.34-.38-.76-.57-1.26-.57s-.92.19-1.26.57c-.34.38-.51.93-.51,1.65Z"/>
      <path class="st12" d="M524.07,268.5v-10h1.92v10h-1.92Z"/>
      <path class="st12" d="M527.95,260.27v-1.77h1.92v1.77h-1.92ZM527.95,268.5v-7.24h1.92v7.24h-1.92Z"/>
      <path class="st12" d="M531.78,266.58h1.92v1.37c0,.55-.05.99-.14,1.31-.1.32-.28.61-.54.86-.27.25-.6.46-1.01.6l-.38-.79c.39-.13.66-.3.83-.53.16-.22.25-.53.26-.91h-.93v-1.92Z"/>
      <path class="st12" d="M539.09,265.24l1.96-.19c.12.66.36,1.14.72,1.45.36.31.85.46,1.46.46.65,0,1.14-.14,1.47-.41.33-.28.49-.6.49-.96,0-.24-.07-.44-.21-.6s-.38-.31-.73-.43c-.24-.08-.77-.23-1.62-.44-1.08-.27-1.84-.6-2.28-.99-.61-.55-.92-1.22-.92-2.01,0-.51.14-.99.43-1.43.29-.44.71-.78,1.25-1.01.54-.23,1.2-.35,1.97-.35,1.25,0,2.2.28,2.83.83.63.55.97,1.29,1,2.2l-2.02.09c-.09-.51-.27-.88-.56-1.11-.28-.23-.71-.34-1.28-.34s-1.05.12-1.38.36c-.21.16-.32.36-.32.62,0,.24.1.44.3.61.25.21.87.44,1.85.67.98.23,1.71.47,2.18.72.47.25.84.59,1.1,1.02s.4.96.4,1.59c0,.57-.16,1.11-.48,1.61-.32.5-.77.87-1.35,1.12s-1.31.37-2.18.37c-1.26,0-2.23-.29-2.91-.88s-1.08-1.44-1.21-2.55Z"/>
      <path class="st12" d="M550.34,263.46l-1.74-.31c.2-.7.53-1.22,1.01-1.56.48-.34,1.19-.5,2.13-.5.85,0,1.49.1,1.91.3.42.2.71.46.88.77.17.31.26.88.26,1.71l-.02,2.24c0,.64.03,1.11.09,1.41.06.3.18.63.34.97h-1.9c-.05-.13-.11-.32-.18-.57-.03-.11-.05-.19-.07-.22-.33.32-.68.56-1.05.72s-.77.24-1.19.24c-.75,0-1.33-.2-1.76-.61s-.64-.92-.64-1.53c0-.41.1-.77.29-1.09s.47-.57.82-.74c.35-.17.86-.32,1.52-.45.9-.17,1.52-.33,1.86-.47v-.19c0-.37-.09-.63-.27-.79-.18-.16-.53-.24-1.03-.24-.34,0-.61.07-.8.2-.19.13-.35.37-.46.71ZM552.9,265.02c-.25.08-.63.18-1.17.29-.53.11-.88.22-1.04.33-.25.18-.38.4-.38.67s.1.5.3.7c.2.2.45.29.76.29.34,0,.67-.11.99-.34.23-.17.38-.38.46-.63.05-.16.08-.47.08-.93v-.38Z"/>
      <path class="st12" d="M556.67,268.5v-10h1.92v10h-1.92Z"/>
      <path class="st12" d="M560.34,265.83v-1.92h3.76v1.92h-3.76Z"/>
      <path class="st12" d="M362.85,278.01h1.77v.99c.63-.77,1.38-1.15,2.26-1.15.46,0,.87.09,1.21.29.34.19.62.48.84.87.32-.39.66-.68,1.03-.87.37-.19.76-.29,1.18-.29.53,0,.98.11,1.35.32.37.22.64.53.83.95.13.31.2.81.2,1.5v4.63h-1.92v-4.14c0-.72-.07-1.18-.2-1.39-.18-.27-.45-.41-.82-.41-.27,0-.52.08-.76.25-.24.16-.41.4-.51.72-.11.32-.16.82-.16,1.5v3.48h-1.92v-3.97c0-.7-.03-1.16-.1-1.36-.07-.21-.17-.36-.32-.46-.14-.1-.34-.15-.58-.15-.3,0-.56.08-.8.24s-.41.39-.51.69c-.1.3-.15.8-.15,1.49v3.52h-1.92v-7.24Z"/>
      <path class="st12" d="M374.97,281.53c0-.64.16-1.25.47-1.85.31-.6.76-1.05,1.33-1.36.58-.31,1.22-.47,1.93-.47,1.1,0,1.99.36,2.69,1.07.7.71,1.05,1.61,1.05,2.7s-.35,2-1.06,2.72-1.6,1.08-2.67,1.08c-.66,0-1.3-.15-1.9-.45-.6-.3-1.06-.74-1.37-1.32-.31-.58-.47-1.29-.47-2.12ZM376.93,281.64c0,.72.17,1.27.51,1.65s.76.57,1.26.57.92-.19,1.26-.57.51-.94.51-1.66-.17-1.25-.51-1.64c-.34-.38-.76-.57-1.26-.57s-.92.19-1.26.57c-.34.38-.51.93-.51,1.65Z"/>
      <path class="st12" d="M390.53,285.26h-1.92v-3.7c0-.78-.04-1.29-.12-1.52s-.21-.41-.4-.54c-.18-.13-.41-.19-.67-.19-.33,0-.63.09-.89.27-.26.18-.44.42-.54.72-.1.3-.15.85-.15,1.66v3.28h-1.92v-7.24h1.78v1.06c.63-.82,1.43-1.23,2.39-1.23.42,0,.81.08,1.16.23.35.15.62.35.79.58.18.24.3.5.38.8.07.3.11.73.11,1.29v4.5Z"/>
      <path class="st12" d="M396.67,282.95l1.91.32c-.25.7-.63,1.23-1.16,1.6-.53.37-1.19.55-1.99.55-1.26,0-2.19-.41-2.8-1.23-.48-.66-.72-1.49-.72-2.5,0-1.2.31-2.14.94-2.82.63-.68,1.42-1.02,2.38-1.02,1.08,0,1.93.36,2.55,1.07.62.71.92,1.8.89,3.27h-4.8c.01.57.17,1.01.46,1.33.3.32.66.47,1.11.47.3,0,.55-.08.76-.25.2-.16.36-.43.46-.79ZM396.78,281.01c-.01-.55-.16-.98-.43-1.26-.27-.29-.6-.43-1-.43-.42,0-.76.15-1.04.46-.27.3-.41.72-.4,1.24h2.86Z"/>
      <path class="st12" d="M400.25,285.26v-10h1.92v10h-1.92Z"/>
      <path class="st12" d="M404.13,285.26v-10h1.92v10h-1.92Z"/>
      <path class="st12" d="M409.44,280.22l-1.74-.31c.2-.7.53-1.22,1.01-1.56.48-.34,1.19-.5,2.13-.5.85,0,1.49.1,1.91.3.42.2.71.46.88.77.17.31.26.88.26,1.71l-.02,2.24c0,.64.03,1.11.09,1.41.06.3.18.63.34.97h-1.9c-.05-.13-.11-.32-.18-.57-.03-.11-.05-.19-.07-.22-.33.32-.68.56-1.05.72s-.77.24-1.19.24c-.75,0-1.33-.2-1.76-.61s-.64-.92-.64-1.53c0-.41.1-.77.29-1.09s.47-.57.82-.74c.35-.17.86-.32,1.52-.45.9-.17,1.52-.33,1.86-.47v-.19c0-.37-.09-.63-.27-.79-.18-.16-.53-.24-1.03-.24-.34,0-.61.07-.8.2-.19.13-.35.37-.46.71ZM412,281.78c-.25.08-.63.18-1.17.29-.53.11-.88.22-1.04.33-.25.18-.38.4-.38.67s.1.5.3.7c.2.2.45.29.76.29.34,0,.67-.11.99-.34.23-.17.38-.38.46-.63.05-.16.08-.47.08-.93v-.38Z"/>
      <path class="st12" d="M415.73,283.34h1.92v1.37c0,.55-.05.99-.14,1.31-.1.32-.28.61-.54.86-.27.25-.6.46-1.01.6l-.38-.79c.39-.13.66-.3.83-.53.16-.22.25-.53.26-.91h-.93v-1.92Z"/>
      <path class="st12" d="M429.95,281.58l1.96.62c-.3,1.09-.8,1.9-1.5,2.43-.7.53-1.58.79-2.66.79-1.33,0-2.42-.45-3.27-1.36-.85-.91-1.28-2.15-1.28-3.72,0-1.66.43-2.96,1.29-3.88.86-.92,1.99-1.38,3.39-1.38,1.22,0,2.22.36,2.98,1.08.46.43.8,1.04,1.02,1.84l-2,.48c-.12-.52-.37-.93-.74-1.23s-.83-.45-1.37-.45c-.74,0-1.34.27-1.8.8-.46.53-.69,1.39-.69,2.58,0,1.26.23,2.16.68,2.7.45.54,1.05.8,1.77.8.54,0,1-.17,1.38-.51.39-.34.66-.88.83-1.61Z"/>
      <path class="st12" d="M435.05,280.22l-1.74-.31c.2-.7.53-1.22,1.01-1.56.48-.34,1.19-.5,2.13-.5.85,0,1.49.1,1.91.3.42.2.71.46.88.77.17.31.26.88.26,1.71l-.02,2.24c0,.64.03,1.11.09,1.41.06.3.18.63.34.97h-1.9c-.05-.13-.11-.32-.18-.57-.03-.11-.05-.19-.07-.22-.33.32-.68.56-1.05.72s-.77.24-1.19.24c-.75,0-1.33-.2-1.76-.61s-.64-.92-.64-1.53c0-.41.1-.77.29-1.09s.47-.57.82-.74c.35-.17.86-.32,1.52-.45.9-.17,1.52-.33,1.86-.47v-.19c0-.37-.09-.63-.27-.79-.18-.16-.53-.24-1.03-.24-.34,0-.61.07-.8.2-.19.13-.35.37-.46.71ZM437.62,281.78c-.25.08-.63.18-1.17.29-.53.11-.88.22-1.04.33-.25.18-.38.4-.38.67s.1.5.3.7c.2.2.45.29.76.29.34,0,.67-.11.99-.34.23-.17.38-.38.46-.63.05-.16.08-.47.08-.93v-.38Z"/>
      <path class="st12" d="M441.25,278.01h1.77v.99c.63-.77,1.38-1.15,2.26-1.15.46,0,.87.09,1.21.29.34.19.62.48.84.87.32-.39.66-.68,1.03-.87.37-.19.76-.29,1.18-.29.53,0,.98.11,1.35.32.37.22.64.53.83.95.13.31.2.81.2,1.5v4.63h-1.92v-4.14c0-.72-.07-1.18-.2-1.39-.18-.27-.45-.41-.82-.41-.27,0-.52.08-.76.25-.24.16-.41.4-.51.72-.11.32-.16.82-.16,1.5v3.48h-1.92v-3.97c0-.7-.03-1.16-.1-1.36-.07-.21-.17-.36-.32-.46-.14-.1-.34-.15-.58-.15-.3,0-.56.08-.8.24s-.41.39-.51.69c-.1.3-.15.8-.15,1.49v3.52h-1.92v-7.24Z"/>
      <path class="st12" d="M453.76,278.01h1.79v1.06c.23-.36.55-.66.94-.89s.83-.34,1.32-.34c.84,0,1.55.33,2.14.99s.88,1.58.88,2.76-.3,2.15-.89,2.82c-.59.67-1.31,1.01-2.15,1.01-.4,0-.76-.08-1.09-.24s-.67-.43-1.03-.82v3.65h-1.92v-10ZM455.65,281.51c0,.81.16,1.42.48,1.8s.72.58,1.18.58.82-.18,1.11-.54c.29-.36.44-.94.44-1.76,0-.76-.15-1.32-.46-1.69s-.68-.55-1.13-.55-.86.18-1.17.54-.46.9-.46,1.61Z"/>
      <path class="st12" d="M461.44,278.01h2.04l1.73,5.14,1.69-5.14h1.98l-2.56,6.97-.46,1.26c-.17.42-.33.75-.48.97s-.33.4-.53.54c-.2.14-.44.25-.73.32-.29.08-.62.12-.98.12s-.73-.04-1.08-.12l-.17-1.5c.3.06.57.09.81.09.45,0,.77-.13.99-.39s.38-.59.49-1l-2.75-7.26Z"/>
      <path class="st12" d="M470.11,285.26v-10h1.92v10h-1.92Z"/>
      <path class="st12" d="M473.55,281.53c0-.64.16-1.25.47-1.85.31-.6.76-1.05,1.33-1.36.58-.31,1.22-.47,1.93-.47,1.1,0,1.99.36,2.69,1.07.7.71,1.05,1.61,1.05,2.7s-.35,2-1.06,2.72-1.6,1.08-2.67,1.08c-.66,0-1.3-.15-1.9-.45-.6-.3-1.06-.74-1.37-1.32-.31-.58-.47-1.29-.47-2.12ZM475.51,281.64c0,.72.17,1.27.51,1.65s.76.57,1.26.57.92-.19,1.26-.57.51-.94.51-1.66-.17-1.25-.51-1.64c-.34-.38-.76-.57-1.26-.57s-.92.19-1.26.57c-.34.38-.51.93-.51,1.65Z"/>
      <path class="st12" d="M482.44,285.26v-10h1.92v3.6c.59-.67,1.29-1.01,2.1-1.01.88,0,1.61.32,2.19.96s.87,1.56.87,2.75-.29,2.19-.88,2.86c-.59.67-1.3,1-2.15,1-.41,0-.82-.1-1.22-.31s-.75-.51-1.04-.92v1.06h-1.78ZM484.34,281.48c0,.75.12,1.3.35,1.66.33.51.77.76,1.32.76.42,0,.78-.18,1.08-.54s.45-.93.45-1.71c0-.83-.15-1.42-.45-1.79-.3-.37-.68-.55-1.15-.55s-.84.18-1.15.54c-.3.36-.46.9-.46,1.63Z"/>
      <path class="st12" d="M492.49,280.22l-1.74-.31c.2-.7.53-1.22,1.01-1.56.48-.34,1.19-.5,2.13-.5.85,0,1.49.1,1.91.3.42.2.71.46.88.77.17.31.26.88.26,1.71l-.02,2.24c0,.64.03,1.11.09,1.41.06.3.18.63.34.97h-1.9c-.05-.13-.11-.32-.18-.57-.03-.11-.05-.19-.07-.22-.33.32-.68.56-1.05.72s-.77.24-1.19.24c-.75,0-1.33-.2-1.76-.61s-.64-.92-.64-1.53c0-.41.1-.77.29-1.09s.47-.57.82-.74c.35-.17.86-.32,1.52-.45.9-.17,1.52-.33,1.86-.47v-.19c0-.37-.09-.63-.27-.79-.18-.16-.53-.24-1.03-.24-.34,0-.61.07-.8.2-.19.13-.35.37-.46.71ZM495.05,281.78c-.25.08-.63.18-1.17.29-.53.11-.88.22-1.04.33-.25.18-.38.4-.38.67s.1.5.3.7c.2.2.45.29.76.29.34,0,.67-.11.99-.34.23-.17.38-.38.46-.63.05-.16.08-.47.08-.93v-.38Z"/>
      <path class="st12" d="M505.14,280.16l-1.89.34c-.06-.38-.21-.66-.43-.85-.23-.19-.52-.29-.88-.29-.48,0-.86.17-1.14.49-.28.33-.43.88-.43,1.65,0,.86.14,1.47.43,1.82.29.35.68.53,1.16.53.36,0,.66-.1.89-.31.23-.21.4-.56.49-1.07l1.88.32c-.2.86-.57,1.52-1.12,1.96-.55.44-1.3.66-2.23.66-1.06,0-1.9-.33-2.53-1s-.94-1.59-.94-2.78.32-2.13.95-2.79,1.49-1,2.56-1c.88,0,1.58.19,2.1.57s.89.96,1.12,1.74Z"/>
      <path class="st12" d="M509.91,278.01v1.53h-1.31v2.92c0,.59.01.94.04,1.03.03.1.08.18.17.24.09.06.2.09.32.09.18,0,.43-.06.77-.18l.16,1.49c-.45.19-.95.29-1.51.29-.35,0-.66-.06-.93-.17-.28-.12-.48-.27-.61-.45-.13-.18-.22-.43-.27-.75-.04-.22-.06-.67-.06-1.35v-3.16h-.88v-1.53h.88v-1.44l1.92-1.12v2.56h1.31Z"/>
      <path class="st12" d="M515.44,282.95l1.91.32c-.25.7-.63,1.23-1.16,1.6-.53.37-1.19.55-1.99.55-1.26,0-2.19-.41-2.8-1.23-.48-.66-.72-1.49-.72-2.5,0-1.2.31-2.14.94-2.82.63-.68,1.42-1.02,2.38-1.02,1.08,0,1.93.36,2.55,1.07.62.71.92,1.8.89,3.27h-4.8c.01.57.17,1.01.46,1.33.3.32.66.47,1.11.47.3,0,.55-.08.76-.25.2-.16.36-.43.46-.79ZM515.54,281.01c-.01-.55-.16-.98-.43-1.26-.27-.29-.6-.43-1-.43-.42,0-.76.15-1.04.46-.27.3-.41.72-.4,1.24h2.86Z"/>
      <path class="st12" d="M520.84,285.26h-1.92v-7.24h1.78v1.03c.3-.49.58-.81.82-.96s.52-.23.83-.23c.44,0,.86.12,1.26.36l-.59,1.67c-.32-.21-.62-.31-.9-.31s-.5.07-.68.22c-.19.15-.33.41-.44.8-.11.39-.16,1.2-.16,2.43v2.24Z"/>
      <path class="st12" d="M529.76,280.22l-1.74-.31c.2-.7.53-1.22,1.01-1.56.48-.34,1.19-.5,2.13-.5.85,0,1.49.1,1.91.3.42.2.71.46.88.77.17.31.26.88.26,1.71l-.02,2.24c0,.64.03,1.11.09,1.41.06.3.18.63.34.97h-1.9c-.05-.13-.11-.32-.18-.57-.03-.11-.05-.19-.07-.22-.33.32-.68.56-1.05.72s-.77.24-1.19.24c-.75,0-1.33-.2-1.76-.61s-.64-.92-.64-1.53c0-.41.1-.77.29-1.09s.47-.57.82-.74c.35-.17.86-.32,1.52-.45.9-.17,1.52-.33,1.86-.47v-.19c0-.37-.09-.63-.27-.79-.18-.16-.53-.24-1.03-.24-.34,0-.61.07-.8.2-.19.13-.35.37-.46.71ZM532.32,281.78c-.25.08-.63.18-1.17.29-.53.11-.88.22-1.04.33-.25.18-.38.4-.38.67s.1.5.3.7c.2.2.45.29.76.29.34,0,.67-.11.99-.34.23-.17.38-.38.46-.63.05-.16.08-.47.08-.93v-.38Z"/>
      <path class="st12" d="M542.68,285.26h-1.92v-3.7c0-.78-.04-1.29-.12-1.52s-.21-.41-.4-.54c-.18-.13-.41-.19-.67-.19-.33,0-.63.09-.89.27-.26.18-.44.42-.54.72-.1.3-.15.85-.15,1.66v3.28h-1.92v-7.24h1.78v1.06c.63-.82,1.43-1.23,2.39-1.23.42,0,.81.08,1.16.23.35.15.62.35.79.58.18.24.3.5.38.8.07.3.11.73.11,1.29v4.5Z"/>
      <path class="st12" d="M551.27,285.26h-1.78v-1.06c-.3.41-.64.72-1.05.92s-.81.3-1.22.3c-.83,0-1.54-.34-2.14-1.01-.59-.67-.89-1.61-.89-2.81s.29-2.16.87-2.8c.58-.64,1.31-.96,2.19-.96.81,0,1.51.34,2.1,1.01v-3.6h1.92v10ZM546.15,281.48c0,.77.11,1.33.32,1.68.31.5.74.75,1.3.75.44,0,.82-.19,1.12-.56.31-.38.46-.94.46-1.68,0-.83-.15-1.43-.45-1.8-.3-.37-.68-.55-1.15-.55s-.83.18-1.14.54c-.31.36-.46.9-.46,1.62Z"/>
      <path class="st12" d="M428.47,298.77l1.96-.19c.12.66.36,1.14.72,1.45.36.31.85.46,1.46.46.65,0,1.14-.14,1.47-.41.33-.28.49-.6.49-.96,0-.24-.07-.44-.21-.6s-.38-.31-.73-.43c-.24-.08-.77-.23-1.62-.44-1.08-.27-1.84-.6-2.28-.99-.61-.55-.92-1.22-.92-2.01,0-.51.14-.99.43-1.43.29-.44.71-.78,1.25-1.01.54-.23,1.2-.35,1.97-.35,1.25,0,2.2.28,2.83.83.63.55.97,1.29,1,2.2l-2.02.09c-.09-.51-.27-.88-.56-1.11-.28-.23-.71-.34-1.28-.34s-1.05.12-1.38.36c-.21.16-.32.36-.32.62,0,.24.1.44.3.61.25.21.87.44,1.85.67.98.23,1.71.47,2.18.72.47.25.84.59,1.1,1.02s.4.96.4,1.59c0,.57-.16,1.11-.48,1.61-.32.5-.77.87-1.35,1.12s-1.31.37-2.18.37c-1.26,0-2.23-.29-2.91-.88s-1.08-1.44-1.21-2.55Z"/>
      <path class="st12" d="M440.2,292.02v3.68c.62-.72,1.36-1.08,2.22-1.08.44,0,.84.08,1.19.25s.62.37.8.63c.18.25.3.54.37.85.07.31.1.79.1,1.44v4.25h-1.92v-3.83c0-.76-.04-1.24-.11-1.45-.07-.21-.2-.37-.39-.49-.18-.12-.42-.18-.69-.18-.32,0-.6.08-.85.23-.25.15-.43.39-.55.7-.12.31-.17.77-.17,1.38v3.63h-1.92v-10h1.92Z"/>
      <path class="st12" d="M446.82,293.79v-1.77h1.92v1.77h-1.92ZM446.82,302.02v-7.24h1.92v7.24h-1.92Z"/>
      <path class="st12" d="M450.52,302.5l2.19.27c.04.25.12.43.25.53.18.14.47.2.86.2.5,0,.88-.07,1.12-.22.17-.1.3-.26.38-.48.06-.16.09-.45.09-.88v-1.06c-.57.78-1.3,1.17-2.17,1.17-.97,0-1.74-.41-2.31-1.23-.45-.65-.67-1.46-.67-2.43,0-1.21.29-2.14.88-2.78.58-.64,1.31-.96,2.18-.96s1.63.39,2.22,1.18v-1.02h1.79v6.5c0,.85-.07,1.49-.21,1.92-.14.42-.34.75-.59,1-.25.24-.59.43-1.02.57-.43.14-.96.21-1.61.21-1.23,0-2.1-.21-2.61-.63s-.77-.95-.77-1.6c0-.06,0-.14,0-.23ZM452.24,298.25c0,.77.15,1.33.45,1.69.3.36.67.54,1.1.54.47,0,.86-.18,1.19-.55.32-.37.48-.91.48-1.63s-.15-1.31-.46-1.67c-.31-.36-.7-.55-1.17-.55s-.84.18-1.14.54c-.3.36-.45.9-.45,1.63Z"/>
      <path class="st12" d="M463.43,299.71l1.91.32c-.25.7-.63,1.23-1.16,1.6-.53.37-1.19.55-1.99.55-1.26,0-2.19-.41-2.8-1.23-.48-.66-.72-1.49-.72-2.5,0-1.2.31-2.14.94-2.82.63-.68,1.42-1.02,2.38-1.02,1.08,0,1.93.36,2.55,1.07.62.71.92,1.8.89,3.27h-4.8c.01.57.17,1.01.46,1.33.3.32.66.47,1.11.47.3,0,.55-.08.76-.25.2-.16.36-.43.46-.79ZM463.54,297.78c-.01-.55-.16-.98-.43-1.26-.27-.29-.6-.43-1-.43-.42,0-.76.15-1.04.46-.27.3-.41.72-.4,1.24h2.86Z"/>
      <path class="st12" d="M467,302.02v-10h1.92v10h-1.92Z"/>
      <path class="st12" d="M470.88,302.02v-10h1.92v10h-1.92Z"/>
      <path class="st12" d="M476.19,296.99l-1.74-.31c.2-.7.53-1.22,1.01-1.56.48-.34,1.19-.5,2.13-.5.85,0,1.49.1,1.91.3.42.2.71.46.88.77.17.31.26.88.26,1.71l-.02,2.24c0,.64.03,1.11.09,1.41.06.3.18.63.34.97h-1.9c-.05-.13-.11-.32-.18-.57-.03-.11-.05-.19-.07-.22-.33.32-.68.56-1.05.72s-.77.24-1.19.24c-.75,0-1.33-.2-1.76-.61s-.64-.92-.64-1.53c0-.41.1-.77.29-1.09s.47-.57.82-.74c.35-.17.86-.32,1.52-.45.9-.17,1.52-.33,1.86-.47v-.19c0-.37-.09-.63-.27-.79-.18-.16-.53-.24-1.03-.24-.34,0-.61.07-.8.2-.19.13-.35.37-.46.71ZM478.76,298.54c-.25.08-.63.18-1.17.29-.53.11-.88.22-1.04.33-.25.18-.38.4-.38.67s.1.5.3.7c.2.2.45.29.76.29.34,0,.67-.11.99-.34.23-.17.38-.38.46-.63.05-.16.08-.47.08-.93v-.38Z"/>
      <path class="st12" d="M482,304.96c.38-.81.64-1.43.8-1.86.15-.43.3-.93.43-1.49s.23-1.1.29-1.61c.06-.51.1-1.03.1-1.56,0-1.08-.12-2.11-.35-3.07-.23-.97-.66-2.14-1.28-3.52h1.3c.69.98,1.22,2.01,1.6,3.11.38,1.1.57,2.21.57,3.33,0,.95-.15,1.97-.45,3.06-.34,1.22-.9,2.42-1.68,3.61h-1.32Z"/>
    </g>
    <text class="st11" transform="translate(381.57 366.29)"><tspan x="0" y="0">Aeromonas hydrophila</tspan></text>
    <text class="st11" transform="translate(371.04 429.26)"><tspan x="0" y="0">Enterotoxigenic (etiology of </tspan><tspan x="10.7" y="16.76">most travele</tspan><tspan class="st31" x="92.99" y="16.76">r</tspan><tspan class="st29" x="98.94" y="16.76">’</tspan><tspan x="102.57" y="16.76">s diarrhea) </tspan></text>
    <text class="st11" transform="translate(603.43 264.02)"><tspan x="0" y="0">Cefixime 8 mg/kg/day </tspan><tspan x="16.69" y="16.76">orally once daily </tspan></text>
    <text class="st11" transform="translate(603.43 356.25)"><tspan x="0" y="0">Cefixime 8 mg/kg/day </tspan><tspan x="16.69" y="16.76">orally once daily </tspan></text>
    <text class="st11" transform="translate(603.43 428.69)"><tspan x="0" y="0">Cefixime 8 mg/kg/day </tspan><tspan x="16.69" y="16.76">orally once daily </tspan></text>
    <text class="st11" transform="translate(589.46 499.12)"><tspan x="0" y="0">Cefixime 20-30 mg/kg/day </tspan><tspan x="66.76" y="16.76">orally </tspan></text>
    <text class="st11" transform="translate(589.46 568.21)"><tspan x="0" y="0">Cefixime 20-30 mg/kg/day </tspan><tspan x="3.11" y="16.76">orally divided twice daily </tspan></text>
    <text class="st11" transform="translate(603.43 646.37)"><tspan x="0" y="0">Cefixime 8 mg/kg/day </tspan><tspan x="16.69" y="16.76">orally once daily </tspan></text>
    <text class="st11" transform="translate(373.55 497.4)"><tspan x="0" y="0">Salmonellosis, Non-typhoid </tspan><tspan x="69.06" y="16.76">strains </tspan></text>
    <text class="st11" transform="translate(370.88 569.83)"><tspan x="0" y="0">Salmonellosis,</tspan><tspan class="st29" x="97.81" y="0"> </tspan><tspan class="st30" x="101.44" y="0">T</tspan><tspan x="109.2" y="0">yphoid </tspan><tspan x="60.79" y="16.76">fever </tspan></text>
    <text class="st11" transform="translate(427.86 649.58)"><tspan x="0" y="0">Shigellosis </tspan></text>
    <text class="st20" transform="translate(833.27 280.08)"><tspan x="0" y="0">5 days</tspan></text>
    <text class="st20" transform="translate(833.08 439.21)"><tspan x="0" y="0">3 days</tspan></text>
    <text class="st20" transform="translate(821.2 509.73)"><tspan x="0" y="0">5-7 days</tspan></text>
    <text class="st20" transform="translate(821.64 577.29)"><tspan x="0" y="0">14 days</tspan></text>
    <text class="st20" transform="translate(830.29 653.93)"><tspan x="0" y="0">5 days</tspan></text>
    <text class="st13" transform="translate(385.9 203.59)"><tspan x="0" y="0">Clinical diagnosis</tspan></text>
    <text class="st14" transform="translate(640 203.59)"><tspan x="0" y="0">Therapy</tspan></text>
    <text class="st14" transform="translate(805.73 203.59)"><tspan x="0" y="0">Duration</tspan></text>
    <line class="st24" x1="764.2" y1="406.25" x2="764.2" y2="461.19"/>
    <line class="st24" x1="584" y1="406.25" x2="584" y2="461.19"/>
    <line class="st24" x1="764.2" y1="475.44" x2="764.2" y2="530.37"/>
    <line class="st24" x1="584" y1="475.44" x2="584" y2="530.37"/>
    <line class="st24" x1="764.2" y1="544.61" x2="764.2" y2="608.32"/>
    <line class="st24" x1="584" y1="544.61" x2="584" y2="608.32"/>
    <line class="st24" x1="764.2" y1="621.63" x2="764.2" y2="676.57"/>
    <line class="st24" x1="584" y1="621.81" x2="584" y2="676.57"/>
  </g>
  <g class="st27">
    <rect class="st25" x="1214.88" y="705.55" width="39.06" height="39.06" rx="8.38" ry="8.38"/>
    <path class="st28" d="M1248.89,722.61l-4.97-4.97v-6.89c0-.24-.19-.43-.43-.43h-3.07c-.24,0-.43.19-.43.43v2.96l-4.53-4.53c-.58-.57-1.51-.57-2.08,0l-13.45,13.44c-.87.87-.35,2.36.87,2.5l2.17.25v14.55c0,.81.66,1.47,1.47,1.47h6.34v-10.56c0-.71.57-1.28,1.28-1.28h4.7c.71,0,1.28.57,1.28,1.28v10.56h6.34c.81,0,1.47-.66,1.47-1.47v-14.56l2.17-.26c1.22-.14,1.74-1.64.87-2.5Z"/>
  </g>
</svg>