<?xml version="1.0" encoding="UTF-8"?>
<svg id="Layer_1" xmlns="http://www.w3.org/2000/svg" xmlns:xlink="http://www.w3.org/1999/xlink" version="1.1" viewBox="0 0 1280 768">
  <!-- Generator: Adobe Illustrator 30.0.0, SVG Export Plug-In . SVG Version: 2.1.1 Build 123)  -->
  <defs>
    <style>
      .st0 {
        filter: url(#drop-shadow-15);
      }

      .st0, .st1, .st2, .st3, .st4, .st5, .st6, .st7, .st8, .st9, .st10, .st11, .st12, .st13, .st14, .st15, .st16, .st17, .st18, .st19, .st20, .st21, .st22, .st23 {
        stroke-miterlimit: 10;
      }

      .st0, .st1, .st2, .st3, .st4, .st5, .st6, .st7, .st8, .st12, .st15, .st16, .st17, .st18, .st19, .st20 {
        stroke: #231f20;
      }

      .st0, .st1, .st2, .st3, .st4, .st5, .st6, .st7, .st8, .st15, .st16, .st17, .st18, .st19, .st20 {
        fill: #f1f1f2;
        stroke-width: .34px;
      }

      .st1 {
        filter: url(#drop-shadow-16);
      }

      .st2 {
        filter: url(#drop-shadow-13);
      }

      .st3 {
        filter: url(#drop-shadow-18);
      }

      .st4 {
        filter: url(#drop-shadow-11);
      }

      .st5 {
        filter: url(#drop-shadow-12);
      }

      .st6 {
        filter: url(#drop-shadow-10);
      }

      .st7 {
        filter: url(#drop-shadow-14);
      }

      .st8 {
        filter: url(#drop-shadow-17);
      }

      .st24 {
        filter: url(#drop-shadow-3);
      }

      .st25 {
        fill: url(#linear-gradient9);
      }

      .st26 {
        fill: url(#linear-gradient3);
      }

      .st27 {
        fill: url(#linear-gradient6);
      }

      .st28 {
        fill: url(#linear-gradient8);
      }

      .st29 {
        fill: url(#linear-gradient7);
      }

      .st30 {
        fill: url(#linear-gradient5);
      }

      .st31 {
        fill: url(#linear-gradient4);
      }

      .st32, .st33 {
        fill: #2b388f;
      }

      .st34 {
        fill: url(#linear-gradient18);
      }

      .st35 {
        fill: url(#linear-gradient13);
      }

      .st36 {
        fill: url(#linear-gradient12);
      }

      .st37 {
        fill: url(#linear-gradient15);
      }

      .st38 {
        fill: url(#linear-gradient16);
      }

      .st39 {
        fill: url(#linear-gradient11);
      }

      .st40 {
        fill: url(#linear-gradient10);
      }

      .st41 {
        fill: url(#linear-gradient17);
      }

      .st42 {
        fill: url(#linear-gradient14);
      }

      .st43 {
        fill: url(#linear-gradient19);
      }

      .st44 {
        fill: url(#linear-gradient22);
      }

      .st45 {
        font-size: 10.48px;
      }

      .st45, .st46, .st47, .st48, .st49, .st50 {
        font-family: MyriadPro-Bold, 'Myriad Pro';
        font-weight: 700;
      }

      .st45, .st46, .st49, .st50 {
        fill: #231f20;
      }

      .st51 {
        fill: url(#radial-gradient);
      }

      .st52 {
        fill: url(#linear-gradient);
      }

      .st46 {
        font-size: 12.26px;
      }

      .st9 {
        fill: url(#linear-gradient20);
      }

      .st9, .st10 {
        stroke-width: .69px;
      }

      .st9, .st10, .st11 {
        stroke: #fff;
      }

      .st10 {
        fill: url(#linear-gradient21);
      }

      .st11 {
        stroke-width: 3.95px;
      }

      .st11, .st53 {
        fill: #243a78;
      }

      .st12 {
        fill: none;
        stroke-width: 1.38px;
      }

      .st54 {
        filter: url(#drop-shadow-19);
      }

      .st55 {
        filter: url(#drop-shadow-44);
      }

      .st56 {
        fill: #000b8c;
      }

      .st13 {
        stroke: url(#linear-gradient2);
      }

      .st13, .st14 {
        stroke-width: 5.19px;
      }

      .st13, .st14, .st48, .st21, .st22, .st57, .st58 {
        fill: #fff;
      }

      .st14 {
        stroke: url(#linear-gradient1);
      }

      .st47 {
        fill: #009345;
        font-size: 22.13px;
      }

      .st33 {
        font-family: MyriadPro-Regular, 'Myriad Pro';
        font-size: 13px;
      }

      .st48 {
        font-size: 30px;
      }

      .st15 {
        filter: url(#drop-shadow-9);
      }

      .st16 {
        filter: url(#drop-shadow-8);
      }

      .st17 {
        filter: url(#drop-shadow-6);
      }

      .st18 {
        filter: url(#drop-shadow-5);
      }

      .st19 {
        filter: url(#drop-shadow-4);
      }

      .st20 {
        filter: url(#drop-shadow-7);
      }

      .st21, .st22 {
        stroke: #2b388f;
        stroke-width: 2.63px;
      }

      .st21, .st22, .st57, .st58 {
        font-family: BerkshireSwash-Regular, 'Berkshire Swash';
      }

      .st21, .st57 {
        font-size: 34.66px;
      }

      .st22, .st58 {
        font-size: 27.67px;
      }

      .st49 {
        font-size: 9.54px;
      }

      .st23 {
        fill: url(#radial-gradient1);
        stroke: #000b8c;
        stroke-width: 1.6px;
      }

      .st50 {
        font-size: 16px;
      }
    </style>
    <radialGradient id="radial-gradient" cx="640.19" cy="384" fx="640.19" fy="384" r="527.76" gradientUnits="userSpaceOnUse">
      <stop offset="0" stop-color="#fff"/>
      <stop offset="1" stop-color="#edffff"/>
    </radialGradient>
    <filter id="drop-shadow-3" x="35.15" y="676.63" width="153.04" height="81.56" filterUnits="userSpaceOnUse">
      <feOffset dx="3.73" dy="3.73"/>
      <feGaussianBlur result="blur" stdDeviation="3.73"/>
      <feFlood flood-color="#231f20" flood-opacity=".4"/>
      <feComposite in2="blur" operator="in"/>
      <feComposite in="SourceGraphic"/>
    </filter>
    <linearGradient id="linear-gradient" x1="1746.41" y1="144.76" x2="582.78" y2="140.1" gradientUnits="userSpaceOnUse">
      <stop offset="0" stop-color="#fff" stop-opacity="0"/>
      <stop offset=".68" stop-color="#2b388f"/>
    </linearGradient>
    <linearGradient id="linear-gradient1" x1="4154.13" y1="2362.64" x2="4365.86" y2="2362.64" gradientTransform="translate(-3647.65 -1811.1)" gradientUnits="userSpaceOnUse">
      <stop offset="0" stop-color="#00b4bd"/>
      <stop offset="1" stop-color="#8bc53f"/>
    </linearGradient>
    <linearGradient id="linear-gradient2" x1="239.04" y1="402.27" x2="987.97" y2="402.27" gradientTransform="matrix(1,0,0,1,0,0)" xlink:href="#linear-gradient1"/>
    <filter id="drop-shadow-4" x="341.11" y="413.67" width="48.72" height="112.32" filterUnits="userSpaceOnUse">
      <feOffset dx="2.76" dy="2.76"/>
      <feGaussianBlur result="blur1" stdDeviation="4.14"/>
      <feFlood flood-color="#000" flood-opacity=".75"/>
      <feComposite in2="blur1" operator="in"/>
      <feComposite in="SourceGraphic"/>
    </filter>
    <linearGradient id="linear-gradient3" x1="352.17" y1="467.06" x2="373.13" y2="467.06" gradientUnits="userSpaceOnUse">
      <stop offset="0" stop-color="#ee5b98"/>
      <stop offset="1" stop-color="#7b5ba5"/>
    </linearGradient>
    <filter id="drop-shadow-5" x="317.35" y="448.95" width="48.48" height="77.04" filterUnits="userSpaceOnUse">
      <feOffset dx="2.76" dy="2.76"/>
      <feGaussianBlur result="blur2" stdDeviation="4.14"/>
      <feFlood flood-color="#000" flood-opacity=".75"/>
      <feComposite in2="blur2" operator="in"/>
      <feComposite in="SourceGraphic"/>
    </filter>
    <linearGradient id="linear-gradient4" x1="328.29" y1="484.77" x2="349.25" y2="484.77" gradientUnits="userSpaceOnUse">
      <stop offset="0" stop-color="#fbb357"/>
      <stop offset=".99" stop-color="#f16f8c"/>
      <stop offset="1" stop-color="#f16f8c"/>
    </linearGradient>
    <filter id="drop-shadow-6" x="471.19" y="342.87" width="48.48" height="183.12" filterUnits="userSpaceOnUse">
      <feOffset dx="2.76" dy="2.76"/>
      <feGaussianBlur result="blur3" stdDeviation="4.14"/>
      <feFlood flood-color="#000" flood-opacity=".75"/>
      <feComposite in2="blur3" operator="in"/>
      <feComposite in="SourceGraphic"/>
    </filter>
    <linearGradient id="linear-gradient5" x1="482.11" y1="431.63" x2="503.07" y2="431.63" xlink:href="#linear-gradient3"/>
    <filter id="drop-shadow-7" x="447.19" y="448.95" width="48.48" height="77.04" filterUnits="userSpaceOnUse">
      <feOffset dx="2.76" dy="2.76"/>
      <feGaussianBlur result="blur4" stdDeviation="4.14"/>
      <feFlood flood-color="#000" flood-opacity=".75"/>
      <feComposite in2="blur4" operator="in"/>
      <feComposite in="SourceGraphic"/>
    </filter>
    <linearGradient id="linear-gradient6" x1="458.23" x2="479.19" xlink:href="#linear-gradient4"/>
    <filter id="drop-shadow-8" x="600.31" y="395.91" width="48.48" height="130.08" filterUnits="userSpaceOnUse">
      <feOffset dx="2.76" dy="2.76"/>
      <feGaussianBlur result="blur5" stdDeviation="4.14"/>
      <feFlood flood-color="#000" flood-opacity=".75"/>
      <feComposite in2="blur5" operator="in"/>
      <feComposite in="SourceGraphic"/>
    </filter>
    <linearGradient id="linear-gradient7" x1="611.31" y1="458.2" x2="632.27" y2="458.2" xlink:href="#linear-gradient3"/>
    <filter id="drop-shadow-9" x="576.31" y="469.59" width="48.72" height="56.4" filterUnits="userSpaceOnUse">
      <feOffset dx="2.76" dy="2.76"/>
      <feGaussianBlur result="blur6" stdDeviation="4.14"/>
      <feFlood flood-color="#000" flood-opacity=".75"/>
      <feComposite in2="blur6" operator="in"/>
      <feComposite in="SourceGraphic"/>
    </filter>
    <linearGradient id="linear-gradient8" x1="587.42" y1="494.99" x2="608.38" y2="494.99" xlink:href="#linear-gradient4"/>
    <filter id="drop-shadow-10" x="730.15" y="360.39" width="48.72" height="165.6" filterUnits="userSpaceOnUse">
      <feOffset dx="2.76" dy="2.76"/>
      <feGaussianBlur result="blur7" stdDeviation="4.14"/>
      <feFlood flood-color="#000" flood-opacity=".75"/>
      <feComposite in2="blur7" operator="in"/>
      <feComposite in="SourceGraphic"/>
    </filter>
    <linearGradient id="linear-gradient9" x1="741.24" y1="440.49" x2="762.2" y2="440.49" xlink:href="#linear-gradient3"/>
    <filter id="drop-shadow-11" x="706.39" y="425.91" width="48.48" height="100.08" filterUnits="userSpaceOnUse">
      <feOffset dx="2.76" dy="2.76"/>
      <feGaussianBlur result="blur8" stdDeviation="4.14"/>
      <feFlood flood-color="#000" flood-opacity=".75"/>
      <feComposite in2="blur8" operator="in"/>
      <feComposite in="SourceGraphic"/>
    </filter>
    <linearGradient id="linear-gradient10" x1="717.36" y1="473.19" x2="738.32" y2="473.19" xlink:href="#linear-gradient4"/>
    <filter id="drop-shadow-12" x="365.11" y="489.99" width="48.72" height="36" filterUnits="userSpaceOnUse">
      <feOffset dx="2.76" dy="2.76"/>
      <feGaussianBlur result="blur9" stdDeviation="4.14"/>
      <feFlood flood-color="#000" flood-opacity=".75"/>
      <feComposite in2="blur9" operator="in"/>
      <feComposite in="SourceGraphic"/>
    </filter>
    <linearGradient id="linear-gradient11" x1="376.18" y1="505.21" x2="397.14" y2="505.21" gradientUnits="userSpaceOnUse">
      <stop offset="0" stop-color="#ff1d25"/>
      <stop offset=".62" stop-color="#f26b70"/>
    </linearGradient>
    <filter id="drop-shadow-13" x="389.59" y="494.07" width="48.48" height="31.92" filterUnits="userSpaceOnUse">
      <feOffset dx="2.76" dy="2.76"/>
      <feGaussianBlur result="blur10" stdDeviation="4.14"/>
      <feFlood flood-color="#000" flood-opacity=".75"/>
      <feComposite in2="blur10" operator="in"/>
      <feComposite in="SourceGraphic"/>
    </filter>
    <linearGradient id="linear-gradient12" x1="400.56" y1="507.26" x2="421.52" y2="507.26" gradientUnits="userSpaceOnUse">
      <stop offset="0" stop-color="#bdccd4"/>
      <stop offset=".62" stop-color="#f5ead8"/>
    </linearGradient>
    <filter id="drop-shadow-14" x="861.19" y="390.39" width="48.72" height="135.6" filterUnits="userSpaceOnUse">
      <feOffset dx="2.76" dy="2.76"/>
      <feGaussianBlur result="blur11" stdDeviation="4.14"/>
      <feFlood flood-color="#000" flood-opacity=".75"/>
      <feComposite in2="blur11" operator="in"/>
      <feComposite in="SourceGraphic"/>
    </filter>
    <linearGradient id="linear-gradient13" x1="872.29" y1="455.48" x2="893.25" y2="455.48" xlink:href="#linear-gradient3"/>
    <filter id="drop-shadow-15" x="837.43" y="448.95" width="48.48" height="77.04" filterUnits="userSpaceOnUse">
      <feOffset dx="2.76" dy="2.76"/>
      <feGaussianBlur result="blur12" stdDeviation="4.14"/>
      <feFlood flood-color="#000" flood-opacity=".75"/>
      <feComposite in2="blur12" operator="in"/>
      <feComposite in="SourceGraphic"/>
    </filter>
    <linearGradient id="linear-gradient14" x1="848.41" x2="869.37" xlink:href="#linear-gradient4"/>
    <filter id="drop-shadow-16" x="885.19" y="495.27" width="48.72" height="30.72" filterUnits="userSpaceOnUse">
      <feOffset dx="2.76" dy="2.76"/>
      <feGaussianBlur result="blur13" stdDeviation="4.14"/>
      <feFlood flood-color="#000" flood-opacity=".75"/>
      <feComposite in2="blur13" operator="in"/>
      <feComposite in="SourceGraphic"/>
    </filter>
    <linearGradient id="linear-gradient15" x1="896.3" y1="508.43" x2="917.26" y2="508.43" xlink:href="#linear-gradient11"/>
    <filter id="drop-shadow-17" x="909.67" y="492.63" width="48.48" height="33.36" filterUnits="userSpaceOnUse">
      <feOffset dx="2.76" dy="2.76"/>
      <feGaussianBlur result="blur14" stdDeviation="4.14"/>
      <feFlood flood-color="#000" flood-opacity=".75"/>
      <feComposite in2="blur14" operator="in"/>
      <feComposite in="SourceGraphic"/>
    </filter>
    <linearGradient id="linear-gradient16" x1="920.68" y1="506.58" x2="941.64" y2="506.58" xlink:href="#linear-gradient12"/>
    <filter id="drop-shadow-18" x="777.91" y="480.39" width="48.72" height="45.6" filterUnits="userSpaceOnUse">
      <feOffset dx="2.76" dy="2.76"/>
      <feGaussianBlur result="blur15" stdDeviation="4.14"/>
      <feFlood flood-color="#000" flood-opacity=".75"/>
      <feComposite in2="blur15" operator="in"/>
      <feComposite in="SourceGraphic"/>
    </filter>
    <linearGradient id="linear-gradient17" x1="789.01" y1="500.44" x2="809.97" y2="500.44" xlink:href="#linear-gradient12"/>
    <linearGradient id="linear-gradient18" x1="458.78" y1="562.09" x2="469.42" y2="562.09" xlink:href="#linear-gradient4"/>
    <linearGradient id="linear-gradient19" x1="548.37" y1="562.09" x2="559.01" y2="562.09" xlink:href="#linear-gradient3"/>
    <linearGradient id="linear-gradient20" x1="629.55" y1="562.09" x2="640.19" y2="562.09" xlink:href="#linear-gradient11"/>
    <linearGradient id="linear-gradient21" x1="706.64" y1="562.09" x2="717.28" y2="562.09" xlink:href="#linear-gradient12"/>
    <filter id="drop-shadow-19" x="295.47" y="233.63" width="675.36" height="290.64" filterUnits="userSpaceOnUse">
      <feOffset dx="0" dy="0"/>
      <feGaussianBlur result="blur16" stdDeviation="3.91"/>
      <feFlood flood-color="#000" flood-opacity=".4"/>
      <feComposite in2="blur16" operator="in"/>
      <feComposite in="SourceGraphic"/>
    </filter>
    <linearGradient id="linear-gradient22" x1="307.24" y1="378.98" x2="958.96" y2="378.98" gradientUnits="userSpaceOnUse">
      <stop offset="0" stop-color="#000038"/>
      <stop offset="1" stop-color="#2b388f"/>
    </linearGradient>
    <filter id="drop-shadow-44" x="1214.08" y="704.75" width="40.65" height="40.65" filterUnits="userSpaceOnUse">
      <feOffset dx="5.59" dy="5.59"/>
      <feGaussianBlur result="blur17" stdDeviation="3.99"/>
      <feFlood flood-color="#000" flood-opacity=".75"/>
      <feComposite in2="blur17" operator="in"/>
      <feComposite in="SourceGraphic"/>
    </filter>
    <radialGradient id="radial-gradient1" cx="1234.41" cy="725.08" fx="1234.41" fy="725.08" r="19.53" gradientUnits="userSpaceOnUse">
      <stop offset="0" stop-color="#fff"/>
      <stop offset="1" stop-color="#f1f1f1"/>
    </radialGradient>
  </defs>
  <g>
    <rect class="st51" x=".19" width="1280" height="768"/>
    <g class="st24">
      <text class="st21" transform="translate(68.38 711.56) rotate(-.27)"><tspan x="0" y="0">Eternal </tspan></text>
      <g>
        <g>
          <path class="st11" d="M65.16,714.95c-.11.14-.15.32-.11.5l2.71,12.04c.06.27.3.46.58.46h.57c.9-2.06,1.4-4.34,1.39-6.73-.01-2.31-.5-4.51-1.36-6.51l-3.32.02c-.18,0-.35.08-.46.22Z"/>
          <path class="st11" d="M39.73,728.11l2.6-12.07c.04-.17,0-.36-.12-.5-.11-.14-.28-.22-.46-.22l-3.52.02c-.72,1.87-1.11,3.9-1.1,6.03.01,2.58.61,5.03,1.68,7.2h.35c.28,0,.52-.2.57-.47Z"/>
          <path class="st11" d="M65.9,724.41l-2.02-8.85c-.12-.54-.61-.92-1.16-.92-.02,0-.05,0-.07,0l-7.09.47c-.27.02-.52.13-.72.31l-.29.26-.31-.28c-.22-.2-.5-.3-.79-.3h-2.94s-5.96.04-5.96.04c-.55,0-1.03.39-1.15.93l-2.05,9.38c-.08.38.02.77.28,1.05.23.25.54.38.87.38.05,0,.1,0,.15-.01l2.8-.37,7.52,5.81.78.72c.23.21.52.31.81.31.08,0,.15,0,.23-.02.26-.02.51-.13.71-.32l5.35-5.04,2.64-2.44.93.27c.11.03.22.05.33.05.3,0,.58-.11.81-.32.3-.29.43-.71.34-1.12ZM61.27,725.96s-.04-.04-.06-.06l-5.08-4.65c-.24-.22-.61-.2-.83.04-.22.24-.2.61.04.83l5.08,4.64-.37.35-.83.78s0,0,0-.01c-.03-.04-.06-.08-.1-.11l-4.22-3.72c-.24-.22-.62-.19-.83.05-.22.24-.19.62.05.83l4.22,3.72s.02.01.02.02c0,0,.01,0,.02.01l-1.22,1.15s-.01-.02-.02-.04c-.03-.05-.07-.1-.12-.15l-3.46-3.05c-.24-.22-.62-.19-.83.05-.22.24-.19.62.05.83l3.46,3.05s.04.03.05.04c.02.01.03.02.05.03l-.56.52s-.02-.04-.03-.06c-.04-.08-.09-.16-.17-.22l-.84-.67c-.25-.2-.63-.16-.83.09l-.6.75-.03.04-.5-.39.07-.08.59-.74c.2-.26.16-.63-.09-.83l-.84-.67c-.26-.2-.63-.16-.83.09l-.48.61-.19.24-.5-.39.22-.28.6-.76c.2-.26.16-.63-.09-.83l-.84-.67c-.25-.2-.63-.16-.83.09l-.5.63-.35.44-.31-.24-.19-.15s.01,0,.02-.01c.05-.03.09-.07.13-.11l.26-.33.62-.78c.2-.26.16-.63-.09-.83l-.84-.67c-.26-.2-.63-.16-.83.09l-.51.65-.37.46s0,0,0,0c-.05.06-.08.13-.1.2l-.71-.55-.33.04-2.96.39,2.05-9.38,5.96-.03h2.94s.23.19.23.19l.1.09-1.84,2.31-.75.95s-.35.39-.32.84c.01.16.07.32.22.48.68.74,2.23.16,2.23.16l1.92-2.31s.25-.33.69-.5l6.79,6.1-1.44,1.36Z"/>
        </g>
        <path class="st11" d="M54.96,755.22l1.79-19.93c.03-.29-.06-.58-.24-.79-.18-.21-.43-.32-.68-.3l-3.96.49c-.72,3.13-.96,6.48-.62,9.93.41,4.19.68,8.08,2.49,11.47l.48-.05c.39-.04.69-.38.73-.83Z"/>
      </g>
      <text class="st22" transform="translate(66.18 747.4) rotate(-.27)"><tspan x="0" y="0">rust</tspan></text>
      <text class="st57" transform="translate(68.38 711.56) rotate(-.27)"><tspan x="0" y="0">Eternal </tspan></text>
      <g>
        <g>
          <path class="st53" d="M65.16,714.95c-.11.14-.15.32-.11.5l2.71,12.04c.06.27.3.46.58.46h.57c.9-2.06,1.4-4.34,1.39-6.73-.01-2.31-.5-4.51-1.36-6.51l-3.32.02c-.18,0-.35.08-.46.22Z"/>
          <path class="st53" d="M39.73,728.11l2.6-12.07c.04-.17,0-.36-.12-.5-.11-.14-.28-.22-.46-.22l-3.52.02c-.72,1.87-1.11,3.9-1.1,6.03.01,2.58.61,5.03,1.68,7.2h.35c.28,0,.52-.2.57-.47Z"/>
          <path class="st53" d="M65.9,724.41l-2.02-8.85c-.12-.54-.61-.92-1.16-.92-.02,0-.05,0-.07,0l-7.09.47c-.27.02-.52.13-.72.31l-.29.26-.31-.28c-.22-.2-.5-.3-.79-.3h-2.94s-5.96.04-5.96.04c-.55,0-1.03.39-1.15.93l-2.05,9.38c-.08.38.02.77.28,1.05.23.25.54.38.87.38.05,0,.1,0,.15-.01l2.8-.37,7.52,5.81.78.72c.23.21.52.31.81.31.08,0,.15,0,.23-.02.26-.02.51-.13.71-.32l5.35-5.04,2.64-2.44.93.27c.11.03.22.05.33.05.3,0,.58-.11.81-.32.3-.29.43-.71.34-1.12ZM61.27,725.96s-.04-.04-.06-.06l-5.08-4.65c-.24-.22-.61-.2-.83.04-.22.24-.2.61.04.83l5.08,4.64-.37.35-.83.78s0,0,0-.01c-.03-.04-.06-.08-.1-.11l-4.22-3.72c-.24-.22-.62-.19-.83.05-.22.24-.19.62.05.83l4.22,3.72s.02.01.02.02c0,0,.01,0,.02.01l-1.22,1.15s-.01-.02-.02-.04c-.03-.05-.07-.1-.12-.15l-3.46-3.05c-.24-.22-.62-.19-.83.05-.22.24-.19.62.05.83l3.46,3.05s.04.03.05.04c.02.01.03.02.05.03l-.56.52s-.02-.04-.03-.06c-.04-.08-.09-.16-.17-.22l-.84-.67c-.25-.2-.63-.16-.83.09l-.6.75-.03.04-.5-.39.07-.08.59-.74c.2-.26.16-.63-.09-.83l-.84-.67c-.26-.2-.63-.16-.83.09l-.48.61-.19.24-.5-.39.22-.28.6-.76c.2-.26.16-.63-.09-.83l-.84-.67c-.25-.2-.63-.16-.83.09l-.5.63-.35.44-.31-.24-.19-.15s.01,0,.02-.01c.05-.03.09-.07.13-.11l.26-.33.62-.78c.2-.26.16-.63-.09-.83l-.84-.67c-.26-.2-.63-.16-.83.09l-.51.65-.37.46s0,0,0,0c-.05.06-.08.13-.1.2l-.71-.55-.33.04-2.96.39,2.05-9.38,5.96-.03h2.94s.23.19.23.19l.1.09-1.84,2.31-.75.95s-.35.39-.32.84c.01.16.07.32.22.48.68.74,2.23.16,2.23.16l1.92-2.31s.25-.33.69-.5l6.79,6.1-1.44,1.36Z"/>
        </g>
        <path class="st53" d="M54.96,755.22l1.79-19.93c.03-.29-.06-.58-.24-.79-.18-.21-.43-.32-.68-.3l-3.96.49c-.72,3.13-.96,6.48-.62,9.93.41,4.19.68,8.08,2.49,11.47l.48-.05c.39-.04.69-.38.73-.83Z"/>
      </g>
      <text class="st58" transform="translate(66.18 747.4) rotate(-.27)"><tspan x="0" y="0">rust</tspan></text>
    </g>
    <g>
      <path class="st32" d="M1279.57,723.58H292.26c-13.32,0-26.65-.17-39.97,0-.58,0-1.17,0-1.75,0-1.93,0-1.93,3,0,3h987.31c13.32,0,26.65.17,39.97,0,.58,0,1.17,0,1.75,0,1.93,0,1.93-3,0-3h0Z"/>
      <circle class="st32" cx="238.79" cy="725.53" r="4.9"/>
      <circle class="st32" cx="224.83" cy="725.53" r="4.9"/>
      <circle class="st32" cx="210.87" cy="725.53" r="4.9"/>
    </g>
    <g>
      <path class="st32" d="M.19,55.81h994.39c13.43,0,26.88.17,40.31,0,.59,0,1.18,0,1.76,0,1.93,0,1.93-3,0-3H42.26c-13.43,0-26.88-.17-40.31,0-.59,0-1.18,0-1.76,0-1.93,0-1.93,3,0,3H.19Z"/>
      <circle class="st32" cx="1048.41" cy="53.86" r="4.9"/>
      <circle class="st32" cx="1062.37" cy="53.86" r="4.9"/>
      <circle class="st32" cx="1076.32" cy="53.86" r="4.9"/>
    </g>
    <g>
      <path class="st53" d="M1154.57,56.45c-.16-4.27-.32-9.38-.32-14.6h-.11c-1.16,4.53-2.64,9.6-4.01,13.76l-4.32,13.87h-6.27l-3.79-13.71c-1.16-4.22-2.32-9.23-3.22-13.92h-.1c-.16,4.8-.37,10.28-.58,14.71l-.69,13.5h-7.44l2.27-35.53h10.7l3.48,11.92c1.16,4.06,2.21,8.49,3,12.65h.21c.95-4.11,2.16-8.75,3.37-12.76l3.74-11.81h10.54l1.9,35.53h-7.8l-.58-13.6Z"/>
      <path class="st53" d="M1171.03,40.9c-2.69,0-4.43-1.9-4.43-4.27s1.79-4.27,4.53-4.27,4.43,1.85,4.48,4.27c0,2.37-1.74,4.27-4.53,4.27h-.05ZM1167.07,44.27h8.01v25.78h-8.01v-25.78Z"/>
      <path class="st53" d="M1185.58,44.27l2.53,4.32c.74,1.32,1.42,2.58,2.11,3.85h.11c.69-1.42,1.32-2.69,2-4.01l2.27-4.16h8.7l-8.49,12.28,8.59,13.5h-9.07l-2.58-4.64c-.74-1.27-1.42-2.58-2-3.9h-.16c-.63,1.37-1.32,2.64-1.95,3.9l-2.42,4.64h-8.81l8.75-13.13-8.54-12.65h8.96Z"/>
      <path class="st53" d="M1208.67,40.9c-2.69,0-4.43-1.9-4.43-4.27s1.79-4.27,4.53-4.27,4.43,1.85,4.48,4.27c0,2.37-1.74,4.27-4.53,4.27h-.05ZM1204.72,44.27h8.01v25.78h-8.01v-25.78Z"/>
      <path class="st53" d="M1218.06,70.05v-19.87h-3.43v-5.9h3.43v-1c0-3.11.95-6.54,3.22-8.65,2.05-1.9,4.8-2.58,7.17-2.58,1.74,0,3.11.26,4.22.53l-.32,6.17c-.69-.21-1.53-.37-2.58-.37-2.64,0-3.74,2.06-3.74,4.59v1.32h5.17v5.9h-5.11v19.87h-8.01Z"/>
      <path class="st53" d="M1187.2,80.91c-.37.19-1.13.38-2.1.38-2.25,0-3.93-1.42-3.93-4.04s1.69-4.19,4.16-4.19c.98,0,1.62.21,1.89.35l-.26.84c-.38-.19-.94-.33-1.6-.33-1.87,0-3.11,1.2-3.11,3.29,0,1.96,1.12,3.21,3.05,3.21.64,0,1.28-.13,1.69-.33l.2.83Z"/>
      <path class="st53" d="M1189.5,78.47c.02,1.41.91,1.99,1.95,1.99.75,0,1.21-.13,1.59-.29l.19.73c-.37.16-1,.37-1.92.37-1.75,0-2.81-1.17-2.81-2.88s1.03-3.1,2.7-3.1c1.87,0,2.35,1.64,2.35,2.7,0,.21,0,.38-.03.5h-4.01ZM1192.54,77.73c0-.65-.27-1.69-1.43-1.69-1.06,0-1.51.97-1.6,1.69h3.03Z"/>
      <path class="st53" d="M1195.52,81.16v-4.93h-.79v-.79h.79v-.27c0-.8.19-1.54.68-2,.39-.38.91-.53,1.38-.53.38,0,.69.08.89.16l-.13.81c-.17-.07-.37-.13-.67-.13-.88,0-1.11.78-1.11,1.66v.31h1.38v.79h-1.37v4.93h-1.04Z"/>
      <path class="st53" d="M1199.97,74.38c-.39,0-.65-.31-.65-.67s.27-.66.67-.66.66.3.66.66-.26.67-.67.67h-.01ZM1199.47,75.43h1.04v5.72h-1.04v-5.72Z"/>
      <path class="st53" d="M1203.3,75.43l.82,1.22c.21.33.39.62.58.94h.03c.19-.33.38-.63.58-.94l.79-1.22h1.14l-1.95,2.77,2,2.96h-1.18l-.84-1.29c-.22-.33-.41-.65-.61-.99h-.02c-.19.34-.39.65-.6.99l-.83,1.29h-1.15l2.03-2.92-1.94-2.8h1.16Z"/>
      <path class="st53" d="M1209.38,74.38c-.39,0-.65-.31-.65-.67s.27-.66.68-.66.66.3.66.66-.26.67-.68.67h-.01ZM1208.88,75.43h1.04v5.72h-1.04v-5.72Z"/>
      <path class="st53" d="M1212.23,76.98c0-.6-.02-1.07-.05-1.55h.91l.05.92h.03c.32-.54.85-1.05,1.81-1.05.77,0,1.36.47,1.61,1.15h.02c.18-.33.41-.57.65-.74.34-.26.71-.4,1.25-.4.77,0,1.89.5,1.89,2.48v3.37h-1.02v-3.24c0-1.11-.42-1.76-1.24-1.76-.6,0-1.05.44-1.24.93-.05.15-.08.35-.08.52v3.55h-1.02v-3.43c0-.92-.4-1.57-1.2-1.57-.64,0-1.12.52-1.29,1.04-.06.15-.08.33-.08.51v3.45h-1.02v-4.18Z"/>
      <path class="st53" d="M1223.27,78.47c.02,1.41.91,1.99,1.95,1.99.74,0,1.21-.13,1.58-.29l.19.73c-.37.16-1,.37-1.92.37-1.75,0-2.81-1.17-2.81-2.88s1.03-3.1,2.7-3.1c1.87,0,2.36,1.64,2.36,2.7,0,.21-.01.38-.04.5h-4.01ZM1226.31,77.73c0-.65-.27-1.69-1.43-1.69-1.06,0-1.51.97-1.6,1.69h3.03Z"/>
      <path class="st53" d="M1241.53,32.72c2.32,0,4.17,1.89,4.17,4.21s-1.85,4.23-4.19,4.23-4.21-1.87-4.21-4.23,1.89-4.21,4.21-4.21h.02ZM1241.49,33.56c-1.76,0-3.18,1.52-3.18,3.39s1.42,3.37,3.2,3.37c1.78.02,3.22-1.48,3.22-3.37s-1.44-3.39-3.22-3.39h-.02ZM1240.78,39.38h-.99v-4.68c.37-.06.79-.13,1.5-.13.8,0,1.29.13,1.61.37.26.21.41.52.41,1.01,0,.56-.39.95-.9,1.09v.04c.41.07.67.45.75,1.14.09.73.19,1.01.26,1.16h-1.03c-.11-.17-.19-.58-.28-1.22-.07-.51-.37-.71-.88-.71h-.45v1.93ZM1240.78,36.69h.47c.58,0,1.03-.19,1.03-.67,0-.39-.28-.69-.95-.69-.24,0-.41,0-.54.02v1.35Z"/>
    </g>
  </g>
  <rect class="st52" x="0" y="97.49" width="1280.38" height="85.68"/>
  <g>
    <text class="st48" transform="translate(33.27 131.98)"><tspan x="0" y="0">Cefixime is effective against Haemophilus influenzae which is the most frequently identified </tspan><tspan x="0" y="36">pathogen in Recurrent Otitis Media</tspan></text>
    <text class="st48" transform="translate(501.99 157.99) scale(.58)"><tspan x="0" y="0">1,9</tspan></text>
  </g>
  <rect class="st14" x="509.08" y="202.09" width="206.53" height="698.91" rx="12" ry="12" transform="translate(1163.89 -60.8) rotate(90)"/>
  <g>
    <rect class="st13" x="241.64" y="226.54" width="743.74" height="351.47" rx="12" ry="12"/>
    <g>
      <g>
        <g>
          <path class="st19" d="M353.51,423.56h18.22c1.32,0,2.4,1.08,2.4,2.4v84.47h-23.02v-84.47c0-1.32,1.08-2.4,2.4-2.4Z"/>
          <path class="st26" d="M354.57,425.03h16.16c1.32,0,2.4,1.08,2.4,2.4v81.65h-20.96v-81.65c0-1.32,1.08-2.4,2.4-2.4Z"/>
        </g>
        <g>
          <path class="st18" d="M329.62,458.99h18.22c1.32,0,2.4,1.08,2.4,2.4v49.04h-23.02v-49.04c0-1.32,1.08-2.4,2.4-2.4Z"/>
          <path class="st31" d="M349.25,509.08h-20.96v-45.35c0-1.81,1.46-3.27,3.27-3.27h14.42c1.81,0,3.27,1.46,3.27,3.27v45.35Z"/>
        </g>
        <g>
          <path class="st17" d="M483.45,352.7h18.22c1.32,0,2.4,1.08,2.4,2.4v155.33h-23.02v-155.33c0-1.32,1.08-2.4,2.4-2.4Z"/>
          <path class="st30" d="M484.51,354.17h16.16c1.32,0,2.4,1.08,2.4,2.4v152.51h-20.96v-152.51c0-1.32,1.08-2.4,2.4-2.4Z"/>
        </g>
        <g>
          <path class="st20" d="M459.56,458.99h18.22c1.32,0,2.4,1.08,2.4,2.4v49.04h-23.02v-49.04c0-1.32,1.08-2.4,2.4-2.4Z"/>
          <path class="st27" d="M479.19,509.08h-20.96v-45.35c0-1.81,1.46-3.27,3.27-3.27h14.42c1.81,0,3.27,1.46,3.27,3.27v45.35Z"/>
        </g>
        <g>
          <path class="st16" d="M612.64,405.84h18.22c1.32,0,2.4,1.08,2.4,2.4v102.19h-23.02v-102.19c0-1.32,1.08-2.4,2.4-2.4Z"/>
          <path class="st29" d="M613.71,407.32h16.16c1.32,0,2.4,1.08,2.4,2.4v99.37h-20.96v-99.37c0-1.32,1.08-2.4,2.4-2.4Z"/>
        </g>
        <g>
          <path class="st15" d="M588.76,479.43h18.22c1.32,0,2.4,1.08,2.4,2.4v28.6h-23.02v-28.6c0-1.32,1.08-2.4,2.4-2.4Z"/>
          <path class="st28" d="M608.38,509.08h-20.96v-24.91c0-1.81,1.46-3.27,3.27-3.27h14.42c1.81,0,3.27,1.46,3.27,3.27v24.91Z"/>
        </g>
        <g>
          <path class="st6" d="M742.58,370.41h18.22c1.32,0,2.4,1.08,2.4,2.4v137.62h-23.02v-137.62c0-1.32,1.08-2.4,2.4-2.4Z"/>
          <path class="st25" d="M743.64,371.89h16.16c1.32,0,2.4,1.08,2.4,2.4v134.8h-20.96v-134.8c0-1.32,1.08-2.4,2.4-2.4Z"/>
        </g>
        <g>
          <path class="st4" d="M718.69,435.82h18.22c1.32,0,2.4,1.08,2.4,2.4v72.21h-23.02v-72.21c0-1.32,1.08-2.4,2.4-2.4Z"/>
          <path class="st40" d="M738.32,509.08h-20.96v-68.52c0-1.81,1.46-3.27,3.27-3.27h14.42c1.81,0,3.27,1.46,3.27,3.27v68.52Z"/>
        </g>
        <g>
          <path class="st5" d="M377.51,499.87h18.22c1.32,0,2.4,1.08,2.4,2.4v8.16h-23.02v-8.16c0-1.32,1.08-2.4,2.4-2.4Z"/>
          <path class="st39" d="M397.14,509.08h-20.96v-4.47c0-1.81,1.46-3.27,3.27-3.27h14.42c1.81,0,3.27,1.46,3.27,3.27v4.47Z"/>
        </g>
        <g>
          <path class="st2" d="M401.89,503.95h18.22c1.32,0,2.4,1.08,2.4,2.4v4.07h-23.02v-4.07c0-1.32,1.08-2.4,2.4-2.4Z"/>
          <path class="st36" d="M421.52,509.08h-20.96v-.38c0-1.81,1.46-3.27,3.27-3.27h14.42c1.81,0,3.27,1.46,3.27,3.27v.38Z"/>
        </g>
        <g>
          <path class="st7" d="M873.63,400.39h18.22c1.32,0,2.4,1.08,2.4,2.4v107.64h-23.02v-107.64c0-1.32,1.08-2.4,2.4-2.4Z"/>
          <path class="st35" d="M874.69,401.87h16.16c1.32,0,2.4,1.08,2.4,2.4v104.82h-20.96v-104.82c0-1.32,1.08-2.4,2.4-2.4Z"/>
        </g>
        <g>
          <path class="st0" d="M849.74,458.99h18.22c1.32,0,2.4,1.08,2.4,2.4v49.04h-23.02v-49.04c0-1.32,1.08-2.4,2.4-2.4Z"/>
          <path class="st42" d="M869.37,509.08h-20.96v-45.35c0-1.81,1.46-3.27,3.27-3.27h14.42c1.81,0,3.27,1.46,3.27,3.27v45.35Z"/>
        </g>
        <g>
          <path class="st1" d="M918.25,510.43h-23.02v-1.84c0-1.81,1.46-3.27,3.27-3.27h16.48c1.81,0,3.27,1.46,3.27,3.27v1.84Z"/>
          <path class="st37" d="M917.26,509.08h-20.96v.98c0-1.81,1.46-3.27,3.27-3.27h14.42c1.81,0,3.27,1.46,3.27,3.27v-.98Z"/>
        </g>
        <g>
          <path class="st8" d="M922.01,502.59h18.22c1.32,0,2.4,1.08,2.4,2.4v5.44h-23.02v-5.44c0-1.32,1.08-2.4,2.4-2.4Z"/>
          <path class="st38" d="M941.64,509.08h-20.96v-1.74c0-1.81,1.46-3.27,3.27-3.27h14.42c1.81,0,3.27,1.46,3.27,3.27v1.74Z"/>
        </g>
        <g>
          <path class="st3" d="M790.34,490.33h18.22c1.32,0,2.4,1.08,2.4,2.4v17.7h-23.02v-17.7c0-1.32,1.08-2.4,2.4-2.4Z"/>
          <path class="st41" d="M809.97,509.08h-20.96v-14.01c0-1.81,1.46-3.27,3.27-3.27h14.42c1.81,0,3.27,1.46,3.27,3.27v14.01Z"/>
        </g>
        <line class="st12" x1="308.04" y1="511.67" x2="299.36" y2="511.67"/>
        <line class="st12" x1="308.04" y1="484.63" x2="299.36" y2="484.63"/>
        <line class="st12" x1="308.04" y1="458.96" x2="299.36" y2="458.96"/>
        <line class="st12" x1="308.04" y1="430.98" x2="299.36" y2="430.98"/>
        <line class="st12" x1="308.04" y1="403.95" x2="299.36" y2="403.95"/>
        <line class="st12" x1="308.04" y1="378.27" x2="299.36" y2="378.27"/>
        <line class="st12" x1="308.04" y1="353.02" x2="299.36" y2="353.02"/>
        <line class="st12" x1="308.04" y1="325.99" x2="299.36" y2="325.99"/>
        <line class="st12" x1="308.04" y1="300.31" x2="299.36" y2="300.31"/>
        <line class="st12" x1="308.04" y1="274.56" x2="299.36" y2="274.56"/>
        <line class="st12" x1="308.04" y1="247.53" x2="299.36" y2="247.53"/>
        <text class="st46" transform="translate(276.61 250.55)"><tspan x="0" y="0">100</tspan></text>
        <text class="st46" transform="translate(283.42 278.77)"><tspan x="0" y="0">90</tspan></text>
        <text class="st46" transform="translate(283.42 304.01)"><tspan x="0" y="0">80</tspan></text>
        <text class="st46" transform="translate(283.42 329.26)"><tspan x="0" y="0">70</tspan></text>
        <text class="st46" transform="translate(283.42 356.73)"><tspan x="0" y="0">60</tspan></text>
        <text class="st46" transform="translate(283.42 382.22)"><tspan x="0" y="0">50</tspan></text>
        <text class="st45" transform="translate(284.42 406.7)"><tspan x="0" y="0">40</tspan></text>
        <text class="st45" transform="translate(284.42 433.92)"><tspan x="0" y="0">30</tspan></text>
        <text class="st45" transform="translate(284.42 461.64)"><tspan x="0" y="0">20</tspan></text>
        <text class="st45" transform="translate(284.42 488.25)"><tspan x="0" y="0">10</tspan></text>
        <text class="st45" transform="translate(288.5 514.48)"><tspan x="0" y="0">0</tspan></text>
        <text class="st46" transform="translate(338.5 528.47)"><tspan x="0" y="0">Recurrent</tspan></text>
        <text class="st46" transform="translate(277.65 436.88) rotate(-90)"><tspan x="0" y="0">% of positive cultures</tspan></text>
        <text class="st46" transform="translate(443.64 528.47)"><tspan x="0" y="0">Treatment failure </tspan><tspan x="31.46" y="14.72">type A</tspan></text>
        <text class="st46" transform="translate(572.47 528.47)"><tspan x="0" y="0">Treatment failure </tspan><tspan x="31.78" y="14.72">type B</tspan></text>
        <text class="st46" transform="translate(718.63 528.47)"><tspan x="0" y="0">Unresolved</tspan></text>
        <text class="st46" transform="translate(869.46 528.47)"><tspan x="0" y="0">Total</tspan></text>
        <g>
          <text class="st49" transform="translate(474.13 564.6)"><tspan x="0" y="0">S. pneumoniae</tspan></text>
          <rect class="st34" x="458.78" y="556.77" width="10.64" height="10.64"/>
          <text class="st49" transform="translate(563.73 564.6)"><tspan x="0" y="0">H. influenzae</tspan></text>
          <rect class="st43" x="548.37" y="556.77" width="10.64" height="10.64"/>
          <text class="st49" transform="translate(644.91 564.6)"><tspan x="0" y="0">S. pyogenes</tspan></text>
          <rect class="st9" x="629.55" y="556.77" width="10.64" height="10.64"/>
          <text class="st49" transform="translate(722 564.6)"><tspan x="0" y="0">M. catarrhalis</tspan></text>
          <rect class="st10" x="706.64" y="556.77" width="10.64" height="10.64"/>
        </g>
      </g>
      <g class="st54">
        <polygon class="st44" points="958.96 512.47 307.24 512.47 307.24 245.48 309.96 245.48 309.96 509.75 958.96 509.75 958.96 512.47"/>
      </g>
    </g>
  </g>
  <text class="st50" transform="translate(336.28 267.97)"><tspan x="0" y="0">Bacterial etiology of 65 AOM episodes with MEF/otorrhea culture positive for one </tspan><tspan x="104.43" y="19.2">of the 4 pathogens under study, by type of episode</tspan></text>
  <text class="st50" transform="translate(802.1 281.84) scale(.58)"><tspan x="0" y="0">9</tspan></text>
  <g>
    <text class="st47" transform="translate(296.79 605)"><tspan x="0" y="0">Non typable Haemophilus influenzae is the most frequently </tspan><tspan x="0" y="26.55">identified pathogen</tspan></text>
    <text class="st47" transform="translate(493.57 624.18) scale(.58)"><tspan x="0" y="0">9</tspan></text>
  </g>
  <text class="st33" transform="translate(250.54 700.84)"><tspan x="0" y="0">AOM: Acute Otitis Media</tspan><tspan x="0" y="15.6">MEF: Middle Ear Fluid </tspan></text>
  <g class="st55">
    <rect class="st23" x="1214.88" y="705.55" width="39.06" height="39.06" rx="8.38" ry="8.38"/>
    <path class="st56" d="M1248.89,722.61l-4.97-4.97v-6.89c0-.24-.19-.43-.43-.43h-3.07c-.24,0-.43.19-.43.43v2.96l-4.53-4.53c-.58-.57-1.51-.57-2.08,0l-13.45,13.44c-.87.87-.35,2.36.87,2.5l2.17.25v14.55c0,.81.66,1.47,1.47,1.47h6.34v-10.56c0-.71.57-1.28,1.28-1.28h4.7c.71,0,1.28.57,1.28,1.28v10.56h6.34c.81,0,1.47-.66,1.47-1.47v-14.56l2.17-.26c1.22-.14,1.74-1.64.87-2.5Z"/>
  </g>
</svg>