<?xml version="1.0" encoding="UTF-8"?>
<svg id="Layer_1" xmlns="http://www.w3.org/2000/svg" xmlns:xlink="http://www.w3.org/1999/xlink" version="1.1" viewBox="0 0 1280 768">
  <!-- Generator: Adobe Illustrator 30.0.0, SVG Export Plug-In . SVG Version: 2.1.1 Build 123)  -->
  <defs>
    <style>
      .st0 {
        filter: url(#drop-shadow-6);
      }

      .st1, .st2, .st3, .st4, .st5, .st6, .st7 {
        fill: #231f20;
      }

      .st1, .st3, .st8, .st9, .st4 {
        font-family: MyriadPro-Bold, 'Myriad Pro';
        font-weight: 700;
      }

      .st1, .st6 {
        font-size: 10.21px;
      }

      .st10 {
        fill: #2b388f;
      }

      .st2 {
        font-size: 8.51px;
      }

      .st2, .st5, .st6, .st7 {
        font-family: MyriadPro-Regular, 'Myriad Pro';
      }

      .st11 {
        fill: url(#radial-gradient);
      }

      .st12 {
        fill: url(#linear-gradient);
      }

      .st13 {
        stroke: #fff;
        stroke-width: 3.95px;
      }

      .st13, .st14, .st15, .st16, .st17, .st18, .st19, .st20, .st21, .st22, .st23, .st24, .st25, .st26 {
        stroke-miterlimit: 10;
      }

      .st13, .st9, .st27 {
        fill: #243a78;
      }

      .st3 {
        font-size: 6px;
      }

      .st14 {
        stroke-width: .43px;
      }

      .st14, .st15, .st16, .st17 {
        stroke: #231f20;
      }

      .st14, .st15, .st16, .st17, .st18, .st21, .st24, .st25 {
        fill: none;
      }

      .st15 {
        stroke-width: .41px;
      }

      .st16, .st21, .st25 {
        stroke-width: .85px;
      }

      .st17, .st18, .st24 {
        stroke-width: .82px;
      }

      .st28 {
        fill: #2e3191;
      }

      .st29 {
        filter: url(#drop-shadow-33);
      }

      .st30 {
        fill: #000b8c;
      }

      .st18, .st21 {
        stroke: #ec1c24;
      }

      .st19 {
        stroke: url(#linear-gradient2);
      }

      .st19, .st20 {
        stroke-width: 5.24px;
      }

      .st19, .st20, .st8, .st22, .st23, .st31, .st32 {
        fill: #fff;
      }

      .st20 {
        stroke: url(#linear-gradient1);
      }

      .st8 {
        font-size: 30px;
      }

      .st22, .st23 {
        stroke: #2b388f;
        stroke-width: 2.63px;
      }

      .st22, .st23, .st31, .st32 {
        font-family: BerkshireSwash-Regular, 'Berkshire Swash';
      }

      .st22, .st31 {
        font-size: 34.66px;
      }

      .st23, .st32 {
        font-size: 27.67px;
      }

      .st9 {
        font-size: 25px;
      }

      .st4 {
        font-size: 9.89px;
      }

      .st24, .st25 {
        stroke: #2e3191;
      }

      .st26 {
        fill: url(#radial-gradient1);
        stroke: #000b8c;
        stroke-width: 1.6px;
      }

      .st33 {
        fill: #ec1c24;
      }

      .st5 {
        font-size: 10.61px;
      }

      .st7 {
        font-size: 9.96px;
      }
    </style>
    <radialGradient id="radial-gradient" cx="640" cy="384" fx="640" fy="384" r="527.76" gradientUnits="userSpaceOnUse">
      <stop offset="0" stop-color="#fff"/>
      <stop offset="1" stop-color="#edffff"/>
    </radialGradient>
    <filter id="drop-shadow-6" x="34.96" y="676.63" width="153.04" height="81.56" filterUnits="userSpaceOnUse">
      <feOffset dx="3.73" dy="3.73"/>
      <feGaussianBlur result="blur" stdDeviation="3.73"/>
      <feFlood flood-color="#231f20" flood-opacity=".4"/>
      <feComposite in2="blur" operator="in"/>
      <feComposite in="SourceGraphic"/>
    </filter>
    <linearGradient id="linear-gradient" x1="1747.29" y1="132.42" x2="583.74" y2="127.75" gradientUnits="userSpaceOnUse">
      <stop offset="0" stop-color="#fff" stop-opacity="0"/>
      <stop offset=".68" stop-color="#2b388f"/>
    </linearGradient>
    <linearGradient id="linear-gradient1" x1="20.54" y1="429.24" x2="697.33" y2="429.24" gradientUnits="userSpaceOnUse">
      <stop offset="0" stop-color="#00b4bd"/>
      <stop offset="1" stop-color="#8bc53f"/>
    </linearGradient>
    <linearGradient id="linear-gradient2" x1="719.82" x2="1252.79" xlink:href="#linear-gradient1"/>
    <filter id="drop-shadow-33" x="1214.08" y="704.75" width="40.65" height="40.65" filterUnits="userSpaceOnUse">
      <feOffset dx="5.59" dy="5.59"/>
      <feGaussianBlur result="blur1" stdDeviation="3.99"/>
      <feFlood flood-color="#000" flood-opacity=".75"/>
      <feComposite in2="blur1" operator="in"/>
      <feComposite in="SourceGraphic"/>
    </filter>
    <radialGradient id="radial-gradient1" cx="1234.41" cy="725.08" fx="1234.41" fy="725.08" r="19.53" gradientUnits="userSpaceOnUse">
      <stop offset="0" stop-color="#fff"/>
      <stop offset="1" stop-color="#f1f1f1"/>
    </radialGradient>
  </defs>
  <g>
    <rect class="st11" width="1280" height="768"/>
    <g class="st0">
      <text class="st22" transform="translate(68.19 711.56) rotate(-.27)"><tspan x="0" y="0">Eternal </tspan></text>
      <g>
        <g>
          <path class="st13" d="M64.97,714.95c-.11.14-.15.32-.11.5l2.71,12.04c.06.27.3.46.58.46h.57c.9-2.06,1.4-4.34,1.39-6.73-.01-2.31-.5-4.51-1.36-6.51l-3.32.02c-.18,0-.35.08-.46.22Z"/>
          <path class="st13" d="M39.54,728.11l2.6-12.07c.04-.17,0-.36-.12-.5-.11-.14-.28-.22-.46-.22l-3.52.02c-.72,1.87-1.11,3.9-1.1,6.03.01,2.58.61,5.03,1.68,7.2h.35c.28,0,.52-.2.57-.47Z"/>
          <path class="st13" d="M65.71,724.41l-2.02-8.85c-.12-.54-.61-.92-1.16-.92-.02,0-.05,0-.07,0l-7.09.47c-.27.02-.52.13-.72.31l-.29.26-.31-.28c-.22-.2-.5-.3-.79-.3h-2.94s-5.96.04-5.96.04c-.55,0-1.03.39-1.15.93l-2.05,9.38c-.08.38.02.77.28,1.05.23.25.54.38.87.38.05,0,.1,0,.15-.01l2.8-.37,7.52,5.81.78.72c.23.21.52.31.81.31.08,0,.15,0,.23-.02.26-.02.51-.13.71-.32l5.35-5.04,2.64-2.44.93.27c.11.03.22.05.33.05.3,0,.58-.11.81-.32.3-.29.43-.71.34-1.12ZM61.08,725.96s-.04-.04-.06-.06l-5.08-4.65c-.24-.22-.61-.2-.83.04-.22.24-.2.61.04.83l5.08,4.64-.37.35-.83.78s0,0,0-.01c-.03-.04-.06-.08-.1-.11l-4.22-3.72c-.24-.22-.62-.19-.83.05-.22.24-.19.62.05.83l4.22,3.72s.02.01.02.02c0,0,.01,0,.02.01l-1.22,1.15s-.01-.02-.02-.04c-.03-.05-.07-.1-.12-.15l-3.46-3.05c-.24-.22-.62-.19-.83.05-.22.24-.19.62.05.83l3.46,3.05s.04.03.05.04c.02.01.03.02.05.03l-.56.52s-.02-.04-.03-.06c-.04-.08-.09-.16-.17-.22l-.84-.67c-.25-.2-.63-.16-.83.09l-.6.75-.03.04-.5-.39.07-.08.59-.74c.2-.26.16-.63-.09-.83l-.84-.67c-.26-.2-.63-.16-.83.09l-.48.61-.19.24-.5-.39.22-.28.6-.76c.2-.26.16-.63-.09-.83l-.84-.67c-.25-.2-.63-.16-.83.09l-.5.63-.35.44-.31-.24-.19-.15s.01,0,.02-.01c.05-.03.09-.07.13-.11l.26-.33.62-.78c.2-.26.16-.63-.09-.83l-.84-.67c-.26-.2-.63-.16-.83.09l-.51.65-.37.46s0,0,0,0c-.05.06-.08.13-.1.2l-.71-.55-.33.04-2.96.39,2.05-9.38,5.96-.03h2.94s.23.19.23.19l.1.09-1.84,2.31-.75.95s-.35.39-.32.84c.01.16.07.32.22.48.68.74,2.23.16,2.23.16l1.92-2.31s.25-.33.69-.5l6.79,6.1-1.44,1.36Z"/>
        </g>
        <path class="st13" d="M54.77,755.22l1.79-19.93c.03-.29-.06-.58-.24-.79-.18-.21-.43-.32-.68-.3l-3.96.49c-.72,3.13-.96,6.48-.62,9.93.41,4.19.68,8.08,2.49,11.47l.48-.05c.39-.04.69-.38.73-.83Z"/>
      </g>
      <text class="st23" transform="translate(65.99 747.4) rotate(-.27)"><tspan x="0" y="0">rust</tspan></text>
      <text class="st31" transform="translate(68.19 711.56) rotate(-.27)"><tspan x="0" y="0">Eternal </tspan></text>
      <g>
        <g>
          <path class="st27" d="M64.97,714.95c-.11.14-.15.32-.11.5l2.71,12.04c.06.27.3.46.58.46h.57c.9-2.06,1.4-4.34,1.39-6.73-.01-2.31-.5-4.51-1.36-6.51l-3.32.02c-.18,0-.35.08-.46.22Z"/>
          <path class="st27" d="M39.54,728.11l2.6-12.07c.04-.17,0-.36-.12-.5-.11-.14-.28-.22-.46-.22l-3.52.02c-.72,1.87-1.11,3.9-1.1,6.03.01,2.58.61,5.03,1.68,7.2h.35c.28,0,.52-.2.57-.47Z"/>
          <path class="st27" d="M65.71,724.41l-2.02-8.85c-.12-.54-.61-.92-1.16-.92-.02,0-.05,0-.07,0l-7.09.47c-.27.02-.52.13-.72.31l-.29.26-.31-.28c-.22-.2-.5-.3-.79-.3h-2.94s-5.96.04-5.96.04c-.55,0-1.03.39-1.15.93l-2.05,9.38c-.08.38.02.77.28,1.05.23.25.54.38.87.38.05,0,.1,0,.15-.01l2.8-.37,7.52,5.81.78.72c.23.21.52.31.81.31.08,0,.15,0,.23-.02.26-.02.51-.13.71-.32l5.35-5.04,2.64-2.44.93.27c.11.03.22.05.33.05.3,0,.58-.11.81-.32.3-.29.43-.71.34-1.12ZM61.08,725.96s-.04-.04-.06-.06l-5.08-4.65c-.24-.22-.61-.2-.83.04-.22.24-.2.61.04.83l5.08,4.64-.37.35-.83.78s0,0,0-.01c-.03-.04-.06-.08-.1-.11l-4.22-3.72c-.24-.22-.62-.19-.83.05-.22.24-.19.62.05.83l4.22,3.72s.02.01.02.02c0,0,.01,0,.02.01l-1.22,1.15s-.01-.02-.02-.04c-.03-.05-.07-.1-.12-.15l-3.46-3.05c-.24-.22-.62-.19-.83.05-.22.24-.19.62.05.83l3.46,3.05s.04.03.05.04c.02.01.03.02.05.03l-.56.52s-.02-.04-.03-.06c-.04-.08-.09-.16-.17-.22l-.84-.67c-.25-.2-.63-.16-.83.09l-.6.75-.03.04-.5-.39.07-.08.59-.74c.2-.26.16-.63-.09-.83l-.84-.67c-.26-.2-.63-.16-.83.09l-.48.61-.19.24-.5-.39.22-.28.6-.76c.2-.26.16-.63-.09-.83l-.84-.67c-.25-.2-.63-.16-.83.09l-.5.63-.35.44-.31-.24-.19-.15s.01,0,.02-.01c.05-.03.09-.07.13-.11l.26-.33.62-.78c.2-.26.16-.63-.09-.83l-.84-.67c-.26-.2-.63-.16-.83.09l-.51.65-.37.46s0,0,0,0c-.05.06-.08.13-.1.2l-.71-.55-.33.04-2.96.39,2.05-9.38,5.96-.03h2.94s.23.19.23.19l.1.09-1.84,2.31-.75.95s-.35.39-.32.84c.01.16.07.32.22.48.68.74,2.23.16,2.23.16l1.92-2.31s.25-.33.69-.5l6.79,6.1-1.44,1.36Z"/>
        </g>
        <path class="st27" d="M54.77,755.22l1.79-19.93c.03-.29-.06-.58-.24-.79-.18-.21-.43-.32-.68-.3l-3.96.49c-.72,3.13-.96,6.48-.62,9.93.41,4.19.68,8.08,2.49,11.47l.48-.05c.39-.04.69-.38.73-.83Z"/>
      </g>
      <text class="st32" transform="translate(65.99 747.4) rotate(-.27)"><tspan x="0" y="0">rust</tspan></text>
    </g>
    <g>
      <path class="st10" d="M1279.38,723.58H250.35c-1.93,0-1.93,3,0,3h1029.03c1.93,0,1.93-3,0-3h0Z"/>
      <circle class="st10" cx="238.59" cy="725.53" r="4.9"/>
      <circle class="st10" cx="224.64" cy="725.53" r="4.9"/>
      <circle class="st10" cx="210.68" cy="725.53" r="4.9"/>
    </g>
    <g>
      <path class="st10" d="M0,55.81h1036.47c1.93,0,1.93-3,0-3H0c-1.93,0-1.93,3,0,3h0Z"/>
      <circle class="st10" cx="1048.22" cy="53.86" r="4.9"/>
      <circle class="st10" cx="1062.18" cy="53.86" r="4.9"/>
      <circle class="st10" cx="1076.13" cy="53.86" r="4.9"/>
    </g>
    <g>
      <path class="st27" d="M1154.38,56.45c-.16-4.27-.32-9.38-.32-14.6h-.11c-1.16,4.53-2.64,9.6-4.01,13.76l-4.32,13.87h-6.27l-3.79-13.71c-1.16-4.22-2.32-9.23-3.22-13.92h-.1c-.16,4.8-.37,10.28-.58,14.71l-.69,13.5h-7.44l2.27-35.53h10.7l3.48,11.92c1.16,4.06,2.21,8.49,3,12.65h.21c.95-4.11,2.16-8.75,3.37-12.76l3.74-11.81h10.54l1.9,35.53h-7.8l-.58-13.6Z"/>
      <path class="st27" d="M1170.83,40.9c-2.69,0-4.43-1.9-4.43-4.27s1.79-4.27,4.53-4.27,4.43,1.85,4.48,4.27c0,2.37-1.74,4.27-4.53,4.27h-.05ZM1166.88,44.27h8.01v25.78h-8.01v-25.78Z"/>
      <path class="st27" d="M1185.38,44.27l2.53,4.32c.74,1.32,1.42,2.58,2.11,3.85h.11c.69-1.42,1.32-2.69,2-4.01l2.27-4.16h8.7l-8.49,12.28,8.59,13.5h-9.07l-2.58-4.64c-.74-1.27-1.42-2.58-2-3.9h-.16c-.63,1.37-1.32,2.64-1.95,3.9l-2.42,4.64h-8.81l8.75-13.13-8.54-12.65h8.96Z"/>
      <path class="st27" d="M1208.48,40.9c-2.69,0-4.43-1.9-4.43-4.27s1.79-4.27,4.53-4.27,4.43,1.85,4.48,4.27c0,2.37-1.74,4.27-4.53,4.27h-.05ZM1204.53,44.27h8.01v25.78h-8.01v-25.78Z"/>
      <path class="st27" d="M1217.86,70.05v-19.87h-3.43v-5.9h3.43v-1c0-3.11.95-6.54,3.22-8.65,2.05-1.9,4.8-2.58,7.17-2.58,1.74,0,3.11.26,4.22.53l-.32,6.17c-.69-.21-1.53-.37-2.58-.37-2.64,0-3.74,2.06-3.74,4.59v1.32h5.17v5.9h-5.11v19.87h-8.01Z"/>
      <path class="st27" d="M1187.01,80.91c-.37.19-1.13.38-2.1.38-2.25,0-3.93-1.42-3.93-4.04s1.69-4.19,4.16-4.19c.98,0,1.62.21,1.89.35l-.26.84c-.38-.19-.94-.33-1.6-.33-1.87,0-3.11,1.2-3.11,3.29,0,1.96,1.12,3.21,3.05,3.21.64,0,1.28-.13,1.69-.33l.2.83Z"/>
      <path class="st27" d="M1189.31,78.47c.02,1.41.91,1.99,1.95,1.99.75,0,1.21-.13,1.59-.29l.19.73c-.37.16-1,.37-1.92.37-1.75,0-2.81-1.17-2.81-2.88s1.03-3.1,2.7-3.1c1.87,0,2.35,1.64,2.35,2.7,0,.21,0,.38-.03.5h-4.01ZM1192.35,77.73c0-.65-.27-1.69-1.43-1.69-1.06,0-1.51.97-1.6,1.69h3.03Z"/>
      <path class="st27" d="M1195.33,81.16v-4.93h-.79v-.79h.79v-.27c0-.8.19-1.54.68-2,.39-.38.91-.53,1.38-.53.38,0,.69.08.89.16l-.13.81c-.17-.07-.37-.13-.67-.13-.88,0-1.11.78-1.11,1.66v.31h1.38v.79h-1.37v4.93h-1.04Z"/>
      <path class="st27" d="M1199.77,74.38c-.39,0-.65-.31-.65-.67s.27-.66.67-.66.66.3.66.66-.26.67-.67.67h-.01ZM1199.28,75.43h1.04v5.72h-1.04v-5.72Z"/>
      <path class="st27" d="M1203.11,75.43l.82,1.22c.21.33.39.62.58.94h.03c.19-.33.38-.63.58-.94l.79-1.22h1.14l-1.95,2.77,2,2.96h-1.18l-.84-1.29c-.22-.33-.41-.65-.61-.99h-.02c-.19.34-.39.65-.6.99l-.83,1.29h-1.15l2.03-2.92-1.94-2.8h1.16Z"/>
      <path class="st27" d="M1209.19,74.38c-.39,0-.65-.31-.65-.67s.27-.66.68-.66.66.3.66.66-.26.67-.68.67h-.01ZM1208.69,75.43h1.04v5.72h-1.04v-5.72Z"/>
      <path class="st27" d="M1212.04,76.98c0-.6-.02-1.07-.05-1.55h.91l.05.92h.03c.32-.54.85-1.05,1.81-1.05.77,0,1.36.47,1.61,1.15h.02c.18-.33.41-.57.65-.74.34-.26.71-.4,1.25-.4.77,0,1.89.5,1.89,2.48v3.37h-1.02v-3.24c0-1.11-.42-1.76-1.24-1.76-.6,0-1.05.44-1.24.93-.05.15-.08.35-.08.52v3.55h-1.02v-3.43c0-.92-.4-1.57-1.2-1.57-.64,0-1.12.52-1.29,1.04-.06.15-.08.33-.08.51v3.45h-1.02v-4.18Z"/>
      <path class="st27" d="M1223.08,78.47c.02,1.41.91,1.99,1.95,1.99.74,0,1.21-.13,1.58-.29l.19.73c-.37.16-1,.37-1.92.37-1.75,0-2.81-1.17-2.81-2.88s1.03-3.1,2.7-3.1c1.87,0,2.36,1.64,2.36,2.7,0,.21-.01.38-.04.5h-4.01ZM1226.12,77.73c0-.65-.27-1.69-1.43-1.69-1.06,0-1.51.97-1.6,1.69h3.03Z"/>
      <path class="st27" d="M1241.34,32.72c2.32,0,4.17,1.89,4.17,4.21s-1.85,4.23-4.19,4.23-4.21-1.87-4.21-4.23,1.89-4.21,4.21-4.21h.02ZM1241.3,33.56c-1.76,0-3.18,1.52-3.18,3.39s1.42,3.37,3.2,3.37c1.78.02,3.22-1.48,3.22-3.37s-1.44-3.39-3.22-3.39h-.02ZM1240.59,39.38h-.99v-4.68c.37-.06.79-.13,1.5-.13.8,0,1.29.13,1.61.37.26.21.41.52.41,1.01,0,.56-.39.95-.9,1.09v.04c.41.07.67.45.75,1.14.09.73.19,1.01.26,1.16h-1.03c-.11-.17-.19-.58-.28-1.22-.07-.51-.37-.71-.88-.71h-.45v1.93ZM1240.59,36.69h.47c.58,0,1.03-.19,1.03-.67,0-.39-.28-.69-.95-.69-.24,0-.41,0-.54.02v1.35Z"/>
    </g>
  </g>
  <rect class="st12" x=".96" y="97.49" width="1280.38" height="60.99"/>
  <g>
    <text class="st8" transform="translate(75.24 134.98)"><tspan x="0" y="0">Bioequivalence study</tspan></text>
    <text class="st8" transform="translate(362.22 124.99) scale(.58)"><tspan x="0" y="0">19,20</tspan></text>
  </g>
  <rect class="st20" x="23.16" y="308.3" width="671.55" height="241.88" rx="12" ry="12"/>
  <g>
    <polyline class="st16" points="77.06 330.77 77.06 332.8 77.06 512.37 654.88 512.37 654.88 514.63"/>
    <line class="st16" x1="77.06" y1="362.86" x2="73.84" y2="362.86"/>
    <line class="st16" x1="77.06" y1="392.12" x2="73.84" y2="392.12"/>
    <line class="st16" x1="77.06" y1="422.51" x2="73.84" y2="422.51"/>
    <line class="st16" x1="77.06" y1="452.41" x2="73.84" y2="452.41"/>
    <line class="st16" x1="77.06" y1="482.31" x2="73.84" y2="482.31"/>
    <line class="st16" x1="192.33" y1="512.37" x2="192.33" y2="514.63"/>
    <line class="st16" x1="308.25" y1="512.37" x2="308.25" y2="514.63"/>
    <line class="st16" x1="422.88" y1="512.37" x2="422.88" y2="514.63"/>
    <line class="st16" x1="538.32" y1="512.37" x2="538.32" y2="514.63"/>
    <text class="st2" transform="translate(67.25 483.92)"><tspan x="0" y="0">1</tspan></text>
    <text class="st2" transform="translate(68.13 514.63)"><tspan x="0" y="0">0</tspan></text>
    <text class="st2" transform="translate(75.45 521.13)"><tspan x="0" y="0">0</tspan></text>
    <text class="st2" transform="translate(189.54 521.22)"><tspan x="0" y="0">5</tspan></text>
    <text class="st2" transform="translate(303.42 521.31)"><tspan x="0" y="0">10</tspan></text>
    <text class="st2" transform="translate(418.32 521.41)"><tspan x="0" y="0">15</tspan></text>
    <text class="st2" transform="translate(534.66 521.5)"><tspan x="0" y="0">20</tspan></text>
    <text class="st2" transform="translate(650.48 521.6)"><tspan x="0" y="0">25</tspan></text>
    <text class="st2" transform="translate(66.45 424.73)"><tspan x="0" y="0">3</tspan></text>
    <text class="st2" transform="translate(66.06 454.02)"><tspan x="0" y="0">2</tspan></text>
    <text class="st2" transform="translate(66.8 395.02)"><tspan x="0" y="0">4</tspan></text>
    <text class="st2" transform="translate(66.93 366.53)"><tspan x="0" y="0">5</tspan></text>
    <text class="st2" transform="translate(67.29 333.78)"><tspan x="0" y="0">6</tspan></text>
    <text class="st6" transform="translate(601.77 430.38)"><tspan x="0" y="0">Mixif 400 mg</tspan></text>
    <text class="st6" transform="translate(602.36 444.62)"><tspan x="0" y="0">Suprax 400 mg</tspan></text>
    <text class="st1" transform="translate(344.89 529.79)"><tspan x="0" y="0">Time (hr)</tspan></text>
    <polyline class="st21" points="84.77 507.07 92.65 504.82 99.73 499.04 107.44 491 114.84 481.35 122.56 471.7 130.11 463.02 138.15 454.02 145.39 450 157.6 442.12 169.34 435.85 181.4 433.92 192.33 437.46 204.87 443.73 216.29 448.71 238.47 461.58 262.11 473.47 308.25 489.71 354.87 498.23 446.51 506.11 632.05 509.49"/>
    <polyline class="st25" points="84.89 506.71 92.49 504.78 100.21 499.36 107.8 491.88 115.16 482.31 122.27 472.59 129.75 465.47 137.59 459.57 145.67 451.37 157.36 443.53 168.46 438.71 180.88 436.78 192.33 442.32 203.3 448.4 214.88 450.76 238.15 463.79 262.27 474.64 308.25 490.68 354.39 499 446.03 506.71 632.05 509.85"/>
    <g>
      <line class="st14" x1="584.39" y1="428.26" x2="596.13" y2="428.26"/>
      <polygon class="st33" points="594.86 431.24 585.67 431.24 590.26 424.94 590.26 424.94 594.86 431.24"/>
    </g>
    <g>
      <line class="st14" x1="584.39" y1="442.24" x2="596.13" y2="442.24"/>
      <circle class="st28" cx="590.14" cy="442.24" r="2.59"/>
    </g>
    <polygon class="st33" points="86.2 508.43 81.19 508.43 83.69 505 83.69 505 86.2 508.43"/>
    <polygon class="st33" points="94.76 506.86 89.75 506.86 92.25 503.43 92.25 503.43 94.76 506.86"/>
    <polygon class="st33" points="101.51 501.67 96.51 501.67 99.01 498.25 99.01 498.25 101.51 501.67"/>
    <polygon class="st33" points="109.11 493.71 104.1 493.71 106.6 490.29 106.6 490.29 109.11 493.71"/>
    <polygon class="st33" points="116.34 484.31 111.34 484.31 113.84 480.88 113.84 480.88 116.34 484.31"/>
    <polygon class="st33" points="123.7 474.42 118.69 474.42 121.19 471 121.19 471 123.7 474.42"/>
    <polygon class="st33" points="131.65 464.9 126.65 464.9 129.15 461.47 129.15 461.47 131.65 464.9"/>
    <polygon class="st33" points="140.09 456.21 135.09 456.21 137.59 452.79 137.59 452.79 140.09 456.21"/>
    <polygon class="st33" points="147.2 452.02 142.19 452.02 144.7 448.6 144.7 448.6 147.2 452.02"/>
    <polygon class="st33" points="159.5 444.07 154.49 444.07 157 440.64 157 440.64 159.5 444.07"/>
    <polygon class="st33" points="170.23 437.55 165.22 437.55 167.73 434.13 167.73 434.13 170.23 437.55"/>
    <polygon class="st33" points="183.13 435.99 178.13 435.99 180.63 432.56 180.63 432.56 183.13 435.99"/>
    <polygon class="st33" points="194.01 438.58 189 438.58 191.51 435.15 191.51 435.15 194.01 438.58"/>
    <polygon class="st33" points="206.07 445.66 201.06 445.66 203.57 442.23 203.57 442.23 206.07 445.66"/>
    <polygon class="st33" points="217.49 450.47 212.48 450.47 214.98 447.05 214.98 447.05 217.49 450.47"/>
    <polygon class="st33" points="240.28 463.01 235.27 463.01 237.77 459.59 237.77 459.59 240.28 463.01"/>
    <polygon class="st33" points="263.79 474.95 258.78 474.95 261.29 471.53 261.29 471.53 263.79 474.95"/>
    <polygon class="st33" points="309.85 491.35 304.85 491.35 307.35 487.92 307.35 487.92 309.85 491.35"/>
    <polygon class="st33" points="356.53 499.95 351.53 499.95 354.03 496.53 354.03 496.53 356.53 499.95"/>
    <polygon class="st33" points="448.42 507.31 443.41 507.31 445.91 503.88 445.91 503.88 448.42 507.31"/>
    <polygon class="st33" points="633.27 510.8 628.26 510.8 630.76 507.38 630.76 507.38 633.27 510.8"/>
    <circle class="st28" cx="445.89" cy="507.97" r="1.6"/>
    <circle class="st28" cx="353.78" cy="500.82" r="1.6"/>
    <circle class="st28" cx="307.67" cy="492.12" r="1.6"/>
    <circle class="st28" cx="260.78" cy="475.53" r="1.6"/>
    <circle class="st28" cx="237.62" cy="465.21" r="1.6"/>
    <circle class="st28" cx="214.52" cy="452.25" r="1.6"/>
    <circle class="st28" cx="202.92" cy="449.64" r="1.6"/>
    <circle class="st28" cx="191.82" cy="443.46" r="1.6"/>
    <circle class="st28" cx="179.97" cy="437.75" r="1.6"/>
    <circle class="st28" cx="166.88" cy="439.43" r="1.6"/>
    <circle class="st28" cx="156.02" cy="444.98" r="1.6"/>
    <circle class="st28" cx="143.97" cy="453.17" r="1.6"/>
    <circle class="st28" cx="136.87" cy="460.7" r="1.6"/>
    <circle class="st28" cx="128.79" cy="466.8" r="1.6"/>
    <circle class="st28" cx="120.8" cy="473.24" r="1.6"/>
    <circle class="st28" cx="113.84" cy="483.34" r="1.6"/>
    <circle class="st28" cx="106.36" cy="493.11" r="1.6"/>
    <circle class="st28" cx="99.16" cy="500.75" r="1.6"/>
    <circle class="st28" cx="92.25" cy="506.2" r="1.6"/>
    <circle class="st28" cx="83.69" cy="507.8" r="1.6"/>
    <circle class="st28" cx="630.76" cy="510.09" r="1.6"/>
    <text class="st3" transform="translate(56.58 511.24) rotate(-90)"><tspan x="0" y="0">Geometric mean of plasma cefexine 400 mg concentration(ug/ml)</tspan></text>
  </g>
  <rect class="st19" x="722.45" y="308.3" width="527.73" height="241.88" rx="12" ry="12"/>
  <g>
    <text class="st9" transform="translate(81.93 213.74)"><tspan x="0" y="0">Mixif® is bioequivalent to the reference product</tspan></text>
    <text class="st9" transform="translate(609.51 205.41) scale(.58)"><tspan x="0" y="0">19-20</tspan></text>
  </g>
  <g>
    <text class="st4" transform="translate(997.16 532.87)"><tspan x="0" y="0">Time (hr)</tspan></text>
    <text class="st3" transform="translate(754.42 499.63) rotate(-90)"><tspan x="0" y="0">Geometric mean of plasma cefexine 100 mg concentration(ug/ml)</tspan></text>
    <polyline class="st17" points="777.74 326.13 798.12 326.13 798.12 499.51 1212.35 499.51 1212.35 506.35"/>
    <line class="st17" x1="798.12" y1="383.25" x2="777.74" y2="383.25"/>
    <line class="st17" x1="798.12" y1="440.38" x2="777.74" y2="440.38"/>
    <line class="st17" x1="798.12" y1="497.83" x2="777.74" y2="497.83"/>
    <line class="st17" x1="798.12" y1="499.51" x2="798.12" y2="506.35"/>
    <line class="st17" x1="839.54" y1="499.51" x2="839.54" y2="502.93"/>
    <line class="st17" x1="881.47" y1="499.51" x2="881.47" y2="506.35"/>
    <line class="st17" x1="923.06" y1="499.51" x2="923.06" y2="502.93"/>
    <line class="st17" x1="964.48" y1="499.51" x2="964.48" y2="506.35"/>
    <line class="st17" x1="1005.73" y1="499.51" x2="1005.73" y2="502.93"/>
    <line class="st17" x1="1047.66" y1="499.51" x2="1047.66" y2="506.35"/>
    <line class="st17" x1="1087.75" y1="499.51" x2="1087.75" y2="502.93"/>
    <line class="st17" x1="1129.5" y1="499.51" x2="1129.5" y2="506.35"/>
    <line class="st17" x1="1170.92" y1="499.51" x2="1170.92" y2="502.93"/>
    <text class="st5" transform="translate(878.06 518.19)"><tspan x="0" y="0">5</tspan></text>
    <text class="st5" transform="translate(959.8 518.31)"><tspan x="0" y="0">10</tspan></text>
    <text class="st5" transform="translate(1042.89 518.43)"><tspan x="0" y="0">15</tspan></text>
    <text class="st5" transform="translate(1124.28 518.54)"><tspan x="0" y="0">20</tspan></text>
    <text class="st5" transform="translate(1207.67 518.54)"><tspan x="0" y="0">25</tspan></text>
    <text class="st5" transform="translate(766.26 444.89)"><tspan x="0" y="0">1</tspan></text>
    <text class="st5" transform="translate(767.37 386.76)"><tspan x="0" y="0">2</tspan></text>
    <text class="st5" transform="translate(767.84 329.19)"><tspan x="0" y="0">3</tspan></text>
    <text class="st5" transform="translate(794.94 518.08)"><tspan x="0" y="0">0</tspan></text>
    <text class="st5" transform="translate(765.88 499.51)"><tspan x="0" y="0">0</tspan></text>
    <polyline class="st24" points="805.97 478.63 814.49 445.72 823.01 424.34 831.19 419.83 840.38 403.46 847.39 396.95 856.24 400.46 864.1 406.64 872.11 403.97 881.47 412.65 889.48 421.17 898.17 426.01 915.04 446.89 931.07 455.74 964.48 471.44 997.72 480.8 1064.7 492.66 1197.48 498"/>
    <polyline class="st18" points="806.3 478.29 813.82 445.05 822.34 424.51 822.34 420.5 830.86 409.64 839.54 392.77 848.23 392.77 856.75 389.77 865.1 395.78 872.95 397.79 881.47 408.14 889.98 418.66 898 425.01 914.7 444.72 931.57 450.4 964.48 469.44 998.22 479.29 1063.03 491.99 1197.48 497"/>
    <polygon class="st33" points="1201.88 499.63 1191.49 499.63 1196.68 492.52 1196.68 492.52 1201.88 499.63"/>
    <polygon class="st33" points="1069.44 494.59 1059.04 494.59 1064.24 487.47 1064.24 487.47 1069.44 494.59"/>
    <polygon class="st33" points="1001.83 481.81 991.43 481.81 996.63 474.69 996.63 474.69 1001.83 481.81"/>
    <polygon class="st33" points="969.39 472.35 958.99 472.35 964.19 465.23 964.19 465.23 969.39 472.35"/>
    <polygon class="st33" points="936.56 452.62 926.17 452.62 931.37 445.51 931.37 445.51 936.56 452.62"/>
    <polygon class="st33" points="920.4 447.81 910.01 447.81 915.21 440.69 915.21 440.69 920.4 447.81"/>
    <polygon class="st33" points="903.12 426.83 892.72 426.83 897.92 419.71 897.92 419.71 903.12 426.83"/>
    <polygon class="st33" points="895.09 419.71 884.7 419.71 889.9 412.59 889.9 412.59 895.09 419.71"/>
    <polygon class="st33" points="886.71 411.29 876.31 411.29 881.51 404.17 881.51 404.17 886.71 411.29"/>
    <polygon class="st33" points="878.69 399.6 868.29 399.6 873.49 392.49 873.49 392.49 878.69 399.6"/>
    <polygon class="st33" points="870.05 397.88 859.65 397.88 864.85 390.76 864.85 390.76 870.05 397.88"/>
    <polygon class="st33" points="861.9 391.62 851.51 391.62 856.7 384.5 856.7 384.5 861.9 391.62"/>
    <polygon class="st33" points="853.99 395 843.6 395 848.79 387.88 848.79 387.88 853.99 395"/>
    <polygon class="st33" points="840.34 405.83 829.94 405.83 835.14 398.71 835.14 398.71 840.34 405.83"/>
    <polygon class="st33" points="844.36 395.26 833.97 395.26 839.17 388.14 839.17 388.14 844.36 395.26"/>
    <polygon class="st33" points="835.77 412.04 825.37 412.04 830.57 404.93 830.57 404.93 835.77 412.04"/>
    <polygon class="st33" points="827.33 426.83 816.93 426.83 822.13 419.71 822.13 419.71 827.33 426.83"/>
    <polygon class="st33" points="819.56 448.43 809.16 448.43 814.36 441.32 814.36 441.32 819.56 448.43"/>
    <polygon class="st33" points="811.04 481.69 800.65 481.69 805.84 474.57 805.84 474.57 811.04 481.69"/>
    <circle class="st28" cx="1064.2" cy="492.31" r="3.32"/>
    <circle class="st28" cx="1196.78" cy="496.94" r="3.32"/>
    <circle class="st28" cx="996.93" cy="481.29" r="3.32"/>
    <circle class="st28" cx="963.71" cy="471.13" r="3.32"/>
    <circle class="st28" cx="930.03" cy="455.48" r="3.32"/>
    <circle class="st28" cx="914.25" cy="446.59" r="3.32"/>
    <circle class="st28" cx="898.34" cy="425.63" r="3.32"/>
    <circle class="st28" cx="889.19" cy="420.53" r="3.32"/>
    <circle class="st28" cx="880.81" cy="413.1" r="3.32"/>
    <circle class="st28" cx="872.55" cy="404.48" r="3.32"/>
    <circle class="st28" cx="863.62" cy="407" r="3.32"/>
    <circle class="st28" cx="855.89" cy="401.16" r="3.32"/>
    <circle class="st28" cx="847.85" cy="397.23" r="3.32"/>
    <circle class="st28" cx="839.71" cy="403.99" r="3.32"/>
    <circle class="st28" cx="831.57" cy="418.99" r="3.32"/>
    <circle class="st28" cx="822.21" cy="423.87" r="3.32"/>
    <circle class="st28" cx="814.53" cy="446.08" r="3.32"/>
    <circle class="st28" cx="805.97" cy="478.96" r="3.32"/>
    <text class="st7" transform="translate(1167.93 409.01)"><tspan x="0" y="0">Mixif 100 mg</tspan></text>
    <text class="st7" transform="translate(1168.51 422.91)"><tspan x="0" y="0">Suprax 100 mg</tspan></text>
    <g>
      <line class="st15" x1="1150.98" y1="406.95" x2="1162.42" y2="406.95"/>
      <polygon class="st33" points="1161.18 409.85 1152.22 409.85 1156.7 403.71 1156.7 403.71 1161.18 409.85"/>
    </g>
    <g>
      <line class="st15" x1="1150.98" y1="420.59" x2="1162.42" y2="420.59"/>
      <circle class="st28" cx="1156.58" cy="420.59" r="2.53"/>
    </g>
  </g>
  <g class="st29">
    <rect class="st26" x="1214.88" y="705.55" width="39.06" height="39.06" rx="8.38" ry="8.38"/>
    <path class="st30" d="M1248.89,722.61l-4.97-4.97v-6.89c0-.24-.19-.43-.43-.43h-3.07c-.24,0-.43.19-.43.43v2.96l-4.53-4.53c-.58-.57-1.51-.57-2.08,0l-13.45,13.44c-.87.87-.35,2.36.87,2.5l2.17.25v14.55c0,.81.66,1.47,1.47,1.47h6.34v-10.56c0-.71.57-1.28,1.28-1.28h4.7c.71,0,1.28.57,1.28,1.28v10.56h6.34c.81,0,1.47-.66,1.47-1.47v-14.56l2.17-.26c1.22-.14,1.74-1.64.87-2.5Z"/>
  </g>
</svg>