<?xml version="1.0" encoding="UTF-8"?>
<svg id="Layer_1" xmlns="http://www.w3.org/2000/svg" xmlns:xlink="http://www.w3.org/1999/xlink" version="1.1" viewBox="0 0 1280 768">
  <!-- Generator: Adobe Illustrator 30.0.0, SVG Export Plug-In . SVG Version: 2.1.1 Build 123)  -->
  <defs>
    <style>
      .st0 {
        filter: url(#drop-shadow-1);
      }

      .st1 {
        font-size: 34px;
      }

      .st1, .st2, .st3 {
        fill: #243a78;
      }

      .st1, .st4, .st5 {
        font-family: MyriadPro-Bold, 'Myriad Pro';
        font-weight: 700;
      }

      .st6 {
        fill: #2b388f;
      }

      .st7 {
        fill: url(#radial-gradient);
      }

      .st8 {
        fill: url(#linear-gradient);
      }

      .st2 {
        stroke-width: 3.95px;
      }

      .st2, .st9, .st10, .st11 {
        stroke-miterlimit: 10;
      }

      .st2, .st12 {
        stroke: #fff;
      }

      .st13 {
        filter: url(#drop-shadow-27);
      }

      .st14 {
        fill: #000b8c;
      }

      .st4 {
        font-size: 30px;
      }

      .st4, .st9, .st10, .st15, .st16 {
        fill: #fff;
      }

      .st9, .st10 {
        stroke: #2b388f;
        stroke-width: 2.63px;
      }

      .st9, .st10, .st15, .st16 {
        font-family: BerkshireSwash-Regular, 'Berkshire Swash';
      }

      .st9, .st15 {
        font-size: 34.66px;
      }

      .st10, .st16 {
        font-size: 27.67px;
      }

      .st17 {
        fill: url(#linear-gradient1);
        fill-rule: evenodd;
      }

      .st5 {
        fill: #231f20;
        font-size: 39px;
      }

      .st11 {
        fill: url(#radial-gradient1);
        stroke: #000b8c;
        stroke-width: 1.6px;
      }

      .st12 {
        fill: none;
        stroke-linejoin: round;
        stroke-width: 2.48px;
      }
    </style>
    <radialGradient id="radial-gradient" cx="640" cy="384" fx="640" fy="384" r="527.76" gradientUnits="userSpaceOnUse">
      <stop offset="0" stop-color="#fff"/>
      <stop offset="1" stop-color="#edffff"/>
    </radialGradient>
    <filter id="drop-shadow-1" x="34.96" y="676.63" width="153.04" height="81.56" filterUnits="userSpaceOnUse">
      <feOffset dx="3.73" dy="3.73"/>
      <feGaussianBlur result="blur" stdDeviation="3.73"/>
      <feFlood flood-color="#231f20" flood-opacity=".4"/>
      <feComposite in2="blur" operator="in"/>
      <feComposite in="SourceGraphic"/>
    </filter>
    <linearGradient id="linear-gradient" x1="1747.28" y1="130.88" x2="583.74" y2="126.21" gradientUnits="userSpaceOnUse">
      <stop offset="0" stop-color="#fff" stop-opacity="0"/>
      <stop offset=".68" stop-color="#2b388f"/>
    </linearGradient>
    <linearGradient id="linear-gradient1" x1="48.58" y1="398.15" x2="363.33" y2="398.15" gradientUnits="userSpaceOnUse">
      <stop offset="0" stop-color="#ee5b98"/>
      <stop offset="1" stop-color="#7b5ba5"/>
    </linearGradient>
    <filter id="drop-shadow-27" x="1214.08" y="704.75" width="40.65" height="40.65" filterUnits="userSpaceOnUse">
      <feOffset dx="5.59" dy="5.59"/>
      <feGaussianBlur result="blur1" stdDeviation="3.99"/>
      <feFlood flood-color="#000" flood-opacity=".75"/>
      <feComposite in2="blur1" operator="in"/>
      <feComposite in="SourceGraphic"/>
    </filter>
    <radialGradient id="radial-gradient1" cx="1234.41" cy="725.08" fx="1234.41" fy="725.08" r="19.53" gradientUnits="userSpaceOnUse">
      <stop offset="0" stop-color="#fff"/>
      <stop offset="1" stop-color="#f1f1f1"/>
    </radialGradient>
  </defs>
  <g>
    <rect class="st7" width="1280" height="768"/>
    <g class="st0">
      <text class="st9" transform="translate(68.19 711.56) rotate(-.27)"><tspan x="0" y="0">Eternal </tspan></text>
      <g>
        <g>
          <path class="st2" d="M64.97,714.95c-.11.14-.15.32-.11.5l2.71,12.04c.06.27.3.46.58.46h.57c.9-2.06,1.4-4.34,1.39-6.73-.01-2.31-.5-4.51-1.36-6.51l-3.32.02c-.18,0-.35.08-.46.22Z"/>
          <path class="st2" d="M39.54,728.11l2.6-12.07c.04-.17,0-.36-.12-.5-.11-.14-.28-.22-.46-.22l-3.52.02c-.72,1.87-1.11,3.9-1.1,6.03.01,2.58.61,5.03,1.68,7.2h.35c.28,0,.52-.2.57-.47Z"/>
          <path class="st2" d="M65.71,724.41l-2.02-8.85c-.12-.54-.61-.92-1.16-.92-.02,0-.05,0-.07,0l-7.09.47c-.27.02-.52.13-.72.31l-.29.26-.31-.28c-.22-.2-.5-.3-.79-.3h-2.94s-5.96.04-5.96.04c-.55,0-1.03.39-1.15.93l-2.05,9.38c-.08.38.02.77.28,1.05.23.25.54.38.87.38.05,0,.1,0,.15-.01l2.8-.37,7.52,5.81.78.72c.23.21.52.31.81.31.08,0,.15,0,.23-.02.26-.02.51-.13.71-.32l5.35-5.04,2.64-2.44.93.27c.11.03.22.05.33.05.3,0,.58-.11.81-.32.3-.29.43-.71.34-1.12ZM61.08,725.96s-.04-.04-.06-.06l-5.08-4.65c-.24-.22-.61-.2-.83.04-.22.24-.2.61.04.83l5.08,4.64-.37.35-.83.78s0,0,0-.01c-.03-.04-.06-.08-.1-.11l-4.22-3.72c-.24-.22-.62-.19-.83.05-.22.24-.19.62.05.83l4.22,3.72s.02.01.02.02c0,0,.01,0,.02.01l-1.22,1.15s-.01-.02-.02-.04c-.03-.05-.07-.1-.12-.15l-3.46-3.05c-.24-.22-.62-.19-.83.05-.22.24-.19.62.05.83l3.46,3.05s.04.03.05.04c.02.01.03.02.05.03l-.56.52s-.02-.04-.03-.06c-.04-.08-.09-.16-.17-.22l-.84-.67c-.25-.2-.63-.16-.83.09l-.6.75-.03.04-.5-.39.07-.08.59-.74c.2-.26.16-.63-.09-.83l-.84-.67c-.26-.2-.63-.16-.83.09l-.48.61-.19.24-.5-.39.22-.28.6-.76c.2-.26.16-.63-.09-.83l-.84-.67c-.25-.2-.63-.16-.83.09l-.5.63-.35.44-.31-.24-.19-.15s.01,0,.02-.01c.05-.03.09-.07.13-.11l.26-.33.62-.78c.2-.26.16-.63-.09-.83l-.84-.67c-.26-.2-.63-.16-.83.09l-.51.65-.37.46s0,0,0,0c-.05.06-.08.13-.1.2l-.71-.55-.33.04-2.96.39,2.05-9.38,5.96-.03h2.94s.23.19.23.19l.1.09-1.84,2.31-.75.95s-.35.39-.32.84c.01.16.07.32.22.48.68.74,2.23.16,2.23.16l1.92-2.31s.25-.33.69-.5l6.79,6.1-1.44,1.36Z"/>
        </g>
        <path class="st2" d="M54.77,755.22l1.79-19.93c.03-.29-.06-.58-.24-.79-.18-.21-.43-.32-.68-.3l-3.96.49c-.72,3.13-.96,6.48-.62,9.93.41,4.19.68,8.08,2.49,11.47l.48-.05c.39-.04.69-.38.73-.83Z"/>
      </g>
      <text class="st10" transform="translate(65.99 747.4) rotate(-.27)"><tspan x="0" y="0">rust</tspan></text>
      <text class="st15" transform="translate(68.19 711.56) rotate(-.27)"><tspan x="0" y="0">Eternal </tspan></text>
      <g>
        <g>
          <path class="st3" d="M64.97,714.95c-.11.14-.15.32-.11.5l2.71,12.04c.06.27.3.46.58.46h.57c.9-2.06,1.4-4.34,1.39-6.73-.01-2.31-.5-4.51-1.36-6.51l-3.32.02c-.18,0-.35.08-.46.22Z"/>
          <path class="st3" d="M39.54,728.11l2.6-12.07c.04-.17,0-.36-.12-.5-.11-.14-.28-.22-.46-.22l-3.52.02c-.72,1.87-1.11,3.9-1.1,6.03.01,2.58.61,5.03,1.68,7.2h.35c.28,0,.52-.2.57-.47Z"/>
          <path class="st3" d="M65.71,724.41l-2.02-8.85c-.12-.54-.61-.92-1.16-.92-.02,0-.05,0-.07,0l-7.09.47c-.27.02-.52.13-.72.31l-.29.26-.31-.28c-.22-.2-.5-.3-.79-.3h-2.94s-5.96.04-5.96.04c-.55,0-1.03.39-1.15.93l-2.05,9.38c-.08.38.02.77.28,1.05.23.25.54.38.87.38.05,0,.1,0,.15-.01l2.8-.37,7.52,5.81.78.72c.23.21.52.31.81.31.08,0,.15,0,.23-.02.26-.02.51-.13.71-.32l5.35-5.04,2.64-2.44.93.27c.11.03.22.05.33.05.3,0,.58-.11.81-.32.3-.29.43-.71.34-1.12ZM61.08,725.96s-.04-.04-.06-.06l-5.08-4.65c-.24-.22-.61-.2-.83.04-.22.24-.2.61.04.83l5.08,4.64-.37.35-.83.78s0,0,0-.01c-.03-.04-.06-.08-.1-.11l-4.22-3.72c-.24-.22-.62-.19-.83.05-.22.24-.19.62.05.83l4.22,3.72s.02.01.02.02c0,0,.01,0,.02.01l-1.22,1.15s-.01-.02-.02-.04c-.03-.05-.07-.1-.12-.15l-3.46-3.05c-.24-.22-.62-.19-.83.05-.22.24-.19.62.05.83l3.46,3.05s.04.03.05.04c.02.01.03.02.05.03l-.56.52s-.02-.04-.03-.06c-.04-.08-.09-.16-.17-.22l-.84-.67c-.25-.2-.63-.16-.83.09l-.6.75-.03.04-.5-.39.07-.08.59-.74c.2-.26.16-.63-.09-.83l-.84-.67c-.26-.2-.63-.16-.83.09l-.48.61-.19.24-.5-.39.22-.28.6-.76c.2-.26.16-.63-.09-.83l-.84-.67c-.25-.2-.63-.16-.83.09l-.5.63-.35.44-.31-.24-.19-.15s.01,0,.02-.01c.05-.03.09-.07.13-.11l.26-.33.62-.78c.2-.26.16-.63-.09-.83l-.84-.67c-.26-.2-.63-.16-.83.09l-.51.65-.37.46s0,0,0,0c-.05.06-.08.13-.1.2l-.71-.55-.33.04-2.96.39,2.05-9.38,5.96-.03h2.94s.23.19.23.19l.1.09-1.84,2.31-.75.95s-.35.39-.32.84c.01.16.07.32.22.48.68.74,2.23.16,2.23.16l1.92-2.31s.25-.33.69-.5l6.79,6.1-1.44,1.36Z"/>
        </g>
        <path class="st3" d="M54.77,755.22l1.79-19.93c.03-.29-.06-.58-.24-.79-.18-.21-.43-.32-.68-.3l-3.96.49c-.72,3.13-.96,6.48-.62,9.93.41,4.19.68,8.08,2.49,11.47l.48-.05c.39-.04.69-.38.73-.83Z"/>
      </g>
      <text class="st16" transform="translate(65.99 747.4) rotate(-.27)"><tspan x="0" y="0">rust</tspan></text>
    </g>
    <g>
      <path class="st6" d="M1279.38,723.58H292.06c-13.32,0-26.65-.17-39.97,0-.58,0-1.17,0-1.75,0-1.93,0-1.93,3,0,3h987.31c13.32,0,26.65.17,39.97,0,.58,0,1.17,0,1.75,0,1.93,0,1.93-3,0-3h0Z"/>
      <circle class="st6" cx="238.59" cy="725.53" r="4.9"/>
      <circle class="st6" cx="224.64" cy="725.53" r="4.9"/>
      <circle class="st6" cx="210.68" cy="725.53" r="4.9"/>
    </g>
    <g>
      <path class="st6" d="M0,55.81h994.39c13.43,0,26.88.17,40.31,0,.59,0,1.18,0,1.76,0,1.93,0,1.93-3,0-3H42.07c-13.43,0-26.88-.17-40.31,0-.59,0-1.18,0-1.76,0-1.93,0-1.93,3,0,3h0Z"/>
      <circle class="st6" cx="1048.22" cy="53.86" r="4.9"/>
      <circle class="st6" cx="1062.18" cy="53.86" r="4.9"/>
      <circle class="st6" cx="1076.13" cy="53.86" r="4.9"/>
    </g>
    <g>
      <path class="st3" d="M1154.38,56.45c-.16-4.27-.32-9.38-.32-14.6h-.11c-1.16,4.53-2.64,9.6-4.01,13.76l-4.32,13.87h-6.27l-3.79-13.71c-1.16-4.22-2.32-9.23-3.22-13.92h-.1c-.16,4.8-.37,10.28-.58,14.71l-.69,13.5h-7.44l2.27-35.53h10.7l3.48,11.92c1.16,4.06,2.21,8.49,3,12.65h.21c.95-4.11,2.16-8.75,3.37-12.76l3.74-11.81h10.54l1.9,35.53h-7.8l-.58-13.6Z"/>
      <path class="st3" d="M1170.83,40.9c-2.69,0-4.43-1.9-4.43-4.27s1.79-4.27,4.53-4.27,4.43,1.85,4.48,4.27c0,2.37-1.74,4.27-4.53,4.27h-.05ZM1166.88,44.27h8.01v25.78h-8.01v-25.78Z"/>
      <path class="st3" d="M1185.38,44.27l2.53,4.32c.74,1.32,1.42,2.58,2.11,3.85h.11c.69-1.42,1.32-2.69,2-4.01l2.27-4.16h8.7l-8.49,12.28,8.59,13.5h-9.07l-2.58-4.64c-.74-1.27-1.42-2.58-2-3.9h-.16c-.63,1.37-1.32,2.64-1.95,3.9l-2.42,4.64h-8.81l8.75-13.13-8.54-12.65h8.96Z"/>
      <path class="st3" d="M1208.48,40.9c-2.69,0-4.43-1.9-4.43-4.27s1.79-4.27,4.53-4.27,4.43,1.85,4.48,4.27c0,2.37-1.74,4.27-4.53,4.27h-.05ZM1204.53,44.27h8.01v25.78h-8.01v-25.78Z"/>
      <path class="st3" d="M1217.86,70.05v-19.87h-3.43v-5.9h3.43v-1c0-3.11.95-6.54,3.22-8.65,2.05-1.9,4.8-2.58,7.17-2.58,1.74,0,3.11.26,4.22.53l-.32,6.17c-.69-.21-1.53-.37-2.58-.37-2.64,0-3.74,2.06-3.74,4.59v1.32h5.17v5.9h-5.11v19.87h-8.01Z"/>
      <path class="st3" d="M1187.01,80.91c-.37.19-1.13.38-2.1.38-2.25,0-3.93-1.42-3.93-4.04s1.69-4.19,4.16-4.19c.98,0,1.62.21,1.89.35l-.26.84c-.38-.19-.94-.33-1.6-.33-1.87,0-3.11,1.2-3.11,3.29,0,1.96,1.12,3.21,3.05,3.21.64,0,1.28-.13,1.69-.33l.2.83Z"/>
      <path class="st3" d="M1189.31,78.47c.02,1.41.91,1.99,1.95,1.99.75,0,1.21-.13,1.59-.29l.19.73c-.37.16-1,.37-1.92.37-1.75,0-2.81-1.17-2.81-2.88s1.03-3.1,2.7-3.1c1.87,0,2.35,1.64,2.35,2.7,0,.21,0,.38-.03.5h-4.01ZM1192.35,77.73c0-.65-.27-1.69-1.43-1.69-1.06,0-1.51.97-1.6,1.69h3.03Z"/>
      <path class="st3" d="M1195.33,81.16v-4.93h-.79v-.79h.79v-.27c0-.8.19-1.54.68-2,.39-.38.91-.53,1.38-.53.38,0,.69.08.89.16l-.13.81c-.17-.07-.37-.13-.67-.13-.88,0-1.11.78-1.11,1.66v.31h1.38v.79h-1.37v4.93h-1.04Z"/>
      <path class="st3" d="M1199.77,74.38c-.39,0-.65-.31-.65-.67s.27-.66.67-.66.66.3.66.66-.26.67-.67.67h-.01ZM1199.28,75.43h1.04v5.72h-1.04v-5.72Z"/>
      <path class="st3" d="M1203.11,75.43l.82,1.22c.21.33.39.62.58.94h.03c.19-.33.38-.63.58-.94l.79-1.22h1.14l-1.95,2.77,2,2.96h-1.18l-.84-1.29c-.22-.33-.41-.65-.61-.99h-.02c-.19.34-.39.65-.6.99l-.83,1.29h-1.15l2.03-2.92-1.94-2.8h1.16Z"/>
      <path class="st3" d="M1209.19,74.38c-.39,0-.65-.31-.65-.67s.27-.66.68-.66.66.3.66.66-.26.67-.68.67h-.01ZM1208.69,75.43h1.04v5.72h-1.04v-5.72Z"/>
      <path class="st3" d="M1212.04,76.98c0-.6-.02-1.07-.05-1.55h.91l.05.92h.03c.32-.54.85-1.05,1.81-1.05.77,0,1.36.47,1.61,1.15h.02c.18-.33.41-.57.65-.74.34-.26.71-.4,1.25-.4.77,0,1.89.5,1.89,2.48v3.37h-1.02v-3.24c0-1.11-.42-1.76-1.24-1.76-.6,0-1.05.44-1.24.93-.05.15-.08.35-.08.52v3.55h-1.02v-3.43c0-.92-.4-1.57-1.2-1.57-.64,0-1.12.52-1.29,1.04-.06.15-.08.33-.08.51v3.45h-1.02v-4.18Z"/>
      <path class="st3" d="M1223.08,78.47c.02,1.41.91,1.99,1.95,1.99.74,0,1.21-.13,1.58-.29l.19.73c-.37.16-1,.37-1.92.37-1.75,0-2.81-1.17-2.81-2.88s1.03-3.1,2.7-3.1c1.87,0,2.36,1.64,2.36,2.7,0,.21-.01.38-.04.5h-4.01ZM1226.12,77.73c0-.65-.27-1.69-1.43-1.69-1.06,0-1.51.97-1.6,1.69h3.03Z"/>
      <path class="st3" d="M1241.34,32.72c2.32,0,4.17,1.89,4.17,4.21s-1.85,4.23-4.19,4.23-4.21-1.87-4.21-4.23,1.89-4.21,4.21-4.21h.02ZM1241.3,33.56c-1.76,0-3.18,1.52-3.18,3.39s1.42,3.37,3.2,3.37c1.78.02,3.22-1.48,3.22-3.37s-1.44-3.39-3.22-3.39h-.02ZM1240.59,39.38h-.99v-4.68c.37-.06.79-.13,1.5-.13.8,0,1.29.13,1.61.37.26.21.41.52.41,1.01,0,.56-.39.95-.9,1.09v.04c.41.07.67.45.75,1.14.09.73.19,1.01.26,1.16h-1.03c-.11-.17-.19-.58-.28-1.22-.07-.51-.37-.71-.88-.71h-.45v1.93ZM1240.59,36.69h.47c.58,0,1.03-.19,1.03-.67,0-.39-.28-.69-.95-.69-.24,0-.41,0-.54.02v1.35Z"/>
    </g>
  </g>
  <rect class="st8" x=".96" y="97.49" width="1280.38" height="57.91"/>
  <g>
    <text class="st4" transform="translate(33.08 133.98)"><tspan x="0" y="0">Cefixime in Acute Otitis Media</tspan></text>
    <text class="st4" transform="translate(433.58 123.99) scale(.58)"><tspan x="0" y="0">11</tspan></text>
  </g>
  <g>
    <path class="st17" d="M205.96,240.77c86.92,0,157.37,70.46,157.37,157.37s-70.46,157.37-157.37,157.37S48.58,485.06,48.58,398.15s70.46-157.37,157.37-157.37v39.34c-65.19,0-118.03,52.84-118.03,118.03s52.84,118.03,118.03,118.03,118.03-52.84,118.03-118.03-52.84-118.03-118.03-118.03v-39.34Z"/>
    <path class="st12" d="M205.96,240.77c86.92,0,157.37,70.46,157.37,157.37s-70.46,157.37-157.37,157.37S48.58,485.06,48.58,398.15s70.46-157.37,157.37-157.37v39.34c-65.19,0-118.03,52.84-118.03,118.03s52.84,118.03,118.03,118.03,118.03-52.84,118.03-118.03-52.84-118.03-118.03-118.03v-39.34Z"/>
  </g>
  <g>
    <path class="st3" d="M257.38,620.48c-.02-1.78,1.39-3.14,3.12-3.14s3.12,1.37,3.12,3.14-1.37,3.12-3.14,3.12-3.1-1.34-3.1-3.12Z"/>
    <path class="st3" d="M276.02,610.76c.96-.17,2.88-.34,4.73-.34,2.23,0,3.6.22,4.8.91,1.13.6,1.92,1.7,1.92,3.19s-.84,2.74-2.66,3.43v.05c1.85.48,3.22,1.9,3.22,3.96,0,1.49-.67,2.64-1.68,3.46-1.18.94-3.14,1.46-6.36,1.46-1.8,0-3.14-.12-3.96-.24v-15.89ZM279.65,616.95h1.2c1.94,0,2.95-.79,2.95-1.99s-.94-1.87-2.59-1.87c-.82,0-1.27.05-1.56.1v3.77ZM279.65,624.12c.36.05.79.05,1.42.05,1.66,0,3.12-.65,3.12-2.35,0-1.61-1.46-2.26-3.29-2.26h-1.25v4.56Z"/>
    <path class="st3" d="M302.14,620.72c0,4.3-3.05,6.26-6.19,6.26-3.43,0-6.07-2.26-6.07-6.05s2.5-6.24,6.29-6.24c3.58,0,5.98,2.47,5.98,6.02ZM293.64,620.84c0,2.02.84,3.53,2.4,3.53,1.44,0,2.33-1.42,2.33-3.55,0-1.73-.67-3.5-2.33-3.5s-2.4,1.8-2.4,3.53Z"/>
    <path class="st3" d="M308.47,611.81v3.17h2.62v2.69h-2.62v4.25c0,1.42.36,2.06,1.44,2.06.5,0,.74-.02,1.08-.1l.02,2.76c-.46.17-1.34.31-2.35.31-1.18,0-2.16-.41-2.76-1.01-.67-.7-1.01-1.82-1.01-3.48v-4.8h-1.56v-2.69h1.56v-2.18l3.58-.98Z"/>
    <path class="st3" d="M313.2,609.68h3.65v6.72h.05c.38-.53.86-.94,1.44-1.22.55-.29,1.22-.46,1.9-.46,2.33,0,4.1,1.61,4.1,5.16v6.84h-3.65v-6.46c0-1.54-.53-2.59-1.9-2.59-.96,0-1.56.62-1.82,1.3-.1.22-.12.53-.12.79v6.96h-3.65v-17.04Z"/>
    <path class="st3" d="M336.19,611.81v3.17h2.62v2.69h-2.62v4.25c0,1.42.36,2.06,1.44,2.06.5,0,.74-.02,1.08-.1l.02,2.76c-.46.17-1.34.31-2.35.31-1.18,0-2.16-.41-2.76-1.01-.67-.7-1.01-1.82-1.01-3.48v-4.8h-1.56v-2.69h1.56v-2.18l3.58-.98Z"/>
    <path class="st3" d="M340.92,609.68h3.65v6.72h.05c.38-.53.86-.94,1.44-1.22.55-.29,1.22-.46,1.9-.46,2.33,0,4.1,1.61,4.1,5.16v6.84h-3.65v-6.46c0-1.54-.53-2.59-1.9-2.59-.96,0-1.56.62-1.82,1.3-.1.22-.12.53-.12.79v6.96h-3.65v-17.04Z"/>
    <path class="st3" d="M357.79,622.01c.1,1.51,1.61,2.23,3.31,2.23,1.25,0,2.26-.17,3.24-.5l.48,2.47c-1.2.5-2.66.74-4.25.74-3.98,0-6.26-2.3-6.26-5.98,0-2.98,1.85-6.26,5.93-6.26,3.79,0,5.23,2.95,5.23,5.86,0,.62-.07,1.18-.12,1.44h-7.56ZM362.09,619.52c0-.89-.38-2.38-2.06-2.38-1.54,0-2.16,1.42-2.26,2.38h4.32Z"/>
    <path class="st3" d="M376.58,611.81v3.17h2.62v2.69h-2.62v4.25c0,1.42.36,2.06,1.44,2.06.5,0,.74-.02,1.08-.1l.02,2.76c-.46.17-1.34.31-2.35.31-1.18,0-2.16-.41-2.76-1.01-.67-.7-1.01-1.82-1.01-3.48v-4.8h-1.56v-2.69h1.56v-2.18l3.58-.98Z"/>
    <path class="st3" d="M381.31,609.68h3.65v6.72h.05c.38-.53.86-.94,1.44-1.22.55-.29,1.22-.46,1.9-.46,2.33,0,4.1,1.61,4.1,5.16v6.84h-3.65v-6.46c0-1.54-.53-2.59-1.9-2.59-.96,0-1.56.62-1.82,1.3-.1.22-.12.53-.12.79v6.96h-3.65v-17.04Z"/>
    <path class="st3" d="M399.14,611.72c0,1.01-.74,1.82-1.97,1.82-1.15,0-1.9-.82-1.9-1.82s.77-1.82,1.94-1.82,1.9.79,1.92,1.82ZM395.38,626.72v-11.74h3.65v11.74h-3.65Z"/>
    <path class="st3" d="M401.95,618.84c0-1.73-.02-2.86-.1-3.86h3.12l.14,2.16h.1c.6-1.73,2.02-2.45,3.17-2.45.34,0,.5.02.77.07v3.43c-.29-.05-.58-.1-.98-.1-1.34,0-2.26.72-2.5,1.85-.05.24-.07.53-.07.82v5.95h-3.65v-7.87Z"/>
    <path class="st3" d="M422.26,609.68v13.54c0,1.32.05,2.71.1,3.5h-3.24l-.14-1.7h-.07c-.72,1.3-2.16,1.97-3.67,1.97-2.78,0-5.02-2.38-5.02-6.03-.02-3.96,2.45-6.26,5.26-6.26,1.46,0,2.57.53,3.1,1.32h.05v-6.34h3.65ZM418.61,619.95c0-.19,0-.46-.05-.67-.22-.96-1.01-1.78-2.14-1.78-1.68,0-2.52,1.49-2.52,3.34,0,1.99.98,3.24,2.5,3.24,1.06,0,1.92-.72,2.14-1.75.05-.26.07-.55.07-.84v-1.54Z"/>
    <path class="st3" d="M430.73,619.2v2.42h-6.29v-2.42h6.29Z"/>
    <path class="st3" d="M444.12,625.01c0,2.26-.46,4.1-1.8,5.28-1.27,1.1-3.02,1.44-4.75,1.44-1.56,0-3.17-.31-4.22-.89l.72-2.78c.74.43,2.02.89,3.41.89,1.73,0,3.05-.91,3.05-3.1v-.74h-.05c-.7.96-1.82,1.51-3.17,1.51-2.9,0-4.97-2.35-4.97-5.71,0-3.79,2.42-6.19,5.33-6.19,1.61,0,2.62.7,3.22,1.68h.05l.12-1.42h3.17c-.05.77-.1,1.75-.1,3.5v6.53ZM440.47,619.76c0-.22-.02-.46-.07-.67-.26-.96-.96-1.61-1.97-1.61-1.34,0-2.4,1.2-2.4,3.34,0,1.75.86,3.12,2.38,3.12.96,0,1.7-.62,1.94-1.46.1-.29.12-.67.12-.98v-1.73Z"/>
    <path class="st3" d="M449.86,622.01c.1,1.51,1.61,2.23,3.31,2.23,1.25,0,2.26-.17,3.24-.5l.48,2.47c-1.2.5-2.66.74-4.25.74-3.98,0-6.26-2.3-6.26-5.98,0-2.98,1.85-6.26,5.93-6.26,3.79,0,5.23,2.95,5.23,5.86,0,.62-.07,1.18-.12,1.44h-7.56ZM454.15,619.52c0-.89-.38-2.38-2.06-2.38-1.54,0-2.16,1.42-2.26,2.38h4.32Z"/>
    <path class="st3" d="M459.72,618.72c0-1.46-.05-2.69-.1-3.74h3.17l.17,1.63h.07c.48-.77,1.66-1.9,3.62-1.9,2.4,0,4.2,1.61,4.2,5.06v6.94h-3.65v-6.5c0-1.51-.53-2.54-1.85-2.54-1.01,0-1.61.7-1.87,1.37-.1.24-.12.58-.12.91v6.77h-3.65v-7.99Z"/>
    <path class="st3" d="M476.59,622.01c.1,1.51,1.61,2.23,3.31,2.23,1.25,0,2.26-.17,3.24-.5l.48,2.47c-1.2.5-2.66.74-4.25.74-3.98,0-6.26-2.3-6.26-5.98,0-2.98,1.85-6.26,5.93-6.26,3.79,0,5.23,2.95,5.23,5.86,0,.62-.07,1.18-.12,1.44h-7.56ZM480.89,619.52c0-.89-.38-2.38-2.06-2.38-1.54,0-2.16,1.42-2.26,2.38h4.32Z"/>
    <path class="st3" d="M486.46,618.84c0-1.73-.02-2.86-.1-3.86h3.12l.14,2.16h.1c.6-1.73,2.02-2.45,3.17-2.45.34,0,.5.02.77.07v3.43c-.29-.05-.58-.1-.98-.1-1.34,0-2.26.72-2.5,1.85-.05.24-.07.53-.07.82v5.95h-3.65v-7.87Z"/>
    <path class="st3" d="M505.08,623.88c0,1.1.05,2.18.19,2.83h-3.29l-.22-1.18h-.07c-.77.94-1.97,1.44-3.36,1.44-2.38,0-3.79-1.73-3.79-3.6,0-3.05,2.74-4.49,6.89-4.49v-.14c0-.65-.34-1.54-2.14-1.54-1.2,0-2.47.41-3.24.89l-.67-2.35c.82-.46,2.42-1.06,4.56-1.06,3.91,0,5.14,2.3,5.14,5.09v4.1ZM501.55,621.17c-1.92,0-3.41.46-3.41,1.85,0,.94.62,1.39,1.44,1.39.89,0,1.66-.6,1.9-1.34.05-.19.07-.41.07-.62v-1.27Z"/>
    <path class="st3" d="M511.87,611.81v3.17h2.62v2.69h-2.62v4.25c0,1.42.36,2.06,1.44,2.06.5,0,.74-.02,1.08-.1l.02,2.76c-.46.17-1.34.31-2.35.31-1.18,0-2.16-.41-2.76-1.01-.67-.7-1.01-1.82-1.01-3.48v-4.8h-1.56v-2.69h1.56v-2.18l3.58-.98Z"/>
    <path class="st3" d="M520.37,611.72c0,1.01-.74,1.82-1.97,1.82-1.15,0-1.9-.82-1.9-1.82s.77-1.82,1.94-1.82,1.9.79,1.92,1.82ZM516.6,626.72v-11.74h3.65v11.74h-3.65Z"/>
    <path class="st3" d="M534.77,620.72c0,4.3-3.05,6.26-6.19,6.26-3.43,0-6.07-2.26-6.07-6.05s2.5-6.24,6.29-6.24c3.58,0,5.98,2.47,5.98,6.02ZM526.27,620.84c0,2.02.84,3.53,2.4,3.53,1.44,0,2.33-1.42,2.33-3.55,0-1.73-.67-3.5-2.33-3.5s-2.4,1.8-2.4,3.53Z"/>
    <path class="st3" d="M537.02,618.72c0-1.46-.05-2.69-.1-3.74h3.17l.17,1.63h.07c.48-.77,1.66-1.9,3.62-1.9,2.4,0,4.2,1.61,4.2,5.06v6.94h-3.65v-6.5c0-1.51-.53-2.54-1.85-2.54-1.01,0-1.61.7-1.87,1.37-.1.24-.12.58-.12.91v6.77h-3.65v-7.99Z"/>
    <path class="st3" d="M564.74,626.41c-.65.31-1.87.55-3.26.55-3.79,0-6.22-2.33-6.22-6,0-3.43,2.35-6.24,6.72-6.24.96,0,2.02.17,2.78.46l-.58,2.71c-.43-.19-1.08-.36-2.04-.36-1.92,0-3.17,1.37-3.14,3.29,0,2.14,1.44,3.29,3.22,3.29.86,0,1.54-.14,2.09-.38l.43,2.69Z"/>
    <path class="st3" d="M569.3,622.01c.1,1.51,1.61,2.23,3.31,2.23,1.25,0,2.26-.17,3.24-.5l.48,2.47c-1.2.5-2.66.74-4.25.74-3.98,0-6.26-2.3-6.26-5.98,0-2.98,1.85-6.26,5.93-6.26,3.79,0,5.23,2.95,5.23,5.86,0,.62-.07,1.18-.12,1.44h-7.56ZM573.6,619.52c0-.89-.38-2.38-2.06-2.38-1.54,0-2.16,1.42-2.26,2.38h4.32Z"/>
    <path class="st3" d="M579.17,618.92c0-1.54-.05-2.83-.1-3.94h3.17l.17,1.63h.05c.86-1.22,2.21-1.9,3.91-1.9,2.57,0,4.87,2.23,4.87,5.98,0,4.27-2.71,6.29-5.33,6.29-1.42,0-2.52-.58-3.05-1.34h-.05v5.83h-3.65v-12.55ZM582.82,621.68c0,.29.02.53.07.77.24.98,1.08,1.73,2.14,1.73,1.58,0,2.52-1.32,2.52-3.31,0-1.87-.84-3.29-2.47-3.29-1.03,0-1.94.77-2.18,1.85-.05.19-.07.43-.07.65v1.61Z"/>
    <path class="st3" d="M593.52,609.68h3.65v6.72h.05c.38-.53.86-.94,1.44-1.22.55-.29,1.22-.46,1.9-.46,2.33,0,4.1,1.61,4.1,5.16v6.84h-3.65v-6.46c0-1.54-.53-2.59-1.9-2.59-.96,0-1.56.62-1.82,1.3-.1.22-.12.53-.12.79v6.96h-3.65v-17.04Z"/>
    <path class="st3" d="M617.35,623.88c0,1.1.05,2.18.19,2.83h-3.29l-.22-1.18h-.07c-.77.94-1.97,1.44-3.36,1.44-2.38,0-3.79-1.73-3.79-3.6,0-3.05,2.74-4.49,6.89-4.49v-.14c0-.65-.34-1.54-2.14-1.54-1.2,0-2.47.41-3.24.89l-.67-2.35c.82-.46,2.42-1.06,4.56-1.06,3.91,0,5.14,2.3,5.14,5.09v4.1ZM613.82,621.17c-1.92,0-3.41.46-3.41,1.85,0,.94.62,1.39,1.44,1.39.89,0,1.66-.6,1.9-1.34.05-.19.07-.41.07-.62v-1.27Z"/>
    <path class="st3" d="M620.26,609.68h3.65v17.04h-3.65v-17.04Z"/>
    <path class="st3" d="M638.45,620.72c0,4.3-3.05,6.26-6.19,6.26-3.43,0-6.07-2.26-6.07-6.05s2.5-6.24,6.29-6.24c3.58,0,5.98,2.47,5.98,6.02ZM629.95,620.84c0,2.02.84,3.53,2.4,3.53,1.44,0,2.33-1.42,2.33-3.55,0-1.73-.67-3.5-2.33-3.5s-2.4,1.8-2.4,3.53Z"/>
    <path class="st3" d="M640.68,623.55c.67.41,2.06.86,3.14.86s1.56-.36,1.56-.96-.36-.91-1.7-1.37c-2.45-.82-3.38-2.14-3.36-3.53,0-2.21,1.87-3.86,4.78-3.86,1.37,0,2.57.34,3.29.7l-.62,2.52c-.53-.29-1.56-.67-2.54-.67-.89,0-1.39.36-1.39.94s.46.86,1.9,1.37c2.23.77,3.14,1.92,3.17,3.62,0,2.21-1.7,3.82-5.06,3.82-1.54,0-2.9-.36-3.79-.84l.65-2.59Z"/>
    <path class="st3" d="M651.12,618.92c0-1.54-.05-2.83-.1-3.94h3.17l.17,1.63h.05c.86-1.22,2.21-1.9,3.91-1.9,2.57,0,4.87,2.23,4.87,5.98,0,4.27-2.71,6.29-5.33,6.29-1.42,0-2.52-.58-3.05-1.34h-.05v5.83h-3.65v-12.55ZM654.77,621.68c0,.29.02.53.07.77.24.98,1.08,1.73,2.14,1.73,1.58,0,2.52-1.32,2.52-3.31,0-1.87-.84-3.29-2.47-3.29-1.03,0-1.94.77-2.18,1.85-.05.19-.07.43-.07.65v1.61Z"/>
    <path class="st3" d="M677.14,620.72c0,4.3-3.05,6.26-6.19,6.26-3.43,0-6.07-2.26-6.07-6.05s2.5-6.24,6.29-6.24c3.58,0,5.98,2.47,5.98,6.02ZM668.64,620.84c0,2.02.84,3.53,2.4,3.53,1.44,0,2.33-1.42,2.33-3.55,0-1.73-.67-3.5-2.33-3.5s-2.4,1.8-2.4,3.53Z"/>
    <path class="st3" d="M679.39,618.84c0-1.73-.02-2.86-.1-3.86h3.12l.14,2.16h.1c.6-1.73,2.02-2.45,3.17-2.45.34,0,.5.02.77.07v3.43c-.29-.05-.58-.1-.98-.1-1.34,0-2.26.72-2.5,1.85-.05.24-.07.53-.07.82v5.95h-3.65v-7.87Z"/>
    <path class="st3" d="M692.28,611.72c0,1.01-.74,1.82-1.97,1.82-1.15,0-1.9-.82-1.9-1.82s.77-1.82,1.94-1.82,1.9.79,1.92,1.82ZM688.51,626.72v-11.74h3.65v11.74h-3.65Z"/>
    <path class="st3" d="M695.09,618.72c0-1.46-.05-2.69-.1-3.74h3.17l.17,1.63h.07c.48-.77,1.66-1.9,3.62-1.9,2.4,0,4.2,1.61,4.2,5.06v6.94h-3.65v-6.5c0-1.51-.53-2.54-1.85-2.54-1.01,0-1.61.7-1.87,1.37-.1.24-.12.58-.12.91v6.77h-3.65v-7.99Z"/>
    <path class="st3" d="M709.13,623.55c.67.41,2.06.86,3.14.86s1.56-.36,1.56-.96-.36-.91-1.7-1.37c-2.45-.82-3.38-2.14-3.36-3.53,0-2.21,1.87-3.86,4.78-3.86,1.37,0,2.57.34,3.29.7l-.62,2.52c-.53-.29-1.56-.67-2.54-.67-.89,0-1.39.36-1.39.94s.46.86,1.9,1.37c2.23.77,3.14,1.92,3.17,3.62,0,2.21-1.7,3.82-5.06,3.82-1.54,0-2.9-.36-3.79-.84l.65-2.59Z"/>
    <path class="st3" d="M729.67,610.13c-1.34,2.21-2.42,5.42-2.42,9.72s1.08,7.42,2.42,9.67h-2.54c-1.27-1.87-2.74-5.06-2.74-9.67.02-4.68,1.46-7.85,2.74-9.72h2.54Z"/>
    <path class="st3" d="M740.76,626.41c-.65.31-1.87.55-3.26.55-3.79,0-6.22-2.33-6.22-6,0-3.43,2.35-6.24,6.72-6.24.96,0,2.02.17,2.78.46l-.58,2.71c-.43-.19-1.08-.36-2.04-.36-1.92,0-3.17,1.37-3.14,3.29,0,2.14,1.44,3.29,3.22,3.29.86,0,1.54-.14,2.09-.38l.43,2.69Z"/>
    <path class="st3" d="M745.32,622.01c.1,1.51,1.61,2.23,3.31,2.23,1.25,0,2.26-.17,3.24-.5l.48,2.47c-1.2.5-2.66.74-4.25.74-3.98,0-6.26-2.3-6.26-5.98,0-2.98,1.85-6.26,5.93-6.26,3.79,0,5.23,2.95,5.23,5.86,0,.62-.07,1.18-.12,1.44h-7.56ZM749.62,619.52c0-.89-.38-2.38-2.06-2.38-1.54,0-2.16,1.42-2.26,2.38h4.32Z"/>
    <path class="st3" d="M755.62,626.72v-9.05h-1.56v-2.69h1.56v-.48c0-3.26,2.5-5.09,6.12-5.09,1.25,0,2.74.29,3.46.72l-.7,2.76c-.58-.31-1.51-.6-2.67-.6-1.92,0-2.59.98-2.59,2.28v.41h7.13v11.74h-3.65v-9.05h-3.46v9.05h-3.65Z"/>
    <path class="st3" d="M772.08,614.98l1.15,1.97c.34.6.65,1.18.96,1.75h.05c.31-.65.6-1.22.91-1.8l1.03-1.92h3.96l-3.86,5.59,3.91,6.14h-4.13l-1.18-2.11c-.34-.58-.62-1.18-.91-1.78h-.07c-.29.62-.6,1.2-.89,1.78l-1.1,2.11h-4.01l3.98-5.98-3.89-5.76h4.08Z"/>
    <path class="st3" d="M785.52,611.72c0,1.01-.74,1.82-1.97,1.82-1.15,0-1.9-.82-1.9-1.82s.77-1.82,1.94-1.82,1.9.79,1.92,1.82ZM781.75,626.72v-11.74h3.65v11.74h-3.65Z"/>
    <path class="st3" d="M788.33,618.72c0-1.46-.05-2.69-.1-3.74h3.1l.14,1.58h.07c.5-.77,1.56-1.87,3.55-1.87,1.54,0,2.71.79,3.22,2.02h.05c.46-.62.96-1.1,1.54-1.44.65-.36,1.37-.58,2.23-.58,2.26,0,3.96,1.58,3.96,5.11v6.91h-3.55v-6.38c0-1.7-.55-2.69-1.73-2.69-.86,0-1.44.58-1.7,1.27-.07.26-.12.62-.12.94v6.86h-3.55v-6.6c0-1.46-.53-2.47-1.7-2.47-.94,0-1.49.72-1.7,1.3-.12.29-.14.62-.14.94v6.84h-3.55v-7.99Z"/>
    <path class="st3" d="M811.78,622.01c.1,1.51,1.61,2.23,3.31,2.23,1.25,0,2.26-.17,3.24-.5l.48,2.47c-1.2.5-2.66.74-4.25.74-3.98,0-6.26-2.3-6.26-5.98,0-2.98,1.85-6.26,5.93-6.26,3.79,0,5.23,2.95,5.23,5.86,0,.62-.07,1.18-.12,1.44h-7.56ZM816.07,619.52c0-.89-.38-2.38-2.06-2.38-1.54,0-2.16,1.42-2.26,2.38h4.32Z"/>
    <path class="st3" d="M819.82,629.57c.77-2.14,1.42-4.63,1.75-6.82l3.72-.24c-.79,2.45-1.87,4.97-3.02,6.84l-2.45.22Z"/>
    <path class="st3" d="M841.15,626.41c-.65.31-1.87.55-3.26.55-3.79,0-6.22-2.33-6.22-6,0-3.43,2.35-6.24,6.72-6.24.96,0,2.02.17,2.78.46l-.58,2.71c-.43-.19-1.08-.36-2.04-.36-1.92,0-3.17,1.37-3.14,3.29,0,2.14,1.44,3.29,3.22,3.29.86,0,1.54-.14,2.09-.38l.43,2.69Z"/>
    <path class="st3" d="M845.71,622.01c.1,1.51,1.61,2.23,3.31,2.23,1.25,0,2.26-.17,3.24-.5l.48,2.47c-1.2.5-2.66.74-4.25.74-3.98,0-6.26-2.3-6.26-5.98,0-2.98,1.85-6.26,5.93-6.26,3.79,0,5.23,2.95,5.23,5.86,0,.62-.07,1.18-.12,1.44h-7.56ZM850.01,619.52c0-.89-.38-2.38-2.06-2.38-1.54,0-2.16,1.42-2.26,2.38h4.32Z"/>
    <path class="st3" d="M856.01,626.72v-9.05h-1.56v-2.69h1.56v-.46c0-1.42.43-2.98,1.46-3.94.94-.86,2.18-1.18,3.26-1.18.79,0,1.42.12,1.92.24l-.14,2.81c-.31-.1-.7-.17-1.18-.17-1.2,0-1.7.94-1.7,2.09v.6h2.35v2.69h-2.33v9.05h-3.65Z"/>
    <path class="st3" d="M868.2,611.81v3.17h2.62v2.69h-2.62v4.25c0,1.42.36,2.06,1.44,2.06.5,0,.74-.02,1.08-.1l.02,2.76c-.46.17-1.34.31-2.35.31-1.18,0-2.16-.41-2.76-1.01-.67-.7-1.01-1.82-1.01-3.48v-4.8h-1.56v-2.69h1.56v-2.18l3.58-.98Z"/>
    <path class="st3" d="M876.7,611.72c0,1.01-.74,1.82-1.97,1.82-1.15,0-1.9-.82-1.9-1.82s.77-1.82,1.94-1.82,1.9.79,1.92,1.82ZM872.93,626.72v-11.74h3.65v11.74h-3.65Z"/>
    <path class="st3" d="M879.5,609.68h3.65v6.7h.05c.7-1.01,1.92-1.66,3.55-1.66,2.81,0,4.85,2.33,4.82,5.93,0,4.22-2.66,6.34-5.35,6.34-1.37,0-2.71-.5-3.53-1.9h-.05l-.14,1.63h-3.1c.05-.77.1-2.18.1-3.5v-13.54ZM883.15,621.72c0,.24.02.46.07.65.24.96,1.08,1.73,2.14,1.73,1.56,0,2.52-1.2,2.52-3.31,0-1.82-.82-3.26-2.52-3.26-.98,0-1.9.74-2.14,1.8-.05.22-.07.43-.07.67v1.73Z"/>
    <path class="st3" d="M904.92,622.95c0,1.54.05,2.79.1,3.77h-3.17l-.17-1.66h-.07c-.46.72-1.56,1.92-3.67,1.92-2.4,0-4.13-1.49-4.13-5.11v-6.89h3.65v6.31c0,1.7.55,2.74,1.85,2.74,1.01,0,1.61-.7,1.82-1.27.1-.22.14-.48.14-.79v-6.98h3.65v7.97Z"/>
    <path class="st3" d="M911.93,611.81v3.17h2.62v2.69h-2.62v4.25c0,1.42.36,2.06,1.44,2.06.5,0,.74-.02,1.08-.1l.02,2.76c-.46.17-1.34.31-2.35.31-1.18,0-2.16-.41-2.76-1.01-.67-.7-1.01-1.82-1.01-3.48v-4.8h-1.56v-2.69h1.56v-2.18l3.58-.98Z"/>
    <path class="st3" d="M919.34,622.01c.1,1.51,1.61,2.23,3.31,2.23,1.25,0,2.26-.17,3.24-.5l.48,2.47c-1.2.5-2.66.74-4.25.74-3.98,0-6.26-2.3-6.26-5.98,0-2.98,1.85-6.26,5.93-6.26,3.79,0,5.23,2.95,5.23,5.86,0,.62-.07,1.18-.12,1.44h-7.56ZM923.64,619.52c0-.89-.38-2.38-2.06-2.38-1.54,0-2.16,1.42-2.26,2.38h4.32Z"/>
    <path class="st3" d="M929.21,618.72c0-1.46-.05-2.69-.1-3.74h3.17l.17,1.63h.07c.48-.77,1.66-1.9,3.62-1.9,2.4,0,4.2,1.61,4.2,5.06v6.94h-3.65v-6.5c0-1.51-.53-2.54-1.85-2.54-1.01,0-1.61.7-1.87,1.37-.1.24-.12.58-.12.91v6.77h-3.65v-7.99Z"/>
    <path class="st3" d="M957.89,623.88c0,1.1.05,2.18.19,2.83h-3.29l-.22-1.18h-.07c-.77.94-1.97,1.44-3.36,1.44-2.38,0-3.79-1.73-3.79-3.6,0-3.05,2.74-4.49,6.89-4.49v-.14c0-.65-.34-1.54-2.14-1.54-1.2,0-2.47.41-3.24.89l-.67-2.35c.82-.46,2.42-1.06,4.56-1.06,3.91,0,5.14,2.3,5.14,5.09v4.1ZM954.36,621.17c-1.92,0-3.41.46-3.41,1.85,0,.94.62,1.39,1.44,1.39.89,0,1.66-.6,1.9-1.34.05-.19.07-.41.07-.62v-1.27Z"/>
    <path class="st3" d="M960.79,618.72c0-1.46-.05-2.69-.1-3.74h3.17l.17,1.63h.07c.48-.77,1.66-1.9,3.62-1.9,2.4,0,4.2,1.61,4.2,5.06v6.94h-3.65v-6.5c0-1.51-.53-2.54-1.85-2.54-1.01,0-1.61.7-1.87,1.37-.1.24-.12.58-.12.91v6.77h-3.65v-7.99Z"/>
    <path class="st3" d="M986.23,609.68v13.54c0,1.32.05,2.71.1,3.5h-3.24l-.14-1.7h-.07c-.72,1.3-2.16,1.97-3.67,1.97-2.78,0-5.02-2.38-5.02-6.03-.02-3.96,2.45-6.26,5.26-6.26,1.46,0,2.57.53,3.1,1.32h.05v-6.34h3.65ZM982.58,619.95c0-.19,0-.46-.05-.67-.22-.96-1.01-1.78-2.14-1.78-1.68,0-2.52,1.49-2.52,3.34,0,1.99.98,3.24,2.5,3.24,1.06,0,1.92-.72,2.14-1.75.05-.26.07-.55.07-.84v-1.54Z"/>
    <path class="st3" d="M1002.82,626.41c-.65.31-1.87.55-3.26.55-3.79,0-6.22-2.33-6.22-6,0-3.43,2.35-6.24,6.72-6.24.96,0,2.02.17,2.78.46l-.58,2.71c-.43-.19-1.08-.36-2.04-.36-1.92,0-3.17,1.37-3.14,3.29,0,2.14,1.44,3.29,3.22,3.29.86,0,1.54-.14,2.09-.38l.43,2.69Z"/>
    <path class="st3" d="M1007.38,622.01c.1,1.51,1.61,2.23,3.31,2.23,1.25,0,2.26-.17,3.24-.5l.48,2.47c-1.2.5-2.66.74-4.25.74-3.98,0-6.26-2.3-6.26-5.98,0-2.98,1.85-6.26,5.93-6.26,3.79,0,5.23,2.95,5.23,5.86,0,.62-.07,1.18-.12,1.44h-7.56ZM1011.67,619.52c0-.89-.38-2.38-2.06-2.38-1.54,0-2.16,1.42-2.26,2.38h4.32Z"/>
    <path class="st3" d="M1017.67,626.72v-9.05h-1.56v-2.69h1.56v-.46c0-1.42.43-2.98,1.46-3.94.94-.86,2.18-1.18,3.26-1.18.79,0,1.42.12,1.92.24l-.14,2.81c-.31-.1-.7-.17-1.18-.17-1.2,0-1.7.94-1.7,2.09v.6h2.35v2.69h-2.33v9.05h-3.65Z"/>
    <path class="st3" d="M1025.42,618.92c0-1.54-.05-2.83-.1-3.94h3.17l.17,1.63h.05c.86-1.22,2.21-1.9,3.91-1.9,2.57,0,4.87,2.23,4.87,5.98,0,4.27-2.71,6.29-5.33,6.29-1.42,0-2.52-.58-3.05-1.34h-.05v5.83h-3.65v-12.55ZM1029.07,621.68c0,.29.02.53.07.77.24.98,1.08,1.73,2.14,1.73,1.58,0,2.52-1.32,2.52-3.31,0-1.87-.84-3.29-2.47-3.29-1.03,0-1.94.77-2.18,1.85-.05.19-.07.43-.07.65v1.61Z"/>
    <path class="st3" d="M1051.44,620.72c0,4.3-3.05,6.26-6.19,6.26-3.43,0-6.07-2.26-6.07-6.05s2.5-6.24,6.29-6.24c3.58,0,5.98,2.47,5.98,6.02ZM1042.94,620.84c0,2.02.84,3.53,2.4,3.53,1.44,0,2.33-1.42,2.33-3.55,0-1.73-.67-3.5-2.33-3.5s-2.4,1.8-2.4,3.53Z"/>
    <path class="st3" d="M1065.15,609.68v13.54c0,1.32.05,2.71.1,3.5h-3.24l-.14-1.7h-.07c-.72,1.3-2.16,1.97-3.67,1.97-2.78,0-5.02-2.38-5.02-6.03-.02-3.96,2.45-6.26,5.26-6.26,1.46,0,2.57.53,3.1,1.32h.05v-6.34h3.65ZM1061.5,619.95c0-.19,0-.46-.05-.67-.22-.96-1.01-1.78-2.14-1.78-1.68,0-2.52,1.49-2.52,3.34,0,1.99.98,3.24,2.5,3.24,1.06,0,1.92-.72,2.14-1.75.05-.26.07-.55.07-.84v-1.54Z"/>
    <path class="st3" d="M1079.67,620.72c0,4.3-3.05,6.26-6.19,6.26-3.43,0-6.07-2.26-6.07-6.05s2.5-6.24,6.29-6.24c3.58,0,5.98,2.47,5.98,6.02ZM1071.17,620.84c0,2.02.84,3.53,2.4,3.53,1.44,0,2.33-1.42,2.33-3.55,0-1.73-.67-3.5-2.33-3.5s-2.4,1.8-2.4,3.53Z"/>
    <path class="st3" d="M1084.13,614.98l1.15,1.97c.34.6.65,1.18.96,1.75h.05c.31-.65.6-1.22.91-1.8l1.03-1.92h3.96l-3.86,5.59,3.91,6.14h-4.13l-1.18-2.11c-.34-.58-.62-1.18-.91-1.78h-.07c-.29.62-.6,1.2-.89,1.78l-1.1,2.11h-4.01l3.98-5.98-3.89-5.76h4.08Z"/>
    <path class="st3" d="M1097.57,611.72c0,1.01-.74,1.82-1.97,1.82-1.15,0-1.9-.82-1.9-1.82s.77-1.82,1.94-1.82,1.9.79,1.92,1.82ZM1093.8,626.72v-11.74h3.65v11.74h-3.65Z"/>
    <path class="st3" d="M1100.38,618.72c0-1.46-.05-2.69-.1-3.74h3.1l.14,1.58h.07c.5-.77,1.56-1.87,3.55-1.87,1.54,0,2.71.79,3.22,2.02h.05c.46-.62.96-1.1,1.54-1.44.65-.36,1.37-.58,2.23-.58,2.26,0,3.96,1.58,3.96,5.11v6.91h-3.55v-6.38c0-1.7-.55-2.69-1.73-2.69-.86,0-1.44.58-1.7,1.27-.07.26-.12.62-.12.94v6.86h-3.55v-6.6c0-1.46-.53-2.47-1.7-2.47-.94,0-1.49.72-1.7,1.3-.12.29-.14.62-.14.94v6.84h-3.55v-7.99Z"/>
    <path class="st3" d="M1123.82,622.01c.1,1.51,1.61,2.23,3.31,2.23,1.25,0,2.26-.17,3.24-.5l.48,2.47c-1.2.5-2.66.74-4.25.74-3.98,0-6.26-2.3-6.26-5.98,0-2.98,1.85-6.26,5.93-6.26,3.79,0,5.23,2.95,5.23,5.86,0,.62-.07,1.18-.12,1.44h-7.56ZM1128.12,619.52c0-.89-.38-2.38-2.06-2.38-1.54,0-2.16,1.42-2.26,2.38h4.32Z"/>
    <path class="st3" d="M275.9,647.72c0-1.54-.05-2.83-.1-3.94h3.17l.17,1.63h.05c.86-1.22,2.21-1.9,3.91-1.9,2.57,0,4.87,2.23,4.87,5.98,0,4.27-2.71,6.29-5.33,6.29-1.42,0-2.52-.58-3.05-1.34h-.05v5.83h-3.65v-12.55ZM279.55,650.48c0,.29.02.53.07.77.24.98,1.08,1.73,2.14,1.73,1.58,0,2.52-1.32,2.52-3.31,0-1.87-.84-3.29-2.47-3.29-1.03,0-1.94.77-2.18,1.85-.05.19-.07.43-.07.65v1.61Z"/>
    <path class="st3" d="M290.26,647.64c0-1.73-.02-2.86-.1-3.86h3.12l.14,2.16h.1c.6-1.73,2.02-2.45,3.17-2.45.34,0,.5.02.77.07v3.43c-.29-.05-.58-.1-.98-.1-1.34,0-2.26.72-2.5,1.85-.05.24-.07.53-.07.82v5.95h-3.65v-7.87Z"/>
    <path class="st3" d="M310.78,649.52c0,4.3-3.05,6.26-6.19,6.26-3.43,0-6.07-2.26-6.07-6.05s2.5-6.24,6.29-6.24c3.58,0,5.98,2.47,5.98,6.02ZM302.28,649.64c0,2.02.84,3.53,2.4,3.53,1.44,0,2.33-1.42,2.33-3.55,0-1.73-.67-3.5-2.33-3.5s-2.4,1.8-2.4,3.53Z"/>
    <path class="st3" d="M315.24,643.78l1.15,1.97c.34.6.65,1.18.96,1.75h.05c.31-.65.6-1.22.91-1.8l1.03-1.92h3.96l-3.86,5.59,3.91,6.14h-4.13l-1.18-2.11c-.34-.58-.62-1.18-.91-1.78h-.07c-.29.62-.6,1.2-.89,1.78l-1.1,2.11h-4.01l3.98-5.98-3.89-5.76h4.08Z"/>
    <path class="st3" d="M327.19,650.81c.1,1.51,1.61,2.23,3.31,2.23,1.25,0,2.26-.17,3.24-.5l.48,2.47c-1.2.5-2.66.74-4.25.74-3.98,0-6.26-2.3-6.26-5.98,0-2.98,1.85-6.26,5.93-6.26,3.79,0,5.23,2.95,5.23,5.86,0,.62-.07,1.18-.12,1.44h-7.56ZM331.49,648.32c0-.89-.38-2.38-2.06-2.38-1.54,0-2.16,1.42-2.26,2.38h4.32Z"/>
    <path class="st3" d="M341.14,640.61v3.17h2.62v2.69h-2.62v4.25c0,1.42.36,2.06,1.44,2.06.5,0,.74-.02,1.08-.1l.02,2.76c-.46.17-1.34.31-2.35.31-1.18,0-2.16-.41-2.76-1.01-.67-.7-1.01-1.82-1.01-3.48v-4.8h-1.56v-2.69h1.56v-2.18l3.58-.98Z"/>
    <path class="st3" d="M349.63,640.52c0,1.01-.74,1.82-1.97,1.82-1.15,0-1.9-.82-1.9-1.82s.77-1.82,1.94-1.82,1.9.79,1.92,1.82ZM345.86,655.52v-11.74h3.65v11.74h-3.65Z"/>
    <path class="st3" d="M352.44,638.48h3.65v17.04h-3.65v-17.04Z"/>
    <path class="st3" d="M358.42,658.33c1.34-2.23,2.42-5.47,2.42-9.72s-1.08-7.44-2.42-9.67h2.54c1.27,1.85,2.74,4.99,2.74,9.7-.02,4.66-1.46,7.8-2.74,9.7h-2.54Z"/>
    <path class="st3" d="M381.19,652.68c0,1.1.05,2.18.19,2.83h-3.29l-.22-1.18h-.07c-.77.94-1.97,1.44-3.36,1.44-2.38,0-3.79-1.73-3.79-3.6,0-3.05,2.74-4.49,6.89-4.49v-.14c0-.65-.34-1.54-2.14-1.54-1.2,0-2.47.41-3.24.89l-.67-2.35c.82-.46,2.42-1.06,4.56-1.06,3.91,0,5.14,2.3,5.14,5.09v4.1ZM377.66,649.97c-1.92,0-3.41.46-3.41,1.85,0,.94.62,1.39,1.44,1.39.89,0,1.66-.6,1.9-1.34.05-.19.07-.41.07-.62v-1.27Z"/>
    <path class="st3" d="M384.1,647.52c0-1.46-.05-2.69-.1-3.74h3.17l.17,1.63h.07c.48-.77,1.66-1.9,3.62-1.9,2.4,0,4.2,1.61,4.2,5.06v6.94h-3.65v-6.5c0-1.51-.53-2.54-1.85-2.54-1.01,0-1.61.7-1.87,1.37-.1.24-.12.58-.12.91v6.77h-3.65v-7.99Z"/>
    <path class="st3" d="M409.54,638.48v13.54c0,1.32.05,2.71.1,3.5h-3.24l-.14-1.7h-.07c-.72,1.3-2.16,1.97-3.67,1.97-2.78,0-5.02-2.38-5.02-6.03-.02-3.96,2.45-6.26,5.26-6.26,1.46,0,2.57.53,3.1,1.32h.05v-6.34h3.65ZM405.89,648.75c0-.19,0-.46-.05-.67-.22-.96-1.01-1.78-2.14-1.78-1.68,0-2.52,1.49-2.52,3.34,0,1.99.98,3.24,2.5,3.24,1.06,0,1.92-.72,2.14-1.75.05-.26.07-.55.07-.84v-1.54Z"/>
    <path class="st3" d="M427.08,652.68c0,1.1.05,2.18.19,2.83h-3.29l-.22-1.18h-.07c-.77.94-1.97,1.44-3.36,1.44-2.38,0-3.79-1.73-3.79-3.6,0-3.05,2.74-4.49,6.89-4.49v-.14c0-.65-.34-1.54-2.14-1.54-1.2,0-2.47.41-3.24.89l-.67-2.35c.82-.46,2.42-1.06,4.56-1.06,3.91,0,5.14,2.3,5.14,5.09v4.1ZM423.55,649.97c-1.92,0-3.41.46-3.41,1.85,0,.94.62,1.39,1.44,1.39.89,0,1.66-.6,1.9-1.34.05-.19.07-.41.07-.62v-1.27Z"/>
    <path class="st3" d="M429.98,647.52c0-1.46-.05-2.69-.1-3.74h3.1l.14,1.58h.07c.5-.77,1.56-1.87,3.55-1.87,1.54,0,2.71.79,3.22,2.02h.05c.46-.62.96-1.1,1.54-1.44.65-.36,1.37-.58,2.23-.58,2.26,0,3.96,1.58,3.96,5.11v6.91h-3.55v-6.38c0-1.7-.55-2.69-1.73-2.69-.86,0-1.44.58-1.7,1.27-.07.26-.12.62-.12.94v6.86h-3.55v-6.6c0-1.46-.53-2.47-1.7-2.47-.94,0-1.49.72-1.7,1.3-.12.29-.14.62-.14.94v6.84h-3.55v-7.99Z"/>
    <path class="st3" d="M462.22,649.52c0,4.3-3.05,6.26-6.19,6.26-3.43,0-6.07-2.26-6.07-6.05s2.5-6.24,6.29-6.24c3.58,0,5.98,2.47,5.98,6.02ZM453.72,649.64c0,2.02.84,3.53,2.4,3.53,1.44,0,2.33-1.42,2.33-3.55,0-1.73-.67-3.5-2.33-3.5s-2.4,1.8-2.4,3.53Z"/>
    <path class="st3" d="M466.68,643.78l1.15,1.97c.34.6.65,1.18.96,1.75h.05c.31-.65.6-1.22.91-1.8l1.03-1.92h3.96l-3.87,5.59,3.91,6.14h-4.13l-1.18-2.11c-.34-.58-.62-1.18-.91-1.78h-.07c-.29.62-.6,1.2-.89,1.78l-1.1,2.11h-4.01l3.98-5.98-3.89-5.76h4.08Z"/>
    <path class="st3" d="M480.12,640.52c0,1.01-.74,1.82-1.97,1.82-1.15,0-1.9-.82-1.9-1.82s.77-1.82,1.94-1.82,1.9.79,1.92,1.82ZM476.35,655.52v-11.74h3.65v11.74h-3.65Z"/>
    <path class="st3" d="M491.74,655.21c-.65.31-1.87.55-3.26.55-3.79,0-6.22-2.33-6.22-6,0-3.43,2.35-6.24,6.72-6.24.96,0,2.02.17,2.78.46l-.58,2.71c-.43-.19-1.08-.36-2.04-.36-1.92,0-3.17,1.37-3.14,3.29,0,2.14,1.44,3.29,3.22,3.29.86,0,1.54-.14,2.09-.38l.43,2.69Z"/>
    <path class="st3" d="M497.52,640.52c0,1.01-.74,1.82-1.97,1.82-1.15,0-1.9-.82-1.9-1.82s.77-1.82,1.94-1.82,1.9.79,1.92,1.82ZM493.75,655.52v-11.74h3.65v11.74h-3.65Z"/>
    <path class="st3" d="M500.33,638.48h3.65v17.04h-3.65v-17.04Z"/>
    <path class="st3" d="M506.93,638.48h3.65v17.04h-3.65v-17.04Z"/>
    <path class="st3" d="M517.3,640.52c0,1.01-.74,1.82-1.97,1.82-1.15,0-1.9-.82-1.9-1.82s.77-1.82,1.94-1.82,1.9.79,1.92,1.82ZM513.53,655.52v-11.74h3.65v11.74h-3.65Z"/>
    <path class="st3" d="M520.1,647.52c0-1.46-.05-2.69-.1-3.74h3.17l.17,1.63h.07c.48-.77,1.66-1.9,3.62-1.9,2.4,0,4.2,1.61,4.2,5.06v6.94h-3.65v-6.5c0-1.51-.53-2.54-1.85-2.54-1.01,0-1.61.7-1.87,1.37-.1.24-.12.58-.12.91v6.77h-3.65v-7.99Z"/>
    <path class="st3" d="M539.71,648v2.42h-6.29v-2.42h6.29Z"/>
    <path class="st3" d="M551.09,655.21c-.65.31-1.87.55-3.26.55-3.79,0-6.22-2.33-6.22-6,0-3.43,2.35-6.24,6.72-6.24.96,0,2.02.17,2.78.46l-.58,2.71c-.43-.19-1.08-.36-2.04-.36-1.92,0-3.17,1.37-3.14,3.29,0,2.14,1.44,3.29,3.22,3.29.86,0,1.54-.14,2.09-.38l.43,2.69Z"/>
    <path class="st3" d="M553.1,638.48h3.65v17.04h-3.65v-17.04Z"/>
    <path class="st3" d="M569.47,652.68c0,1.1.05,2.18.19,2.83h-3.29l-.22-1.18h-.07c-.77.94-1.97,1.44-3.36,1.44-2.38,0-3.79-1.73-3.79-3.6,0-3.05,2.74-4.49,6.89-4.49v-.14c0-.65-.34-1.54-2.14-1.54-1.2,0-2.47.41-3.24.89l-.67-2.35c.82-.46,2.42-1.06,4.56-1.06,3.91,0,5.14,2.3,5.14,5.09v4.1ZM565.94,649.97c-1.92,0-3.41.46-3.41,1.85,0,.94.62,1.39,1.44,1.39.89,0,1.66-.6,1.9-1.34.05-.19.07-.41.07-.62v-1.27Z"/>
    <path class="st3" d="M574.8,643.78l1.58,5.45c.29,1.01.48,1.92.67,2.86h.07c.19-.96.38-1.85.65-2.86l1.51-5.45h3.84l-4.37,11.74h-3.65l-4.27-11.74h3.96Z"/>
    <path class="st3" d="M595.87,651.75c0,1.54.05,2.79.1,3.77h-3.17l-.17-1.66h-.07c-.46.72-1.56,1.92-3.67,1.92-2.4,0-4.13-1.49-4.13-5.11v-6.89h3.65v6.31c0,1.7.55,2.74,1.85,2.74,1.01,0,1.61-.7,1.82-1.27.1-.22.14-.48.14-.79v-6.98h3.65v7.97Z"/>
    <path class="st3" d="M598.8,638.48h3.65v17.04h-3.65v-17.04Z"/>
    <path class="st3" d="M615.17,652.68c0,1.1.05,2.18.19,2.83h-3.29l-.22-1.18h-.07c-.77.94-1.97,1.44-3.36,1.44-2.38,0-3.79-1.73-3.79-3.6,0-3.05,2.74-4.49,6.89-4.49v-.14c0-.65-.34-1.54-2.14-1.54-1.2,0-2.47.41-3.24.89l-.67-2.35c.82-.46,2.42-1.06,4.56-1.06,3.91,0,5.14,2.3,5.14,5.09v4.1ZM611.64,649.97c-1.92,0-3.41.46-3.41,1.85,0,.94.62,1.39,1.44,1.39.89,0,1.66-.6,1.9-1.34.05-.19.07-.41.07-.62v-1.27Z"/>
    <path class="st3" d="M618.07,647.52c0-1.46-.05-2.69-.1-3.74h3.17l.17,1.63h.07c.48-.77,1.66-1.9,3.62-1.9,2.4,0,4.2,1.61,4.2,5.06v6.94h-3.65v-6.5c0-1.51-.53-2.54-1.85-2.54-1.01,0-1.61.7-1.87,1.37-.1.24-.12.58-.12.91v6.77h-3.65v-7.99Z"/>
    <path class="st3" d="M635.9,640.52c0,1.01-.74,1.82-1.97,1.82-1.15,0-1.9-.82-1.9-1.82s.77-1.82,1.94-1.82,1.9.79,1.92,1.82ZM632.14,655.52v-11.74h3.65v11.74h-3.65Z"/>
    <path class="st3" d="M647.52,655.21c-.65.31-1.87.55-3.26.55-3.79,0-6.22-2.33-6.22-6,0-3.43,2.35-6.24,6.72-6.24.96,0,2.02.17,2.78.46l-.58,2.71c-.43-.19-1.08-.36-2.04-.36-1.92,0-3.17,1.37-3.14,3.29,0,2.14,1.44,3.29,3.22,3.29.86,0,1.54-.14,2.09-.38l.43,2.69Z"/>
    <path class="st3" d="M664.15,652.68c0,1.1.05,2.18.19,2.83h-3.29l-.22-1.18h-.07c-.77.94-1.97,1.44-3.36,1.44-2.38,0-3.79-1.73-3.79-3.6,0-3.05,2.74-4.49,6.89-4.49v-.14c0-.65-.34-1.54-2.14-1.54-1.2,0-2.47.41-3.24.89l-.67-2.35c.82-.46,2.42-1.06,4.56-1.06,3.91,0,5.14,2.3,5.14,5.09v4.1ZM660.63,649.97c-1.92,0-3.41.46-3.41,1.85,0,.94.62,1.39,1.44,1.39.89,0,1.66-.6,1.9-1.34.05-.19.07-.41.07-.62v-1.27Z"/>
    <path class="st3" d="M675.86,655.21c-.65.31-1.87.55-3.26.55-3.79,0-6.22-2.33-6.22-6,0-3.43,2.35-6.24,6.72-6.24.96,0,2.02.17,2.78.46l-.58,2.71c-.43-.19-1.08-.36-2.04-.36-1.92,0-3.17,1.37-3.14,3.29,0,2.14,1.44,3.29,3.22,3.29.86,0,1.54-.14,2.09-.38l.43,2.69Z"/>
    <path class="st3" d="M681.65,640.52c0,1.01-.74,1.82-1.97,1.82-1.15,0-1.9-.82-1.9-1.82s.77-1.82,1.94-1.82,1.9.79,1.92,1.82ZM677.88,655.52v-11.74h3.65v11.74h-3.65Z"/>
    <path class="st3" d="M695.83,638.48v13.54c0,1.32.05,2.71.1,3.5h-3.24l-.14-1.7h-.07c-.72,1.3-2.16,1.97-3.67,1.97-2.78,0-5.02-2.38-5.02-6.03-.02-3.96,2.45-6.26,5.26-6.26,1.46,0,2.57.53,3.1,1.32h.05v-6.34h3.65ZM692.18,648.75c0-.19,0-.46-.05-.67-.22-.96-1.01-1.78-2.14-1.78-1.68,0-2.52,1.49-2.52,3.34,0,1.99.98,3.24,2.5,3.24,1.06,0,1.92-.72,2.14-1.75.05-.26.07-.55.07-.84v-1.54Z"/>
    <path class="st3" d="M706.13,643.78l.96,4.82c.22,1.2.46,2.5.65,3.84h.07c.22-1.34.58-2.66.84-3.82l1.25-4.85h2.88l1.18,4.68c.34,1.34.65,2.64.86,3.98h.05c.17-1.32.41-2.66.7-4.01l.98-4.66h3.58l-3.6,11.74h-3.41l-1.1-4.1c-.31-1.15-.53-2.21-.77-3.67h-.05c-.22,1.46-.46,2.57-.74,3.65l-1.18,4.13h-3.43l-3.43-11.74h3.72Z"/>
    <path class="st3" d="M724.27,650.81c.1,1.51,1.61,2.23,3.31,2.23,1.25,0,2.26-.17,3.24-.5l.48,2.47c-1.2.5-2.66.74-4.25.74-3.98,0-6.26-2.3-6.26-5.98,0-2.98,1.85-6.26,5.93-6.26,3.79,0,5.23,2.95,5.23,5.86,0,.62-.07,1.18-.12,1.44h-7.56ZM728.57,648.32c0-.89-.38-2.38-2.06-2.38-1.54,0-2.16,1.42-2.26,2.38h4.32Z"/>
    <path class="st3" d="M734.14,647.64c0-1.73-.02-2.86-.1-3.86h3.12l.14,2.16h.1c.6-1.73,2.02-2.45,3.17-2.45.34,0,.5.02.77.07v3.43c-.29-.05-.58-.1-.98-.1-1.34,0-2.26.72-2.5,1.85-.05.24-.07.53-.07.82v5.95h-3.65v-7.87Z"/>
    <path class="st3" d="M745.87,650.81c.1,1.51,1.61,2.23,3.31,2.23,1.25,0,2.26-.17,3.24-.5l.48,2.47c-1.2.5-2.66.74-4.25.74-3.98,0-6.26-2.3-6.26-5.98,0-2.98,1.85-6.26,5.93-6.26,3.79,0,5.23,2.95,5.23,5.86,0,.62-.07,1.18-.12,1.44h-7.56ZM750.17,648.32c0-.89-.38-2.38-2.06-2.38-1.54,0-2.16,1.42-2.26,2.38h4.32Z"/>
    <path class="st3" d="M770.35,652.68c0,1.1.05,2.18.19,2.83h-3.29l-.22-1.18h-.07c-.77.94-1.97,1.44-3.36,1.44-2.38,0-3.79-1.73-3.79-3.6,0-3.05,2.74-4.49,6.89-4.49v-.14c0-.65-.34-1.54-2.14-1.54-1.2,0-2.47.41-3.24.89l-.67-2.35c.82-.46,2.42-1.06,4.56-1.06,3.91,0,5.14,2.3,5.14,5.09v4.1ZM766.82,649.97c-1.92,0-3.41.46-3.41,1.85,0,.94.62,1.39,1.44,1.39.89,0,1.66-.6,1.9-1.34.05-.19.07-.41.07-.62v-1.27Z"/>
    <path class="st3" d="M782.06,655.21c-.65.31-1.87.55-3.26.55-3.79,0-6.22-2.33-6.22-6,0-3.43,2.35-6.24,6.72-6.24.96,0,2.02.17,2.78.46l-.58,2.71c-.43-.19-1.08-.36-2.04-.36-1.92,0-3.17,1.37-3.14,3.29,0,2.14,1.44,3.29,3.22,3.29.86,0,1.54-.14,2.09-.38l.43,2.69Z"/>
    <path class="st3" d="M788.54,640.61v3.17h2.62v2.69h-2.62v4.25c0,1.42.36,2.06,1.44,2.06.5,0,.74-.02,1.08-.1l.02,2.76c-.46.17-1.34.31-2.35.31-1.18,0-2.16-.41-2.76-1.01-.67-.7-1.01-1.82-1.01-3.48v-4.8h-1.56v-2.69h1.56v-2.18l3.58-.98Z"/>
    <path class="st3" d="M797.04,640.52c0,1.01-.74,1.82-1.97,1.82-1.15,0-1.9-.82-1.9-1.82s.77-1.82,1.94-1.82,1.9.79,1.92,1.82ZM793.27,655.52v-11.74h3.65v11.74h-3.65Z"/>
    <path class="st3" d="M802.56,643.78l1.58,5.45c.29,1.01.48,1.92.67,2.86h.07c.19-.96.38-1.85.65-2.86l1.51-5.45h3.84l-4.37,11.74h-3.65l-4.27-11.74h3.96Z"/>
    <path class="st3" d="M815.02,650.81c.1,1.51,1.61,2.23,3.31,2.23,1.25,0,2.26-.17,3.24-.5l.48,2.47c-1.2.5-2.66.74-4.25.74-3.98,0-6.26-2.3-6.26-5.98,0-2.98,1.85-6.26,5.93-6.26,3.79,0,5.23,2.95,5.23,5.86,0,.62-.07,1.18-.12,1.44h-7.56ZM819.31,648.32c0-.89-.38-2.38-2.06-2.38-1.54,0-2.16,1.42-2.26,2.38h4.32Z"/>
    <path class="st3" d="M839.5,652.68c0,1.1.05,2.18.19,2.83h-3.29l-.22-1.18h-.07c-.77.94-1.97,1.44-3.36,1.44-2.38,0-3.79-1.73-3.79-3.6,0-3.05,2.74-4.49,6.89-4.49v-.14c0-.65-.34-1.54-2.14-1.54-1.2,0-2.47.41-3.24.89l-.67-2.35c.82-.46,2.42-1.06,4.56-1.06,3.91,0,5.14,2.3,5.14,5.09v4.1ZM835.97,649.97c-1.92,0-3.41.46-3.41,1.85,0,.94.62,1.39,1.44,1.39.89,0,1.66-.6,1.9-1.34.05-.19.07-.41.07-.62v-1.27Z"/>
    <path class="st3" d="M853.51,653.81c0,2.26-.46,4.1-1.8,5.28-1.27,1.1-3.02,1.44-4.75,1.44-1.56,0-3.17-.31-4.22-.89l.72-2.78c.74.43,2.02.89,3.41.89,1.73,0,3.05-.91,3.05-3.1v-.74h-.05c-.7.96-1.82,1.51-3.17,1.51-2.9,0-4.97-2.35-4.97-5.71,0-3.79,2.42-6.19,5.33-6.19,1.61,0,2.62.7,3.22,1.68h.05l.12-1.42h3.17c-.05.77-.1,1.75-.1,3.5v6.53ZM849.86,648.56c0-.22-.02-.46-.07-.67-.26-.96-.96-1.61-1.97-1.61-1.34,0-2.4,1.2-2.4,3.34,0,1.75.86,3.12,2.38,3.12.96,0,1.7-.62,1.94-1.46.1-.29.12-.67.12-.98v-1.73Z"/>
    <path class="st3" d="M866.21,652.68c0,1.1.05,2.18.19,2.83h-3.29l-.22-1.18h-.07c-.77.94-1.97,1.44-3.36,1.44-2.38,0-3.79-1.73-3.79-3.6,0-3.05,2.74-4.49,6.89-4.49v-.14c0-.65-.34-1.54-2.14-1.54-1.2,0-2.47.41-3.24.89l-.67-2.35c.82-.46,2.42-1.06,4.56-1.06,3.91,0,5.14,2.3,5.14,5.09v4.1ZM862.68,649.97c-1.92,0-3.41.46-3.41,1.85,0,.94.62,1.39,1.44,1.39.89,0,1.66-.6,1.9-1.34.05-.19.07-.41.07-.62v-1.27Z"/>
    <path class="st3" d="M872.88,640.52c0,1.01-.74,1.82-1.97,1.82-1.15,0-1.9-.82-1.9-1.82s.77-1.82,1.94-1.82,1.9.79,1.92,1.82ZM869.11,655.52v-11.74h3.65v11.74h-3.65Z"/>
    <path class="st3" d="M875.69,647.52c0-1.46-.05-2.69-.1-3.74h3.17l.17,1.63h.07c.48-.77,1.66-1.9,3.62-1.9,2.4,0,4.2,1.61,4.2,5.06v6.94h-3.65v-6.5c0-1.51-.53-2.54-1.85-2.54-1.01,0-1.61.7-1.87,1.37-.1.24-.12.58-.12.91v6.77h-3.65v-7.99Z"/>
    <path class="st3" d="M889.73,652.35c.67.41,2.06.86,3.14.86s1.56-.36,1.56-.96-.36-.91-1.7-1.37c-2.45-.82-3.38-2.14-3.36-3.53,0-2.21,1.87-3.86,4.78-3.86,1.37,0,2.57.34,3.29.7l-.62,2.52c-.53-.29-1.56-.67-2.54-.67-.89,0-1.39.36-1.39.94s.46.86,1.9,1.37c2.23.77,3.14,1.92,3.17,3.62,0,2.21-1.7,3.82-5.06,3.82-1.54,0-2.9-.36-3.79-.84l.65-2.59Z"/>
    <path class="st3" d="M904.25,640.61v3.17h2.62v2.69h-2.62v4.25c0,1.42.36,2.06,1.44,2.06.5,0,.74-.02,1.08-.1l.02,2.76c-.46.17-1.34.31-2.35.31-1.18,0-2.16-.41-2.76-1.01-.67-.7-1.01-1.82-1.01-3.48v-4.8h-1.56v-2.69h1.56v-2.18l3.58-.98Z"/>
    <path class="st3" d="M927.63,649.32c-.07-1.94-.14-4.3-.14-6.65h-.05c-.53,2.06-1.2,4.37-1.82,6.26l-1.97,6.31h-2.86l-1.73-6.24c-.53-1.92-1.06-4.22-1.46-6.34h-.05c-.07,2.18-.17,4.68-.26,6.7l-.31,6.14h-3.38l1.03-16.18h4.87l1.58,5.4c.53,1.87,1.01,3.89,1.37,5.78h.1c.43-1.87.98-4.01,1.54-5.81l1.7-5.38h4.8l.86,16.18h-3.55l-.26-6.19Z"/>
    <path class="st3" d="M933.86,653.57c0-1.32.89-2.23,2.16-2.23s2.11.89,2.14,2.23c0,1.27-.86,2.21-2.18,2.21-1.22,0-2.11-.94-2.11-2.21Z"/>
    <path class="st3" d="M954.02,655.21c-.65.31-1.87.55-3.26.55-3.79,0-6.22-2.33-6.22-6,0-3.43,2.35-6.24,6.72-6.24.96,0,2.02.17,2.78.46l-.58,2.71c-.43-.19-1.08-.36-2.04-.36-1.92,0-3.17,1.37-3.14,3.29,0,2.14,1.44,3.29,3.22,3.29.86,0,1.54-.14,2.09-.38l.43,2.69Z"/>
    <path class="st3" d="M965.91,652.68c0,1.1.05,2.18.19,2.83h-3.29l-.22-1.18h-.07c-.77.94-1.97,1.44-3.36,1.44-2.38,0-3.79-1.73-3.79-3.6,0-3.05,2.74-4.49,6.89-4.49v-.14c0-.65-.34-1.54-2.14-1.54-1.2,0-2.47.41-3.24.89l-.67-2.35c.82-.46,2.42-1.06,4.56-1.06,3.91,0,5.14,2.3,5.14,5.09v4.1ZM962.38,649.97c-1.92,0-3.41.46-3.41,1.85,0,.94.62,1.39,1.44,1.39.89,0,1.66-.6,1.9-1.34.05-.19.07-.41.07-.62v-1.27Z"/>
    <path class="st3" d="M972.7,640.61v3.17h2.62v2.69h-2.62v4.25c0,1.42.36,2.06,1.44,2.06.5,0,.74-.02,1.08-.1l.02,2.76c-.46.17-1.34.31-2.35.31-1.18,0-2.16-.41-2.76-1.01-.67-.7-1.01-1.82-1.01-3.48v-4.8h-1.56v-2.69h1.56v-2.18l3.58-.98Z"/>
    <path class="st3" d="M987.19,652.68c0,1.1.05,2.18.19,2.83h-3.29l-.22-1.18h-.07c-.77.94-1.97,1.44-3.36,1.44-2.38,0-3.79-1.73-3.79-3.6,0-3.05,2.74-4.49,6.89-4.49v-.14c0-.65-.34-1.54-2.14-1.54-1.2,0-2.47.41-3.24.89l-.67-2.35c.82-.46,2.42-1.06,4.56-1.06,3.91,0,5.14,2.3,5.14,5.09v4.1ZM983.67,649.97c-1.92,0-3.41.46-3.41,1.85,0,.94.62,1.39,1.44,1.39.89,0,1.66-.6,1.9-1.34.05-.19.07-.41.07-.62v-1.27Z"/>
    <path class="st3" d="M990.1,647.64c0-1.73-.02-2.86-.1-3.86h3.12l.14,2.16h.1c.6-1.73,2.02-2.45,3.17-2.45.34,0,.5.02.77.07v3.43c-.29-.05-.58-.1-.98-.1-1.34,0-2.26.72-2.5,1.85-.05.24-.07.53-.07.82v5.95h-3.65v-7.87Z"/>
    <path class="st3" d="M999.22,647.64c0-1.73-.02-2.86-.1-3.86h3.12l.14,2.16h.1c.6-1.73,2.02-2.45,3.17-2.45.34,0,.5.02.77.07v3.43c-.29-.05-.58-.1-.98-.1-1.34,0-2.26.72-2.5,1.85-.05.24-.07.53-.07.82v5.95h-3.65v-7.87Z"/>
    <path class="st3" d="M1008.26,638.48h3.65v6.72h.05c.38-.53.86-.94,1.44-1.22.55-.29,1.22-.46,1.9-.46,2.33,0,4.1,1.61,4.1,5.16v6.84h-3.65v-6.46c0-1.54-.53-2.59-1.9-2.59-.96,0-1.56.62-1.82,1.3-.1.22-.12.53-.12.79v6.96h-3.65v-17.04Z"/>
    <path class="st3" d="M1032.1,652.68c0,1.1.05,2.18.19,2.83h-3.29l-.22-1.18h-.07c-.77.94-1.97,1.44-3.36,1.44-2.38,0-3.79-1.73-3.79-3.6,0-3.05,2.74-4.49,6.89-4.49v-.14c0-.65-.34-1.54-2.14-1.54-1.2,0-2.47.41-3.24.89l-.67-2.35c.82-.46,2.42-1.06,4.56-1.06,3.91,0,5.14,2.3,5.14,5.09v4.1ZM1028.57,649.97c-1.92,0-3.41.46-3.41,1.85,0,.94.62,1.39,1.44,1.39.89,0,1.66-.6,1.9-1.34.05-.19.07-.41.07-.62v-1.27Z"/>
    <path class="st3" d="M1035,638.48h3.65v17.04h-3.65v-17.04Z"/>
    <path class="st3" d="M1045.37,640.52c0,1.01-.74,1.82-1.97,1.82-1.15,0-1.9-.82-1.9-1.82s.77-1.82,1.94-1.82,1.9.79,1.92,1.82ZM1041.6,655.52v-11.74h3.65v11.74h-3.65Z"/>
    <path class="st3" d="M1048.15,652.35c.67.41,2.06.86,3.14.86s1.56-.36,1.56-.96-.36-.91-1.7-1.37c-2.45-.82-3.38-2.14-3.36-3.53,0-2.21,1.87-3.86,4.78-3.86,1.37,0,2.57.34,3.29.7l-.62,2.52c-.53-.29-1.56-.67-2.54-.67-.89,0-1.39.36-1.39.94s.46.86,1.9,1.37c2.23.77,3.14,1.92,3.17,3.62,0,2.21-1.7,3.82-5.06,3.82-1.54,0-2.9-.36-3.79-.84l.65-2.59Z"/>
    <path class="st3" d="M1073.21,652.68c0,1.1.05,2.18.19,2.83h-3.29l-.22-1.18h-.07c-.77.94-1.97,1.44-3.36,1.44-2.38,0-3.79-1.73-3.79-3.6,0-3.05,2.74-4.49,6.89-4.49v-.14c0-.65-.34-1.54-2.14-1.54-1.2,0-2.47.41-3.24.89l-.67-2.35c.82-.46,2.42-1.06,4.56-1.06,3.91,0,5.14,2.3,5.14,5.09v4.1ZM1069.68,649.97c-1.92,0-3.41.46-3.41,1.85,0,.94.62,1.39,1.44,1.39.89,0,1.66-.6,1.9-1.34.05-.19.07-.41.07-.62v-1.27Z"/>
    <path class="st3" d="M1076.11,647.52c0-1.46-.05-2.69-.1-3.74h3.17l.17,1.63h.07c.48-.77,1.66-1.9,3.62-1.9,2.4,0,4.2,1.61,4.2,5.06v6.94h-3.65v-6.5c0-1.51-.53-2.54-1.85-2.54-1.01,0-1.61.7-1.87,1.37-.1.24-.12.58-.12.91v6.77h-3.65v-7.99Z"/>
    <path class="st3" d="M1101.55,638.48v13.54c0,1.32.05,2.71.1,3.5h-3.24l-.14-1.7h-.07c-.72,1.3-2.16,1.97-3.67,1.97-2.78,0-5.02-2.38-5.02-6.03-.02-3.96,2.45-6.26,5.26-6.26,1.46,0,2.57.53,3.1,1.32h.05v-6.34h3.65ZM1097.9,648.75c0-.19,0-.46-.05-.67-.22-.96-1.01-1.78-2.14-1.78-1.68,0-2.52,1.49-2.52,3.34,0,1.99.98,3.24,2.5,3.24,1.06,0,1.92-.72,2.14-1.75.05-.26.07-.55.07-.84v-1.54Z"/>
    <path class="st3" d="M1112.81,654.7v1.39c0,1.44.05,3.19.29,4.18h-3.38c-.34-.7-.46-2.47-.46-4.1v-10.56c0-3.48.86-4.99,1.9-5.95.89-.84,2.11-1.44,3.94-1.44,3.07,0,4.78,1.97,4.78,4.39,0,1.34-.7,2.95-1.94,3.6v.12c1.68.41,3.24,2.06,3.22,4.39,0,3.05-2.23,5.06-5.09,5.06-1.27,0-2.35-.31-3.19-1.08h-.05ZM1112.78,651.82c.55.72,1.34,1.22,2.33,1.22,1.58,0,2.35-1.18,2.35-2.47,0-1.66-1.18-2.54-2.59-2.66-.17-.02-.36,0-.53,0v-2.23c.14,0,.26-.02.38-.05,1.18-.22,1.85-1.22,1.85-2.42,0-1.27-.67-2.16-1.7-2.16-1.25,0-2.09,1.01-2.09,3.91v6.86Z"/>
    <path class="st3" d="M1130.28,642.75v5.23h5.02v2.23h-5.02v5.3h-2.35v-5.3h-5.02v-2.23h5.02v-5.23h2.35Z"/>
    <path class="st3" d="M279.7,668.14v6.22h6.02v-6.22h3.65v16.18h-3.65v-6.77h-6.02v6.77h-3.65v-16.18h3.65Z"/>
    <path class="st3" d="M292.18,682.37c0-1.32.89-2.23,2.16-2.23s2.11.89,2.14,2.23c0,1.27-.86,2.21-2.18,2.21-1.22,0-2.11-.94-2.11-2.21Z"/>
    <path class="st3" d="M307.3,669.32c0,1.01-.74,1.82-1.97,1.82-1.15,0-1.9-.82-1.9-1.82s.77-1.82,1.94-1.82,1.9.79,1.92,1.82ZM303.53,684.32v-11.74h3.65v11.74h-3.65Z"/>
    <path class="st3" d="M310.1,676.32c0-1.46-.05-2.69-.1-3.74h3.17l.17,1.63h.07c.48-.77,1.66-1.9,3.62-1.9,2.4,0,4.2,1.61,4.2,5.06v6.94h-3.65v-6.5c0-1.51-.53-2.54-1.85-2.54-1.01,0-1.61.7-1.87,1.37-.1.24-.12.58-.12.91v6.77h-3.65v-7.99Z"/>
    <path class="st3" d="M324.6,684.32v-9.05h-1.56v-2.69h1.56v-.5c0-1.34.65-2.83,1.78-3.74,1.15-.91,2.59-1.32,4.46-1.32,1.75,0,3.34.36,4.51.98v16.32h-3.65v-14.35c-.26-.14-.72-.24-1.39-.24-1.46,0-2.09,1.06-2.09,2.4v.46h2.14v2.69h-2.11v9.05h-3.65Z"/>
    <path class="st3" d="M349.35,680.55c0,1.54.05,2.79.1,3.77h-3.17l-.17-1.66h-.07c-.46.72-1.56,1.92-3.67,1.92-2.4,0-4.13-1.49-4.13-5.11v-6.89h3.65v6.31c0,1.7.55,2.74,1.85,2.74,1.01,0,1.61-.7,1.82-1.27.1-.22.14-.48.14-.79v-6.98h3.65v7.97Z"/>
    <path class="st3" d="M355.08,679.61c.1,1.51,1.61,2.23,3.31,2.23,1.25,0,2.26-.17,3.24-.5l.48,2.47c-1.2.5-2.66.74-4.25.74-3.98,0-6.26-2.3-6.26-5.98,0-2.98,1.85-6.26,5.93-6.26,3.79,0,5.23,2.95,5.23,5.86,0,.62-.07,1.18-.12,1.44h-7.56ZM359.38,677.12c0-.89-.38-2.38-2.06-2.38-1.54,0-2.16,1.42-2.26,2.38h4.32Z"/>
    <path class="st3" d="M364.94,676.32c0-1.46-.05-2.69-.1-3.74h3.17l.17,1.63h.07c.48-.77,1.66-1.9,3.62-1.9,2.4,0,4.2,1.61,4.2,5.06v6.94h-3.65v-6.5c0-1.51-.53-2.54-1.85-2.54-1.01,0-1.61.7-1.87,1.37-.1.24-.12.58-.12.91v6.77h-3.65v-7.99Z"/>
    <path class="st3" d="M378.07,682.23l3.7-4.63c.67-.77,1.2-1.37,1.85-2.06v-.05h-5.14v-2.9h9.6v2.21l-3.53,4.44c-.65.74-1.25,1.49-1.92,2.14v.05h5.64v2.9h-10.2v-2.09Z"/>
    <path class="st3" d="M400.03,681.48c0,1.1.05,2.18.19,2.83h-3.29l-.22-1.18h-.07c-.77.94-1.97,1.44-3.36,1.44-2.38,0-3.79-1.73-3.79-3.6,0-3.05,2.74-4.49,6.89-4.49v-.14c0-.65-.34-1.54-2.14-1.54-1.2,0-2.47.41-3.24.89l-.67-2.35c.82-.46,2.42-1.06,4.56-1.06,3.91,0,5.14,2.3,5.14,5.09v4.1ZM396.51,678.77c-1.92,0-3.41.46-3.41,1.85,0,.94.62,1.39,1.44,1.39.89,0,1.66-.6,1.9-1.34.05-.19.07-.41.07-.62v-1.27Z"/>
    <path class="st3" d="M405.74,679.61c.1,1.51,1.61,2.23,3.31,2.23,1.25,0,2.26-.17,3.24-.5l.48,2.47c-1.2.5-2.66.74-4.25.74-3.98,0-6.26-2.3-6.26-5.98,0-2.98,1.85-6.26,5.93-6.26,3.79,0,5.23,2.95,5.23,5.86,0,.62-.07,1.18-.12,1.44h-7.56ZM410.04,677.12c0-.89-.38-2.38-2.06-2.38-1.54,0-2.16,1.42-2.26,2.38h4.32Z"/>
    <path class="st3" d="M413.78,687.17c.77-2.14,1.42-4.63,1.75-6.82l3.72-.24c-.79,2.45-1.87,4.97-3.02,6.84l-2.45.22Z"/>
    <path class="st3" d="M428.83,672.58l.96,4.82c.22,1.2.46,2.5.65,3.84h.07c.22-1.34.58-2.66.84-3.82l1.25-4.85h2.88l1.18,4.68c.34,1.34.65,2.64.86,3.98h.05c.17-1.32.41-2.66.7-4.01l.98-4.66h3.58l-3.6,11.74h-3.41l-1.1-4.1c-.31-1.15-.53-2.21-.77-3.67h-.05c-.22,1.46-.46,2.57-.74,3.65l-1.18,4.13h-3.43l-3.43-11.74h3.72Z"/>
    <path class="st3" d="M448.3,669.32c0,1.01-.74,1.82-1.97,1.82-1.15,0-1.9-.82-1.9-1.82s.77-1.82,1.94-1.82,1.9.79,1.92,1.82ZM444.53,684.32v-11.74h3.65v11.74h-3.65Z"/>
    <path class="st3" d="M455.19,669.41v3.17h2.62v2.69h-2.62v4.25c0,1.42.36,2.06,1.44,2.06.5,0,.74-.02,1.08-.1l.02,2.76c-.46.17-1.34.31-2.35.31-1.18,0-2.16-.41-2.76-1.01-.67-.7-1.01-1.82-1.01-3.48v-4.8h-1.56v-2.69h1.56v-2.18l3.58-.98Z"/>
    <path class="st3" d="M459.91,667.28h3.65v6.72h.05c.38-.53.86-.94,1.44-1.22.55-.29,1.22-.46,1.9-.46,2.33,0,4.1,1.61,4.1,5.16v6.84h-3.65v-6.46c0-1.54-.53-2.59-1.9-2.59-.96,0-1.56.62-1.82,1.3-.1.22-.12.53-.12.79v6.96h-3.65v-17.04Z"/>
    <path class="st3" d="M481.15,671.21h-4.37v-3.07h12.43v3.07h-4.42v13.1h-3.65v-13.1Z"/>
    <path class="st3" d="M502.49,679.04l-11.54,5.28v-2.54l8.93-3.82v-.05l-8.93-3.82v-2.54l11.54,5.28v2.21Z"/>
    <path class="st3" d="M519.15,678.12c-.07-1.94-.14-4.3-.14-6.65h-.05c-.53,2.06-1.2,4.37-1.82,6.26l-1.97,6.31h-2.86l-1.73-6.24c-.53-1.92-1.06-4.22-1.46-6.34h-.05c-.07,2.18-.17,4.68-.26,6.7l-.31,6.14h-3.38l1.03-16.18h4.87l1.58,5.4c.53,1.87,1.01,3.89,1.37,5.78h.1c.43-1.87.98-4.01,1.54-5.81l1.7-5.38h4.8l.86,16.18h-3.55l-.26-6.19Z"/>
    <path class="st3" d="M529.44,668.14v16.18h-3.65v-16.18h3.65Z"/>
    <path class="st3" d="M544.47,683.88c-.65.31-2.18.7-4.13.7-5.59,0-8.47-3.5-8.47-8.11,0-5.52,3.94-8.57,8.83-8.57,1.9,0,3.34.36,3.98.72l-.77,2.88c-.72-.31-1.75-.6-3.07-.6-2.88,0-5.14,1.75-5.14,5.35,0,3.24,1.92,5.28,5.16,5.28,1.13,0,2.33-.22,3.07-.53l.53,2.88Z"/>
    <path class="st3" d="M554.33,672.58l1.58,5.45c.29,1.01.48,1.92.67,2.86h.07c.19-.96.38-1.85.65-2.86l1.51-5.45h3.84l-4.37,11.74h-3.65l-4.27-11.74h3.96Z"/>
    <path class="st3" d="M573.94,681.48c0,1.1.05,2.18.19,2.83h-3.29l-.22-1.18h-.07c-.77.94-1.97,1.44-3.36,1.44-2.38,0-3.79-1.73-3.79-3.6,0-3.05,2.74-4.49,6.89-4.49v-.14c0-.65-.34-1.54-2.14-1.54-1.2,0-2.47.41-3.24.89l-.67-2.35c.82-.46,2.42-1.06,4.56-1.06,3.91,0,5.14,2.3,5.14,5.09v4.1ZM570.41,678.77c-1.92,0-3.41.46-3.41,1.85,0,.94.62,1.39,1.44,1.39.89,0,1.66-.6,1.9-1.34.05-.19.07-.41.07-.62v-1.27Z"/>
    <path class="st3" d="M576.84,676.44c0-1.73-.02-2.86-.1-3.86h3.12l.14,2.16h.1c.6-1.73,2.02-2.45,3.17-2.45.34,0,.5.02.77.07v3.43c-.29-.05-.58-.1-.98-.1-1.34,0-2.26.72-2.5,1.85-.05.24-.07.53-.07.82v5.95h-3.65v-7.87Z"/>
    <path class="st3" d="M589.13,672.58l1.75,5.78c.19.67.43,1.56.58,2.18h.1c.14-.65.34-1.51.5-2.21l1.46-5.76h3.89l-2.74,7.73c-1.68,4.68-2.81,6.53-4.13,7.7-1.25,1.1-2.59,1.51-3.5,1.61l-.79-3.07c.46-.1,1.03-.31,1.58-.62.55-.29,1.18-.89,1.51-1.46.12-.19.19-.38.19-.53s-.02-.31-.14-.6l-4.32-10.75h4.06Z"/>
    <path class="st3" d="M602.71,669.32c0,1.01-.74,1.82-1.97,1.82-1.15,0-1.9-.82-1.9-1.82s.77-1.82,1.94-1.82,1.9.79,1.92,1.82ZM598.94,684.32v-11.74h3.65v11.74h-3.65Z"/>
    <path class="st3" d="M605.52,676.32c0-1.46-.05-2.69-.1-3.74h3.17l.17,1.63h.07c.48-.77,1.66-1.9,3.62-1.9,2.4,0,4.2,1.61,4.2,5.06v6.94h-3.65v-6.5c0-1.51-.53-2.54-1.85-2.54-1.01,0-1.61.7-1.87,1.37-.1.24-.12.58-.12.91v6.77h-3.65v-7.99Z"/>
    <path class="st3" d="M630.7,682.61c0,2.26-.46,4.1-1.8,5.28-1.27,1.1-3.02,1.44-4.75,1.44-1.56,0-3.17-.31-4.22-.89l.72-2.78c.74.43,2.02.89,3.41.89,1.73,0,3.05-.91,3.05-3.1v-.74h-.05c-.7.96-1.82,1.51-3.17,1.51-2.9,0-4.97-2.35-4.97-5.71,0-3.79,2.42-6.19,5.33-6.19,1.61,0,2.62.7,3.22,1.68h.05l.12-1.42h3.17c-.05.77-.1,1.75-.1,3.5v6.53ZM627.05,677.36c0-.22-.02-.46-.07-.67-.26-.96-.96-1.61-1.97-1.61-1.34,0-2.4,1.2-2.4,3.34,0,1.75.86,3.12,2.38,3.12.96,0,1.7-.62,1.94-1.46.1-.29.12-.67.12-.98v-1.73Z"/>
    <path class="st3" d="M638.47,667.28h3.65v6.7h.05c.7-1.01,1.92-1.66,3.55-1.66,2.81,0,4.85,2.33,4.82,5.93,0,4.22-2.66,6.34-5.35,6.34-1.37,0-2.71-.5-3.53-1.9h-.05l-.14,1.63h-3.1c.05-.77.1-2.18.1-3.5v-13.54ZM642.12,679.32c0,.24.02.46.07.65.24.96,1.08,1.73,2.14,1.73,1.56,0,2.52-1.2,2.52-3.31,0-1.82-.82-3.26-2.52-3.26-.98,0-1.9.74-2.14,1.8-.05.22-.07.43-.07.67v1.73Z"/>
    <path class="st3" d="M655.7,679.61c.1,1.51,1.61,2.23,3.31,2.23,1.25,0,2.26-.17,3.24-.5l.48,2.47c-1.2.5-2.66.74-4.25.74-3.98,0-6.26-2.3-6.26-5.98,0-2.98,1.85-6.26,5.93-6.26,3.79,0,5.23,2.95,5.23,5.86,0,.62-.07,1.18-.12,1.44h-7.56ZM660,677.12c0-.89-.38-2.38-2.06-2.38-1.54,0-2.16,1.42-2.26,2.38h4.32Z"/>
    <path class="st3" d="M669.65,669.41v3.17h2.62v2.69h-2.62v4.25c0,1.42.36,2.06,1.44,2.06.5,0,.74-.02,1.08-.1l.02,2.76c-.46.17-1.34.31-2.35.31-1.18,0-2.16-.41-2.76-1.01-.67-.7-1.01-1.82-1.01-3.48v-4.8h-1.56v-2.69h1.56v-2.18l3.58-.98Z"/>
    <path class="st3" d="M677.02,672.58l.96,4.82c.22,1.2.46,2.5.65,3.84h.07c.22-1.34.58-2.66.84-3.82l1.25-4.85h2.88l1.18,4.68c.34,1.34.65,2.64.86,3.98h.05c.17-1.32.41-2.66.7-4.01l.98-4.66h3.58l-3.6,11.74h-3.41l-1.1-4.1c-.31-1.15-.53-2.21-.77-3.67h-.05c-.22,1.46-.46,2.57-.74,3.65l-1.18,4.13h-3.43l-3.43-11.74h3.72Z"/>
    <path class="st3" d="M695.16,679.61c.1,1.51,1.61,2.23,3.31,2.23,1.25,0,2.26-.17,3.24-.5l.48,2.47c-1.2.5-2.66.74-4.25.74-3.98,0-6.26-2.3-6.26-5.98,0-2.98,1.85-6.26,5.93-6.26,3.79,0,5.23,2.95,5.23,5.86,0,.62-.07,1.18-.12,1.44h-7.56ZM699.46,677.12c0-.89-.38-2.38-2.06-2.38-1.54,0-2.16,1.42-2.26,2.38h4.32Z"/>
    <path class="st3" d="M707.83,679.61c.1,1.51,1.61,2.23,3.31,2.23,1.25,0,2.26-.17,3.24-.5l.48,2.47c-1.2.5-2.66.74-4.25.74-3.98,0-6.26-2.3-6.26-5.98,0-2.98,1.85-6.26,5.93-6.26,3.79,0,5.23,2.95,5.23,5.86,0,.62-.07,1.18-.12,1.44h-7.56ZM712.13,677.12c0-.89-.38-2.38-2.06-2.38-1.54,0-2.16,1.42-2.26,2.38h4.32Z"/>
    <path class="st3" d="M717.7,676.32c0-1.46-.05-2.69-.1-3.74h3.17l.17,1.63h.07c.48-.77,1.66-1.9,3.62-1.9,2.4,0,4.2,1.61,4.2,5.06v6.94h-3.65v-6.5c0-1.51-.53-2.54-1.85-2.54-1.01,0-1.61.7-1.87,1.37-.1.24-.12.58-.12.91v6.77h-3.65v-7.99Z"/>
    <path class="st3" d="M746.57,671.72h-6.05l-.34,2.4c.34-.05.62-.05,1.01-.05,1.49,0,3.02.34,4.1,1.13,1.18.79,1.9,2.09,1.9,3.91,0,2.9-2.5,5.47-6.7,5.47-1.9,0-3.48-.43-4.34-.89l.67-2.74c.67.34,2.09.77,3.5.77,1.51,0,3.12-.72,3.12-2.38s-1.27-2.59-4.39-2.59c-.86,0-1.46.05-2.09.14l1.01-8.19h8.59v3Z"/>
    <path class="st3" d="M760.99,676.44c0,4.8-1.94,8.14-5.9,8.14s-5.81-3.62-5.83-8.04c0-4.54,1.9-8.09,5.93-8.09s5.81,3.72,5.81,7.99ZM752.9,676.54c0,3.58.86,5.28,2.26,5.28s2.18-1.78,2.18-5.33-.74-5.28-2.21-5.28c-1.32,0-2.23,1.68-2.23,5.33Z"/>
    <path class="st3" d="M771,673.08c0,3.26-2.06,4.99-4.32,4.99-2.38,0-4.25-1.78-4.25-4.73,0-2.78,1.7-4.9,4.39-4.9s4.18,1.97,4.18,4.63ZM765.14,673.28c-.02,1.63.55,2.81,1.61,2.81s1.54-1.06,1.54-2.83c0-1.58-.43-2.81-1.58-2.81-1.08,0-1.56,1.25-1.56,2.83ZM766.85,684.58l8.98-16.11h1.94l-8.95,16.11h-1.97ZM782.23,679.56c0,3.24-2.06,4.97-4.32,4.97s-4.22-1.78-4.22-4.7,1.7-4.9,4.37-4.9,4.18,1.97,4.18,4.63ZM776.4,679.73c-.02,1.63.55,2.81,1.58,2.81s1.54-1.06,1.54-2.81c0-1.58-.43-2.81-1.56-2.81s-1.56,1.25-1.56,2.81Z"/>
    <path class="st3" d="M798.98,681.48c0,1.1.05,2.18.19,2.83h-3.29l-.22-1.18h-.07c-.77.94-1.97,1.44-3.36,1.44-2.38,0-3.79-1.73-3.79-3.6,0-3.05,2.74-4.49,6.89-4.49v-.14c0-.65-.34-1.54-2.14-1.54-1.2,0-2.47.41-3.24.89l-.67-2.35c.82-.46,2.42-1.06,4.56-1.06,3.91,0,5.14,2.3,5.14,5.09v4.1ZM795.46,678.77c-1.92,0-3.41.46-3.41,1.85,0,.94.62,1.39,1.44,1.39.89,0,1.66-.6,1.9-1.34.05-.19.07-.41.07-.62v-1.27Z"/>
    <path class="st3" d="M801.89,676.32c0-1.46-.05-2.69-.1-3.74h3.17l.17,1.63h.07c.48-.77,1.66-1.9,3.62-1.9,2.4,0,4.2,1.61,4.2,5.06v6.94h-3.65v-6.5c0-1.51-.53-2.54-1.85-2.54-1.01,0-1.61.7-1.87,1.37-.1.24-.12.58-.12.91v6.77h-3.65v-7.99Z"/>
    <path class="st3" d="M827.33,667.28v13.54c0,1.32.05,2.71.1,3.5h-3.24l-.14-1.7h-.07c-.72,1.3-2.16,1.97-3.67,1.97-2.78,0-5.02-2.38-5.02-6.03-.02-3.96,2.45-6.26,5.26-6.26,1.46,0,2.57.53,3.1,1.32h.05v-6.34h3.65ZM823.68,677.55c0-.19,0-.46-.05-.67-.22-.96-1.01-1.78-2.14-1.78-1.68,0-2.52,1.49-2.52,3.34,0,1.99.98,3.24,2.5,3.24,1.06,0,1.92-.72,2.14-1.75.05-.26.07-.55.07-.84v-1.54Z"/>
    <path class="st3" d="M837.19,676.28c-1.51-.79-2.26-2.06-2.26-3.43,0-2.64,2.38-4.39,5.5-4.39,3.65,0,5.16,2.11,5.16,4.01,0,1.34-.72,2.66-2.28,3.43v.07c1.54.58,2.88,1.87,2.88,3.86,0,2.83-2.38,4.75-6,4.75-3.96,0-5.79-2.23-5.79-4.34,0-1.87,1.08-3.17,2.79-3.91v-.05ZM842.47,680.12c0-1.37-1.03-2.18-2.45-2.57-1.2.34-1.9,1.2-1.9,2.33-.02,1.13.84,2.18,2.21,2.18,1.27,0,2.14-.84,2.14-1.94ZM838.39,672.72c0,1.06.94,1.73,2.18,2.11.84-.24,1.58-1.01,1.58-1.97s-.55-1.94-1.9-1.94c-1.25,0-1.87.84-1.87,1.8Z"/>
    <path class="st3" d="M858.39,671.72h-6.05l-.34,2.4c.34-.05.62-.05,1.01-.05,1.49,0,3.02.34,4.1,1.13,1.18.79,1.9,2.09,1.9,3.91,0,2.9-2.5,5.47-6.7,5.47-1.9,0-3.48-.43-4.34-.89l.67-2.74c.67.34,2.09.77,3.5.77,1.51,0,3.12-.72,3.12-2.38s-1.27-2.59-4.39-2.59c-.86,0-1.46.05-2.09.14l1.01-8.19h8.59v3Z"/>
    <path class="st3" d="M869.5,673.08c0,3.26-2.06,4.99-4.32,4.99-2.38,0-4.25-1.78-4.25-4.73,0-2.78,1.7-4.9,4.39-4.9s4.18,1.97,4.18,4.63ZM863.64,673.28c-.02,1.63.55,2.81,1.61,2.81s1.54-1.06,1.54-2.83c0-1.58-.43-2.81-1.58-2.81-1.08,0-1.56,1.25-1.56,2.83ZM865.34,684.58l8.98-16.11h1.94l-8.95,16.11h-1.97ZM880.73,679.56c0,3.24-2.06,4.97-4.32,4.97s-4.22-1.78-4.22-4.7,1.7-4.9,4.37-4.9,4.18,1.97,4.18,4.63ZM874.9,679.73c-.02,1.63.55,2.81,1.58,2.81s1.54-1.06,1.54-2.81c0-1.58-.43-2.81-1.56-2.81s-1.56,1.25-1.56,2.81Z"/>
    <path class="st3" d="M882.6,682.37c0-1.32.89-2.23,2.16-2.23s2.11.89,2.14,2.23c0,1.27-.86,2.21-2.18,2.21-1.22,0-2.11-.94-2.11-2.21Z"/>
    <path class="st3" d="M888.67,684.32v-2.21l1.99-1.8c3.43-3.07,5.09-4.83,5.11-6.65,0-1.27-.74-2.28-2.54-2.28-1.34,0-2.52.67-3.34,1.27l-1.03-2.59c1.15-.89,3-1.61,5.09-1.61,3.55,0,5.47,2.06,5.47,4.87,0,2.64-1.87,4.73-4.15,6.75l-1.44,1.2v.05h5.9v3h-11.06Z"/>
    <path class="st3" d="M906.62,671.96h-.05l-2.98,1.42-.6-2.74,4.15-1.92h3v15.6h-3.53v-12.36Z"/>
  </g>
  <g>
    <text class="st1" transform="translate(431.48 399.05)"><tspan x="0" y="0">535 of 536 Haemophilus Influenzae strains </tspan><tspan x="0" y="40.8">(99.8%) were susceptible to cefixime</tspan></text>
    <text class="st1" transform="translate(982.22 428.53) scale(.58)"><tspan x="0" y="0">11</tspan></text>
  </g>
  <text class="st5" transform="translate(148.53 410.59)"><tspan x="0" y="0">99.8%</tspan></text>
  <g class="st13">
    <rect class="st11" x="1214.88" y="705.55" width="39.06" height="39.06" rx="8.38" ry="8.38"/>
    <path class="st14" d="M1248.89,722.61l-4.97-4.97v-6.89c0-.24-.19-.43-.43-.43h-3.07c-.24,0-.43.19-.43.43v2.96l-4.53-4.53c-.58-.57-1.51-.57-2.08,0l-13.45,13.44c-.87.87-.35,2.36.87,2.5l2.17.25v14.55c0,.81.66,1.47,1.47,1.47h6.34v-10.56c0-.71.57-1.28,1.28-1.28h4.7c.71,0,1.28.57,1.28,1.28v10.56h6.34c.81,0,1.47-.66,1.47-1.47v-14.56l2.17-.26c1.22-.14,1.74-1.64.87-2.5Z"/>
  </g>
</svg>