<?xml version="1.0" encoding="UTF-8"?>
<svg id="Layer_1" xmlns="http://www.w3.org/2000/svg" xmlns:xlink="http://www.w3.org/1999/xlink" version="1.1" viewBox="0 0 1280 768">
  <!-- Generator: Adobe Illustrator 30.0.0, SVG Export Plug-In . SVG Version: 2.1.1 Build 123)  -->
  <defs>
    <style>
      .st0 {
        fill: url(#radial-gradient65);
        stroke: #000b8c;
        stroke-width: 1.6px;
      }

      .st0, .st1, .st2, .st3, .st4, .st5, .st6, .st7, .st8, .st9 {
        stroke-miterlimit: 10;
      }

      .st10 {
        filter: url(#drop-shadow-1);
      }

      .st11 {
        fill: url(#linear-gradient2);
      }

      .st12 {
        fill: url(#linear-gradient1);
      }

      .st13 {
        fill: url(#linear-gradient9);
      }

      .st14 {
        fill: url(#linear-gradient3);
      }

      .st15 {
        fill: url(#linear-gradient6);
      }

      .st16 {
        fill: url(#linear-gradient8);
      }

      .st17 {
        fill: url(#linear-gradient7);
      }

      .st18 {
        fill: url(#linear-gradient5);
      }

      .st19 {
        fill: url(#linear-gradient4);
      }

      .st20 {
        fill: url(#radial-gradient36);
      }

      .st21 {
        fill: url(#radial-gradient37);
      }

      .st22 {
        fill: url(#radial-gradient34);
      }

      .st23 {
        fill: url(#radial-gradient33);
      }

      .st24 {
        fill: url(#radial-gradient38);
      }

      .st25 {
        fill: url(#radial-gradient32);
      }

      .st26 {
        fill: url(#radial-gradient30);
      }

      .st27 {
        fill: url(#radial-gradient31);
      }

      .st28 {
        fill: url(#radial-gradient35);
      }

      .st29 {
        fill: url(#radial-gradient39);
      }

      .st30 {
        fill: url(#radial-gradient55);
      }

      .st31 {
        fill: url(#radial-gradient53);
      }

      .st32 {
        fill: url(#radial-gradient59);
      }

      .st33 {
        fill: url(#radial-gradient58);
      }

      .st34 {
        fill: url(#radial-gradient51);
      }

      .st35 {
        fill: url(#radial-gradient54);
      }

      .st36 {
        fill: url(#radial-gradient52);
      }

      .st37 {
        fill: url(#radial-gradient50);
      }

      .st38 {
        fill: url(#radial-gradient23);
      }

      .st39 {
        fill: url(#radial-gradient22);
      }

      .st40 {
        fill: url(#radial-gradient20);
      }

      .st41 {
        fill: url(#radial-gradient26);
      }

      .st42 {
        fill: url(#radial-gradient25);
      }

      .st43 {
        fill: url(#radial-gradient24);
      }

      .st44 {
        fill: url(#radial-gradient27);
      }

      .st45 {
        fill: url(#radial-gradient21);
      }

      .st46 {
        fill: url(#radial-gradient57);
      }

      .st47 {
        fill: url(#radial-gradient56);
      }

      .st48 {
        fill: url(#radial-gradient28);
      }

      .st49 {
        fill: url(#radial-gradient29);
      }

      .st50 {
        fill: url(#radial-gradient61);
      }

      .st51 {
        fill: url(#radial-gradient64);
      }

      .st52 {
        fill: url(#radial-gradient62);
      }

      .st53 {
        fill: url(#radial-gradient63);
      }

      .st54 {
        fill: url(#radial-gradient60);
      }

      .st55 {
        fill: url(#radial-gradient16);
      }

      .st56 {
        fill: url(#radial-gradient17);
      }

      .st57 {
        fill: url(#radial-gradient12);
      }

      .st58 {
        fill: url(#radial-gradient15);
      }

      .st59 {
        fill: url(#radial-gradient18);
      }

      .st60 {
        fill: url(#radial-gradient10);
      }

      .st61 {
        fill: url(#radial-gradient19);
      }

      .st62 {
        fill: url(#radial-gradient13);
      }

      .st63 {
        fill: url(#radial-gradient11);
      }

      .st64 {
        fill: url(#radial-gradient14);
      }

      .st65 {
        fill: url(#radial-gradient42);
      }

      .st66 {
        fill: url(#radial-gradient41);
      }

      .st67 {
        fill: url(#radial-gradient40);
      }

      .st68 {
        fill: url(#radial-gradient45);
      }

      .st69 {
        fill: url(#radial-gradient44);
      }

      .st70 {
        fill: url(#radial-gradient43);
      }

      .st71 {
        fill: url(#radial-gradient49);
      }

      .st72 {
        fill: url(#radial-gradient48);
      }

      .st73 {
        fill: url(#radial-gradient47);
      }

      .st74 {
        fill: url(#radial-gradient46);
      }

      .st75 {
        fill: #2b388f;
      }

      .st76 {
        fill: url(#linear-gradient31);
      }

      .st77 {
        fill: url(#linear-gradient30);
      }

      .st78 {
        fill: url(#linear-gradient32);
      }

      .st79 {
        fill: url(#linear-gradient34);
      }

      .st80 {
        fill: url(#linear-gradient35);
      }

      .st81 {
        fill: url(#linear-gradient33);
      }

      .st82 {
        fill: url(#linear-gradient36);
      }

      .st83 {
        fill: url(#linear-gradient28);
      }

      .st84 {
        fill: url(#linear-gradient29);
      }

      .st85 {
        fill: url(#linear-gradient18);
      }

      .st86 {
        fill: url(#linear-gradient13);
      }

      .st87 {
        fill: url(#linear-gradient12);
      }

      .st88 {
        fill: url(#linear-gradient15);
      }

      .st89 {
        fill: url(#linear-gradient16);
      }

      .st90 {
        fill: url(#linear-gradient11);
      }

      .st91 {
        fill: url(#linear-gradient10);
      }

      .st92 {
        fill: url(#linear-gradient17);
      }

      .st93 {
        fill: url(#linear-gradient14);
      }

      .st94 {
        fill: url(#linear-gradient19);
      }

      .st95 {
        fill: url(#linear-gradient23);
      }

      .st96 {
        fill: url(#linear-gradient22);
      }

      .st97 {
        fill: url(#linear-gradient24);
      }

      .st98 {
        fill: url(#linear-gradient25);
      }

      .st99 {
        fill: url(#linear-gradient21);
      }

      .st100 {
        fill: url(#linear-gradient20);
      }

      .st101 {
        fill: url(#linear-gradient27);
      }

      .st102 {
        fill: url(#linear-gradient26);
      }

      .st1 {
        stroke: #ef9f35;
        stroke-width: 6.54px;
      }

      .st1, .st5, .st6, .st7 {
        fill: none;
      }

      .st103 {
        fill: url(#radial-gradient);
      }

      .st104 {
        fill: url(#linear-gradient);
      }

      .st105 {
        fill: #194a74;
      }

      .st2 {
        stroke: #fff;
        stroke-width: 3.95px;
      }

      .st2, .st106, .st107 {
        fill: #243a78;
      }

      .st108 {
        filter: url(#drop-shadow-14);
      }

      .st109 {
        fill: #366186;
      }

      .st3 {
        stroke-width: .13px;
      }

      .st3, .st4 {
        fill: #ad8bc1;
        stroke: #662d91;
      }

      .st4 {
        stroke-width: .3px;
      }

      .st110, .st111, .st8, .st9, .st112, .st113 {
        fill: #fff;
      }

      .st114 {
        fill: #000b8c;
      }

      .st5 {
        stroke: #61b9d1;
        stroke-width: 25.24px;
      }

      .st6 {
        stroke: #a67c52;
        stroke-width: 15.89px;
      }

      .st111 {
        font-size: 30px;
      }

      .st111, .st106 {
        font-family: MyriadPro-Bold, 'Myriad Pro';
        font-weight: 700;
      }

      .st7 {
        stroke: #000;
        stroke-width: .89px;
      }

      .st8, .st9 {
        stroke: #2b388f;
        stroke-width: 2.63px;
      }

      .st8, .st9, .st112, .st113 {
        font-family: BerkshireSwash-Regular, 'Berkshire Swash';
      }

      .st8, .st112 {
        font-size: 34.66px;
      }

      .st115 {
        fill: url(#radial-gradient1);
      }

      .st116 {
        fill: url(#radial-gradient6);
      }

      .st117 {
        fill: url(#radial-gradient9);
      }

      .st118 {
        fill: url(#radial-gradient8);
      }

      .st119 {
        fill: url(#radial-gradient3);
      }

      .st120 {
        fill: url(#radial-gradient2);
      }

      .st121 {
        fill: url(#radial-gradient5);
      }

      .st122 {
        fill: url(#radial-gradient4);
      }

      .st123 {
        fill: url(#radial-gradient7);
      }

      .st9, .st113 {
        font-size: 27.67px;
      }

      .st106 {
        font-size: 25px;
      }
    </style>
    <radialGradient id="radial-gradient" cx="640" cy="384" fx="640" fy="384" r="527.76" gradientUnits="userSpaceOnUse">
      <stop offset="0" stop-color="#fff"/>
      <stop offset="1" stop-color="#edffff"/>
    </radialGradient>
    <filter id="drop-shadow-1" x="34.96" y="676.63" width="153.04" height="81.56" filterUnits="userSpaceOnUse">
      <feOffset dx="3.73" dy="3.73"/>
      <feGaussianBlur result="blur" stdDeviation="3.73"/>
      <feFlood flood-color="#231f20" flood-opacity=".4"/>
      <feComposite in2="blur" operator="in"/>
      <feComposite in="SourceGraphic"/>
    </filter>
    <linearGradient id="linear-gradient" x1="1746.13" y1="130.8" x2="582.59" y2="126.14" gradientUnits="userSpaceOnUse">
      <stop offset="0" stop-color="#fff" stop-opacity="0"/>
      <stop offset=".68" stop-color="#2b388f"/>
    </linearGradient>
    <linearGradient id="linear-gradient1" x1="1570.31" y1="474.82" x2="1614.85" y2="474.82" gradientTransform="translate(-490.01 1153.41) rotate(-41.45)" gradientUnits="userSpaceOnUse">
      <stop offset="0" stop-color="#ef9f35"/>
      <stop offset=".18" stop-color="#c69c6d"/>
      <stop offset=".3" stop-color="#b9a686"/>
      <stop offset=".51" stop-color="#a6b6ad"/>
      <stop offset=".71" stop-color="#98c2ca"/>
      <stop offset=".88" stop-color="#8fc9db"/>
      <stop offset="1" stop-color="#8dcce2"/>
    </linearGradient>
    <linearGradient id="linear-gradient2" x1="-792.38" y1="2902.35" x2="-744.53" y2="2902.35" gradientTransform="translate(882.92 3514.75) rotate(165.79)" xlink:href="#linear-gradient1"/>
    <linearGradient id="linear-gradient3" x1="1777.61" y1="247.77" x2="1836.58" y2="247.77" gradientTransform="translate(-619.7 1186.94) rotate(-28.72)" xlink:href="#linear-gradient1"/>
    <linearGradient id="linear-gradient4" x1="1894.29" y1="857.39" x2="1944.8" y2="857.39" gradientTransform="translate(-663.9 1744.5) rotate(-60.88)" xlink:href="#linear-gradient1"/>
    <linearGradient id="linear-gradient5" x1="2000.99" y1="889.11" x2="2042.12" y2="889.11" gradientTransform="translate(67.78 2465.44) rotate(-89.74)" xlink:href="#linear-gradient1"/>
    <linearGradient id="linear-gradient6" x1="-12.49" y1="3159.72" x2="31.68" y2="3159.72" gradientTransform="translate(3872.34 -825.76) rotate(62.94)" xlink:href="#linear-gradient1"/>
    <linearGradient id="linear-gradient7" x1="-319.92" y1="5475.53" x2="-275.74" y2="5475.53" gradientTransform="translate(-374.19 5811.2) rotate(-169.61)" xlink:href="#linear-gradient1"/>
    <linearGradient id="linear-gradient8" x1="-25.83" y1="4619.62" x2="18.34" y2="4619.62" gradientTransform="translate(-2985.67 -1902.38) rotate(-59.5)" xlink:href="#linear-gradient1"/>
    <linearGradient id="linear-gradient9" x1="235.06" y1="2678.87" x2="279.23" y2="2678.87" gradientTransform="translate(-1232.12 -825.76) rotate(117.06) scale(1 -1)" xlink:href="#linear-gradient1"/>
    <linearGradient id="linear-gradient10" x1="1963.84" y1="370.24" x2="2018.24" y2="370.24" gradientTransform="translate(-667.7 1540.56) rotate(-41.14)" xlink:href="#linear-gradient1"/>
    <linearGradient id="linear-gradient11" x1="1084.26" y1="591.54" x2="1128.43" y2="591.54" gradientTransform="matrix(1,0,0,1,0,0)" xlink:href="#linear-gradient1"/>
    <linearGradient id="linear-gradient12" x1="-847.36" y1="4650.14" x2="-792.96" y2="4650.14" gradientTransform="translate(4626.89 3541.36) rotate(118.84)" xlink:href="#linear-gradient1"/>
    <linearGradient id="linear-gradient13" x1="-1327.2" y1="2217.43" x2="-1284.37" y2="2217.43" gradientTransform="translate(2236.7 2772.12) rotate(119.01)" xlink:href="#linear-gradient1"/>
    <linearGradient id="linear-gradient14" x1="-1164.34" y1="3681.93" x2="-1107.4" y2="3681.93" gradientTransform="translate(3979.27 2997.43) rotate(113.55) scale(.87 1)" xlink:href="#linear-gradient1"/>
    <linearGradient id="linear-gradient15" x1="972.9" y1="555.67" x2="1023.18" y2="505.39" gradientUnits="userSpaceOnUse">
      <stop offset="0" stop-color="#c69c6d"/>
      <stop offset=".24" stop-color="#d8b38a"/>
      <stop offset=".55" stop-color="#eccda9"/>
      <stop offset=".82" stop-color="#f8ddbd"/>
      <stop offset="1" stop-color="#fde3c4"/>
    </linearGradient>
    <linearGradient id="linear-gradient16" x1="-1259.23" y1="2869.75" x2="-1212.44" y2="2869.75" gradientTransform="translate(3294.89 2685.16) rotate(108.77)" xlink:href="#linear-gradient1"/>
    <linearGradient id="linear-gradient17" x1="1500.71" y1="423.96" x2="1551.41" y2="423.96" gradientTransform="translate(-508.71 800.78) rotate(-26.66)" xlink:href="#linear-gradient1"/>
    <linearGradient id="linear-gradient18" x1="1073.08" y1="559.18" x2="1128.09" y2="559.18" gradientTransform="matrix(1,0,0,1,0,0)" xlink:href="#linear-gradient1"/>
    <linearGradient id="linear-gradient19" x1="87.94" y1="1959.92" x2="128.78" y2="1959.92" gradientTransform="translate(-162.28 2086.09) rotate(-143.02) scale(1.17 1)" xlink:href="#linear-gradient1"/>
    <linearGradient id="linear-gradient20" x1="1066.05" y1="540.29" x2="1166.88" y2="540.29" gradientUnits="userSpaceOnUse">
      <stop offset="0" stop-color="#ef9f35"/>
      <stop offset=".18" stop-color="#c69c6d"/>
      <stop offset=".28" stop-color="#b1a07f"/>
      <stop offset=".5" stop-color="#8aa8a4"/>
      <stop offset=".7" stop-color="#6daebe"/>
      <stop offset=".87" stop-color="#5cb1ce"/>
      <stop offset="1" stop-color="#56b3d4"/>
    </linearGradient>
    <linearGradient id="linear-gradient21" x1="963.44" y1="494.91" x2="969.06" y2="494.91" gradientUnits="userSpaceOnUse">
      <stop offset="0" stop-color="#ad8bc1"/>
      <stop offset=".52" stop-color="#fff"/>
      <stop offset="1" stop-color="#ad8bc1"/>
    </linearGradient>
    <linearGradient id="linear-gradient22" x1="975.07" y1="492.23" x2="982.21" y2="492.23" xlink:href="#linear-gradient21"/>
    <linearGradient id="linear-gradient23" x1="970.84" y1="510.48" x2="975.23" y2="510.48" xlink:href="#linear-gradient21"/>
    <linearGradient id="linear-gradient24" x1="984.03" y1="524.56" x2="987.5" y2="524.56" xlink:href="#linear-gradient21"/>
    <linearGradient id="linear-gradient25" x1="995.41" y1="510.86" x2="1004.02" y2="510.86" xlink:href="#linear-gradient21"/>
    <linearGradient id="linear-gradient26" x1="985.64" y1="497.46" x2="994.71" y2="497.46" xlink:href="#linear-gradient21"/>
    <linearGradient id="linear-gradient27" x1="1009.25" y1="528.42" x2="1012.38" y2="528.42" xlink:href="#linear-gradient21"/>
    <linearGradient id="linear-gradient28" x1="1007.74" y1="554.95" x2="1016.89" y2="554.95" xlink:href="#linear-gradient21"/>
    <linearGradient id="linear-gradient29" x1="1002.71" y1="550.91" x2="1008.27" y2="550.91" xlink:href="#linear-gradient21"/>
    <linearGradient id="linear-gradient30" x1="987.62" y1="541.38" x2="990.12" y2="541.38" xlink:href="#linear-gradient21"/>
    <linearGradient id="linear-gradient31" x1="987.95" y1="509.66" x2="991.47" y2="509.66" xlink:href="#linear-gradient21"/>
    <linearGradient id="linear-gradient32" x1="1016.99" y1="556.29" x2="1022.33" y2="556.29" xlink:href="#linear-gradient21"/>
    <linearGradient id="linear-gradient33" x1="987.42" y1="550.18" x2="990.88" y2="550.18" xlink:href="#linear-gradient21"/>
    <radialGradient id="radial-gradient1" cx="961.56" cy="459.5" fx="961.56" fy="459.5" r="2.57" gradientUnits="userSpaceOnUse">
      <stop offset="0" stop-color="#fff"/>
      <stop offset=".89" stop-color="#a23419"/>
      <stop offset="1" stop-color="#863419"/>
    </radialGradient>
    <radialGradient id="radial-gradient2" cx="953.36" cy="471.8" fx="953.36" fy="471.8" r="2.57" xlink:href="#radial-gradient1"/>
    <radialGradient id="radial-gradient3" cx="948.55" cy="459.87" fx="948.55" fy="459.87" r="2.57" xlink:href="#radial-gradient1"/>
    <radialGradient id="radial-gradient4" cx="943.3" cy="472.54" fx="943.3" fy="472.54" r="2.57" xlink:href="#radial-gradient1"/>
    <radialGradient id="radial-gradient5" cx="961.19" cy="483.35" fx="961.19" fy="483.35" r="2.57" xlink:href="#radial-gradient1"/>
    <radialGradient id="radial-gradient6" cx="985.42" cy="482.24" fx="985.42" fy="482.24" r="2.57" xlink:href="#radial-gradient1"/>
    <radialGradient id="radial-gradient7" cx="983.18" cy="473.29" fx="983.18" fy="473.29" r="2.57" xlink:href="#radial-gradient1"/>
    <radialGradient id="radial-gradient8" cx="996.61" cy="484.85" fx="996.61" fy="484.85" r="2.57" xlink:href="#radial-gradient1"/>
    <radialGradient id="radial-gradient9" cx="1001.82" cy="500.13" fx="1001.82" fy="500.13" r="2.57" xlink:href="#radial-gradient1"/>
    <radialGradient id="radial-gradient10" cx="1012.26" cy="512.06" fx="1012.26" fy="512.06" r="2.57" xlink:href="#radial-gradient1"/>
    <radialGradient id="radial-gradient11" cx="1011.14" cy="501.25" fx="1011.14" fy="501.25" r="2.57" xlink:href="#radial-gradient1"/>
    <radialGradient id="radial-gradient12" cx="1024.19" cy="515.79" fx="1024.19" fy="515.79" r="2.57" xlink:href="#radial-gradient1"/>
    <radialGradient id="radial-gradient13" cx="1019.38" cy="519.52" fx="1019.38" fy="519.52" r="2.57" xlink:href="#radial-gradient1"/>
    <radialGradient id="radial-gradient14" cx="935.47" cy="485.22" fx="935.47" fy="485.22" r="2.57" xlink:href="#radial-gradient1"/>
    <radialGradient id="radial-gradient15" cx="933.64" cy="470.68" fx="933.64" fy="470.68" r="2.57" xlink:href="#radial-gradient1"/>
    <radialGradient id="radial-gradient16" cx="953.36" cy="485.59" fx="953.36" fy="485.59" r="2.57" xlink:href="#radial-gradient1"/>
    <radialGradient id="radial-gradient17" cx="926.56" cy="480" fx="926.56" fy="480" r="2.57" xlink:href="#radial-gradient1"/>
    <radialGradient id="radial-gradient18" cx="945.53" cy="498.27" fx="945.53" fy="498.27" r="2.57" xlink:href="#radial-gradient1"/>
    <radialGradient id="radial-gradient19" cx="943.7" cy="483.73" fx="943.7" fy="483.73" r="2.57" xlink:href="#radial-gradient1"/>
    <radialGradient id="radial-gradient20" cx="958.21" cy="509.08" fx="958.21" fy="509.08" r="2.57" xlink:href="#radial-gradient1"/>
    <radialGradient id="radial-gradient21" cx="950.38" cy="521.75" fx="950.38" fy="521.75" r="2.57" xlink:href="#radial-gradient1"/>
    <radialGradient id="radial-gradient22" cx="948.55" cy="507.21" fx="948.55" fy="507.21" r="2.57" xlink:href="#radial-gradient1"/>
    <radialGradient id="radial-gradient23" cx="965.29" cy="517.65" fx="965.29" fy="517.65" r="2.57" xlink:href="#radial-gradient1"/>
    <radialGradient id="radial-gradient24" cx="957.46" cy="530.33" fx="957.46" fy="530.33" r="2.57" xlink:href="#radial-gradient1"/>
    <radialGradient id="radial-gradient25" cx="955.63" cy="515.79" fx="955.63" fy="515.79" r="2.57" xlink:href="#radial-gradient1"/>
    <radialGradient id="radial-gradient26" cx="979.83" cy="535.92" fx="979.83" fy="535.92" r="2.57" xlink:href="#radial-gradient1"/>
    <radialGradient id="radial-gradient27" cx="972" cy="548.59" fx="972" fy="548.59" r="2.57" xlink:href="#radial-gradient1"/>
    <radialGradient id="radial-gradient28" cx="970.17" cy="534.06" fx="970.17" fy="534.06" r="2.57" xlink:href="#radial-gradient1"/>
    <radialGradient id="radial-gradient29" cx="1021.96" cy="569.1" fx="1021.96" fy="569.1" r="2.57" xlink:href="#radial-gradient1"/>
    <radialGradient id="radial-gradient30" cx="1014.13" cy="581.77" fx="1014.13" fy="581.77" r="2.57" xlink:href="#radial-gradient1"/>
    <radialGradient id="radial-gradient31" cx="1012.3" cy="567.23" fx="1012.3" fy="567.23" r="2.57" xlink:href="#radial-gradient1"/>
    <radialGradient id="radial-gradient32" cx="1001.45" cy="563.13" fx="1001.45" fy="563.13" r="2.57" xlink:href="#radial-gradient1"/>
    <radialGradient id="radial-gradient33" cx="1006.3" cy="572.83" fx="1006.3" fy="572.83" r="2.57" xlink:href="#radial-gradient1"/>
    <radialGradient id="radial-gradient34" cx="1059.98" cy="585.16" fx="1059.98" fy="585.16" r="2.57" xlink:href="#radial-gradient1"/>
    <radialGradient id="radial-gradient35" cx="1029.78" cy="575.81" fx="1029.78" fy="575.81" r="2.57" xlink:href="#radial-gradient1"/>
    <radialGradient id="radial-gradient36" cx="1027.96" cy="561.27" fx="1027.96" fy="561.27" r="2.57" xlink:href="#radial-gradient1"/>
    <radialGradient id="radial-gradient37" cx="1048.05" cy="580.65" fx="1048.05" fy="580.65" r="2.57" xlink:href="#radial-gradient1"/>
    <radialGradient id="radial-gradient38" cx="1040.22" cy="593.33" fx="1040.22" fy="593.33" r="2.57" xlink:href="#radial-gradient1"/>
    <radialGradient id="radial-gradient39" cx="1038.4" cy="578.79" fx="1038.4" fy="578.79" r="2.57" xlink:href="#radial-gradient1"/>
    <radialGradient id="radial-gradient40" cx="1057.37" cy="551.58" fx="1057.37" fy="551.58" r="2.57" xlink:href="#radial-gradient1"/>
    <radialGradient id="radial-gradient41" cx="1049.54" cy="564.25" fx="1049.54" fy="564.25" r="2.57" xlink:href="#radial-gradient1"/>
    <radialGradient id="radial-gradient42" cx="1047.72" cy="549.71" fx="1047.72" fy="549.71" r="2.57" xlink:href="#radial-gradient1"/>
    <radialGradient id="radial-gradient43" cx="1042.09" cy="544.49" fx="1042.09" fy="544.49" r="2.57" xlink:href="#radial-gradient1"/>
    <radialGradient id="radial-gradient44" cx="1056.63" cy="579.2" fx="1056.63" fy="579.2" r="2.57" xlink:href="#radial-gradient1"/>
    <radialGradient id="radial-gradient45" cx="1032.43" cy="542.63" fx="1032.43" fy="542.63" r="2.57" xlink:href="#radial-gradient1"/>
    <radialGradient id="radial-gradient46" cx="1034.63" cy="556.42" fx="1034.63" fy="556.42" r="2.57" xlink:href="#radial-gradient1"/>
    <radialGradient id="radial-gradient47" cx="1039.48" cy="567.61" fx="1039.48" fy="567.61" r="2.57" xlink:href="#radial-gradient1"/>
    <radialGradient id="radial-gradient48" cx="1030.53" cy="529.21" fx="1030.53" fy="529.21" r="2.57" xlink:href="#radial-gradient1"/>
    <radialGradient id="radial-gradient49" cx="1022.7" cy="541.88" fx="1022.7" fy="541.88" r="2.57" xlink:href="#radial-gradient1"/>
    <radialGradient id="radial-gradient50" cx="991.01" cy="560.52" fx="991.01" fy="560.52" r="2.57" xlink:href="#radial-gradient1"/>
    <radialGradient id="radial-gradient51" cx="980.58" cy="543" fx="980.58" fy="543" r="2.57" xlink:href="#radial-gradient1"/>
    <radialGradient id="radial-gradient52" cx="958.58" cy="498.27" fx="958.58" fy="498.27" r="2.57" xlink:href="#radial-gradient1"/>
    <radialGradient id="radial-gradient53" cx="930.25" cy="496.03" fx="930.25" fy="496.03" r="2.57" xlink:href="#radial-gradient1"/>
    <radialGradient id="radial-gradient54" cx="1020.87" cy="527.34" fx="1020.87" fy="527.34" r="2.57" xlink:href="#radial-gradient1"/>
    <radialGradient id="radial-gradient55" cx="977.59" cy="466.58" fx="977.59" fy="466.58" r="2.57" xlink:href="#radial-gradient1"/>
    <radialGradient id="radial-gradient56" cx="972" cy="483.35" fx="972" fy="483.35" r="2.57" xlink:href="#radial-gradient1"/>
    <radialGradient id="radial-gradient57" cx="970.51" cy="473.66" fx="970.51" fy="473.66" r="2.57" xlink:href="#radial-gradient1"/>
    <radialGradient id="radial-gradient58" cx="961.06" cy="468.76" fx="961.06" fy="468.76" r="2.57" gradientUnits="userSpaceOnUse">
      <stop offset="0" stop-color="#fff"/>
      <stop offset="1" stop-color="#c27a57"/>
    </radialGradient>
    <radialGradient id="radial-gradient59" cx="965.66" cy="526.6" fx="965.66" fy="526.6" r="2.57" xlink:href="#radial-gradient58"/>
    <radialGradient id="radial-gradient60" cx="938.08" cy="500.17" fx="938.08" fy="500.17" r="2.57" xlink:href="#radial-gradient58"/>
    <radialGradient id="radial-gradient61" cx="1024.57" cy="587.37" fx="1024.57" fy="587.37" r="2.57" xlink:href="#radial-gradient58"/>
    <radialGradient id="radial-gradient62" cx="1057.41" cy="569.84" fx="1057.41" fy="569.84" r="2.57" xlink:href="#radial-gradient58"/>
    <radialGradient id="radial-gradient63" cx="1042.83" cy="534.43" fx="1042.83" fy="534.43" r="2.57" xlink:href="#radial-gradient58"/>
    <radialGradient id="radial-gradient64" cx="992.2" cy="567.98" fx="992.2" fy="567.98" r="2.57" xlink:href="#radial-gradient58"/>
    <linearGradient id="linear-gradient34" x1="1058.4" y1="560.51" x2="1061.57" y2="560.51" xlink:href="#linear-gradient21"/>
    <linearGradient id="linear-gradient35" x1="1062.38" y1="574.88" x2="1063.92" y2="574.88" xlink:href="#linear-gradient21"/>
    <linearGradient id="linear-gradient36" x1="1064.12" y1="568.26" x2="1065.69" y2="568.26" xlink:href="#linear-gradient21"/>
    <filter id="drop-shadow-14" x="1214.08" y="704.75" width="40.65" height="40.65" filterUnits="userSpaceOnUse">
      <feOffset dx="5.59" dy="5.59"/>
      <feGaussianBlur result="blur1" stdDeviation="3.99"/>
      <feFlood flood-color="#000" flood-opacity=".75"/>
      <feComposite in2="blur1" operator="in"/>
      <feComposite in="SourceGraphic"/>
    </filter>
    <radialGradient id="radial-gradient65" cx="1234.41" cy="725.08" fx="1234.41" fy="725.08" r="19.53" gradientUnits="userSpaceOnUse">
      <stop offset="0" stop-color="#fff"/>
      <stop offset="1" stop-color="#f1f1f1"/>
    </radialGradient>
  </defs>
  <g>
    <rect class="st103" width="1280" height="768"/>
    <g class="st10">
      <text class="st8" transform="translate(68.19 711.56) rotate(-.27)"><tspan x="0" y="0">Eternal </tspan></text>
      <g>
        <g>
          <path class="st2" d="M64.97,714.95c-.11.14-.15.32-.11.5l2.71,12.04c.06.27.3.46.58.46h.57c.9-2.06,1.4-4.34,1.39-6.73-.01-2.31-.5-4.51-1.36-6.51l-3.32.02c-.18,0-.35.08-.46.22Z"/>
          <path class="st2" d="M39.54,728.11l2.6-12.07c.04-.17,0-.36-.12-.5-.11-.14-.28-.22-.46-.22l-3.52.02c-.72,1.87-1.11,3.9-1.1,6.03.01,2.58.61,5.03,1.68,7.2h.35c.28,0,.52-.2.57-.47Z"/>
          <path class="st2" d="M65.71,724.41l-2.02-8.85c-.12-.54-.61-.92-1.16-.92-.02,0-.05,0-.07,0l-7.09.47c-.27.02-.52.13-.72.31l-.29.26-.31-.28c-.22-.2-.5-.3-.79-.3h-2.94s-5.96.04-5.96.04c-.55,0-1.03.39-1.15.93l-2.05,9.38c-.08.38.02.77.28,1.05.23.25.54.38.87.38.05,0,.1,0,.15-.01l2.8-.37,7.52,5.81.78.72c.23.21.52.31.81.31.08,0,.15,0,.23-.02.26-.02.51-.13.71-.32l5.35-5.04,2.64-2.44.93.27c.11.03.22.05.33.05.3,0,.58-.11.81-.32.3-.29.43-.71.34-1.12ZM61.08,725.96s-.04-.04-.06-.06l-5.08-4.65c-.24-.22-.61-.2-.83.04-.22.24-.2.61.04.83l5.08,4.64-.37.35-.83.78s0,0,0-.01c-.03-.04-.06-.08-.1-.11l-4.22-3.72c-.24-.22-.62-.19-.83.05-.22.24-.19.62.05.83l4.22,3.72s.02.01.02.02c0,0,.01,0,.02.01l-1.22,1.15s-.01-.02-.02-.04c-.03-.05-.07-.1-.12-.15l-3.46-3.05c-.24-.22-.62-.19-.83.05-.22.24-.19.62.05.83l3.46,3.05s.04.03.05.04c.02.01.03.02.05.03l-.56.52s-.02-.04-.03-.06c-.04-.08-.09-.16-.17-.22l-.84-.67c-.25-.2-.63-.16-.83.09l-.6.75-.03.04-.5-.39.07-.08.59-.74c.2-.26.16-.63-.09-.83l-.84-.67c-.26-.2-.63-.16-.83.09l-.48.61-.19.24-.5-.39.22-.28.6-.76c.2-.26.16-.63-.09-.83l-.84-.67c-.25-.2-.63-.16-.83.09l-.5.63-.35.44-.31-.24-.19-.15s.01,0,.02-.01c.05-.03.09-.07.13-.11l.26-.33.62-.78c.2-.26.16-.63-.09-.83l-.84-.67c-.26-.2-.63-.16-.83.09l-.51.65-.37.46s0,0,0,0c-.05.06-.08.13-.1.2l-.71-.55-.33.04-2.96.39,2.05-9.38,5.96-.03h2.94s.23.19.23.19l.1.09-1.84,2.31-.75.95s-.35.39-.32.84c.01.16.07.32.22.48.68.74,2.23.16,2.23.16l1.92-2.31s.25-.33.69-.5l6.79,6.1-1.44,1.36Z"/>
        </g>
        <path class="st2" d="M54.77,755.22l1.79-19.93c.03-.29-.06-.58-.24-.79-.18-.21-.43-.32-.68-.3l-3.96.49c-.72,3.13-.96,6.48-.62,9.93.41,4.19.68,8.08,2.49,11.47l.48-.05c.39-.04.69-.38.73-.83Z"/>
      </g>
      <text class="st9" transform="translate(65.99 747.4) rotate(-.27)"><tspan x="0" y="0">rust</tspan></text>
      <text class="st112" transform="translate(68.19 711.56) rotate(-.27)"><tspan x="0" y="0">Eternal </tspan></text>
      <g>
        <g>
          <path class="st107" d="M64.97,714.95c-.11.14-.15.32-.11.5l2.71,12.04c.06.27.3.46.58.46h.57c.9-2.06,1.4-4.34,1.39-6.73-.01-2.31-.5-4.51-1.36-6.51l-3.32.02c-.18,0-.35.08-.46.22Z"/>
          <path class="st107" d="M39.54,728.11l2.6-12.07c.04-.17,0-.36-.12-.5-.11-.14-.28-.22-.46-.22l-3.52.02c-.72,1.87-1.11,3.9-1.1,6.03.01,2.58.61,5.03,1.68,7.2h.35c.28,0,.52-.2.57-.47Z"/>
          <path class="st107" d="M65.71,724.41l-2.02-8.85c-.12-.54-.61-.92-1.16-.92-.02,0-.05,0-.07,0l-7.09.47c-.27.02-.52.13-.72.31l-.29.26-.31-.28c-.22-.2-.5-.3-.79-.3h-2.94s-5.96.04-5.96.04c-.55,0-1.03.39-1.15.93l-2.05,9.38c-.08.38.02.77.28,1.05.23.25.54.38.87.38.05,0,.1,0,.15-.01l2.8-.37,7.52,5.81.78.72c.23.21.52.31.81.31.08,0,.15,0,.23-.02.26-.02.51-.13.71-.32l5.35-5.04,2.64-2.44.93.27c.11.03.22.05.33.05.3,0,.58-.11.81-.32.3-.29.43-.71.34-1.12ZM61.08,725.96s-.04-.04-.06-.06l-5.08-4.65c-.24-.22-.61-.2-.83.04-.22.24-.2.61.04.83l5.08,4.64-.37.35-.83.78s0,0,0-.01c-.03-.04-.06-.08-.1-.11l-4.22-3.72c-.24-.22-.62-.19-.83.05-.22.24-.19.62.05.83l4.22,3.72s.02.01.02.02c0,0,.01,0,.02.01l-1.22,1.15s-.01-.02-.02-.04c-.03-.05-.07-.1-.12-.15l-3.46-3.05c-.24-.22-.62-.19-.83.05-.22.24-.19.62.05.83l3.46,3.05s.04.03.05.04c.02.01.03.02.05.03l-.56.52s-.02-.04-.03-.06c-.04-.08-.09-.16-.17-.22l-.84-.67c-.25-.2-.63-.16-.83.09l-.6.75-.03.04-.5-.39.07-.08.59-.74c.2-.26.16-.63-.09-.83l-.84-.67c-.26-.2-.63-.16-.83.09l-.48.61-.19.24-.5-.39.22-.28.6-.76c.2-.26.16-.63-.09-.83l-.84-.67c-.25-.2-.63-.16-.83.09l-.5.63-.35.44-.31-.24-.19-.15s.01,0,.02-.01c.05-.03.09-.07.13-.11l.26-.33.62-.78c.2-.26.16-.63-.09-.83l-.84-.67c-.26-.2-.63-.16-.83.09l-.51.65-.37.46s0,0,0,0c-.05.06-.08.13-.1.2l-.71-.55-.33.04-2.96.39,2.05-9.38,5.96-.03h2.94s.23.19.23.19l.1.09-1.84,2.31-.75.95s-.35.39-.32.84c.01.16.07.32.22.48.68.74,2.23.16,2.23.16l1.92-2.31s.25-.33.69-.5l6.79,6.1-1.44,1.36Z"/>
        </g>
        <path class="st107" d="M54.77,755.22l1.79-19.93c.03-.29-.06-.58-.24-.79-.18-.21-.43-.32-.68-.3l-3.96.49c-.72,3.13-.96,6.48-.62,9.93.41,4.19.68,8.08,2.49,11.47l.48-.05c.39-.04.69-.38.73-.83Z"/>
      </g>
      <text class="st113" transform="translate(65.99 747.4) rotate(-.27)"><tspan x="0" y="0">rust</tspan></text>
    </g>
    <g>
      <path class="st75" d="M1279.38,723.58H292.12c-13.34,0-26.69-.17-40.02,0-.58,0-1.17,0-1.75,0-1.93,0-1.93,3,0,3h987.26c13.34,0,26.69.17,40.02,0,.58,0,1.17,0,1.75,0,1.93,0,1.93-3,0-3h0Z"/>
      <circle class="st75" cx="238.59" cy="725.53" r="4.9"/>
      <circle class="st75" cx="224.64" cy="725.53" r="4.9"/>
      <circle class="st75" cx="210.68" cy="725.53" r="4.9"/>
    </g>
    <g>
      <path class="st75" d="M0,55.81h994.39c13.43,0,26.88.17,40.31,0,.59,0,1.18,0,1.76,0,1.93,0,1.93-3,0-3H42.07c-13.43,0-26.88-.17-40.31,0-.59,0-1.18,0-1.76,0-1.93,0-1.93,3,0,3h0Z"/>
      <circle class="st75" cx="1048.22" cy="53.86" r="4.9"/>
      <circle class="st75" cx="1062.18" cy="53.86" r="4.9"/>
      <circle class="st75" cx="1076.13" cy="53.86" r="4.9"/>
    </g>
    <g>
      <path class="st107" d="M1154.38,56.45c-.16-4.27-.32-9.38-.32-14.6h-.11c-1.16,4.53-2.64,9.6-4.01,13.76l-4.32,13.87h-6.27l-3.79-13.71c-1.16-4.22-2.32-9.23-3.22-13.92h-.1c-.16,4.8-.37,10.28-.58,14.71l-.69,13.5h-7.44l2.27-35.53h10.7l3.48,11.92c1.16,4.06,2.21,8.49,3,12.65h.21c.95-4.11,2.16-8.75,3.37-12.76l3.74-11.81h10.54l1.9,35.53h-7.8l-.58-13.6Z"/>
      <path class="st107" d="M1170.83,40.9c-2.69,0-4.43-1.9-4.43-4.27s1.79-4.27,4.53-4.27,4.43,1.85,4.48,4.27c0,2.37-1.74,4.27-4.53,4.27h-.05ZM1166.88,44.27h8.01v25.78h-8.01v-25.78Z"/>
      <path class="st107" d="M1185.38,44.27l2.53,4.32c.74,1.32,1.42,2.58,2.11,3.85h.11c.69-1.42,1.32-2.69,2-4.01l2.27-4.16h8.7l-8.49,12.28,8.59,13.5h-9.07l-2.58-4.64c-.74-1.27-1.42-2.58-2-3.9h-.16c-.63,1.37-1.32,2.64-1.95,3.9l-2.42,4.64h-8.81l8.75-13.13-8.54-12.65h8.96Z"/>
      <path class="st107" d="M1208.48,40.9c-2.69,0-4.43-1.9-4.43-4.27s1.79-4.27,4.53-4.27,4.43,1.85,4.48,4.27c0,2.37-1.74,4.27-4.53,4.27h-.05ZM1204.53,44.27h8.01v25.78h-8.01v-25.78Z"/>
      <path class="st107" d="M1217.86,70.05v-19.87h-3.43v-5.9h3.43v-1c0-3.11.95-6.54,3.22-8.65,2.05-1.9,4.8-2.58,7.17-2.58,1.74,0,3.11.26,4.22.53l-.32,6.17c-.69-.21-1.53-.37-2.58-.37-2.64,0-3.74,2.06-3.74,4.59v1.32h5.17v5.9h-5.11v19.87h-8.01Z"/>
      <path class="st107" d="M1187.01,80.91c-.37.19-1.13.38-2.1.38-2.25,0-3.93-1.42-3.93-4.04s1.69-4.19,4.16-4.19c.98,0,1.62.21,1.89.35l-.26.84c-.38-.19-.94-.33-1.6-.33-1.87,0-3.11,1.2-3.11,3.29,0,1.96,1.12,3.21,3.05,3.21.64,0,1.28-.13,1.69-.33l.2.83Z"/>
      <path class="st107" d="M1189.31,78.47c.02,1.41.91,1.99,1.95,1.99.75,0,1.21-.13,1.59-.29l.19.73c-.37.16-1,.37-1.92.37-1.75,0-2.81-1.17-2.81-2.88s1.03-3.1,2.7-3.1c1.87,0,2.35,1.64,2.35,2.7,0,.21,0,.38-.03.5h-4.01ZM1192.35,77.73c0-.65-.27-1.69-1.43-1.69-1.06,0-1.51.97-1.6,1.69h3.03Z"/>
      <path class="st107" d="M1195.33,81.16v-4.93h-.79v-.79h.79v-.27c0-.8.19-1.54.68-2,.39-.38.91-.53,1.38-.53.38,0,.69.08.89.16l-.13.81c-.17-.07-.37-.13-.67-.13-.88,0-1.11.78-1.11,1.66v.31h1.38v.79h-1.37v4.93h-1.04Z"/>
      <path class="st107" d="M1199.77,74.38c-.39,0-.65-.31-.65-.67s.27-.66.67-.66.66.3.66.66-.26.67-.67.67h-.01ZM1199.28,75.43h1.04v5.72h-1.04v-5.72Z"/>
      <path class="st107" d="M1203.11,75.43l.82,1.22c.21.33.39.62.58.94h.03c.19-.33.38-.63.58-.94l.79-1.22h1.14l-1.95,2.77,2,2.96h-1.18l-.84-1.29c-.22-.33-.41-.65-.61-.99h-.02c-.19.34-.39.65-.6.99l-.83,1.29h-1.15l2.03-2.92-1.94-2.8h1.16Z"/>
      <path class="st107" d="M1209.19,74.38c-.39,0-.65-.31-.65-.67s.27-.66.68-.66.66.3.66.66-.26.67-.68.67h-.01ZM1208.69,75.43h1.04v5.72h-1.04v-5.72Z"/>
      <path class="st107" d="M1212.04,76.98c0-.6-.02-1.07-.05-1.55h.91l.05.92h.03c.32-.54.85-1.05,1.81-1.05.77,0,1.36.47,1.61,1.15h.02c.18-.33.41-.57.65-.74.34-.26.71-.4,1.25-.4.77,0,1.89.5,1.89,2.48v3.37h-1.02v-3.24c0-1.11-.42-1.76-1.24-1.76-.6,0-1.05.44-1.24.93-.05.15-.08.35-.08.52v3.55h-1.02v-3.43c0-.92-.4-1.57-1.2-1.57-.64,0-1.12.52-1.29,1.04-.06.15-.08.33-.08.51v3.45h-1.02v-4.18Z"/>
      <path class="st107" d="M1223.08,78.47c.02,1.41.91,1.99,1.95,1.99.74,0,1.21-.13,1.58-.29l.19.73c-.37.16-1,.37-1.92.37-1.75,0-2.81-1.17-2.81-2.88s1.03-3.1,2.7-3.1c1.87,0,2.36,1.64,2.36,2.7,0,.21-.01.38-.04.5h-4.01ZM1226.12,77.73c0-.65-.27-1.69-1.43-1.69-1.06,0-1.51.97-1.6,1.69h3.03Z"/>
      <path class="st107" d="M1241.34,32.72c2.32,0,4.17,1.89,4.17,4.21s-1.85,4.23-4.19,4.23-4.21-1.87-4.21-4.23,1.89-4.21,4.21-4.21h.02ZM1241.3,33.56c-1.76,0-3.18,1.52-3.18,3.39s1.42,3.37,3.2,3.37c1.78.02,3.22-1.48,3.22-3.37s-1.44-3.39-3.22-3.39h-.02ZM1240.59,39.38h-.99v-4.68c.37-.06.79-.13,1.5-.13.8,0,1.29.13,1.61.37.26.21.41.52.41,1.01,0,.56-.39.95-.9,1.09v.04c.41.07.67.45.75,1.14.09.73.19,1.01.26,1.16h-1.03c-.11-.17-.19-.58-.28-1.22-.07-.51-.37-.71-.88-.71h-.45v1.93ZM1240.59,36.69h.47c.58,0,1.03-.19,1.03-.67,0-.39-.28-.69-.95-.69-.24,0-.41,0-.54.02v1.35Z"/>
    </g>
  </g>
  <rect class="st104" x="-.19" y="97.49" width="1280.38" height="57.76"/>
  <g>
    <path class="st110" d="M40.95,126.04c-.1-2.8-.21-6.16-.21-9.59h-.07c-.76,2.98-1.73,6.3-2.63,9.03l-2.84,9.1h-4.12l-2.49-9c-.76-2.77-1.52-6.06-2.11-9.14h-.07c-.1,3.15-.24,6.75-.38,9.66l-.45,8.86h-4.88l1.49-23.33h7.03l2.28,7.82c.76,2.66,1.45,5.57,1.97,8.31h.14c.62-2.7,1.42-5.75,2.21-8.38l2.46-7.75h6.92l1.25,23.33h-5.12l-.38-8.93Z"/>
    <path class="st110" d="M51.75,115.84c-1.77,0-2.91-1.25-2.91-2.8s1.18-2.8,2.98-2.8,2.91,1.21,2.94,2.8c0,1.56-1.14,2.8-2.98,2.8h-.03ZM49.16,118.05h5.26v16.92h-5.26v-16.92Z"/>
    <path class="st110" d="M61.3,118.05l1.66,2.84c.48.87.94,1.7,1.38,2.53h.07c.45-.93.87-1.77,1.31-2.63l1.49-2.73h5.71l-5.57,8.06,5.64,8.86h-5.95l-1.7-3.05c-.48-.83-.93-1.7-1.32-2.56h-.1c-.42.9-.86,1.73-1.28,2.56l-1.59,3.05h-5.78l5.75-8.62-5.61-8.31h5.88Z"/>
    <path class="st110" d="M76.46,115.84c-1.76,0-2.91-1.25-2.91-2.8s1.18-2.8,2.98-2.8,2.91,1.21,2.94,2.8c0,1.56-1.14,2.8-2.98,2.8h-.04ZM73.87,118.05h5.26v16.92h-5.26v-16.92Z"/>
    <path class="st110" d="M82.62,134.97v-13.05h-2.25v-3.88h2.25v-.66c0-2.04.62-4.29,2.11-5.68,1.35-1.25,3.15-1.7,4.71-1.7,1.14,0,2.04.17,2.77.35l-.21,4.05c-.45-.14-1-.24-1.7-.24-1.73,0-2.46,1.35-2.46,3.01v.87h3.39v3.88h-3.36v13.05h-5.26Z"/>
    <path class="st110" d="M62.37,142.1c-.24.12-.74.25-1.38.25-1.47,0-2.58-.93-2.58-2.65s1.11-2.75,2.73-2.75c.64,0,1.06.14,1.24.23l-.17.55c-.25-.13-.61-.22-1.05-.22-1.23,0-2.04.79-2.04,2.16,0,1.29.74,2.1,2,2.1.42,0,.84-.09,1.11-.22l.13.54Z"/>
    <path class="st110" d="M63.88,140.5c.02.92.6,1.31,1.28,1.31.49,0,.79-.09,1.04-.19l.12.48c-.24.11-.66.24-1.26.24-1.15,0-1.85-.77-1.85-1.89s.68-2.03,1.77-2.03c1.23,0,1.54,1.08,1.54,1.77,0,.14,0,.25-.02.33h-2.63ZM65.88,140.01c0-.43-.18-1.11-.94-1.11-.7,0-.99.64-1.05,1.11h1.99Z"/>
    <path class="st110" d="M67.83,142.26v-3.24h-.52v-.52h.52v-.18c0-.53.12-1.01.44-1.31.26-.25.6-.35.91-.35.25,0,.45.05.58.11l-.09.53c-.11-.05-.24-.09-.44-.09-.57,0-.73.51-.73,1.09v.2h.91v.52h-.9v3.24h-.68Z"/>
    <path class="st110" d="M70.75,137.82c-.26,0-.43-.2-.43-.44s.18-.43.44-.43.43.19.43.43-.17.44-.44.44h0ZM70.42,138.51h.68v3.76h-.68v-3.76Z"/>
    <path class="st110" d="M72.94,138.51l.54.8c.14.22.26.4.38.61h.02c.12-.22.25-.41.38-.61l.52-.8h.75l-1.28,1.82,1.31,1.94h-.78l-.55-.85c-.15-.22-.27-.43-.4-.65h-.02c-.12.22-.26.43-.4.65l-.54.85h-.75l1.34-1.92-1.27-1.84h.76Z"/>
    <path class="st110" d="M76.93,137.82c-.26,0-.43-.2-.43-.44s.18-.43.44-.43.43.19.43.43-.17.44-.44.44h0ZM76.6,138.51h.68v3.76h-.68v-3.76Z"/>
    <path class="st110" d="M78.8,139.52c0-.4-.02-.71-.03-1.02h.6l.03.61h.02c.21-.36.56-.69,1.19-.69.51,0,.89.31,1.06.75h.02c.12-.22.27-.37.43-.49.23-.17.46-.26.82-.26.5,0,1.24.33,1.24,1.63v2.21h-.67v-2.13c0-.73-.27-1.16-.82-1.16-.4,0-.69.29-.81.61-.03.1-.05.23-.05.34v2.33h-.67v-2.25c0-.61-.26-1.03-.79-1.03-.42,0-.74.34-.84.68-.04.1-.05.22-.05.33v2.27h-.67v-2.74Z"/>
    <path class="st110" d="M86.05,140.5c.02.92.6,1.31,1.28,1.31.49,0,.79-.09,1.04-.19l.12.48c-.24.11-.66.24-1.26.24-1.15,0-1.85-.77-1.85-1.89s.68-2.03,1.77-2.03c1.23,0,1.55,1.08,1.55,1.77,0,.14,0,.25-.02.33h-2.63ZM88.05,140.01c0-.43-.18-1.11-.94-1.11-.7,0-.99.64-1.05,1.11h1.99Z"/>
    <path class="st110" d="M98.03,110.47c1.52,0,2.74,1.24,2.74,2.76s-1.22,2.78-2.75,2.78-2.76-1.23-2.76-2.78,1.24-2.76,2.76-2.76h.01ZM98.01,111.02c-1.16,0-2.09.99-2.09,2.22s.93,2.21,2.1,2.21c1.17.01,2.11-.97,2.11-2.21s-.95-2.22-2.11-2.22h-.01ZM97.54,114.84h-.65v-3.07c.24-.04.52-.09.98-.09.53,0,.85.09,1.06.25.17.14.27.34.27.66,0,.37-.26.63-.59.71v.02c.27.05.44.3.49.75.06.48.12.66.17.76h-.68c-.07-.11-.12-.38-.18-.8-.05-.33-.25-.47-.58-.47h-.29v1.27ZM97.54,113.07h.31c.38,0,.68-.12.68-.44,0-.26-.18-.45-.63-.45-.16,0-.27,0-.36.01v.88Z"/>
  </g>
  <text class="st111" transform="translate(112.37 136.98)"><tspan x="0" y="0">Mechanism of action</tspan></text>
  <g>
    <text class="st106" transform="translate(64.39 643.89)"><tspan x="0" y="0">The bactericidal action of cefixime results from inhibition of cell wall synthesis</tspan></text>
    <text class="st106" transform="translate(929.09 635.57) scale(.58)"><tspan x="0" y="0">2</tspan></text>
  </g>
  <g>
    <g>
      <path class="st12" d="M1003.76,470.66c-.39,0-.77-.03-1.15-.09-1.06-.16-1.79-1.15-1.63-2.22.16-1.06,1.15-1.79,2.22-1.63.72.11,2.61.14,4.48-1.96,1.07-1.2,1.86-2.73,2.69-4.35.21-.4.42-.82.64-1.23,2.31-4.33,5.26-8.27,8.78-11.69,3.52-3.42,7.52-6.26,11.9-8.43.96-.48,2.13-.08,2.61.88.48.96.08,2.13-.88,2.61-4.01,1.99-7.68,4.59-10.91,7.73-3.23,3.14-5.94,6.75-8.06,10.73-.21.39-.41.79-.61,1.18-.91,1.76-1.85,3.59-3.25,5.16-.99,1.11-2.17,1.99-3.43,2.56-1.1.49-2.25.74-3.39.74Z"/>
      <path class="st11" d="M894.52,520.78c-.62,0-1.22-.29-1.6-.84-.61-.88-.39-2.1.49-2.71,4.76-3.29,10.39-3.87,15.83-4.43,1.33-.14,2.71-.28,4.02-.46,3.92-.53,7.8-1.5,11.54-2.87,3.74-1.37,7.35-3.14,10.73-5.28.91-.57,2.11-.3,2.68.61.57.91.3,2.11-.61,2.68-3.61,2.28-7.47,4.18-11.47,5.64-4,1.46-8.16,2.49-12.35,3.07-1.38.19-2.79.33-4.15.47-5.18.53-10.08,1.04-14.01,3.76-.34.23-.72.35-1.11.35Z"/>
      <path class="st14" d="M1060.24,551.51c-.28,0-.56-.06-.83-.19-.97-.46-1.39-1.62-.93-2.59,1.22-2.58,3.24-4.73,6.01-6.38,2.16-1.28,4.74-2.27,7.89-3.01,1.25-.29,2.52-.55,3.75-.79,3.86-.77,7.51-1.5,10.56-3.38,2.62-1.61,4.81-4.06,7.13-6.66,3.72-4.16,7.56-8.46,13.45-9.2,1.07-.13,2.04.62,2.17,1.69.13,1.07-.62,2.04-1.69,2.17-4.45.56-7.65,4.14-11.03,7.93-2.4,2.69-4.88,5.47-7.99,7.38-3.65,2.24-7.81,3.08-11.84,3.88-1.2.24-2.44.49-3.62.77-5.94,1.4-9.63,3.78-11.27,7.26-.33.7-1.03,1.12-1.76,1.12Z"/>
      <path class="st19" d="M1010.02,508.31c-.37,0-.74-.1-1.06-.32-1.64-1.08-2.73-2.8-3.06-4.85-.29-1.81.05-3.74.93-5.31,1.3-2.3,3.34-3.82,5.32-5.28.4-.29.77-.57,1.15-.86,4.25-3.27,7.71-7.6,10-12.52,2.3-4.93,3.4-10.41,3.2-15.84-.04-1.07.8-1.98,1.87-2.02,1.08-.04,1.98.8,2.02,1.87.22,6.04-1.01,12.14-3.57,17.63-2.56,5.49-6.42,10.32-11.16,13.96-.4.31-.81.61-1.2.9-1.73,1.28-3.36,2.48-4.25,4.06-.45.8-.63,1.84-.48,2.79.11.68.43,1.61,1.34,2.21.9.59,1.15,1.79.56,2.69-.37.57-1,.88-1.63.88Z"/>
      <path class="st18" d="M965.13,468.54c-.81,0-1.56-.53-1.79-1.35-1.26-4.37-1.76-8.88-1.5-13.41.26-4.53,1.28-8.98,3.03-13.22.17-.4.34-.8.5-1.19.66-1.54,1.29-3,1.48-4.45.11-.82.19-2.88-1.45-4.16-.81-.63-.96-1.81-.33-2.62.63-.81,1.81-.96,2.62-.33,1.17.91,2.04,2.15,2.52,3.58.41,1.24.53,2.63.35,4.02-.26,1.95-1.02,3.72-1.76,5.43-.16.37-.33.76-.48,1.14-1.59,3.86-2.51,7.9-2.75,12.01-.24,4.11.22,8.21,1.36,12.17.29.99-.29,2.03-1.28,2.31-.17.05-.35.07-.52.07Z"/>
      <path class="st15" d="M1070.89,640.98c-.92,0-1.72-.68-1.85-1.62-.48-3.66-1.38-7.25-2.67-10.66-1.29-3.41-2.97-6.67-5-9.67-.68-1.01-1.43-2.04-2.16-3.03-2.99-4.1-6.08-8.34-6.55-13.75-.09-1.03.67-1.93,1.7-2.02,1.03-.09,1.93.67,2.02,1.7.38,4.38,3.04,8.02,5.85,11.88.75,1.02,1.52,2.08,2.24,3.14,2.19,3.25,4.01,6.76,5.4,10.45,1.39,3.68,2.36,7.55,2.88,11.49.14,1.02-.58,1.96-1.61,2.1-.08.01-.17.02-.25.02Z"/>
      <path class="st17" d="M925.73,485.5c-.34,0-.69-.09-1-.29-3.71-2.36-8.21-2.47-12.98-2.58-1.26-.03-2.57-.06-3.86-.14-3.91-.23-7.81-.93-11.58-2.06-3.77-1.14-7.43-2.72-10.88-4.7-.89-.51-1.2-1.66-.69-2.55.51-.89,1.66-1.2,2.55-.69,3.2,1.84,6.6,3.31,10.09,4.36,3.49,1.05,7.1,1.69,10.72,1.91,1.22.07,2.49.1,3.72.13,5.07.12,10.32.24,14.9,3.16.87.55,1.13,1.71.57,2.58-.36.56-.96.86-1.58.86Z"/>
      <path class="st16" d="M982.18,464.16c-.56,0-1.12-.25-1.48-.73-.63-.82-.47-1.99.35-2.62,3.49-2.67,5.14-6.86,6.88-11.31.46-1.18.94-2.39,1.45-3.57,1.56-3.59,3.55-7.01,5.92-10.16,2.36-3.15,5.11-6.04,8.15-8.6.79-.66,1.97-.56,2.63.23.66.79.56,1.97-.23,2.63-2.83,2.37-5.38,5.06-7.57,7.98-2.19,2.92-4.03,6.09-5.48,9.41-.49,1.12-.95,2.3-1.4,3.45-1.86,4.72-3.77,9.61-8.09,12.91-.34.26-.74.38-1.13.38Z"/>
      <path class="st13" d="M1028.49,642.63c-.08,0-.16,0-.25-.02-1.02-.14-1.74-1.07-1.61-2.1.52-3.94,1.49-7.81,2.88-11.49,1.39-3.69,3.21-7.2,5.4-10.45.72-1.07,1.49-2.12,2.24-3.14,2.81-3.86,5.47-7.5,5.85-11.88.09-1.03.99-1.79,2.02-1.7,1.03.09,1.79.99,1.7,2.02-.47,5.42-3.56,9.65-6.55,13.75-.73,1-1.48,2.02-2.16,3.03-2.03,3.01-3.71,6.26-5,9.67-1.29,3.42-2.19,7-2.67,10.66-.12.94-.93,1.62-1.85,1.62Z"/>
      <path class="st91" d="M1055.16,526.77c-.27,0-.55-.06-.81-.18-.93-.45-1.32-1.56-.88-2.49,2.43-5.06,7.5-6.91,12.4-8.71,3.02-1.1,5.87-2.15,8.08-3.87,2.57-2.01,4.28-4.98,6.1-8.12.58-1.01,1.19-2.05,1.82-3.06,1.61-2.56,3.27-4.51,5.08-5.98,2.34-1.89,4.92-2.92,7.65-3.05,1.03-.05,1.9.75,1.95,1.78.05,1.03-.75,1.9-1.78,1.95-3.59.17-6.79,2.56-9.76,7.29-.6.95-1.18,1.96-1.75,2.94-1.92,3.31-3.9,6.74-7.04,9.2-2.67,2.09-5.94,3.28-9.1,4.44-2.31.84-4.49,1.64-6.34,2.73-1.93,1.14-3.2,2.44-3.99,4.08-.32.67-.99,1.06-1.68,1.06Z"/>
      <path class="st90" d="M1126.57,594.84c-.21,0-.42-.03-.62-.11-3.48-1.23-7.08-2.07-10.71-2.47-3.63-.41-7.29-.39-10.89.06-1.21.15-2.47.35-3.68.54-2.68.43-5.4.86-8.13.86-2.38,0-4.75-.33-7.1-1.28-.96-.39-1.41-1.48-1.03-2.43.39-.96,1.48-1.41,2.43-1.03,4.07,1.65,8.52.95,13.24.19,1.25-.2,2.54-.4,3.82-.56,3.89-.48,7.85-.5,11.76-.06,3.91.44,7.8,1.33,11.55,2.66.97.34,1.48,1.41,1.14,2.38-.27.77-.99,1.24-1.76,1.24Z"/>
      <path class="st87" d="M936.32,603.98c-.73,0-1.42-.43-1.72-1.14-.4-.95.05-2.04,1-2.44,3.32-1.39,5.5-4.72,6.67-10.19.24-1.1.44-2.25.64-3.36.67-3.77,1.35-7.67,3.46-11.05,1.8-2.88,4.46-5.12,7.03-7.29,1.88-1.58,3.66-3.08,5.02-4.74,1.42-1.73,2.17-3.39,2.35-5.2.1-1.03,1.02-1.78,2.04-1.68,1.03.1,1.78,1.01,1.68,2.04-.55,5.58-4.68,9.06-8.67,12.43-2.46,2.07-4.78,4.03-6.27,6.41-1.73,2.76-2.32,6.14-2.95,9.72-.2,1.15-.41,2.33-.66,3.5-.63,2.95-1.53,5.36-2.73,7.36-1.55,2.58-3.62,4.43-6.15,5.49-.24.1-.48.15-.72.15Z"/>
      <path class="st86" d="M921.64,574.03c-.1,0-.19,0-.29,0-1.03-.04-1.83-.91-1.79-1.94.04-1.03.91-1.83,1.94-1.79,2,.07,3.35-1.42,3.8-2.94.56-1.89.23-4.15-.11-6.53l-.04-.27c-.42-2.95-.71-5.82.35-8.48,1.26-3.18,4.18-5.19,6.53-6.81l10.35-7.14c.85-.59,2.01-.37,2.6.48.59.85.37,2.01-.48,2.6l-10.35,7.14c-2.03,1.4-4.33,2.99-5.18,5.11-.72,1.81-.47,4.14-.12,6.57l.04.27c.38,2.68.78,5.45,0,8.12-.46,1.57-1.4,2.98-2.64,3.99-1.32,1.07-2.9,1.63-4.59,1.63Z"/>
      <path class="st93" d="M989.17,642.99c-.77,0-1.54-.13-2.28-.39-1-.36-1.53-1.46-1.17-2.46.36-1,1.46-1.53,2.46-1.17,1.47.52,3.61-.25,4.47-2.24.7-1.62.65-3.61.6-5.71-.01-.48-.02-.98-.02-1.48-.02-5.89,1.43-11.78,4.2-17.04,2.77-5.25,6.82-9.83,11.73-13.22.87-.61,2.07-.39,2.68.49.61.87.39,2.07-.49,2.68-4.4,3.04-8.03,7.14-10.51,11.85-2.48,4.7-3.78,9.97-3.75,15.23,0,.46.01.92.02,1.41.05,2.43.11,4.93-.92,7.32-.7,1.62-2.02,3.04-3.63,3.89-1.08.57-2.24.86-3.38.86Z"/>
      <path class="st5" d="M973.42,458.91c-10.08-5.24-22.33-7.03-32.94-2.95-10.6,4.07-18.91,14.67-18.52,26.02.3,8.93,5.52,16.85,10.67,24.14,23.03,32.59,49.34,64.04,83.74,84.27,7.59,4.47,15.64,8.39,24.29,10.05,8.65,1.66,18.01.88,25.6-3.59,7.59-4.47,13.04-12.98,12.5-21.77-.35-5.7-3.05-10.98-6.13-15.78-9.94-15.45-24.1-27.45-37.75-39.48-7.02-6.19-14.03-12.43-20.41-19.29-5.84-6.27-10.2-13.95-16.26-19.84-8.11-7.88-14.47-16.43-24.79-21.79Z"/>
      <path class="st6" d="M973.42,458.91c-10.08-5.24-22.33-7.03-32.94-2.95-10.6,4.07-18.91,14.67-18.52,26.02.3,8.93,5.52,16.85,10.67,24.14,23.03,32.59,49.34,64.04,83.74,84.27,7.59,4.47,15.64,8.39,24.29,10.05,8.65,1.66,18.01.88,25.6-3.59,7.59-4.47,13.04-12.98,12.5-21.77-.35-5.7-3.05-10.98-6.13-15.78-9.94-15.45-24.1-27.45-37.75-39.48-7.02-6.19-14.03-12.43-20.41-19.29-5.84-6.27-10.2-13.95-16.26-19.84-8.11-7.88-14.47-16.43-24.79-21.79Z"/>
      <path class="st1" d="M973.42,458.91c-10.08-5.24-22.33-7.03-32.94-2.95-10.6,4.07-18.91,14.67-18.52,26.02.3,8.93,5.52,16.85,10.67,24.14,23.03,32.59,49.34,64.04,83.74,84.27,7.59,4.47,15.64,8.39,24.29,10.05,8.65,1.66,18.01.88,25.6-3.59,7.59-4.47,13.04-12.98,12.5-21.77-.35-5.7-3.05-10.98-6.13-15.78-9.94-15.45-24.1-27.45-37.75-39.48-7.02-6.19-14.03-12.43-20.41-19.29-5.84-6.27-10.2-13.95-16.26-19.84-8.11-7.88-14.47-16.43-24.79-21.79Z"/>
      <path class="st88" d="M973.42,458.91c-10.08-5.24-22.33-7.03-32.94-2.95-10.6,4.07-18.91,14.67-18.52,26.02.3,8.93,5.52,16.85,10.67,24.14,23.03,32.59,49.34,64.04,83.74,84.27,7.59,4.47,15.64,8.39,24.29,10.05,8.65,1.66,18.01.88,25.6-3.59,7.59-4.47,13.04-12.98,12.5-21.77-.35-5.7-3.05-10.98-6.13-15.78-9.94-15.45-24.1-27.45-37.75-39.48-7.02-6.19-14.03-12.43-20.41-19.29-5.84-6.27-10.2-13.95-16.26-19.84-8.11-7.88-14.47-16.43-24.79-21.79Z"/>
      <path class="st89" d="M965.08,612.65c-.77,0-1.49-.48-1.76-1.24-.34-.97.16-2.04,1.14-2.38,2.63-.93,4.82-2.56,6.35-4.7,1.49-2.11,2.2-4.53,2.04-6.99-.16-2.48,0-5,.49-7.47.47-2.39,1.24-4.76,2.3-7.03,2.05-4.42,5.18-8.52,9.07-11.85.78-.67,1.96-.58,2.63.2.67.78.58,1.96-.2,2.63-3.48,2.99-6.29,6.65-8.11,10.59-1.9,4.11-2.73,8.38-2.45,12.69.22,3.33-.73,6.58-2.72,9.39-1.97,2.78-4.79,4.87-8.14,6.06-.21.07-.42.11-.62.11Z"/>
      <path class="st92" d="M1026.1,510.66c-.16,0-.31-.02-.47-.06-1.04-.26-1.68-1.32-1.42-2.36.89-3.57,2.79-6.74,5.5-9.18,2.73-2.46,6.04-3.95,9.55-4.3,4.66-.48,9.14-2.06,13.33-4.7,4.01-2.53,7.61-6,10.41-10.04.61-.88,1.83-1.1,2.71-.49.88.61,1.1,1.83.49,2.71-3.1,4.46-7.09,8.3-11.54,11.11-4.71,2.97-9.76,4.75-15.02,5.28-2.69.27-5.23,1.43-7.35,3.33-2.13,1.92-3.63,4.42-4.33,7.23-.22.89-1.01,1.48-1.89,1.48Z"/>
      <path class="st85" d="M1102.09,565.25c-.47,0-.94-.02-1.41-.07-3.52-.35-6.53-1.96-9.56-3.72l-.28-.17c-2.54-1.48-4.95-2.89-7.58-3.34-1.27-.22-2.61-.14-3.76.22-.79.25-1.87.75-2.52,1.73-.64.98-1.96,1.26-2.95.61-.98-.64-1.26-1.96-.61-2.95,1.06-1.61,2.72-2.81,4.81-3.46,1.78-.56,3.82-.68,5.74-.35,3.39.58,6.24,2.25,9,3.86l.28.16c2.6,1.52,5.16,2.9,7.83,3.17,3.18.31,6.53-.97,9.48-2.1l14.62-5.59c1.1-.42,2.33.13,2.75,1.23.42,1.1-.13,2.33-1.23,2.75l-14.62,5.59c-2.86,1.09-6.35,2.43-10.01,2.43Z"/>
      <path class="st94" d="M932.37,460.11c-.26,0-.53-.05-.78-.16-4.79-2.02-9.27-4.75-13.32-8.09-4.05-3.35-7.57-7.24-10.47-11.57-.28-.41-.55-.83-.81-1.23-1.06-1.63-2.07-3.18-3.35-4.38-1.57-1.48-3.44-2.17-5.02-1.87-1.09.21-2.15-.5-2.37-1.59-.21-1.09.5-2.15,1.59-2.37,1.55-.3,3.16-.15,4.76.46,1.35.51,2.66,1.35,3.8,2.42,1.63,1.54,2.81,3.36,3.96,5.12.25.39.52.8.78,1.18,2.68,4.01,5.94,7.61,9.69,10.7,3.75,3.1,7.89,5.61,12.32,7.49,1.03.43,1.51,1.62,1.07,2.64-.33.77-1.07,1.23-1.86,1.23Z"/>
      <path class="st100" d="M1066.07,596.82c1.2,9.44,7.26,16.08,15.93,22.28,10.66,7.62,24.89,10.89,37.95,9.75,13.06-1.14,26.26-8.99,34.1-19.5,4.04-5.42,6.83-10.82,9.37-17.08,2.2-5.43,3.89-12.72,3.35-18.56-1.03-11.16-2.65-18.13-7.18-24.5-5.25-7.39-12.29-13.29-19.18-19.17-11.36-9.69-15.98-28.5-13.19-43.17,2.79-14.67,14.42-27.94,27.38-35.36-9.57,2.98-18.47,8.52-24.82,16.28-8.02,9.8-10.73,23.36-9.96,36,.77,12.64,6.55,23.07,15.46,32.07,4.25,4.29,11.35,9.06,15.28,13.63,7.56,8.78,9.2,21.81,7.83,33.19-1.4,11.57-10.95,25.91-21.26,31.35-6.23,3.29-13.89,5.51-20.94,5.49-6.93-.02-14.31-3.33-20.75-6.19-7.57-3.37-13.19-9.91-18.46-16.31-1.46-1.77-3.07-3.65-5.29-4.23-2.22-.58-5.92,1.74-5.63,4.02Z"/>
      <g>
        <g>
          <path class="st4" d="M987.91,536.52c-.99,0-1.98-.12-2.95-.35l-.84-.2-1.95-4.21c-.49-1.05-.15-2.36.74-2.93.9-.57,2.02-.18,2.51.87l1.11,2.41c1.86.28,3.78-.01,5.51-.83.49-.56.78-1.44.79-2.42.01-1.16-.38-2.27-1.02-2.88-1.48-1.43-3.73-1.6-6.11-1.77-.36-.03-.73-.05-1.1-.09-4.57-.4-7.63-2.37-8.84-5.7-1.13-3.09-.3-6.26.65-9.24.45-1.41.83-2.88,1.23-4.43.34-1.31.69-2.66,1.08-3.98-1.16-3.99-3.34-6.97-5.93-8.03-1.51-.62-3.37-.42-4.85.53-1.14.73-1.91,1.82-2.16,3.07-.38,1.92.62,3.83,1.59,4.88.96,1.04,1.95,1.39,2.43,1.21.45-.17.66-1.03.75-1.52.21-1.17,1.19-1.92,2.19-1.68,1,.24,1.64,1.39,1.43,2.56-.25,1.42-1.01,3.92-3.24,4.76-1.89.71-4.16-.09-6.07-2.15-2.28-2.46-3.31-5.93-2.68-9.05.49-2.46,1.91-4.54,3.98-5.87,2.41-1.54,5.35-1.85,7.85-.82,2.08.85,3.91,2.43,5.43,4.68,1.3,1.92,2.34,4.3,2.99,6.86l.18.69-.22.68c-.45,1.41-.83,2.88-1.23,4.43-.4,1.55-.82,3.15-1.3,4.68-.72,2.25-1.31,4.41-.71,6.04.85,2.32,3.95,2.93,5.72,3.08.34.03.69.06,1.05.08,2.73.2,5.82.43,8.22,2.75,1.5,1.45,2.39,3.79,2.36,6.27-.02,2.41-.88,4.57-2.36,5.93l-.19.17-.22.11c-1.84.94-3.85,1.42-5.86,1.42Z"/>
          <path class="st4" d="M1003.59,545.5c-.99-.11-1.96-.34-2.91-.68l-.82-.3-1.6-4.41c-.4-1.1.04-2.37.98-2.83.94-.47,2.02.05,2.42,1.15l.91,2.52c1.83.49,3.76.41,5.56-.21.53-.5.9-1.35.99-2.32.11-1.16-.19-2.3-.78-2.98-1.36-1.59-3.58-2.01-5.93-2.45-.36-.07-.72-.14-1.08-.21-4.52-.91-7.4-3.22-8.34-6.66-.87-3.21.22-6.27,1.4-9.13.56-1.35,1.06-2.77,1.59-4.27.45-1.27.9-2.57,1.41-3.84-.82-4.1-2.76-7.31-5.24-8.66-1.45-.79-3.32-.79-4.87-.02-1.2.6-2.05,1.6-2.4,2.81-.54,1.87.3,3.88,1.19,5.04.87,1.14,1.83,1.61,2.32,1.48.46-.12.74-.95.87-1.43.3-1.14,1.34-1.78,2.31-1.43.98.35,1.52,1.56,1.22,2.71-.37,1.38-1.32,3.79-3.62,4.38-1.94.49-4.14-.56-5.87-2.82-2.07-2.71-2.81-6.27-1.93-9.31.69-2.39,2.27-4.31,4.45-5.4,2.53-1.27,5.47-1.24,7.88.07,2,1.08,3.69,2.86,5.02,5.27,1.14,2.06,1.98,4.54,2.41,7.17l.12.71-.27.65c-.56,1.35-1.06,2.77-1.59,4.27-.53,1.5-1.07,3.05-1.68,4.52-.9,2.16-1.67,4.24-1.21,5.93.65,2.4,3.69,3.36,5.44,3.71.34.07.68.13,1.04.2,2.7.51,5.75,1.08,7.96,3.66,1.38,1.61,2.07,4.04,1.84,6.51-.22,2.4-1.26,4.45-2.84,5.64l-.2.15-.23.09c-1.91.73-3.95.98-5.95.75Z"/>
          <path class="st4" d="M982.66,515.91c.83.03,1.66.16,2.46.39l.7.2,1.54,3.59c.38.9.07,1.98-.69,2.43-.77.45-1.7.08-2.08-.81l-.88-2.05c-1.55-.29-3.17-.11-4.64.52-.42.45-.69,1.18-.72,2-.04.97.26,1.91.78,2.45,1.21,1.25,3.09,1.46,5.07,1.69.3.03.61.07.92.11,3.82.49,6.34,2.24,7.27,5.06.87,2.63.1,5.26-.76,7.72-.41,1.16-.76,2.38-1.14,3.67-.32,1.09-.64,2.21-1,3.3.87,3.38,2.63,5.95,4.77,6.92,1.25.57,2.81.46,4.08-.29.97-.58,1.64-1.46,1.88-2.5.37-1.59-.43-3.23-1.22-4.14-.78-.9-1.6-1.23-2.01-1.1-.38.13-.58.84-.66,1.25-.2.97-1.04,1.57-1.87,1.33-.83-.24-1.34-1.22-1.14-2.19.24-1.18.94-3.25,2.83-3.88,1.6-.53,3.49.21,5.04,2,1.85,2.14,2.63,5.08,2.03,7.67-.47,2.04-1.71,3.74-3.48,4.79-2.06,1.21-4.52,1.37-6.6.43-1.72-.78-3.21-2.16-4.44-4.1-1.05-1.65-1.86-3.68-2.34-5.85l-.13-.59.2-.56c.41-1.16.76-2.38,1.14-3.67.37-1.28.76-2.61,1.2-3.88.65-1.86,1.2-3.65.74-5.04-.65-1.97-3.24-2.58-4.72-2.77-.29-.04-.57-.07-.88-.1-2.28-.26-4.86-.55-6.82-2.57-1.23-1.26-1.91-3.26-1.83-5.33.08-2.02.85-3.8,2.12-4.89l.16-.14.19-.09c1.56-.73,3.26-1.06,4.94-.99Z"/>
          <path class="st4" d="M1023.42,552.71c-.12-.96-.31-1.91-.6-2.82l-.24-.79-3.22-1.4c-.8-.35-1.69.13-1.99,1.07-.3.94.11,1.98.91,2.33l1.84.8c.41,1.77.43,3.67.05,5.45-.34.54-.93.93-1.62,1.05-.82.15-1.65-.1-2.17-.65-1.19-1.27-1.57-3.43-1.97-5.72-.06-.35-.12-.7-.19-1.05-.82-4.39-2.58-7.13-5.08-7.92-2.33-.73-4.48.44-6.48,1.71-.95.6-1.94,1.14-3,1.71-.89.48-1.81.98-2.69,1.52-2.97-.66-5.34-2.43-6.39-4.81-.62-1.39-.69-3.22-.19-4.77.39-1.19,1.07-2.07,1.92-2.46,1.32-.6,2.79.15,3.65.98.85.81,1.22,1.73,1.15,2.22-.07.45-.65.76-.99.91-.81.34-1.22,1.38-.94,2.32.29.94,1.18,1.43,1.98,1.09.98-.41,2.67-1.44,3-3.7.28-1.92-.55-4.03-2.24-5.64-2.01-1.93-4.59-2.52-6.73-1.55-1.69.77-3,2.38-3.7,4.55-.81,2.52-.69,5.41.34,7.72.85,1.92,2.18,3.51,3.96,4.73,1.52,1.04,3.32,1.77,5.22,2.1l.51.09.46-.29c.95-.6,1.94-1.14,3-1.71,1.05-.57,2.14-1.16,3.17-1.81,1.51-.96,2.98-1.79,4.2-1.4,1.75.55,2.54,3.49,2.86,5.19.06.33.12.66.18,1.01.46,2.62.99,5.6,2.91,7.66,1.21,1.29,2.97,1.88,4.73,1.56,1.71-.3,3.14-1.39,3.93-2.99l.1-.2.05-.22c.45-1.9.55-3.9.32-5.85Z"/>
          <path class="st4" d="M995.21,511.25c-.63.9-1.18,1.86-1.64,2.89l-.19,1.99,1.34,3.34c.38,1.11,1.46,1.64,2.41,1.19.95-.45,1.4-1.71,1.02-2.82l-.88-2.54c1-1.85,2.41-3.41,4.06-4.45.68-.09,1.45.21,2.1.82.77.73,1.26,1.78,1.26,2.75,0,2.25-1.32,4.38-2.71,6.64-.21.34-.43.69-.64,1.04-2.64,4.38-3.28,8.4-1.86,11.61,1.32,2.99,3.94,4.25,6.51,5.29,1.21.49,2.42,1.08,3.71,1.71,1.08.53,2.2,1.07,3.31,1.55,1.9,3.58,2.48,7.45,1.53,10.46-.55,1.76-1.87,3.31-3.43,4.04-1.21.57-2.42.57-3.4,0-1.51-.87-2.13-2.99-2.21-4.54-.07-1.53.32-2.65.75-2.97.39-.3,1.1.06,1.48.29.9.56,2.02.15,2.5-.91.48-1.06.13-2.36-.78-2.92-1.1-.67-3.23-1.59-5.2-.1-1.67,1.26-2.58,3.82-2.44,6.85.18,3.63,1.81,6.76,4.26,8.17,1.94,1.12,4.21,1.17,6.41.14,2.55-1.19,4.62-3.65,5.53-6.57.76-2.42.88-5.07.36-7.88-.44-2.4-1.35-4.84-2.63-7.06l-.35-.6-.58-.24c-1.21-.49-2.42-1.08-3.71-1.71-1.28-.62-2.6-1.27-3.92-1.8-1.94-.79-3.74-1.62-4.44-3.19-.99-2.24.58-5.43,1.6-7.13.2-.33.4-.66.61-1,1.6-2.59,3.41-5.53,3.41-9.17,0-2.28-.99-4.57-2.64-6.12-1.61-1.51-3.58-2.11-5.42-1.64l-.23.06-.21.13c-1.79,1.07-3.38,2.58-4.66,4.39Z"/>
          <path class="st4" d="M970.43,515.69c.19,1.14.47,2.25.85,3.32l.33.93,3.91,1.45c.97.36,2.01-.27,2.32-1.41.31-1.14-.23-2.35-1.2-2.72l-2.23-.83c-.58-2.08-.7-4.34-.34-6.49.38-.67,1.06-1.17,1.88-1.37.97-.23,1.97,0,2.61.63,1.48,1.44,2.04,3.98,2.64,6.68.09.41.18.83.28,1.24,1.2,5.18,3.43,8.32,6.45,9.09,2.81.72,5.31-.83,7.64-2.48,1.1-.78,2.26-1.49,3.49-2.25,1.04-.64,2.11-1.29,3.14-1.99,3.57.58,6.48,2.53,7.86,5.3.81,1.62.98,3.79.47,5.67-.4,1.45-1.17,2.54-2.17,3.06-1.54.8-3.33.01-4.4-.91-1.05-.91-1.54-1.98-1.48-2.57.06-.54.74-.95,1.14-1.15.94-.46,1.39-1.72,1-2.83-.39-1.1-1.47-1.63-2.42-1.17-1.14.56-3.11,1.89-3.39,4.62-.24,2.31.86,4.77,2.95,6.57,2.5,2.16,5.6,2.69,8.1,1.38,1.97-1.03,3.46-3.05,4.18-5.68.84-3.06.55-6.49-.79-9.18-1.11-2.23-2.77-4.03-4.95-5.36-1.86-1.14-4.05-1.88-6.32-2.15l-.61-.07-.53.37c-1.1.78-2.26,1.49-3.49,2.25-1.23.75-2.49,1.53-3.69,2.38-1.76,1.25-3.46,2.33-4.94,1.96-2.11-.54-3.2-3.98-3.66-5.99-.09-.39-.18-.78-.27-1.19-.68-3.09-1.46-6.6-3.86-8.93-1.5-1.46-3.64-2.03-5.71-1.54-2.02.48-3.67,1.88-4.54,3.83l-.11.25-.05.27c-.44,2.29-.47,4.69-.09,7Z"/>
          <path class="st4" d="M984.15,487.32c.97.23,1.92.58,2.83,1.04l.79.4,1.19,4.59c.3,1.14-.26,2.35-1.23,2.7-.98.35-2.01-.3-2.3-1.44l-.68-2.62c-1.77-.71-3.7-.88-5.54-.48-.58.43-1.02,1.23-1.19,2.18-.21,1.14-.02,2.31.5,3.06,1.21,1.75,3.38,2.44,5.68,3.18.35.11.71.23,1.06.34,4.41,1.47,7.06,4.12,7.68,7.66.57,3.3-.79,6.2-2.23,8.9-.68,1.27-1.31,2.62-1.97,4.05-.56,1.21-1.13,2.45-1.75,3.64.44,4.18,2.07,7.62,4.42,9.27,1.37.96,3.23,1.2,4.84.62,1.24-.45,2.18-1.33,2.64-2.5.71-1.79.05-3.9-.72-5.16-.76-1.24-1.67-1.83-2.18-1.76-.47.06-.82.85-1,1.31-.4,1.1-1.49,1.6-2.43,1.13-.94-.47-1.37-1.75-.97-2.84.49-1.33,1.66-3.61,3.99-3.9,1.98-.25,4.06,1.07,5.58,3.54,1.81,2.95,2.22,6.59,1.07,9.49-.91,2.29-2.65,4-4.91,4.81-2.63.94-5.55.55-7.83-1.05-1.89-1.33-3.41-3.3-4.52-5.86-.95-2.19-1.55-4.76-1.75-7.43l-.05-.72.33-.61c.68-1.27,1.31-2.62,1.97-4.05.66-1.42,1.34-2.89,2.08-4.28,1.09-2.04,2.04-4.01,1.74-5.75-.43-2.47-3.36-3.8-5.07-4.37-.33-.11-.66-.22-1.02-.33-2.64-.84-5.62-1.79-7.58-4.63-1.22-1.78-1.69-4.28-1.24-6.7.44-2.36,1.65-4.27,3.33-5.25l.21-.12.23-.06c1.96-.48,4.02-.48,5.98,0Z"/>
        </g>
        <g>
          <path class="st99" d="M964.39,500.36c-.18,0-.35-.11-.42-.28-.85-2.14-.67-4.76.47-7.01.94-1.85,2.41-3.15,4.05-3.58.24-.06.49.08.55.32.06.24-.08.49-.32.55-1.39.36-2.65,1.5-3.47,3.11-1.01,2-1.18,4.4-.44,6.27.09.23-.02.49-.25.58-.05.02-.11.03-.17.03Z"/>
          <path class="st96" d="M975.84,496.14s0,0,0,0c-.25,0-.45-.21-.44-.46,0-.57-.08-1.1-.17-1.62-.2-1.18-.4-2.4.72-3.67.63-.71,1.6-1.28,2.79-1.64.96-.29,2.04-.44,3.03-.43.25,0,.45.21.44.46,0,.25-.21.45-.46.44-2.43-.04-4.33.86-5.13,1.77-.83.94-.69,1.77-.5,2.92.09.53.19,1.13.18,1.78,0,.25-.2.44-.45.44Z"/>
          <path class="st95" d="M972.14,515.14c-.19,0-.37-.12-.43-.32-.5-1.62-1.12-3.64-.77-5.61.23-1.27,1-2.46,1.97-3.03.66-.39,1.35-.47,2.01-.25.24.08.36.34.28.57-.08.24-.34.36-.57.28-.41-.14-.83-.08-1.26.17-.74.44-1.36,1.41-1.54,2.41-.31,1.75.27,3.66.74,5.18.07.24-.06.49-.3.56-.04.01-.09.02-.13.02Z"/>
          <path class="st97" d="M985.46,530.11c-.16,0-.31-.08-.39-.23-.9-1.61-1.24-3.7-.92-5.74.32-2.05,1.27-3.88,2.61-5.02.19-.16.47-.14.63.05.16.19.14.47-.05.63-1.18,1-2.02,2.63-2.3,4.47-.29,1.85,0,3.73.81,5.16.12.22.04.49-.17.61-.07.04-.15.06-.22.06Z"/>
          <path class="st98" d="M995.86,513.81s-.08,0-.12-.02c-.24-.07-.38-.31-.31-.55.56-1.99,1.9-3.67,3.68-4.61,1.51-.79,3.14-.95,4.61-.44.23.08.36.34.28.57-.08.23-.34.36-.57.28-1.23-.42-2.61-.29-3.9.39-1.57.82-2.75,2.3-3.24,4.05-.06.2-.24.33-.43.33Z"/>
          <path class="st102" d="M986.1,498.49c-.15,0-.3-.08-.39-.22-.13-.21-.06-.49.15-.62,2.66-1.61,5.97-1.62,8.63-.02.21.13.28.4.15.62-.13.21-.4.28-.62.15-2.38-1.42-5.33-1.42-7.7.02-.07.04-.15.07-.23.07Z"/>
          <path class="st101" d="M1009.7,534.24c-.12,0-.24-.05-.33-.14-.17-.18-.16-.47.02-.64,1.2-1.12,1.96-2.91,2.07-4.92.11-2.01-.44-3.9-1.51-5.2-.16-.19-.13-.47.06-.63.19-.16.47-.13.63.06,1.22,1.47,1.84,3.59,1.72,5.82-.12,2.23-.98,4.25-2.35,5.52-.09.08-.2.12-.31.12Z"/>
          <path class="st83" d="M1008.19,559.27c-.24,0-.44-.19-.45-.43,0-.25.19-.46.43-.46,3.58-.12,6.94-3.3,7.82-7.39.05-.24.29-.4.53-.35.24.05.4.29.35.53-.96,4.49-4.69,7.97-8.67,8.1,0,0-.01,0-.02,0Z"/>
          <path class="st84" d="M1004.39,556.42c-.14,0-.28-.06-.37-.19-1.3-1.8-1.68-4.49-.94-6.68.75-2.22,2.63-3.89,4.68-4.17.25-.03.47.14.51.39.03.25-.14.47-.39.51-1.71.23-3.3,1.66-3.94,3.56-.65,1.93-.33,4.28.81,5.86.15.2.1.48-.1.63-.08.06-.17.09-.26.09Z"/>
          <path class="st77" d="M989.67,544.29s-.09,0-.13-.02c-.93-.28-1.62-1.19-1.85-2.42-.25-1.33.14-2.63.99-3.29.2-.15.48-.12.63.08.15.2.12.48-.08.63-.58.46-.85,1.43-.66,2.42.16.88.63,1.54,1.23,1.72.24.07.37.32.3.56-.06.19-.24.32-.43.32Z"/>
          <path class="st76" d="M988.4,514.93c-.09,0-.19-.03-.27-.09-.2-.15-.24-.43-.09-.63,1.02-1.38,2.18-2.95,2.48-4.85.26-1.69-.53-3.84-1.94-4.07-.25-.04-.41-.27-.37-.52.04-.25.27-.41.52-.37.93.15,1.72.84,2.23,1.92.45.96.61,2.12.45,3.18-.32,2.12-1.61,3.85-2.64,5.25-.09.12-.22.18-.36.18Z"/>
          <path class="st78" d="M1017.44,559.82c-.25,0-.45-.2-.45-.45,0-.25.2-.45.45-.45.96,0,1.92-.5,2.69-1.4.99-1.16,1.47-2.78,1.24-4.23-.04-.25.13-.48.37-.51.25-.04.48.13.51.38.27,1.72-.27,3.58-1.45,4.95-.95,1.11-2.14,1.72-3.38,1.72h0Z"/>
          <path class="st81" d="M990.43,554.1c-.14,0-.28-.07-.37-.19-1.42-2.02-2.36-4.56-2.64-7.15-.03-.25.15-.47.4-.5.25-.03.47.15.5.4.27,2.44,1.15,4.83,2.48,6.73.14.2.09.48-.11.63-.08.06-.17.08-.26.08Z"/>
        </g>
      </g>
      <circle class="st115" cx="961.56" cy="459.5" r="2.57"/>
      <circle class="st120" cx="953.36" cy="471.8" r="2.57"/>
      <circle class="st119" cx="948.55" cy="459.87" r="2.57"/>
      <circle class="st122" cx="943.3" cy="472.54" r="2.57"/>
      <circle class="st121" cx="961.19" cy="483.35" r="2.57"/>
      <circle class="st116" cx="985.42" cy="482.24" r="2.57"/>
      <circle class="st123" cx="983.18" cy="473.29" r="2.57"/>
      <circle class="st118" cx="996.61" cy="484.85" r="2.57"/>
      <circle class="st117" cx="1001.82" cy="500.13" r="2.57"/>
      <circle class="st60" cx="1012.26" cy="512.06" r="2.57"/>
      <circle class="st63" cx="1011.14" cy="501.25" r="2.57"/>
      <circle class="st57" cx="1024.19" cy="515.79" r="2.57"/>
      <circle class="st62" cx="1019.38" cy="519.52" r="2.57"/>
      <circle class="st64" cx="935.47" cy="485.22" r="2.57"/>
      <circle class="st58" cx="933.64" cy="470.68" r="2.57"/>
      <circle class="st55" cx="953.36" cy="485.59" r="2.57"/>
      <circle class="st56" cx="926.56" cy="480" r="2.57"/>
      <circle class="st59" cx="945.53" cy="498.27" r="2.57"/>
      <circle class="st61" cx="943.7" cy="483.73" r="2.57"/>
      <circle class="st40" cx="958.21" cy="509.08" r="2.57"/>
      <circle class="st45" cx="950.38" cy="521.75" r="2.57"/>
      <circle class="st39" cx="948.55" cy="507.21" r="2.57"/>
      <circle class="st38" cx="965.29" cy="517.65" r="2.57"/>
      <circle class="st43" cx="957.46" cy="530.33" r="2.57"/>
      <circle class="st42" cx="955.63" cy="515.79" r="2.57"/>
      <circle class="st41" cx="979.83" cy="535.92" r="2.57"/>
      <circle class="st44" cx="972" cy="548.59" r="2.57"/>
      <circle class="st48" cx="970.17" cy="534.06" r="2.57"/>
      <circle class="st49" cx="1021.96" cy="569.1" r="2.57"/>
      <circle class="st26" cx="1014.13" cy="581.77" r="2.57"/>
      <circle class="st27" cx="1012.3" cy="567.23" r="2.57"/>
      <circle class="st25" cx="1001.45" cy="563.13" r="2.57"/>
      <circle class="st23" cx="1006.3" cy="572.83" r="2.57"/>
      <circle class="st22" cx="1059.98" cy="585.16" r="2.57"/>
      <circle class="st28" cx="1029.78" cy="575.81" r="2.57"/>
      <circle class="st20" cx="1027.96" cy="561.27" r="2.57"/>
      <circle class="st21" cx="1048.05" cy="580.65" r="2.57"/>
      <circle class="st24" cx="1040.22" cy="593.33" r="2.57"/>
      <circle class="st29" cx="1038.4" cy="578.79" r="2.57"/>
      <circle class="st67" cx="1057.37" cy="551.58" r="2.57"/>
      <circle class="st66" cx="1049.54" cy="564.25" r="2.57"/>
      <circle class="st65" cx="1047.72" cy="549.71" r="2.57"/>
      <circle class="st70" cx="1042.09" cy="544.49" r="2.57"/>
      <circle class="st69" cx="1056.63" cy="579.2" r="2.57"/>
      <circle class="st68" cx="1032.43" cy="542.63" r="2.57"/>
      <circle class="st74" cx="1034.63" cy="556.42" r="2.57"/>
      <circle class="st73" cx="1039.48" cy="567.61" r="2.57"/>
      <circle class="st72" cx="1030.53" cy="529.21" r="2.57"/>
      <circle class="st71" cx="1022.7" cy="541.88" r="2.57"/>
      <circle class="st37" cx="991.01" cy="560.52" r="2.57"/>
      <circle class="st34" cx="980.58" cy="543" r="2.57"/>
      <circle class="st36" cx="958.58" cy="498.27" r="2.57"/>
      <circle class="st31" cx="930.25" cy="496.03" r="2.57"/>
      <circle class="st35" cx="1020.87" cy="527.34" r="2.57"/>
      <circle class="st30" cx="977.59" cy="466.58" r="2.57"/>
      <circle class="st47" cx="972" cy="483.35" r="2.57"/>
      <circle class="st46" cx="970.51" cy="473.66" r="2.57"/>
      <circle class="st33" cx="961.06" cy="468.76" r="2.57"/>
      <circle class="st32" cx="965.66" cy="526.6" r="2.57"/>
      <circle class="st54" cx="938.08" cy="500.17" r="2.57"/>
      <circle class="st50" cx="1024.57" cy="587.37" r="2.57"/>
      <circle class="st52" cx="1057.41" cy="569.84" r="2.57"/>
      <circle class="st53" cx="1042.83" cy="534.43" r="2.57"/>
      <circle class="st51" cx="992.2" cy="567.98" r="2.57"/>
      <g>
        <path class="st3" d="M1068,562.98c.06.38.08.65.08.65-.15.62-.45,1.01-.89,1.17-.16.05-.4-.24-.68-.67"/>
        <path class="st3" d="M1066.5,564.13c-.51-.78-1.17-1.99-1.7-2.38l-2.1-1.35c-.79-.32-1.65-.39-2.47-.21-.26.19-.45.55-.53.97-.09.5,0,1.03.22,1.36.54.78,1.5,1.09,2.52,1.41.15.05.31.1.47.15,1.96.65,3.14,1.83,3.42,3.41.25,1.47-.35,2.76-.99,3.96-.3.57-.58,1.17-.87,1.8-.25.54-.61,1.1-.83,1.82.06,1.05.98,3.18,2.02,3.91.61.43,1.44.54,2.15.28.55-.2.97-.59,1.18-1.11.31-.79.02-1.73-.32-2.29-.34-.55-.98-2.51-.97-3.19,0-.21.1-3.15.16-3.54.16-1.11-1.05-3.44-.89-4.39.08-.46.89-.39,1.05-.89.45-1.37,2.14,4.42,1.61,6.83-.19.87.17,2.61.72,3.83.64,1.4.64,3.15.12,4.44-.4,1.02-1.18,1.78-2.18,2.14-1.17.42-2.47.25-3.48-.47-.84-.59-1.52-1.47-2.01-2.61-.42-.97-.69-1.6-.78-2.79l.11-.78.39-1.22c.3-.57.2-.27.5-.91.29-.63.6-1.29.93-1.9.48-.91.91-1.78.77-2.56-.19-1.1-1.5-1.69-2.26-1.94-.15-.05-.3-.1-.45-.15-1.17-.37-2.5-.8-3.37-2.06-.54-.79-.75-1.9-.55-2.98.19-1.05.74-1.9,1.48-2.34l.09-.06.1-.03c.87-.22,1.79-.21,2.66,0,.43.1,1.68.56,2.09.76,0,0,2.08,1.43,2.5,1.67.59.33.86,1.49.98,2.23"/>
        <path class="st79" d="M1058.74,562.24h0c-.11,0-.2-.09-.2-.2,0-.25-.04-.49-.07-.72-.09-.53-.18-1.07.32-1.63.39-.44,1.3-.94,2.59-.92.11,0,.2.09.2.2,0,.11-.09.2-.2.2h0c-.78-.01-1.79.23-2.28.79-.37.42-.31.79-.22,1.3.04.24.08.5.08.79,0,.11-.09.2-.2.2Z"/>
        <path class="st80" d="M1063.01,577.35c-.07,0-.14-.04-.17-.1-.84-1.49-.49-3.73.75-4.78.08-.07.21-.06.28.02.07.08.06.21-.02.28-1.11.94-1.42,2.94-.66,4.28.05.1.02.22-.08.27-.03.02-.06.03-.1.03Z"/>
        <path class="st82" d="M1064.32,570.6s-.08-.01-.12-.04c-.09-.07-.11-.19-.04-.28.46-.62.97-1.31,1.1-2.16.12-.75-.24-1.71-.86-1.81-.11-.02-.18-.12-.16-.23.02-.11.12-.18.23-.16.41.07.77.37.99.85.2.43.27.94.2,1.41-.14.94-.72,1.71-1.17,2.33-.04.05-.1.08-.16.08Z"/>
      </g>
      <line class="st7" x1="889.76" y1="460.6" x2="918.76" y2="469.75"/>
      <g>
        <path d="M838.67,460.68c-.44.21-1.47.47-2.78.47-3.76,0-5.7-2.36-5.7-5.46,0-3.71,2.65-5.77,5.94-5.77,1.28,0,2.25.24,2.68.48l-.52,1.94c-.48-.21-1.18-.4-2.07-.4-1.94,0-3.46,1.18-3.46,3.6,0,2.18,1.29,3.55,3.47,3.55.76,0,1.57-.15,2.07-.36l.36,1.94Z"/>
        <path d="M841.81,457.8c.06,1.02,1.08,1.5,2.23,1.5.84,0,1.52-.11,2.18-.34l.32,1.66c-.81.34-1.79.5-2.86.5-2.68,0-4.22-1.55-4.22-4.02,0-2,1.24-4.22,3.99-4.22,2.55,0,3.52,1.99,3.52,3.94,0,.42-.05.79-.08.97h-5.09ZM844.7,456.12c0-.6-.26-1.6-1.39-1.6-1.03,0-1.45.95-1.52,1.6h2.91Z"/>
        <path d="M848.44,449.5h2.45v11.47h-2.45v-11.47Z"/>
        <path d="M852.89,449.5h2.45v11.47h-2.45v-11.47Z"/>
        <path d="M862.29,453.07l.65,3.25c.15.81.31,1.68.44,2.58h.05c.15-.9.39-1.79.57-2.57l.84-3.26h1.94l.79,3.15c.23.9.44,1.78.58,2.68h.03c.11-.89.27-1.79.47-2.7l.66-3.13h2.41l-2.42,7.9h-2.29l-.74-2.76c-.21-.78-.36-1.49-.52-2.47h-.03c-.15.99-.31,1.73-.5,2.45l-.79,2.78h-2.31l-2.31-7.9h2.5Z"/>
        <path d="M879.31,459.06c0,.74.03,1.47.13,1.91h-2.21l-.15-.79h-.05c-.52.63-1.32.97-2.26.97-1.6,0-2.55-1.16-2.55-2.42,0-2.05,1.84-3.02,4.64-3.02v-.1c0-.44-.23-1.03-1.44-1.03-.81,0-1.66.27-2.18.6l-.45-1.58c.55-.31,1.63-.71,3.07-.71,2.63,0,3.46,1.55,3.46,3.42v2.76ZM876.94,457.24c-1.29,0-2.29.31-2.29,1.24,0,.63.42.94.97.94.6,0,1.11-.4,1.28-.9.03-.13.05-.27.05-.42v-.86Z"/>
        <path d="M881.26,449.5h2.45v11.47h-2.45v-11.47Z"/>
        <path d="M885.71,449.5h2.45v11.47h-2.45v-11.47Z"/>
      </g>
    </g>
    <g>
      <path class="st105" d="M546.48,264.52l12.53,21.67c.3.52.97.7,1.49.4.52-.3.7-.97.4-1.49l-12.53-21.67c-.3-.52-.97-.7-1.49-.4-.52.3-.7.97-.4,1.49h0Z"/>
      <path class="st105" d="M553.04,260.72l12.53,21.68c.3.52.97.7,1.49.4.52-.3.7-.97.4-1.49l-12.53-21.68c-.3-.52-.97-.7-1.49-.4-.52.3-.7.97-.4,1.49h0Z"/>
      <path class="st105" d="M561.05,281.52l24.16,6.48c.58.16,1.18-.19,1.34-.77.16-.58-.19-1.18-.77-1.34l-24.16-6.48c-.58-.16-1.18.19-1.34.77-.16.58.19,1.18.77,1.34h0Z"/>
      <path class="st105" d="M610.66,288l24.16-6.48c.58-.16.93-.76.77-1.34-.16-.58-.76-.93-1.34-.77l-24.16,6.48c-.58.16-.93.76-.77,1.34.16.58.76.93,1.34.77h0Z"/>
      <path class="st105" d="M633.76,281.23l27,27c.43.43,1.12.43,1.55,0,.43-.43.43-1.12,0-1.55l-27-27c-.43-.43-1.12-.43-1.55,0-.43.43-.43,1.12,0,1.55h0Z"/>
      <path class="st105" d="M631.48,289.75l20.77,20.77c.43.43,1.12.43,1.55,0,.43-.43.43-1.12,0-1.55l-20.77-20.77c-.43-.43-1.12-.43-1.55,0-.43.43-.43,1.12,0,1.55h0Z"/>
      <path class="st105" d="M661.82,308.52l36.6-9.82c.58-.16.93-.76.77-1.34-.16-.58-.76-.93-1.34-.77l-36.6,9.82c-.58.16-.93.76-.77,1.34.16.58.76.93,1.34.77h0Z"/>
      <path class="st105" d="M697.36,298.42l26.78,26.78c.43.43,1.12.43,1.55,0,.43-.43.43-1.12,0-1.55l-26.78-26.78c-.43-.43-1.12-.43-1.55,0-.43.43-.43,1.12,0,1.55h0Z"/>
      <path class="st105" d="M695.1,306.87l23.69,23.69c.43.43,1.12.43,1.55,0,.43-.43.43-1.12,0-1.55l-23.69-23.69c-.43-.43-1.12-.43-1.55,0-.43.43-.43,1.12,0,1.55h0Z"/>
      <path class="st105" d="M660.48,307.18l-9.82,36.6c-.16.58.19,1.18.77,1.34.58.16,1.18-.19,1.34-.77l9.82-36.6c.16-.58-.19-1.18-.77-1.34-.58-.16-1.18.19-1.34.77h0Z"/>
      <path class="st105" d="M651.44,343.01l-25.33,6.75c-.58.16-.93.75-.77,1.34.16.58.75.93,1.34.77l25.33-6.75c.58-.16.93-.75.77-1.34-.16-.58-.75-.93-1.34-.77h0Z"/>
      <path class="st105" d="M588.89,326.33l-1.55,1.55.81.96h0l1.69-1.69h0l-.96-.81h0ZM592.24,329.16l-2.07,2.07,1.62,1.92,2.36-2.36-1.92-1.62h0ZM596.55,332.8l-2.74,2.73h0l1.62,1.92,3.03-3.03h0l-1.92-1.62h0ZM600.86,336.44l-3.4,3.4,1.62,1.92,3.7-3.7-1.92-1.62h0ZM605.17,340.08l-4.07,4.07,1.62,1.92h0l4.37-4.37-1.92-1.62h0Z"/>
      <path class="st105" d="M592.85,305.1l-5.79,21.72c-.16.58.19,1.18.77,1.34.58.16,1.18-.19,1.34-.77l5.79-21.72c.16-.58-.19-1.18-.77-1.34-.58-.16-1.18.19-1.34.77h0Z"/>
      <path class="st105" d="M588.4,326.05l-36.6-9.82c-.58-.16-1.18.19-1.34.77-.16.58.19,1.18.77,1.34l36.6,9.82c.58.16,1.18-.19,1.34-.77.16-.58-.19-1.18-.77-1.34h0Z"/>
      <path class="st105" d="M560.28,280.18l-9.82,36.82c-.16.58.19,1.18.77,1.34.58.16,1.18-.19,1.34-.77l9.82-36.82c.16-.58-.19-1.18-.77-1.34-.58-.16-1.18.19-1.34.77h0Z"/>
      <path class="st105" d="M550.97,316.34l-1.13.53,1.19,2.07,1.03-.71-.54-.95-.54-.95h0ZM547,318.2l-2.27,1.06,1.66,2.88h0l2.06-1.42h0l-1.45-2.52h0ZM541.89,320.6l-2.27,1.06h0l2.12,3.69,2.06-1.42h0l-1.91-3.33h0ZM536.79,322.99l-2.27,1.06,2.58,4.5,2.06-1.42h0l-2.38-4.14h0ZM531.68,325.39l-2.27,1.07h0l3.05,5.3,2.06-1.42h0l-2.84-4.94h0Z"/>
      <path class="st105" d="M507.28,328.51l-21.05-12.17c-.52-.3-1.19-.12-1.49.4-.3.52-.12,1.19.4,1.49l21.05,12.17c.52.3,1.19.12,1.49-.4.3-.52.12-1.19-.4-1.49h0Z"/>
      <path class="st105" d="M490.59,319.49v-25.03c0-.6-.49-1.09-1.09-1.09s-1.09.49-1.09,1.09v25.03c0,.6.49,1.09,1.09,1.09s1.09-.49,1.09-1.09h0Z"/>
      <path class="st105" d="M482.96,319.49v-25.03c0-.6-.49-1.09-1.09-1.09s-1.09.49-1.09,1.09v25.03c0,.6.49,1.09,1.09,1.09s1.09-.49,1.09-1.09h0Z"/>
      <path class="st105" d="M485.14,316.34l-32.81,18.97c-.52.3-.7.97-.4,1.49.3.52.97.7,1.49.4l32.81-18.97c.52-.3.7-.97.4-1.49-.3-.52-.97-.7-1.49-.4h0Z"/>
      <path class="st105" d="M453.43,335.31l-21.05-12.17c-.52-.3-1.19-.12-1.49.4-.3.52-.12,1.19.4,1.49l21.05,12.17c.52.3,1.19.12,1.49-.4.3-.52.12-1.19-.4-1.49h0Z"/>
      <path class="st105" d="M453.43,326.55l-17.26-9.98c-.52-.3-1.19-.12-1.49.4-.3.52-.12,1.19.4,1.49l17.26,9.98c.52.3,1.19.12,1.49-.4.3-.52.12-1.19-.4-1.49h0Z"/>
      <path class="st105" d="M421.17,301.6v-7.14c0-.6-.49-1.09-1.09-1.09s-1.09.49-1.09,1.09v7.14c0,.6.49,1.09,1.09,1.09s1.09-.49,1.09-1.09h0Z"/>
      <path class="st105" d="M406.02,269.79l-18.43-10.59c-.52-.3-1.19-.12-1.49.4-.3.52-.12,1.19.4,1.49l18.43,10.59c.52.3,1.19.12,1.49-.4.3-.52.12-1.19-.4-1.49h0Z"/>
      <path class="st105" d="M388.14,260.15v-37.94c0-.6-.49-1.09-1.09-1.09s-1.09.49-1.09,1.09v37.94c0,.6.49,1.09,1.09,1.09s1.09-.49,1.09-1.09h0Z"/>
      <path class="st105" d="M387.59,227.56l20.33-11.68c.52-.3.7-.97.4-1.49-.3-.52-.97-.7-1.49-.4l-20.33,11.68c-.52.3-.7.97-.4,1.49.3.52.97.7,1.49.4h0Z"/>
      <path class="st105" d="M383.78,220.96l20.35-11.69c.52-.3.7-.97.4-1.49-.3-.52-.97-.7-1.49-.4l-20.35,11.69c-.52.3-.7.97-.4,1.49.3.52.97.7,1.49.4h0Z"/>
      <path class="st105" d="M387.59,221.27l-18.22-10.54c-.52-.3-1.19-.12-1.49.4-.3.52-.12,1.19.4,1.49l18.22,10.54c.52.3,1.19.12,1.49-.4.3-.52.12-1.19-.4-1.49h0Z"/>
      <path class="st105" d="M451.79,336.25v37.94c0,.6.49,1.09,1.09,1.09s1.09-.49,1.09-1.09v-37.94c0-.6-.49-1.09-1.09-1.09s-1.09.49-1.09,1.09h0Z"/>
      <path class="st105" d="M452.24,373.31l-19.43,14.08c-.49.35-.6,1.04-.24,1.53.35.49,1.04.6,1.53.24l19.43-14.08c.49-.35.6-1.04.24-1.53-.35-.49-1.04-.6-1.53-.24h0Z"/>
      <path class="st105" d="M425.98,411.84l6.89,20.94c.19.57.81.89,1.38.7.57-.19.89-.81.7-1.38l-6.89-20.94c-.19-.57-.81-.89-1.38-.7-.57.19-.89.81-.7,1.38h0Z"/>
      <path class="st105" d="M433.16,409.48l5.53,16.79c.19.57.81.89,1.38.7.57-.19.89-.81.7-1.38l-5.53-16.79c-.19-.57-.81-.89-1.38-.7-.57.19-.89.81-.7,1.38h0Z"/>
      <path class="st105" d="M433.91,433.53h26.21c.6,0,1.09-.49,1.09-1.09s-.49-1.09-1.09-1.09h-26.21c-.6,0-1.09.49-1.09,1.09s.49,1.09,1.09,1.09h0Z"/>
      <path class="st105" d="M477.84,417.43l6.65-20.58c.19-.57-.13-1.19-.7-1.38-.57-.19-1.19.13-1.38.7l-6.65,20.58c-.19.57.13,1.19.7,1.38.57.19,1.19-.13,1.38-.7h0Z"/>
      <path class="st105" d="M452.23,375.07l30.57,22.32c.49.36,1.17.25,1.53-.24.36-.49.25-1.17-.24-1.53l-30.57-22.32c-.49-.36-1.17-.25-1.53.24-.36.49-.25,1.17.24,1.53h0Z"/>
      <path class="st105" d="M451.3,383.77l23.51,17.16c.49.36,1.17.25,1.53-.24.36-.49.25-1.17-.24-1.53l-23.51-17.16c-.49-.36-1.17-.25-1.53.24-.36.49-.25,1.17.24,1.53h0Z"/>
      <path class="st105" d="M433.02,431.79l-12.48,17.22c-.35.49-.25,1.17.24,1.53.49.35,1.17.25,1.53-.24l12.48-17.22c.35-.49.25-1.17-.24-1.53-.49-.35-1.17-.25-1.53.24h0Z"/>
      <path class="st105" d="M635.59,280.74l9.82-36.6c.16-.58-.19-1.18-.77-1.34-.58-.16-1.18.19-1.34.77l-9.82,36.6c-.16.58.19,1.18.77,1.34.58.16,1.18-.19,1.34-.77h0Z"/>
      <path class="st105" d="M649.36,241.96l-15-15c-.43-.43-1.12-.43-1.55,0-.43.43-.43,1.12,0,1.55l15,15c.43.43,1.12.43,1.55,0,.43-.43.43-1.12,0-1.55h0Z"/>
      <path class="st105" d="M643.99,247.31l-15-15c-.43-.43-1.12-.43-1.55,0-.43.43-.43,1.12,0,1.55l15,15c.43.43,1.12.43,1.55,0,.43-.43.43-1.12,0-1.55h0Z"/>
      <path class="st105" d="M644.64,244.92l21.55-5.75c.58-.16.93-.75.77-1.34-.16-.58-.75-.93-1.34-.77l-21.55,5.75c-.58.16-.93.75-.77,1.34.16.58.75.93,1.34.77h0Z"/>
      <path class="st105" d="M542.37,256.12c-1.17,0-2.29-.23-3.34-.68-1.06-.46-1.98-1.07-2.76-1.85-.78-.78-1.4-1.7-1.85-2.76-.46-1.06-.68-2.17-.68-3.34s.23-2.33.68-3.37c.46-1.04,1.07-1.95,1.85-2.73.78-.78,1.7-1.4,2.76-1.85,1.06-.46,2.17-.68,3.34-.68s2.33.23,3.37.68c1.04.46,1.95,1.07,2.73,1.85.78.78,1.4,1.69,1.85,2.73.46,1.04.68,2.16.68,3.37s-.23,2.29-.68,3.34c-.46,1.06-1.07,1.98-1.85,2.76-.78.78-1.69,1.4-2.73,1.85-1.04.46-2.16.68-3.37.68h0ZM542.37,240.8c-.91,0-1.77.17-2.59.51-.81.34-1.53.81-2.15,1.42-.62.6-1.1,1.32-1.44,2.15-.34.83-.51,1.7-.51,2.61s.17,1.77.51,2.59c.34.81.82,1.53,1.44,2.15.62.62,1.33,1.1,2.15,1.44.81.34,1.68.51,2.59.51s1.82-.17,2.64-.51c.81-.34,1.52-.82,2.12-1.44.6-.62,1.07-1.33,1.42-2.15.34-.81.51-1.68.51-2.59s-.17-1.78-.51-2.61c-.34-.83-.81-1.55-1.42-2.15-.6-.6-1.31-1.07-2.12-1.42-.81-.34-1.69-.51-2.64-.51h0Z"/>
      <path class="st105" d="M602.77,298.75c-.36,0-.63-.16-.83-.49l-7.86-12.49v12c0,.26-.1.49-.29.68-.2.2-.42.29-.68.29s-.49-.1-.68-.29c-.2-.2-.29-.42-.29-.68v-15.32c0-.26.1-.49.29-.68.2-.2.42-.29.68-.29.36,0,.63.15.83.44l7.91,12.49v-11.96c0-.26.09-.49.27-.68.18-.2.4-.29.66-.29s.49.1.68.29c.2.2.29.42.29.68v15.32c0,.26-.1.49-.29.68-.2.2-.42.29-.68.29h0Z"/>
      <path class="st105" d="M523.32,344.72c-.36,0-.63-.16-.83-.49l-7.86-12.49v12c0,.26-.1.49-.29.68-.2.2-.42.29-.68.29s-.49-.1-.68-.29c-.2-.2-.29-.42-.29-.68v-15.32c0-.26.1-.49.29-.68.2-.2.42-.29.68-.29.36,0,.63.15.83.44l7.91,12.49v-11.96c0-.26.09-.49.27-.68.18-.2.4-.29.66-.29s.49.1.68.29c.2.2.29.42.29.68v15.32c0,.26-.1.49-.29.68-.2.2-.42.29-.68.29h0Z"/>
      <path class="st105" d="M523.76,365.12c-.26,0-.49-.1-.68-.29-.2-.2-.29-.42-.29-.68v-7.42h-8.59v7.42c0,.26-.1.49-.29.68-.2.2-.42.29-.68.29s-.49-.1-.68-.29c-.2-.2-.29-.42-.29-.68v-15.32c0-.26.1-.49.29-.68.2-.2.42-.29.68-.29s.49.1.68.29c.2.2.29.42.29.68v5.95h8.59v-5.95c0-.26.1-.49.29-.68.2-.2.42-.29.68-.29s.49.1.68.29c.2.2.29.42.29.68v15.32c0,.26-.1.49-.29.68-.2.2-.42.29-.68.29h0Z"/>
      <path class="st105" d="M614.87,362.35c-.65,0-1.27-.13-1.85-.39-.59-.26-1.1-.61-1.54-1.05-.44-.44-.79-.95-1.05-1.54-.26-.59-.39-1.2-.39-1.85,0-.29.1-.53.29-.71.2-.18.42-.27.68-.27.29,0,.53.09.71.27.18.18.27.41.27.71,0,.39.08.76.24,1.1.16.34.37.64.63.9.26.26.56.47.9.63.34.16.71.24,1.1.24s.76-.08,1.12-.24c.36-.16.68-.37.95-.63.28-.26.49-.56.63-.9.15-.34.22-.71.22-1.1,0-.49-.1-.89-.29-1.2-.2-.31-.46-.59-.78-.85-.16-.1-.35-.2-.56-.29-.21-.1-.41-.2-.61-.29-.23-.1-.46-.19-.68-.27-.23-.08-.47-.17-.73-.27-.49-.16-.98-.36-1.46-.59-.49-.23-.92-.5-1.29-.83-.37-.33-.69-.73-.95-1.22-.26-.49-.39-1.09-.39-1.81,0-.65.13-1.27.39-1.85.26-.59.61-1.1,1.05-1.54.44-.44.95-.79,1.54-1.05.59-.26,1.2-.39,1.85-.39.68,0,1.32.13,1.9.39.59.26,1.1.61,1.54,1.05.44.44.79.95,1.05,1.54.26.59.39,1.2.39,1.85,0,.26-.1.49-.29.68-.2.2-.42.29-.68.29s-.49-.1-.68-.29c-.2-.2-.29-.42-.29-.68,0-.39-.07-.76-.22-1.12-.15-.36-.36-.67-.63-.93-.28-.26-.59-.46-.95-.61-.36-.15-.73-.22-1.12-.22s-.76.07-1.1.22c-.34.15-.64.35-.9.61-.26.26-.47.57-.63.93-.16.36-.24.73-.24,1.12,0,.46.09.83.27,1.12.18.29.45.54.81.73.33.23.72.42,1.17.59.23.1.46.19.68.27.23.08.47.17.73.27.49.2.98.4,1.46.61.49.21.93.5,1.32.85s.71.79.95,1.29c.24.5.37,1.13.37,1.88,0,.65-.13,1.27-.39,1.85-.26.59-.61,1.1-1.05,1.54-.44.44-.95.79-1.54,1.05-.59.26-1.22.39-1.9.39h0Z"/>
      <path class="st105" d="M485.68,287.59c-1.17,0-2.29-.23-3.34-.68-1.06-.46-1.98-1.07-2.76-1.85-.78-.78-1.4-1.7-1.85-2.76-.46-1.06-.68-2.17-.68-3.34s.23-2.33.68-3.37c.46-1.04,1.07-1.95,1.85-2.73.78-.78,1.7-1.4,2.76-1.85,1.06-.46,2.17-.68,3.34-.68s2.33.23,3.37.68c1.04.46,1.95,1.07,2.73,1.85.78.78,1.4,1.69,1.85,2.73.46,1.04.68,2.16.68,3.37s-.23,2.29-.68,3.34c-.46,1.06-1.07,1.98-1.85,2.76-.78.78-1.69,1.4-2.73,1.85-1.04.46-2.16.68-3.37.68h0ZM485.68,272.27c-.91,0-1.77.17-2.59.51-.81.34-1.53.81-2.15,1.42-.62.6-1.1,1.32-1.44,2.15-.34.83-.51,1.7-.51,2.61s.17,1.77.51,2.59c.34.81.82,1.53,1.44,2.15.62.62,1.33,1.1,2.15,1.44.81.34,1.68.51,2.59.51s1.82-.17,2.64-.51c.81-.34,1.52-.82,2.12-1.44.6-.62,1.07-1.33,1.42-2.15.34-.81.51-1.68.51-2.59s-.17-1.78-.51-2.61c-.34-.83-.81-1.55-1.42-2.15-.6-.6-1.31-1.07-2.12-1.42-.81-.34-1.69-.51-2.64-.51h0Z"/>
      <path class="st105" d="M681.18,242.51c-1.17,0-2.29-.23-3.34-.68-1.06-.46-1.98-1.07-2.76-1.85-.78-.78-1.4-1.7-1.85-2.76-.46-1.06-.68-2.17-.68-3.34s.23-2.33.68-3.37c.46-1.04,1.07-1.95,1.85-2.73.78-.78,1.7-1.4,2.76-1.85,1.06-.46,2.17-.68,3.34-.68s2.33.23,3.37.68c1.04.46,1.95,1.07,2.73,1.85.78.78,1.4,1.69,1.85,2.73.46,1.04.68,2.16.68,3.37s-.23,2.29-.68,3.34c-.46,1.06-1.07,1.98-1.85,2.76-.78.78-1.69,1.4-2.73,1.85-1.04.46-2.16.68-3.37.68h0ZM681.18,227.19c-.91,0-1.77.17-2.59.51-.81.34-1.53.81-2.15,1.42-.62.6-1.1,1.32-1.44,2.15-.34.83-.51,1.7-.51,2.61s.17,1.77.51,2.59c.34.81.82,1.53,1.44,2.15.62.62,1.33,1.1,2.15,1.44s1.68.51,2.59.51,1.82-.17,2.64-.51c.81-.34,1.52-.82,2.12-1.44s1.07-1.33,1.42-2.15c.34-.81.51-1.68.51-2.59s-.17-1.78-.51-2.61c-.34-.83-.81-1.55-1.42-2.15-.6-.6-1.31-1.07-2.12-1.42-.81-.34-1.69-.51-2.64-.51h0Z"/>
      <path class="st105" d="M704.45,242.51c-.26,0-.49-.1-.68-.29-.2-.2-.29-.42-.29-.68v-7.42h-8.59v7.42c0,.26-.1.49-.29.68-.2.2-.42.29-.68.29s-.49-.1-.68-.29c-.2-.2-.29-.42-.29-.68v-15.32c0-.26.1-.49.29-.68.2-.2.42-.29.68-.29s.49.1.68.29c.2.2.29.42.29.68v5.95h8.59v-5.95c0-.26.1-.49.29-.68.2-.2.42-.29.68-.29s.49.1.68.29c.2.2.29.42.29.68v15.32c0,.26-.1.49-.29.68-.2.2-.42.29-.68.29h0Z"/>
      <path class="st105" d="M617.57,225.55c-1.17,0-2.29-.23-3.34-.68-1.06-.46-1.98-1.07-2.76-1.85-.78-.78-1.4-1.7-1.85-2.76-.46-1.06-.68-2.17-.68-3.34s.23-2.33.68-3.37c.46-1.04,1.07-1.95,1.85-2.73.78-.78,1.7-1.4,2.76-1.85,1.06-.46,2.17-.68,3.34-.68s2.33.23,3.37.68c1.04.46,1.95,1.07,2.73,1.85.78.78,1.4,1.69,1.85,2.73.46,1.04.68,2.16.68,3.37s-.23,2.29-.68,3.34c-.46,1.06-1.07,1.98-1.85,2.76-.78.78-1.69,1.4-2.73,1.85-1.04.46-2.16.68-3.37.68h0ZM617.57,210.23c-.91,0-1.77.17-2.59.51-.81.34-1.53.81-2.15,1.42-.62.6-1.1,1.32-1.44,2.15-.34.83-.51,1.7-.51,2.61s.17,1.77.51,2.59c.34.81.82,1.53,1.44,2.15.62.62,1.33,1.1,2.15,1.44.81.34,1.68.51,2.59.51s1.82-.17,2.64-.51,1.52-.82,2.12-1.44c.6-.62,1.07-1.33,1.42-2.15.34-.81.51-1.68.51-2.59s-.17-1.78-.51-2.61c-.34-.83-.81-1.55-1.42-2.15-.6-.6-1.31-1.07-2.12-1.42s-1.69-.51-2.64-.51h0Z"/>
      <path class="st105" d="M424.9,325.75c-.36,0-.63-.16-.83-.49l-7.86-12.49v12c0,.26-.1.49-.29.68-.2.2-.42.29-.68.29s-.49-.1-.68-.29c-.2-.2-.29-.42-.29-.68v-15.32c0-.26.1-.49.29-.68.2-.2.42-.29.68-.29.36,0,.63.15.83.44l7.91,12.49v-11.96c0-.26.09-.49.27-.68.18-.2.4-.29.66-.29s.49.1.68.29c.2.2.29.42.29.68v15.32c0,.26-.1.49-.29.68-.2.2-.42.29-.68.29h0Z"/>
      <path class="st105" d="M420.07,287.59c-1.17,0-2.29-.23-3.34-.68-1.06-.46-1.98-1.07-2.76-1.85-.78-.78-1.4-1.7-1.85-2.76-.46-1.06-.68-2.17-.68-3.34s.23-2.33.68-3.37c.46-1.04,1.07-1.95,1.85-2.73.78-.78,1.7-1.4,2.76-1.85,1.06-.46,2.17-.68,3.34-.68s2.33.23,3.37.68,1.95,1.07,2.73,1.85c.78.78,1.4,1.69,1.85,2.73.46,1.04.68,2.16.68,3.37s-.23,2.29-.68,3.34c-.46,1.06-1.07,1.98-1.85,2.76-.78.78-1.69,1.4-2.73,1.85-1.04.46-2.16.68-3.37.68h0ZM420.07,272.27c-.91,0-1.77.17-2.59.51-.81.34-1.53.81-2.15,1.42-.62.6-1.1,1.32-1.44,2.15-.34.83-.51,1.7-.51,2.61s.17,1.77.51,2.59c.34.81.82,1.53,1.44,2.15.62.62,1.33,1.1,2.15,1.44.81.34,1.68.51,2.59.51s1.82-.17,2.64-.51,1.52-.82,2.12-1.44c.6-.62,1.07-1.33,1.42-2.15.34-.81.51-1.68.51-2.59s-.17-1.78-.51-2.61c-.34-.83-.81-1.55-1.42-2.15-.6-.6-1.31-1.07-2.12-1.42-.81-.34-1.69-.51-2.64-.51h0Z"/>
      <path class="st105" d="M426.91,404.97c-.36,0-.63-.16-.83-.49l-7.86-12.49v12c0,.26-.1.49-.29.68-.2.2-.42.29-.68.29s-.49-.1-.68-.29c-.2-.2-.29-.42-.29-.68v-15.32c0-.26.1-.49.29-.68.2-.2.42-.29.68-.29.36,0,.63.15.83.44l7.91,12.49v-11.96c0-.26.09-.49.27-.68.18-.2.4-.29.66-.29s.49.1.68.29c.2.2.29.42.29.68v15.32c0,.26-.1.49-.29.68-.2.2-.42.29-.68.29h0Z"/>
      <path class="st105" d="M471.82,440.9c-.65,0-1.27-.13-1.85-.39-.59-.26-1.1-.61-1.54-1.05-.44-.44-.79-.95-1.05-1.54-.26-.59-.39-1.2-.39-1.85,0-.29.1-.53.29-.71.2-.18.42-.27.68-.27.29,0,.53.09.71.27.18.18.27.41.27.71,0,.39.08.76.24,1.1.16.34.37.64.63.9.26.26.56.47.9.63.34.16.71.24,1.1.24s.76-.08,1.12-.24.68-.37.95-.63c.28-.26.49-.56.63-.9.15-.34.22-.71.22-1.1,0-.49-.1-.89-.29-1.2-.2-.31-.46-.59-.78-.85-.16-.1-.35-.2-.56-.29-.21-.1-.41-.2-.61-.29-.23-.1-.46-.19-.68-.27-.23-.08-.47-.17-.73-.27-.49-.16-.98-.36-1.46-.59-.49-.23-.92-.5-1.29-.83s-.69-.73-.95-1.22c-.26-.49-.39-1.09-.39-1.81,0-.65.13-1.27.39-1.85.26-.59.61-1.1,1.05-1.54.44-.44.95-.79,1.54-1.05.59-.26,1.2-.39,1.85-.39.68,0,1.32.13,1.9.39.59.26,1.1.61,1.54,1.05.44.44.79.95,1.05,1.54.26.59.39,1.2.39,1.85,0,.26-.1.49-.29.68-.2.2-.42.29-.68.29s-.49-.1-.68-.29c-.2-.2-.29-.42-.29-.68,0-.39-.07-.76-.22-1.12-.15-.36-.36-.67-.63-.93-.28-.26-.59-.46-.95-.61-.36-.15-.73-.22-1.12-.22s-.76.07-1.1.22c-.34.15-.64.35-.9.61-.26.26-.47.57-.63.93-.16.36-.24.73-.24,1.12,0,.46.09.83.27,1.12.18.29.45.54.81.73.33.23.72.42,1.17.59.23.1.46.19.68.27.23.08.47.17.73.27.49.2.98.4,1.46.61.49.21.93.5,1.32.85.39.36.71.79.95,1.29.24.5.37,1.13.37,1.88,0,.65-.13,1.27-.39,1.85-.26.59-.61,1.1-1.05,1.54-.44.44-.95.79-1.54,1.05-.59.26-1.22.39-1.9.39h0Z"/>
      <path class="st105" d="M416.42,471.7c-.36,0-.63-.16-.83-.49l-7.86-12.49v12c0,.26-.1.49-.29.68-.2.2-.42.29-.68.29s-.49-.1-.68-.29c-.2-.2-.29-.42-.29-.68v-15.32c0-.26.1-.49.29-.68.2-.2.42-.29.68-.29.36,0,.63.15.83.44l7.91,12.49v-11.96c0-.26.09-.49.27-.68.18-.2.4-.29.66-.29s.49.1.68.29c.2.2.29.42.29.68v15.32c0,.26-.1.49-.29.68-.2.2-.42.29-.68.29h0Z"/>
      <path class="st105" d="M391.19,471.7c-.26,0-.49-.1-.68-.29-.2-.2-.29-.42-.29-.68v-7.42h-8.59v7.42c0,.26-.1.49-.29.68-.2.2-.42.29-.68.29s-.49-.1-.68-.29c-.2-.2-.29-.42-.29-.68v-15.32c0-.26.1-.49.29-.68.2-.2.42-.29.68-.29s.49.1.68.29c.2.2.29.42.29.68v5.95h8.59v-5.95c0-.26.1-.49.29-.68.2-.2.42-.29.68-.29s.49.1.68.29c.2.2.29.42.29.68v15.32c0,.26-.1.49-.29.68-.2.2-.42.29-.68.29h0Z"/>
      <path class="st105" d="M401.93,475.4h-5.95c-.2,0-.36-.07-.49-.22-.13-.15-.2-.3-.2-.46,0-.52.07-.99.22-1.42.15-.42.35-.8.61-1.12.26-.39.55-.74.88-1.05.33-.31.63-.61.93-.9l2.2-2.2c.2-.2.35-.42.46-.68.11-.26.17-.54.17-.83s-.05-.57-.15-.83c-.1-.26-.24-.48-.41-.66-.18-.18-.4-.33-.66-.44-.26-.11-.54-.17-.83-.17-.26,0-.52.06-.78.17-.26.11-.48.27-.66.46-.18.2-.33.41-.44.66-.11.24-.17.51-.17.81,0,.2-.07.36-.2.49-.13.13-.29.2-.49.2s-.36-.07-.49-.2c-.13-.13-.2-.29-.2-.49,0-.49.09-.94.27-1.34.18-.41.42-.76.73-1.07.31-.31.68-.56,1.1-.76.42-.2.86-.29,1.32-.29.49,0,.94.09,1.37.27.42.18.79.42,1.1.73.31.31.54.68.71,1.1.16.42.24.88.24,1.37,0,.46-.09.9-.27,1.34-.18.44-.43.82-.76,1.15l-2.2,2.2c-.23.23-.46.46-.71.68-.24.23-.48.47-.71.73-.2.2-.36.41-.49.63-.13.23-.23.47-.29.73h5.22c.2,0,.37.07.51.22.15.15.22.32.22.51,0,.16-.07.32-.22.46s-.32.22-.51.22h0Z"/>
      <path class="st105" d="M420.07,211.71c-1.17,0-2.29-.23-3.34-.68-1.06-.46-1.98-1.07-2.76-1.85-.78-.78-1.4-1.7-1.85-2.76-.46-1.06-.68-2.17-.68-3.34s.23-2.33.68-3.37c.46-1.04,1.07-1.95,1.85-2.73.78-.78,1.7-1.4,2.76-1.85,1.06-.46,2.17-.68,3.34-.68s2.33.23,3.37.68c1.04.46,1.95,1.07,2.73,1.85.78.78,1.4,1.69,1.85,2.73.46,1.04.68,2.16.68,3.37s-.23,2.29-.68,3.34c-.46,1.06-1.07,1.98-1.85,2.76-.78.78-1.69,1.4-2.73,1.85-1.04.46-2.16.68-3.37.68h0ZM420.07,196.39c-.91,0-1.77.17-2.59.51-.81.34-1.53.81-2.15,1.42-.62.6-1.1,1.32-1.44,2.15-.34.83-.51,1.7-.51,2.61s.17,1.77.51,2.59c.34.81.82,1.53,1.44,2.15.62.62,1.33,1.1,2.15,1.44.81.34,1.68.51,2.59.51s1.82-.17,2.64-.51c.81-.34,1.52-.82,2.12-1.44.6-.62,1.07-1.33,1.42-2.15.34-.81.51-1.68.51-2.59s-.17-1.78-.51-2.61c-.34-.83-.81-1.55-1.42-2.15-.6-.6-1.31-1.07-2.12-1.42-.81-.34-1.69-.51-2.64-.51h0Z"/>
      <path class="st105" d="M354.24,211.71c-1.17,0-2.29-.23-3.34-.68-1.06-.46-1.98-1.07-2.76-1.85-.78-.78-1.4-1.7-1.85-2.76-.46-1.06-.68-2.17-.68-3.34s.23-2.33.68-3.37c.46-1.04,1.07-1.95,1.85-2.73.78-.78,1.7-1.4,2.76-1.85,1.06-.46,2.17-.68,3.34-.68s2.33.23,3.37.68c1.04.46,1.95,1.07,2.73,1.85.78.78,1.4,1.69,1.85,2.73.46,1.04.68,2.16.68,3.37s-.23,2.29-.68,3.34c-.46,1.06-1.07,1.98-1.85,2.76-.78.78-1.69,1.4-2.73,1.85-1.04.46-2.16.68-3.37.68h0ZM354.24,196.39c-.91,0-1.77.17-2.59.51-.81.34-1.53.81-2.15,1.42-.62.6-1.1,1.32-1.44,2.15-.34.83-.51,1.7-.51,2.61s.17,1.77.51,2.59c.34.81.82,1.53,1.44,2.15.62.62,1.33,1.1,2.15,1.44.81.34,1.68.51,2.59.51s1.82-.17,2.64-.51c.81-.34,1.52-.82,2.12-1.44.6-.62,1.07-1.33,1.42-2.15.34-.81.51-1.68.51-2.59s-.17-1.78-.51-2.61c-.34-.83-.81-1.55-1.42-2.15-.6-.6-1.31-1.07-2.12-1.42-.81-.34-1.69-.51-2.64-.51h0Z"/>
      <path class="st105" d="M341.5,211.71c-.26,0-.49-.1-.68-.29-.2-.2-.29-.42-.29-.68v-7.42h-8.59v7.42c0,.26-.1.49-.29.68-.2.2-.42.29-.68.29s-.49-.1-.68-.29c-.2-.2-.29-.42-.29-.68v-15.32c0-.26.1-.49.29-.68.2-.2.42-.29.68-.29s.49.1.68.29c.2.2.29.42.29.68v5.95h8.59v-5.95c0-.26.1-.49.29-.68.2-.2.42-.29.68-.29s.49.1.68.29c.2.2.29.42.29.68v15.32c0,.26-.1.49-.29.68-.2.2-.42.29-.68.29h0Z"/>
    </g>
    <polygon class="st109" points="837.42 435.38 822.42 439.4 820.48 437.46 834.15 433.8 729.39 329.03 731.07 327.35 835.83 432.11 839.5 418.44 841.44 420.38 837.42 435.38"/>
  </g>
  <g class="st108">
    <rect class="st0" x="1214.88" y="705.55" width="39.06" height="39.06" rx="8.38" ry="8.38"/>
    <path class="st114" d="M1248.89,722.61l-4.97-4.97v-6.89c0-.24-.19-.43-.43-.43h-3.07c-.24,0-.43.19-.43.43v2.96l-4.53-4.53c-.58-.57-1.51-.57-2.08,0l-13.45,13.44c-.87.87-.35,2.36.87,2.5l2.17.25v14.55c0,.81.66,1.47,1.47,1.47h6.34v-10.56c0-.71.57-1.28,1.28-1.28h4.7c.71,0,1.28.57,1.28,1.28v10.56h6.34c.81,0,1.47-.66,1.47-1.47v-14.56l2.17-.26c1.22-.14,1.74-1.64.87-2.5Z"/>
  </g>
</svg>